<svg width="57" height="46" viewBox="0 0 57 46" fill="none" xmlns="http://www.w3.org/2000/svg">
<path d="M28.1904 11.2554C28.1906 11.3387 28.1957 11.4279 28.2077 11.5264C28.2418 11.8049 28.3328 12.1575 28.5717 12.4646C28.8106 12.7718 29.1973 13.0334 29.8911 13.3235C30.5849 13.6135 31.586 13.932 32.655 14.1139C33.7243 14.296 34.8618 14.3415 35.8229 14.3244C36.7841 14.3073 37.5689 14.2277 38.3309 14.0513C39.093 13.8751 39.8324 13.6021 40.4012 13.295C40.9698 12.9879 41.3679 12.6466 41.5898 12.4077C41.8115 12.1689 41.8569 12.0325 41.8741 11.896C41.8911 11.7594 41.8797 11.623 41.8683 11.4865" stroke="#101F52" stroke-width="0.3501"/>
<path d="M28.2083 11.5263C28.1098 12.4456 28.0111 13.365 27.9222 14.274C27.8329 15.1831 27.7533 16.0817 27.5714 16.7357C27.3893 17.3897 27.1051 17.7991 26.3772 18.2257C25.6491 18.6523 24.4775 19.0958 22.8851 19.5508C21.2926 20.0058 19.2794 20.4722 17.9941 20.7565C16.7087 21.0409 16.1514 21.1433 15.7704 21.2001C15.3893 21.257 15.1847 21.2684 14.7411 21.3707C14.2974 21.4731 13.615 21.6664 13.0975 21.8939C12.5798 22.1215 12.2274 22.3831 11.8805 22.6845C11.5335 22.986 11.1923 23.3272 10.9761 23.7081C10.76 24.0893 10.6691 24.51 10.6236 24.9821C10.578 25.4542 10.578 25.9774 10.7031 26.3697C10.8282 26.7622 11.0785 27.0238 11.505 27.3537C11.9316 27.6836 12.5343 28.0816 13.1031 28.3887C13.6718 28.6959 14.2063 28.912 14.6786 29.0712C15.1506 29.2305 15.56 29.3329 16.3904 29.2817C17.2207 29.2305 18.4718 29.0258 20.2804 28.6901C22.0889 28.3546 24.4548 27.8883 26.1041 27.6039C27.7533 27.3195 28.686 27.2171 29.5448 27.1773C30.4036 27.1376 31.1884 27.1603 31.8254 27.2058C32.4624 27.2513 32.9514 27.3195 33.4633 27.456C33.9752 27.5926 34.5098 27.7973 36.3638 28.6789C36.6698 28.8243 37.0119 28.9883 37.3794 29.1652M47.6933 33.9104C47.8253 33.9616 47.9536 34.0109 48.0794 34.0588C49.1371 34.4626 50.0245 34.7812 50.6955 34.9518C51.3666 35.1224 51.8216 35.1451 52.3618 35.111C52.9022 35.0769 53.5277 34.9859 54.1079 34.8209C54.688 34.656 55.2226 34.4172 55.5923 34.184C55.9619 33.9508 56.1666 33.7234 56.2576 33.3423C56.3485 32.9613 56.3258 32.4267 56.1552 31.8238C55.9846 31.2209 55.6662 30.5499 54.8529 29.6968C54.0397 28.8437 52.7315 27.8087 51.4689 26.8419C50.9025 26.4081 50.3454 25.9881 49.8281 25.6055M49.7516 18.7332C50.3354 18.3987 50.8983 18.0099 51.3212 17.6058C51.833 17.1168 52.1401 16.6048 52.322 16.0588C52.5041 15.5129 52.5609 14.9329 52.4871 14.4835C52.413 14.0342 52.2083 13.7158 51.56 13.2608C50.9117 12.8058 49.8197 12.2143 49.1315 11.8732C48.4434 11.5319 48.1591 11.4409 47.8292 11.4067C47.4993 11.3727 47.1239 11.3954 46.7942 11.4636C46.4643 11.5319 46.1799 11.6456 45.9068 11.7935C45.6339 11.9414 45.3723 12.1233 45.1619 12.3109C44.9515 12.4987 44.7923 12.692 44.6387 12.8513C44.4851 13.0105 44.3372 13.1357 44.0359 13.2949C43.7344 13.4542 43.2795 13.6475 42.8984 13.7783C42.5174 13.9091 42.2102 13.9774 41.903 14.0456" stroke="#101F52" stroke-width="0.3501"/>
<path d="M29.9253 19.6763C29.4361 20.0403 28.947 20.4042 28.003 20.7624C27.0588 21.1208 25.6599 21.4734 23.9879 21.8715C22.3157 22.2696 20.3709 22.7131 18.9489 23.0658C17.5272 23.4184 16.6285 23.6801 15.9973 23.9417C15.366 24.2033 15.002 24.4648 14.7348 24.7834C14.4674 25.1019 14.2968 25.4772 14.1887 25.9663C14.0806 26.4554 14.0352 27.0582 14.0977 27.5132C14.1602 27.9682 14.331 28.2753 14.5426 28.5371C14.7544 28.799 15.007 29.0155 15.3218 29.132C15.6365 29.2487 16.0132 29.2653 16.3898 29.282" stroke="#101F52" stroke-width="0.3501"/>
<path d="M52.038 35.1245C52.1629 33.9334 52.2877 32.7423 52.0829 31.8738C51.8779 31.0052 51.3434 30.4593 49.7283 29.4128C49.4775 29.2505 49.201 29.0759 48.9048 28.8925M39.3656 22.9105C39.1896 22.7829 39.0232 22.6604 38.8657 22.5426C37.8306 21.7693 37.171 21.2005 36.6931 20.7057C36.2154 20.2109 35.9196 19.7901 35.7207 18.9825C35.5216 18.175 35.4192 16.9806 35.3737 16.2071C35.3283 15.4337 35.3396 15.0812 35.351 14.7285" stroke="#101F52" stroke-width="0.3501"/>
<path d="M51.56 13.2609C50.7637 13.4201 49.9676 13.5793 49.1316 13.841C48.2955 14.1026 47.4197 14.4665 46.6747 14.7794C45.9296 15.0922 45.3155 15.3537 44.5818 15.5528C43.8481 15.7519 42.9951 15.8884 42.5231 15.8372C42.051 15.786 41.9599 15.5471 41.8974 15.132C41.8348 14.7168 41.8007 14.1254 41.8018 13.5566C41.8027 12.9879 41.8386 12.442 41.8747 11.896" stroke="#101F52" stroke-width="0.3501"/>
<path d="M48.2686 34.1309C48.274 34.7496 48.2793 35.3682 48.3219 35.7116C48.3643 36.0551 48.4439 36.1233 48.6602 36.2313C48.8762 36.3394 49.2287 36.4873 49.5415 36.5897C49.8545 36.692 50.1273 36.7489 50.4401 36.7887C50.7529 36.8286 51.1056 36.8513 51.5094 36.8513C51.9132 36.8513 52.3681 36.8286 52.8344 36.7545C53.3008 36.6807 53.7784 36.5555 54.1766 36.3736C54.5747 36.1915 54.8932 35.9527 55.0866 35.7821C55.2799 35.6115 55.3482 35.5091 55.3645 35.2812C55.3807 35.0534 55.3449 34.7001 55.3093 34.3468" stroke="#101F52" stroke-width="0.3501"/>
<path d="M50.6418 36.8115C50.6353 36.6332 50.6286 36.4551 50.6396 36.3717C50.6505 36.2883 50.679 36.2996 50.969 36.2968C51.259 36.294 51.8107 36.2769 52.2457 36.257C52.6808 36.2371 52.9993 36.2144 53.1585 36.2144C53.3177 36.2144 53.3177 36.2371 53.3177 36.2854C53.3177 36.3338 53.3177 36.4077 53.3167 36.4746C53.3156 36.5414 53.3138 36.6011 53.3117 36.6609" stroke="#101F52" stroke-width="0.3501"/>
<path d="M40.9687 31.6411C40.9434 31.8418 40.921 32.0373 40.9041 32.223C40.8679 32.6202 40.8563 32.9727 40.9019 33.2855C40.9474 33.5983 41.0497 33.8713 41.1721 34.0846C41.2943 34.2978 41.4365 34.4514 41.6354 34.5935C41.8345 34.7358 42.0905 34.8666 42.5255 34.9831C42.9606 35.0998 43.5748 35.2021 44.1152 35.2305C44.6555 35.259 45.1217 35.2136 45.5483 35.1282C45.9748 35.0429 46.3615 34.9178 46.6373 34.7756C46.9131 34.6334 47.0782 34.4742 47.1691 34.3263C47.2601 34.1784 47.2771 34.0419 47.2943 33.9054" stroke="#101F52" stroke-width="0.3501"/>
<path d="M43.7045 33.0205C43.7095 33.2237 43.7121 33.4178 43.71 33.5928C43.7059 33.9393 43.6829 34.2123 43.6461 34.4284C43.609 34.6445 43.5578 34.8037 43.5003 34.9136C43.4426 35.0236 43.3785 35.0843 43.3145 35.1448" stroke="#101F52" stroke-width="0.3501"/>
<path d="M43.8592 33.0552C43.8388 33.181 43.8183 33.3074 43.7982 33.4347C43.7467 33.7614 43.6963 34.095 43.776 34.3509C43.8556 34.6069 44.0651 34.785 44.2632 34.9178C44.4615 35.0505 44.6484 35.1377 44.8741 35.1623C45.0997 35.1871 45.3641 35.1494 45.6645 35.0745C45.9648 34.9996 46.3013 34.8876 46.558 34.7567C46.8149 34.6258 46.9921 34.4761 47.0645 34.3167C47.1371 34.1576 47.1048 33.9888 47.0726 33.8202" stroke="#101F52" stroke-width="0.3501"/>
<path d="M42.0907 34.9975C42.0794 36.0156 42.068 37.0335 42.0738 37.5681C42.0794 38.1026 42.1023 38.1539 42.2245 38.2364C42.3467 38.3188 42.5686 38.4326 42.8358 38.5122C43.1032 38.5918 43.416 38.6373 43.7942 38.6458C44.1724 38.6544 44.616 38.6259 44.9259 38.5605C45.2358 38.4951 45.4123 38.3928 45.5941 38.279C45.7761 38.1653 45.9638 38.0401 46.0775 37.9321C46.1914 37.824 46.2311 37.733 46.2575 37.2335C46.2839 36.7341 46.2969 35.8259 46.3098 34.918" stroke="#101F52" stroke-width="0.3501"/>
<path d="M42.285 38.4264C42.2509 38.4462 42.1536 38.5816 42.1081 38.7942C42.0622 39.007 42.0678 39.2971 42.0964 39.462C42.1247 39.627 42.176 39.6668 42.284 39.7264C42.392 39.7862 42.5571 39.8658 42.7333 39.9226C42.9095 39.9795 43.0974 40.0137 43.2936 40.0364C43.4898 40.0592 43.6945 40.0705 43.9304 40.0592C44.1664 40.0477 44.4338 40.0137 44.6357 39.9738C44.8375 39.934 44.9741 39.8886 45.1334 39.8288C45.2926 39.7691 45.4746 39.6952 45.6054 39.6156C45.7361 39.536 45.8158 39.4506 45.8955 39.3567C45.9751 39.263 46.0546 39.1606 46.0945 38.9899C46.1342 38.8193 46.1342 38.5805 46.1286 38.4695C46.1229 38.3586 46.1115 38.3758 46.0433 38.4526C45.9751 38.5293 45.85 38.6658 45.6964 38.7937C45.5429 38.9217 45.3608 39.0412 45.1561 39.1293C44.9513 39.2175 44.7239 39.2743 44.4424 39.3027C44.1609 39.3312 43.8253 39.3312 43.5467 39.3112C43.2679 39.2913 43.0461 39.2516 42.8641 39.2032C42.6822 39.1548 42.5399 39.098 42.4405 39.0468C42.3409 38.9957 42.284 38.9502 42.2613 38.8762C42.2386 38.8023 42.25 38.6999 42.27 38.6009C42.2902 38.502 42.3191 38.4065 42.285 38.4264Z" stroke="#101F52" stroke-width="0.3501"/>
<path d="M42.2009 39.7925C42.1668 39.8124 42.0695 39.9478 42.024 40.1604C41.9781 40.3731 41.9838 40.6632 42.0123 40.8281C42.0406 40.9931 42.0919 41.0329 42.1999 41.0926C42.308 41.1523 42.4729 41.2319 42.6492 41.2888C42.8255 41.3456 43.0133 41.3798 43.2095 41.4025C43.4057 41.4253 43.6104 41.4366 43.8464 41.4253C44.0824 41.4139 44.3497 41.3798 44.5516 41.3399C44.7535 41.3001 44.8901 41.2547 45.0493 41.195C45.2084 41.1352 45.3905 41.0613 45.5213 40.9817C45.652 40.9021 45.7318 40.8168 45.8114 40.7229C45.891 40.6291 45.9706 40.5267 46.0104 40.3561C46.0501 40.1855 46.0501 39.9467 46.0445 39.8357C46.0388 39.7248 46.0274 39.7419 45.9592 39.8187C45.891 39.8954 45.7659 40.0319 45.6123 40.1599C45.4588 40.2878 45.2767 40.4073 45.072 40.4955C44.8672 40.5836 44.6398 40.6405 44.3583 40.6689C44.0768 40.6973 43.7411 40.6973 43.4626 40.6773C43.1838 40.6575 42.9621 40.6178 42.78 40.5693C42.5981 40.521 42.4558 40.4641 42.3564 40.4129C42.2569 40.3618 42.1999 40.3164 42.1772 40.2423C42.1544 40.1685 42.1659 40.0661 42.1859 39.9671C42.2061 39.8681 42.235 39.7726 42.2009 39.7925Z" stroke="#101F52" stroke-width="0.3501"/>
<path d="M42.1169 41.1593C42.0828 41.1791 41.9856 41.3145 41.94 41.5272C41.8942 41.7398 41.8999 42.03 41.9284 42.1948C41.9567 42.3598 42.008 42.3996 42.1161 42.4594C42.2242 42.519 42.389 42.5986 42.5653 42.6555C42.7416 42.7123 42.9294 42.7465 43.1256 42.7693C43.3217 42.792 43.5265 42.8034 43.7625 42.792C43.9985 42.7806 44.2658 42.7465 44.4677 42.7066C44.6696 42.6668 44.8061 42.6214 44.9654 42.5617C45.1246 42.502 45.3066 42.4281 45.4374 42.3484C45.5681 42.2688 45.6479 42.1835 45.7275 42.0896C45.8071 41.9958 45.8867 41.8934 45.9265 41.7229C45.9663 41.5522 45.9663 41.3134 45.9606 41.2025C45.9549 41.0915 45.9435 41.1086 45.8752 41.1854C45.8071 41.2621 45.682 41.3987 45.5284 41.5266C45.3748 41.6546 45.1928 41.7741 44.9881 41.8622C44.7833 41.9503 44.5559 42.0072 44.2744 42.0356C43.9928 42.064 43.6572 42.064 43.3787 42.0441C43.0999 42.0243 42.8782 41.9845 42.6961 41.9361C42.5142 41.8877 42.3719 41.8309 42.2725 41.7797C42.1729 41.7286 42.1161 41.6831 42.0934 41.609C42.0706 41.5352 42.082 41.4328 42.1021 41.3339C42.1222 41.2348 42.1512 41.1394 42.1169 41.1593Z" stroke="#101F52" stroke-width="0.3501"/>
<path d="M42.0329 42.526C41.9988 42.5459 41.9016 42.6812 41.856 42.8939C41.8103 43.1066 41.8159 43.3967 41.8443 43.5616C41.8728 43.7266 41.924 43.7663 42.0321 43.8261C42.1401 43.8858 42.305 43.9653 42.4814 44.0222C42.6576 44.0791 42.8454 44.1132 43.0416 44.136C43.2377 44.1587 43.4424 44.1701 43.6785 44.1587C43.9145 44.1474 44.1818 44.1132 44.3837 44.0734C44.5856 44.0336 44.7221 43.9882 44.8814 43.9284C45.0406 43.8687 45.2226 43.7948 45.3534 43.7152C45.4841 43.6356 45.5638 43.5502 45.6435 43.4564C45.7231 43.3625 45.8027 43.2602 45.8425 43.0896C45.8823 42.9189 45.8822 42.6802 45.8765 42.5692C45.8708 42.4583 45.8596 42.4753 45.7913 42.5522C45.7231 42.6289 45.598 42.7654 45.4443 42.8933C45.2908 43.0213 45.1087 43.1408 44.904 43.2289C44.6992 43.317 44.4719 43.3739 44.1904 43.4023C43.9088 43.4308 43.5732 43.4308 43.2947 43.4109C43.0159 43.391 42.7942 43.3512 42.6122 43.3029C42.4302 43.2544 42.2879 43.1977 42.1885 43.1464C42.0889 43.0953 42.0321 43.0498 42.0094 42.9758C41.9865 42.9019 41.998 42.7995 42.018 42.7006C42.0382 42.6016 42.0672 42.5061 42.0329 42.526Z" stroke="#101F52" stroke-width="0.3501"/>
<path d="M41.9479 43.8926C41.9138 43.9125 41.8166 44.0478 41.771 44.2605C41.7253 44.4732 41.7309 44.7633 41.7593 44.9282C41.7878 45.0932 41.839 45.133 41.9471 45.1927C42.0551 45.2525 42.2201 45.332 42.3964 45.3889C42.5726 45.4458 42.7603 45.4799 42.9566 45.5026C43.1528 45.5253 43.3574 45.5368 43.5935 45.5253C43.8295 45.514 44.0968 45.4799 44.2988 45.44C44.5007 45.4002 44.6371 45.3548 44.7964 45.2951C44.9556 45.2354 45.1376 45.1614 45.2684 45.0819C45.3991 45.0022 45.4788 44.9168 45.5585 44.823C45.6381 44.7292 45.7177 44.6268 45.7575 44.4562C45.7973 44.2856 45.7973 44.0468 45.7916 43.9358C45.7859 43.8249 45.7746 43.842 45.7063 43.9188C45.6381 43.9956 45.5129 44.1321 45.3594 44.26C45.2058 44.388 45.0238 44.5074 44.8192 44.5955C44.6143 44.6837 44.3869 44.7406 44.1054 44.7689C43.8239 44.7975 43.4882 44.7975 43.2096 44.7775C42.9309 44.7576 42.709 44.7178 42.5272 44.6695C42.3452 44.6211 42.2029 44.5643 42.1034 44.5131C42.004 44.4619 41.9471 44.4164 41.9244 44.3425C41.9015 44.2685 41.913 44.1661 41.933 44.0672C41.9532 43.9682 41.9822 43.8728 41.9479 43.8926Z" stroke="#101F52" stroke-width="0.3501"/>
<path d="M16.1709 21.1339C16.1435 20.9835 16.1162 20.8329 15.7387 20.5529C15.361 20.2729 14.6331 19.8635 13.9733 19.6133C13.3136 19.363 12.7221 19.272 12.2387 19.2265C11.7554 19.181 11.38 19.181 11.107 19.2265C10.8339 19.272 10.6634 19.363 10.3108 19.6644C9.95813 19.9659 9.42363 20.4777 9.04253 20.9555C8.66153 21.4332 8.43393 21.8767 8.26913 22.3033C8.10403 22.7299 8.00173 23.1393 7.95623 23.5658C7.91073 23.9924 7.92213 24.436 7.97333 24.8569C8.02453 25.2777 8.11563 25.6758 8.20663 25.9715C8.29753 26.2673 8.38843 26.4607 8.70703 26.7052C9.02553 26.9498 9.57143 27.2454 9.95823 27.4445C10.3449 27.6436 10.5724 27.7459 10.8396 27.8426C11.107 27.9393 11.4141 28.0303 11.7502 28.0936C12.086 28.157 12.451 28.1926 12.8158 28.2283" stroke="#101F52" stroke-width="0.3501"/>
<path d="M16.0176 20.8003C15.1201 20.5676 14.2227 20.3351 13.6886 20.2415C13.1545 20.1479 12.9839 20.1934 12.8018 20.3128C12.62 20.4323 12.4266 20.6256 11.9602 21.1318C11.4939 21.6379 10.7545 22.457 10.3678 22.946C9.98103 23.4351 9.94693 23.5944 9.92993 23.674C9.91293 23.7537 9.91293 23.7537 9.99293 24.4045C10.0728 25.0552 10.2325 26.357 10.3125 27.0077C10.3925 27.6586 10.3925 27.6586 10.6188 27.7311C10.8451 27.8037 11.2978 27.9487 11.524 28.0212C11.7504 28.0937 11.7504 28.0937 11.7795 28.0987C11.8088 28.1039 11.8672 28.1139 11.9256 28.1241" stroke="#101F52" stroke-width="0.3501"/>
<path d="M11.1074 19.2266C11.7559 19.5533 12.4042 19.8798 13.0526 20.2064" stroke="#101F52" stroke-width="0.3501"/>
<path d="M8.1377 22.6851C8.7353 23.0147 9.333 23.3445 9.9305 23.6741" stroke="#101F52" stroke-width="0.3501"/>
<path d="M8.38965 26.3843C9.05745 26.809 9.72505 27.2337 10.3927 27.6584" stroke="#101F52" stroke-width="0.3501"/>
<path d="M16.7183 21.0288C16.7133 20.1739 16.7083 19.3191 16.6433 18.5902C16.5783 17.8614 16.4532 17.2586 16.26 16.6784C16.0665 16.0983 15.8049 15.541 15.4126 15.0291C15.0201 14.5173 14.4968 14.051 14.0361 13.6813C13.5755 13.3117 13.1774 13.0386 12.6258 12.8112C12.0741 12.5836 11.3689 12.4018 10.7546 12.3107C10.1403 12.2197 9.61722 12.2197 9.10532 12.2652C8.59352 12.3107 8.09302 12.4017 7.66652 12.5097C7.23982 12.6178 6.88732 12.7429 6.46082 12.9874C6.03422 13.232 5.53382 13.596 4.99352 14.0225C4.45322 14.4491 3.87322 14.9381 3.36142 15.4841C2.84942 16.0301 2.40582 16.6329 1.99632 17.2984C1.58682 17.9638 1.21152 18.6917 0.927218 19.4424C0.642818 20.1931 0.449418 20.9666 0.324318 21.7628C0.199218 22.5591 0.142318 23.378 0.193618 24.1344C0.244718 24.8907 0.403918 25.5846 0.790618 26.3296C1.17732 27.0746 1.79172 27.8709 2.48542 28.4908C3.17922 29.1107 3.95272 29.5543 4.59542 29.8272C5.23802 30.1002 5.74982 30.2027 6.22762 30.2652C6.70542 30.3278 7.14892 30.3505 7.63232 30.3107C8.11592 30.2709 8.63902 30.1685 9.17932 30.0093C9.71972 29.85 10.2769 29.6339 10.7604 29.4121C11.2437 29.1903 11.6531 28.9628 11.9329 28.7595C12.2127 28.5561 12.3626 28.377 12.5127 28.1977" stroke="#101F52" stroke-width="0.3501"/>
<path d="M3.4872 29.2437C3.0385 28.5623 2.59 27.881 2.2407 27.0341C1.8912 26.1873 1.6409 25.1749 1.5954 24.0317C1.5499 22.8887 1.7092 21.6147 2.1301 20.3465C2.5509 19.0782 3.2334 17.8157 3.8533 16.9399C4.4733 16.064 5.0306 15.575 5.6789 15.0687C6.3272 14.5626 7.0666 14.0395 7.7547 13.6868C8.4428 13.3341 9.0799 13.1522 9.7396 13.0668C10.3992 12.9815 11.0818 12.9929 11.6896 13.0299C12.2976 13.067 12.8308 13.1295 13.3702 13.3872C13.9093 13.645 14.4543 14.0978 14.9993 14.5505" stroke="#101F52" stroke-width="0.3501"/>
<path d="M41.8818 11.6913C42.5116 10.9802 43.1414 10.269 43.6212 9.8509C44.101 9.4328 44.4308 9.3076 45.0109 9.3645C45.5911 9.4214 46.4214 9.6602 46.9902 9.8479C47.5589 10.0356 47.8658 10.172 48.1729 10.3541C48.4801 10.5361 48.7872 10.7635 48.9749 10.9512C49.1626 11.1389 49.2309 11.2868 49.2868 11.4591C49.3429 11.6314 49.3867 11.828 49.4305 12.0247" stroke="#101F52" stroke-width="0.3501"/>
<path d="M41.9023 14.046C42.5054 13.8483 43.1084 13.6508 43.5919 13.4757C44.0754 13.3007 44.4393 13.1483 44.7095 12.9896C44.9797 12.8309 45.156 12.666 45.2752 12.5053C45.3945 12.3446 45.4568 12.1881 45.5731 12.0595C45.6893 11.9309 45.8597 11.8304 46.072 11.7358C46.2845 11.6411 46.539 11.5525 46.7522 11.4972C46.9652 11.4418 47.1371 11.4195 47.3095 11.4101C47.482 11.4005 47.6553 11.4039 47.8285 11.4071" stroke="#101F52" stroke-width="0.3501"/>
<path d="M41.8516 12.2439C42.4204 12.5515 42.9892 12.8588 43.2737 13.0126C43.558 13.1664 43.558 13.1664 43.5694 13.1237C43.5807 13.081 43.6035 12.9958 43.9932 12.609C44.3826 12.2222 45.139 11.5341 45.6451 11.0933C46.1515 10.6526 46.4074 10.4593 46.5809 10.3569C46.7542 10.2545 46.8452 10.2432 46.9762 10.246C47.1069 10.2488 47.2776 10.2659 47.5678 10.3432C47.8581 10.4204 48.2681 10.5578 48.6781 10.6954" stroke="#101F52" stroke-width="0.3501"/>
<path d="M44.6533 9.35498C45.3589 9.65958 46.0644 9.96408 46.7701 10.2687" stroke="#101F52" stroke-width="0.3501"/>
<path d="M43.5459 13.1748C43.5483 13.2909 43.5507 13.4071 43.5532 13.5234" stroke="#101F52" stroke-width="0.3501"/>
<path d="M48.5914 10.63C48.5957 9.98824 48.6001 9.34634 48.5653 8.80644C48.5306 8.26644 48.4567 7.82824 48.3828 7.39014" stroke="#101F52" stroke-width="0.3501"/>
<path d="M47.9205 17.8348C47.7784 17.9202 47.6361 18.0054 47.4086 18.0907C47.1811 18.176 46.8682 18.2614 46.4958 18.3154C46.1234 18.3694 45.6912 18.3921 45.239 18.3752C44.7868 18.3581 44.3147 18.3011 43.9082 18.2273C43.5015 18.1533 43.1603 18.0623 42.9015 17.9543C42.6428 17.8461 42.4664 17.721 42.3499 17.5931C42.2333 17.4652 42.1764 17.3343 42.1564 17.2206C42.1366 17.1069 42.1537 17.0102 42.2304 16.8992C42.3071 16.7883 42.4437 16.6633 42.6143 16.5609C42.7849 16.4585 42.9897 16.3788 43.2313 16.305C43.4731 16.231 43.7518 16.1628 44.0019 16.1144C44.2522 16.0661 44.474 16.0377 44.7442 16.0292C45.0143 16.0206 45.3329 16.0319 45.6314 16.0547C45.93 16.0775 46.2086 16.1116 46.4759 16.1685C46.7431 16.2253 46.9992 16.305 47.2266 16.4045C47.4541 16.504 47.6531 16.6235 47.8038 16.7485C47.9545 16.8736 48.0569 17.0045 48.1451 17.1097C48.2334 17.2149 48.3072 17.2945 48.5062 17.394C48.7053 17.4935 49.0296 17.613 49.2569 17.7069C49.4845 17.8007 49.6152 17.8689 49.7375 17.9657C49.8599 18.0623 49.9735 18.1874 50.0788 18.3694C50.1841 18.5514 50.2807 18.7902 50.3291 19.0661C50.3773 19.3418 50.3773 19.6548 50.1954 20.1381C50.0133 20.6215 49.6493 21.2756 49.3053 21.8415C48.9613 22.4074 48.6372 22.885 48.3527 23.2632C48.0683 23.6414 47.8238 23.9202 47.6731 24.0908C47.5223 24.2614 47.4655 24.3239 47.4428 24.4036C47.42 24.4832 47.4315 24.5799 47.4485 24.6453C47.4655 24.7107 47.4883 24.7448 47.4796 24.8074C47.4712 24.8699 47.4315 24.961 47.3973 25.0491C47.3632 25.1372 47.3347 25.2226 47.2977 25.305C47.2607 25.3874 47.2152 25.4671 47.1526 25.5382C47.0901 25.6093 47.0105 25.6718 46.7944 25.7372C46.5783 25.8026 46.2257 25.8709 45.9185 25.9221C45.6114 25.9732 45.3499 26.0074 45.0796 26.0245C44.8095 26.0415 44.531 26.0415 44.2806 26.0074C44.0304 25.9732 43.8087 25.905 43.5868 25.8084C43.365 25.7116 43.1431 25.5865 42.9413 25.4359C42.7393 25.2851 42.5575 25.1088 42.4465 24.9324C42.3356 24.7562 42.2958 24.5798 42.2702 24.4291C42.2446 24.2784 42.2333 24.1533 42.1821 24.0282C42.1309 23.9031 42.0399 23.778 41.9802 23.6727C41.9205 23.5675 41.892 23.4822 41.9176 22.3846C41.9432 21.2869 42.0227 19.177 42.0625 18.122C42.1025 17.067 42.1025 17.067 42.1025 17.067" stroke="#101F52" stroke-width="0.3501"/>
<path d="M41.9805 23.6729C42.1748 23.8882 42.3691 24.1032 42.6937 24.2791C43.0184 24.4549 43.4734 24.5914 43.9653 24.6739C44.4572 24.7564 44.9863 24.7848 45.4469 24.7762C45.9075 24.7678 46.3 24.7223 46.6212 24.654C46.9426 24.5857 47.1928 24.4947 47.4431 24.4038" stroke="#101F52" stroke-width="0.3501"/>
<path d="M42.9385 25.2394C43.2342 25.336 43.5299 25.4328 43.908 25.4783C44.2864 25.5238 44.747 25.518 45.1906 25.4754C45.6342 25.4328 46.0607 25.3531 46.4256 25.2759C46.7906 25.1986 47.0939 25.1238 47.2456 25.0864C47.3973 25.0489 47.3973 25.0489 47.4051 25.0291C47.4129 25.0092 47.4283 24.9694 47.4439 24.9297" stroke="#101F52" stroke-width="0.3501"/>
<path d="M47.9209 17.835C48.1882 17.9146 48.4554 17.9942 48.7228 18.1051C48.9901 18.216 49.2573 18.3583 49.4678 18.563C49.6782 18.7677 49.8319 19.035 49.9171 19.2966C50.0024 19.5582 50.0194 19.8142 49.9862 20.0984C49.9528 20.3826 49.8691 20.6952 49.7473 20.9905C49.6254 21.2857 49.4657 21.5637 49.2258 21.8824C48.9862 22.201 48.6669 22.5602 48.4475 22.7768C48.2281 22.9933 48.1086 23.0673 47.9891 23.1412" stroke="#101F52" stroke-width="0.3501"/>
<path d="M48.2453 18.2954C48.177 19.632 48.1088 20.9684 48.0718 21.7107C48.0348 22.4528 48.0292 22.6007 48.0206 22.7401C48.012 22.8794 48.0006 23.0103 47.9893 23.141" stroke="#101F52" stroke-width="0.3501"/>
<path d="M44.025 17.1978C43.9852 17.1125 43.9568 17.0045 43.9937 16.9106C44.0307 16.8168 44.1332 16.7372 44.2809 16.6718C44.4288 16.6064 44.6222 16.5552 44.8241 16.5354C45.0261 16.5154 45.2365 16.5267 45.4412 16.5581C45.6459 16.5893 45.8451 16.6405 45.9957 16.7059C46.1464 16.7713 46.2488 16.8509 46.3 16.9391C46.3511 17.0272 46.3511 17.1239 46.317 17.2121C46.2829 17.3002 46.2147 17.3799 46.0782 17.4481C45.9416 17.5164 45.737 17.5732 45.4837 17.5988C45.2307 17.6244 44.9293 17.6187 44.7018 17.5818C44.4743 17.5447 44.3207 17.4765 44.2184 17.4111C44.1161 17.3457 44.0648 17.2831 44.025 17.1978Z" stroke="#101F52" stroke-width="0.3501"/>
<path d="M43.9805 17.0566C44.1374 17.2112 44.2944 17.3659 44.5303 17.4245C44.766 17.4831 45.0808 17.4455 45.3292 17.4126C45.5776 17.3797 45.7597 17.3512 45.9132 17.3185C46.0667 17.2858 46.192 17.2489 46.317 17.2119" stroke="#101F52" stroke-width="0.3501"/>
<path d="M55.0153 4.89152C54.5717 4.39612 54.1282 3.90062 53.5207 3.42822C52.9132 2.95572 52.1417 2.50642 51.2253 2.08082C50.3089 1.65522 49.2477 1.25332 47.7517 0.93232C46.2556 0.61122 44.3247 0.37092 42.6296 0.25412C40.9344 0.13732 39.475 0.144019 38.096 0.316719C36.7172 0.489319 35.419 0.82792 34.2806 1.25862C33.1424 1.68922 32.1641 2.21202 31.3256 2.85482C30.4871 3.49742 29.7885 4.26032 29.1759 5.03582C28.5631 5.81112 28.0364 6.59922 27.7236 7.30832C27.4108 8.01742 27.312 8.64762 27.3315 9.18592C27.3512 9.72412 27.4892 10.1706 27.77 10.6509C28.0509 11.1311 28.4746 11.645 29.0351 12.0871C29.5958 12.5291 30.2932 12.899 31.1472 13.1881C32.001 13.477 33.0114 13.6851 34.0557 13.7505C35.0997 13.8156 36.1777 13.7381 37.1046 13.5881C38.0314 13.4381 38.8072 13.2155 39.4789 12.951C40.1505 12.6864 40.7181 12.3798 41.2023 11.9839C41.6866 11.588 42.0875 11.1029 42.3321 10.6986C42.5766 10.2943 42.6647 9.97092 42.7459 9.29212C42.8273 8.61342 42.9018 7.57912 42.9762 6.54492" stroke="#101F52" stroke-width="0.3501"/>
<path d="M33.542 9.49894C34.1977 8.86894 34.8532 8.23903 35.8788 7.73733C36.9044 7.23543 38.2998 6.86184 39.7174 6.68084C41.135 6.49994 42.5746 6.51184 44.0194 6.64864C45.4643 6.78554 46.9145 7.04743 48.0398 7.25953C49.1653 7.47163 49.9661 7.63393 50.7031 7.69813C51.44 7.76223 52.1133 7.72823 52.7613 7.58763C53.4094 7.44703 54.0326 7.19994 54.4265 6.91614C54.8205 6.63224 54.9852 6.31163 55.0451 5.96823C55.1051 5.62463 55.0605 5.25813 55.0379 5.07503C55.0156 4.89173 55.0156 4.89173 54.8537 5.12613C54.6919 5.36053 54.3684 5.82924 53.8486 6.14724C53.3286 6.46504 52.6122 6.63193 51.3073 6.61523C50.0023 6.59843 48.1084 6.39783 46.5313 6.19883C44.9541 5.99973 43.6937 5.80213 42.526 5.70373C41.3582 5.60533 40.283 5.60614 39.1548 5.74914C38.0264 5.89224 36.8453 6.17733 35.9448 6.39553C35.0444 6.61363 34.4246 6.76483 33.8049 6.91603" stroke="#101F52" stroke-width="0.3501"/>
<path d="M41.2587 7.88637C41.4587 7.93177 41.6551 8.08257 41.7886 8.25047C41.9219 8.41837 41.9921 8.60317 42.0138 8.80567C42.0355 9.00797 42.0086 9.22777 41.9338 9.45077C41.8588 9.67377 41.7356 9.89976 41.5737 10.1391C41.4117 10.3782 41.2109 10.6304 40.9981 10.815C40.7853 10.9995 40.5603 11.1165 40.3633 11.124C40.1663 11.1315 39.9969 11.0296 39.858 10.8856C39.719 10.7414 39.6103 10.5553 39.5807 10.3047C39.5509 10.054 39.6004 9.73886 39.7173 9.41656C39.8341 9.09426 40.0185 8.76466 40.1854 8.52086C40.3522 8.27716 40.5018 8.11907 40.6785 8.01007C40.855 7.90107 41.0587 7.84097 41.2587 7.88637Z" stroke="#101F52" stroke-width="0.3501"/>
<path d="M35.5979 9.16699C35.5724 9.89579 35.5471 10.6245 35.5319 11.3344C35.5166 12.0443 35.5118 12.7353 35.5068 13.4264" stroke="#101F52" stroke-width="0.3501"/>
<path d="M39.3662 22.9102C39.7443 23.3357 40.1226 23.7613 40.4368 24.1845C40.751 24.6077 41.0011 25.0286 41.3822 25.4494C41.7633 25.8703 42.2751 26.2911 42.9575 26.6779C43.64 27.0646 44.4931 27.4171 45.1927 27.6731C45.8922 27.9291 46.4382 28.0883 47.0314 28.2753C47.6246 28.4624 48.265 28.6773 48.5852 28.7848C48.9054 28.8922 48.9054 28.8922 48.9054 28.8922" stroke="#101F52" stroke-width="0.3501"/>
<path d="M37.3789 29.1655C38.5781 29.971 39.7771 30.7766 40.6045 31.3743C41.4317 31.9721 41.8873 32.362 42.4052 32.6135C42.9229 32.865 43.5032 32.978 44.3949 33.1711C45.2866 33.3642 46.4897 33.6375 47.6928 33.9107" stroke="#101F52" stroke-width="0.3501"/>
<path d="M49.8275 25.6056C49.5991 25.2066 49.3706 24.8075 49.0475 24.43C48.7411 24.0723 48.3498 23.7338 48.1318 23.5479" stroke="#101F52" stroke-width="0.3501"/>
<path d="M45.9986 38.1157C45.9905 38.3052 45.9826 38.4949 45.9744 38.6843M45.9408 39.4759C45.9331 39.6589 45.9254 39.842 45.9176 40.025M45.884 40.8151C45.8763 40.9983 45.8685 41.1816 45.8607 41.3648M45.8273 42.1524C45.8195 42.3363 45.8116 42.5202 45.8039 42.7042M45.7705 43.4883C45.7627 43.6732 45.7548 43.858 45.7471 44.0429" stroke="#101F52" stroke-width="0.3501"/>
</svg>
