<svg width="57" height="53" viewBox="0 0 57 53" fill="none" xmlns="http://www.w3.org/2000/svg">
<path d="M1.05078 18.5957C1.27588 18.9806 1.61548 19.3925 2.06478 19.7468C2.51398 20.1009 3.07308 20.3973 3.75738 20.6291C4.44198 20.8607 5.25168 21.0276 6.08858 21.0799C6.92548 21.1321 7.78938 21.07 8.53228 20.9497C9.27508 20.8295 9.89698 20.6511 10.4353 20.4391C10.9736 20.2271 11.4284 19.9814 11.8166 19.6641C11.8967 19.5986 11.974 19.5301 12.0478 19.4596" stroke="#101F52" stroke-width="0.2999"/>
<path d="M1.0508 18.5957C1.0428 19.2648 1.0348 19.9338 1.0296 22.9461C1.0245 25.9582 1.0221 31.3135 1.0188 34.0526C1.0155 36.7918 1.0112 36.9147 1.1193 37.1262C1.2272 37.3377 1.4476 37.6379 1.8535 37.9135C2.2594 38.1893 2.8508 38.4409 3.4591 38.6469C4.0675 38.8527 4.6929 39.013 5.3442 39.0898C5.9955 39.1663 6.6729 39.1591 7.3295 39.0898C7.9858 39.0203 8.6214 38.8887 9.2136 38.6785C9.8056 38.4683 10.3543 38.1797 10.7482 37.9165C11.1422 37.6531 11.3813 37.4154 11.5346 37.2131C11.6878 37.0106 11.7552 36.8435 11.7828 36.7138C11.8104 36.584 11.7983 36.4912 11.7923 36.4449C11.7862 36.3984 11.7862 36.3984 11.7862 36.3984" stroke="#101F52" stroke-width="0.2999"/>
<path d="M12.048 19.4595C11.9922 23.3218 11.9366 27.1841 11.8809 31.0463" stroke="#101F52" stroke-width="0.2999"/>
<path d="M1.03516 20.7705C1.54096 21.1325 2.04686 21.4943 2.59666 21.7704C3.14636 22.0463 3.73986 22.2363 4.42696 22.3912C5.11406 22.546 5.89466 22.6656 6.63276 22.6837C7.37086 22.7017 8.06616 22.6183 8.70976 22.4792C9.35326 22.3401 9.94476 22.1453 10.3987 21.9303C10.8524 21.7152 11.1684 21.4801 11.4171 21.2887C11.6658 21.0971 11.8471 20.9494 12.0285 20.8018" stroke="#101F52" stroke-width="0.2999"/>
<path d="M1.02344 29.1875C1.20764 29.4563 1.39214 29.7251 1.68684 30.005C1.98164 30.285 2.38714 30.5761 2.85604 30.808C3.32504 31.0399 3.85764 31.2124 4.43794 31.3405C5.01824 31.4683 5.64624 31.5518 6.28464 31.5588C6.92304 31.5656 7.57184 31.496 8.19944 31.3717C8.82694 31.2473 9.43334 31.0684 9.94124 30.8478C10.4491 30.627 10.8584 30.3642 11.1696 30.0902C11.4808 29.8162 11.6939 29.5308 11.9069 29.2456" stroke="#101F52" stroke-width="0.2999"/>
<path d="M12.6292 36.0582C12.6274 36.5505 12.6257 37.043 12.5746 37.4028C12.5236 37.7627 12.4232 37.9901 12.1036 38.3328C11.7837 38.6756 11.2445 39.1338 10.6087 39.4964C9.97268 39.8588 9.24008 40.1256 8.48048 40.2838C7.72088 40.442 6.93428 40.4915 6.13538 40.4558C5.33638 40.4203 4.52498 40.2997 3.89888 40.1623C3.27268 40.0249 2.83178 39.871 2.42298 39.6799C2.01408 39.4886 1.63738 39.26 1.30888 38.9715C0.980383 38.683 0.700183 38.3348 0.504483 37.9894C0.308783 37.6438 0.197683 37.3015 0.162383 36.9924C0.126883 36.6834 0.167383 36.4078 0.245883 36.1414C0.324483 35.8747 0.441183 35.6172 0.576283 35.4212C0.711283 35.2251 0.864583 35.0905 1.01798 34.9561" stroke="#101F52" stroke-width="0.2999"/>
<path d="M6.89355 37.6819C7.14495 37.7522 7.39645 37.8225 7.86065 37.7522C8.32465 37.6819 9.00155 37.4708 9.52985 37.27C10.0583 37.0692 10.4381 36.8784 11.1712 36.5983C11.9043 36.3179 12.9905 35.9481 13.5337 35.7632C14.0768 35.5781 14.0768 35.5781 14.0768 35.5781" stroke="#101F52" stroke-width="0.2999"/>
<path d="M12.349 36.1708C12.3038 36.3554 12.2584 36.54 12.1065 36.8105C11.9545 37.0811 11.6958 37.4375 11.3966 37.7407C11.0976 38.0439 10.758 38.2937 10.2825 38.5232C9.80714 38.7527 9.19574 38.9623 8.58874 39.1047C7.98154 39.2468 7.37884 39.3221 6.80094 39.3461C6.22294 39.3701 5.66984 39.3432 5.05754 39.2524C4.44514 39.1618 3.77334 39.0077 3.23494 38.8349C2.69664 38.6622 2.29164 38.4711 1.93244 38.2374C1.57324 38.0037 1.25954 37.7271 1.03284 37.448C0.805938 37.1689 0.665738 36.887 0.572638 36.6356C0.479438 36.3841 0.433238 36.1633 0.419138 36.0039C0.405038 35.8446 0.422938 35.7468 0.440838 35.6489" stroke="#101F52" stroke-width="0.2999"/>
<path d="M21.7041 27.7188C18.4298 28.8277 15.1555 29.937 13.2918 30.5336C11.4282 31.1302 10.9752 31.2145 10.6199 31.3097C10.2646 31.4051 10.007 31.5115 9.62883 31.7637C9.25073 32.0161 8.75203 32.4142 8.29733 32.8752C7.84263 33.3365 7.43193 33.8606 7.11613 34.3114C6.80033 34.7619 6.57933 35.1389 6.45263 35.4653C6.32573 35.7918 6.29303 36.0678 6.32063 36.3765C6.34833 36.6853 6.43643 37.0269 6.54223 37.2498C6.64783 37.4728 6.77113 37.5771 6.89433 37.6815" stroke="#101F52" stroke-width="0.2999"/>
<path d="M14.0771 35.5777C20.8219 33.3588 27.5667 31.1398 31.2586 29.9145C34.9506 28.6893 35.5896 28.4576 36.3322 28.2335C37.0748 28.0093 37.9212 27.7926 38.6958 27.6428C39.4705 27.4929 40.1736 27.4097 40.8331 27.3634C41.4925 27.3172 42.1084 27.308 42.8531 27.357C43.5978 27.4061 44.4711 27.5136 45.2015 27.6429C45.9318 27.7722 46.519 27.9237 46.8179 28.0687C47.1167 28.2138 47.1272 28.3526 47.1292 28.5181C47.1311 28.6837 47.1244 28.8757 47.1586 28.9963C47.1929 29.1167 47.2681 29.1655 47.3957 29.2585C47.5233 29.3513 47.7031 29.4885 47.8764 29.5945C48.0496 29.7007 48.2163 29.7758 48.6531 29.8295C49.0897 29.8832 49.7965 29.9155 50.4474 29.8959C51.0983 29.8764 51.6933 29.8048 52.2239 29.704C52.7545 29.6033 53.2206 29.4735 53.7429 29.2801C54.2651 29.0866 54.8435 28.8298 55.2166 28.612C55.5897 28.3942 55.7576 28.2155 55.8424 28.0991C55.9273 27.9829 55.9291 27.9292 55.9103 27.3667C55.8914 26.8044 55.8518 25.7334 55.7842 25.1386C55.7165 24.5438 55.6206 24.425 55.4252 24.2913C55.2298 24.1574 54.935 24.0086 54.2183 23.7104C53.5016 23.4123 52.363 22.9647 51.3098 22.6087C50.2564 22.2526 49.2886 21.9879 48.4062 21.807C47.5239 21.6262 46.7269 21.5292 45.8787 21.4725C45.0304 21.416 44.1307 21.4 43.2678 21.4313C42.405 21.4629 41.5788 21.5416 40.8361 21.658C40.0934 21.7745 39.434 21.9285 36.2592 22.9448C33.0843 23.9612 27.3941 25.84 24.5489 26.7795C21.7037 27.7188 21.7037 27.7188 21.7037 27.7188" stroke="#101F52" stroke-width="0.2999"/>
<path d="M55.3393 28.5381C55.4106 29.0669 55.4818 29.5958 55.5042 29.9058C55.5267 30.216 55.5005 30.3075 55.3685 30.4529C55.2364 30.5983 54.9986 30.7977 54.6454 30.997C54.2922 31.1963 53.8235 31.3954 53.2525 31.5524C52.6815 31.7094 52.008 31.8245 51.5014 31.899C50.9949 31.9737 50.6551 32.008 50.2325 31.9933C49.8097 31.9785 49.3041 31.9147 48.9343 31.821C48.5643 31.7272 48.33 31.6037 48.215 31.4842C48.0999 31.3648 48.104 31.2494 48.0675 30.9353C48.031 30.6211 47.9541 30.1081 47.877 29.5949" stroke="#101F52" stroke-width="0.2999"/>
<path d="M50.6192 31.9923C50.5755 31.68 50.5317 31.3677 50.522 31.1966C50.5121 31.0255 50.5362 30.9955 51.0279 30.9089C51.5194 30.8222 52.4786 30.6787 52.9653 30.6264C53.4518 30.5742 53.4658 30.6132 53.4874 30.767C53.509 30.9207 53.5381 31.1894 53.5673 31.4581" stroke="#101F52" stroke-width="0.2999"/>
<path d="M55.6348 24.5078C54.8469 24.7993 54.0589 25.0906 53.3961 25.4424C52.7333 25.7943 52.1957 26.2063 51.845 26.6673C51.4941 27.1282 51.3301 27.6381 51.2822 28.1289C51.2343 28.6197 51.3025 29.0913 51.3312 29.3727C51.3601 29.6538 51.3497 29.7445 51.3392 29.8354" stroke="#101F52" stroke-width="0.2999"/>
<path d="M52.8491 25.5749C51.9937 25.6142 51.1381 25.6537 50.0914 25.5517C49.0447 25.4498 47.8067 25.2064 46.6264 24.9652C45.446 24.7239 44.3233 24.4846 43.429 24.3148C42.5346 24.1453 41.8686 24.0449 40.9762 24.0407C40.0838 24.0366 38.965 24.1283 37.6683 24.3523C36.3717 24.5762 34.8972 24.9327 31.2155 26.1429C27.5338 27.3532 21.6446 29.4174 17.4368 30.9324C13.2288 32.4474 10.7021 33.4134 9.22139 34.0619C7.74059 34.7104 7.30579 35.0415 6.87109 35.3726" stroke="#101F52" stroke-width="0.2999"/>
<path d="M6.60153 46.7012C9.44283 46.7012 11.746 47.7085 11.746 48.9513C11.746 50.1941 9.44283 51.2016 6.60153 51.2016C3.76023 51.2016 1.45703 50.1941 1.45703 48.9513C1.45703 47.7085 3.76023 46.7012 6.60153 46.7012Z" stroke="#101F52" stroke-width="0.2999"/>
<path d="M6.60111 47.4268C8.52571 47.4268 10.086 48.1093 10.086 48.9511C10.086 49.7929 8.52571 50.4755 6.60111 50.4755C4.67651 50.4755 3.11621 49.7929 3.11621 48.9511C3.11621 48.1093 4.67651 47.4268 6.60111 47.4268Z" stroke="#101F52" stroke-width="0.2999"/>
<path d="M3.60123 49.7276C3.30053 49.5671 3.12793 49.3799 3.12793 49.1798C3.12793 48.5827 4.66613 48.0986 6.56373 48.0986C8.39473 48.0986 9.89113 48.5494 9.99413 49.1172" stroke="#101F52" stroke-width="0.2999"/>
<path d="M10.8232 50.2376C10.9036 50.3537 10.9462 50.4751 10.9462 50.5997C10.9462 51.4417 9.00582 52.1241 6.61242 52.1241C4.21882 52.1241 2.27832 51.4417 2.27832 50.5997C2.27832 50.4783 2.31872 50.3602 2.39492 50.247M3.37812 49.585C3.39062 49.5801 3.40332 49.5751 3.41592 49.5703" stroke="#101F52" stroke-width="0.2999"/>
<path d="M2.08887 50.0332L2.34277 51.0126" stroke="#101F52" stroke-width="0.2999"/>
<path d="M11.0733 50.1099L10.8193 51.0894" stroke="#101F52" stroke-width="0.2999"/>
<path d="M4.78613 51.0576L4.91023 52.0021" stroke="#101F52" stroke-width="0.2999"/>
<path d="M8.65242 51.0615L8.52832 52.0061" stroke="#101F52" stroke-width="0.2999"/>
<path d="M1.59042 39.0146C1.58352 41.1133 1.58352 43.0569 1.62152 44.1083C1.63202 44.3995 1.64562 44.6224 1.66422 44.7943M9.97682 45.6043C10.2839 45.4228 10.5524 45.2247 10.7318 45.0413C10.9674 44.8012 11.0505 44.5862 11.0922 44.4789C11.1337 44.3715 11.1337 44.3715 11.1369 43.2937C11.1394 42.4379 11.1438 40.9025 11.1487 39.2271" stroke="#101F52" stroke-width="0.2999"/>
<path d="M11.0893 44.4862C11.1136 44.5467 11.1259 44.6081 11.1253 44.6705C11.1182 45.4732 8.9837 46.1049 6.3582 46.0812C3.7326 46.0575 1.61001 45.3876 1.61721 44.5849C1.61771 44.5409 1.62451 44.4975 1.63741 44.4546" stroke="#101F52" stroke-width="0.2999"/>
<path d="M11.1217 40.7031C10.9779 41.4671 8.89933 42.0561 6.36243 42.0331C3.82563 42.0103 1.75803 41.3841 1.62793 40.6177" stroke="#101F52" stroke-width="0.2999"/>
<path d="M11.0749 39.0595C10.9311 39.8235 8.85255 40.4125 6.31565 40.3897C3.77875 40.3668 1.71115 39.7407 1.58105 38.9741" stroke="#101F52" stroke-width="0.2999"/>
<path d="M11.069 39.746C10.9252 40.5099 8.8467 41.0989 6.3098 41.0759C3.7729 41.0532 1.7053 40.4269 1.5752 39.6606" stroke="#101F52" stroke-width="0.2999"/>
<path d="M11.0631 40.4327C10.9193 41.1964 8.84084 41.7853 6.30394 41.7626C3.76704 41.7397 1.69944 41.1134 1.56934 40.3472" stroke="#101F52" stroke-width="0.2999"/>
<path d="M11.0562 41.1187C10.9125 41.8826 8.8339 42.4716 6.297 42.4488C3.7601 42.4259 1.6925 41.7998 1.5625 41.0332" stroke="#101F52" stroke-width="0.2999"/>
<path d="M11.0504 41.8051C10.9066 42.5691 8.82804 43.1581 6.29114 43.1351C3.75434 43.1123 1.68674 42.4862 1.55664 41.7197" stroke="#101F52" stroke-width="0.2999"/>
<path d="M11.0446 42.4917C10.9007 43.2555 8.82208 43.8444 6.28528 43.8217C3.74838 43.7989 1.68078 43.1726 1.55078 42.4062" stroke="#101F52" stroke-width="0.2999"/>
<path d="M11.0377 43.1777C10.8938 43.9416 8.81535 44.5306 6.27845 44.5078C3.74155 44.4849 1.67405 43.8587 1.54395 43.0923" stroke="#101F52" stroke-width="0.2999"/>
<path d="M11.0319 43.8642C10.888 44.6282 8.80949 45.2172 6.27259 45.1942C3.73569 45.1715 1.66819 44.5453 1.53809 43.7788" stroke="#101F52" stroke-width="0.2999"/>
<path d="M14.2315 11.9621C13.531 11.9842 12.484 11.9842 11.5772 11.9253C10.6702 11.8662 9.90339 11.7482 9.17349 11.6376C8.44359 11.5271 7.75048 11.4238 7.09428 11.4165C6.43808 11.4091 5.81869 11.4976 5.14039 11.7556C4.46209 12.0138 3.72469 12.4413 3.14959 12.869C2.57449 13.2966 2.16158 13.7243 1.82248 14.2479C1.48328 14.7712 1.21788 15.3906 1.04088 15.9952C0.863985 16.5998 0.775485 17.1897 0.768085 17.6321C0.760685 18.0745 0.834385 18.3694 0.981985 18.62C1.12928 18.8707 1.35059 19.077 1.68239 19.3498C2.01409 19.6227 2.45649 19.9619 3.00959 20.2421C3.56249 20.5223 4.22608 20.7435 4.88228 20.8909C5.53858 21.0385 6.18729 21.1122 6.89518 21.1048C7.60298 21.0973 8.36979 21.0089 8.98179 20.8835C9.59379 20.7582 10.0509 20.5959 10.5596 20.36C11.0684 20.1242 11.6288 19.8144 12.0122 19.5342C12.3955 19.2542 12.602 19.0033 12.72 18.7306C12.8379 18.4578 12.8675 18.1629 12.9117 17.8016C12.9559 17.4404 13.0148 17.0127 13.1108 16.6293C13.2066 16.2458 13.3393 15.9068 13.5384 15.6044C13.7375 15.3021 14.0029 15.0368 14.4527 14.7417C14.9024 14.4468 15.5366 14.1225 17.6675 13.3409C19.7982 12.5592 23.4258 11.3206 26.1613 10.3106C28.8967 9.30039 30.74 8.51889 32.2663 7.86999C33.7925 7.22119 35.0017 6.70498 36.0044 6.23318C37.0072 5.76118 37.8035 5.33359 38.3123 4.84689C38.821 4.36029 39.0423 3.81479 39.1012 3.25438C39.1601 2.69398 39.057 2.11899 38.8063 1.63969C38.5556 1.16039 38.1574 0.777085 37.7446 0.526285C37.3317 0.275685 36.904 0.157585 36.4837 0.150285C36.0635 0.142785 35.6506 0.246185 35.304 0.400885C34.9575 0.555685 34.6773 0.762285 34.4488 1.00549C34.2202 1.24889 34.0432 1.52909 33.9031 1.89769C33.763 2.26629 33.6598 2.72348 33.5492 3.13638C33.4386 3.54918 33.3207 3.91788 33.1511 4.27928C32.9815 4.64048 32.7602 4.99439 32.5464 5.28929C32.3326 5.58419 32.1262 5.82019 30.9685 6.42469C29.811 7.02929 27.7023 8.00269 26.2277 8.63679C24.753 9.27089 23.9124 9.56569 23.0277 9.86819C22.1429 10.1704 21.2139 10.48 20.2628 10.7601C19.3116 11.0404 18.3383 11.291 17.5642 11.4681C16.79 11.6449 16.2148 11.7482 15.7504 11.8219C15.2858 11.8958 14.9319 11.94 14.2315 11.9621Z" stroke="#101F52" stroke-width="0.2999"/>
<path d="M33.5498 3.13647C33.7437 2.56567 33.9377 1.99477 34.2301 1.53887C34.5225 1.08307 34.9136 0.742065 35.2972 0.621865C35.6807 0.501765 36.0567 0.602565 36.4216 0.756165C36.7866 0.909665 37.1405 1.11627 37.4428 1.33737C37.7451 1.55867 37.9958 1.79447 38.1433 2.09687C38.2907 2.39917 38.335 2.76777 38.335 3.15857C38.335 3.54927 38.2907 3.96217 38.0959 4.37657C37.9011 4.79097 37.5556 5.20667 37.2248 5.49607C36.8939 5.78547 36.5774 5.94847 36.4193 6.03007C36.261 6.11147 36.261 6.11146 36.261 6.11146" stroke="#101F52" stroke-width="0.2999"/>
<path d="M32.223 5.65088C31.8198 5.98498 31.4166 6.31918 30.2639 6.94168C29.1112 7.56408 27.2089 8.47478 25.2698 9.26358C23.3307 10.0525 21.3546 10.7199 19.8394 11.2156C18.3243 11.7115 17.2699 12.036 16.4036 12.3142C15.5372 12.5926 14.8588 12.8249 14.0903 12.9705C13.3216 13.116 12.4626 13.1751 11.1225 13.2249C9.78247 13.2746 7.96117 13.3153 6.84607 13.3595C5.73087 13.4036 5.32167 13.4515 4.96037 13.5346C4.59907 13.6175 4.28567 13.7354 4.02027 13.8811C3.75487 14.0267 3.53727 14.2 3.37877 14.4156C3.22037 14.6313 3.12067 14.8893 3.08577 15.105C3.05067 15.3207 3.08027 15.494 3.16497 15.6876C3.24977 15.881 3.38987 16.0948 3.56857 16.2829C3.74747 16.4708 3.96497 16.6332 4.25067 16.7401C4.53647 16.8469 4.89027 16.8985 5.25717 16.9132C5.62397 16.9279 6.00367 16.9059 6.44607 16.8064C6.88847 16.7068 7.39347 16.5298 7.96117 16.2737C8.52897 16.0174 9.15937 15.6819 9.77137 15.3908C10.3834 15.0995 10.9768 14.8524 11.539 14.6589C12.1012 14.4654 12.6322 14.3253 13.2792 14.1612C13.9262 13.9972 14.6893 13.8091 15.8211 13.4847C16.9528 13.1603 18.4533 12.6994 19.9887 12.2C21.5242 11.7004 23.0947 11.1623 24.6965 10.5982C26.2983 10.0341 27.9315 9.44418 28.9712 9.07008C30.0107 8.69578 30.4568 8.53738 30.6798 8.45798C30.9029 8.37878 30.9029 8.37878 30.9029 8.37878" stroke="#101F52" stroke-width="0.2999"/>
<path d="M7.06836 20.81C7.13476 20.2276 7.20116 19.6451 7.38186 19.0221C7.56246 18.399 7.85736 17.7355 8.27766 17.2084C8.69786 16.6811 9.24356 16.2903 9.94396 15.9106C10.6445 15.5309 11.4997 15.1622 12.2629 14.9042C13.026 14.6462 13.697 14.4986 14.0325 14.4249C14.3679 14.3511 14.3679 14.3511 14.3679 14.3511" stroke="#101F52" stroke-width="0.2999"/>
<path d="M12.6478 16.6384C12.5428 16.6734 12.3879 16.795 12.2682 16.9739C12.1483 17.1527 12.0635 17.3885 12.0359 17.5877C12.0082 17.7867 12.0377 17.9489 12.0949 18.0392C12.152 18.1297 12.2368 18.1481 12.3401 18.0945C12.4433 18.0412 12.5649 17.9157 12.6553 17.7461C12.7456 17.5766 12.8045 17.3627 12.8341 17.1822C12.8636 17.0014 12.8636 16.854 12.8359 16.7545C12.8083 16.6549 12.7529 16.6033 12.6478 16.6384Z" stroke="#101F52" stroke-width="0.2999"/>
</svg>
