<?xml version="1.0" encoding="UTF-8"?>
<svg xmlns="http://www.w3.org/2000/svg" xmlns:xlink="http://www.w3.org/1999/xlink" width="297.6378pt" height="419.5276pt" viewBox="0 0 297.6378 419.5276" version="1.1">
<g id="surface1">
<path style="fill:none;stroke-width:0.216;stroke-linecap:butt;stroke-linejoin:miter;stroke:rgb(10.195923%,10.195923%,9.411621%);stroke-opacity:1;stroke-dasharray:1.08,0.65;stroke-miterlimit:22.925586;" d="M 100.847656 313.99635 L 100.847656 118.99635 " transform="matrix(1,0,0,-1,0,419.5276)"/>
<path style="fill:none;stroke-width:0.216;stroke-linecap:butt;stroke-linejoin:miter;stroke:rgb(10.195923%,10.195923%,9.411621%);stroke-opacity:1;stroke-dasharray:1.08,0.65;stroke-miterlimit:22.925586;" d="M 212.082031 265.078381 L 212.082031 180.039319 M 212.082031 159.469006 L 212.082031 110.133069 " transform="matrix(1,0,0,-1,0,419.5276)"/>
<path style="fill:none;stroke-width:0.216;stroke-linecap:butt;stroke-linejoin:miter;stroke:rgb(10.195923%,10.195923%,9.411621%);stroke-opacity:1;stroke-dasharray:1.08,0.65;stroke-miterlimit:22.925586;" d="M 100.863281 173.207288 L 260.4375 118.785413 " transform="matrix(1,0,0,-1,0,419.5276)"/>
<path style="fill:none;stroke-width:0.216;stroke-linecap:butt;stroke-linejoin:miter;stroke:rgb(10.195923%,10.195923%,9.411621%);stroke-opacity:1;stroke-dasharray:1.08,0.65;stroke-miterlimit:22.925586;" d="M 100.5625 150.406506 L 272.148438 91.886975 " transform="matrix(1,0,0,-1,0,419.5276)"/>
<path style="fill:none;stroke-width:0.216;stroke-linecap:butt;stroke-linejoin:miter;stroke:rgb(10.195923%,10.195923%,9.411621%);stroke-opacity:1;stroke-dasharray:1.08,0.65;stroke-miterlimit:22.925586;" d="M 94.238281 228.261975 L 253.8125 173.8401 " transform="matrix(1,0,0,-1,0,419.5276)"/>
<path style="fill:none;stroke-width:0.216;stroke-linecap:butt;stroke-linejoin:miter;stroke:rgb(10.195923%,10.195923%,9.411621%);stroke-opacity:1;stroke-dasharray:1.08,0.65;stroke-miterlimit:22.925586;" d="M 101.460938 272.769788 L 249.617188 222.24635 " transform="matrix(1,0,0,-1,0,419.5276)"/>
<path style="fill:none;stroke-width:0.216;stroke-linecap:butt;stroke-linejoin:miter;stroke:rgb(10.195923%,10.195923%,9.411621%);stroke-opacity:1;stroke-dasharray:1.08,0.65;stroke-miterlimit:22.925586;" d="M 100.863281 173.207288 L 63.164062 160.351819 " transform="matrix(1,0,0,-1,0,419.5276)"/>
<path style="fill:none;stroke-width:0.216;stroke-linecap:butt;stroke-linejoin:miter;stroke:rgb(10.195923%,10.195923%,9.411621%);stroke-opacity:1;stroke-dasharray:1.08,0.65;stroke-miterlimit:22.925586;" d="M 101.460938 272.769788 L 65.066406 260.359631 " transform="matrix(1,0,0,-1,0,419.5276)"/>
<path style="fill:none;stroke-width:0.216;stroke-linecap:butt;stroke-linejoin:miter;stroke:rgb(10.195923%,10.195923%,9.411621%);stroke-opacity:1;stroke-dasharray:1.08,0.65;stroke-miterlimit:22.925586;" d="M 171.464844 257.781506 L 144.386719 248.547131 " transform="matrix(1,0,0,-1,0,419.5276)"/>
<path style="fill:none;stroke-width:0.216;stroke-linecap:butt;stroke-linejoin:miter;stroke:rgb(10.195923%,10.195923%,9.411621%);stroke-opacity:1;stroke-dasharray:1.08,0.65;stroke-miterlimit:22.925586;" d="M 249.617188 221.918225 L 163.28125 192.472913 " transform="matrix(1,0,0,-1,0,419.5276)"/>
<path style="fill:none;stroke-width:0.216;stroke-linecap:butt;stroke-linejoin:miter;stroke:rgb(10.195923%,10.195923%,9.411621%);stroke-opacity:1;stroke-dasharray:1.08,0.65;stroke-miterlimit:22.925586;" d="M 249.015625 122.316663 L 162.679688 92.875256 " transform="matrix(1,0,0,-1,0,419.5276)"/>
<path style="fill:none;stroke-width:0.216;stroke-linecap:butt;stroke-linejoin:miter;stroke:rgb(10.195923%,10.195923%,9.411621%);stroke-opacity:1;stroke-dasharray:1.08,0.65;stroke-miterlimit:22.925586;" d="M 113.675781 171.531506 L 46.621094 148.664319 " transform="matrix(1,0,0,-1,0,419.5276)"/>
<path style="fill:none;stroke-width:0.216;stroke-linecap:butt;stroke-linejoin:miter;stroke:rgb(10.195923%,10.195923%,9.411621%);stroke-opacity:1;stroke-dasharray:1.08,0.65;stroke-miterlimit:22.925586;" d="M 81.875 186.230725 L 14.824219 163.363538 " transform="matrix(1,0,0,-1,0,419.5276)"/>
<path style="fill:none;stroke-width:0.216;stroke-linecap:butt;stroke-linejoin:miter;stroke:rgb(10.195923%,10.195923%,9.411621%);stroke-opacity:1;stroke-miterlimit:22.925586;" d="M 87.324219 150.648694 L 64.292969 142.793225 " transform="matrix(1,0,0,-1,0,419.5276)"/>
<path style=" stroke:none;fill-rule:evenodd;fill:rgb(10.195923%,10.195923%,9.411621%);fill-opacity:1;" d="M 87.324219 268.878906 L 81.621094 274.019531 L 81.648438 273.8125 L 81.667969 273.605469 L 81.683594 273.398438 L 81.691406 273.199219 L 81.695312 272.996094 L 81.691406 272.796875 L 81.683594 272.601562 L 81.671875 272.40625 L 81.652344 272.210938 L 81.628906 272.019531 L 81.597656 271.832031 L 81.5625 271.644531 L 81.519531 271.457031 L 81.472656 271.273438 L 81.421875 271.09375 L 81.363281 270.914062 L 81.296875 270.734375 L 81.230469 270.558594 L 81.074219 270.214844 L 80.988281 270.042969 L 80.894531 269.875 L 80.796875 269.707031 L 80.695312 269.542969 L 80.585938 269.382812 L 80.472656 269.21875 L 80.351562 269.0625 L 80.226562 268.902344 L 80.097656 268.75 L 79.960938 268.597656 L 79.816406 268.445312 L 79.671875 268.296875 Z M 87.324219 268.878906 "/>
<path style="fill:none;stroke-width:0.216;stroke-linecap:butt;stroke-linejoin:miter;stroke:rgb(10.195923%,10.195923%,9.411621%);stroke-opacity:1;stroke-dasharray:1.08,0.65;stroke-miterlimit:22.925586;" d="M 154.847656 280.695569 L 154.847656 112.097913 " transform="matrix(1,0,0,-1,0,419.5276)"/>
<path style="fill:none;stroke-width:0.216;stroke-linecap:butt;stroke-linejoin:miter;stroke:rgb(10.195923%,10.195923%,9.411621%);stroke-opacity:1;stroke-dasharray:1.08,0.65;stroke-miterlimit:22.925586;" d="M 83.382812 302.597913 L 83.382812 133.99635 " transform="matrix(1,0,0,-1,0,419.5276)"/>
<path style="fill:none;stroke-width:0.216;stroke-linecap:butt;stroke-linejoin:miter;stroke:rgb(10.195923%,10.195923%,9.411621%);stroke-opacity:1;stroke-miterlimit:22.925586;" d="M 104.761719 306.707288 L 207.84375 271.551038 " transform="matrix(1,0,0,-1,0,419.5276)"/>
<path style=" stroke:none;fill-rule:evenodd;fill:rgb(10.195923%,10.195923%,9.411621%);fill-opacity:1;" d="M 104.761719 112.820312 L 112.417969 112.234375 L 112.269531 112.386719 L 112.125 112.535156 L 111.988281 112.691406 L 111.859375 112.84375 L 111.734375 113 L 111.613281 113.160156 L 111.5 113.320312 L 111.390625 113.484375 L 111.289062 113.648438 L 111.191406 113.816406 L 111.097656 113.984375 L 111.011719 114.152344 L 110.933594 114.324219 L 110.859375 114.5 L 110.789062 114.675781 L 110.722656 114.855469 L 110.613281 115.214844 L 110.566406 115.398438 L 110.523438 115.585938 L 110.488281 115.773438 L 110.460938 115.960938 L 110.433594 116.152344 L 110.414062 116.347656 L 110.402344 116.542969 L 110.394531 116.738281 L 110.390625 116.9375 L 110.394531 117.136719 L 110.402344 117.339844 L 110.417969 117.546875 L 110.4375 117.75 L 110.464844 117.960938 Z M 104.761719 112.820312 "/>
<path style=" stroke:none;fill-rule:evenodd;fill:rgb(10.195923%,10.195923%,9.411621%);fill-opacity:1;" d="M 207.84375 147.976562 L 202.144531 142.835938 L 202.167969 143.046875 L 202.1875 143.25 L 202.203125 143.457031 L 202.210938 143.660156 L 202.214844 143.859375 L 202.214844 144.058594 L 202.207031 144.253906 L 202.191406 144.449219 L 202.171875 144.644531 L 202.148438 144.835938 L 202.117188 145.023438 L 202.082031 145.210938 L 202.039062 145.398438 L 201.992188 145.582031 L 201.941406 145.761719 L 201.882812 145.941406 L 201.820312 146.121094 L 201.75 146.296875 L 201.675781 146.46875 L 201.59375 146.644531 L 201.507812 146.8125 L 201.320312 147.148438 L 201.214844 147.3125 L 201.105469 147.476562 L 200.992188 147.636719 L 200.875 147.796875 L 200.75 147.953125 L 200.617188 148.105469 L 200.480469 148.261719 L 200.339844 148.410156 L 200.191406 148.5625 Z M 207.84375 147.976562 "/>
<path style="fill:none;stroke-width:0.216;stroke-linecap:butt;stroke-linejoin:miter;stroke:rgb(10.195923%,10.195923%,9.411621%);stroke-opacity:1;stroke-miterlimit:22.925586;" d="M 84.285156 287.492444 L 151.710938 264.49635 " transform="matrix(1,0,0,-1,0,419.5276)"/>
<path style=" stroke:none;fill-rule:evenodd;fill:rgb(10.195923%,10.195923%,9.411621%);fill-opacity:1;" d="M 84.285156 132.035156 L 91.941406 131.453125 L 91.792969 131.601562 L 91.652344 131.753906 L 91.515625 131.90625 L 91.382812 132.0625 L 91.257812 132.21875 L 91.140625 132.375 L 91.023438 132.539062 L 90.917969 132.699219 L 90.8125 132.863281 L 90.714844 133.03125 L 90.625 133.199219 L 90.539062 133.371094 L 90.457031 133.542969 L 90.382812 133.714844 L 90.3125 133.890625 L 90.25 134.070312 L 90.191406 134.25 L 90.136719 134.433594 L 90.089844 134.617188 L 90.050781 134.800781 L 90.015625 134.988281 L 89.984375 135.179688 L 89.960938 135.371094 L 89.941406 135.5625 L 89.925781 135.757812 L 89.917969 135.953125 L 89.917969 136.152344 L 89.921875 136.355469 L 89.929688 136.558594 L 89.941406 136.761719 L 89.988281 137.175781 Z M 84.285156 132.035156 "/>
<path style=" stroke:none;fill-rule:evenodd;fill:rgb(10.195923%,10.195923%,9.411621%);fill-opacity:1;" d="M 151.710938 155.03125 L 146.007812 149.890625 L 146.035156 150.097656 L 146.054688 150.304688 L 146.066406 150.511719 L 146.078125 150.714844 L 146.082031 150.914062 L 146.078125 151.113281 L 146.070312 151.308594 L 146.039062 151.699219 L 146.011719 151.890625 L 145.980469 152.078125 L 145.945312 152.265625 L 145.90625 152.453125 L 145.859375 152.636719 L 145.804688 152.816406 L 145.746094 152.996094 L 145.683594 153.175781 L 145.613281 153.351562 L 145.539062 153.523438 L 145.457031 153.699219 L 145.371094 153.867188 L 145.28125 154.035156 L 145.183594 154.203125 L 145.082031 154.367188 L 144.972656 154.53125 L 144.859375 154.691406 L 144.738281 154.847656 L 144.613281 155.007812 L 144.480469 155.160156 L 144.34375 155.316406 L 144.203125 155.464844 L 144.054688 155.617188 Z M 151.710938 155.03125 "/>
<path style="fill:none;stroke-width:0.216;stroke-linecap:butt;stroke-linejoin:miter;stroke:rgb(10.195923%,10.195923%,9.411621%);stroke-opacity:1;stroke-miterlimit:22.925586;" d="M 225.691406 179.441663 L 225.691406 132.566663 " transform="matrix(1,0,0,-1,0,419.5276)"/>
<path style=" stroke:none;fill-rule:evenodd;fill:rgb(10.195923%,10.195923%,9.411621%);fill-opacity:1;" d="M 225.691406 240.085938 L 228.71875 247.140625 L 228.527344 247.050781 L 228.339844 246.964844 L 228.148438 246.882812 L 227.960938 246.808594 L 227.773438 246.742188 L 227.582031 246.679688 L 227.394531 246.625 L 227.203125 246.574219 L 227.015625 246.53125 L 226.828125 246.492188 L 226.636719 246.457031 L 226.449219 246.433594 L 226.257812 246.410156 L 225.882812 246.386719 L 225.503906 246.386719 L 225.316406 246.398438 L 225.125 246.410156 L 224.9375 246.433594 L 224.746094 246.457031 L 224.558594 246.492188 L 224.371094 246.53125 L 224.179688 246.574219 L 223.992188 246.625 L 223.800781 246.679688 L 223.613281 246.742188 L 223.425781 246.808594 L 223.234375 246.882812 L 223.046875 246.964844 L 222.859375 247.050781 L 222.667969 247.140625 Z M 225.691406 240.085938 "/>
<path style=" stroke:none;fill-rule:evenodd;fill:rgb(10.195923%,10.195923%,9.411621%);fill-opacity:1;" d="M 225.691406 286.960938 L 228.71875 279.90625 L 228.527344 279.996094 L 228.339844 280.082031 L 228.148438 280.160156 L 227.960938 280.234375 L 227.773438 280.304688 L 227.582031 280.363281 L 227.394531 280.421875 L 227.203125 280.472656 L 227.015625 280.515625 L 226.828125 280.554688 L 226.636719 280.585938 L 226.449219 280.613281 L 226.257812 280.632812 L 226.070312 280.648438 L 225.882812 280.65625 L 225.691406 280.660156 L 225.503906 280.65625 L 225.316406 280.648438 L 225.125 280.632812 L 224.9375 280.613281 L 224.746094 280.585938 L 224.558594 280.554688 L 224.371094 280.515625 L 224.179688 280.472656 L 223.992188 280.421875 L 223.800781 280.363281 L 223.613281 280.304688 L 223.425781 280.234375 L 223.234375 280.160156 L 223.046875 280.082031 L 222.859375 279.996094 L 222.667969 279.90625 Z M 225.691406 286.960938 "/>
<path style="fill:none;stroke-width:0.216;stroke-linecap:butt;stroke-linejoin:miter;stroke:rgb(10.195923%,10.195923%,9.411621%);stroke-opacity:1;stroke-miterlimit:22.925586;" d="M 225.503906 128.8401 L 225.503906 108.926038 " transform="matrix(1,0,0,-1,0,419.5276)"/>
<path style=" stroke:none;fill-rule:evenodd;fill:rgb(10.195923%,10.195923%,9.411621%);fill-opacity:1;" d="M 225.503906 290.6875 L 228.53125 297.742188 L 228.339844 297.652344 L 228.152344 297.566406 L 227.960938 297.488281 L 227.773438 297.414062 L 227.585938 297.34375 L 227.394531 297.285156 L 227.207031 297.226562 L 227.015625 297.175781 L 226.828125 297.132812 L 226.640625 297.09375 L 226.449219 297.0625 L 226.261719 297.035156 L 226.074219 297.015625 L 225.882812 297 L 225.695312 296.992188 L 225.503906 296.988281 L 225.316406 296.992188 L 225.128906 297 L 224.9375 297.015625 L 224.75 297.035156 L 224.558594 297.0625 L 224.371094 297.09375 L 224.183594 297.132812 L 223.992188 297.175781 L 223.804688 297.226562 L 223.617188 297.285156 L 223.425781 297.34375 L 223.238281 297.414062 L 223.046875 297.488281 L 222.859375 297.566406 L 222.671875 297.652344 L 222.480469 297.742188 Z M 225.503906 290.6875 "/>
<path style=" stroke:none;fill-rule:evenodd;fill:rgb(10.195923%,10.195923%,9.411621%);fill-opacity:1;" d="M 225.503906 310.601562 L 228.53125 303.546875 L 228.339844 303.636719 L 228.152344 303.722656 L 227.960938 303.800781 L 227.773438 303.875 L 227.585938 303.945312 L 227.394531 304.003906 L 227.207031 304.0625 L 227.015625 304.113281 L 226.828125 304.15625 L 226.640625 304.195312 L 226.449219 304.226562 L 226.261719 304.253906 L 226.074219 304.273438 L 225.882812 304.289062 L 225.695312 304.296875 L 225.503906 304.300781 L 225.316406 304.296875 L 225.128906 304.289062 L 224.9375 304.273438 L 224.75 304.253906 L 224.558594 304.226562 L 224.371094 304.195312 L 224.183594 304.15625 L 223.992188 304.113281 L 223.804688 304.0625 L 223.617188 304.003906 L 223.425781 303.945312 L 223.238281 303.875 L 223.046875 303.800781 L 222.859375 303.722656 L 222.671875 303.636719 L 222.480469 303.546875 Z M 225.503906 310.601562 "/>
<path style="fill:none;stroke-width:0.216;stroke-linecap:butt;stroke-linejoin:miter;stroke:rgb(10.195923%,10.195923%,9.411621%);stroke-opacity:1;stroke-miterlimit:22.925586;" d="M 21.316406 164.168225 L 55.769531 152.418225 " transform="matrix(1,0,0,-1,0,419.5276)"/>
<path style=" stroke:none;fill-rule:evenodd;fill:rgb(10.195923%,10.195923%,9.411621%);fill-opacity:1;" d="M 21.316406 255.359375 L 28.96875 254.773438 L 28.820312 254.921875 L 28.679688 255.074219 L 28.542969 255.226562 L 28.285156 255.539062 L 28.167969 255.699219 L 28.054688 255.859375 L 27.945312 256.023438 L 27.839844 256.1875 L 27.746094 256.351562 L 27.652344 256.523438 L 27.566406 256.691406 L 27.484375 256.863281 L 27.410156 257.039062 L 27.339844 257.214844 L 27.277344 257.394531 L 27.21875 257.574219 L 27.167969 257.753906 L 27.121094 257.9375 L 27.078125 258.125 L 27.042969 258.3125 L 27.011719 258.5 L 26.988281 258.691406 L 26.96875 258.882812 L 26.953125 259.078125 L 26.945312 259.277344 L 26.945312 259.476562 L 26.949219 259.675781 L 26.957031 259.878906 L 26.972656 260.082031 L 26.992188 260.289062 L 27.015625 260.5 Z M 21.316406 255.359375 "/>
<path style=" stroke:none;fill-rule:evenodd;fill:rgb(10.195923%,10.195923%,9.411621%);fill-opacity:1;" d="M 55.769531 267.109375 L 50.066406 261.96875 L 50.113281 262.382812 L 50.125 262.589844 L 50.132812 262.792969 L 50.136719 262.992188 L 50.136719 263.191406 L 50.128906 263.386719 L 50.113281 263.582031 L 50.09375 263.777344 L 50.070312 263.96875 L 50.039062 264.15625 L 50.003906 264.34375 L 49.964844 264.53125 L 49.917969 264.714844 L 49.863281 264.894531 L 49.804688 265.074219 L 49.742188 265.253906 L 49.671875 265.429688 L 49.597656 265.601562 L 49.515625 265.777344 L 49.429688 265.945312 L 49.339844 266.113281 L 49.242188 266.28125 L 49.03125 266.609375 L 48.914062 266.769531 L 48.796875 266.925781 L 48.671875 267.085938 L 48.539062 267.238281 L 48.402344 267.394531 L 48.261719 267.542969 L 48.113281 267.691406 Z M 55.769531 267.109375 "/>
<path style="fill:none;stroke-width:1.4998;stroke-linecap:butt;stroke-linejoin:miter;stroke:rgb(10.195923%,10.195923%,9.411621%);stroke-opacity:1;stroke-miterlimit:22.925586;" d="M 42.058594 139.199475 C 45.792969 139.199475 48.824219 136.312756 48.824219 132.754163 C 48.824219 129.195569 45.792969 126.312756 42.058594 126.312756 C 38.320312 126.312756 35.292969 129.195569 35.292969 132.754163 C 35.292969 136.312756 38.320312 139.199475 42.058594 139.199475 Z M 42.058594 139.199475 " transform="matrix(1,0,0,-1,0,419.5276)"/>
<path style="fill:none;stroke-width:1.4998;stroke-linecap:butt;stroke-linejoin:miter;stroke:rgb(10.195923%,10.195923%,9.411621%);stroke-opacity:1;stroke-miterlimit:22.925586;" d="M 35.21875 125.582288 L 48.265625 139.594006 " transform="matrix(1,0,0,-1,0,419.5276)"/>
<path style=" stroke:none;fill-rule:nonzero;fill:rgb(10.195923%,10.195923%,9.411621%);fill-opacity:1;" d="M 59.808594 291.371094 L 59.808594 293.054688 L 50.328125 293.054688 C 50.3125 292.628906 50.382812 292.222656 50.53125 291.828125 C 50.777344 291.1875 51.167969 290.550781 51.703125 289.925781 C 52.238281 289.304688 53.007812 288.582031 54.003906 287.765625 C 55.554688 286.488281 56.605469 285.480469 57.15625 284.734375 C 57.710938 283.988281 57.988281 283.28125 57.988281 282.613281 C 57.988281 281.917969 57.738281 281.328125 57.238281 280.847656 C 56.738281 280.371094 56.082031 280.132812 55.28125 280.132812 C 54.429688 280.132812 53.75 280.386719 53.238281 280.894531 C 52.730469 281.398438 52.472656 282.097656 52.464844 282.992188 L 50.667969 282.8125 C 50.789062 281.464844 51.257812 280.441406 52.0625 279.734375 C 52.875 279.027344 53.957031 278.671875 55.320312 278.671875 C 56.691406 278.671875 57.785156 279.054688 58.582031 279.816406 C 59.386719 280.578125 59.785156 281.527344 59.785156 282.652344 C 59.785156 283.226562 59.671875 283.789062 59.433594 284.34375 C 59.199219 284.898438 58.808594 285.484375 58.265625 286.097656 C 57.71875 286.707031 56.816406 287.550781 55.558594 288.617188 C 54.5 289.503906 53.820312 290.101562 53.519531 290.417969 C 53.21875 290.734375 52.972656 291.054688 52.777344 291.371094 Z M 64.421875 285.289062 C 63.691406 285.023438 63.148438 284.640625 62.796875 284.144531 C 62.445312 283.648438 62.269531 283.054688 62.269531 282.367188 C 62.269531 281.324219 62.644531 280.449219 63.390625 279.738281 C 64.140625 279.03125 65.132812 278.671875 66.375 278.671875 C 67.625 278.671875 68.628906 279.035156 69.390625 279.761719 C 70.148438 280.488281 70.53125 281.371094 70.53125 282.417969 C 70.53125 283.078125 70.355469 283.660156 70.011719 284.148438 C 69.664062 284.644531 69.136719 285.023438 68.425781 285.289062 C 69.304688 285.578125 69.964844 286.035156 70.421875 286.675781 C 70.878906 287.3125 71.109375 288.074219 71.109375 288.960938 C 71.109375 290.183594 70.675781 291.210938 69.8125 292.042969 C 68.945312 292.875 67.808594 293.292969 66.398438 293.292969 C 64.988281 293.292969 63.851562 292.875 62.988281 292.039062 C 62.125 291.203125 61.691406 290.160156 61.691406 288.910156 C 61.691406 287.980469 61.925781 287.199219 62.398438 286.574219 C 62.875 285.941406 63.546875 285.515625 64.421875 285.289062 Z M 64.070312 282.304688 C 64.070312 282.984375 64.285156 283.535156 64.714844 283.964844 C 65.148438 284.394531 65.714844 284.613281 66.421875 284.613281 C 67.101562 284.613281 67.65625 284.398438 68.085938 283.972656 C 68.515625 283.546875 68.730469 283.023438 68.730469 282.402344 C 68.730469 281.757812 68.511719 281.214844 68.066406 280.773438 C 67.625 280.332031 67.070312 280.113281 66.398438 280.113281 C 65.722656 280.113281 65.167969 280.328125 64.726562 280.761719 C 64.289062 281.191406 64.070312 281.703125 64.070312 282.304688 Z M 63.488281 288.921875 C 63.488281 289.425781 63.605469 289.910156 63.839844 290.378906 C 64.074219 290.847656 64.425781 291.210938 64.898438 291.464844 C 65.371094 291.722656 65.875 291.851562 66.414062 291.851562 C 67.261719 291.851562 67.953125 291.582031 68.496094 291.042969 C 69.039062 290.503906 69.308594 289.816406 69.308594 288.984375 C 69.308594 288.136719 69.03125 287.4375 68.472656 286.882812 C 67.914062 286.328125 67.207031 286.054688 66.355469 286.054688 C 65.523438 286.054688 64.839844 286.328125 64.300781 286.871094 C 63.761719 287.417969 63.488281 288.101562 63.488281 288.921875 "/>
<path style="fill:none;stroke-width:0.216;stroke-linecap:butt;stroke-linejoin:miter;stroke:rgb(10.195923%,10.195923%,9.411621%);stroke-opacity:1;stroke-miterlimit:22.925586;" d="M 237.695312 199.9651 L 237.695312 168.004163 " transform="matrix(1,0,0,-1,0,419.5276)"/>
<path style=" stroke:none;fill-rule:evenodd;fill:rgb(10.195923%,10.195923%,9.411621%);fill-opacity:1;" d="M 237.695312 219.5625 L 240.71875 226.617188 L 240.527344 226.527344 L 240.339844 226.441406 L 240.152344 226.363281 L 239.960938 226.289062 L 239.773438 226.21875 L 239.582031 226.160156 L 239.394531 226.101562 L 239.207031 226.050781 L 239.015625 226.007812 L 238.828125 225.96875 L 238.636719 225.9375 L 238.449219 225.910156 L 238.261719 225.890625 L 238.070312 225.875 L 237.882812 225.867188 L 237.695312 225.863281 L 237.503906 225.867188 L 237.316406 225.875 L 237.125 225.890625 L 236.9375 225.910156 L 236.75 225.9375 L 236.558594 225.96875 L 236.371094 226.007812 L 236.179688 226.050781 L 235.992188 226.101562 L 235.804688 226.160156 L 235.613281 226.21875 L 235.425781 226.289062 L 235.238281 226.363281 L 235.046875 226.441406 L 234.859375 226.527344 L 234.667969 226.617188 Z M 237.695312 219.5625 "/>
<path style="fill:none;stroke-width:0.216;stroke-linecap:butt;stroke-linejoin:miter;stroke:rgb(10.195923%,10.195923%,9.411621%);stroke-opacity:1;stroke-miterlimit:22.925586;" d="M 238.070312 140.254163 L 238.070312 105.203381 " transform="matrix(1,0,0,-1,0,419.5276)"/>
<path style=" stroke:none;fill-rule:evenodd;fill:rgb(10.195923%,10.195923%,9.411621%);fill-opacity:1;" d="M 238.070312 314.324219 L 241.09375 307.269531 L 240.902344 307.363281 L 240.527344 307.527344 L 240.335938 307.601562 L 240.148438 307.667969 L 239.957031 307.730469 L 239.769531 307.785156 L 239.582031 307.835938 L 239.390625 307.882812 L 239.203125 307.917969 L 239.011719 307.953125 L 238.824219 307.980469 L 238.636719 308 L 238.445312 308.015625 L 238.257812 308.023438 L 238.070312 308.027344 L 237.878906 308.023438 L 237.691406 308.015625 L 237.5 308 L 237.3125 307.980469 L 237.125 307.953125 L 236.933594 307.917969 L 236.746094 307.882812 L 236.554688 307.835938 L 236.367188 307.785156 L 236.179688 307.730469 L 235.988281 307.667969 L 235.800781 307.601562 L 235.613281 307.527344 L 235.421875 307.445312 L 235.234375 307.363281 L 235.042969 307.269531 Z M 238.070312 314.324219 "/>
<path style=" stroke:none;fill-rule:nonzero;fill:rgb(10.195923%,10.195923%,9.411621%);fill-opacity:1;" d="M 95.40625 129.085938 L 96.875 129.464844 C 96.761719 130.183594 96.824219 130.75 97.0625 131.171875 C 97.300781 131.59375 97.683594 131.902344 98.222656 132.089844 C 98.679688 132.25 99.121094 132.285156 99.542969 132.195312 C 99.964844 132.105469 100.34375 131.921875 100.6875 131.644531 C 101.027344 131.371094 101.378906 130.957031 101.734375 130.414062 C 102.09375 129.867188 102.382812 129.285156 102.597656 128.664062 C 102.621094 128.597656 102.652344 128.496094 102.691406 128.359375 C 102.230469 128.734375 101.6875 128.980469 101.070312 129.09375 C 100.449219 129.210938 99.835938 129.164062 99.238281 128.953125 C 98.230469 128.601562 97.507812 127.941406 97.066406 126.96875 C 96.625 125.996094 96.613281 124.914062 97.03125 123.71875 C 97.460938 122.484375 98.167969 121.617188 99.160156 121.117188 C 100.148438 120.621094 101.1875 120.558594 102.285156 120.941406 C 103.070312 121.21875 103.71875 121.679688 104.226562 122.339844 C 104.734375 122.992188 105.019531 123.769531 105.082031 124.679688 C 105.148438 125.585938 104.917969 126.785156 104.398438 128.277344 C 103.855469 129.835938 103.257812 131.015625 102.601562 131.816406 C 101.941406 132.621094 101.191406 133.148438 100.359375 133.394531 C 99.527344 133.644531 98.664062 133.613281 97.769531 133.300781 C 96.816406 132.96875 96.132812 132.4375 95.714844 131.695312 C 95.296875 130.957031 95.195312 130.085938 95.40625 129.085938 Z M 103.378906 125.847656 C 103.679688 124.988281 103.6875 124.230469 103.410156 123.570312 C 103.132812 122.914062 102.671875 122.46875 102.027344 122.246094 C 101.359375 122.011719 100.6875 122.078125 100.011719 122.449219 C 99.332031 122.820312 98.84375 123.4375 98.542969 124.300781 C 98.273438 125.074219 98.285156 125.78125 98.582031 126.425781 C 98.875 127.070312 99.371094 127.511719 100.058594 127.753906 C 100.75 127.996094 101.398438 127.949219 102.015625 127.621094 C 102.625 127.296875 103.082031 126.699219 103.378906 125.847656 Z M 104.769531 131.929688 L 106.375 132.355469 C 106.222656 133.160156 106.292969 133.824219 106.578125 134.355469 C 106.863281 134.886719 107.308594 135.257812 107.914062 135.46875 C 108.640625 135.722656 109.34375 135.660156 110.03125 135.292969 C 110.710938 134.921875 111.210938 134.289062 111.523438 133.394531 C 111.820312 132.539062 111.816406 131.785156 111.515625 131.128906 C 111.214844 130.472656 110.675781 130.007812 109.898438 129.734375 C 109.414062 129.566406 108.941406 129.527344 108.476562 129.613281 C 108.019531 129.699219 107.617188 129.882812 107.273438 130.15625 L 105.933594 129.460938 L 109.289062 123.613281 L 115.324219 125.71875 L 114.824219 127.144531 L 109.984375 125.457031 L 108.191406 128.515625 C 109.097656 128.253906 109.949219 128.265625 110.75 128.546875 C 111.808594 128.914062 112.574219 129.59375 113.046875 130.585938 C 113.519531 131.574219 113.554688 132.648438 113.152344 133.804688 C 112.765625 134.90625 112.113281 135.746094 111.195312 136.324219 C 110.074219 137.039062 108.835938 137.160156 107.488281 136.691406 C 106.382812 136.304688 105.589844 135.679688 105.105469 134.816406 C 104.625 133.953125 104.511719 132.992188 104.769531 131.929688 Z M 114.195312 134.703125 L 114.714844 133.207031 L 119.339844 134.820312 L 118.816406 136.316406 Z M 124.375 142.351562 L 122.878906 141.832031 L 126.203125 132.304688 C 125.722656 132.527344 125.128906 132.703125 124.425781 132.84375 C 123.722656 132.984375 123.105469 133.058594 122.582031 133.066406 L 123.085938 131.621094 C 124.058594 131.519531 124.953125 131.300781 125.777344 130.957031 C 126.597656 130.617188 127.230469 130.230469 127.675781 129.796875 L 128.636719 130.132812 Z M 130.3125 137.6875 C 130.816406 136.25 131.367188 135.140625 131.96875 134.363281 C 132.574219 133.585938 133.246094 133.0625 133.996094 132.792969 C 134.742188 132.523438 135.558594 132.542969 136.441406 132.851562 C 137.09375 133.078125 137.621094 133.410156 138.023438 133.847656 C 138.425781 134.28125 138.699219 134.800781 138.84375 135.410156 C 138.992188 136.011719 139.027344 136.703125 138.960938 137.476562 C 138.898438 138.253906 138.65625 139.242188 138.234375 140.449219 C 137.738281 141.875 137.1875 142.980469 136.589844 143.757812 C 135.988281 144.535156 135.316406 145.058594 134.566406 145.332031 C 133.820312 145.605469 133 145.585938 132.109375 145.277344 C 130.941406 144.867188 130.164062 144.132812 129.785156 143.0625 C 129.339844 141.761719 129.515625 139.972656 130.3125 137.6875 Z M 131.84375 138.226562 C 131.144531 140.226562 130.910156 141.640625 131.148438 142.460938 C 131.386719 143.285156 131.851562 143.8125 132.535156 144.054688 C 133.222656 144.292969 133.914062 144.164062 134.613281 143.664062 C 135.3125 143.164062 136.007812 141.917969 136.703125 139.921875 C 137.402344 137.917969 137.632812 136.503906 137.394531 135.683594 C 137.160156 134.863281 136.691406 134.332031 135.992188 134.085938 C 135.304688 133.847656 134.65625 133.949219 134.042969 134.386719 C 133.269531 134.945312 132.539062 136.226562 131.84375 138.226562 Z M 138.789062 143.792969 L 140.394531 144.21875 C 140.242188 145.019531 140.3125 145.6875 140.597656 146.21875 C 140.882812 146.746094 141.328125 147.117188 141.933594 147.328125 C 142.660156 147.582031 143.363281 147.523438 144.046875 147.15625 C 144.730469 146.785156 145.230469 146.148438 145.539062 145.253906 C 145.839844 144.402344 145.835938 143.648438 145.535156 142.992188 C 145.234375 142.332031 144.695312 141.867188 143.914062 141.597656 C 143.429688 141.425781 142.960938 141.386719 142.496094 141.472656 C 142.039062 141.5625 141.636719 141.742188 141.292969 142.015625 L 139.953125 141.320312 L 143.308594 135.476562 L 149.34375 137.578125 L 148.84375 139.007812 L 144.003906 137.320312 L 142.210938 140.375 C 143.117188 140.117188 143.96875 140.128906 144.769531 140.40625 C 145.828125 140.777344 146.59375 141.457031 147.066406 142.445312 C 147.539062 143.4375 147.574219 144.511719 147.171875 145.667969 C 146.785156 146.769531 146.132812 147.609375 145.214844 148.1875 C 144.089844 148.902344 142.855469 149.023438 141.503906 148.554688 C 140.402344 148.167969 139.609375 147.542969 139.125 146.675781 C 138.640625 145.8125 138.527344 144.851562 138.789062 143.792969 "/>
<path style=" stroke:none;fill-rule:nonzero;fill:rgb(10.195923%,10.195923%,9.411621%);fill-opacity:1;" d="M 57.199219 194.148438 L 55.792969 194.148438 L 55.792969 185.183594 C 55.453125 185.507812 55.007812 185.832031 54.460938 186.15625 C 53.910156 186.476562 53.414062 186.71875 52.976562 186.878906 L 52.976562 185.519531 C 53.761719 185.152344 54.453125 184.703125 55.039062 184.175781 C 55.628906 183.652344 56.046875 183.140625 56.292969 182.644531 L 57.199219 182.644531 Z M 60.820312 188.496094 C 60.820312 187.144531 60.957031 186.050781 61.234375 185.222656 C 61.515625 184.394531 61.929688 183.757812 62.476562 183.3125 C 63.023438 182.867188 63.714844 182.644531 64.546875 182.644531 C 65.160156 182.644531 65.699219 182.769531 66.164062 183.015625 C 66.628906 183.265625 67.015625 183.621094 67.3125 184.089844 C 67.609375 184.550781 67.847656 185.121094 68.015625 185.789062 C 68.191406 186.457031 68.273438 187.363281 68.273438 188.496094 C 68.273438 189.839844 68.136719 190.929688 67.863281 191.753906 C 67.585938 192.585938 67.171875 193.222656 66.625 193.667969 C 66.078125 194.117188 65.382812 194.339844 64.546875 194.339844 C 63.445312 194.339844 62.578125 193.949219 61.949219 193.164062 C 61.195312 192.203125 60.820312 190.648438 60.820312 188.496094 Z M 62.257812 188.5 C 62.257812 190.386719 62.476562 191.640625 62.917969 192.257812 C 63.359375 192.878906 63.902344 193.1875 64.546875 193.1875 C 65.191406 193.1875 65.738281 192.878906 66.175781 192.257812 C 66.617188 191.632812 66.835938 190.382812 66.835938 188.5 C 66.835938 186.617188 66.617188 185.363281 66.175781 184.742188 C 65.738281 184.121094 65.191406 183.8125 64.53125 183.8125 C 63.886719 183.8125 63.367188 184.089844 62.980469 184.636719 C 62.5 185.332031 62.257812 186.621094 62.257812 188.5 Z M 69.71875 191.140625 L 71.191406 191.03125 C 71.300781 191.746094 71.550781 192.285156 71.945312 192.648438 C 72.339844 193.007812 72.824219 193.1875 73.390625 193.1875 C 74.078125 193.1875 74.652344 192.933594 75.117188 192.425781 C 75.582031 191.910156 75.8125 191.234375 75.8125 190.390625 C 75.8125 189.589844 75.59375 188.957031 75.148438 188.492188 C 74.703125 188.03125 74.113281 187.796875 73.378906 187.796875 C 72.921875 187.796875 72.515625 187.902344 72.152344 188.109375 C 71.792969 188.316406 71.507812 188.585938 71.300781 188.917969 L 69.972656 188.726562 L 71.078125 182.835938 L 76.757812 182.835938 L 76.757812 184.179688 L 72.199219 184.179688 L 71.589844 187.273438 C 72.273438 186.789062 72.996094 186.550781 73.746094 186.550781 C 74.746094 186.550781 75.585938 186.894531 76.273438 187.589844 C 76.957031 188.28125 77.300781 189.171875 77.300781 190.261719 C 77.300781 191.300781 77 192.195312 76.398438 192.949219 C 75.664062 193.878906 74.660156 194.339844 73.390625 194.339844 C 72.351562 194.339844 71.503906 194.046875 70.84375 193.464844 C 70.1875 192.878906 69.8125 192.105469 69.71875 191.140625 Z M 51.25 212.214844 L 54.578125 200.375 L 55.710938 200.375 L 52.382812 212.214844 Z M 61.644531 212.023438 L 60.238281 212.023438 L 60.238281 203.058594 C 59.898438 203.382812 59.453125 203.707031 58.90625 204.03125 C 58.355469 204.351562 57.859375 204.59375 57.421875 204.753906 L 57.421875 203.394531 C 58.207031 203.027344 58.898438 202.578125 59.484375 202.050781 C 60.074219 201.527344 60.492188 201.015625 60.738281 200.519531 L 61.644531 200.519531 Z M 65.265625 208.984375 L 66.671875 208.792969 C 66.835938 209.59375 67.105469 210.167969 67.492188 210.519531 C 67.878906 210.871094 68.355469 211.046875 68.917969 211.046875 C 69.585938 211.046875 70.148438 210.820312 70.601562 210.359375 C 71.054688 209.902344 71.28125 209.332031 71.28125 208.65625 C 71.28125 208.011719 71.070312 207.476562 70.644531 207.054688 C 70.222656 206.636719 69.6875 206.425781 69.035156 206.425781 C 68.769531 206.425781 68.4375 206.480469 68.039062 206.585938 L 68.199219 205.351562 C 68.292969 205.363281 68.367188 205.367188 68.425781 205.367188 C 69.027344 205.367188 69.566406 205.210938 70.046875 204.898438 C 70.527344 204.585938 70.769531 204.105469 70.769531 203.460938 C 70.769531 202.945312 70.59375 202.519531 70.242188 202.179688 C 69.894531 201.839844 69.441406 201.671875 68.890625 201.671875 C 68.34375 201.671875 67.886719 201.84375 67.519531 202.191406 C 67.15625 202.539062 66.921875 203.058594 66.816406 203.753906 L 65.410156 203.496094 C 65.582031 202.550781 65.972656 201.820312 66.582031 201.300781 C 67.191406 200.777344 67.949219 200.519531 68.855469 200.519531 C 69.480469 200.519531 70.054688 200.652344 70.582031 200.921875 C 71.109375 201.191406 71.511719 201.554688 71.789062 202.015625 C 72.070312 202.480469 72.207031 202.972656 72.207031 203.492188 C 72.207031 203.984375 72.074219 204.433594 71.8125 204.835938 C 71.542969 205.242188 71.148438 205.566406 70.628906 205.804688 C 71.308594 205.960938 71.832031 206.285156 72.207031 206.777344 C 72.582031 207.269531 72.769531 207.886719 72.769531 208.625 C 72.769531 209.625 72.402344 210.476562 71.675781 211.171875 C 70.945312 211.871094 70.023438 212.214844 68.90625 212.214844 C 67.902344 212.214844 67.066406 211.914062 66.402344 211.316406 C 65.738281 210.714844 65.359375 209.9375 65.265625 208.984375 Z M 74.164062 206.371094 C 74.164062 205.019531 74.300781 203.925781 74.578125 203.097656 C 74.859375 202.269531 75.273438 201.632812 75.820312 201.1875 C 76.367188 200.742188 77.058594 200.519531 77.890625 200.519531 C 78.503906 200.519531 79.042969 200.644531 79.507812 200.890625 C 79.972656 201.140625 80.359375 201.496094 80.65625 201.964844 C 80.953125 202.425781 81.191406 202.996094 81.359375 203.664062 C 81.535156 204.332031 81.617188 205.238281 81.617188 206.371094 C 81.617188 207.714844 81.480469 208.804688 81.207031 209.628906 C 80.929688 210.457031 80.515625 211.097656 79.96875 211.542969 C 79.421875 211.992188 78.726562 212.214844 77.890625 212.214844 C 76.789062 212.214844 75.921875 211.824219 75.292969 211.039062 C 74.539062 210.078125 74.164062 208.523438 74.164062 206.371094 Z M 75.601562 206.375 C 75.601562 208.261719 75.820312 209.515625 76.261719 210.132812 C 76.703125 210.753906 77.246094 211.0625 77.890625 211.0625 C 78.535156 211.0625 79.082031 210.753906 79.519531 210.132812 C 79.960938 209.507812 80.179688 208.257812 80.179688 206.375 C 80.179688 204.492188 79.960938 203.238281 79.519531 202.617188 C 79.082031 201.996094 78.535156 201.6875 77.875 201.6875 C 77.230469 201.6875 76.710938 201.964844 76.324219 202.507812 C 75.84375 203.207031 75.601562 204.496094 75.601562 206.375 "/>
<path style="fill:none;stroke-width:0.216;stroke-linecap:butt;stroke-linejoin:miter;stroke:rgb(10.195923%,10.195923%,9.411621%);stroke-opacity:1;stroke-miterlimit:22.925586;" d="M 73.273438 260.539319 L 73.273438 238.414319 " transform="matrix(1,0,0,-1,0,419.5276)"/>
<path style=" stroke:none;fill-rule:evenodd;fill:rgb(10.195923%,10.195923%,9.411621%);fill-opacity:1;" d="M 73.273438 158.988281 L 76.300781 166.042969 L 76.109375 165.953125 L 75.921875 165.867188 L 75.730469 165.789062 L 75.542969 165.714844 L 75.355469 165.644531 L 75.164062 165.585938 L 74.976562 165.527344 L 74.789062 165.476562 L 74.597656 165.433594 L 74.410156 165.394531 L 74.21875 165.363281 L 74.03125 165.335938 L 73.84375 165.316406 L 73.652344 165.300781 L 73.464844 165.292969 L 73.273438 165.289062 L 73.085938 165.292969 L 72.898438 165.300781 L 72.707031 165.316406 L 72.519531 165.335938 L 72.332031 165.363281 L 72.140625 165.394531 L 71.953125 165.433594 L 71.761719 165.476562 L 71.574219 165.527344 L 71.386719 165.585938 L 71.195312 165.644531 L 71.007812 165.714844 L 70.816406 165.789062 L 70.628906 165.867188 L 70.441406 165.953125 L 70.25 166.042969 Z M 73.273438 158.988281 "/>
<path style="fill:none;stroke-width:0.216;stroke-linecap:butt;stroke-linejoin:miter;stroke:rgb(10.195923%,10.195923%,9.411621%);stroke-opacity:1;stroke-miterlimit:22.925586;" d="M 73.183594 208.312756 L 73.183594 184.133069 " transform="matrix(1,0,0,-1,0,419.5276)"/>
<path style=" stroke:none;fill-rule:evenodd;fill:rgb(10.195923%,10.195923%,9.411621%);fill-opacity:1;" d="M 73.183594 235.394531 L 76.207031 228.339844 L 76.019531 228.429688 L 75.828125 228.515625 L 75.640625 228.597656 L 75.453125 228.667969 L 75.261719 228.738281 L 75.074219 228.800781 L 74.886719 228.855469 L 74.695312 228.90625 L 74.507812 228.949219 L 74.316406 228.988281 L 74.128906 229.019531 L 73.941406 229.046875 L 73.75 229.066406 L 73.5625 229.082031 L 73.371094 229.09375 L 72.996094 229.09375 L 72.804688 229.082031 L 72.617188 229.066406 L 72.425781 229.046875 L 72.238281 229.019531 L 72.050781 228.988281 L 71.859375 228.949219 L 71.671875 228.90625 L 71.484375 228.855469 L 71.292969 228.800781 L 71.105469 228.738281 L 70.914062 228.667969 L 70.726562 228.597656 L 70.539062 228.515625 L 70.347656 228.429688 L 70.160156 228.339844 Z M 73.183594 235.394531 "/>
<path style="fill:none;stroke-width:0.7498;stroke-linecap:butt;stroke-linejoin:miter;stroke:rgb(10.195923%,10.195923%,9.411621%);stroke-opacity:1;stroke-miterlimit:22.925586;" d="M 162.78125 192.355725 C 164.851562 193.0901 167.644531 193.742444 169.742188 194.297131 C 172.210938 194.945569 174.464844 195.37135 176.589844 195.676038 C 178.714844 195.980725 180.707031 196.160413 183.132812 196.195569 C 185.558594 196.230725 188.414062 196.117444 190.816406 195.9026 C 193.21875 195.687756 195.160156 195.37135 196.171875 195.000256 C 197.179688 194.629163 197.25 194.207288 197.300781 193.703381 C 197.355469 193.199475 197.386719 192.609631 197.527344 192.250256 C 197.671875 191.890881 197.929688 191.758069 198.367188 191.504163 C 198.808594 191.254163 199.429688 190.879163 200.019531 190.597913 C 200.609375 190.316663 201.167969 190.129163 202.597656 190.070569 C 204.027344 190.015881 206.328125 190.0901 208.429688 190.312756 C 210.53125 190.531506 212.441406 190.898694 214.128906 191.336194 C 215.820312 191.7776 217.296875 192.289319 218.933594 193.008069 C 220.574219 193.730725 222.375 194.656506 223.523438 195.414319 C 224.671875 196.172131 225.167969 196.761975 225.410156 197.136975 C 225.652344 197.515881 225.644531 197.679944 225.429688 199.394788 C 225.214844 201.109631 224.789062 204.37135 224.40625 206.172131 C 224.023438 207.976819 223.679688 208.312756 223.011719 208.676038 C 222.34375 209.035413 221.347656 209.418225 218.941406 210.1526 C 216.539062 210.886975 212.726562 211.972913 209.21875 212.801038 C 205.707031 213.629163 202.5 214.199475 199.59375 214.535413 C 196.683594 214.87135 194.074219 214.969006 191.3125 214.93385 C 188.550781 214.894788 185.632812 214.722913 182.84375 214.414319 C 180.058594 214.105725 177.40625 213.660413 175.03125 213.12135 C 172.8125 212.617444 169.582031 212.472913 161.1875 209.226819 " transform="matrix(1,0,0,-1,0,419.5276)"/>
<path style="fill:none;stroke-width:0.7498;stroke-linecap:butt;stroke-linejoin:miter;stroke:rgb(10.195923%,10.195923%,9.411621%);stroke-opacity:1;stroke-miterlimit:22.925586;" d="M 223.90625 195.828381 C 224.277344 194.133069 224.652344 192.437756 224.808594 191.437756 C 224.964844 190.441663 224.902344 190.136975 224.515625 189.629163 C 224.125 189.125256 223.410156 188.414319 222.316406 187.672131 C 221.226562 186.93385 219.761719 186.160413 217.953125 185.500256 C 216.144531 184.836194 213.996094 184.285413 212.375 183.906506 C 210.753906 183.5276 209.660156 183.324475 208.289062 183.258069 C 206.914062 183.195569 205.257812 183.265881 204.035156 183.469006 C 202.8125 183.672131 202.019531 184.011975 201.613281 184.367444 C 201.210938 184.722913 201.191406 185.097913 200.988281 186.105725 C 200.785156 187.113538 200.398438 188.754163 200.011719 190.398694 " transform="matrix(1,0,0,-1,0,419.5276)"/>
<path style="fill:none;stroke-width:0.7498;stroke-linecap:butt;stroke-linejoin:miter;stroke:rgb(10.195923%,10.195923%,9.411621%);stroke-opacity:1;stroke-miterlimit:22.925586;" d="M 209.542969 183.367444 C 209.316406 184.367444 209.089844 185.367444 209.011719 185.918225 C 208.933594 186.469006 209.003906 186.574475 210.574219 186.984631 C 212.144531 187.398694 215.214844 188.12135 216.777344 188.422131 C 218.339844 188.722913 218.394531 188.597913 218.503906 188.105725 C 218.617188 187.613538 218.78125 186.750256 218.949219 185.890881 " transform="matrix(1,0,0,-1,0,419.5276)"/>
<path style="fill:none;stroke-width:0.7498;stroke-linecap:butt;stroke-linejoin:miter;stroke:rgb(10.195923%,10.195923%,9.411621%);stroke-opacity:1;stroke-miterlimit:22.925586;" d="M 223.082031 208.636975 C 220.84375 207.5901 218.640625 206.5276 216.78125 205.336194 C 214.726562 204.015881 213.097656 202.535413 212.082031 200.949475 C 211.070312 199.359631 210.675781 197.664319 210.652344 196.062756 C 210.628906 194.457288 210.976562 192.949475 211.144531 192.047131 C 211.316406 191.140881 211.304688 190.844006 211.296875 190.547131 " transform="matrix(1,0,0,-1,0,419.5276)"/>
<path style="fill:none;stroke-width:0.7498;stroke-linecap:butt;stroke-linejoin:miter;stroke:rgb(10.195923%,10.195923%,9.411621%);stroke-opacity:1;stroke-miterlimit:22.925586;" d="M 215.058594 205.211194 C 212.296875 204.851819 209.535156 204.49635 206.117188 204.543225 C 202.699219 204.594006 198.621094 205.051038 194.734375 205.511975 C 190.84375 205.976819 187.140625 206.453381 184.199219 206.761975 C 181.253906 207.070569 179.070312 207.2151 176.179688 206.988538 C 173.285156 206.765881 169.683594 206.164319 165.542969 205.0901 C 164.664062 204.863538 163.308594 204.625256 162.316406 204.324475 " transform="matrix(1,0,0,-1,0,419.5276)"/>
<path style="fill:none;stroke-width:0.7498;stroke-linecap:butt;stroke-linejoin:miter;stroke:rgb(10.195923%,10.195923%,9.411621%);stroke-opacity:1;stroke-miterlimit:22.925586;" d="M 154.644531 250.4651 C 153.488281 251.758069 152.332031 253.047131 150.75 254.2776 C 149.167969 255.511975 147.15625 256.679944 144.769531 257.789319 C 142.382812 258.898694 139.617188 259.945569 135.71875 260.781506 C 131.820312 261.617444 126.789062 262.24635 122.371094 262.551038 C 117.953125 262.855725 114.152344 262.836194 110.558594 262.386975 C 106.964844 261.937756 103.582031 261.054944 100.617188 259.93385 C 97.652344 258.80885 95.101562 257.449475 92.917969 255.773694 C 90.734375 254.097913 88.910156 252.109631 87.316406 250.0901 C 85.71875 248.070569 84.347656 246.015881 83.53125 244.168225 C 82.714844 242.320569 82.460938 240.679944 82.511719 239.2776 C 82.5625 237.875256 82.921875 236.711194 83.652344 235.457288 C 84.382812 234.207288 85.488281 232.867444 86.949219 231.7151 C 88.410156 230.566663 90.226562 229.601819 92.453125 228.847913 C 94.675781 228.094006 97.308594 227.551038 100.03125 227.383069 C 102.75 227.211194 105.558594 227.414319 107.976562 227.804944 C 110.390625 228.195569 112.414062 228.7776 114.164062 229.4651 C 115.914062 230.156506 117.390625 230.953381 118.652344 231.984631 C 119.914062 233.015881 120.960938 234.281506 121.597656 235.336194 C 122.234375 236.386975 122.464844 237.230725 122.675781 239.000256 C 122.886719 240.769788 123.082031 243.4651 123.273438 246.156506 " transform="matrix(1,0,0,-1,0,419.5276)"/>
<path style="fill:none;stroke-width:0.7498;stroke-linecap:butt;stroke-linejoin:miter;stroke:rgb(10.195923%,10.195923%,9.411621%);stroke-opacity:1;stroke-miterlimit:22.925586;" d="M 98.691406 238.461194 C 100.398438 240.101819 102.109375 241.742444 104.78125 243.051038 C 107.453125 244.359631 111.089844 245.332288 114.78125 245.804944 C 118.476562 246.2776 122.226562 246.24635 125.992188 245.886975 C 129.757812 245.531506 133.535156 244.847913 136.46875 244.297131 C 139.402344 243.742444 141.488281 243.320569 143.40625 243.1526 C 145.328125 242.984631 147.082031 243.074475 148.769531 243.441663 C 150.460938 243.80885 152.082031 244.449475 153.109375 245.191663 C 154.136719 245.929944 154.566406 246.765881 154.722656 247.660413 C 154.878906 248.554944 154.761719 249.511975 154.703125 249.988538 C 154.644531 250.4651 154.644531 250.4651 154.222656 249.855725 C 153.800781 249.24635 152.957031 248.023694 151.605469 247.195569 C 150.25 246.367444 148.382812 245.929944 144.984375 245.976819 C 141.582031 246.019788 136.648438 246.543225 132.539062 247.05885 C 128.429688 247.578381 125.144531 248.094006 122.101562 248.351819 C 119.058594 248.605725 116.257812 248.605725 113.316406 248.230725 C 110.375 247.859631 107.300781 247.117444 104.953125 246.547131 C 102.605469 245.980725 100.992188 245.586194 99.378906 245.191663 " transform="matrix(1,0,0,-1,0,419.5276)"/>
<path style="fill:none;stroke-width:0.7498;stroke-linecap:butt;stroke-linejoin:miter;stroke:rgb(10.195923%,10.195923%,9.411621%);stroke-opacity:1;stroke-miterlimit:22.925586;" d="M 118.800781 242.660413 C 119.320312 242.543225 119.832031 242.1526 120.179688 241.7151 C 120.527344 241.2776 120.710938 240.793225 120.769531 240.265881 C 120.824219 239.738538 120.753906 239.168225 120.558594 238.586194 C 120.363281 238.004163 120.042969 237.414319 119.621094 236.793225 C 119.199219 236.168225 118.675781 235.511975 118.121094 235.031506 C 117.566406 234.551038 116.980469 234.24635 116.46875 234.226819 C 115.953125 234.207288 115.511719 234.472913 115.152344 234.847913 C 114.789062 235.222913 114.503906 235.707288 114.429688 236.359631 C 114.351562 237.015881 114.480469 237.836194 114.785156 238.676038 C 115.089844 239.515881 115.570312 240.375256 116.003906 241.008069 C 116.4375 241.644788 116.828125 242.054944 117.289062 242.3401 C 117.75 242.625256 118.28125 242.781506 118.800781 242.660413 Z M 118.800781 242.660413 " transform="matrix(1,0,0,-1,0,419.5276)"/>
<path style="fill:none;stroke-width:0.7498;stroke-linecap:butt;stroke-linejoin:miter;stroke:rgb(10.195923%,10.195923%,9.411621%);stroke-opacity:1;stroke-miterlimit:22.925586;" d="M 104.050781 239.324475 C 103.984375 237.426038 103.917969 235.5276 103.878906 233.676038 C 103.839844 231.828381 103.824219 230.0276 103.8125 228.226819 " transform="matrix(1,0,0,-1,0,419.5276)"/>
<path style="fill:none;stroke-width:0.7498;stroke-linecap:butt;stroke-linejoin:miter;stroke:rgb(10.195923%,10.195923%,9.411621%);stroke-opacity:1;stroke-miterlimit:22.925586;" d="M 83.652344 235.457288 C 83.625 233.285413 83.601562 231.109631 83.585938 221.316663 C 83.566406 211.523694 83.558594 194.113538 83.550781 185.207288 C 83.539062 176.301038 83.523438 175.9026 83.875 175.2151 C 84.226562 174.5276 84.941406 173.551038 86.261719 172.656506 C 87.582031 171.758069 89.503906 170.941663 91.484375 170.269788 C 93.460938 169.601819 95.492188 169.082288 97.609375 168.832288 C 99.726562 168.582288 101.929688 168.605725 104.066406 168.832288 C 106.199219 169.05885 108.265625 169.484631 110.191406 170.168225 C 112.117188 170.851819 113.898438 171.789319 115.179688 172.644788 C 116.460938 173.500256 117.238281 174.273694 117.738281 174.93385 C 118.234375 175.5901 118.453125 176.133069 118.542969 176.554944 C 118.632812 176.976819 118.59375 177.2776 118.574219 177.429944 C 118.554688 177.582288 118.554688 177.582288 118.554688 177.582288 " transform="matrix(1,0,0,-1,0,419.5276)"/>
<path style="fill:none;stroke-width:0.7498;stroke-linecap:butt;stroke-linejoin:miter;stroke:rgb(10.195923%,10.195923%,9.411621%);stroke-opacity:1;stroke-miterlimit:22.925586;" d="M 119.40625 232.648694 C 119.222656 220.094006 119.042969 207.535413 118.863281 194.980725 " transform="matrix(1,0,0,-1,0,419.5276)"/>
<path style="fill:none;stroke-width:0.7498;stroke-linecap:butt;stroke-linejoin:miter;stroke:rgb(10.195923%,10.195923%,9.411621%);stroke-opacity:1;stroke-miterlimit:22.925586;" d="M 83.601562 228.386975 C 85.246094 227.211194 86.890625 226.035413 88.679688 225.136975 C 90.464844 224.238538 92.394531 223.62135 94.628906 223.117444 C 96.863281 222.617444 99.402344 222.226819 101.800781 222.168225 C 104.199219 222.109631 106.460938 222.379163 108.550781 222.832288 C 110.644531 223.285413 112.566406 223.918225 114.042969 224.617444 C 115.519531 225.316663 116.546875 226.082288 117.355469 226.703381 C 118.164062 227.324475 118.753906 227.804944 119.339844 228.285413 " transform="matrix(1,0,0,-1,0,419.5276)"/>
<path style="fill:none;stroke-width:0.7498;stroke-linecap:butt;stroke-linejoin:miter;stroke:rgb(10.195923%,10.195923%,9.411621%);stroke-opacity:1;stroke-miterlimit:22.925586;" d="M 83.5625 201.023694 C 84.160156 200.148694 84.761719 199.2776 85.71875 198.367444 C 86.679688 197.457288 87.996094 196.508069 89.519531 195.754163 C 91.046875 195.000256 92.777344 194.441663 94.664062 194.023694 C 96.550781 193.609631 98.59375 193.336194 100.667969 193.312756 C 102.742188 193.293225 104.851562 193.519788 106.890625 193.922131 C 108.933594 194.328381 110.902344 194.910413 112.554688 195.625256 C 114.207031 196.344006 115.535156 197.199475 116.546875 198.0901 C 117.558594 198.980725 118.253906 199.906506 118.945312 200.836194 " transform="matrix(1,0,0,-1,0,419.5276)"/>
<path style="fill:none;stroke-width:0.7498;stroke-linecap:butt;stroke-linejoin:miter;stroke:rgb(10.195923%,10.195923%,9.411621%);stroke-opacity:1;stroke-miterlimit:22.925586;" d="M 121.292969 178.687756 C 121.289062 177.086194 121.28125 175.484631 121.117188 174.312756 C 120.949219 173.144788 120.625 172.406506 119.585938 171.289319 C 118.546875 170.176038 116.792969 168.687756 114.726562 167.508069 C 112.65625 166.328381 110.277344 165.461194 107.808594 164.949475 C 105.335938 164.43385 102.78125 164.273694 100.183594 164.386975 C 97.585938 164.504163 94.945312 164.894788 92.910156 165.344006 C 90.875 165.789319 89.441406 166.289319 88.113281 166.910413 C 86.785156 167.535413 85.558594 168.2776 84.492188 169.2151 C 83.421875 170.1526 82.511719 171.285413 81.875 172.406506 C 81.238281 173.531506 80.878906 174.644788 80.765625 175.648694 C 80.648438 176.6526 80.78125 177.551038 81.035156 178.414319 C 81.289062 179.281506 81.671875 180.12135 82.109375 180.758069 C 82.546875 181.394788 83.046875 181.832288 83.546875 182.269788 " transform="matrix(1,0,0,-1,0,419.5276)"/>
<path style="fill:none;stroke-width:0.7498;stroke-linecap:butt;stroke-linejoin:miter;stroke:rgb(10.195923%,10.195923%,9.411621%);stroke-opacity:1;stroke-miterlimit:22.925586;" d="M 102.648438 173.406506 C 103.464844 173.179944 104.285156 172.949475 105.792969 173.179944 C 107.300781 173.406506 109.503906 174.094006 111.21875 174.74635 C 112.9375 175.398694 114.171875 176.019788 116.554688 176.929944 C 118.9375 177.844006 122.46875 179.043225 124.234375 179.644788 C 126.003906 180.24635 126.003906 180.24635 126.003906 180.24635 " transform="matrix(1,0,0,-1,0,419.5276)"/>
<path style="fill:none;stroke-width:0.7498;stroke-linecap:butt;stroke-linejoin:miter;stroke:rgb(10.195923%,10.195923%,9.411621%);stroke-opacity:1;stroke-miterlimit:22.925586;" d="M 120.386719 178.320569 C 120.238281 177.719006 120.089844 177.12135 119.597656 176.238538 C 119.101562 175.359631 118.261719 174.199475 117.289062 173.2151 C 116.316406 172.230725 115.210938 171.418225 113.667969 170.672131 C 112.121094 169.926038 110.132812 169.24635 108.160156 168.781506 C 106.1875 168.320569 104.226562 168.074475 102.347656 167.99635 C 100.46875 167.918225 98.671875 168.008069 96.679688 168.301038 C 94.6875 168.594006 92.503906 169.097913 90.753906 169.660413 C 89.003906 170.219006 87.6875 170.8401 86.519531 171.601819 C 85.351562 172.359631 84.332031 173.261975 83.59375 174.168225 C 82.855469 175.074475 82.402344 175.992444 82.097656 176.80885 C 81.796875 177.625256 81.644531 178.344006 81.601562 178.863538 C 81.554688 179.379163 81.613281 179.699475 81.671875 180.015881 " transform="matrix(1,0,0,-1,0,419.5276)"/>
<path style="fill:none;stroke-width:0.7498;stroke-linecap:butt;stroke-linejoin:miter;stroke:rgb(10.195923%,10.195923%,9.411621%);stroke-opacity:1;stroke-miterlimit:22.925586;" d="M 150.796875 205.797131 C 140.152344 202.191663 129.507812 198.586194 123.449219 196.644788 C 117.390625 194.707288 115.914062 194.43385 114.761719 194.12135 C 113.605469 193.812756 112.769531 193.469006 111.539062 192.648694 C 110.308594 191.828381 108.6875 190.531506 107.210938 189.031506 C 105.730469 187.535413 104.398438 185.828381 103.371094 184.363538 C 102.34375 182.898694 101.625 181.672131 101.210938 180.613538 C 100.800781 179.551038 100.695312 178.656506 100.785156 177.648694 C 100.875 176.648694 101.160156 175.535413 101.503906 174.812756 C 101.847656 174.086194 102.25 173.74635 102.648438 173.406506 " transform="matrix(1,0,0,-1,0,419.5276)"/>
<path style="fill:none;stroke-width:0.7498;stroke-linecap:butt;stroke-linejoin:miter;stroke:rgb(10.195923%,10.195923%,9.411621%);stroke-opacity:1;stroke-miterlimit:22.925586;" d="M 126.003906 180.24635 C 139.414062 184.660413 152.824219 189.070569 163.964844 192.74635 M 169.523438 211.976819 C 165.898438 210.785413 162.617188 209.699475 160.046875 208.851819 C 150.796875 205.797131 150.796875 205.797131 150.796875 205.797131 " transform="matrix(1,0,0,-1,0,419.5276)"/>
<path style="fill:none;stroke-width:0.7498;stroke-linecap:butt;stroke-linejoin:miter;stroke:rgb(10.195923%,10.195923%,9.411621%);stroke-opacity:1;stroke-miterlimit:22.925586;" d="M 162.316406 204.324475 C 153.601562 201.301038 144.4375 198.054944 136.921875 195.351819 C 123.242188 190.426038 115.027344 187.285413 110.214844 185.176038 C 105.402344 183.066663 103.988281 181.992444 102.574219 180.914319 " transform="matrix(1,0,0,-1,0,419.5276)"/>
<path style="fill:none;stroke-width:0.7498;stroke-linecap:butt;stroke-linejoin:miter;stroke:rgb(10.195923%,10.195923%,9.411621%);stroke-opacity:1;stroke-miterlimit:22.925586;" d="M 85.605469 168.129163 C 85.582031 161.304944 85.582031 154.984631 85.707031 151.566663 C 85.742188 150.62135 85.785156 149.894788 85.84375 149.336194 M 112.871094 146.703381 C 113.867188 147.293225 114.742188 147.937756 115.324219 148.535413 C 116.089844 149.316663 116.359375 150.011975 116.496094 150.363538 C 116.632812 150.711194 116.632812 150.711194 116.640625 154.2151 C 116.648438 156.99635 116.664062 161.988538 116.679688 167.437756 " transform="matrix(1,0,0,-1,0,419.5276)"/>
<path style="fill:none;stroke-width:0.7498;stroke-linecap:butt;stroke-linejoin:miter;stroke:rgb(10.195923%,10.195923%,9.411621%);stroke-opacity:1;stroke-miterlimit:22.925586;" d="M 116.488281 150.3401 C 116.566406 150.144788 116.605469 149.941663 116.605469 149.738538 C 116.582031 147.129163 109.640625 145.078381 101.105469 145.1526 C 92.570312 145.230725 85.667969 147.410413 85.691406 150.019788 C 85.695312 150.160413 85.714844 150.304944 85.757812 150.441663 " transform="matrix(1,0,0,-1,0,419.5276)"/>
<path style="fill:none;stroke-width:0.7498;stroke-linecap:butt;stroke-linejoin:miter;stroke:rgb(10.195923%,10.195923%,9.411621%);stroke-opacity:1;stroke-miterlimit:22.925586;" d="M 116.59375 162.636975 C 116.125 160.156506 109.367188 158.238538 101.121094 158.312756 C 92.871094 158.386975 86.148438 160.426038 85.726562 162.914319 " transform="matrix(1,0,0,-1,0,419.5276)"/>
<path style="fill:none;stroke-width:0.7498;stroke-linecap:butt;stroke-linejoin:miter;stroke:rgb(10.195923%,10.195923%,9.411621%);stroke-opacity:1;stroke-miterlimit:22.925586;" d="M 116.441406 167.980725 C 115.972656 165.49635 109.21875 163.582288 100.96875 163.656506 C 92.722656 163.730725 86 165.765881 85.578125 168.258069 " transform="matrix(1,0,0,-1,0,419.5276)"/>
<path style="fill:none;stroke-width:0.7498;stroke-linecap:butt;stroke-linejoin:miter;stroke:rgb(10.195923%,10.195923%,9.411621%);stroke-opacity:1;stroke-miterlimit:22.925586;" d="M 116.421875 165.750256 C 115.953125 163.265881 109.195312 161.351819 100.949219 161.426038 C 92.703125 161.500256 85.980469 163.535413 85.558594 166.0276 " transform="matrix(1,0,0,-1,0,419.5276)"/>
<path style="fill:none;stroke-width:0.7498;stroke-linecap:butt;stroke-linejoin:miter;stroke:rgb(10.195923%,10.195923%,9.411621%);stroke-opacity:1;stroke-miterlimit:22.925586;" d="M 116.402344 163.519788 C 115.933594 161.035413 109.175781 159.12135 100.929688 159.195569 C 92.683594 159.269788 85.960938 161.304944 85.535156 163.797131 " transform="matrix(1,0,0,-1,0,419.5276)"/>
<path style="fill:none;stroke-width:0.7498;stroke-linecap:butt;stroke-linejoin:miter;stroke:rgb(10.195923%,10.195923%,9.411621%);stroke-opacity:1;stroke-miterlimit:22.925586;" d="M 116.382812 161.285413 C 115.914062 158.804944 109.15625 156.886975 100.910156 156.961194 C 92.660156 157.035413 85.941406 159.074475 85.515625 161.562756 " transform="matrix(1,0,0,-1,0,419.5276)"/>
<path style="fill:none;stroke-width:0.7498;stroke-linecap:butt;stroke-linejoin:miter;stroke:rgb(10.195923%,10.195923%,9.411621%);stroke-opacity:1;stroke-miterlimit:22.925586;" d="M 116.363281 159.054944 C 115.894531 156.570569 109.136719 154.656506 100.890625 154.730725 C 92.640625 154.804944 85.917969 156.8401 85.496094 159.332288 " transform="matrix(1,0,0,-1,0,419.5276)"/>
<path style="fill:none;stroke-width:0.7498;stroke-linecap:butt;stroke-linejoin:miter;stroke:rgb(10.195923%,10.195923%,9.411621%);stroke-opacity:1;stroke-miterlimit:22.925586;" d="M 116.34375 156.824475 C 115.875 154.3401 109.117188 152.426038 100.871094 152.500256 C 92.621094 152.574475 85.898438 154.609631 85.476562 157.101819 " transform="matrix(1,0,0,-1,0,419.5276)"/>
<path style="fill:none;stroke-width:0.7498;stroke-linecap:butt;stroke-linejoin:miter;stroke:rgb(10.195923%,10.195923%,9.411621%);stroke-opacity:1;stroke-miterlimit:22.925586;" d="M 116.320312 154.594006 C 115.855469 152.109631 109.097656 150.195569 100.847656 150.269788 C 92.601562 150.344006 85.878906 152.379163 85.457031 154.87135 " transform="matrix(1,0,0,-1,0,419.5276)"/>
<path style="fill:none;stroke-width:0.7498;stroke-linecap:butt;stroke-linejoin:miter;stroke:rgb(10.195923%,10.195923%,9.411621%);stroke-opacity:1;stroke-miterlimit:22.925586;" d="M 116.300781 152.359631 C 115.835938 149.879163 109.078125 147.961194 100.828125 148.035413 C 92.582031 148.109631 85.859375 150.148694 85.4375 152.636975 " transform="matrix(1,0,0,-1,0,419.5276)"/>
<path style="fill:none;stroke-width:0.7498;stroke-linecap:butt;stroke-linejoin:miter;stroke:rgb(10.195923%,10.195923%,9.411621%);stroke-opacity:1;stroke-miterlimit:22.925586;" d="M 102.410156 143.797131 C 111.648438 143.797131 119.136719 140.519788 119.136719 136.480725 C 119.136719 132.437756 111.648438 129.164319 102.410156 129.164319 C 93.171875 129.164319 85.683594 132.437756 85.683594 136.480725 C 85.683594 140.519788 93.171875 143.797131 102.410156 143.797131 Z M 102.410156 143.797131 " transform="matrix(1,0,0,-1,0,419.5276)"/>
<path style="fill:none;stroke-width:0.7498;stroke-linecap:butt;stroke-linejoin:miter;stroke:rgb(10.195923%,10.195923%,9.411621%);stroke-opacity:1;stroke-miterlimit:22.925586;" d="M 102.410156 141.43385 C 108.667969 141.43385 113.738281 139.2151 113.738281 136.480725 C 113.738281 133.742444 108.667969 131.523694 102.410156 131.523694 C 96.152344 131.523694 91.082031 133.742444 91.082031 136.480725 C 91.082031 139.2151 96.152344 141.43385 102.410156 141.43385 Z M 102.410156 141.43385 " transform="matrix(1,0,0,-1,0,419.5276)"/>
<path style="fill:none;stroke-width:0.7498;stroke-linecap:butt;stroke-linejoin:miter;stroke:rgb(10.195923%,10.195923%,9.411621%);stroke-opacity:1;stroke-miterlimit:22.925586;" d="M 92.65625 133.957288 C 91.679688 134.476819 91.117188 135.086194 91.117188 135.738538 C 91.117188 137.679944 96.121094 139.250256 102.289062 139.250256 C 108.242188 139.250256 113.105469 137.785413 113.441406 135.941663 " transform="matrix(1,0,0,-1,0,419.5276)"/>
<path style="fill:none;stroke-width:0.7498;stroke-linecap:butt;stroke-linejoin:miter;stroke:rgb(10.195923%,10.195923%,9.411621%);stroke-opacity:1;stroke-miterlimit:22.925586;" d="M 116.136719 132.297131 C 116.394531 131.922131 116.535156 131.5276 116.535156 131.12135 C 116.535156 128.383069 110.226562 126.164319 102.445312 126.164319 C 94.664062 126.164319 88.355469 128.383069 88.355469 131.12135 C 88.355469 131.515881 88.484375 131.898694 88.734375 132.265881 M 91.929688 134.418225 C 91.972656 134.43385 92.011719 134.453381 92.054688 134.469006 " transform="matrix(1,0,0,-1,0,419.5276)"/>
<path style="fill:none;stroke-width:0.7498;stroke-linecap:butt;stroke-linejoin:miter;stroke:rgb(10.195923%,10.195923%,9.411621%);stroke-opacity:1;stroke-miterlimit:22.925586;" d="M 87.742188 132.961194 L 88.566406 129.7776 " transform="matrix(1,0,0,-1,0,419.5276)"/>
<path style="fill:none;stroke-width:0.7498;stroke-linecap:butt;stroke-linejoin:miter;stroke:rgb(10.195923%,10.195923%,9.411621%);stroke-opacity:1;stroke-miterlimit:22.925586;" d="M 116.949219 132.711194 L 116.121094 129.5276 " transform="matrix(1,0,0,-1,0,419.5276)"/>
<path style="fill:none;stroke-width:0.7498;stroke-linecap:butt;stroke-linejoin:miter;stroke:rgb(10.195923%,10.195923%,9.411621%);stroke-opacity:1;stroke-miterlimit:22.925586;" d="M 96.507812 129.633069 L 96.910156 126.562756 " transform="matrix(1,0,0,-1,0,419.5276)"/>
<path style="fill:none;stroke-width:0.7498;stroke-linecap:butt;stroke-linejoin:miter;stroke:rgb(10.195923%,10.195923%,9.411621%);stroke-opacity:1;stroke-miterlimit:22.925586;" d="M 109.078125 129.617444 L 108.671875 126.547131 " transform="matrix(1,0,0,-1,0,419.5276)"/>
<path style="fill:none;stroke-width:0.216;stroke-linecap:butt;stroke-linejoin:miter;stroke:rgb(10.195923%,10.195923%,9.411621%);stroke-opacity:1;stroke-dasharray:1.08,0.65;stroke-miterlimit:22.925586;" d="M 182.890625 219.566663 L 245.066406 198.363538 " transform="matrix(1,0,0,-1,0,419.5276)"/>
<path style=" stroke:none;fill-rule:nonzero;fill:rgb(10.195923%,10.195923%,9.411621%);fill-opacity:1;" d="M 57.441406 313.242188 C 56.320312 313.242188 55.378906 313.109375 54.613281 312.847656 C 53.453125 312.457031 52.875 311.820312 52.875 310.945312 L 52.875 305.203125 C 52.875 304.363281 53.460938 303.738281 54.625 303.328125 C 55.445312 303.039062 56.386719 302.894531 57.441406 302.894531 L 65.628906 302.894531 L 65.628906 304.925781 L 57.441406 304.925781 C 55.789062 304.925781 54.960938 305.292969 54.960938 306.03125 L 54.960938 310.3125 C 54.960938 310.910156 55.789062 311.210938 57.441406 311.210938 L 65.628906 311.210938 L 65.628906 313.242188 Z M 84.417969 313.242188 L 84.417969 306.351562 L 77.78125 312.960938 C 77.59375 313.148438 77.355469 313.242188 77.066406 313.242188 C 76.777344 313.242188 76.535156 313.140625 76.339844 312.945312 L 69.800781 306.378906 L 69.800781 313.242188 L 67.757812 313.242188 L 67.757812 303.917969 C 67.757812 303.617188 67.835938 303.359375 67.996094 303.140625 C 68.15625 302.921875 68.378906 302.808594 68.671875 302.808594 C 68.960938 302.808594 69.238281 302.9375 69.5 303.195312 L 77.066406 310.824219 L 84.742188 303.203125 C 85.003906 302.941406 85.273438 302.808594 85.550781 302.808594 C 85.839844 302.808594 86.0625 302.921875 86.222656 303.140625 C 86.382812 303.359375 86.460938 303.617188 86.460938 303.917969 L 86.460938 313.242188 Z M 133.84375 313.242188 L 133.84375 302.894531 L 146.316406 302.894531 L 146.316406 304.925781 L 135.886719 304.925781 L 135.886719 313.242188 Z M 102.796875 313.242188 L 94.804688 313.242188 L 94.804688 311.558594 C 95.417969 311.117188 96.027344 310.648438 96.640625 310.148438 C 97.253906 309.652344 97.742188 309.222656 98.109375 308.859375 C 98.660156 308.328125 99.054688 307.863281 99.285156 307.464844 C 99.519531 307.066406 99.632812 306.675781 99.632812 306.285156 C 99.632812 305.820312 99.484375 305.460938 99.1875 305.207031 C 98.886719 304.953125 98.457031 304.828125 97.898438 304.828125 C 97.480469 304.828125 97.039062 304.914062 96.578125 305.085938 C 96.117188 305.261719 95.6875 305.480469 95.289062 305.75 L 95.070312 305.75 L 95.070312 303.488281 C 95.394531 303.347656 95.871094 303.203125 96.503906 303.066406 C 97.132812 302.921875 97.765625 302.851562 98.398438 302.851562 C 99.675781 302.851562 100.648438 303.121094 101.316406 303.65625 C 101.988281 304.195312 102.324219 304.953125 102.324219 305.933594 C 102.324219 306.578125 102.160156 307.1875 101.84375 307.769531 C 101.519531 308.347656 101.027344 308.945312 100.367188 309.5625 C 99.953125 309.945312 99.535156 310.296875 99.117188 310.621094 C 98.699219 310.941406 98.398438 311.164062 98.222656 311.292969 L 102.796875 311.292969 Z M 112.542969 305.082031 L 107.941406 313.242188 L 105.011719 313.242188 L 109.785156 305.007812 L 104.5625 305.007812 L 104.5625 303.0625 L 112.542969 303.0625 Z M 121.808594 302.601562 L 116.390625 315.453125 L 114.292969 315.453125 L 119.695312 302.601562 Z M 131.714844 313.242188 L 124.925781 313.242188 L 124.925781 311.460938 L 127.066406 311.460938 L 127.066406 306.085938 L 124.925781 306.085938 L 124.925781 304.421875 C 125.25 304.421875 125.566406 304.402344 125.867188 304.363281 C 126.167969 304.324219 126.417969 304.257812 126.617188 304.160156 C 126.855469 304.046875 127.03125 303.898438 127.148438 303.71875 C 127.269531 303.535156 127.335938 303.308594 127.355469 303.035156 L 129.613281 303.035156 L 129.613281 311.460938 L 131.714844 311.460938 Z M 131.714844 313.242188 "/>
<path style=" stroke:none;fill-rule:nonzero;fill:rgb(10.195923%,10.195923%,9.411621%);fill-opacity:1;" d="M 132.425781 117.765625 L 130.75 117.230469 L 134.175781 106.558594 C 133.648438 106.816406 132.996094 107.03125 132.21875 107.203125 C 131.441406 107.378906 130.757812 107.476562 130.175781 107.5 L 130.695312 105.882812 C 131.773438 105.746094 132.761719 105.476562 133.664062 105.070312 C 134.566406 104.671875 135.261719 104.226562 135.742188 103.730469 L 136.820312 104.074219 Z M 148.742188 111.640625 L 147.042969 111.242188 C 147.105469 110.539062 147.046875 109.988281 146.867188 109.601562 C 146.566406 108.976562 146.082031 108.558594 145.414062 108.347656 C 144.878906 108.171875 144.351562 108.171875 143.847656 108.335938 C 143.199219 108.550781 142.605469 108.976562 142.0625 109.617188 C 141.519531 110.257812 141.023438 111.257812 140.574219 112.613281 C 141.175781 112.132812 141.816406 111.832031 142.496094 111.726562 C 143.175781 111.613281 143.832031 111.660156 144.472656 111.867188 C 145.589844 112.226562 146.410156 112.945312 146.933594 114.019531 C 147.453125 115.09375 147.507812 116.277344 147.085938 117.582031 C 146.8125 118.441406 146.375 119.175781 145.769531 119.792969 C 145.160156 120.410156 144.476562 120.808594 143.703125 120.992188 C 142.933594 121.175781 142.136719 121.136719 141.320312 120.875 C 139.925781 120.425781 138.949219 119.546875 138.398438 118.238281 C 137.847656 116.929688 137.949219 115.097656 138.707031 112.742188 C 139.550781 110.109375 140.65625 108.347656 142.015625 107.464844 C 143.199219 106.695312 144.511719 106.542969 145.957031 107.007812 C 147.027344 107.351562 147.8125 107.9375 148.308594 108.757812 C 148.800781 109.578125 148.945312 110.539062 148.742188 111.640625 Z M 139.996094 115.324219 C 139.8125 115.902344 139.757812 116.496094 139.835938 117.097656 C 139.910156 117.703125 140.125 118.214844 140.46875 118.628906 C 140.820312 119.046875 141.238281 119.335938 141.730469 119.492188 C 142.445312 119.722656 143.144531 119.632812 143.832031 119.222656 C 144.519531 118.816406 145.023438 118.121094 145.339844 117.140625 C 145.640625 116.199219 145.628906 115.375 145.304688 114.671875 C 144.980469 113.96875 144.433594 113.492188 143.664062 113.246094 C 142.90625 113.003906 142.175781 113.070312 141.472656 113.441406 C 140.773438 113.816406 140.28125 114.441406 139.996094 115.324219 Z M 148.472656 118.96875 L 150.269531 119.398438 C 150.125 120.292969 150.21875 121.03125 150.550781 121.613281 C 150.882812 122.195312 151.386719 122.59375 152.0625 122.8125 C 152.878906 123.074219 153.660156 122.988281 154.410156 122.558594 C 155.15625 122.128906 155.691406 121.410156 156.015625 120.40625 C 156.320312 119.453125 156.300781 118.613281 155.945312 117.890625 C 155.59375 117.171875 154.980469 116.667969 154.109375 116.386719 C 153.566406 116.214844 153.039062 116.183594 152.53125 116.292969 C 152.019531 116.402344 151.582031 116.613281 151.207031 116.929688 L 149.699219 116.191406 L 153.265625 109.605469 L 160.023438 111.777344 L 159.511719 113.375 L 154.085938 111.632812 L 152.179688 115.078125 C 153.179688 114.765625 154.128906 114.757812 155.023438 115.042969 C 156.210938 115.425781 157.082031 116.160156 157.632812 117.246094 C 158.183594 118.332031 158.25 119.523438 157.835938 120.820312 C 157.4375 122.054688 156.738281 123.003906 155.734375 123.671875 C 154.503906 124.5 153.132812 124.667969 151.625 124.183594 C 150.386719 123.785156 149.488281 123.113281 148.929688 122.164062 C 148.367188 121.21875 148.214844 120.152344 148.472656 118.96875 Z M 159.019531 121.789062 L 159.558594 120.113281 L 164.738281 121.773438 L 164.199219 123.449219 Z M 170.539062 130.003906 L 168.863281 129.464844 L 172.289062 118.792969 C 171.761719 119.050781 171.109375 119.265625 170.332031 119.441406 C 169.554688 119.613281 168.871094 119.714844 168.289062 119.738281 L 168.808594 118.117188 C 169.886719 117.980469 170.878906 117.710938 171.78125 117.308594 C 172.683594 116.90625 173.375 116.460938 173.855469 115.964844 L 174.9375 116.3125 Z M 178.75 119.550781 L 179.265625 117.953125 L 188.082031 120.78125 L 187.664062 122.078125 C 186.503906 122.722656 185.246094 123.675781 183.902344 124.933594 C 182.554688 126.191406 181.394531 127.558594 180.40625 129.03125 C 179.707031 130.0625 179.089844 131.25 178.5625 132.578125 L 176.847656 132.027344 C 177.210938 130.960938 177.835938 129.730469 178.726562 128.339844 C 179.621094 126.945312 180.664062 125.664062 181.871094 124.492188 C 183.078125 123.320312 184.257812 122.386719 185.417969 121.691406 Z M 186.585938 131.203125 L 188.382812 131.632812 C 188.238281 132.53125 188.335938 133.265625 188.664062 133.851562 C 188.996094 134.429688 189.503906 134.828125 190.179688 135.046875 C 190.996094 135.308594 191.773438 135.222656 192.523438 134.792969 C 193.273438 134.363281 193.808594 133.644531 194.128906 132.640625 C 194.4375 131.6875 194.414062 130.851562 194.0625 130.128906 C 193.707031 129.40625 193.097656 128.902344 192.222656 128.625 C 191.679688 128.449219 191.15625 128.417969 190.644531 128.527344 C 190.136719 128.636719 189.695312 128.847656 189.324219 129.164062 L 187.816406 128.425781 L 191.378906 121.839844 L 198.140625 124.011719 L 197.625 125.609375 L 192.203125 123.871094 L 190.292969 127.316406 C 191.292969 127.003906 192.242188 126.992188 193.136719 127.28125 C 194.324219 127.660156 195.195312 128.394531 195.746094 129.480469 C 196.296875 130.570312 196.367188 131.761719 195.949219 133.054688 C 195.554688 134.289062 194.851562 135.242188 193.847656 135.910156 C 192.621094 136.734375 191.25 136.902344 189.738281 136.417969 C 188.5 136.019531 187.605469 135.347656 187.042969 134.402344 C 186.480469 133.453125 186.328125 132.390625 186.585938 131.203125 "/>
<path style=" stroke:none;fill-rule:nonzero;fill:rgb(10.195923%,10.195923%,9.411621%);fill-opacity:1;" d="M 202.898438 260.867188 C 202.167969 260.601562 201.628906 260.21875 201.273438 259.722656 C 200.925781 259.226562 200.746094 258.632812 200.746094 257.945312 C 200.746094 256.902344 201.121094 256.027344 201.867188 255.316406 C 202.617188 254.609375 203.609375 254.25 204.855469 254.25 C 206.101562 254.25 207.109375 254.613281 207.867188 255.339844 C 208.628906 256.066406 209.007812 256.949219 209.007812 257.996094 C 209.007812 258.65625 208.835938 259.238281 208.488281 259.726562 C 208.140625 260.222656 207.613281 260.601562 206.902344 260.867188 C 207.78125 261.15625 208.445312 261.613281 208.902344 262.253906 C 209.359375 262.890625 209.585938 263.652344 209.585938 264.539062 C 209.585938 265.761719 209.15625 266.789062 208.289062 267.621094 C 207.425781 268.453125 206.289062 268.871094 204.878906 268.871094 C 203.46875 268.871094 202.332031 268.453125 201.464844 267.617188 C 200.601562 266.78125 200.167969 265.738281 200.167969 264.488281 C 200.167969 263.558594 200.40625 262.777344 200.878906 262.152344 C 201.351562 261.519531 202.023438 261.09375 202.898438 260.867188 Z M 202.546875 257.882812 C 202.546875 258.5625 202.765625 259.113281 203.195312 259.542969 C 203.628906 259.972656 204.195312 260.191406 204.898438 260.191406 C 205.582031 260.191406 206.132812 259.976562 206.5625 259.550781 C 206.996094 259.125 207.207031 258.601562 207.207031 257.980469 C 207.207031 257.335938 206.988281 256.792969 206.542969 256.351562 C 206.105469 255.910156 205.546875 255.691406 204.878906 255.691406 C 204.199219 255.691406 203.644531 255.90625 203.203125 256.339844 C 202.769531 256.769531 202.546875 257.28125 202.546875 257.882812 Z M 201.96875 264.5 C 201.96875 265.003906 202.085938 265.488281 202.316406 265.957031 C 202.550781 266.425781 202.902344 266.789062 203.378906 267.042969 C 203.847656 267.300781 204.355469 267.429688 204.890625 267.429688 C 205.738281 267.429688 206.429688 267.160156 206.972656 266.621094 C 207.519531 266.082031 207.789062 265.394531 207.789062 264.5625 C 207.789062 263.714844 207.507812 263.015625 206.949219 262.460938 C 206.390625 261.90625 205.683594 261.632812 204.835938 261.632812 C 204 261.632812 203.316406 261.90625 202.777344 262.449219 C 202.238281 262.996094 201.96875 263.679688 201.96875 264.5 Z M 211.3125 264.871094 L 213.152344 264.730469 C 213.289062 265.628906 213.605469 266.300781 214.097656 266.753906 C 214.589844 267.203125 215.195312 267.429688 215.90625 267.429688 C 216.761719 267.429688 217.476562 267.109375 218.0625 266.472656 C 218.640625 265.835938 218.929688 264.988281 218.929688 263.933594 C 218.929688 262.929688 218.65625 262.140625 218.097656 261.5625 C 217.542969 260.980469 216.804688 260.691406 215.886719 260.691406 C 215.316406 260.691406 214.808594 260.820312 214.355469 261.082031 C 213.90625 261.339844 213.550781 261.679688 213.289062 262.089844 L 211.632812 261.851562 L 213.011719 254.492188 L 220.109375 254.492188 L 220.109375 256.171875 L 214.414062 256.171875 L 213.652344 260.035156 C 214.507812 259.429688 215.40625 259.132812 216.347656 259.132812 C 217.59375 259.132812 218.648438 259.566406 219.503906 260.429688 C 220.359375 261.296875 220.792969 262.410156 220.792969 263.769531 C 220.792969 265.066406 220.414062 266.1875 219.660156 267.132812 C 218.746094 268.292969 217.492188 268.871094 215.90625 268.871094 C 214.605469 268.871094 213.542969 268.503906 212.722656 267.773438 C 211.898438 267.042969 211.425781 266.078125 211.3125 264.871094 "/>
<path style=" stroke:none;fill-rule:nonzero;fill:rgb(10.195923%,10.195923%,9.411621%);fill-opacity:1;" d="M 233.769531 270.96875 L 232.011719 270.96875 L 232.011719 259.761719 C 231.585938 260.167969 231.03125 260.570312 230.34375 260.972656 C 229.65625 261.378906 229.035156 261.679688 228.488281 261.878906 L 228.488281 260.179688 C 229.472656 259.722656 230.332031 259.160156 231.070312 258.5 C 231.808594 257.84375 232.332031 257.207031 232.636719 256.585938 L 233.769531 256.585938 Z M 238.292969 263.902344 C 238.292969 262.210938 238.46875 260.84375 238.8125 259.8125 C 239.164062 258.773438 239.679688 257.976562 240.367188 257.421875 C 241.050781 256.863281 241.914062 256.585938 242.953125 256.585938 C 243.71875 256.585938 244.394531 256.742188 244.976562 257.050781 C 245.558594 257.359375 246.035156 257.808594 246.410156 258.390625 C 246.785156 258.96875 247.078125 259.679688 247.289062 260.515625 C 247.507812 261.355469 247.613281 262.484375 247.613281 263.902344 C 247.613281 265.582031 247.441406 266.941406 247.097656 267.972656 C 246.753906 269.011719 246.238281 269.808594 245.550781 270.367188 C 244.867188 270.925781 244 271.207031 242.953125 271.207031 C 241.578125 271.207031 240.492188 270.71875 239.707031 269.734375 C 238.761719 268.535156 238.292969 266.589844 238.292969 263.902344 Z M 240.09375 263.90625 C 240.09375 266.265625 240.367188 267.832031 240.917969 268.605469 C 241.464844 269.382812 242.148438 269.769531 242.953125 269.769531 C 243.761719 269.769531 244.441406 269.378906 244.988281 268.601562 C 245.539062 267.820312 245.8125 266.257812 245.8125 263.90625 C 245.8125 261.550781 245.539062 259.984375 244.988281 259.210938 C 244.445312 258.433594 243.757812 258.046875 242.933594 258.046875 C 242.125 258.046875 241.480469 258.390625 240.996094 259.074219 C 240.394531 259.945312 240.09375 261.558594 240.09375 263.90625 Z M 249.417969 267.207031 L 251.257812 267.066406 C 251.394531 267.964844 251.710938 268.636719 252.203125 269.089844 C 252.695312 269.539062 253.300781 269.769531 254.011719 269.769531 C 254.867188 269.769531 255.582031 269.449219 256.167969 268.8125 C 256.746094 268.171875 257.035156 267.324219 257.035156 266.269531 C 257.035156 265.269531 256.761719 264.476562 256.203125 263.898438 C 255.648438 263.316406 254.910156 263.027344 253.992188 263.027344 C 253.421875 263.027344 252.914062 263.15625 252.460938 263.417969 C 252.011719 263.675781 251.65625 264.015625 251.398438 264.425781 L 249.738281 264.1875 L 251.117188 256.828125 L 258.21875 256.828125 L 258.21875 258.507812 L 252.519531 258.507812 L 251.757812 262.371094 C 252.613281 261.765625 253.515625 261.46875 254.453125 261.46875 C 255.699219 261.46875 256.753906 261.902344 257.609375 262.765625 C 258.46875 263.632812 258.898438 264.746094 258.898438 266.109375 C 258.898438 267.402344 258.519531 268.523438 257.765625 269.46875 C 256.851562 270.628906 255.597656 271.207031 254.011719 271.207031 C 252.710938 271.207031 251.648438 270.839844 250.828125 270.109375 C 250.003906 269.382812 249.535156 268.414062 249.417969 267.207031 "/>
<path style=" stroke:none;fill-rule:nonzero;fill:rgb(10.195923%,10.195923%,9.411621%);fill-opacity:1;" d="M 47.136719 259.148438 L 47.136719 255.046875 L 39.671875 255.046875 L 39.671875 253.101562 L 47.519531 241.964844 L 49.25 241.964844 L 49.25 253.101562 L 51.578125 253.101562 L 51.578125 255.046875 L 49.25 255.046875 L 49.25 259.148438 Z M 47.136719 253.101562 L 47.136719 245.371094 L 41.75 253.101562 Z M 53.742188 254.636719 L 55.949219 254.46875 C 56.113281 255.546875 56.492188 256.351562 57.085938 256.898438 C 57.675781 257.4375 58.402344 257.710938 59.253906 257.710938 C 60.28125 257.710938 61.140625 257.324219 61.839844 256.5625 C 62.535156 255.792969 62.886719 254.777344 62.886719 253.511719 C 62.886719 252.308594 62.554688 251.363281 61.886719 250.664062 C 61.21875 249.96875 60.332031 249.621094 59.234375 249.621094 C 58.550781 249.621094 57.9375 249.777344 57.394531 250.089844 C 56.851562 250.402344 56.429688 250.804688 56.117188 251.300781 L 54.125 251.011719 L 55.78125 242.179688 L 64.300781 242.179688 L 64.300781 244.199219 L 57.464844 244.199219 L 56.550781 248.832031 C 57.578125 248.109375 58.65625 247.75 59.785156 247.75 C 61.28125 247.75 62.546875 248.269531 63.574219 249.308594 C 64.601562 250.347656 65.117188 251.6875 65.117188 253.316406 C 65.117188 254.875 64.664062 256.21875 63.761719 257.347656 C 62.660156 258.742188 61.15625 259.4375 59.253906 259.4375 C 57.691406 259.4375 56.421875 258.996094 55.433594 258.121094 C 54.445312 257.246094 53.882812 256.085938 53.742188 254.636719 "/>
<path style=" stroke:none;fill-rule:nonzero;fill:rgb(10.195923%,10.195923%,9.411621%);fill-opacity:1;" d="M 194.226562 299.34375 L 196.339844 299.058594 C 196.582031 300.257812 196.992188 301.121094 197.570312 301.648438 C 198.152344 302.179688 198.863281 302.441406 199.707031 302.441406 C 200.707031 302.441406 201.550781 302.097656 202.230469 301.410156 C 202.910156 300.722656 203.25 299.871094 203.25 298.855469 C 203.25 297.886719 202.933594 297.085938 202.300781 296.453125 C 201.667969 295.824219 200.863281 295.511719 199.882812 295.511719 C 199.484375 295.511719 198.988281 295.589844 198.390625 295.746094 L 198.628906 293.898438 C 198.765625 293.914062 198.882812 293.921875 198.96875 293.921875 C 199.871094 293.921875 200.679688 293.6875 201.402344 293.21875 C 202.121094 292.75 202.484375 292.03125 202.484375 291.058594 C 202.484375 290.285156 202.21875 289.644531 201.695312 289.136719 C 201.171875 288.628906 200.496094 288.378906 199.667969 288.378906 C 198.84375 288.378906 198.160156 288.636719 197.609375 289.15625 C 197.0625 289.679688 196.710938 290.457031 196.554688 291.496094 L 194.441406 291.113281 C 194.703125 289.699219 195.285156 288.597656 196.203125 287.816406 C 197.113281 287.039062 198.253906 286.648438 199.613281 286.648438 C 200.550781 286.648438 201.414062 286.851562 202.203125 287.253906 C 202.996094 287.652344 203.597656 288.203125 204.015625 288.894531 C 204.433594 289.589844 204.644531 290.324219 204.644531 291.105469 C 204.644531 291.847656 204.441406 292.519531 204.046875 293.125 C 203.648438 293.734375 203.054688 294.21875 202.273438 294.578125 C 203.292969 294.808594 204.078125 295.296875 204.644531 296.039062 C 205.203125 296.773438 205.484375 297.703125 205.484375 298.808594 C 205.484375 300.308594 204.933594 301.585938 203.84375 302.628906 C 202.746094 303.675781 201.363281 304.195312 199.691406 304.195312 C 198.183594 304.195312 196.929688 303.742188 195.933594 302.839844 C 194.933594 301.941406 194.367188 300.777344 194.226562 299.34375 Z M 210.828125 294.589844 C 209.949219 294.269531 209.304688 293.808594 208.878906 293.21875 C 208.460938 292.621094 208.246094 291.910156 208.246094 291.082031 C 208.246094 289.828125 208.695312 288.78125 209.589844 287.929688 C 210.492188 287.078125 211.683594 286.648438 213.175781 286.648438 C 214.671875 286.648438 215.878906 287.085938 216.792969 287.957031 C 217.703125 288.828125 218.160156 289.890625 218.160156 291.140625 C 218.160156 291.9375 217.949219 292.632812 217.535156 293.222656 C 217.117188 293.8125 216.488281 294.269531 215.636719 294.589844 C 216.6875 294.933594 217.484375 295.484375 218.03125 296.253906 C 218.578125 297.019531 218.855469 297.929688 218.855469 298.992188 C 218.855469 300.460938 218.335938 301.695312 217.300781 302.695312 C 216.257812 303.695312 214.894531 304.195312 213.203125 304.195312 C 211.511719 304.195312 210.148438 303.695312 209.105469 302.691406 C 208.070312 301.6875 207.550781 300.433594 207.550781 298.933594 C 207.550781 297.816406 207.835938 296.882812 208.402344 296.128906 C 208.972656 295.375 209.777344 294.863281 210.828125 294.589844 Z M 210.40625 291.003906 C 210.40625 291.820312 210.667969 292.484375 211.183594 293 C 211.703125 293.519531 212.382812 293.777344 213.226562 293.777344 C 214.046875 293.777344 214.710938 293.523438 215.226562 293.007812 C 215.742188 292.496094 216 291.871094 216 291.125 C 216 290.351562 215.734375 289.699219 215.203125 289.167969 C 214.675781 288.640625 214.007812 288.378906 213.203125 288.378906 C 212.390625 288.378906 211.722656 288.636719 211.195312 289.152344 C 210.671875 289.667969 210.40625 290.285156 210.40625 291.003906 Z M 209.710938 298.949219 C 209.710938 299.554688 209.851562 300.132812 210.132812 300.699219 C 210.410156 301.257812 210.835938 301.695312 211.402344 302 C 211.96875 302.308594 212.574219 302.464844 213.21875 302.464844 C 214.234375 302.464844 215.066406 302.140625 215.71875 301.492188 C 216.371094 300.847656 216.695312 300.023438 216.695312 299.023438 C 216.695312 298.003906 216.359375 297.164062 215.691406 296.5 C 215.019531 295.835938 214.171875 295.507812 213.152344 295.507812 C 212.152344 295.507812 211.332031 295.832031 210.683594 296.488281 C 210.035156 297.144531 209.710938 297.964844 209.710938 298.949219 "/>
<path style=" stroke:none;fill-rule:nonzero;fill:rgb(10.195923%,10.195923%,9.411621%);fill-opacity:1;" d="M 160.875 310.878906 C 160.875 311.691406 160.28125 312.28125 159.097656 312.652344 C 158.292969 312.90625 157.363281 313.03125 156.308594 313.03125 L 149.898438 313.03125 L 149.898438 311.003906 L 156.308594 311.003906 C 157.988281 311.003906 158.828125 310.753906 158.828125 310.261719 L 158.828125 309.378906 C 158.828125 309.257812 158.65625 309.140625 158.3125 309.027344 C 158.011719 308.925781 157.78125 308.875 157.613281 308.875 L 151.089844 308.875 L 151.089844 306.84375 L 157.652344 306.84375 C 157.859375 306.84375 158.089844 306.808594 158.339844 306.730469 C 158.667969 306.640625 158.828125 306.507812 158.828125 306.339844 L 158.828125 305.277344 C 158.839844 304.902344 157.996094 304.714844 156.300781 304.714844 L 149.898438 304.714844 L 149.898438 302.6875 L 156.464844 302.6875 C 159.402344 302.6875 160.875 303.410156 160.875 304.863281 L 160.875 306.84375 C 160.875 307.226562 160.742188 307.558594 160.480469 307.847656 C 160.742188 308.140625 160.875 308.492188 160.875 308.910156 Z M 174.621094 310.386719 C 174.621094 311.292969 174.0625 311.988281 172.941406 312.472656 C 172.082031 312.84375 171.125 313.03125 170.070312 313.03125 L 161.867188 313.03125 L 161.867188 311.003906 L 170.058594 311.003906 C 170.609375 311.003906 171.101562 310.957031 171.53125 310.863281 C 172.226562 310.710938 172.578125 310.457031 172.578125 310.09375 L 172.578125 307.964844 L 166.425781 307.964844 C 165.382812 307.964844 164.464844 307.851562 163.671875 307.628906 C 162.46875 307.292969 161.867188 306.738281 161.867188 305.960938 L 161.867188 302.6875 L 174.621094 302.6875 L 174.621094 304.714844 L 163.910156 304.714844 L 163.910156 305.148438 C 163.910156 305.671875 164.757812 305.933594 166.441406 305.933594 L 174.621094 305.933594 Z M 174.621094 310.386719 "/>
</g>
</svg>
