<svg  width="48" height="56" viewBox="0 0 48 56" fill="none" xmlns="http://www.w3.org/2000/svg">
<path d="M14.9414 12.6451C14.2018 12.6685 13.0965 12.6685 12.1392 12.6063C11.1817 12.544 10.3722 12.4195 9.60157 12.3028C8.83107 12.1859 8.09937 12.0769 7.40667 12.0692C6.71387 12.0614 6.05997 12.1548 5.34387 12.4274C4.62787 12.6997 3.84937 13.1511 3.24227 13.6026C2.63517 14.054 2.19927 14.5055 1.84117 15.0582C1.48317 15.6109 1.20297 16.2646 1.01607 16.903C0.829372 17.5412 0.735972 18.1639 0.728072 18.6309C0.720272 19.098 0.798173 19.4093 0.953873 19.674C1.10947 19.9386 1.34307 20.1565 1.69327 20.4445C2.04357 20.7325 2.51057 21.0907 3.09447 21.3865C3.67817 21.6821 4.37867 21.9158 5.07137 22.0715C5.76427 22.227 6.44917 22.3049 7.19637 22.2972C7.94367 22.2893 8.75317 22.1958 9.39927 22.0636C10.0454 21.9313 10.5279 21.76 11.065 21.511C11.6021 21.2618 12.1937 20.935 12.5984 20.6392C13.0031 20.3434 13.2211 20.0787 13.3456 19.7906C13.4702 19.5026 13.5014 19.1915 13.548 18.8101C13.5947 18.4285 13.6569 17.977 13.7582 17.5723C13.8593 17.1675 13.9994 16.8095 14.2097 16.4905C14.4198 16.1712 14.7 15.8911 15.1749 15.5798C15.6497 15.2683 16.3191 14.9259 18.5686 14.1008C20.8181 13.2758 24.6477 11.9681 27.5356 10.9017C30.4233 9.83521 32.3692 9.01021 33.9805 8.32541C35.5917 7.64031 36.8683 7.09541 37.9268 6.59741C38.9854 6.09911 39.8261 5.64771 40.3632 5.13391C40.9002 4.62021 41.1338 4.04421 41.196 3.45261C41.2583 2.86111 41.1494 2.25391 40.8847 1.74791C40.62 1.24191 40.1997 0.837305 39.7639 0.572705C39.328 0.307905 38.8765 0.183505 38.4328 0.175705C37.9891 0.167705 37.5533 0.276805 37.1874 0.440305C36.8216 0.603805 36.5258 0.821605 36.2845 1.07861C36.0432 1.33531 35.8563 1.63121 35.7085 2.02051C35.5606 2.40961 35.4516 2.89221 35.3349 3.32821C35.2181 3.76401 35.0936 4.15321 34.9146 4.53451C34.7356 4.91591 34.5019 5.28951 34.2762 5.60101C34.0505 5.91231 33.8326 6.16131 32.6105 6.79961C31.3885 7.43791 29.1623 8.46531 27.6056 9.13481C26.0488 9.80411 25.1614 10.1155 24.2274 10.4346C23.2933 10.7538 22.3126 11.0807 21.3085 11.3765C20.3044 11.6722 19.2768 11.9369 18.4597 12.1237C17.6423 12.3105 17.0351 12.4195 16.5448 12.4974C16.0544 12.5752 15.6808 12.6219 14.9414 12.6451Z" stroke="#fff" stroke-width="0.3501"/>
<path d="M35.335 3.32842C35.5396 2.72562 35.7444 2.12312 36.0531 1.64182C36.3618 1.16042 36.7747 0.800619 37.1797 0.673719C37.5845 0.546819 37.9814 0.653219 38.3667 0.815519C38.752 0.977619 39.1256 1.19552 39.4448 1.42912C39.7639 1.66252 40.0285 1.91172 40.1843 2.23072C40.3398 2.54982 40.3866 2.93902 40.3866 3.35162C40.3866 3.76422 40.3398 4.20002 40.1342 4.63752C39.9286 5.07492 39.5639 5.51382 39.2146 5.81932C38.8652 6.12472 38.5312 6.29702 38.3642 6.38292C38.1972 6.46902 38.1972 6.46902 38.1972 6.46902" stroke="#fff" stroke-width="0.3501"/>
<path d="M33.9342 5.98242C33.5086 6.33532 33.083 6.68812 31.8661 7.34512C30.6491 8.00212 28.641 8.96352 26.5938 9.79652C24.5467 10.6293 22.4606 11.3337 20.861 11.8572C19.2615 12.3807 18.1485 12.7231 17.2339 13.017C16.3192 13.3109 15.6031 13.5559 14.7917 13.7097C13.9802 13.8635 13.0734 13.9258 11.6587 13.9783C10.244 14.0307 8.32144 14.0736 7.14414 14.1203C5.96684 14.167 5.53484 14.2177 5.15344 14.3051C4.77194 14.3926 4.44114 14.5172 4.16094 14.671C3.88074 14.8248 3.65114 15.0076 3.48374 15.2352C3.31654 15.463 3.21134 15.7353 3.17444 15.9631C3.13744 16.1909 3.16864 16.3737 3.25804 16.578C3.34754 16.7823 3.49544 17.0082 3.68414 17.2065C3.87294 17.4051 4.10264 17.5763 4.40424 17.6892C4.70584 17.8021 5.07944 17.8566 5.46674 17.8721C5.85394 17.8877 6.25484 17.8644 6.72194 17.7592C7.18894 17.6541 7.72204 17.4674 8.32144 17.1969C8.92084 16.9264 9.58634 16.5722 10.2323 16.2647C10.8784 15.9573 11.5049 15.6966 12.0984 15.4922C12.6919 15.2878 13.2524 15.1401 13.9355 14.9668C14.6185 14.7937 15.4241 14.5952 16.6189 14.2526C17.8137 13.91 19.3977 13.4237 21.0187 12.8962C22.6396 12.369 24.2975 11.8007 25.9886 11.2053C27.6796 10.6099 29.4038 9.98702 30.5013 9.59202C31.5988 9.19712 32.0697 9.02962 32.3052 8.94612C32.5406 8.86242 32.5406 8.86242 32.5406 8.86242" stroke="#fff" stroke-width="0.3501"/>
<path d="M7.37891 21.9861C7.44901 21.3711 7.51911 20.7563 7.70991 20.0985C7.90061 19.4407 8.21191 18.7402 8.65551 18.1837C9.09921 17.6271 9.67521 17.2145 10.4146 16.8137C11.1542 16.4128 12.057 16.0237 12.8627 15.7514C13.6683 15.4788 14.3766 15.3231 14.7308 15.2454C15.0849 15.1675 15.0849 15.1675 15.0849 15.1675" stroke="#fff" stroke-width="0.3501"/>
<path d="M13.2694 17.5824C13.1585 17.6193 12.995 17.7477 12.8686 17.9365C12.7421 18.1253 12.6525 18.3744 12.6234 18.5845C12.5941 18.7947 12.6253 18.9659 12.6856 19.0614C12.7459 19.1566 12.8355 19.1762 12.9445 19.1197C13.0535 19.0632 13.1819 18.9308 13.2772 18.7519C13.3726 18.5728 13.4348 18.3472 13.466 18.1564C13.4971 17.9657 13.4971 17.8101 13.4679 17.7049C13.4388 17.5998 13.3803 17.5455 13.2694 17.5824Z" stroke="#fff" stroke-width="0.3501"/>
<path d="M26.8206 33.5891C27.4927 33.3502 28.4001 33.1383 29.082 32.9587C29.8836 32.7479 30.6155 32.6088 31.3052 32.5099C31.9947 32.4112 32.6417 32.3525 33.4294 32.3415C34.2169 32.3305 35.1451 32.3671 35.925 32.4369C36.7046 32.5066 37.3358 32.6098 37.6632 32.7298C37.9904 32.8499 38.014 32.9868 38.0307 33.1511C38.0476 33.3151 38.0576 33.5064 38.1045 33.6232C38.1512 33.7401 38.2348 33.7824 38.3772 33.8645C38.5197 33.9465 38.7212 34.0682 38.9129 34.1596C39.1045 34.251 39.2866 34.3121 39.7508 34.3305C40.2149 34.3486 40.9612 34.324 41.6441 34.2525C42.3269 34.1808 42.9463 34.062 43.4954 33.9195C44.0445 33.7768 44.5232 33.6105 45.0553 33.3766C45.5874 33.1427 46.1728 32.8414 46.5457 32.5953C46.9188 32.349 47.0793 32.1581 47.1581 32.036C47.237 31.9136 47.2341 31.8601 47.1641 31.3034C47.0941 30.7466 46.9568 29.6866 46.8323 29.1016C46.7081 28.5165 46.5966 28.4064 46.3791 28.2892C46.1617 28.1722 45.8382 28.0481 45.0578 27.8097C44.2772 27.5711 43.0396 27.2181 41.9 26.9492C40.7604 26.6803 39.7186 26.4951 38.7743 26.3864C37.8301 26.2778 36.9831 26.2452 36.086 26.2573C35.1887 26.2691 34.2409 26.3254 33.3361 26.4259C32.4313 26.5264 31.5695 26.671 30.7987 26.8461C30.0788 27.0095 29.0297 27.0566 26.3037 28.1097" stroke="#fff" stroke-width="0.3501"/>
<path d="M46.6698 32.4614C46.7909 33.0117 46.912 33.5619 46.9627 33.8862C47.0133 34.2104 46.9937 34.3089 46.8675 34.4735C46.7413 34.638 46.5085 34.8686 46.1543 35.109C45.8001 35.3495 45.3245 35.5998 44.7374 35.8149C44.1503 36.0299 43.4519 36.2098 42.9254 36.3324C42.3989 36.4553 42.0445 36.521 41.5985 36.5422C41.1524 36.5636 40.615 36.5406 40.2176 36.4743C39.8202 36.408 39.5631 36.2984 39.4316 36.1827C39.3001 36.0672 39.2943 35.9455 39.2285 35.6182C39.1627 35.2908 39.0369 34.7577 38.9111 34.2247" stroke="#fff" stroke-width="0.3501"/>
<path d="M42.0056 36.5078C41.9323 36.1832 41.8591 35.8583 41.8338 35.6792C41.8085 35.5001 41.8313 35.4664 42.3409 35.3323C42.8506 35.1983 43.8472 34.9636 44.3546 34.8662C44.8619 34.7687 44.8801 34.8084 44.9162 34.9684C44.9523 35.1283 45.0064 35.4083 45.0606 35.6884" stroke="#fff" stroke-width="0.3501"/>
<path d="M46.4025 28.3018C45.676 28.6421 44.9599 28.9867 44.3561 29.3741C43.6896 29.8021 43.16 30.2826 42.8311 30.7982C42.5022 31.3137 42.3743 31.8645 42.3666 32.385C42.359 32.9056 42.4719 33.3958 42.5268 33.6893C42.5817 33.9826 42.5786 34.079 42.5755 34.1754" stroke="#fff" stroke-width="0.3501"/>
<path d="M43.7961 29.4143C42.8995 29.5305 42.0029 29.6466 40.8928 29.6307C39.7826 29.6147 38.4589 29.4668 37.196 29.3159C35.9331 29.1653 34.7311 29.0114 33.7755 28.9109C32.8197 28.8103 32.1102 28.763 31.171 28.8365C30.2318 28.9099 29.0627 29.1042 27.7181 29.4529C27.432 29.5273 26.992 29.6042 26.6699 29.7016" stroke="#fff" stroke-width="0.3501"/>
<path d="M1.12695 19.5918C1.36455 19.9981 1.72295 20.4329 2.19735 20.807C2.67155 21.181 3.26175 21.494 3.98425 21.7386C4.70695 21.9831 5.56175 22.1592 6.44525 22.2145C7.32865 22.2696 8.24075 22.204 9.02505 22.0771C9.80925 21.9501 10.4658 21.7617 11.0341 21.5379C11.6024 21.3141 12.0825 21.0547 12.4922 20.7198C12.5768 20.6506 12.6583 20.5782 12.7363 20.504" stroke="#fff" stroke-width="0.3501"/>
<path d="M1.12689 19.5918C1.11839 20.2982 1.10999 21.0045 1.10449 24.1846C1.09909 27.3644 1.09659 33.0179 1.09309 35.9097C1.08959 38.8014 1.08509 38.9311 1.19909 39.1545C1.31309 39.3777 1.54579 39.6945 1.97429 39.9856C2.40269 40.2768 3.02709 40.5423 3.66929 40.7598C4.31149 40.977 4.97179 41.1463 5.65939 41.2273C6.34699 41.3081 7.06209 41.3005 7.75519 41.2273C8.44809 41.1541 9.11899 41.015 9.74409 40.7932C10.3692 40.5712 10.9485 40.2666 11.3643 39.9887C11.7802 39.7107 12.0327 39.4597 12.1945 39.2461C12.3562 39.0324 12.4274 38.8561 12.4566 38.719C12.4856 38.5819 12.4729 38.4841 12.4665 38.4351C12.46 38.3861 12.46 38.3861 12.46 38.3861" stroke="#fff" stroke-width="0.3501"/>
<path d="M12.736 20.5039C12.6772 24.5813 12.6185 28.6585 12.5596 32.7359" stroke="#fff" stroke-width="0.3501"/>
<path d="M1.11035 21.8882C1.64435 22.2705 2.17835 22.6524 2.75875 22.9437C3.33915 23.2352 3.96565 23.4357 4.69095 23.5993C5.41645 23.7626 6.24055 23.8888 7.01965 23.908C7.79885 23.9271 8.53295 23.839 9.21235 23.6921C9.89165 23.5452 10.5161 23.3395 10.9953 23.1127C11.4743 22.8856 11.8079 22.6374 12.0704 22.4352C12.333 22.2332 12.5244 22.0773 12.7159 21.9213" stroke="#fff" stroke-width="0.3501"/>
<path d="M1.09766 30.7739C1.29216 31.0576 1.48686 31.3414 1.79806 31.637C2.10926 31.9325 2.53726 32.2399 3.03236 32.4847C3.52746 32.7295 4.08966 32.9116 4.70236 33.0468C5.31486 33.1817 5.97786 33.2698 6.65186 33.2773C7.32586 33.2844 8.01076 33.211 8.67336 33.0798C9.33576 32.9485 9.97596 32.7597 10.5122 32.5265C11.0483 32.2935 11.4803 32.016 11.8089 31.7269C12.1374 31.4376 12.3624 31.1364 12.5874 30.8353" stroke="#fff" stroke-width="0.3501"/>
<path d="M13.3497 38.0272C13.3477 38.5471 13.3459 39.0669 13.292 39.4468C13.238 39.8266 13.1322 40.0667 12.7947 40.4285C12.4571 40.7905 11.8878 41.2742 11.2166 41.6568C10.5452 42.0395 9.77176 42.3213 8.96986 42.4883C8.16796 42.6552 7.33756 42.7074 6.49416 42.6698C5.65066 42.6321 4.79406 42.5049 4.13306 42.3599C3.47196 42.215 3.00666 42.0524 2.57496 41.8505C2.14336 41.6487 1.74566 41.4073 1.39896 41.1028C1.05206 40.7983 0.756259 40.4305 0.549659 40.0659C0.343059 39.7012 0.22576 39.3398 0.18846 39.0136C0.15106 38.6874 0.193759 38.3963 0.276659 38.115C0.359659 37.8336 0.482859 37.5617 0.625459 37.3548C0.767959 37.1478 0.929859 37.0058 1.09176 36.8638" stroke="#fff" stroke-width="0.3501"/>
<path d="M7.29492 39.7409C7.56042 39.8151 7.82582 39.8893 8.31592 39.8151C8.80582 39.7409 9.52032 39.518 10.078 39.306C10.6359 39.094 11.0368 38.8927 11.8107 38.5968C12.5846 38.3011 13.7314 37.9106 14.3048 37.7154C14.8782 37.52 14.8782 37.52 14.8782 37.52" stroke="#fff" stroke-width="0.3501"/>
<path d="M13.0547 38.1461C13.0069 38.341 12.9591 38.536 12.7986 38.8216C12.6382 39.1072 12.3651 39.4835 12.0493 39.8035C11.7336 40.1235 11.375 40.3871 10.8731 40.6296C10.3712 40.8718 9.72574 41.0931 9.08494 41.2434C8.44404 41.3935 7.80774 41.4729 7.19754 41.4982C6.58744 41.5236 6.00354 41.4952 5.35714 41.3994C4.71064 41.3037 4.00134 41.141 3.43304 40.9586C2.86474 40.7762 2.43724 40.5745 2.05804 40.3278C1.67874 40.081 1.34764 39.7891 1.10824 39.4945C0.868744 39.1997 0.720744 38.9022 0.622444 38.6368C0.524044 38.3713 0.475344 38.1381 0.460444 37.97C0.445544 37.8018 0.464444 37.6984 0.483344 37.5952" stroke="#fff" stroke-width="0.3501"/>
<path d="M22.9295 29.2236C19.4729 30.3942 16.0162 31.5653 14.0488 32.195C12.0814 32.8248 11.6031 32.9138 11.228 33.0144C10.8529 33.1151 10.581 33.2273 10.1818 33.4937C9.78258 33.7599 9.25608 34.1803 8.77598 34.6672C8.29598 35.1541 7.86248 35.7076 7.52908 36.1833C7.19568 36.6589 6.96238 37.057 6.82858 37.4016C6.69468 37.7461 6.66018 38.0373 6.68928 38.3635C6.71848 38.6893 6.81158 39.05 6.92318 39.2853C7.03468 39.5208 7.16488 39.631 7.29488 39.741" stroke="#fff" stroke-width="0.3501"/>
<path d="M14.8779 37.52C19.2329 36.0872 23.5879 34.6545 27.2055 33.4619M29.0102 27.2163C27.8335 27.6041 26.7672 27.9562 25.9328 28.2317C22.9293 29.2235 22.9292 29.2235 22.9292 29.2235" stroke="#fff" stroke-width="0.3501"/>
<path d="M26.6703 29.7012C23.8398 30.6842 20.8645 31.7375 18.4246 32.6159C13.9824 34.2153 11.3149 35.2351 9.75171 35.9197C8.18851 36.6044 7.72951 36.9539 7.27051 37.3034" stroke="#fff" stroke-width="0.3501"/>
<path d="M1.76055 41.4556C1.75325 43.6712 1.75325 45.723 1.79345 46.833C1.80445 47.1404 1.81875 47.3758 1.83845 47.5572M10.6139 48.4124C10.9381 48.2208 11.2215 48.0114 11.4111 47.818C11.6598 47.5645 11.7475 47.3376 11.7915 47.2243C11.8353 47.1109 11.8353 47.1109 11.8387 45.9732C11.8412 45.0696 11.8459 43.4489 11.8511 41.6801" stroke="#fff" stroke-width="0.3501"/>
<path d="M11.7887 47.2321C11.8143 47.2959 11.8272 47.3607 11.8267 47.4267C11.819 48.274 9.56578 48.9409 6.79398 48.9158C4.02228 48.8909 1.78138 48.1837 1.78908 47.3364C1.78938 47.2898 1.79668 47.244 1.81018 47.1987" stroke="#fff" stroke-width="0.3501"/>
<path d="M11.8223 43.2382C11.6704 44.0447 9.47621 44.6665 6.79801 44.6423C4.11981 44.6182 1.9371 43.9571 1.7998 43.1479" stroke="#fff" stroke-width="0.3501"/>
<path d="M11.7744 41.5032C11.6225 42.3097 9.42825 42.9315 6.75005 42.9075C4.07185 42.8834 1.88915 42.2223 1.75195 41.4131" stroke="#fff" stroke-width="0.3501"/>
<path d="M11.7675 42.2279C11.6157 43.0344 9.42142 43.6561 6.74322 43.632C4.06512 43.6078 1.88242 42.9468 1.74512 42.1377" stroke="#fff" stroke-width="0.3501"/>
<path d="M11.7607 42.9525C11.609 43.7589 9.41468 44.3805 6.73658 44.3564C4.05838 44.3324 1.87568 43.6712 1.73828 42.8623" stroke="#fff" stroke-width="0.3501"/>
<path d="M11.7549 43.6771C11.603 44.4837 9.40882 45.1054 6.73062 45.0814C4.05242 45.0573 1.86972 44.3961 1.73242 43.5869" stroke="#fff" stroke-width="0.3501"/>
<path d="M11.7481 44.4017C11.5962 45.2083 9.40199 45.83 6.72379 45.806C4.04559 45.7818 1.86289 45.1208 1.72559 44.3115" stroke="#fff" stroke-width="0.3501"/>
<path d="M11.7411 45.1262C11.5893 45.9327 9.39505 46.5543 6.71695 46.5302C4.03875 46.5062 1.85605 45.845 1.71875 45.0361" stroke="#fff" stroke-width="0.3501"/>
<path d="M11.7353 45.8508C11.5835 46.6572 9.38919 47.2789 6.71099 47.2549C4.03289 47.2308 1.85019 46.5697 1.71289 45.7607" stroke="#fff" stroke-width="0.3501"/>
<path d="M11.7286 46.5756C11.5768 47.3821 9.38246 48.004 6.70436 47.9799C4.02616 47.9557 1.84345 47.2947 1.70605 46.4854" stroke="#fff" stroke-width="0.3501"/>
<path d="M7.21703 49.3569C10.2166 49.3569 12.6481 50.4205 12.6481 51.7324C12.6481 53.0443 10.2166 54.1081 7.21703 54.1081C4.21763 54.1081 1.78613 53.0443 1.78613 51.7324C1.78613 50.4205 4.21763 49.3569 7.21703 49.3569Z" stroke="#fff" stroke-width="0.3501"/>
<path d="M7.21699 50.1235C9.24889 50.1235 10.896 50.8441 10.896 51.7328C10.896 52.6215 9.24889 53.342 7.21699 53.342C5.18519 53.342 3.53809 52.6215 3.53809 51.7328C3.53809 50.8441 5.18519 50.1235 7.21699 50.1235Z" stroke="#fff" stroke-width="0.3501"/>
<path d="M4.05048 52.5521C3.73308 52.3827 3.55078 52.185 3.55078 51.974C3.55078 51.3435 5.17468 50.8325 7.17798 50.8325C9.11098 50.8325 10.6906 51.3083 10.7994 51.9078" stroke="#fff" stroke-width="0.3501"/>
<path d="M11.6739 53.0906C11.7588 53.2132 11.8038 53.3412 11.8038 53.473C11.8038 54.3617 9.75532 55.0821 7.22862 55.0821C4.70172 55.0821 2.65332 54.3617 2.65332 53.473C2.65332 53.3447 2.69592 53.22 2.77622 53.1006M3.81422 52.4017C3.82742 52.3966 3.84082 52.3912 3.85422 52.3862" stroke="#fff" stroke-width="0.3501"/>
<path d="M2.4541 52.8745L2.7221 53.9084" stroke="#fff" stroke-width="0.3501"/>
<path d="M11.9379 52.9556L11.6699 53.9896" stroke="#fff" stroke-width="0.3501"/>
</svg>
