<svg width="41" height="48" viewBox="0 0 41 48" fill="none" xmlns="http://www.w3.org/2000/svg">
<path d="M0.765362 13.0508C0.739362 13.6426 0.713262 14.2346 0.722662 14.5678C0.732062 14.9011 0.776862 14.9758 0.937562 15.0955C1.09826 15.2151 1.37496 15.3795 1.64416 15.5142C1.91316 15.6487 2.17496 15.7533 2.49636 15.873C2.81776 15.9926 3.19896 16.1271 3.63256 16.2506C4.06616 16.3738 4.55206 16.4861 4.98576 16.557C5.41916 16.628 5.80066 16.658 6.12576 16.6803C6.45096 16.7027 6.72006 16.7177 7.09756 16.7252C7.47506 16.7327 7.96106 16.7327 8.59276 16.7104C9.22446 16.6879 10.002 16.643 10.7122 16.5271C11.4224 16.4113 12.0653 16.2243 12.5437 16.0412C13.0222 15.858 13.3361 15.6786 13.5454 15.5627C13.7548 15.4469 13.8595 15.3945 13.9118 15.3683C13.9641 15.3423 13.9641 15.3423 13.9631 15.0528C13.9626 14.9252 13.9619 14.7414 13.9612 14.5265" stroke="#101F52" stroke-width="0.5"/>
<path d="M0.756836 14.8646C0.778736 20.8623 0.800336 26.8602 0.796336 29.8592C0.792236 32.8579 0.762336 32.8579 0.792236 32.9702C0.822136 33.0822 0.911836 33.3065 1.18104 33.5383C1.45004 33.7701 1.89864 34.0092 2.39964 34.2185C2.90044 34.4278 3.45354 34.6072 4.18624 34.7418C4.91874 34.8764 5.83094 34.9661 6.82514 35.0035C7.81934 35.0409 8.89584 35.0259 9.85294 34.8989C10.8096 34.7717 11.6469 34.5324 12.3571 34.2709C13.0674 34.0092 13.6505 33.7252 13.9644 33.5683C14.2784 33.4111 14.3233 33.3813 14.3906 32.9851C14.4578 32.5888 14.5475 31.8264 14.6371 31.1909C14.7269 30.5554 14.8167 30.0471 14.9886 29.4715C15.1605 28.8958 15.4147 28.253 15.6838 27.767C15.953 27.281 16.237 26.9521 16.6407 26.6607C17.0444 26.369 17.5676 26.1149 20.0646 25.315C22.5614 24.515 27.0319 23.1694 29.8653 22.3994C32.6985 21.6294 33.8947 21.435 34.8591 21.2332C35.8235 21.0313 36.5561 20.822 37.2737 20.523C37.9914 20.2239 38.6942 19.8353 39.2175 19.4839C39.7408 19.1325 40.0846 18.8186 40.2417 18.5494C40.3986 18.2803 40.3687 18.056 40.2118 17.6299C40.0546 17.2037 39.7707 16.5759 39.3745 16.0226C38.9782 15.4693 38.4699 14.991 38.1109 14.7218C37.7521 14.4527 37.5429 14.3929 37.0121 14.4079C36.4813 14.4228 35.6291 14.5125 33.8125 14.7593C31.9959 15.006 29.2148 15.4096 27.174 15.7236C25.1332 16.0375 23.8323 16.2618 22.4794 16.4712C21.1261 16.6805 19.7207 16.8749 18.7713 16.9645C17.8219 17.0543 17.3285 17.0393 16.8426 16.9497C16.3566 16.8599 15.8782 16.6955 15.3995 16.3949C14.9209 16.0942 14.4421 15.6575 14.2027 15.439C13.9632 15.2206 13.9632 15.2206 13.9632 15.2206" stroke="#101F52" stroke-width="0.5"/>
<path d="M37.0117 14.4082C37.3781 14.5128 37.7442 14.6175 37.9324 14.7695C38.1206 14.9215 38.1305 15.1208 37.8888 15.3477C37.6471 15.5744 37.1538 15.8285 36.3314 16.0453C35.509 16.2621 34.3577 16.4415 30.9787 17.077C27.5996 17.7125 21.9929 18.8039 18.8458 19.3496C15.6984 19.8953 15.0105 19.8953 14.4798 19.9402C13.9491 19.9851 13.5753 20.0748 13.209 20.2617C12.8426 20.4486 12.4839 20.7326 12.125 21.0167" stroke="#101F52" stroke-width="0.5"/>
<path d="M39.7761 19.0659C40.0383 19.7759 40.3006 20.4859 40.4318 20.9081C40.5629 21.3304 40.5629 21.465 40.376 21.6593C40.1891 21.8537 39.8154 22.1079 39.3892 22.3545C38.963 22.6012 38.4846 22.8405 37.9987 23.0424C37.5126 23.2442 37.0193 23.4087 36.5933 23.5283C36.1671 23.6479 35.8083 23.7226 35.457 23.7675C35.1055 23.8124 34.7617 23.8273 34.5374 23.7824C34.3131 23.7375 34.2085 23.633 34.0456 23.2462C33.8828 22.8595 33.6615 22.1906 33.551 21.8562C33.4404 21.5218 33.4404 21.5218 33.4404 21.5218" stroke="#101F52" stroke-width="0.5"/>
<path d="M36.235 23.5057C36.1227 23.2441 36.0107 22.9824 35.9546 22.8516C35.8984 22.7207 35.8984 22.7207 35.8984 22.7207" stroke="#101F52" stroke-width="0.5"/>
<path d="M38.9988 22.5706C38.8771 22.2694 38.7555 21.9682 38.6338 21.667" stroke="#101F52" stroke-width="0.5"/>
<path d="M35.8984 22.721C36.8105 22.3697 37.7226 22.0183 38.6346 21.667" stroke="#101F52" stroke-width="0.5"/>
<path d="M7.75195 34.7872C7.88665 33.8751 8.02115 32.9631 8.36505 32.081C8.70905 31.1988 9.26215 30.3466 9.82285 29.6513C10.3836 28.9561 10.9517 28.4179 11.7292 27.9245C12.5067 27.431 13.4934 26.9826 15.0104 26.5257C16.5273 26.0688 18.5743 25.6034 20.6214 25.1382" stroke="#101F52" stroke-width="0.5"/>
<path d="M7.77629 41.1802C11.2375 41.1802 14.0435 42.3477 14.0435 43.7879C14.0435 45.2279 11.2375 46.3955 7.77629 46.3955C4.31479 46.3955 1.50879 45.2279 1.50879 43.7879C1.50879 42.3477 4.31479 41.1802 7.77629 41.1802Z" stroke="#101F52" stroke-width="0.5"/>
<path d="M7.77685 42.0215C10.1214 42.0215 12.0222 42.8125 12.0222 43.7881C12.0222 44.7635 10.1214 45.5544 7.77685 45.5544C5.43215 45.5544 3.53125 44.7635 3.53125 43.7881C3.53125 42.8125 5.43215 42.0215 7.77685 42.0215Z" stroke="#101F52" stroke-width="0.5"/>
<path d="M4.12152 44.6874C3.75522 44.5013 3.54492 44.2844 3.54492 44.0526C3.54492 43.3607 5.41882 42.7998 7.73072 42.7998C9.96132 42.7998 11.7842 43.322 11.9097 43.98" stroke="#101F52" stroke-width="0.5"/>
<path d="M12.9196 45.2782C13.0175 45.4127 13.0695 45.5534 13.0695 45.6978C13.0695 46.6734 10.7056 47.4644 7.78977 47.4644C4.87367 47.4644 2.50977 46.6734 2.50977 45.6978C2.50977 45.5572 2.55897 45.4202 2.65177 45.2891M3.84957 44.5221C3.86477 44.5162 3.88027 44.5105 3.89567 44.5049" stroke="#101F52" stroke-width="0.5"/>
<path d="M2.2793 45.0415L2.5887 46.1765" stroke="#101F52" stroke-width="0.5"/>
<path d="M13.2243 45.1304L12.915 46.2656" stroke="#101F52" stroke-width="0.5"/>
<path d="M5.56445 46.2285L5.71565 47.3233" stroke="#101F52" stroke-width="0.5"/>
<path d="M10.2743 46.2334L10.123 47.328" stroke="#101F52" stroke-width="0.5"/>
<path d="M2.63672 34.2905C2.64892 36.0327 2.66812 37.5565 2.70512 38.477C2.71852 38.8073 2.73412 39.0602 2.75462 39.2547M11.1774 40.0892C11.4866 39.8802 11.7567 39.6525 11.9367 39.4425C12.1677 39.1737 12.2515 38.9337 12.2936 38.8091" stroke="#101F52" stroke-width="0.5"/>
<path d="M12.2935 38.8091C12.3186 38.8773 12.3317 38.947 12.3317 39.0177C12.3317 39.9285 10.1766 40.6671 7.51838 40.6671C4.86008 40.6671 2.70508 39.9285 2.70508 39.0177C2.70508 38.9679 2.71168 38.9184 2.72428 38.8697" stroke="#101F52" stroke-width="0.5"/>
<path d="M12.2917 34.5161C12.1531 35.3845 10.0542 36.0739 7.48569 36.0739C4.91719 36.0739 2.81839 35.3845 2.67969 34.5161" stroke="#101F52" stroke-width="0.5"/>
<path d="M12.2301 34.21C12.0916 35.0781 9.99256 35.7675 7.42416 35.7675C4.85566 35.7675 2.75686 35.0781 2.61816 34.21" stroke="#101F52" stroke-width="0.5"/>
<path d="M12.2301 34.9888C12.0916 35.8571 9.99256 36.5465 7.42416 36.5465C4.85566 36.5465 2.75686 35.8571 2.61816 34.9888" stroke="#101F52" stroke-width="0.5"/>
<path d="M12.2301 35.7676C12.0916 36.6359 9.99256 37.3254 7.42416 37.3254C4.85566 37.3254 2.75686 36.6359 2.61816 35.7676" stroke="#101F52" stroke-width="0.5"/>
<path d="M12.2301 36.5464C12.0916 37.4146 9.99256 38.1041 7.42416 38.1041C4.85566 38.1041 2.75686 37.4146 2.61816 36.5464" stroke="#101F52" stroke-width="0.5"/>
<path d="M12.2301 37.3252C12.0916 38.1934 9.99256 38.8827 7.42416 38.8827C4.85566 38.8827 2.75686 38.1934 2.61816 37.3252" stroke="#101F52" stroke-width="0.5"/>
<path d="M12.2301 38.104C12.0916 38.9722 9.99256 39.6616 7.42416 39.6616C4.85566 39.6616 2.75686 38.9722 2.61816 38.104" stroke="#101F52" stroke-width="0.5"/>
<path d="M12.292 34.5161L12.3221 38.9118" stroke="#101F52" stroke-width="0.5"/>
<path d="M13.1381 14.8219C13.494 14.7176 13.7456 14.6243 14.0079 14.5056C14.2702 14.387 14.5433 14.2433 14.7949 14.0816C15.0464 13.9198 15.2764 13.7401 15.4633 13.5317C15.6502 13.3233 15.7939 13.0861 15.8803 12.892C15.9665 12.698 15.9952 12.547 15.9413 11.3934C15.8874 10.2398 15.7508 8.0836 15.6825 6.9408C15.6143 5.7979 15.6143 5.6686 15.6969 5.4386C15.7796 5.2086 15.9448 4.878 16.0959 4.6587C16.2467 4.4395 16.3834 4.3317 16.7067 4.2203C17.0302 4.1088 17.5405 3.9938 18.227 3.8753C18.9133 3.7567 19.7759 3.6344 20.5629 3.5627C21.3498 3.4907 22.0615 3.4691 22.8198 3.4907C23.5781 3.5123 24.383 3.5771 25.0981 3.6345C25.8133 3.692 26.4387 3.7424 26.9131 3.7746C27.3875 3.8069 27.7108 3.8213 28.1097 3.789C28.5087 3.7567 28.983 3.6775 29.443 3.5374C29.9031 3.3973 30.3486 3.196 30.672 2.9553C30.9955 2.7145 31.1968 2.4341 31.3118 2.1251C31.4268 1.8161 31.4555 1.4783 31.3872 1.2374C31.319 0.9968 31.1537 0.853 30.6937 0.7524C30.2336 0.6517 29.4789 0.5942 28.4439 0.5905C27.409 0.587 26.0936 0.6373 24.3147 0.817C22.5358 0.9966 20.2934 1.3057 18.4389 1.6364C16.5846 1.9669 15.1183 2.3192 13.6988 2.6858C12.2792 3.0523 10.9064 3.4333 9.69177 3.8286C8.47707 4.2239 7.42048 4.6336 6.48618 5.0073C5.55168 5.381 4.73948 5.719 4.04228 6.0495C3.34518 6.3801 2.76298 6.7036 2.33898 7.0019C1.91488 7.3002 1.64888 7.5733 1.41538 7.8859C1.18178 8.1986 0.980476 8.5508 0.825976 8.8994C0.671376 9.2479 0.563575 9.593 0.473775 9.9812C0.383975 10.3693 0.312076 10.8005 0.276076 11.2066C0.240176 11.6127 0.240176 11.9936 0.283376 12.3135C0.326476 12.6333 0.412675 12.892 0.567175 13.1615C0.721775 13.431 0.944675 13.7114 1.17098 13.963C1.39738 14.2145 1.62728 14.4374 1.97238 14.6386C2.31728 14.8399 2.77718 15.0196 3.27678 15.1813C3.77628 15.343 4.31538 15.4867 4.90128 15.5873C5.48708 15.688 6.11948 15.7454 6.67648 15.7634C7.23358 15.7814 7.71518 15.7598 8.26148 15.7203C8.80758 15.6809 9.41857 15.6233 10.0295 15.5262C10.6404 15.4292 11.2515 15.2927 11.787 15.1669C12.3225 15.0412 12.7823 14.9261 13.1381 14.8219Z" stroke="#101F52" stroke-width="0.5"/>
<path d="M13.0485 10.1606C13.1851 9.98084 13.4078 9.76535 13.6379 9.62155C13.8679 9.47775 14.1051 9.40595 14.3422 9.42025C14.5795 9.43465 14.8168 9.53535 14.9819 9.68625C15.1472 9.83725 15.2408 10.0383 15.3055 10.2468C15.3701 10.4552 15.4059 10.6708 15.3953 10.9189C15.3845 11.1668 15.327 11.4472 15.1832 11.7382C15.0395 12.0293 14.8095 12.3311 14.5759 12.5216C14.3422 12.7122 14.105 12.7911 13.8643 12.7984C13.6235 12.8055 13.3791 12.7409 13.1815 12.6079C12.9838 12.4749 12.8328 12.2738 12.7611 12.0402C12.6892 11.8065 12.6963 11.5405 12.718 11.2998C12.7394 11.059 12.7754 10.8434 12.8185 10.6637C12.8616 10.4839 12.912 10.3403 13.0485 10.1606Z" stroke="#101F52" stroke-width="0.5"/>
<path d="M14.3421 9.42041C14.0116 9.65761 13.6809 9.89481 13.4762 10.1321C13.2712 10.3692 13.1921 10.6065 13.1419 10.8723C13.0915 11.1382 13.0699 11.433 13.1129 11.744C13.1559 12.0549 13.2633 12.3822 13.3399 12.5536C13.4165 12.7251 13.4623 12.7406 13.5079 12.7562" stroke="#101F52" stroke-width="0.5"/>
<path d="M2.22363 9.3772C2.79863 8.795 3.37353 8.2128 4.38703 7.566C5.40053 6.9191 6.85223 6.2075 8.10283 5.6721C9.35353 5.1365 10.4029 4.7772 11.3625 4.4897C12.3219 4.2023 13.1916 3.9866 14.2519 3.7458C15.3119 3.505 16.5626 3.239 17.7701 3.0127C18.9775 2.7862 20.142 2.5993 21.4249 2.4916C22.708 2.3837 24.1094 2.35501 25.0439 2.35501C25.9782 2.35501 26.4454 2.3837 26.7653 2.3946C27.0851 2.4053 27.2576 2.3981 27.6171 2.3227C27.9764 2.2473 28.5226 2.10351 29.1121 1.95251C29.7014 1.80161 30.3338 1.6435 30.7202 1.523C31.1065 1.4026 31.2467 1.32 31.3167 1.2788C31.3868 1.2373 31.3868 1.2373 31.3868 1.2373" stroke="#101F52" stroke-width="0.5"/>
<path d="M15.1614 4.65527C14.1553 5.02907 13.1489 5.40277 12.2649 5.80517C11.3808 6.20777 10.619 6.63907 10.1338 6.98407C9.64861 7.32907 9.44021 7.58777 9.20661 7.87167C8.97291 8.15547 8.71431 8.46477 8.59211 8.71627C8.46991 8.96767 8.48421 9.16187 8.49851 9.35587" stroke="#101F52" stroke-width="0.5"/>
<path d="M11.1729 8.53662C11.2231 9.34882 11.2735 10.161 11.3059 10.8654C11.3381 11.5697 11.3526 12.1662 11.4209 12.7089C11.4891 13.2515 11.6113 13.7403 11.7335 14.2292" stroke="#101F52" stroke-width="0.5"/>
<path d="M15.1611 4.65501C15.6761 4.51011 16.1913 4.36511 16.7064 4.22021" stroke="#101F52" stroke-width="0.5"/>
</svg>
