<svg width="61" height="58" viewBox="0 0 61 58" fill="none" xmlns="http://www.w3.org/2000/svg">
<path d="M30.5884 29.3096C30.528 29.3333 30.4592 29.3816 30.3839 29.4242C30.2142 29.52 30.0112 29.5862 29.7188 29.658C29.4262 29.7298 29.0438 29.807 28.6554 29.8575C28.2671 29.9081 27.8727 29.9321 27.4724 29.9339C27.0719 29.9357 26.666 29.9154 26.186 29.8681C25.7061 29.8208 25.153 29.7464 24.7615 29.6757C24.3703 29.6049 24.1414 29.5378 24.0269 29.5043C23.9444 29.4801 23.9214 29.4734 23.9229 29.577" stroke="#101F52" stroke-width="0.3501"/>
<path d="M30.5451 29.4194C30.3754 29.5152 30.1724 29.5814 29.8798 29.6532C29.5872 29.725 29.205 29.8022 28.8167 29.8527C28.4282 29.9033 28.0338 29.9273 27.6335 29.9291C27.2331 29.9309 26.8269 29.9106 26.347 29.8633C25.8673 29.816 25.3139 29.7416 24.9226 29.6709C24.5314 29.6001 24.3024 29.533 24.188 29.4995C24.0735 29.4659 24.0735 29.4659 24.0951 29.7481C24.1166 30.0302 24.1598 30.5944 24.2481 31.0121C24.3366 31.4296 24.4701 31.7005 24.7165 31.906C24.9631 32.1114 25.3223 32.2515 25.7195 32.3444C26.1165 32.4373 26.5512 32.4829 26.9797 32.5019C27.4084 32.5209 27.8308 32.5132 28.2421 32.4702C28.6534 32.4272 29.0536 32.349 29.429 32.2316C29.8042 32.1143 30.1546 31.9581 30.3889 31.8134C30.6231 31.6687 30.7409 31.5356 30.837 31.3363C30.9327 31.137 31.0066 30.8716 31.028 30.4833C31.0493 30.0951 31.0183 29.5841 30.9346 29.3912C30.8509 29.1983 30.7147 29.3236 30.5451 29.4194Z" stroke="#101F52" stroke-width="0.3501"/>
<path d="M24.9229 29.6709C25.166 29.9665 25.4088 30.2622 25.5526 30.5527C25.6961 30.8431 25.7405 31.1284 25.7019 31.4125C25.6633 31.6967 25.5419 31.9796 25.4205 32.2625" stroke="#101F52" stroke-width="0.3501"/>
<path d="M26.6157 29.8877C26.4289 30.2559 26.2423 30.6241 26.1641 30.9108C26.0858 31.1974 26.1163 31.4024 26.2049 31.5996C26.2933 31.7967 26.4398 31.9857 26.5784 32.1348C26.7174 32.2838 26.8485 32.3928 26.9794 32.5019" stroke="#101F52" stroke-width="0.3501"/>
<path d="M28.5487 29.8833C28.6647 30.1414 28.781 30.3995 28.8288 30.6552C28.8766 30.9109 28.856 31.164 28.8117 31.3962C28.7672 31.6284 28.699 31.8394 28.6339 32.0109C28.569 32.1823 28.5071 32.3142 28.4453 32.4459" stroke="#101F52" stroke-width="0.3501"/>
<path d="M29.3513 29.7671C29.3145 30.021 29.2773 30.2749 29.2979 30.5255C29.3184 30.7761 29.3964 31.0232 29.4805 31.2206C29.5644 31.418 29.6544 31.5655 29.7561 31.6832C29.8578 31.8009 29.9714 31.8889 30.0849 31.9768" stroke="#101F52" stroke-width="0.3501"/>
<path d="M30.5449 29.4194C30.6986 29.5188 30.8523 29.6182 30.934 29.7448C31.0155 29.8714 31.0248 30.025 31.0339 30.1786" stroke="#101F52" stroke-width="0.3501"/>
<path d="M24.9531 32.1798C24.9672 32.2645 24.9813 32.3491 25.0302 32.4113C25.0789 32.4737 25.1623 32.5136 25.323 32.5646C25.4835 32.6155 25.7211 32.6775 25.9807 32.7293C26.2403 32.7811 26.522 32.8224 26.7622 32.8505C27.0022 32.8788 27.201 32.8937 27.4622 32.8958C27.7233 32.8979 28.0464 32.8873 28.3329 32.8631C28.6195 32.8391 28.8691 32.8013 29.1067 32.7487C29.3443 32.696 29.5696 32.6283 29.7541 32.5542C29.9384 32.48 30.0821 32.3992 30.1664 32.3424C30.2507 32.2855 30.2756 32.2525 30.2836 32.1796C30.2913 32.1066 30.2823 31.9938 30.2729 31.8809" stroke="#101F52" stroke-width="0.3501"/>
<path d="M25.0303 32.4112C25.0368 32.8676 25.0435 33.3238 25.0699 33.708C25.0964 34.0922 25.1423 34.4044 25.2329 34.6373C25.3236 34.8703 25.459 35.024 26.1112 35.4681C26.7635 35.9121 27.9329 36.6465 30.3629 38.2423C32.7925 39.8382 36.4827 42.2956 39.3767 44.2368C42.2706 46.178 44.3683 47.6028 46.5427 49.0297C48.717 50.4567 50.9678 51.8856 52.1425 52.631C53.317 53.3762 53.4152 53.4378 53.4485 53.5033C53.4816 53.5687 53.4499 53.6381 53.4235 53.7567C53.3967 53.8753 53.3754 54.0432 53.3752 54.1871C53.3751 54.3311 53.3958 54.4513 53.4389 54.568C53.482 54.6845 53.5474 54.7975 53.6892 54.9486C53.8312 55.0998 54.0496 55.289 54.4307 55.4908C54.812 55.6926 55.356 55.907 55.7735 56.0413C56.1911 56.1756 56.4823 56.23 56.7723 56.2642C57.0625 56.2982 57.3512 56.3122 57.6514 56.2918C57.9516 56.2713 58.2633 56.2164 58.5177 56.1469C58.7721 56.0775 58.9696 55.9935 59.1502 55.8903C59.3305 55.7871 59.494 55.6646 59.6218 55.5467C59.7496 55.4287 59.8416 55.3151 59.9371 54.8841C60.0323 54.4531 60.1308 53.7048 60.1826 53.2607C60.2343 52.8167 60.2393 52.6769 60.1983 52.5557C60.1572 52.4344 60.0698 52.3318 59.8034 52.1275C59.5368 51.9232 59.0907 51.6174 57.6048 50.6728C56.1188 49.7282 53.5933 48.1448 51.2914 46.6919C48.9896 45.239 46.9114 43.9165 44.196 42.1715C41.4804 40.4264 38.1272 38.259 35.6983 36.6765C33.2693 35.094 31.7645 34.0966 31.0004 33.5919C30.2365 33.0872 30.2132 33.0751 30.1923 33.0269C30.1713 32.9786 30.1528 32.8943 30.1487 32.7742C30.1448 32.654 30.1557 32.4981 30.1665 32.3423" stroke="#101F52" stroke-width="0.3501"/>
<path d="M60.1986 52.5557C60.1986 52.5557 60.1986 52.5557 60.0839 52.65C59.9693 52.7442 59.74 52.9328 59.3962 53.104C59.0521 53.2751 58.5937 53.4289 58.1401 53.5195C57.6867 53.61 57.2385 53.6373 56.777 53.5933C56.3154 53.5493 55.8404 53.4343 55.4054 53.2357C54.9703 53.0372 54.5753 52.7553 51.2819 50.5346C47.9888 48.3141 41.7971 44.1549 37.133 41.0322C32.4688 37.9096 29.332 35.8236 27.8354 34.8122C26.3386 33.8008 26.4821 33.8641 26.6828 33.9104C26.8836 33.9566 27.1419 33.986 27.415 34.001C27.6881 34.0158 27.9761 34.0163 28.3215 33.9639C28.6669 33.9114 29.0701 33.8059 29.3619 33.6847C29.6538 33.5634 29.8345 33.4266 29.9542 33.3143C30.0743 33.202 30.1333 33.1144 30.1926 33.0269" stroke="#101F52" stroke-width="0.3501"/>
<path d="M53.8539 55.106C53.8233 55.3178 53.7926 55.5296 53.7839 55.6415C53.7746 55.7533 53.7873 55.7651 53.8569 55.8233C53.9266 55.8815 54.0534 55.9861 54.2739 56.1218C54.4941 56.2574 54.8081 56.424 55.1385 56.5735C55.4689 56.7229 55.8153 56.8553 56.1553 56.9476C56.495 57.04 56.828 57.0923 57.2058 57.0936C57.5835 57.0949 58.0059 57.0451 58.323 56.9774C58.6403 56.9096 58.852 56.8241 58.9949 56.7469C59.1378 56.6696 59.2116 56.6005 59.2778 56.5441C59.3436 56.4875 59.4018 56.4437 59.4306 56.3025C59.4595 56.1612 59.4589 55.9228 59.4585 55.6842" stroke="#101F52" stroke-width="0.3501"/>
<path fill-rule="evenodd" clip-rule="evenodd" d="M22.0559 34.8708L20.8838 34.75L21.4092 35.8048L22.0559 34.8708Z" fill="#1B1918" stroke="#101F52" stroke-width="0.3501"/>
<path d="M40.961 5.26279C41.1233 4.99249 41.0908 4.65729 41.0042 4.39249C40.9179 4.12759 40.7774 3.93309 40.5124 3.70599C40.2476 3.47899 39.8583 3.21949 39.2477 2.94929C38.6367 2.67899 37.8045 2.39789 36.9071 2.20869C36.0097 2.01959 35.0478 1.92229 34.2747 1.84659C33.5017 1.77089 32.9181 1.71689 32.2695 1.58179C31.6206 1.44659 30.9072 1.23039 30.091 0.992593C29.2749 0.754693 28.3561 0.495292 27.4966 0.338592C26.6372 0.181692 25.8371 0.127791 25.0101 0.219691C24.1831 0.311491 23.3292 0.549292 22.5668 0.846692C21.8047 1.14399 21.1347 1.50059 20.7671 1.74389C20.3995 1.98709 20.3346 2.11679 20.2966 2.85199C20.2589 3.58709 20.248 4.92759 20.3076 5.72219C20.367 6.51679 20.4968 6.76539 20.7236 7.03029C20.9506 7.29519 21.2751 7.57619 21.8319 7.81399C22.3886 8.05189 23.1777 8.24649 24.0155 8.37619C24.8534 8.50589 25.7398 8.57079 26.583 8.58159C27.4262 8.59239 28.2264 8.54919 28.9885 8.43019C29.7506 8.31129 30.4748 8.11679 30.9829 7.91139C31.4909 7.70599 31.7828 7.48969 31.9882 7.16539C32.1936 6.84119 32.3127 6.40869 32.3882 6.04659C32.4639 5.68429 32.4964 5.39249 32.5236 5.25199C32.5505 5.11139 32.5722 5.12219 32.7559 5.19789C32.9396 5.27349 33.2857 5.41409 33.8425 5.58159C34.3992 5.74919 35.1665 5.94379 36.0208 6.05189C36.8747 6.15999 37.8152 6.18159 38.507 6.14919C39.199 6.11679 39.6422 6.03029 40.0423 5.88439C40.4422 5.73839 40.7988 5.53309 40.961 5.26279Z" stroke="#101F52" stroke-width="0.3501"/>
<path d="M29.434 6.84107C29.5825 6.81937 29.7502 6.77077 29.9125 6.65997C30.0745 6.54917 30.2313 6.37617 30.3286 6.18427C30.426 5.99237 30.4636 5.78167 30.4582 5.59507C30.453 5.40857 30.4043 5.24647 30.2935 5.11137C30.1827 4.97627 30.0097 4.86807 29.8341 4.83027C29.6584 4.79237 29.48 4.82487 29.3205 4.90327C29.1611 4.98157 29.0205 5.10597 28.9041 5.28437C28.7879 5.46267 28.6962 5.69517 28.672 5.90057C28.6475 6.10597 28.6906 6.28427 28.7609 6.43837C28.8313 6.59247 28.9287 6.72217 29.042 6.78967C29.1555 6.85727 29.2852 6.86267 29.434 6.84107Z" stroke="#101F52" stroke-width="0.3501"/>
<path d="M20.4082 2.11377C20.6269 2.30947 20.8456 2.50517 21.301 2.64627C21.7561 2.78727 22.4481 2.87377 23.1211 2.90617C23.794 2.93857 24.448 2.91697 25.0966 2.91427C25.7455 2.91157 26.3885 2.92777 27.0587 2.98457C27.7291 3.04127 28.4263 3.13867 29.1318 3.28737C29.8373 3.43597 30.5507 3.63587 31.3291 3.86287C32.1074 4.08997 32.9507 4.34407 33.737 4.57367C34.5236 4.80337 35.2532 5.00877 36.0451 5.15477C36.8369 5.30077 37.6912 5.38727 38.3452 5.39807C38.9993 5.40877 39.4532 5.34397 39.7938 5.26017C40.1341 5.17637 40.3613 5.07377 40.5523 4.95787C40.7434 4.84187 40.8985 4.71287 40.9762 4.64827C41.0535 4.58377 41.0535 4.58377 41.0535 4.58377" stroke="#101F52" stroke-width="0.3501"/>
<path d="M32.6082 5.14457C32.1225 4.93537 31.6365 4.72607 31.0477 4.50247C30.4587 4.27897 29.7669 4.04107 29.0262 3.84917C28.2858 3.65727 27.4968 3.51137 26.8209 3.44927C26.1454 3.38707 25.5832 3.40867 25.0372 3.47897C24.4914 3.54927 23.9616 3.66817 23.5696 3.78707C23.1778 3.90597 22.9237 4.02487 22.748 4.12497C22.5724 4.22487 22.475 4.30597 22.3779 4.38707" stroke="#101F52" stroke-width="0.3501"/>
<path d="M22.9131 4.48461C23.4155 4.43591 23.9182 4.38731 24.4535 4.24671C24.9885 4.10621 25.5562 3.87381 25.984 3.72841C26.4119 3.58301 26.7 3.52461 26.9881 3.46631" stroke="#101F52" stroke-width="0.3501"/>
<path d="M22.7667 4.92236C22.6855 5.53856 22.6044 6.15476 22.5875 6.68366C22.5707 7.21256 22.6178 7.65406 22.6648 8.09556" stroke="#101F52" stroke-width="0.3501"/>
<path d="M20.9707 7.28245C20.9534 7.53895 20.9361 7.79545 20.9249 7.92645C20.9133 8.05745 20.908 8.06275 20.9782 8.13035C21.0485 8.19785 21.1946 8.32765 21.4323 8.46555C21.6701 8.60335 21.9998 8.74925 22.4781 8.87895C22.9566 9.00875 23.5837 9.12225 24.1619 9.18715C24.7403 9.25195 25.2702 9.26815 25.8863 9.27085C26.5024 9.27355 27.2051 9.26285 27.8296 9.21955C28.4536 9.17625 28.9996 9.10065 29.5105 9.00055C30.0213 8.90055 30.4969 8.77635 30.8861 8.62225C31.2753 8.46825 31.5779 8.28435 31.7348 8.14385C31.8915 8.00325 31.9024 7.90605 31.907 7.76945C31.9115 7.63295 31.9098 7.45705 31.9082 7.28125" stroke="#101F52" stroke-width="0.3501"/>
<path d="M20.9779 8.13037C20.8988 9.48257 20.8194 10.8348 20.7689 11.9542C20.7186 13.0736 20.6968 13.96 20.6779 14.6951C20.6589 15.4302 20.6427 16.0141 20.613 16.4708C20.5832 16.9275 20.5401 17.2572 20.4645 17.5653C20.3887 17.8734 20.2806 18.1599 20.1509 18.368C20.0214 18.5761 19.8698 18.7058 19.6645 18.8761C19.4591 19.0464 19.1996 19.2572 18.7484 19.4814C18.2969 19.7058 17.6536 19.9436 16.9915 20.1491C16.3295 20.3545 15.6483 20.5274 15.1052 20.6598C14.5619 20.7923 14.1564 20.8842 13.6131 21.0382C13.0701 21.1923 12.3889 21.4085 11.7917 21.5896C11.1943 21.7706 10.681 21.9166 10.2754 22.0517C9.8702 22.1868 9.5727 22.3112 9.3134 22.4625C9.0539 22.6139 8.8323 22.7923 8.6459 22.9598C8.4592 23.1274 8.308 23.2841 8.154 23.4842C7.9998 23.6841 7.843 23.9274 7.716 24.1571C7.589 24.3868 7.4916 24.603 7.4106 24.8301C7.3295 25.0571 7.2649 25.2949 7.2403 25.5462C7.2162 25.7976 7.2323 26.0625 7.2594 26.2678C7.2862 26.4732 7.3243 26.6192 7.4133 26.8353C7.5025 27.0516 7.6432 27.3381 7.9024 27.6408C8.162 27.9435 8.5403 28.2624 8.9593 28.5407C9.3783 28.8191 9.8377 29.057 10.4079 29.2246C10.9781 29.3921 11.6591 29.4894 13.0619 29.4515C14.4646 29.4137 16.5888 29.2408 19.3159 28.9867C22.0427 28.7327 25.3723 28.3975 27.075 28.2083C28.7777 28.0192 28.8534 27.976 29.0049 28.0408C29.1561 28.1057 29.3832 28.2786 29.7587 28.5462C30.1347 28.8138 30.6589 29.1759 31.0724 29.384C31.4859 29.5921 31.7886 29.6462 32.1344 29.6299C32.4803 29.6137 32.8696 29.5272 33.1965 29.4083C33.5238 29.2894 33.7885 29.1381 34.0939 28.884C34.3994 28.63 34.7453 28.2732 35.0021 27.9083C35.2588 27.5435 35.4262 27.1706 35.5371 26.7489C35.6478 26.3273 35.702 25.857 35.702 25.4922C35.702 25.1273 35.6478 24.8679 35.5398 24.6273C35.4318 24.3868 35.2696 24.1652 35.0614 23.9625C34.8532 23.7598 34.5993 23.576 34.3669 23.3922C34.1343 23.2085 33.9237 23.0247 33.7426 22.7139C33.5614 22.403 33.4101 21.9652 33.3156 21.7139C33.221 21.4625 33.183 21.3977 32.8344 21.1436C32.4858 20.8896 31.8262 20.4464 31.4831 20.2328C31.14 20.0193 31.1128 20.0356 31.0237 20.0491C30.9344 20.0626 30.7831 20.0734 30.6642 20.1301C30.5454 20.1869 30.4588 20.2896 30.2806 20.5328C30.1022 20.776 29.8319 21.1599 29.5751 21.449C29.3182 21.7383 29.075 21.9328 28.8182 22.1463C28.5617 22.3598 28.2914 22.5923 28.0373 22.9139C27.7832 23.2355 27.5455 23.6463 27.3939 23.9977C27.2427 24.349 27.1779 24.6409 27.1535 24.8895C27.1293 25.1382 27.1455 25.3435 27.1807 25.5624C27.2156 25.7814 27.2698 26.0138 27.3291 26.203C27.3886 26.3922 27.4534 26.5381 27.5428 26.6814C27.6318 26.8246 27.7453 26.9652 27.8832 27.1084C28.0212 27.2516 28.1833 27.3975 28.3642 27.5462C28.5455 27.6949 28.7452 27.8462 28.9455 27.9975" stroke="#101F52" stroke-width="0.3501"/>
<path d="M30.4869 20.1118C31.2069 20.5872 31.9268 21.0627 32.2868 21.3003C32.6468 21.538 32.6468 21.538 32.6468 21.6542C32.6468 21.7705 32.6468 22.003 32.5685 22.3191C32.49 22.6354 32.3333 23.0353 32.063 23.4083C31.7927 23.7813 31.4089 24.1272 31.1117 24.4326C30.8144 24.738 30.6036 25.0028 30.4279 25.2974C30.2522 25.592 30.1117 25.9164 30.0333 26.3353C29.9549 26.7542 29.9387 27.2677 29.9549 27.6055C29.9711 27.9434 30.0198 28.1055 30.1052 28.3084C30.1906 28.5112 30.3127 28.7548 30.4349 28.9984" stroke="#101F52" stroke-width="0.3501"/>
<path d="M32.2724 25.7164C32.3617 25.6326 32.4967 25.5246 32.6645 25.4569C32.8318 25.3894 33.032 25.3624 33.1969 25.4164C33.3616 25.4705 33.4914 25.6056 33.5643 25.7975C33.6374 25.9894 33.6536 26.2381 33.5725 26.4705C33.4914 26.7029 33.313 26.9192 33.1104 27.0569C32.9077 27.1948 32.6807 27.2543 32.4967 27.211C32.3131 27.1678 32.1726 27.0219 32.0887 26.8623C32.0048 26.7029 31.9779 26.53 31.9886 26.3705C31.9996 26.211 32.0483 26.0651 32.0943 25.9624C32.1401 25.8597 32.1833 25.8003 32.2724 25.7164Z" stroke="#101F52" stroke-width="0.3501"/>
<path d="M35.7723 25.2081C36.7076 24.7865 37.6426 24.3649 38.5318 23.9351C39.4209 23.5054 40.2642 23.0676 40.8803 22.6785C41.4966 22.2893 41.8857 21.9487 42.1857 21.5785C42.4856 21.2082 42.6965 20.8082 42.8397 20.4352C42.9829 20.0623 43.0586 19.7163 43.0669 19.4433C43.0748 19.1704 43.0154 18.9704 42.8615 18.7325C42.7072 18.4948 42.4586 18.219 42.0993 17.9056C41.7397 17.592 41.2696 17.2407 40.921 17.0001C40.5723 16.7596 40.3452 16.63 40.037 16.5515C39.7291 16.4731 39.3398 16.4461 38.0344 16.5272C36.729 16.6083 34.5076 16.7974 32.2861 16.9866" stroke="#101F52" stroke-width="0.3501"/>
<path d="M32.124 16.7925C32.2752 17.4411 32.4266 18.0897 32.5616 18.4952C32.6969 18.9006 32.8156 19.0627 33.086 19.1464C33.3561 19.2303 33.778 19.2357 34.5453 19.1249C35.3129 19.014 36.4264 18.7871 37.5588 18.5735C38.6914 18.36 39.8425 18.16 40.6425 18.1411C41.4426 18.1222 41.8914 18.2843 42.194 18.4438C42.4967 18.6032 42.6535 18.76 42.7745 18.9262C42.8958 19.0924 42.9814 19.2681 43.067 19.4437" stroke="#101F52" stroke-width="0.3501"/>
<path d="M31.8672 7.97803C31.9203 8.35393 31.9731 8.72983 32.0159 10.1988C32.0585 11.6679 32.0909 14.23 32.1234 16.7921" stroke="#101F52" stroke-width="0.3501"/>
<path d="M32.0605 12.2511C32.3628 12.0351 32.665 11.8191 33.0916 11.6111C33.5184 11.4031 34.0697 11.2031 34.5536 11.0788C35.0375 10.9544 35.4534 10.9058 35.8158 10.9058C36.1779 10.9058 36.4861 10.9544 36.7563 11.0193C37.0266 11.0842 37.2589 11.1652 37.5806 11.3085C37.9021 11.4517 38.313 11.6571 38.6534 11.8869C38.994 12.1166 39.2643 12.3706 39.4939 12.622C39.7237 12.8734 39.9129 13.122 40.0858 13.4274C40.2588 13.7328 40.4156 14.0949 40.5345 14.4652C40.6533 14.8355 40.7345 15.2138 40.7993 15.5787C40.8642 15.9435 40.9128 16.2949 40.9305 16.5296C40.948 16.7642 40.9346 16.8823 40.9278 16.9412C40.9211 17.0002 40.9211 17.0002 40.9211 17.0002" stroke="#101F52" stroke-width="0.3501"/>
<path d="M32.085 13.8741C32.325 13.6037 32.5647 13.3332 32.8791 13.0384C33.1936 12.7438 33.5829 12.4249 34.0585 12.1762C34.5342 11.9276 35.0965 11.7492 35.5911 11.66C36.0856 11.5708 36.5126 11.5708 36.9451 11.6222C37.3773 11.6735 37.8152 11.7762 38.1449 11.8898C38.4748 12.0033 38.6964 12.1276 38.903 12.2514C39.1098 12.3753 39.3016 12.4987 39.4318 12.6001C39.5617 12.7013 39.63 12.7804 39.6983 12.8595" stroke="#101F52" stroke-width="0.3501"/>
<path d="M34.4941 16.7999C34.6821 16.5325 34.8701 16.2652 35.1157 15.9855C35.3609 15.7058 35.6636 15.4139 35.9421 15.2031C36.2203 14.9923 36.4744 14.8626 36.7446 14.7896C37.0149 14.7166 37.3013 14.7004 37.6123 14.7356C37.923 14.7707 38.2581 14.8571 38.5284 14.9788C38.7986 15.1005 39.004 15.2572 39.1718 15.395C39.3392 15.5328 39.469 15.6517 39.5932 15.7841C39.7176 15.9166 39.8366 16.0625 39.9865 16.2232C40.1365 16.3838 40.3178 16.559 40.4381 16.664C40.5581 16.769 40.6173 16.8038 40.6765 16.8385" stroke="#101F52" stroke-width="0.3501"/>
<path d="M39.5937 15.784C39.3577 15.7093 39.1218 15.6345 38.8147 15.5188C38.5072 15.403 38.1289 15.2463 37.9291 15.1706C37.7289 15.0949 37.7075 15.1003 37.294 15.3165C36.8804 15.5327 36.0749 15.9597 35.6723 16.1733C35.2696 16.3867 35.2696 16.3867 35.2511 16.4464C35.2327 16.5061 35.1958 16.6253 35.1777 16.685C35.1592 16.7447 35.1592 16.7447 35.1592 16.7447" stroke="#101F52" stroke-width="0.3501"/>
<path d="M37.7686 16.5445C38.0382 16.3784 38.3078 16.2123 38.5468 16.0644C38.7857 15.9165 38.9939 15.7869 39.2022 15.6572" stroke="#101F52" stroke-width="0.3501"/>
<path d="M38.2334 16.2581C38.5045 16.1985 38.7762 16.1387 38.9983 16.1196C39.2205 16.1006 39.3934 16.1222 39.5497 16.1463C39.7063 16.1703 39.8466 16.1968 39.9531 16.2477C40.06 16.2985 40.1337 16.3737 40.2072 16.4488" stroke="#101F52" stroke-width="0.3501"/>
<path d="M14.2167 20.8765C14.0885 20.3799 13.9604 19.8834 13.7773 19.4459C13.5943 19.0085 13.3566 18.63 13.135 18.3247C12.9131 18.0193 12.7077 17.7869 12.416 17.5085C12.124 17.2301 11.7457 16.9058 11.3836 16.649C11.0213 16.3923 10.6753 16.2031 10.2591 16.0328C9.84289 15.8626 9.35639 15.7112 8.87529 15.622C8.39439 15.5328 7.91859 15.5058 7.42149 15.5355C6.92409 15.5653 6.40529 15.6517 5.95109 15.7733C5.49719 15.895 5.10789 16.0518 4.72409 16.2409C4.34029 16.4301 3.96199 16.6517 3.61609 16.8923C3.27029 17.1328 2.95649 17.3923 2.66759 17.676C2.37829 17.9598 2.11339 18.2679 1.86199 18.595C1.61069 18.922 1.37289 19.2679 1.17549 19.6003C0.978387 19.9328 0.821587 20.2517 0.678387 20.5787C0.534887 20.9057 0.405387 21.2409 0.313287 21.676C0.221487 22.1111 0.167587 22.6463 0.175587 23.1516C0.183787 23.657 0.253887 24.1327 0.372987 24.6029C0.491687 25.0732 0.659487 25.5381 0.840387 25.9218C1.02149 26.3056 1.21619 26.6083 1.47019 26.9245C1.72429 27.2407 2.03769 27.5704 2.35939 27.8569C2.68109 28.1434 3.01059 28.3867 3.33509 28.5866C3.65919 28.7866 3.97819 28.9434 4.37819 29.0893C4.77829 29.2353 5.25939 29.3704 5.67289 29.4569C6.08639 29.5434 6.43219 29.5812 6.75129 29.5812C7.07019 29.5812 7.36189 29.5434 7.67279 29.4758C7.98349 29.4082 8.31339 29.311 8.58089 29.2271C8.84839 29.1434 9.05379 29.0731 9.19979 29.0159C9.34589 28.9588 9.43269 28.9148 9.47609 28.8928C9.51939 28.8708 9.51939 28.8708 9.51529 28.8685C9.51089 28.8663 9.50239 28.8619 9.49359 28.8574" stroke="#101F52" stroke-width="0.3501"/>
<path d="M3.56632 28.7224C3.24792 28.4322 2.92932 28.1419 2.63222 27.8454C2.33492 27.5489 2.05932 27.2462 1.81602 26.8786C1.57262 26.5111 1.36212 26.0787 1.21612 25.5841C1.07012 25.0895 0.988923 24.5327 0.970023 23.9274C0.951123 23.322 0.994524 22.6679 1.12952 22.0382C1.26482 21.4085 1.49162 20.8031 1.73482 20.2923C1.97822 19.7815 2.23762 19.3652 2.61882 18.9247C2.99982 18.4842 3.50242 18.0194 3.97812 17.6599C4.45372 17.3005 4.90242 17.0464 5.34292 16.8383C5.78352 16.6303 6.21582 16.4681 6.78882 16.3627C7.36182 16.2573 8.07542 16.2086 8.64012 16.2167C9.20502 16.2248 9.62122 16.2897 10.0644 16.4437C10.5078 16.5978 10.9779 16.841 11.3618 17.0599C11.7456 17.2788 12.0427 17.4734 12.3051 17.7085C12.567 17.9437 12.7942 18.2193 12.994 18.5113C13.1943 18.8032 13.3672 19.1113 13.5339 19.3876C13.7006 19.6641 13.8613 19.9088 13.967 20.1248C14.0728 20.3408 14.1238 20.5281 14.1751 20.7153" stroke="#101F52" stroke-width="0.3501"/>
<path d="M11.7912 21.5894C11.5958 21.3038 11.4001 21.0182 11.0944 20.7781C10.7885 20.538 10.3722 20.3435 9.97769 20.2273C9.58329 20.1111 9.21009 20.0732 8.84519 20.1029C8.48039 20.1327 8.12369 20.2299 7.75349 20.3813C7.38309 20.5327 6.99929 20.738 6.68869 20.9569C6.37769 21.1759 6.13979 21.4083 5.95889 21.638C5.77779 21.8678 5.65349 22.0947 5.52089 22.3893C5.38849 22.6839 5.24799 23.0462 5.16169 23.3893C5.07499 23.7326 5.04259 24.0569 5.07229 24.4623C5.10199 24.8677 5.19419 25.3541 5.35609 25.7541C5.51829 26.1542 5.75089 26.4676 5.97519 26.7082C6.19929 26.9488 6.41559 27.1163 6.62649 27.2298C6.83719 27.3433 7.04269 27.4028 7.24819 27.4623" stroke="#101F52" stroke-width="0.3501"/>
<path d="M8.40165 28.1253C8.20645 28.0989 8.01145 28.0726 7.59775 27.754C7.18415 27.4355 6.55145 26.8246 6.17045 26.4517C5.78935 26.0787 5.65965 25.9435 5.59495 25.876C5.53015 25.8084 5.53015 25.8084 5.45295 25.5709C5.37605 25.3335 5.22205 24.8586 5.14525 24.6211C5.06805 24.3837 5.06805 24.3837 5.35605 23.84C5.64375 23.2964 6.21945 22.2092 6.79475 21.1221" stroke="#101F52" stroke-width="0.3501"/>
<path d="M11.6207 21.6413C11.1795 21.3277 10.7384 21.0141 10.4664 20.8357C10.1945 20.6572 10.092 20.614 10.0406 20.5924C9.98906 20.5708 9.98906 20.5708 9.45686 20.6627C8.92436 20.7546 7.85936 20.9383 7.32716 21.0302C6.79456 21.1222 6.79456 21.1222 6.98106 21.3086C7.16766 21.4951 7.54056 21.8681 7.72696 22.0545C7.91356 22.241 7.91356 22.241 8.46766 22.141C9.02156 22.041 10.1297 21.8411 11.2379 21.641" stroke="#101F52" stroke-width="0.3501"/>
<path d="M7.924 22.1987C7.4284 23.2884 6.9331 24.378 6.4375 25.4678" stroke="#101F52" stroke-width="0.3501"/>
<path d="M7.58847 27.4461C7.58317 27.4407 7.57777 27.4354 7.38587 27.1056C7.19387 26.7758 6.81567 26.1218 6.39887 25.6273C5.98217 25.1326 5.52717 24.7975 5.07227 24.4624" stroke="#101F52" stroke-width="0.3501"/>
<path d="M25.0531 11.5059C24.8803 14.6194 24.7073 17.7328 24.329 19.5165C23.9507 21.3003 23.3667 21.7543 21.4424 22.2624C19.5181 22.7704 16.2533 23.3326 14.0804 23.8083C11.9077 24.2839 10.8265 24.6731 10.124 25.192C9.4212 25.7109 9.0968 26.3596 8.9657 26.9392C8.8348 27.519 8.8968 28.0298 9.0171 28.338C9.137 28.6463 9.3154 28.7519 9.4934 28.8574" stroke="#101F52" stroke-width="0.3501"/>
<path d="M22.9241 24.9029C23.8333 24.9907 24.5411 25.3653 24.5051 25.7398C24.4688 26.1141 23.7024 26.3464 22.7932 26.2586C21.884 26.1708 21.1763 25.7961 21.2123 25.4218C21.2486 25.0473 22.0149 24.815 22.9241 24.9029Z" stroke="#101F52" stroke-width="0.3501" stroke-dasharray="0.35 0.35 0.35 0.35"/>
<path d="M22.8588 25.25C23.7679 25.3379 24.4757 25.7125 24.4397 26.0869C24.4033 26.4613 23.637 26.6936 22.7279 26.6058C21.8184 26.518 21.1106 26.1433 21.1468 25.7689C21.1832 25.3945 21.9496 25.1622 22.8588 25.25Z" stroke="#101F52" stroke-width="0.3501" stroke-dasharray="0.35 0.35 0.35 0.35"/>
<path d="M22.7436 27.1099C23.6074 27.1934 24.28 27.5493 24.2455 27.905C24.2112 28.2606 23.4832 28.4813 22.6193 28.3979C21.7555 28.3145 21.0833 27.9586 21.1175 27.6029C21.1518 27.2472 21.88 27.0266 22.7436 27.1099Z" stroke="#101F52" stroke-width="0.3501" stroke-dasharray="0.35 0.35 0.35 0.35"/>
<path d="M21.2119 25.4219L21.1464 25.7687L21.1162 27.6246" stroke="#101F52" stroke-width="0.3501" stroke-dasharray="0.35 0.35 0.35 0.35"/>
<path d="M24.5049 25.7402L24.351 26.276L24.2455 27.9054L24.0479 29.084" stroke="#101F52" stroke-width="0.3501" stroke-dasharray="0.35 0.35 0.35 0.35"/>
<path d="M21.1172 27.603L21.1289 29.1486" stroke="#101F52" stroke-width="0.3501" stroke-dasharray="0.35 0.35 0.35 0.35"/>
<path d="M23.098 28.6211C23.6648 28.7604 24.0545 29.0262 24.029 29.2916C23.9966 29.6285 23.3067 29.8376 22.4883 29.7586C21.6701 29.6796 21.033 29.3422 21.0657 29.0054C21.0725 28.9341 21.1088 28.8686 21.1694 28.8103" stroke="#101F52" stroke-width="0.3501"/>
<path d="M21.1067 30.1432C21.089 30.2216 21.0809 30.4027 21.0822 30.5094C21.0837 30.6162 21.0944 30.6486 21.1565 30.704C21.2187 30.7594 21.3322 30.8378 21.4538 30.9026C21.5756 30.9675 21.7054 31.0189 21.8605 31.0499C22.016 31.081 22.1972 31.0919 22.3606 31.0878C22.5241 31.0837 22.67 31.0648 22.8146 31.0324C22.9593 31 23.1026 30.954 23.2418 30.8918C23.3808 30.8296 23.5161 30.7513 23.6201 30.6594C23.7242 30.5675 23.797 30.4621 23.8378 30.4013C23.8781 30.3405 23.8864 30.3243 23.8932 30.2486C23.8999 30.1729 23.9051 30.0378 23.9079 29.9702C23.9106 29.9027 23.9106 29.9027 23.8932 29.9229C23.8754 29.9432 23.8403 29.9837 23.7851 30.0405C23.7296 30.0972 23.6538 30.1702 23.52 30.2472C23.3862 30.3243 23.1944 30.4053 23.0524 30.4567C22.9107 30.508 22.8189 30.5297 22.7025 30.5432C22.5862 30.5567 22.4457 30.5621 22.3092 30.5553C22.1727 30.5487 22.0402 30.5297 21.9013 30.4932C21.7619 30.4567 21.616 30.4027 21.5146 30.3527C21.4133 30.3026 21.3566 30.2567 21.3081 30.2175C21.2594 30.1784 21.2187 30.1459 21.185 30.1175C21.1514 30.0891 21.1242 30.0649 21.1067 30.1432Z" stroke="#101F52" stroke-width="0.3501"/>
<path d="M21.0674 30.8849C21.0518 30.9636 21.0483 31.1449 21.0522 31.2517C21.0561 31.3583 21.0675 31.3904 21.1311 31.4443C21.1945 31.4982 21.3101 31.5738 21.4333 31.6357C21.5563 31.6976 21.6873 31.7458 21.8434 31.7731C21.9995 31.8004 22.1808 31.8068 22.3442 31.7987C22.5075 31.7908 22.653 31.7683 22.7968 31.7323C22.9405 31.6964 23.0824 31.647 23.2201 31.5815C23.3577 31.516 23.4909 31.4344 23.5926 31.3399C23.6945 31.2456 23.7649 31.1384 23.8041 31.0766C23.8431 31.0149 23.8507 30.9984 23.8556 30.9226C23.8606 30.8468 23.8628 30.7116 23.8639 30.644C23.8649 30.5764 23.8649 30.5764 23.8477 30.5971C23.8308 30.6178 23.7967 30.6591 23.7425 30.7172C23.6887 30.7753 23.6146 30.8501 23.4828 30.9303C23.3508 31.0106 23.1611 31.0963 23.0206 31.1511C22.8798 31.2059 22.7884 31.2297 22.6727 31.246C22.5569 31.2624 22.4164 31.2712 22.2798 31.2678C22.1433 31.2643 22.0102 31.2486 21.8702 31.2155C21.7303 31.1825 21.5832 31.1319 21.4804 31.0844C21.3779 31.0369 21.3202 30.9923 21.2705 30.9543C21.2211 30.9164 21.1797 30.8849 21.1451 30.8573C21.1109 30.8298 21.0831 30.8062 21.0674 30.8849Z" stroke="#101F52" stroke-width="0.3501"/>
<path d="M21.0294 31.6265C21.0159 31.7056 21.0165 31.8868 21.0231 31.9934C21.0294 32.1 21.0418 32.1318 21.1066 32.1841C21.1715 32.2365 21.2886 32.3093 21.4132 32.3681C21.538 32.427 21.67 32.472 21.8267 32.4955C21.9834 32.519 22.1647 32.521 22.3281 32.509C22.491 32.4971 22.6358 32.4711 22.7786 32.4317C22.9217 32.3923 23.0623 32.3394 23.1983 32.2705C23.3343 32.2017 23.4656 32.1169 23.5652 32.02C23.6645 31.9232 23.7322 31.8144 23.7699 31.7516C23.8075 31.689 23.8148 31.6723 23.8177 31.5965C23.8209 31.5205 23.8198 31.3853 23.8192 31.3177C23.8186 31.2501 23.8186 31.2501 23.8019 31.2712C23.7853 31.2923 23.7522 31.3345 23.6996 31.3938C23.6471 31.4532 23.5752 31.5298 23.4451 31.6132C23.3152 31.6967 23.1276 31.7869 22.9883 31.8451C22.849 31.9033 22.7584 31.9294 22.6431 31.9484C22.5274 31.9676 22.3874 31.9799 22.2509 31.9797C22.1142 31.9796 21.9808 31.9671 21.8402 31.9374C21.6993 31.9078 21.5509 31.8609 21.4473 31.8158C21.3436 31.7708 21.2846 31.7277 21.2342 31.6908C21.1838 31.6541 21.1417 31.6237 21.1066 31.5969C21.0713 31.5703 21.0434 31.5473 21.0294 31.6265Z" stroke="#101F52" stroke-width="0.3501"/>
<path d="M21.0284 32.3682C21.0166 32.4477 21.0217 32.6288 21.031 32.7352C21.0401 32.8416 21.053 32.8732 21.1191 32.9239C21.1851 32.9746 21.3042 33.0445 21.4301 33.1003C21.5561 33.1562 21.6891 33.198 21.8464 33.2177C22.0037 33.2374 22.1851 33.235 22.3479 33.219C22.5107 33.2031 22.6549 33.1736 22.7966 33.1307C22.9386 33.0878 23.0781 33.0316 23.2123 32.9595C23.3466 32.8873 23.4758 32.7994 23.573 32.7002C23.67 32.6009 23.735 32.4904 23.7712 32.4269C23.807 32.3633 23.8139 32.3466 23.8153 32.2706C23.8165 32.1945 23.812 32.0595 23.8098 31.9918C23.8075 31.9243 23.8075 31.9243 23.7914 31.9457C23.7756 31.9672 23.7433 32.0102 23.6923 32.0708C23.6413 32.1315 23.5709 32.2098 23.4433 32.2964C23.3152 32.3829 23.1299 32.4777 22.992 32.5393C22.8542 32.6008 22.7642 32.629 22.6493 32.651C22.5345 32.673 22.3947 32.6885 22.2581 32.6918C22.1213 32.695 21.9879 32.6857 21.8463 32.6595C21.7049 32.6332 21.5554 32.5899 21.4508 32.5474C21.3462 32.5049 21.2862 32.4632 21.2348 32.4277C21.1833 32.3922 21.1407 32.3627 21.105 32.3369C21.0691 32.311 21.0403 32.2888 21.0284 32.3682Z" stroke="#101F52" stroke-width="0.3501"/>
<path d="M21.0286 33.1102C21.0186 33.1899 21.028 33.371 21.0398 33.4771C21.0515 33.5832 21.0655 33.6145 21.1327 33.6635C21.1999 33.7127 21.3206 33.7797 21.4478 33.8324C21.5752 33.8852 21.7092 33.9237 21.8669 33.9396C22.0246 33.9554 22.2059 33.9487 22.3682 33.9288C22.5305 33.9089 22.6741 33.8759 22.8147 33.8296C22.9557 33.7833 23.0938 33.7237 23.2261 33.6483C23.3586 33.5729 23.4855 33.4819 23.5801 33.3803C23.6748 33.2787 23.7373 33.1668 23.7716 33.1023C23.8061 33.0379 23.8128 33.021 23.8122 32.9451C23.8115 32.869 23.8038 32.7339 23.7999 32.6665C23.7961 32.599 23.7961 32.599 23.7804 32.6208C23.7649 32.6427 23.734 32.6865 23.6842 32.7483C23.6347 32.8102 23.5663 32.8901 23.4408 32.9798C23.3149 33.0694 23.1319 33.1687 22.9958 33.2336C22.8594 33.2984 22.77 33.329 22.6557 33.3537C22.5414 33.3785 22.4019 33.3973 22.2656 33.4038C22.1292 33.4104 21.9955 33.4044 21.8534 33.3815C21.7112 33.3588 21.5607 33.3191 21.4549 33.2792C21.3493 33.2392 21.2883 33.199 21.2361 33.1646C21.184 33.1304 21.1405 33.1021 21.1041 33.0771C21.0677 33.0521 21.0384 33.0306 21.0286 33.1102Z" stroke="#101F52" stroke-width="0.3501"/>
<path d="M21.0306 33.8525C21.0227 33.9324 21.0366 34.1132 21.0508 34.2189C21.0652 34.3248 21.0798 34.3557 21.1481 34.4031C21.2165 34.4506 21.3388 34.5146 21.4672 34.5642C21.5958 34.6139 21.731 34.6493 21.8889 34.6613C22.0469 34.6733 22.228 34.6621 22.3898 34.6383C22.5516 34.6145 22.6941 34.578 22.8339 34.5282C22.9733 34.4787 23.11 34.4156 23.2408 34.3371C23.3713 34.2585 23.496 34.1644 23.5882 34.0605C23.6802 33.9567 23.7399 33.8432 23.7729 33.778C23.8056 33.7128 23.8117 33.6956 23.8093 33.6197C23.8069 33.5437 23.7958 33.409 23.7903 33.3415C23.7847 33.2742 23.7847 33.2742 23.77 33.2964C23.755 33.3187 23.7249 33.3632 23.6768 33.4262C23.6287 33.4893 23.5625 33.5709 23.4389 33.6635C23.3154 33.7562 23.1347 33.8599 23.0001 33.9281C22.8654 33.9962 22.7769 34.0288 22.6634 34.0563C22.5497 34.0838 22.4106 34.1062 22.2745 34.116C22.138 34.1259 22.0042 34.1231 21.8617 34.1038C21.7193 34.0843 21.5677 34.0483 21.461 34.011C21.3545 33.9737 21.2925 33.9349 21.2394 33.9019C21.1866 33.8689 21.1424 33.8416 21.1055 33.8175C21.0683 33.7934 21.0385 33.7726 21.0306 33.8525Z" stroke="#101F52" stroke-width="0.3501"/>
<path d="M21.0324 34.5949C21.0263 34.675 21.0447 34.8553 21.0616 34.9607C21.0783 35.0662 21.0936 35.0967 21.1634 35.1424C21.2328 35.1882 21.3565 35.2494 21.4864 35.2958C21.6161 35.3424 21.7516 35.3744 21.9099 35.3825C22.0682 35.3908 22.249 35.3751 22.4101 35.3475C22.5713 35.3197 22.7129 35.2797 22.8513 35.2267C22.9898 35.1736 23.1248 35.1074 23.2535 35.0257C23.3821 34.944 23.5046 34.8468 23.5941 34.7408C23.6837 34.6347 23.7407 34.5198 23.772 34.4538C23.8033 34.3877 23.809 34.3705 23.8045 34.2946C23.8002 34.2189 23.786 34.0843 23.7788 34.0171C23.7717 33.9499 23.7717 33.9499 23.7574 33.9725C23.743 33.995 23.7138 34.0403 23.6674 34.1045C23.621 34.1687 23.5566 34.2519 23.4353 34.3475C23.3142 34.4431 23.1359 34.5512 23.0033 34.6225C22.8701 34.694 22.7823 34.7288 22.6694 34.7589C22.5563 34.7892 22.4181 34.815 22.2821 34.828C22.146 34.8413 22.0123 34.8417 21.8692 34.8258C21.7264 34.81 21.5742 34.7776 21.4666 34.7429C21.359 34.7081 21.296 34.6709 21.2424 34.6392C21.1886 34.6075 21.1438 34.5813 21.1063 34.558C21.0685 34.5349 21.0383 34.5147 21.0324 34.5949Z" stroke="#101F52" stroke-width="0.3501"/>
<path d="M21.1089 35.3369C21.1049 35.4171 21.1275 35.597 21.1469 35.702C21.1663 35.807 21.1823 35.8372 21.2532 35.8812C21.3237 35.9253 21.4489 35.9833 21.5797 36.0266C21.7105 36.07 21.8469 36.0987 22.0053 36.1031C22.164 36.1074 22.3443 36.0874 22.5048 36.0558C22.665 36.0241 22.8058 35.9808 22.9428 35.9244C23.0797 35.8681 23.2132 35.7985 23.3398 35.7136C23.4666 35.6289 23.5865 35.5288 23.6734 35.4206C23.7605 35.3125 23.8147 35.1962 23.8444 35.1294C23.874 35.0626 23.8791 35.0452 23.873 34.9696C23.8668 34.8938 23.8495 34.7597 23.8405 34.6926C23.8317 34.6257 23.8317 34.6257 23.8181 34.6485C23.8042 34.6715 23.7762 34.7174 23.7314 34.7827C23.6862 34.8481 23.624 34.9327 23.5053 35.0313C23.3863 35.1298 23.211 35.2422 23.0797 35.3168C22.9486 35.3914 22.8619 35.4283 22.7495 35.4612C22.6373 35.4942 22.4998 35.5233 22.364 35.5397C22.2284 35.5562 22.0947 35.56 21.9511 35.5475C21.8078 35.5351 21.6549 35.5065 21.5465 35.4744C21.4384 35.4423 21.3746 35.4066 21.3199 35.3761C21.2655 35.3458 21.2198 35.3206 21.1818 35.2984C21.1437 35.2761 21.1129 35.2568 21.1089 35.3369Z" stroke="#101F52" stroke-width="0.3501"/>
<path d="M21.2228 36.0795C21.2205 36.1597 21.2476 36.339 21.2697 36.4435C21.2916 36.548 21.3083 36.5777 21.38 36.6201C21.4517 36.6625 21.5781 36.7174 21.7102 36.7576C21.8418 36.7977 21.9792 36.8231 22.1376 36.8236C22.296 36.8241 22.4758 36.7998 22.6356 36.7642C22.7951 36.7287 22.9346 36.682 23.0703 36.6222C23.2058 36.5625 23.3377 36.4898 23.4621 36.4019C23.5868 36.314 23.7043 36.2111 23.7886 36.1009C23.8729 35.9906 23.9242 35.8731 23.9523 35.8055C23.9802 35.7381 23.9852 35.7206 23.9771 35.6451C23.9691 35.5695 23.9483 35.4359 23.9381 35.3691C23.9276 35.3023 23.9276 35.3023 23.9142 35.3255C23.9009 35.3488 23.8744 35.3954 23.8308 35.4617C23.7875 35.5281 23.7273 35.6144 23.6109 35.7158C23.4946 35.8172 23.3218 35.9338 23.1925 36.0115C23.0631 36.0893 22.9773 36.1282 22.8658 36.1639C22.7544 36.1996 22.6176 36.232 22.4823 36.2518C22.3471 36.2715 22.2135 36.2785 22.0699 36.2695C21.9262 36.2606 21.7728 36.2357 21.6637 36.2062C21.5545 36.1767 21.4899 36.1426 21.4347 36.1135C21.3794 36.0845 21.3332 36.0605 21.2948 36.0391C21.256 36.0178 21.225 35.9992 21.2228 36.0795Z" stroke="#101F52" stroke-width="0.3501"/>
<path d="M21.3369 36.8222C21.3369 36.9025 21.3683 37.081 21.3928 37.185C21.417 37.2889 21.4348 37.3182 21.5075 37.3587C21.5799 37.3993 21.7079 37.4513 21.8406 37.4882C21.9735 37.5252 22.1113 37.5472 22.2696 37.5439C22.428 37.5405 22.6071 37.5118 22.766 37.4724C22.9249 37.433 23.0631 37.3829 23.1973 37.3199C23.3312 37.2569 23.4611 37.181 23.5835 37.0901C23.706 36.9993 23.8208 36.8935 23.9025 36.7812C23.9842 36.669 24.0327 36.5502 24.0591 36.4821C24.0854 36.414 24.0898 36.3964 24.0802 36.321C24.0702 36.2457 24.0462 36.1126 24.0342 36.046C24.0222 35.9795 24.0222 35.9795 24.0094 36.0031C23.9968 36.0267 23.9712 36.0738 23.9293 36.1413C23.8877 36.2087 23.8296 36.2964 23.7156 36.4005C23.6018 36.5047 23.4319 36.6255 23.3047 36.7063C23.1772 36.7873 23.0921 36.8283 22.9816 36.8667C22.8712 36.9051 22.7352 36.9408 22.6004 36.9637C22.4657 36.9868 22.3323 36.997 22.1885 36.9916C22.0447 36.9861 21.8907 36.965 21.7807 36.9381C21.671 36.9114 21.6056 36.8788 21.5496 36.851C21.4936 36.8234 21.4471 36.8004 21.4079 36.7801C21.3688 36.7597 21.3371 36.7419 21.3369 36.8222Z" stroke="#101F52" stroke-width="0.3501"/>
<path d="M21.4532 37.5644C21.4549 37.6446 21.4907 37.8223 21.5175 37.9257C21.5445 38.0289 21.5629 38.0579 21.6367 38.0967C21.7102 38.1355 21.8393 38.1843 21.973 38.218C22.1066 38.2517 22.2449 38.2704 22.4033 38.2632C22.5616 38.256 22.7398 38.2229 22.8975 38.1797C23.0553 38.1365 23.1923 38.0831 23.3249 38.0168C23.4575 37.9506 23.5856 37.8715 23.7057 37.7777C23.8258 37.6839 23.9381 37.5754 24.017 37.4612C24.096 37.3469 24.1414 37.227 24.1661 37.1583C24.1911 37.0895 24.195 37.0719 24.1832 36.9967C24.1715 36.9217 24.1445 36.7892 24.1307 36.723C24.1171 36.6567 24.1171 36.6567 24.1049 36.6807C24.0927 36.7046 24.0685 36.7524 24.0282 36.8208C23.9881 36.8892 23.9322 36.9782 23.8208 37.0851C23.7095 37.1921 23.5427 37.3169 23.4173 37.4008C23.2919 37.4848 23.2079 37.5279 23.0984 37.5689C22.9889 37.61 22.8537 37.649 22.7196 37.6753C22.5857 37.7016 22.4526 37.715 22.3087 37.7131C22.1648 37.7111 22.01 37.6937 21.8997 37.6696C21.7895 37.6454 21.723 37.6144 21.6665 37.5881C21.6099 37.5618 21.5629 37.54 21.5232 37.5206C21.4834 37.5012 21.4516 37.4841 21.4532 37.5644Z" stroke="#101F52" stroke-width="0.3501"/>
<path d="M24.2383 28.5068C24.2558 29.0884 24.2736 29.67 24.3095 29.9985C24.3453 30.3272 24.3993 30.4029 24.5506 30.4974C24.7019 30.5921 24.9507 30.7055 25.264 30.7866C25.5775 30.8677 25.9561 30.9164 26.3586 30.9352C26.7614 30.9542 27.1883 30.9434 27.6288 30.8974C28.0695 30.8515 28.5234 30.7704 28.8804 30.6893C29.2369 30.6083 29.4964 30.5272 29.6721 30.4326C29.8478 30.338 29.9396 30.2299 29.9938 30.165C30.0477 30.1001 30.0639 30.0786 30.0694 29.8516C30.0746 29.6247 30.0689 29.1926 30.0634 28.7604" stroke="#101F52" stroke-width="0.3501"/>
<path d="M26.8124 29.0641C26.8107 28.8946 26.8091 28.725 26.8082 28.6267C26.8075 28.5284 26.8075 28.5014 26.74 28.4906C26.6722 28.4797 26.5372 28.4851 26.2643 28.4824C25.9913 28.4797 25.5805 28.4689 25.3453 28.4527C25.1101 28.4365 25.0507 28.4149 25.0214 28.5029C24.992 28.5909 24.9929 28.7884 24.9933 28.8872C24.9937 28.986 24.9937 28.986 24.9937 28.986" stroke="#101F52" stroke-width="0.3501"/>
<path d="M29.0422 28.855C28.6313 28.9686 28.2204 29.0821 27.8448 29.1848C27.4691 29.2875 27.1287 29.3794 26.799 29.4767C26.4691 29.5739 26.1502 29.6766 25.9016 29.7767C25.653 29.8767 25.4746 29.9739 25.326 30.0766C25.1774 30.1793 25.0584 30.2875 24.9395 30.3955" stroke="#101F52" stroke-width="0.3501"/>
<path d="M21.1729 29.4645C21.1554 29.5428 21.1474 29.7239 21.1486 29.8306C21.1499 29.9374 21.1609 29.9698 21.223 30.0252C21.2851 30.0806 21.3987 30.159 21.5202 30.2238C21.6421 30.2887 21.7715 30.3402 21.9269 30.3712C22.0825 30.4023 22.2634 30.4131 22.4271 30.409C22.5906 30.4051 22.7365 30.386 22.8809 30.3536C23.0255 30.3211 23.1688 30.2753 23.308 30.2131C23.4473 30.151 23.5823 30.0726 23.6863 29.9808C23.7904 29.8888 23.8635 29.7833 23.904 29.7225C23.9447 29.6617 23.9526 29.6455 23.9594 29.5699C23.966 29.4942 23.9715 29.359 23.9743 29.2915C23.977 29.2239 23.977 29.224 23.9594 29.2443C23.9419 29.2645 23.9066 29.3051 23.8512 29.3618C23.7958 29.4186 23.7203 29.4914 23.5865 29.5685C23.4528 29.6455 23.2608 29.7267 23.1188 29.7779C22.977 29.8294 22.885 29.8508 22.769 29.8644C22.6527 29.878 22.5122 29.8834 22.3757 29.8767C22.2392 29.8699 22.1066 29.8508 21.9675 29.8144C21.8285 29.7779 21.6824 29.724 21.5812 29.6739C21.4799 29.624 21.4229 29.5779 21.3743 29.5387C21.3256 29.4995 21.2851 29.4673 21.2515 29.4388C21.2175 29.4104 21.1905 29.3861 21.1729 29.4645Z" stroke="#101F52" stroke-width="0.3501"/>
</svg>
