<svg width="34" height="50" viewBox="0 0 34 50" fill="none" xmlns="http://www.w3.org/2000/svg">
<path d="M16.2884 35.7954C16.2974 35.8278 16.302 35.8608 16.302 35.8941C16.302 36.4652 14.9468 36.9282 13.275 36.9282C11.6032 36.9282 10.248 36.4652 10.248 35.8941" stroke="#fff" stroke-width="0.216"/>
<path d="M14.8227 28.5582C14.8227 28.8 13.874 28.9961 12.7038 28.9961C11.5336 28.9961 10.585 28.8 10.585 28.5582C10.585 28.5536 10.5854 28.549 10.586 28.5444" stroke="#fff" stroke-width="0.216"/>
<path d="M10.2483 35.8941C10.2445 35.7237 10.2407 35.5533 10.2369 35.4094C10.2344 35.316 10.2319 35.2338 10.2346 35.0671M10.5059 30.5822C10.5063 30.5766 10.5067 30.5709 10.5072 30.5653C10.5566 29.9164 10.5909 29.377 10.6013 29.0608C10.6117 28.7445 10.5982 28.6513 10.5847 28.5581" stroke="#fff" stroke-width="0.216"/>
<path d="M14.8223 28.5581C14.8484 28.8262 14.8746 29.0943 14.93 29.4023M16.1855 35.1227C16.2007 35.2163 16.2157 35.305 16.2297 35.3932C16.2563 35.5615 16.2792 35.7277 16.3021 35.8941" stroke="#fff" stroke-width="0.216"/>
<path d="M10.9336 30.4075C10.8803 30.5251 10.827 30.6427 10.7559 30.669C10.6848 30.6954 10.596 30.6306 10.3809 30.513C10.3157 30.4774 10.239 30.4369 10.1543 30.3931" stroke="#fff" stroke-width="0.216"/>
<path d="M9.69238 34.7778C9.83028 34.85 9.95468 34.9157 10.0583 34.9712C10.361 35.1334 10.4873 35.2095 10.6133 35.3084C10.7393 35.4072 10.865 35.5289 10.9906 35.6505" stroke="#fff" stroke-width="0.216"/>
<path d="M11.9961 35.5777C12.5672 34.7504 12.7843 33.9717 12.7043 33.3999" stroke="#fff" stroke-width="0.216"/>
<path d="M16.1855 35.1229C16.1878 34.0206 16.2792 33.826 16.559 33.4914C16.8389 33.1568 17.3072 32.6823 17.6756 32.293C18.044 31.9037 18.3124 31.5996 18.4838 31.4414" stroke="#fff" stroke-width="0.216"/>
<path d="M16.2332 28.9229C15.8106 29.3365 15.5935 29.5007 15.4308 29.5737C15.268 29.6467 15.1595 29.6284 14.9297 29.4022" stroke="#fff" stroke-width="0.216"/>
<path d="M2.4825 27.662C2.8023 27.5404 2.9594 27.5343 3.0788 27.5505C3.1983 27.5667 3.2802 27.6052 3.342 27.6721C3.4039 27.7391 3.4458 27.8344 3.4639 27.9763C3.482 28.1182 3.4763 28.3068 3.4351 28.4767C3.3939 28.6466 3.3173 28.7979 3.205 28.9763C3.0926 29.1548 2.9446 29.3604 2.7869 29.519C2.6291 29.6775 2.4616 29.789 2.3188 29.8286C2.176 29.8681 2.058 29.8357 1.9647 29.7384C1.8714 29.641 1.8028 29.4788 1.7838 29.2913C1.7648 29.1037 1.7952 28.8908 1.8747 28.6383C1.9542 28.3859 2.0827 28.0939 2.334 27.7958" stroke="#fff" stroke-width="0.216"/>
<path d="M2.66556 27.5343C2.99116 27.297 3.19676 27.221 3.35386 27.185C3.51086 27.149 3.61936 27.1531 3.73746 27.1906C3.85546 27.2281 3.98306 27.2991 4.07056 27.4167C4.15816 27.5343 4.20576 27.6985 4.21906 27.8851C4.23246 28.0716 4.21146 28.2805 4.13536 28.5481C4.05916 28.8158 3.92786 29.1422 3.78216 29.4048C3.63656 29.6674 3.47666 29.8661 3.31096 30.0263C3.14536 30.1865 2.97406 30.3081 2.81406 30.4034C2.65416 30.4987 2.50566 30.5677 2.37906 30.6062C2.25246 30.6447 2.14776 30.6528 2.06396 30.6214C1.98026 30.59 1.91746 30.519 1.86026 30.3913C1.80316 30.2635 1.75176 30.079 1.72756 29.9198C1.70326 29.7606 1.70616 29.6268 1.77876 29.2005" stroke="#fff" stroke-width="0.216"/>
<path d="M3.43049 27.1267C3.55229 27.0963 3.67419 27.0659 3.79309 27.0659C3.91209 27.0659 4.02829 27.0963 4.38429 27.2727C4.49349 27.3268 4.62539 27.3948 4.76489 27.468M6.11489 28.2789C6.14799 28.3264 6.18209 28.3871 6.22039 28.4731C6.27469 28.5947 6.33749 28.7671 6.36509 28.9567C6.39269 29.1463 6.38509 29.3531 6.34699 29.5804C6.30879 29.8078 6.23999 30.0556 6.10389 30.3182C5.96779 30.5808 5.76429 30.8581 5.59779 31.0556C5.56039 31.0999 5.52479 31.1403 5.49079 31.1773M4.01939 31.7371C3.96519 31.7232 3.90849 31.7061 3.84839 31.6849C3.67609 31.6241 3.47619 31.5288 3.25149 31.4091C3.02689 31.2895 2.77749 31.1456 2.60329 31.0391C2.42909 30.9327 2.33009 30.8637 2.22819 30.7947C2.12639 30.7258 2.02169 30.6569 1.91699 30.5879" stroke="#fff" stroke-width="0.216"/>
<path d="M4.04159 31.3602C3.73309 31.056 3.71029 30.8553 3.72649 30.686C3.74269 30.5167 3.79789 30.3788 3.88169 30.2723C3.96539 30.1659 4.07779 30.0909 4.21579 30.0392C4.35379 29.9875 4.51749 29.9591 4.67169 29.9672C4.82589 29.9753 4.97059 30.0199 5.07439 30.0807C5.17809 30.1416 5.24099 30.2186 5.28469 30.321C5.32849 30.4234 5.35329 30.5511 5.36379 30.6627C5.37419 30.7742 5.37039 30.8695 5.37419 30.9374C5.37799 31.0053 5.38939 31.0459 5.41609 31.0875C5.44279 31.129 5.48459 31.1716 5.55699 31.2446C5.62929 31.3176 5.73209 31.421 5.82449 31.5254C5.91679 31.6299 5.99869 31.7353 6.06529 31.8468C6.13189 31.9584 6.18329 32.076 6.21569 32.2088C6.24809 32.3416 6.26139 32.4896 6.22709 32.6569C6.19279 32.8241 6.11099 33.0107 6.02629 33.1577C5.94149 33.3047 5.85399 33.4122 5.76929 33.4943C5.68449 33.5764 5.60269 33.6332 5.50369 33.6727C5.40469 33.7123 5.28859 33.7346 5.15529 33.7386C5.02199 33.7427 4.87159 33.7285 4.72119 33.6849C4.57079 33.6413 4.42039 33.5683 4.29949 33.474C4.17869 33.3797 4.08729 33.2642 4.03019 33.1182C3.97299 32.9722 3.95019 32.7958 3.94159 32.6396C3.93309 32.4835 3.93879 32.3476 3.94919 32.2351C3.95969 32.1226 3.97489 32.0334 3.99399 31.9097C4.01299 31.786 4.03589 31.6278 4.04159 31.5062" stroke="#fff" stroke-width="0.216"/>
<path d="M3.34032 31.4558C2.71112 32.0965 2.54842 32.3976 2.41842 32.6587C2.28852 32.9198 2.19142 33.1408 2.08192 33.3304C1.97252 33.5199 1.85062 33.6781 1.71742 33.7815C1.58412 33.8849 1.43942 33.9336 1.27762 33.9468C1.11582 33.9599 0.936817 33.9376 0.803517 33.8981C0.670317 33.8586 0.582716 33.8018 0.507516 33.743C0.432316 33.6842 0.369517 33.6234 0.305717 33.5412C0.241917 33.4591 0.177217 33.3557 0.142017 33.2127C0.106817 33.0698 0.101116 32.8873 0.116316 32.72C0.131516 32.5527 0.167717 32.4007 0.219117 32.2749C0.270517 32.1492 0.337117 32.0499 0.415217 31.9708C0.493217 31.8917 0.582716 31.8329 0.680816 31.7853C0.778816 31.7376 0.885416 31.7011 0.987316 31.6575C1.08912 31.6139 1.18622 31.5632 1.29762 31.4999C1.40902 31.4365 1.53462 31.3605 2.07322 30.6909" stroke="#fff" stroke-width="0.216"/>
<path d="M4.68164 27.4611C4.68164 27.7044 4.73594 27.8991 4.81444 28.0704C4.89304 28.2418 4.99584 28.3898 5.10244 28.5003C5.20904 28.6108 5.31944 28.6838 5.42324 28.7284C5.52694 28.773 5.62404 28.7892 5.68974 28.7923C5.75544 28.7953 5.78974 28.7852 5.82204 28.7619C5.85444 28.7386 5.88494 28.7021 5.90964 28.6554C5.93444 28.6088 5.95344 28.552 6.00674 28.4567C6.06004 28.3614 6.14764 28.2276 6.23044 28.1039C6.31324 27.9802 6.39134 27.8667 6.48074 27.7724C6.57024 27.6781 6.67114 27.603 6.81114 27.525C6.95104 27.4469 7.12994 27.3658 7.28984 27.2695C7.44984 27.1732 7.59064 27.0617 7.70774 26.9512C7.82484 26.8407 7.91814 26.7312 7.99234 26.6156C8.06664 26.5 8.12184 26.3783 8.15134 26.2465C8.18084 26.1147 8.18464 25.9728 8.17324 25.841C8.16184 25.7092 8.13514 25.5875 8.09044 25.4821C8.04564 25.3767 7.98284 25.2874 7.91904 25.2104C7.85534 25.1333 7.79054 25.0684 7.71254 25.0157C7.63444 24.963 7.54304 24.9225 7.43934 24.8951C7.33554 24.8677 7.21944 24.8535 7.10044 24.8545C6.98144 24.8556 6.85964 24.8718 6.73964 24.9083C6.61974 24.9448 6.50174 25.0015 6.39794 25.0816C6.29424 25.1617 6.20474 25.2651 6.12664 25.3898C6.04864 25.5145 5.98194 25.6605 5.89914 25.8369C5.81634 26.0134 5.71734 26.2202 5.66124 26.354C5.60504 26.4878 5.59174 26.5487 5.42514 26.7631C5.25854 26.9775 4.93874 27.3455 4.79424 27.4831" stroke="#fff" stroke-width="0.216"/>
<path d="M4.242 27.1327C4.2934 26.4453 4.2306 26.2446 4.1249 26.0763C4.0193 25.908 3.8708 25.7721 3.7147 25.6849C3.5586 25.5978 3.3948 25.5592 3.2349 25.5572C3.075 25.5552 2.9189 25.5896 2.7761 25.6586C2.6333 25.7275 2.5039 25.8309 2.3963 25.9759C2.2888 26.1209 2.2031 26.3074 2.1564 26.4565C2.1098 26.6055 2.1022 26.717 2.105 26.8316C2.1079 26.9462 2.1212 27.0638 2.1431 27.1591C2.165 27.2544 2.1955 27.3274 2.2307 27.3852C2.2659 27.4429 2.3059 27.4855 2.3502 27.5281C2.3944 27.5707 2.443 27.6133 2.5115 27.664" stroke="#fff" stroke-width="0.216"/>
<path d="M6.0791 33.0603C6.332 33.392 6.6062 33.5897 6.8527 33.7524C7.0992 33.9152 7.3182 34.0429 7.4829 34.122C7.6475 34.2011 7.758 34.2315 7.8884 34.2335C8.0188 34.2355 8.1692 34.2092 8.3348 34.1433C8.5004 34.0774 8.6813 33.9719 8.8421 33.8452C9.003 33.7185 9.1439 33.5705 9.2971 33.3778C9.4504 33.1852 9.616 32.9479 9.7455 32.7277C9.8749 32.5075 9.9681 32.3042 10.0386 32.1085C10.109 31.9129 10.1566 31.7248 10.1852 31.4949C10.2138 31.265 10.2233 30.9933 10.2186 30.8007C10.2138 30.608 10.1948 30.4945 10.1453 30.3688C10.0958 30.2431 10.0158 30.1052 9.9435 30.015C9.8711 29.9247 9.8064 29.8821 9.677 29.8132C9.5475 29.7443 9.3533 29.649 9.1648 29.5608C8.9763 29.4725 8.7936 29.3914 8.647 29.3438C8.5004 29.2961 8.39 29.282 8.2177 29.2647C8.0454 29.2475 7.8112 29.2272 7.5599 29.1674C7.3087 29.1076 7.0402 29.0082 6.8132 28.9129C6.5862 28.8176 6.4006 28.7264 6.2961 28.668" stroke="#fff" stroke-width="0.216"/>
<path d="M15.5566 29.4018C15.5623 29.1037 15.6108 28.9972 15.6818 28.9318C15.7527 28.8664 15.846 28.8421 15.9754 28.8523C16.1049 28.8624 16.2705 28.907 16.4742 29.0175C16.6779 29.128 16.9197 29.3044 17.1253 29.4798C17.3309 29.6552 17.5004 29.8296 17.6431 29.9969C17.7859 30.1642 17.902 30.3243 18.0087 30.4896C18.1153 30.6549 18.2124 30.8252 18.2895 30.9854C18.3666 31.1456 18.4237 31.2956 18.4637 31.4233C18.5036 31.5511 18.5265 31.6565 18.5351 31.7417C18.5436 31.8268 18.5379 31.8917 18.5084 31.9465C18.4789 32.0012 18.4256 32.0458 18.3704 32.0701C18.3152 32.0945 18.2581 32.0985 18.2019 32.0955C18.1457 32.0925 18.0905 32.0823 18.0286 32.0696C17.9668 32.057 17.8982 32.0418 17.8982 32.0418" stroke="#fff" stroke-width="0.216"/>
<path d="M15.6094 29.4335C15.615 29.1436 15.6622 29.0401 15.7311 28.9765C15.8001 28.9129 15.8908 28.8892 16.0167 28.8991C16.1426 28.909 16.3037 28.9523 16.5018 29.0598C16.6999 29.1673 16.935 29.3388 17.135 29.5094C17.3349 29.68 17.4997 29.8496 17.6386 30.0122C17.7774 30.1749 17.8904 30.3307 17.9941 30.4914C18.0977 30.6521 18.1922 30.8178 18.2671 30.9736C18.3421 31.1294 18.3977 31.2753 18.4366 31.3995C18.4754 31.5237 18.4976 31.6263 18.506 31.7091C18.5143 31.7919 18.5088 31.855 18.4801 31.9082C18.4514 31.9615 18.3995 32.0049 18.3458 32.0285C18.2921 32.0522 18.2366 32.0561 18.182 32.0532C18.1274 32.0502 18.0737 32.0404 18.0135 32.028C17.9533 32.0157 17.8867 32.0009 17.8867 32.0009" stroke="#fff" stroke-width="0.216"/>
<path d="M15.6152 29.0043C15.8134 28.7387 16.059 28.5167 16.2218 28.3732C16.3846 28.2298 16.4645 28.1649 16.553 28.1081C16.6416 28.0514 16.7387 28.0027 16.8862 27.9297C17.0337 27.8567 17.2317 27.7594 17.4602 27.6144C17.6886 27.4694 17.9475 27.2768 18.1617 27.0943C18.3759 26.9118 18.5453 26.7395 18.6786 26.6239C18.8119 26.5083 18.9089 26.4495 18.967 26.416C19.0251 26.3826 19.0441 26.3745 19.0812 26.3684C19.1184 26.3623 19.1736 26.3583 19.2583 26.3765C19.343 26.3948 19.4572 26.4353 19.5667 26.4941C19.6762 26.5529 19.7809 26.63 19.8894 26.7212C19.9979 26.8125 20.1102 26.9179 20.2073 27.0162C20.3044 27.1146 20.3863 27.2058 20.4662 27.3123C20.5462 27.4187 20.6243 27.5404 20.6652 27.6063C20.7061 27.6722 20.7099 27.6823 20.7356 27.7411C20.7613 27.7999 20.8089 27.9074 20.8403 28.0017C20.8717 28.0959 20.887 28.1771 20.8975 28.2541C20.9079 28.3312 20.9136 28.4042 20.907 28.4792C20.9003 28.5542 20.8813 28.6313 20.8546 28.687C20.8279 28.7428 20.7937 28.7772 20.7508 28.8188C20.708 28.8604 20.6566 28.909 20.5995 28.9537C20.5424 28.9983 20.4796 29.0388 20.4139 29.0854C20.3482 29.1321 20.2797 29.1848 20.1749 29.3298C20.0702 29.4748 19.9294 29.712 19.8275 29.8996C19.7257 30.0871 19.6628 30.225 19.5867 30.3892C19.5105 30.5535 19.4211 30.7441 19.3392 30.8941C19.2573 31.0442 19.1831 31.1537 19.1003 31.2692C19.0175 31.3848 18.9261 31.5065 18.8537 31.5947C18.7814 31.6829 18.7281 31.7376 18.68 31.7939C18.6319 31.8502 18.5891 31.908 18.4485 32.0201" stroke="#fff" stroke-width="0.216"/>
<path d="M18.7002 26.5644C18.7098 26.4813 18.7193 26.3981 18.7669 26.2907C18.8145 26.1832 18.9001 26.0514 19.0353 25.8831C19.1705 25.7148 19.3551 25.51 19.5056 25.3519C19.6559 25.1937 19.7721 25.0822 19.9054 24.9818C20.0386 24.8814 20.189 24.7922 20.288 24.7334C20.3349 24.7056 20.3702 24.6846 20.4016 24.6675M22.1133 25.5141C22.198 25.6439 22.2253 25.7027 22.2647 25.7889C22.3041 25.875 22.3555 25.9885 22.3955 26.0869C22.4354 26.1852 22.464 26.2684 22.4906 26.3708C22.5173 26.4731 22.542 26.5948 22.5582 26.6759C22.5744 26.757 22.582 26.7976 22.583 26.8412C22.584 26.8848 22.5782 26.9314 22.5525 26.9801C22.5268 27.0287 22.4811 27.0794 22.4326 27.1281C22.3841 27.1768 22.3326 27.2234 22.3003 27.2578C22.2679 27.2923 22.2546 27.3146 22.1385 27.4464C22.0223 27.5782 21.8034 27.8195 21.6568 27.9807C21.5102 28.1419 21.436 28.223 21.3589 28.3021C21.2818 28.3812 21.2018 28.4582 21.1428 28.514C21.0838 28.5697 21.0457 28.6042 21.0124 28.6316C20.9791 28.6589 20.9505 28.6793 20.9204 28.6952C20.8902 28.7112 20.8586 28.723 20.8269 28.7347" stroke="#fff" stroke-width="0.216"/>
<path d="M18.7393 26.3649C18.9753 26.2418 19.1295 26.2144 19.2513 26.2159C19.3732 26.2175 19.4626 26.2479 19.5978 26.329C19.733 26.4101 19.9138 26.5419 20.0652 26.6676C20.2165 26.7933 20.3384 26.913 20.4517 27.0539C20.5649 27.1948 20.6697 27.357 20.7429 27.4949C20.8162 27.6328 20.8581 27.7463 20.8962 27.8558C20.9343 27.9653 20.9685 28.0708 20.9904 28.161C21.0123 28.2512 21.0218 28.3262 21.0221 28.4213C21.0223 28.5163 21.0133 28.6314 20.9213 28.695" stroke="#fff" stroke-width="0.216"/>
<path d="M20.2996 25.6455C20.2311 25.9192 20.2853 26.0956 20.3715 26.2315C20.4576 26.3673 20.5756 26.4626 20.707 26.5235C20.8384 26.5843 20.9831 26.6106 21.1039 26.5975C21.2248 26.5843 21.3219 26.5316 21.3971 26.4657C21.4723 26.3998 21.5256 26.3207 21.5561 26.2558C21.5866 26.1909 21.5942 26.1402 21.598 26.0986C21.6018 26.0571 21.6018 26.0246 21.6398 25.98C21.6779 25.9354 21.7541 25.8786 21.8226 25.8188C21.8912 25.759 21.9521 25.6962 22.0121 25.6313C22.072 25.5664 22.131 25.4995 22.1805 25.4153C22.23 25.3312 22.27 25.2298 22.2919 25.1294C22.3138 25.0291 22.3176 24.9297 22.3109 24.8354C22.3043 24.7411 22.2871 24.6519 22.2519 24.5627C22.2167 24.4735 22.1634 24.3843 22.1101 24.3123C22.0568 24.2403 22.0035 24.1856 21.9292 24.1318C21.855 24.0781 21.7598 24.0254 21.6732 23.9858C21.5866 23.9463 21.5085 23.9199 21.4152 23.9057C21.3219 23.8915 21.2134 23.8895 21.1192 23.9037C21.0249 23.9179 20.945 23.9483 20.8603 23.997C20.7755 24.0457 20.6861 24.1126 20.6185 24.1896C20.5509 24.2667 20.5052 24.3538 20.4713 24.4359C20.4374 24.518 20.4152 24.5949 20.3981 24.6862C20.381 24.7774 20.3688 24.8829 20.3675 24.9712C20.3662 25.0595 20.3758 25.1304 20.3853 25.1913C20.3948 25.2521 20.4043 25.3028 20.411 25.3494C20.4176 25.3961 20.4214 25.4386 20.4191 25.4904C20.4167 25.5421 20.4081 25.6029 20.3624 25.6394" stroke="#fff" stroke-width="0.216"/>
<path d="M20.4766 25.5181C20.6936 25.8344 20.8392 25.9196 20.9739 25.9764C21.1086 26.0331 21.2324 26.0615 21.3385 26.0712C21.4446 26.0808 21.5331 26.0717 21.6077 26.0351" stroke="#fff" stroke-width="0.216"/>
<path d="M19.8457 25.0288C19.0608 24.3196 19.0208 24.2162 18.9513 24.0874C18.8818 23.9587 18.7828 23.8046 18.6676 23.6545C18.5524 23.5045 18.4211 23.3585 18.2907 23.2652C18.1603 23.1719 18.0308 23.1314 17.909 23.1212C17.7871 23.1111 17.6729 23.1314 17.5539 23.181C17.4349 23.2307 17.3112 23.3098 17.2141 23.4223C17.117 23.5349 17.0466 23.6809 17.0056 23.837C16.9647 23.9931 16.9533 24.1594 16.9771 24.3013C17.0009 24.4433 17.0599 24.5609 17.1313 24.6572C17.2027 24.7535 17.2864 24.8285 17.4073 24.9046C17.5282 24.9806 17.6862 25.0576 17.8233 25.1164C17.9604 25.1752 18.0765 25.2158 18.1717 25.2624C18.2669 25.3091 18.3411 25.3618 18.4201 25.4307C18.4991 25.4997 18.5829 25.5848 18.6448 25.6446C18.7067 25.7045 18.7466 25.7389 18.7742 25.7653C18.8019 25.7917 18.8171 25.8099 18.8404 25.8388C18.8637 25.8677 18.8951 25.9072 18.9622 25.9777" stroke="#fff" stroke-width="0.216"/>
<path d="M18.145 25.25L18.1416 25.2485" stroke="#fff" stroke-width="0.216"/>
<path d="M17.4668 24.9405C17.673 24.8672 17.8558 24.6726 18.009 24.5013C18.1623 24.3299 18.286 24.1819 18.3812 24.0643C18.4764 23.9467 18.543 23.8595 18.5806 23.8037C18.6182 23.748 18.6268 23.7236 18.635 23.6128" stroke="#fff" stroke-width="0.216"/>
<path d="M21.3594 28.3017C21.7848 28.7417 21.9619 28.9181 22.1113 29.1097C22.2608 29.3013 22.3826 29.5081 22.514 29.6845C22.6453 29.8609 22.7862 30.0069 22.9328 30.1185C23.0794 30.23 23.2317 30.307 23.3973 30.3333C23.563 30.3597 23.7419 30.3354 23.8885 30.2645C24.0351 30.1935 24.1493 30.0759 24.2198 29.9339C24.2902 29.792 24.3168 29.6257 24.3226 29.4554C24.3283 29.2851 24.313 29.1107 24.2464 28.9586C24.1798 28.8066 24.0617 28.6767 23.8999 28.5571C23.7381 28.4374 23.5325 28.3279 23.3592 28.2428C23.186 28.1576 23.0451 28.0969 22.8833 27.9773C22.7215 27.8576 22.5387 27.6792 22.4134 27.5528C22.2881 27.4264 22.2203 27.3521 22.2203 27.3521" stroke="#fff" stroke-width="0.216"/>
<path d="M22.589 29.7808C22.5845 29.4962 22.6816 29.2589 22.7816 29.0795C22.8815 28.9 22.9843 28.7784 23.0776 28.6912C23.1709 28.604 23.2546 28.5513 23.3709 28.4974C23.4871 28.4434 23.6358 28.3883 23.7858 28.4788" stroke="#fff" stroke-width="0.216"/>
<path d="M9.69286 34.778L8.33496 34.1431" stroke="#fff" stroke-width="0.216"/>
<path d="M5.84766 25.9455C5.97576 25.6734 5.87676 25.8838 5.86896 26.0604C5.86116 26.2369 5.94466 26.3796 6.07396 26.5076C6.20326 26.6357 6.37835 26.7493 6.56495 26.8364C6.75155 26.9236 6.94945 26.9845 7.13815 27.034C7.32685 27.0836 7.50626 27.1219 7.70736 26.9511" stroke="#fff" stroke-width="0.216"/>
<path d="M5.74882 31.4425C5.29682 31.4251 5.03982 31.4738 4.75432 31.562C4.46872 31.6502 4.15452 31.7779 3.94922 32.2352" stroke="#fff" stroke-width="0.216"/>
<path d="M0.541016 31.8659C0.987716 31.6572 1.20652 31.7723 1.39592 31.8926C1.58532 32.013 1.74522 32.1387 1.85182 32.2584C1.95842 32.378 2.01172 32.4915 2.05262 32.6031C2.09362 32.7146 2.12212 32.8241 2.14882 33.2089" stroke="#fff" stroke-width="0.216"/>
<path d="M14.8854 27.8657C14.8854 28.0988 13.9127 28.2878 12.7127 28.2878C11.5127 28.2878 10.54 28.0988 10.54 27.8657" stroke="#fff" stroke-width="0.216"/>
<path d="M10.54 27.8657L10.5892 28.5845" stroke="#fff" stroke-width="0.216"/>
<path d="M14.8849 27.8657L14.8223 28.5664" stroke="#fff" stroke-width="0.216"/>
<path d="M14.3156 25.7671C14.3566 25.7836 14.3945 25.8008 14.4292 25.8186M14.5963 25.9318C14.5997 25.9351 14.6032 25.9385 14.6064 25.9418M14.6128 26.2375C14.606 26.2449 14.5987 26.2522 14.5909 26.2595M10.8223 25.9638C10.8519 25.9277 10.8937 25.8928 10.9464 25.8597" stroke="#fff" stroke-width="0.216"/>
<path d="M14.0781 25.8594C14.1292 25.8754 14.1772 25.8923 14.2217 25.9099M14.5926 26.2392C14.5926 26.246 14.5922 26.2529 14.5914 26.2597M10.876 25.9967C10.9303 25.9642 10.9952 25.9333 11.0694 25.9046" stroke="#fff" stroke-width="0.216"/>
<path d="M14.3196 28.1143C14.0309 28.31 13.3843 28.4464 12.6329 28.4464C11.6795 28.4464 10.8946 28.2267 10.7959 27.9448" stroke="#fff" stroke-width="0.216"/>
<path d="M12.1813 37.2559C12.4487 37.2559 12.6655 37.4345 12.6655 37.6549C12.6655 37.8753 12.4487 38.054 12.1813 38.054C11.914 38.054 11.6973 37.8753 11.6973 37.6549C11.6973 37.4345 11.914 37.2559 12.1813 37.2559Z" stroke="#fff" stroke-width="0.216"/>
<path d="M12.6658 44.0332C12.6658 44.1199 12.6322 44.2002 12.5752 44.2657" stroke="#fff" stroke-width="0.216"/>
<path d="M11.6973 37.6548V40.2748M11.6973 41.4678V41.9351" stroke="#fff" stroke-width="0.216"/>
<path d="M12.665 37.6548V39.6458M12.665 40.8332V42.0565M12.665 43.0021V44.0329" stroke="#fff" stroke-width="0.216"/>
<path d="M12.6656 43.0024C12.6575 43.0335 12.6452 43.0633 12.6289 43.0913" stroke="#fff" stroke-width="0.216"/>
<path d="M12.6445 42.1021C12.6455 42.1058 12.6464 42.1096 12.6472 42.1133" stroke="#fff" stroke-width="0.216"/>
<path d="M11.7414 42.0189C11.6997 41.96 11.6758 41.8914 11.6758 41.8184" stroke="#fff" stroke-width="0.216"/>
<path d="M12.6705 41.3682C12.6774 41.395 12.681 41.423 12.681 41.4515C12.681 41.6718 12.4643 41.8505 12.1969 41.8505C11.9296 41.8505 11.7129 41.6718 11.7129 41.4515" stroke="#fff" stroke-width="0.216"/>
<path d="M12.6601 41.001C12.667 41.0279 12.6707 41.0558 12.6707 41.0843C12.6707 41.3047 12.4539 41.4834 12.1866 41.4834C12.0413 41.4834 11.9109 41.4307 11.8223 41.3471" stroke="#fff" stroke-width="0.216"/>
<path d="M12.6359 40.8433C12.5722 41.0023 12.3904 41.117 12.1763 41.117C12.1593 41.117 12.1425 41.1162 12.126 41.1148" stroke="#fff" stroke-width="0.216"/>
<path d="M12.6441 39.9224C12.651 39.9493 12.6546 39.9772 12.6546 40.0057C12.6546 40.2261 12.4379 40.4048 12.1706 40.4048C11.9033 40.4048 11.6865 40.2261 11.6865 40.0057" stroke="#fff" stroke-width="0.216"/>
<path d="M12.6627 39.4902C12.6696 39.517 12.6732 39.5449 12.6732 39.5734C12.6732 39.7938 12.4565 39.9725 12.1891 39.9725C11.9218 39.9725 11.7051 39.7938 11.7051 39.5734" stroke="#fff" stroke-width="0.216"/>
<path d="M12.6519 39.1958C12.6588 39.2227 12.6624 39.2506 12.6624 39.2791C12.6624 39.4995 12.4457 39.6782 12.1783 39.6782C11.911 39.6782 11.6943 39.4995 11.6943 39.2791" stroke="#fff" stroke-width="0.216"/>
<path d="M12.6519 38.749C12.6588 38.7759 12.6624 38.8038 12.6624 38.8323C12.6624 39.0527 12.4457 39.2314 12.1783 39.2314C11.911 39.2314 11.6943 39.0527 11.6943 38.8323" stroke="#fff" stroke-width="0.216"/>
<path d="M12.6519 38.2266C12.6588 38.2534 12.6624 38.2813 12.6624 38.3098C12.6624 38.5302 12.4457 38.7089 12.1783 38.7089C11.911 38.7089 11.6943 38.5302 11.6943 38.3098" stroke="#fff" stroke-width="0.216"/>
<path d="M12.896 46.52C11.1151 46.2149 9.7998 45.1444 9.7998 43.8708C9.7998 43.6218 9.85011 43.3804 9.94431 43.1512M11.5547 41.6332C11.6121 41.6063 11.6707 41.5804 11.7302 41.5556M12.6107 41.2779C13.0269 41.1849 13.4727 41.1343 13.9364 41.1343C15.2372 41.1343 16.3979 41.5315 17.1562 42.1526M17.7118 42.7509C17.9439 43.0926 18.073 43.4717 18.073 43.8708C18.073 43.9963 18.0601 44.12 18.0354 44.2411" stroke="#fff" stroke-width="0.216"/>
<path d="M18.0328 43.9189C18.0593 44.0441 18.073 44.1718 18.073 44.3017C18.073 44.3474 18.0713 44.393 18.068 44.4381M12.666 46.9069C11.0029 46.5522 9.7998 45.5198 9.7998 44.3017C9.7998 44.2293 9.8041 44.1573 9.8124 44.0862" stroke="#fff" stroke-width="0.216"/>
<path d="M13.0599 46.0279C12.0671 45.7142 11.3659 45.0613 11.2988 44.2958M11.5031 43.4319C11.7344 43.0384 12.1438 42.7035 12.6659 42.4712" stroke="#fff" stroke-width="0.216"/>
<path d="M11.3262 44.4764C11.332 44.4503 11.3386 44.4245 11.3458 44.3989M11.6968 43.7647C12.2303 43.1442 13.2391 42.7256 14.3954 42.7256C15.6682 42.7256 16.762 43.2328 17.2404 43.9581M12.8128 46.5438C12.7532 46.5204 12.6951 46.4957 12.6382 46.4698" stroke="#fff" stroke-width="0.216"/>
<path d="M12.6658 45.8883C12.6712 45.8883 12.6768 45.8882 12.6823 45.8882C12.9388 45.8882 13.1467 46.038 13.1467 46.2228C13.1467 46.3749 13.0059 46.5033 12.8133 46.544M12.2801 46.3901C12.2765 46.3855 12.2729 46.3809 12.2695 46.3762" stroke="#fff" stroke-width="0.216"/>
<path d="M18.032 43.9189C18.0597 43.9609 18.0753 44.0083 18.0753 44.0582C18.0753 44.2339 17.8835 44.3763 17.6469 44.3763C17.4104 44.3763 17.2188 44.2339 17.2188 44.0582C17.2188 44.0233 17.2263 43.9897 17.2403 43.9583" stroke="#fff" stroke-width="0.216"/>
<path d="M18.018 44.2173C18.0544 44.2641 18.0753 44.3185 18.0753 44.3763C18.0753 44.5521 17.8835 44.6946 17.6469 44.6946C17.4104 44.6946 17.2188 44.5521 17.2188 44.3763C17.2188 44.3185 17.2397 44.2642 17.2761 44.2174" stroke="#fff" stroke-width="0.216"/>
<path d="M13.0847 46.39C13.1243 46.4393 13.1469 46.4965 13.1469 46.5574C13.1469 46.7422 12.939 46.8921 12.6825 46.8921C12.677 46.8921 12.6714 46.892 12.666 46.8919M12.2803 46.39C12.2827 46.3871 12.2851 46.3841 12.2876 46.3813" stroke="#fff" stroke-width="0.216"/>
<path d="M12.6546 41.9229C12.6645 41.9502 12.67 41.9789 12.67 42.0086C12.67 42.1933 12.462 42.3433 12.2056 42.3433C11.9491 42.3433 11.7412 42.1933 11.7412 42.0086C11.7412 41.9963 11.7421 41.9842 11.7439 41.9724" stroke="#fff" stroke-width="0.216"/>
<path d="M17.2188 44.0581L17.229 44.4457" stroke="#fff" stroke-width="0.216"/>
<path d="M13.1464 46.2227L13.1455 46.5787" stroke="#fff" stroke-width="0.216"/>
<path d="M12.6659 42.4669C13.1231 42.3089 13.6606 42.2178 14.2359 42.2178C15.899 42.2178 17.2471 42.9792 17.2471 43.9186C17.2471 43.994 17.2384 44.0683 17.2216 44.1411M11.3464 44.399C11.3288 44.3649 11.3128 44.3305 11.2988 44.2955" stroke="#fff" stroke-width="0.216"/>
<path d="M11.8037 42.176C11.8178 42.1584 11.8341 42.1418 11.8523 42.1265" stroke="#fff" stroke-width="0.216"/>
<path d="M12.8179 44.9127C11.037 44.6076 9.72168 43.5371 9.72168 42.2635C9.72168 41.276 10.5124 40.4107 11.6976 39.9295M12.6658 39.6424C13.0433 39.5673 13.4438 39.5269 13.8583 39.5269C16.1429 39.5269 17.9949 40.7522 17.9949 42.2635C17.9949 42.3891 17.9821 42.5126 17.9574 42.6337" stroke="#fff" stroke-width="0.216"/>
<path d="M17.9541 42.3115C17.9688 42.3811 17.9796 42.4517 17.9862 42.5228" stroke="#fff" stroke-width="0.216"/>
<path d="M12.9811 44.4202C11.9365 44.09 11.2148 43.3843 11.2148 42.5673C11.2148 41.8576 11.7593 41.2318 12.5872 40.8633" stroke="#fff" stroke-width="0.216"/>
<path d="M11.248 42.869C11.2537 42.843 11.2603 42.8171 11.2675 42.7915M12.7345 44.9365C12.675 44.9131 12.6168 44.8884 12.56 44.8625" stroke="#fff" stroke-width="0.216"/>
<path d="M12.5878 44.281C12.5931 44.2808 12.5987 44.2808 12.6042 44.2808C12.8607 44.2808 13.0686 44.4306 13.0686 44.6154C13.0686 44.7675 12.9279 44.8959 12.7352 44.9365M12.202 44.7827C12.1985 44.7782 12.1948 44.7735 12.1914 44.7688" stroke="#fff" stroke-width="0.216"/>
<path d="M17.954 42.3115C17.9816 42.3535 17.9971 42.4008 17.9971 42.4509C17.9971 42.6265 17.8054 42.769 17.5689 42.769C17.3323 42.769 17.1406 42.6265 17.1406 42.4509C17.1406 42.4159 17.1482 42.3823 17.1622 42.3508" stroke="#fff" stroke-width="0.216"/>
<path d="M17.9404 42.6099C17.9464 42.6176 17.9521 42.6256 17.9572 42.6336" stroke="#fff" stroke-width="0.216"/>
<path d="M12.2021 44.7822C12.2046 44.7793 12.2069 44.7763 12.2095 44.7734" stroke="#fff" stroke-width="0.216"/>
<path d="M11.6973 40.2748C11.7113 40.2498 11.7297 40.2261 11.7514 40.2046" stroke="#fff" stroke-width="0.216"/>
<path d="M17.1406 42.4507L17.1428 42.5335" stroke="#fff" stroke-width="0.216"/>
<path d="M12.5879 40.8596C13.045 40.7017 13.5826 40.6104 14.1578 40.6104C15.8208 40.6104 17.169 41.3719 17.169 42.3113C17.169 42.3867 17.1603 42.461 17.1435 42.5337M11.2683 42.7915C11.2507 42.7575 11.2347 42.7231 11.2207 42.6882" stroke="#fff" stroke-width="0.216"/>
<path d="M14.5841 45.084L15.0523 45.2122L15.5207 45.3405V45.5971V45.8536L15.0523 45.9819L14.5841 46.1101L14.1158 45.9819L13.6475 45.8536V45.5971V45.3405L14.1158 45.2122L14.5841 45.084Z" stroke="#fff" stroke-width="0.216"/>
<path d="M15.5207 48.3574V48.6139V48.8704L15.0523 48.9988L14.5841 49.127L14.1158 48.9988L13.6475 48.8704V48.6139V48.3574" stroke="#fff" stroke-width="0.216"/>
<path d="M13.6475 45.854V48.8706" stroke="#fff" stroke-width="0.216"/>
<path d="M14.584 46.1104V49.1271" stroke="#fff" stroke-width="0.216"/>
<path d="M15.5205 45.854V48.8706" stroke="#fff" stroke-width="0.216"/>
<path d="M14.5682 45.3398C14.8356 45.3398 15.0524 45.4643 15.0524 45.6178C15.0524 45.7713 14.8356 45.8957 14.5682 45.8957C14.3008 45.8957 14.084 45.7713 14.084 45.6178C14.084 45.4643 14.3008 45.3398 14.5682 45.3398Z" stroke="#fff" stroke-width="0.216"/>
<path d="M12.6443 41.811C12.658 41.8316 12.6654 41.8537 12.6654 41.8764C12.6654 41.9183 12.6404 41.9574 12.5969 41.9909M11.7442 41.9724C11.7142 41.9434 11.6973 41.9108 11.6973 41.8764" stroke="#fff" stroke-width="0.216"/>
<path d="M12.6762 40.4233C12.6762 40.5628 12.4571 40.6755 12.1867 40.6755C11.9164 40.6755 11.6973 40.5628 11.6973 40.4238" stroke="#fff" stroke-width="0.216"/>
<path d="M12.665 37.7207L12.6757 40.424" stroke="#fff" stroke-width="0.216"/>
<path d="M11.6973 37.7114V40.4242" stroke="#fff" stroke-width="0.216"/>
<path d="M12.6108 43.0996C12.646 43.1377 12.6658 43.1812 12.6658 43.2273C12.6658 43.3788 12.4516 43.5015 12.1874 43.5015C12.119 43.5015 12.0539 43.4931 11.9951 43.4784" stroke="#fff" stroke-width="0.216"/>
<path d="M12.1103 44.7439C12.143 44.74 12.177 44.7378 12.2118 44.7378C12.476 44.7378 12.6902 44.8605 12.6902 45.0119C12.6902 45.1633 12.476 45.2861 12.2118 45.2861C11.9476 45.2861 11.7334 45.1633 11.7334 45.0119" stroke="#fff" stroke-width="0.216"/>
<path d="M11.7327 45.0122L11.7109 44.603" stroke="#fff" stroke-width="0.216"/>
<path d="M12.6653 43.5469C12.6728 43.5663 12.6768 43.5864 12.6768 43.6071C12.6768 43.7586 12.4626 43.8813 12.1984 43.8813C11.9941 43.8813 11.8196 43.8079 11.751 43.7045" stroke="#fff" stroke-width="0.216"/>
<path d="M14.5999 25.3506C14.6604 25.403 14.6938 25.4597 14.6956 25.5194C14.7051 25.8416 13.7894 26.1302 12.6503 26.164C11.5111 26.1977 10.5799 25.9639 10.5704 25.6417C10.5686 25.5818 10.5986 25.5233 10.656 25.4673" stroke="#fff" stroke-width="0.216"/>
<path d="M14.5999 25.3506C14.6205 25.3818 14.6317 25.4143 14.6327 25.4478C14.6419 25.7605 13.7532 26.0405 12.6475 26.0732C11.542 26.106 10.6382 25.879 10.629 25.5664C10.628 25.5328 10.6373 25.4998 10.656 25.4673" stroke="#fff" stroke-width="0.216"/>
<path d="M14.7939 27.792L14.7942 27.7967C14.8037 28.119 13.888 28.4074 12.7488 28.4412C11.6097 28.4749 10.6785 28.2411 10.6689 27.9189" stroke="#fff" stroke-width="0.216"/>
<path d="M10.5703 25.6304L10.6694 27.9191" stroke="#fff" stroke-width="0.216"/>
<path d="M14.6953 25.5195L14.7945 27.7968" stroke="#fff" stroke-width="0.216"/>
<path d="M14.6061 25.9263C14.3208 26.095 13.7722 26.2273 13.1191 26.2732" stroke="#fff" stroke-width="0.216"/>
<path d="M14.6258 26.8135C14.3404 26.9821 13.7919 27.1145 13.1387 27.1604" stroke="#fff" stroke-width="0.216"/>
<path d="M13.1191 26.2729L13.1383 27.1604" stroke="#fff" stroke-width="0.216"/>
<path d="M14.6064 25.9263L14.6132 26.2377" stroke="#fff" stroke-width="0.216"/>
<path d="M31.2289 2.93547C30.0771 3.15197 29.1902 3.42707 29.2478 3.54987C29.3054 3.67267 30.2857 3.59667 31.4375 3.38017C32.5893 3.16357 33.4763 2.88857 33.4186 2.76577C33.361 2.64297 32.3807 2.71897 31.2289 2.93547Z" stroke="#fff" stroke-width="0.216"/>
<path d="M31.2433 2.96619C30.2516 3.15269 29.4878 3.38949 29.5374 3.49529C29.587 3.60089 30.4312 3.53549 31.4229 3.34909C32.4146 3.16259 33.1784 2.92579 33.1288 2.82009C33.0792 2.71439 32.235 2.77979 31.2433 2.96619Z" stroke="#fff" stroke-width="0.216"/>
<path d="M31.4709 4.14937C30.4792 4.33577 29.7154 4.57267 29.765 4.67837C29.8146 4.78407 30.6588 4.71867 31.6505 4.53217C32.6422 4.34577 33.406 4.10897 33.3564 4.00317C33.3068 3.89747 32.4626 3.96297 31.4709 4.14937Z" stroke="#fff" stroke-width="0.216"/>
<path d="M33.1289 2.82031L33.3582 4.00891" stroke="#fff" stroke-width="0.216"/>
<path d="M29.5371 3.49512L29.7627 4.67232" stroke="#fff" stroke-width="0.216"/>
<path d="M10.749 25.4274C10.754 24.9208 10.759 24.4142 10.7707 23.9795C10.7824 23.5447 10.8008 23.1819 10.8167 22.8082C10.8326 22.4345 10.846 22.05 10.8593 21.6563C10.8727 21.2625 10.8861 20.8595 10.8928 20.6581C10.8995 20.4566 10.8995 20.4566 10.922 20.1055C10.9446 19.7544 10.9897 19.052 11.0791 18.3498C11.1686 17.6476 11.3023 16.9454 11.4795 16.203C11.6568 15.4606 11.8775 14.6782 12.0781 14.073C12.2787 13.4677 12.4593 13.0396 12.7511 12.4519C13.0428 11.8641 13.4458 11.1165 13.7777 10.5343C14.1097 9.95212 14.3708 9.53532 14.7942 8.96182C15.2176 8.38822 15.8034 7.65792 16.3084 7.06872C16.8133 6.47962 17.2375 6.03142 17.815 5.50562C18.3926 4.97972 19.1237 4.37612 19.8381 3.85822C20.5526 3.34022 21.2504 2.90782 22.1323 2.47492C23.0143 2.04192 24.0803 1.60832 24.9657 1.29422C25.8512 0.980123 26.5561 0.785523 27.2745 0.633223C27.9928 0.480923 28.7245 0.371023 29.5012 0.283723C30.278 0.196423 31.0997 0.131523 31.6609 0.113323C32.2221 0.095123 32.5228 0.123523 32.7501 0.187923C32.9774 0.252323 33.1313 0.352723 33.2296 0.614123C33.3278 0.875523 33.3703 1.29792 33.3936 1.68052C33.4169 2.06312 33.4209 2.40592 33.4229 2.57732C33.4249 2.74872 33.4249 2.74872 33.4249 2.74872" stroke="#fff" stroke-width="0.216"/>
<path d="M29.2473 3.54995C29.1608 3.47035 29.0741 3.39065 29.0298 3.28065C28.9855 3.17055 28.9835 3.03015 28.9824 2.95985C28.9814 2.88965 28.9814 2.88965 28.9814 2.88965" stroke="#fff" stroke-width="0.216"/>
<path d="M28.7629 3.37451C28.2715 3.51391 27.7801 3.65331 27.1421 3.85481C26.5041 4.05641 25.7195 4.31991 25.048 4.60091C24.3766 4.88191 23.8184 5.18051 23.1953 5.56331C22.5722 5.94621 21.8844 6.41331 21.316 6.85091C20.7476 7.28861 20.2988 7.69691 19.8796 8.10731C19.4604 8.51781 19.0709 8.93061 18.716 9.34961C18.3612 9.76871 18.0409 10.194 17.7235 10.6474C17.406 11.1007 17.0912 11.5822 16.7367 12.2379C16.3822 12.8936 15.988 13.7236 15.694 14.4021C15.4001 15.0807 15.2065 15.6077 15.0315 16.2268C14.8566 16.8458 14.7004 17.5569 14.5995 18.0625C14.4985 18.5681 14.4528 18.8683 14.4071 19.3867C14.3615 19.9051 14.3158 20.6419 14.2914 21.1609C14.2671 21.6799 14.264 21.9811 14.2624 22.135C14.2609 22.289 14.2608 22.2957 14.2607 22.3024" stroke="#fff" stroke-width="0.216"/>
<path d="M14.2588 22.5229C14.2877 22.9778 14.3165 23.4327 14.3544 23.9008C14.3922 24.369 14.4391 24.8505 14.4625 25.0913C14.4859 25.3321 14.4859 25.3321 14.4859 25.3321" stroke="#fff" stroke-width="0.216"/>
<path d="M14.2607 22.3022C14.2626 22.416 14.2644 22.5299 14.2653 22.5868C14.2662 22.6438 14.2662 22.6438 14.2662 22.6438" stroke="#fff" stroke-width="0.216"/>
<path d="M14.6174 25.3667C14.593 25.3467 14.5686 25.3268 14.5517 25.316C14.5349 25.3052 14.5257 25.3035 14.5212 25.3026C14.5166 25.3018 14.5166 25.3018 14.5166 25.3018" stroke="#fff" stroke-width="0.216"/>
<path d="M10.6211 25.5057C10.6578 25.4728 10.6946 25.44 10.716 25.4232C10.7374 25.4064 10.7434 25.4056 10.7495 25.4048" stroke="#fff" stroke-width="0.216"/>
<path d="M29.3577 3.13858C29.3162 2.82908 29.2747 2.51958 29.2578 2.28728C29.241 2.05508 29.2489 1.90018 29.1343 1.83418C29.0198 1.76828 28.7828 1.79128 28.2507 1.89068C27.7186 1.99008 26.8912 2.16568 26.0251 2.44348C25.1589 2.72138 24.2539 3.10138 23.3997 3.52618C22.5455 3.95078 21.7421 4.42028 21.0914 4.81868C20.4407 5.21728 19.9427 5.54498 19.3244 6.11828C18.706 6.69178 17.9675 7.51108 17.3175 8.30098C16.6675 9.09098 16.1062 9.85178 15.6987 10.4957C15.2913 11.1398 15.0377 11.667 14.7316 12.3443C14.4255 13.0216 14.0669 13.8491 13.825 14.3975C13.5832 14.9459 13.458 15.2152 13.3955 15.3497C13.333 15.4845 13.333 15.4845 13.333 15.4845" stroke="#fff" stroke-width="0.216"/>
<path d="M28.7637 3.37454C28.8384 3.35334 28.913 3.33224 28.9877 3.31104" stroke="#fff" stroke-width="0.216"/>
<path d="M32.0093 2.33739C31.9168 1.80529 31.8244 1.27339 31.8204 0.944495C31.8164 0.615495 31.9009 0.489795 32.0083 0.398195C32.1157 0.306595 32.246 0.249295 32.3764 0.191895" stroke="#fff" stroke-width="0.216"/>
<path d="M31.0137 0.865723C30.5041 0.873423 29.9946 0.881123 29.1697 0.967523C28.3449 1.05382 27.2047 1.21892 26.2987 1.40042C25.3927 1.58192 24.7209 1.77992 23.8999 2.13932C23.0789 2.49872 22.1088 3.01952 21.6237 3.28002C21.1387 3.54042 21.1387 3.54042 21.1387 3.54042" stroke="#fff" stroke-width="0.216"/>
</svg>
