<svg width="62" height="47" viewBox="0 0 62 47" fill="none" xmlns="http://www.w3.org/2000/svg">
<path d="M25.1003 4.26272C24.7095 3.82612 24.3189 3.38962 23.7837 2.97342C23.2485 2.55722 22.5688 2.16142 21.7616 1.78652C20.9543 1.41152 20.0194 1.05762 18.7015 0.774818C17.3836 0.492018 15.6828 0.280218 14.1894 0.177518C12.6961 0.0744176 11.4104 0.0803176 10.1957 0.232518C8.98104 0.384518 7.83744 0.682818 6.83474 1.06232C5.83184 1.44152 4.97004 1.90222 4.23144 2.46842C3.49284 3.03452 2.87734 3.70642 2.33764 4.38962C1.79784 5.07262 1.33394 5.76692 1.05844 6.39152C0.782843 7.01622 0.695742 7.57142 0.713042 8.04562C0.730242 8.51972 0.851942 8.91312 1.09934 9.33622C1.34664 9.75922 1.71984 10.2119 2.21374 10.6014C2.70754 10.9908 3.32204 11.3166 4.07434 11.5711C4.82654 11.8257 5.71664 12.0092 6.63644 12.0667C7.55624 12.124 8.50584 12.0557 9.32234 11.9235C10.1388 11.7913 10.8223 11.5954 11.414 11.3623C12.0056 11.1293 12.5055 10.8593 12.9321 10.5105C13.3587 10.1616 13.712 9.73432 13.9273 9.37822C14.1427 9.02202 14.2203 8.73702 14.292 8.13912C14.3635 7.54132 14.4292 6.63012 14.4948 5.71902" stroke="#101F52" stroke-width="0.216"/>
<path d="M6.18359 8.32108C6.76099 7.76618 7.33859 7.21128 8.24219 6.76928C9.14549 6.32718 10.3748 5.99798 11.6236 5.83858C12.8725 5.67928 14.1406 5.68968 15.4134 5.81018C16.6863 5.93068 17.9637 6.16148 18.9551 6.34848C19.9465 6.53528 20.6519 6.67828 21.3012 6.73468C21.9504 6.79128 22.5434 6.76128 23.1144 6.63738C23.6854 6.51358 24.2342 6.29598 24.5812 6.04598C24.9282 5.79578 25.0734 5.51338 25.1263 5.21078C25.1791 4.90818 25.1396 4.58538 25.1199 4.42388C25.1002 4.26268 25.1002 4.26268 24.9577 4.46908C24.8152 4.67538 24.5301 5.08848 24.0721 5.36858C23.6141 5.64848 22.9831 5.79558 21.8335 5.78078C20.6839 5.76608 19.0154 5.58938 17.6261 5.41388C16.2368 5.23858 15.1266 5.06438 14.0979 4.97788C13.0691 4.89108 12.1218 4.89178 11.1279 5.01788C10.134 5.14368 9.09349 5.39508 8.30019 5.58718C7.50699 5.77948 6.96109 5.91268 6.41519 6.04568" stroke="#101F52" stroke-width="0.216"/>
<path d="M12.9818 6.90117C13.1579 6.94107 13.331 7.07387 13.4485 7.22177C13.5659 7.36967 13.6278 7.53247 13.647 7.71087C13.6661 7.88917 13.6424 8.08287 13.5764 8.27927C13.5103 8.47577 13.4018 8.67467 13.2592 8.88557C13.1165 9.09627 12.9397 9.31837 12.7522 9.48087C12.5646 9.64357 12.3665 9.74657 12.193 9.75317C12.0193 9.75977 11.8702 9.66997 11.7478 9.54317C11.6254 9.41627 11.5296 9.25217 11.5035 9.03147C11.4774 8.81057 11.5209 8.53307 11.6238 8.24917C11.7268 7.96517 11.8892 7.67487 12.0362 7.46007C12.1832 7.24537 12.3149 7.10607 12.4705 7.01007C12.6262 6.91397 12.8056 6.86117 12.9818 6.90117Z" stroke="#101F52" stroke-width="0.216"/>
<path d="M7.99534 8.0293C7.97294 8.6712 7.95054 9.3132 7.93714 9.9386C7.92374 10.5639 7.91944 11.1727 7.91504 11.7815" stroke="#101F52" stroke-width="0.216"/>
<path d="M1.09902 9.33643C1.09022 10.0718 1.08142 10.807 1.07572 14.1179C1.07012 17.4288 1.06752 23.3149 1.06382 26.3254C1.06022 29.3361 1.05553 29.4712 1.17423 29.7037C1.29293 29.9361 1.53513 30.266 1.98123 30.5691C2.42733 30.8722 3.07743 31.1488 3.74603 31.3751C4.41463 31.6013 5.10212 31.7777 5.81792 31.8619C6.53382 31.9459 7.27842 31.9382 8.00002 31.8619C8.72142 31.7855 9.41993 31.6409 10.0708 31.4099C10.7216 31.1788 11.3246 30.8616 11.7576 30.5723C12.1906 30.2829 12.4535 30.0216 12.6219 29.7992C12.7903 29.5766 12.8644 29.393 12.8948 29.2503C12.9251 29.1077 12.9117 29.0058 12.9051 28.9548C12.8984 28.9038 12.8984 28.9038 12.8984 28.9038" stroke="#101F52" stroke-width="0.216"/>
<path d="M13.1866 10.2856C13.1253 14.5307 13.0641 18.7757 13.0029 23.0208" stroke="#101F52" stroke-width="0.216"/>
<path d="M1.08203 11.7271C1.63803 12.1249 2.19403 12.5226 2.79823 12.826C3.40253 13.1293 4.05483 13.3382 4.81003 13.5083C5.56523 13.6785 6.42323 13.81 7.23453 13.8298C8.04573 13.8497 8.81003 13.7579 9.51733 13.6049C10.2246 13.452 10.8747 13.238 11.3736 13.0016C11.8723 12.7652 12.2196 12.5069 12.493 12.2965C12.7663 12.086 12.9656 11.9237 13.1649 11.7614" stroke="#101F52" stroke-width="0.216"/>
<path d="M1.06934 20.978C1.27184 21.2734 1.47454 21.5689 1.79854 21.8765C2.12254 22.1842 2.56824 22.5043 3.08364 22.759C3.59904 23.0139 4.18444 23.2035 4.82234 23.3443C5.46004 23.4848 6.15034 23.5766 6.85204 23.5842C7.55374 23.5917 8.26684 23.5153 8.95664 23.3786C9.64634 23.2419 10.3129 23.0453 10.8711 22.8026C11.4293 22.5601 11.8792 22.2711 12.2212 21.9701C12.5632 21.6688 12.7974 21.3553 13.0317 21.0417" stroke="#101F52" stroke-width="0.216"/>
<path d="M13.8252 28.5298C13.8232 29.071 13.8213 29.6123 13.7653 30.0077C13.7091 30.4033 13.5988 30.6532 13.2475 31.03C12.8959 31.4067 12.3033 31.9103 11.6044 32.3089C10.9054 32.7071 10.1002 33.0005 9.26526 33.1743C8.43036 33.3482 7.56586 33.4026 6.68766 33.3634C5.80946 33.3243 4.91766 33.1917 4.22946 33.0408C3.54116 32.8898 3.05666 32.7207 2.60726 32.5105C2.15796 32.3003 1.74386 32.049 1.38286 31.7319C1.02176 31.4148 0.713758 31.0321 0.498658 30.6525C0.283558 30.2728 0.161458 29.8963 0.122658 29.5567C0.083658 29.2171 0.128058 28.9141 0.214458 28.6213C0.300758 28.3281 0.429058 28.0451 0.577558 27.8297C0.725858 27.6143 0.894458 27.4663 1.06306 27.3184" stroke="#101F52" stroke-width="0.216"/>
<path d="M7.52148 30.3143C7.79788 30.3915 8.07428 30.4689 8.58448 30.3914C9.09448 30.3143 9.83848 30.0823 10.4191 29.8616C10.9999 29.6408 11.4173 29.4312 12.2231 29.1232C13.0289 28.8151 14.2228 28.4086 14.8198 28.2053C15.4168 28.002 15.4168 28.002 15.4168 28.002" stroke="#101F52" stroke-width="0.216"/>
<path d="M13.5174 28.6538C13.4677 28.8566 13.4178 29.0595 13.2508 29.3569C13.0838 29.6543 12.7994 30.046 12.4706 30.3792C12.1419 30.7124 11.7686 30.9869 11.2461 31.2393C10.7235 31.4916 10.0515 31.722 9.38435 31.8785C8.71705 32.0348 8.05455 32.1173 7.41935 32.1438C6.78405 32.1702 6.17625 32.1405 5.50315 32.0408C4.83005 31.9412 4.09165 31.7718 3.49995 31.5819C2.90825 31.3921 2.46315 31.182 2.06835 30.9251C1.67345 30.6683 1.32875 30.3643 1.07945 30.0575C0.830147 29.7508 0.676048 29.4408 0.573648 29.1646C0.471248 28.8882 0.420548 28.6455 0.405048 28.4704C0.389448 28.2952 0.409147 28.1877 0.428847 28.0801" stroke="#101F52" stroke-width="0.216"/>
<path d="M23.7992 19.3643C20.2004 20.5832 16.6014 21.8024 14.5531 22.4581C12.5047 23.1139 12.0068 23.2064 11.6163 23.3112C11.2258 23.416 10.9427 23.533 10.527 23.8102C10.1114 24.0875 9.56319 24.5252 9.06349 25.0319C8.56369 25.5389 8.11229 26.115 7.76519 26.6105C7.41809 27.1057 7.17519 27.5201 7.03589 27.8789C6.89649 28.2376 6.86049 28.5409 6.89089 28.8802C6.92129 29.2197 7.01819 29.5951 7.13439 29.8401C7.25049 30.0852 7.38599 30.1999 7.52139 30.3146" stroke="#101F52" stroke-width="0.216"/>
<path d="M15.417 28.0021C22.8303 25.5631 30.2437 23.1243 34.3016 21.7775C38.3594 20.4309 39.0618 20.1761 39.878 19.9298C40.6942 19.6834 41.6245 19.4453 42.4759 19.2806C43.3274 19.1158 44.1002 19.0244 44.8251 18.9735C45.5498 18.9228 46.2268 18.9126 47.0453 18.9665C47.8637 19.0204 48.8237 19.1386 49.6264 19.2807C50.4291 19.423 51.0746 19.5893 51.4031 19.7488C51.7315 19.9083 51.7431 20.0608 51.7452 20.2427C51.7473 20.4246 51.7399 20.6357 51.7776 20.7683C51.8153 20.9006 51.898 20.9543 52.0382 21.0564C52.1784 21.1585 52.3761 21.3092 52.5665 21.4259C52.7569 21.5424 52.9402 21.6249 53.4202 21.6841C53.9001 21.7431 54.6769 21.7786 55.3923 21.7571C56.1077 21.7355 56.7616 21.6569 57.3449 21.5462C57.928 21.4354 58.4404 21.2928 59.0145 21.0801C59.5885 20.8676 60.2242 20.5853 60.6343 20.3459C61.0443 20.1065 61.2288 19.91 61.3221 19.7823C61.4153 19.6544 61.4174 19.5953 61.3967 18.9772C61.376 18.3591 61.3325 17.182 61.2581 16.5282C61.1838 15.8744 61.0783 15.7439 60.8636 15.5969C60.6488 15.4497 60.3247 15.2862 59.537 14.9586C58.7492 14.6307 57.4978 14.1387 56.3402 13.7474C55.1825 13.356 54.1186 13.0652 53.1488 12.8664C52.1789 12.6676 51.303 12.5609 50.3708 12.4987C49.4384 12.4365 48.4495 12.419 47.5011 12.4535C46.5527 12.4881 45.6447 12.5748 44.8284 12.7026C44.012 12.8306 43.2873 12.9998 39.7978 14.117C36.3082 15.2341 30.0539 17.2991 26.9268 18.3317C23.7995 19.3641 23.7995 19.3641 23.7995 19.3641" stroke="#101F52" stroke-width="0.216"/>
<path d="M60.7684 20.2642C60.8467 20.8455 60.925 21.4269 60.9496 21.7676C60.9744 22.1085 60.9455 22.2091 60.8004 22.369C60.6552 22.5288 60.3939 22.748 60.0057 22.9669C59.6175 23.186 59.1023 23.4049 58.4747 23.5775C57.8471 23.7501 57.1069 23.8765 56.5501 23.9584C55.9933 24.0405 55.6198 24.0782 55.1553 24.062C54.6906 24.0458 54.135 23.9756 53.7285 23.8726C53.3219 23.7695 53.0643 23.6338 52.9379 23.5024C52.8114 23.3712 52.8158 23.2444 52.7758 22.8992C52.7356 22.5539 52.6511 21.99 52.5664 21.426" stroke="#101F52" stroke-width="0.216"/>
<path d="M55.5801 24.0611C55.5321 23.7178 55.484 23.3746 55.4733 23.1865C55.4625 22.9984 55.4889 22.9655 56.0293 22.8703C56.5696 22.775 57.6239 22.6172 58.1587 22.5598C58.6935 22.5023 58.7089 22.5451 58.7327 22.7143C58.7564 22.8832 58.7884 23.1786 58.8205 23.4738" stroke="#101F52" stroke-width="0.216"/>
<path d="M61.0943 15.8345C60.2282 16.1548 59.3623 16.475 58.6337 16.8617C57.9053 17.2484 57.3143 17.7013 56.9288 18.2079C56.5431 18.7146 56.3629 19.275 56.3102 19.8145C56.2575 20.3539 56.3326 20.8723 56.3642 21.1815C56.3959 21.4906 56.3844 21.5902 56.3728 21.69" stroke="#101F52" stroke-width="0.216"/>
<path d="M58.0316 17.0076C57.0914 17.0509 56.151 17.0941 55.0006 16.9821C53.8501 16.8702 52.4893 16.6026 51.192 16.3375C49.8946 16.0722 48.6607 15.8093 47.6777 15.6227C46.6947 15.4363 45.9627 15.3261 44.9818 15.3215C44.001 15.3167 42.7712 15.4175 41.3461 15.6638C39.9209 15.91 38.3003 16.3017 34.2536 17.6319C30.207 18.9621 23.7341 21.2309 19.1091 22.8962C14.484 24.5615 11.7068 25.6232 10.0794 26.3358C8.45179 27.0486 7.97389 27.4125 7.49609 27.7765" stroke="#101F52" stroke-width="0.216"/>
<path d="M7.2003 40.2275C10.3232 40.2275 12.8548 41.3347 12.8548 42.7007C12.8548 44.0666 10.3232 45.1741 7.2003 45.1741C4.0774 45.1741 1.5459 44.0666 1.5459 42.7007C1.5459 41.3347 4.0774 40.2275 7.2003 40.2275Z" stroke="#101F52" stroke-width="0.216"/>
<path d="M7.19944 41.0254C9.31484 41.0254 11.0298 41.7756 11.0298 42.7009C11.0298 43.6262 9.31484 44.3762 7.19944 44.3762C5.08404 44.3762 3.36914 43.6262 3.36914 42.7009C3.36914 41.7756 5.08404 41.0254 7.19944 41.0254Z" stroke="#101F52" stroke-width="0.216"/>
<path d="M3.90311 43.5541C3.57261 43.3776 3.38281 43.1719 3.38281 42.9521C3.38281 42.2957 5.07351 41.7637 7.15931 41.7637C9.17181 41.7637 10.8165 42.2591 10.9296 42.8832" stroke="#101F52" stroke-width="0.216"/>
<path d="M11.8399 44.1148C11.9283 44.2424 11.9752 44.3758 11.9752 44.5127C11.9752 45.4381 9.84254 46.1884 7.21184 46.1884C4.58094 46.1884 2.44824 45.4381 2.44824 44.5127C2.44824 44.3793 2.49254 44.2495 2.57634 44.1251M3.65694 43.3975C3.67064 43.3921 3.68464 43.3866 3.69854 43.3813" stroke="#101F52" stroke-width="0.216"/>
<path d="M2.24023 43.8901L2.51933 44.9666" stroke="#101F52" stroke-width="0.216"/>
<path d="M12.1151 43.9746L11.8359 45.0511" stroke="#101F52" stroke-width="0.216"/>
<path d="M5.20508 45.0161L5.34148 46.0543" stroke="#101F52" stroke-width="0.216"/>
<path d="M9.45378 45.0205L9.31738 46.0587" stroke="#101F52" stroke-width="0.216"/>
<path d="M1.6913 31.7793C1.6838 34.0861 1.6838 36.2222 1.7256 37.3779C1.7372 37.698 1.752 37.943 1.7725 38.1318M10.909 39.0222C11.2466 38.8228 11.5417 38.6048 11.7389 38.4033C11.9979 38.1394 12.0892 37.9031 12.135 37.7853C12.1806 37.6671 12.1806 37.6671 12.1842 36.4826C12.1869 35.542 12.1917 33.8544 12.1971 32.0129" stroke="#101F52" stroke-width="0.216"/>
<path d="M12.1326 37.7929C12.1594 37.8594 12.1729 37.927 12.1722 37.9955C12.1644 38.8777 9.8184 39.572 6.9326 39.546C4.0468 39.52 1.7137 38.7838 1.7217 37.9015C1.7221 37.8531 1.7297 37.8054 1.7438 37.7583" stroke="#101F52" stroke-width="0.216"/>
<path d="M12.1682 33.6354C12.0102 34.4751 9.7256 35.1224 6.9372 35.0972C4.1489 35.0721 1.8764 34.384 1.7334 33.5415" stroke="#101F52" stroke-width="0.216"/>
<path d="M12.1174 31.8288C11.9593 32.6685 9.67482 33.3158 6.88642 33.2909C4.09802 33.2658 1.82552 32.5775 1.68262 31.7349" stroke="#101F52" stroke-width="0.216"/>
<path d="M12.1107 32.5831C11.9526 33.4228 9.66808 34.0702 6.87968 34.045C4.09128 34.0199 1.81878 33.3316 1.67578 32.4893" stroke="#101F52" stroke-width="0.216"/>
<path d="M12.1038 33.3379C11.9457 34.1774 9.66124 34.8248 6.87284 34.7997C4.08444 34.7747 1.81195 34.0863 1.66895 33.2441" stroke="#101F52" stroke-width="0.216"/>
<path d="M12.0969 34.0919C11.9389 34.9316 9.65431 35.579 6.86591 35.554C4.07751 35.5289 1.80501 34.8406 1.66211 33.998" stroke="#101F52" stroke-width="0.216"/>
<path d="M12.0901 34.8463C11.9321 35.6861 9.64747 36.3335 6.85907 36.3084C4.07077 36.2832 1.79827 35.595 1.65527 34.7524" stroke="#101F52" stroke-width="0.216"/>
<path d="M12.0833 35.6012C11.9252 36.4408 9.64064 37.088 6.85234 37.0629C4.06394 37.038 1.79144 36.3495 1.64844 35.5073" stroke="#101F52" stroke-width="0.216"/>
<path d="M12.0765 36.3556C11.9183 37.1951 9.6339 37.8424 6.8455 37.8174C4.0571 37.7924 1.7846 37.104 1.6416 36.2617" stroke="#101F52" stroke-width="0.216"/>
<path d="M12.0697 37.1094C11.9115 37.9492 9.62707 38.5966 6.83867 38.5715C4.05027 38.5464 1.77777 37.8581 1.63477 37.0156" stroke="#101F52" stroke-width="0.216"/>
</svg>
