<svg width="44" height="49" viewBox="0 0 44 49" fill="none" xmlns="http://www.w3.org/2000/svg">
<path d="M19.7818 28.8853C18.5987 28.8853 17.6396 29.0411 17.6396 29.2333C17.6396 29.4255 18.5987 29.5812 19.7818 29.5812C20.9649 29.5812 21.9239 29.4255 21.9239 29.2333C21.9239 29.0411 20.9649 28.8853 19.7818 28.8853Z" stroke="#101F52" stroke-width="0.216"/>
<path d="M17.7246 31.2904C17.9842 31.4351 18.8069 31.5409 19.7816 31.5409C20.9647 31.5409 21.9237 31.3851 21.9237 31.1929" stroke="#101F52" stroke-width="0.216"/>
<path d="M17.724 31.2905C17.607 31.3158 17.5072 31.3433 17.4277 31.3727M17.252 31.6162C17.47 31.8108 18.5193 31.9584 19.781 31.9584C21.2007 31.9584 22.3516 31.7715 22.3516 31.541C22.3516 31.4839 22.2809 31.4294 22.1532 31.3799" stroke="#101F52" stroke-width="0.216"/>
<path d="M17.2139 31.979C17.2805 32.1999 18.4046 32.3757 19.7814 32.3757C21.1582 32.3757 22.2823 32.1999 22.3489 31.979" stroke="#101F52" stroke-width="0.216"/>
<path d="M21.9238 29.2334C21.9238 29.8866 21.9238 30.5398 21.9238 30.8664C21.9238 31.193 21.9238 31.193 21.9238 31.193" stroke="#101F52" stroke-width="0.216"/>
<path d="M21.9236 31.1929C22.0664 31.3089 22.2092 31.4249 22.2806 31.4828C22.3521 31.5409 22.3521 31.5409 22.3521 31.6104C22.3521 31.68 22.3521 31.8192 22.3682 31.8894C22.3844 31.9596 22.4167 31.9609 22.4397 32.0593C22.4626 32.1577 22.4763 32.3533 22.4808 32.5977C22.4853 32.8422 22.4808 33.1355 22.4455 33.5449C22.4103 33.9542 22.3444 34.4795 22.2806 34.8627C22.217 35.2459 22.1556 35.4869 22.076 35.7587C21.9964 36.0304 21.8986 36.3329 21.7588 36.6865C21.6189 37.0401 21.437 37.4449 21.2198 37.911C21.0027 38.3772 20.7503 38.9048 20.5672 39.2334C20.4598 39.4262 20.3762 39.5506 20.2998 39.6454" stroke="#101F52" stroke-width="0.216"/>
<path d="M17.6392 29.2334C17.6392 29.8866 17.6392 30.5398 17.6392 30.8664C17.6392 31.193 17.6392 31.193 17.5679 31.251C17.4965 31.309 17.3536 31.425 17.2822 31.5526C17.2108 31.6801 17.2108 31.8193 17.1992 31.8986C17.1876 31.9779 17.1644 31.9973 17.1426 31.9946C17.1208 31.9918 17.1003 31.9668 17.0343 31.8349C16.9684 31.703 16.857 31.4642 16.7774 31.2504C16.6978 31.0367 16.65 30.848 16.5875 30.6729C16.525 30.4978 16.4477 30.3363 16.384 30.2044C16.3203 30.0725 16.2703 29.9702 16.2385 29.9133C16.2066 29.8565 16.193 29.8451 16.1509 29.7951C16.1088 29.7451 16.0383 29.6564 15.994 29.612C15.9743 29.5923 15.9597 29.5814 15.9433 29.5801M9.26855 32.3556C9.31345 32.5495 9.36846 32.7824 9.40716 32.9424C9.45486 33.1402 9.47755 33.2266 9.52985 33.4176C9.58225 33.6087 9.66405 33.9043 9.76185 34.1658C9.85965 34.4273 9.97325 34.6547 10.1167 34.9163C10.2599 35.1778 10.4327 35.4734 10.5908 35.7713C10.7488 36.0692 10.8921 36.3694 11.0354 36.6696" stroke="#101F52" stroke-width="0.216"/>
<path d="M16.2385 29.9131C16.13 30.1049 16.0216 30.2967 15.7491 30.5473C15.4766 30.7977 15.04 31.107 14.5852 31.4095C14.1304 31.7119 13.6574 32.0075 13.1457 32.2804C12.634 32.5533 12.0837 32.8035 11.6471 32.9899C11.2105 33.1764 10.8875 33.2992 10.592 33.3765C10.2963 33.4538 10.0279 33.4857 9.85217 33.4727C9.67627 33.4596 9.59307 33.4017 9.50977 33.3438" stroke="#101F52" stroke-width="0.216"/>
<path d="M15.0949 40.3536C14.7128 39.876 14.3307 39.3985 13.901 38.6821C13.4712 37.9658 12.9936 37.0107 12.6229 36.258C12.2523 35.5053 11.9885 34.955 11.7884 34.5116C11.5882 34.0681 11.4518 33.7316 11.3154 33.395" stroke="#101F52" stroke-width="0.216"/>
<path d="M17.3189 40.1897C16.9096 39.2937 16.5003 38.3977 16.0114 37.4176C15.5225 36.4375 14.9539 35.3732 14.5469 34.6205C14.1399 33.8678 13.8942 33.4266 13.6737 33.0697C13.4531 32.7126 13.2575 32.4397 13.0665 32.2646C12.9489 32.1568 12.833 32.0861 12.7363 32.0381" stroke="#101F52" stroke-width="0.216"/>
<path d="M12.2158 32.2759C12.2158 32.4987 12.2158 32.7216 12.2386 32.9467C12.2613 33.1718 12.3067 33.3992 12.4728 33.8427C12.6388 34.2862 12.9253 34.9456 13.3915 35.8507C13.8577 36.7557 14.5035 37.9064 14.9423 38.6591C15.3813 39.4119 15.6132 39.7666 15.8452 40.1213" stroke="#101F52" stroke-width="0.216"/>
<path d="M19.7812 28.8999C18.6573 28.8999 17.7461 29.0479 17.7461 29.2305C17.7461 29.413 18.6573 29.561 19.7812 29.561C20.9051 29.561 21.8162 29.413 21.8162 29.2305C21.8162 29.0479 20.9051 28.8999 19.7812 28.8999Z" stroke="#101F52" stroke-width="0.216"/>
<path d="M17.7395 31.2981C17.7186 31.2857 17.6978 31.2733 17.6766 31.2582C17.6554 31.2432 17.6339 31.2256 17.6123 31.208" stroke="#101F52" stroke-width="0.216"/>
<path d="M17.2286 32.0079C17.2187 31.9864 17.209 31.9649 17.1992 31.9434" stroke="#101F52" stroke-width="0.216"/>
<path d="M22.3359 32.0053C22.3469 31.9807 22.3579 31.956 22.369 31.9312" stroke="#101F52" stroke-width="0.216"/>
<path d="M11.919 38.6626C11.7594 38.3767 11.5977 38.0818 11.4558 37.82C11.1625 37.2788 10.9532 36.8785 10.7327 36.4487C10.5121 36.019 10.2801 35.5596 10.1128 35.1642C9.94553 34.7689 9.84283 34.4374 9.74023 34.106" stroke="#101F52" stroke-width="0.216"/>
<path d="M0.101562 30.7992C0.284362 30.4952 0.467062 30.1912 0.743662 29.8744C1.02026 29.5574 1.39076 29.2277 1.84456 28.8882C2.29846 28.5486 2.83556 28.1993 3.62416 27.8253C4.41266 27.4513 5.45256 27.0525 6.37756 26.7478C7.30256 26.4431 8.11256 26.2325 8.89906 26.1138C9.68556 25.995 10.4485 25.9682 11.1345 26.0092C11.8205 26.0502 12.4295 26.159 12.9763 26.3462C13.5231 26.5333 14.0077 26.7989 14.4462 27.0832C14.8848 27.3675 15.2772 27.6704 15.541 27.9666C15.8049 28.2628 15.9399 28.5523 15.9977 28.8148C16.0554 29.0773 16.0358 29.3129 15.9412 29.5857C15.8468 29.8585 15.6774 30.1684 15.4229 30.4638C15.1685 30.7591 14.8289 31.0397 14.3923 31.3043C13.9557 31.5688 13.422 31.8171 12.8514 32.0016C12.2808 32.1861 11.6733 32.3066 11.1403 32.37C10.6073 32.4334 10.1487 32.4397 9.74256 32.4105C9.33646 32.3813 8.98286 32.3166 8.66386 32.1965C8.34496 32.0765 8.06076 31.9012 7.87366 31.7421C7.68656 31.5829 7.59656 31.4398 7.46486 31.1243C7.33336 30.8088 7.16026 30.3209 6.98706 29.8329" stroke="#101F52" stroke-width="0.216"/>
<path d="M12.5948 29.8754C12.151 29.6676 11.7072 29.4598 11.0746 29.368C10.4421 29.2762 9.62072 29.3004 8.81182 29.4208C8.00272 29.5412 7.20612 29.7579 6.42242 30.0356C5.63882 30.3132 4.86822 30.652 4.27132 30.9192C3.67442 31.1864 3.25112 31.382 2.85062 31.5209C2.45022 31.6598 2.07262 31.742 1.69532 31.7691C1.31802 31.7963 0.941122 31.7684 0.686622 31.6892C0.432022 31.61 0.299722 31.4795 0.222722 31.3226C0.145722 31.1656 0.123822 30.9823 0.112922 30.8907C0.101922 30.7991 0.101922 30.7991 0.221522 30.8884C0.341122 30.9778 0.580222 31.1565 0.909022 31.2336C1.23772 31.3107 1.65612 31.2863 2.37752 31.0871C3.09902 30.8878 4.12352 30.5136 4.97252 30.1865C5.82152 29.8594 6.49512 29.5795 7.13002 29.361C7.76492 29.1424 8.36122 28.9853 9.00492 28.889C9.64882 28.7927 10.3399 28.7572 10.867 28.7305C11.3941 28.7038 11.7569 28.686 12.1198 28.668" stroke="#101F52" stroke-width="0.216"/>
<path d="M8.11005 30.2288C8.00485 30.28 7.91525 30.3815 7.86265 30.482C7.81015 30.5825 7.79475 30.6819 7.80845 30.7828C7.82225 30.8836 7.86515 30.9857 7.93515 31.0822C8.00515 31.1789 8.10225 31.2698 8.22245 31.3615C8.34275 31.4531 8.48615 31.5454 8.62775 31.6032C8.76935 31.661 8.90885 31.6845 9.01905 31.6593C9.12925 31.634 9.21015 31.56 9.26885 31.4702C9.32755 31.3803 9.36405 31.2746 9.34865 31.1494C9.33305 31.0241 9.26555 30.8794 9.15965 30.741C9.05385 30.6027 8.90955 30.4707 8.78595 30.3776C8.66235 30.2845 8.55935 30.2301 8.44755 30.2034C8.33575 30.1767 8.21505 30.1776 8.11005 30.2288Z" stroke="#101F52" stroke-width="0.216"/>
<path d="M11.4121 30.0171C11.5191 30.3649 11.6262 30.7127 11.7251 31.0528C11.824 31.3931 11.9147 31.7257 12.0055 32.0582" stroke="#101F52" stroke-width="0.216"/>
<path d="M12.9424 40.583C13.0774 41.0118 14.5178 41.3494 16.2749 41.3494C17.9453 41.3494 19.3295 41.0444 19.578 40.6458" stroke="#101F52" stroke-width="0.216"/>
<path d="M19.5781 40.6458C19.8448 40.2776 20.1113 39.9095 20.2619 39.6987C20.4124 39.488 20.447 39.4347 20.4816 39.3813" stroke="#101F52" stroke-width="0.216"/>
<path d="M13.0896 40.7704C12.9416 40.5859 12.7934 40.4014 12.5983 40.0501C12.4032 39.6988 12.1611 39.1807 11.9189 38.6626" stroke="#101F52" stroke-width="0.216"/>
<path d="M16.116 45.5425C14.4355 45.5425 13.0732 46.1384 13.0732 46.8734C13.0732 47.6084 14.4355 48.2043 16.116 48.2043C17.7964 48.2043 19.1587 47.6084 19.1587 46.8734C19.1587 46.1384 17.7964 45.5425 16.116 45.5425Z" stroke="#101F52" stroke-width="0.216"/>
<path d="M16.1159 45.9717C14.9775 45.9717 14.0547 46.3754 14.0547 46.8733C14.0547 47.3712 14.9775 47.7749 16.1159 47.7749C17.2542 47.7749 18.177 47.3712 18.177 46.8733C18.177 46.3754 17.2542 45.9717 16.1159 45.9717Z" stroke="#101F52" stroke-width="0.216"/>
<path d="M17.8904 47.3325C18.0682 47.2376 18.1703 47.1268 18.1703 47.0085C18.1703 46.6554 17.2606 46.3691 16.1382 46.3691C15.0553 46.3691 14.1703 46.6356 14.1094 46.9715" stroke="#101F52" stroke-width="0.216"/>
<path d="M13.6187 47.6344C13.5712 47.703 13.5459 47.7748 13.5459 47.8486C13.5459 48.3465 14.6936 48.7502 16.1092 48.7502C17.5249 48.7502 18.6725 48.3465 18.6725 47.8486C18.6725 47.7767 18.6487 47.7069 18.6036 47.6399M18.0221 47.2484C18.0148 47.2455 18.0072 47.2426 17.9997 47.2397" stroke="#101F52" stroke-width="0.216"/>
<path d="M13.4717 47.5586L13.6219 48.1379" stroke="#101F52" stroke-width="0.216"/>
<path d="M14.9033 48.1216L14.9767 48.6804" stroke="#101F52" stroke-width="0.216"/>
<path d="M19.0801 40.9966C19.0841 42.238 19.0841 43.3874 19.0616 44.0093C19.0554 44.1816 19.0474 44.3134 19.0364 44.415M14.12 44.8942C13.9383 44.7868 13.7795 44.6696 13.6733 44.5611C13.534 44.4191 13.4848 44.292 13.4602 44.2285C13.4357 44.165 13.4357 44.165 13.4338 43.5276C13.4323 43.0214 13.4297 42.1133 13.4268 41.1224" stroke="#101F52" stroke-width="0.216"/>
<path d="M13.4617 44.2326C13.4473 44.2684 13.4401 44.3047 13.4404 44.3416C13.4447 44.8164 14.707 45.19 16.2599 45.176C17.8128 45.162 19.0682 44.7657 19.064 44.291C19.0637 44.265 19.0597 44.2393 19.0521 44.2139" stroke="#101F52" stroke-width="0.216"/>
<path d="M13.4424 41.9948C13.5275 42.4467 14.7567 42.795 16.2572 42.7815C17.7576 42.7681 18.9805 42.3976 19.0574 41.9443" stroke="#101F52" stroke-width="0.216"/>
<path d="M13.4697 41.0232C13.5547 41.4751 14.784 41.8234 16.2845 41.8098C17.7849 41.7964 19.0077 41.426 19.0847 40.9727" stroke="#101F52" stroke-width="0.216"/>
<path d="M13.4736 41.4288C13.5586 41.8807 14.788 42.229 16.2884 42.2155C17.7889 42.202 19.0117 41.8316 19.0886 41.3784" stroke="#101F52" stroke-width="0.216"/>
<path d="M13.4775 41.8352C13.5625 42.287 14.7918 42.6353 16.2923 42.6219C17.7927 42.6083 19.0155 42.238 19.0925 41.7847" stroke="#101F52" stroke-width="0.216"/>
<path d="M13.4814 42.2409C13.5664 42.6928 14.7958 43.0412 16.2962 43.0276C17.7967 43.0141 19.0195 42.6437 19.0964 42.1904" stroke="#101F52" stroke-width="0.216"/>
<path d="M13.4844 42.6467C13.5695 43.0985 14.7988 43.4468 16.2993 43.4334C17.7997 43.4199 19.0226 43.0495 19.0995 42.5962" stroke="#101F52" stroke-width="0.216"/>
<path d="M13.4883 43.0529C13.5733 43.5047 14.8027 43.853 16.3031 43.8395C17.8036 43.826 19.0264 43.4556 19.1033 43.0024" stroke="#101F52" stroke-width="0.216"/>
<path d="M13.4922 43.4588C13.5773 43.9105 14.8066 44.2589 16.3071 44.2453C17.8075 44.2319 19.0304 43.8615 19.1073 43.4082" stroke="#101F52" stroke-width="0.216"/>
<path d="M13.4951 43.8649C13.5802 44.3168 14.8095 44.6651 16.3099 44.6517C17.8104 44.6381 19.0332 44.2678 19.1101 43.8145" stroke="#101F52" stroke-width="0.216"/>
<path d="M21.8863 28.5449C21.9544 28.605 21.9917 28.6697 21.9931 28.7374C22.0008 29.1026 20.96 29.4205 19.6686 29.4474C18.3771 29.4742 17.324 29.1999 17.3165 28.8346C17.315 28.7669 17.3497 28.7008 17.4152 28.6379" stroke="#101F52" stroke-width="0.216"/>
<path d="M21.8865 28.5449C21.9096 28.5806 21.922 28.6175 21.9228 28.6554C21.9301 29.01 20.92 29.3185 19.6666 29.3446C18.4132 29.3706 17.3911 29.1044 17.3838 28.7499C17.383 28.7119 17.3939 28.6745 17.4154 28.6379" stroke="#101F52" stroke-width="0.216"/>
<path d="M22.0828 31.314L22.083 31.3193C22.0905 31.6846 21.0499 32.0025 19.7584 32.0294C18.467 32.0562 17.4139 31.7819 17.4062 31.4166" stroke="#101F52" stroke-width="0.216"/>
<path d="M17.3174 28.8213L17.4068 31.4163" stroke="#101F52" stroke-width="0.216"/>
<path d="M21.9932 28.7373L22.083 31.3192" stroke="#101F52" stroke-width="0.216"/>
<path d="M21.8891 29.1968C21.5639 29.3851 20.9409 29.5296 20.2002 29.5751" stroke="#101F52" stroke-width="0.216"/>
<path d="M21.9018 30.2031C21.5767 30.3914 20.9536 30.5359 20.2129 30.5814" stroke="#101F52" stroke-width="0.216"/>
<path d="M20.2002 29.5752L20.2132 30.5811" stroke="#101F52" stroke-width="0.216"/>
<path d="M21.8887 29.1968L21.9017 30.2027" stroke="#101F52" stroke-width="0.216"/>
<path d="M40.9575 3.30532C39.6499 3.53922 38.6419 3.84212 38.706 3.98182C38.77 4.12162 39.8819 4.04522 41.1894 3.81142C42.497 3.57742 43.505 3.27452 43.4409 3.13482C43.3769 2.99512 42.265 3.07142 40.9575 3.30532Z" stroke="#101F52" stroke-width="0.216"/>
<path d="M40.9734 3.34028C39.8475 3.54168 38.9795 3.80258 39.0347 3.92278C39.0898 4.04318 40.0473 3.97748 41.1731 3.77608C42.2991 3.57468 43.167 3.31378 43.1118 3.19348C43.0567 3.07318 42.0992 3.13888 40.9734 3.34028Z" stroke="#101F52" stroke-width="0.216"/>
<path d="M41.2195 4.6835C40.0936 4.885 39.2256 5.1457 39.2808 5.2661C39.336 5.3864 40.2934 5.3207 41.4193 5.1193C42.5452 4.9179 43.4131 4.657 43.358 4.5367C43.3028 4.4165 42.3454 4.4821 41.2195 4.6835Z" stroke="#101F52" stroke-width="0.216"/>
<path d="M43.1113 3.19385L43.3594 4.54335" stroke="#101F52" stroke-width="0.216"/>
<path d="M39.0342 3.92334L39.2782 5.25984" stroke="#101F52" stroke-width="0.216"/>
<path d="M17.5225 28.5932C17.5332 28.0191 17.544 27.4449 17.5615 26.9523C17.5791 26.4597 17.6036 26.0487 17.6253 25.6253C17.6471 25.202 17.6661 24.7663 17.6851 24.3201C17.7042 23.874 17.7234 23.4174 17.733 23.1891C17.7426 22.9609 17.7426 22.9609 17.7716 22.5631C17.8008 22.1654 17.8589 21.3699 17.9672 20.5749C18.0756 19.7798 18.2342 18.9853 18.4425 18.1457C18.6508 17.3061 18.9087 16.4215 19.1422 15.7375C19.3756 15.0535 19.5845 14.5702 19.9211 13.9069C20.2576 13.2436 20.7217 12.4004 21.1038 11.7439C21.4859 11.0873 21.7859 10.6175 22.2715 9.97171C22.7571 9.32581 23.4284 8.50391 24.0065 7.84121C24.5848 7.17861 25.0699 6.67481 25.7297 6.08461C26.3897 5.49441 27.2243 4.81761 28.0392 4.23771C28.8541 3.65781 29.6493 3.17471 30.6532 2.69281C31.6571 2.21091 32.8696 1.73011 33.8763 1.38281C34.883 1.03571 35.6839 0.822112 36.4995 0.656712C37.3153 0.491412 38.1457 0.374012 39.0268 0.282912C39.908 0.191612 40.8401 0.126412 41.4762 0.111312C42.1125 0.0963124 42.453 0.131412 42.71 0.206712C42.967 0.281912 43.1405 0.397312 43.2492 0.694512C43.3579 0.991812 43.4019 1.47091 43.4245 1.90481C43.447 2.33871 43.4482 2.72721 43.4487 2.92151C43.4493 3.11581 43.4493 3.11581 43.4493 3.11581" stroke="#101F52" stroke-width="0.216"/>
<path d="M38.7059 3.98206C38.6086 3.89096 38.5112 3.79976 38.4621 3.67456C38.413 3.54936 38.412 3.39026 38.4115 3.31056C38.4111 3.23096 38.4111 3.23096 38.4111 3.23096" stroke="#101F52" stroke-width="0.216"/>
<path d="M38.1596 3.79102C37.6013 3.94412 37.0429 4.09722 36.3178 4.31922C35.5928 4.54122 34.7008 4.83212 33.937 5.14392C33.1732 5.45582 32.5375 5.78852 31.8275 6.21622C31.1175 6.64392 30.3333 7.16652 29.6848 7.65692C29.0362 8.14722 28.5235 8.60552 28.0442 9.06652C27.5651 9.52762 27.1194 9.99152 26.713 10.4629C26.3066 10.9343 25.9395 11.4132 25.5751 11.9238C25.2108 12.4345 24.8492 12.977 24.4408 13.7167C24.0325 14.4563 23.5775 15.393 23.2375 16.1591C22.8976 16.9253 22.6729 17.5206 22.4685 18.2205C22.2641 18.9204 22.0799 19.7248 21.9604 20.2968C21.841 20.8689 21.7862 21.2086 21.7292 21.7957C21.6723 22.3829 21.6132 23.2175 21.5803 23.8054C21.5476 24.3934 21.5411 24.7347 21.5378 24.9092C21.5345 25.0837 21.5344 25.0913 21.5342 25.0989" stroke="#101F52" stroke-width="0.216"/>
<path d="M21.5293 25.3359C21.5575 25.8517 21.5856 26.3676 21.6239 26.8985C21.6621 27.4296 21.7103 27.9758 21.7345 28.2489C21.7586 28.5221 21.7586 28.5221 21.7586 28.5221" stroke="#101F52" stroke-width="0.216"/>
<path d="M21.5332 25.0864C21.5341 25.2155 21.535 25.3445 21.5355 25.4091C21.536 25.4737 21.536 25.4737 21.536 25.4737" stroke="#101F52" stroke-width="0.216"/>
<path d="M21.9066 28.5629C21.8792 28.54 21.8517 28.5172 21.8327 28.5048C21.8138 28.4923 21.8034 28.4903 21.7982 28.4893C21.793 28.4883 21.793 28.4883 21.793 28.4883" stroke="#101F52" stroke-width="0.216"/>
<path d="M17.376 28.6805C17.4179 28.6437 17.4599 28.6068 17.4843 28.588C17.5087 28.5692 17.5156 28.5683 17.5226 28.5674" stroke="#101F52" stroke-width="0.216"/>
<path d="M38.8351 3.51714C38.7912 3.16594 38.7472 2.81474 38.7304 2.55134C38.7137 2.28794 38.7241 2.11244 38.595 2.03654C38.4658 1.96054 38.197 1.98434 37.5929 2.09164C36.9888 2.19904 36.0494 2.38984 35.0649 2.69614C34.0804 3.00244 33.0509 3.42404 32.0785 3.89694C31.1062 4.36974 30.191 4.89374 29.4495 5.33884C28.7081 5.78404 28.1403 6.15054 27.4337 6.79424C26.7272 7.43804 25.8819 8.35914 25.1374 9.24804C24.3929 10.1369 23.7491 10.9934 23.2809 11.7193C22.8127 12.4451 22.52 13.0401 22.1663 13.8047C21.8126 14.5694 21.3979 15.5036 21.1183 16.1227C20.8387 16.7418 20.6942 17.0457 20.622 17.1977C20.5498 17.3497 20.5498 17.3497 20.5498 17.3497" stroke="#101F52" stroke-width="0.216"/>
<path d="M38.1592 3.7783C38.244 3.7551 38.3289 3.7318 38.4137 3.7085" stroke="#101F52" stroke-width="0.216"/>
<path d="M41.8486 2.63542C41.7491 2.03162 41.6497 1.42762 41.6484 1.05492C41.6472 0.682019 41.7441 0.540319 41.8667 0.437719C41.9894 0.334919 42.1378 0.27122 42.2862 0.20752" stroke="#101F52" stroke-width="0.216"/>
<path d="M40.7344 0.95752C40.1568 0.96122 39.5792 0.964919 38.6434 1.05452C37.7077 1.14422 36.4138 1.31982 35.3852 1.51662C34.3566 1.71322 33.5931 1.93092 32.659 2.33012C31.725 2.72922 30.6203 3.30992 30.0678 3.60022C29.5156 3.89052 29.5156 3.89052 29.5156 3.89052" stroke="#101F52" stroke-width="0.216"/>
</svg>
