<svg width="46" height="43" viewBox="0 0 46 43" fill="none" xmlns="http://www.w3.org/2000/svg">
<path d="M25.674 22.0623C26.3153 21.8344 27.1811 21.6321 27.8317 21.4608C28.5965 21.2596 29.2949 21.1269 29.953 21.0325C30.6108 20.9384 31.2281 20.8823 31.9797 20.8719C32.7312 20.8613 33.6168 20.8963 34.3609 20.9629C35.1048 21.0294 35.707 21.1279 36.0194 21.2423C36.3316 21.3569 36.3541 21.4876 36.3701 21.6443C36.3861 21.8008 36.3957 21.9833 36.4404 22.0948C36.485 22.2063 36.5648 22.2467 36.7006 22.3251C36.8366 22.4033 37.0289 22.5194 37.2118 22.6066C37.3946 22.6938 37.5684 22.7522 38.0113 22.7696C38.4541 22.7869 39.1662 22.7635 39.8178 22.6952C40.4693 22.6268 41.0602 22.5134 41.5841 22.3775C42.1081 22.2414 42.5649 22.0827 43.0725 21.8595C43.5802 21.6363 44.1388 21.3489 44.4946 21.114C44.8506 20.879 45.0037 20.6968 45.0789 20.5804C45.1542 20.4636 45.1515 20.4126 45.0846 19.8814C45.0179 19.3501 44.8868 18.3387 44.7681 17.7806C44.6495 17.2224 44.5432 17.1172 44.3356 17.0054C44.1282 16.8937 43.8196 16.7753 43.0749 16.5479C42.3301 16.3202 41.1493 15.9834 40.0619 15.7269C38.9746 15.4702 37.9805 15.2935 37.0795 15.1899C36.1786 15.0862 35.3705 15.0552 34.5145 15.0667C33.6583 15.0779 32.754 15.1317 31.8907 15.2276C31.0274 15.3234 30.2051 15.4614 29.4697 15.6285C28.7828 15.7844 27.7818 15.8293 25.1807 16.8342" stroke="#101F52" stroke-width="0.5"/>
<path d="M44.613 20.9863C44.7284 21.5114 44.844 22.0364 44.8924 22.3459C44.9407 22.6552 44.922 22.7492 44.8016 22.9062C44.6812 23.0632 44.459 23.2832 44.121 23.5126C43.7831 23.7421 43.3293 23.9809 42.7691 24.1861C42.209 24.3913 41.5426 24.5629 41.0402 24.6799C40.5379 24.7971 40.1997 24.8598 39.7742 24.8801C39.3486 24.9005 38.8357 24.8785 38.4566 24.8153C38.0775 24.752 37.8321 24.6475 37.7067 24.5371C37.5812 24.4268 37.5756 24.3107 37.5128 23.9984C37.45 23.686 37.3301 23.1774 37.21 22.6688" stroke="#101F52" stroke-width="0.5"/>
<path d="M40.1625 24.8472C40.0926 24.5374 40.0227 24.2275 39.9985 24.0566C39.9745 23.8856 39.9962 23.8535 40.4825 23.7256C40.9688 23.5977 41.9197 23.3737 42.4037 23.2808C42.8878 23.1878 42.9051 23.2256 42.9397 23.3784C42.9741 23.5309 43.0257 23.7981 43.0774 24.0653" stroke="#101F52" stroke-width="0.5"/>
<path d="M44.358 17.0176C43.6648 17.3423 42.9815 17.671 42.4055 18.0406C41.7695 18.449 41.2642 18.9074 40.9504 19.3994C40.6366 19.8913 40.5145 20.4169 40.5072 20.9135C40.4999 21.4102 40.6077 21.8779 40.66 22.1579C40.7124 22.4378 40.7095 22.5298 40.7065 22.6217" stroke="#101F52" stroke-width="0.5"/>
<path d="M41.8711 18.079C41.0157 18.1899 40.1602 18.3006 39.101 18.2855C38.0417 18.2702 36.7787 18.1291 35.5737 17.9852C34.3687 17.8414 33.2218 17.6946 32.31 17.5987C31.398 17.5027 30.7211 17.4576 29.825 17.5277C28.9288 17.5977 27.8133 17.7832 26.5303 18.1159C26.2574 18.1868 25.8376 18.2602 25.5303 18.3531" stroke="#101F52" stroke-width="0.5"/>
<path d="M23.1542 4.05752C22.7962 3.65742 22.4381 3.25752 21.9477 2.87602C21.4572 2.49472 20.8343 2.13192 20.0946 1.78832C19.3547 1.44472 18.498 1.12022 17.2902 0.861122C16.0824 0.601922 14.5236 0.407923 13.1551 0.313723C11.7865 0.219323 10.6083 0.224722 9.49505 0.364222C8.38175 0.503422 7.33375 0.776921 6.41475 1.12452C5.49575 1.47222 4.70595 1.89432 4.02905 2.41312C3.35215 2.93202 2.78805 3.54792 2.29345 4.17392C1.79885 4.79992 1.37365 5.43622 1.12115 6.00862C0.868553 6.58112 0.788853 7.08982 0.804653 7.52442C0.820453 7.95902 0.931853 8.31932 1.15865 8.70712C1.38535 9.09482 1.72735 9.50962 2.17995 9.86662C2.63245 10.2234 3.19565 10.522 3.88505 10.7555C4.57435 10.9887 5.39015 11.1567 6.23305 11.2095C7.07605 11.2621 7.94625 11.1995 8.69455 11.0785C9.44285 10.9573 10.0693 10.7775 10.6115 10.5639C11.1537 10.3504 11.6119 10.1029 12.0028 9.78342C12.3938 9.46372 12.7174 9.07202 12.9149 8.74562C13.1123 8.41922 13.1833 8.15822 13.249 7.61012C13.3146 7.06222 13.3748 6.22712 13.435 5.39232" stroke="#101F52" stroke-width="0.5"/>
<path d="M5.81738 7.77683C6.34668 7.26833 6.87598 6.75973 7.70388 6.35463C8.53188 5.94953 9.65848 5.64793 10.803 5.50193C11.9473 5.35573 13.1096 5.36543 14.2761 5.47583C15.4426 5.58633 16.6133 5.79773 17.5219 5.96893C18.4304 6.14023 19.0769 6.27123 19.6719 6.32303C20.2669 6.37483 20.8103 6.34743 21.3336 6.23383C21.8569 6.12023 22.3598 5.92103 22.6779 5.69173C22.9959 5.46263 23.1289 5.20363 23.1773 4.92633C23.2258 4.64903 23.1896 4.35323 23.1715 4.20543C23.1534 4.05743 23.1534 4.05743 23.0228 4.24673C22.8922 4.43583 22.6311 4.81433 22.2112 5.07103C21.7915 5.32753 21.2133 5.46233 20.1597 5.44883C19.1061 5.43523 17.5771 5.27333 16.3039 5.11263C15.0307 4.95183 14.0132 4.79233 13.0705 4.71283C12.1277 4.63353 11.2595 4.63413 10.3486 4.74963C9.43778 4.86503 8.48428 5.09523 7.75718 5.27143C7.03028 5.44763 6.53008 5.56963 6.02968 5.69163" stroke="#101F52" stroke-width="0.5"/>
<path d="M12.048 6.47519C12.2095 6.51189 12.3681 6.63369 12.4758 6.76909C12.5834 6.90459 12.6402 7.05379 12.6577 7.21739C12.6753 7.38059 12.6535 7.55819 12.5931 7.73829C12.5325 7.91829 12.4331 8.10069 12.3024 8.29379C12.1716 8.48689 12.0095 8.69039 11.8377 8.83949C11.6658 8.98859 11.4843 9.08289 11.3252 9.08899C11.1661 9.09499 11.0294 9.01269 10.9173 8.89639C10.805 8.78009 10.7173 8.62979 10.6933 8.42749C10.6694 8.22509 10.7093 7.97069 10.8036 7.71049C10.8979 7.45039 11.0468 7.18429 11.1815 6.98739C11.3163 6.79069 11.4369 6.66299 11.5796 6.57509C11.7221 6.48709 11.8866 6.43859 12.048 6.47519Z" stroke="#101F52" stroke-width="0.5"/>
<path d="M7.4779 7.50928C7.4574 8.09768 7.4368 8.68598 7.4246 9.25918C7.4123 9.83218 7.4084 10.3901 7.4043 10.948" stroke="#101F52" stroke-width="0.5"/>
<path d="M1.15846 8.70703C1.15036 9.38103 1.14226 10.0549 1.13716 13.0892C1.13196 16.1232 1.12956 21.5175 1.12626 24.2766C1.12286 27.0358 1.11856 27.1595 1.22736 27.3726C1.33616 27.5857 1.55816 27.8879 1.96696 28.1657C2.37586 28.4435 2.97156 28.6968 3.58426 28.9044C4.19706 29.1117 4.82706 29.2732 5.48306 29.3505C6.13916 29.4276 6.82146 29.4203 7.48286 29.3505C8.14396 29.2805 8.78416 29.1478 9.38056 28.9363C9.97696 28.7244 10.5297 28.4338 10.9265 28.1687C11.3233 27.9033 11.5642 27.6638 11.7186 27.4601C11.8729 27.2561 11.9408 27.088 11.9687 26.9572C11.9964 26.8264 11.9842 26.733 11.9782 26.6862C11.9719 26.6395 11.9719 26.6395 11.9719 26.6395" stroke="#101F52" stroke-width="0.5"/>
<path d="M12.2347 9.57764C12.1786 13.468 12.1225 17.3582 12.0664 21.2487" stroke="#101F52" stroke-width="0.5"/>
<path d="M1.14258 10.8979C1.65208 11.2626 2.16158 11.627 2.71538 11.905C3.26908 12.1832 3.86698 12.3744 4.55898 12.5306C5.25118 12.6864 6.03748 12.8068 6.78088 12.8251C7.52438 12.8433 8.22478 12.7593 8.87308 12.6192C9.52118 12.4791 10.117 12.2827 10.5742 12.0663C11.0313 11.8496 11.3496 11.6127 11.6001 11.4199C11.8505 11.2271 12.0332 11.0784 12.2159 10.9296" stroke="#101F52" stroke-width="0.5"/>
<path d="M1.12988 19.3765C1.31538 19.6472 1.50118 19.918 1.79808 20.2C2.09508 20.482 2.50348 20.7752 2.97578 21.0088C3.44818 21.2424 3.98468 21.4161 4.56918 21.5451C5.15368 21.6739 5.78628 21.7579 6.42938 21.765C7.07248 21.7719 7.72598 21.7018 8.35808 21.5766C8.99018 21.4513 9.60108 21.2712 10.1126 21.0487C10.6242 20.8264 11.0364 20.5616 11.3499 20.2858C11.6634 20.0097 11.878 19.7224 12.0927 19.435" stroke="#101F52" stroke-width="0.5"/>
<path d="M12.8207 26.2971C12.8189 26.7931 12.8171 27.2891 12.7657 27.6515C12.7142 28.0139 12.6132 28.2431 12.2912 28.5883C11.9691 28.9336 11.4259 29.3952 10.7854 29.7602C10.1448 30.1254 9.40689 30.3943 8.64179 30.5536C7.87659 30.7128 7.08439 30.7627 6.27959 30.7268C5.47479 30.6909 4.65749 30.5695 4.02679 30.4311C3.39599 30.2928 2.95199 30.1377 2.54009 29.945C2.12829 29.7525 1.74879 29.5222 1.41799 29.2316C1.08709 28.9411 0.804786 28.5901 0.607686 28.2423C0.410486 27.8943 0.298586 27.5495 0.263086 27.2382C0.227286 26.927 0.268086 26.6493 0.347186 26.3809C0.426286 26.1122 0.543886 25.8529 0.679986 25.6554C0.815886 25.458 0.970385 25.3225 1.12489 25.187" stroke="#101F52" stroke-width="0.5"/>
<path d="M7.04395 27.9325C7.29725 28.0033 7.55055 28.0741 8.01815 28.0033C8.48555 27.9325 9.16734 27.7198 9.69944 27.5176C10.2316 27.3153 10.6142 27.1232 11.3526 26.8408C12.091 26.5586 13.1852 26.1861 13.7324 25.9998C14.2795 25.8135 14.2795 25.8135 14.2795 25.8135" stroke="#101F52" stroke-width="0.5"/>
<path d="M12.5386 26.411C12.493 26.5969 12.4473 26.7829 12.2943 27.0554C12.1412 27.3279 11.8806 27.687 11.5793 27.9924C11.278 28.2976 10.9359 28.5492 10.457 28.7805C9.97806 29.0117 9.36226 29.2228 8.75076 29.3662C8.13926 29.5094 7.53206 29.5852 6.94986 29.6093C6.36776 29.6336 5.81076 29.6064 5.19396 29.5151C4.57706 29.4237 3.90036 29.2685 3.35806 29.0945C2.81586 28.9204 2.40786 28.728 2.04606 28.4926C1.68416 28.2571 1.36826 27.9786 1.13986 27.6975C0.91136 27.4162 0.77006 27.1324 0.67626 26.8791C0.58246 26.6258 0.53596 26.4033 0.52176 26.2429C0.50746 26.0824 0.52556 25.9838 0.54356 25.8853" stroke="#101F52" stroke-width="0.5"/>
<path d="M21.9617 17.8975C18.6636 19.0145 15.3654 20.1318 13.4882 20.7327C11.611 21.3336 11.1546 21.4186 10.7967 21.5146C10.4388 21.6106 10.1794 21.7178 9.79855 21.9719C9.41765 22.2259 8.91524 22.627 8.45724 23.0916C7.99924 23.5561 7.58554 24.0842 7.26744 24.5382C6.94934 24.9919 6.72684 25.3717 6.59914 25.7005C6.47134 26.0293 6.43834 26.3071 6.46624 26.6183C6.49404 26.9292 6.58284 27.2733 6.68944 27.4979C6.79574 27.7226 6.91994 27.8277 7.04404 27.9327" stroke="#101F52" stroke-width="0.5"/>
<path d="M14.2793 25.8132C18.4346 24.446 22.5899 23.0791 26.0416 21.9411M27.7636 15.9819C26.6408 16.3519 25.6234 16.6878 24.8273 16.9507C21.9615 17.897 21.9614 17.897 21.9614 17.897" stroke="#101F52" stroke-width="0.5"/>
<path d="M25.5308 18.353C22.83 19.2909 19.9911 20.2958 17.6631 21.134C13.4246 22.66 10.8794 23.6331 9.38801 24.2863C7.89641 24.9396 7.45841 25.273 7.02051 25.6065" stroke="#101F52" stroke-width="0.5"/>
<path d="M1.76333 29.5684C1.75633 31.6825 1.75633 33.6402 1.79463 34.6993C1.80523 34.9926 1.81883 35.2172 1.83763 35.3903M10.2106 36.2063C10.5201 36.0234 10.7905 35.8237 10.9713 35.6391C11.2086 35.3972 11.2923 35.1808 11.3343 35.0727C11.3761 34.9644 11.3761 34.9644 11.3793 33.8789C11.3817 33.0168 11.3862 31.4703 11.3912 29.7827" stroke="#101F52" stroke-width="0.5"/>
<path d="M11.3312 35.0799C11.3556 35.1407 11.368 35.2026 11.3675 35.2655C11.3602 36.0739 9.21026 36.7102 6.56556 36.6863C3.92086 36.6625 1.78276 35.9878 1.79006 35.1793C1.79046 35.1349 1.79736 35.0911 1.81026 35.0479" stroke="#101F52" stroke-width="0.5"/>
<path d="M11.3638 31.2692C11.2189 32.0387 9.12528 32.632 6.56988 32.6089C4.01448 32.586 1.93188 31.9552 1.80078 31.1831" stroke="#101F52" stroke-width="0.5"/>
<path d="M11.3177 29.6138C11.1728 30.3833 9.07918 30.9766 6.52378 30.9536C3.96838 30.9307 1.88578 30.2999 1.75488 29.5278" stroke="#101F52" stroke-width="0.5"/>
<path d="M11.3109 30.3052C11.1661 31.0748 9.07245 31.6679 6.51705 31.645C3.96175 31.6219 1.87915 30.9912 1.74805 30.2192" stroke="#101F52" stroke-width="0.5"/>
<path d="M11.305 30.9966C11.1602 31.766 9.06649 32.3591 6.51119 32.3362C3.95579 32.3133 1.87319 31.6824 1.74219 30.9106" stroke="#101F52" stroke-width="0.5"/>
<path d="M11.2984 31.6881C11.1535 32.4577 9.05985 33.0509 6.50445 33.0279C3.94905 33.005 1.86645 32.3742 1.73535 31.6021" stroke="#101F52" stroke-width="0.5"/>
<path d="M11.2925 32.3794C11.1476 33.1491 9.05399 33.7423 6.49859 33.7194C3.94319 33.6963 1.86049 33.0656 1.72949 32.2935" stroke="#101F52" stroke-width="0.5"/>
<path d="M11.2864 33.0709C11.1415 33.8403 9.04793 34.4336 6.49253 34.4105C3.93713 34.3876 1.85453 33.7567 1.72363 32.9849" stroke="#101F52" stroke-width="0.5"/>
<path d="M11.2797 33.7622C11.1349 34.5316 9.0412 35.1249 6.4858 35.1019C3.9305 35.0789 1.8479 34.4482 1.7168 33.6763" stroke="#101F52" stroke-width="0.5"/>
<path d="M11.2738 34.4532C11.1289 35.2228 9.03524 35.816 6.47994 35.7931C3.92454 35.77 1.84194 35.1393 1.71094 34.3672" stroke="#101F52" stroke-width="0.5"/>
<path d="M6.97009 37.1074C9.83209 37.1074 12.1521 38.1223 12.1521 39.3742C12.1521 40.6258 9.83209 41.6408 6.97009 41.6408C4.10819 41.6408 1.78809 40.6258 1.78809 39.3742C1.78809 38.1223 4.10819 37.1074 6.97009 37.1074Z" stroke="#101F52" stroke-width="0.5"/>
<path d="M6.96928 37.8384C8.90788 37.8384 10.4795 38.526 10.4795 39.3741C10.4795 40.2219 8.90788 40.9093 6.96928 40.9093C5.03058 40.9093 3.45898 40.2219 3.45898 39.3741C3.45898 38.526 5.03058 37.8384 6.96928 37.8384Z" stroke="#101F52" stroke-width="0.5"/>
<path d="M3.94848 40.156C3.64558 39.9942 3.47168 39.8056 3.47168 39.6043C3.47168 39.0026 5.02108 38.5151 6.93248 38.5151C8.77688 38.5151 10.2841 38.9691 10.3879 39.5411" stroke="#101F52" stroke-width="0.5"/>
<path d="M11.2222 40.6698C11.3032 40.7868 11.3461 40.9089 11.3461 41.0346C11.3461 41.8826 9.39163 42.57 6.98073 42.57C4.56963 42.57 2.61523 41.8826 2.61523 41.0346C2.61523 40.9123 2.65583 40.7933 2.73253 40.6794M3.72293 40.0125C3.73553 40.0076 3.74833 40.0025 3.76103 39.9976" stroke="#101F52" stroke-width="0.5"/>
<path d="M2.4248 40.4639L2.6805 41.4505" stroke="#101F52" stroke-width="0.5"/>
<path d="M11.4735 40.541L11.2178 41.5275" stroke="#101F52" stroke-width="0.5"/>
<path d="M5.1416 41.4956L5.2667 42.447" stroke="#101F52" stroke-width="0.5"/>
<path d="M9.03516 41.5L8.91016 42.4514" stroke="#101F52" stroke-width="0.5"/>
</svg>
