<svg width="65" height="65" viewBox="0 0 65 65" fill="none" xmlns="http://www.w3.org/2000/svg">
<path d="M22.1863 20.1448C22.3706 20.1608 22.731 20.265 23.1196 20.3491C23.508 20.4332 23.9246 20.4973 24.3252 20.5334C24.7257 20.5694 25.1101 20.5774 25.4786 20.5694C25.847 20.5614 26.1996 20.5374 26.5481 20.4933C26.8964 20.4492 27.2408 20.3851 27.4851 20.3291C27.7295 20.273 27.8737 20.225 27.9417 20.2811C28.0098 20.3371 28.0019 20.4973 27.9859 20.6615C27.9698 20.8257 27.9458 20.9939 27.8978 21.2182C27.8496 21.4426 27.7775 21.7229 27.7255 21.9232C27.6734 22.1234 27.6415 22.2435 27.4412 22.3877C27.2408 22.5319 26.8725 22.7001 26.4439 22.7963C26.0153 22.8924 25.5266 22.9164 24.994 22.8764C24.4613 22.8363 23.8845 22.7322 23.4519 22.624C23.0193 22.5159 22.731 22.4037 22.5549 22.2956C22.3786 22.1875 22.3145 22.0833 22.2505 21.9152C22.1863 21.7469 22.1223 21.5146 22.0822 21.2662C22.0423 21.0179 22.0262 20.7536 22.0142 20.5854C22.0022 20.4171 21.9941 20.3451 21.9941 20.2731C21.9941 20.2009 22.0022 20.1288 22.1863 20.1448Z" stroke="#101F52" stroke-width="0.3501"/>
<path d="M23.1191 20.3491C23.2539 20.6521 23.3887 20.9552 23.4523 21.2469C23.5156 21.5386 23.5075 21.8189 23.4569 22.0362C23.4062 22.2534 23.3129 22.4077 23.2664 22.4848C23.2196 22.5619 23.2196 22.5619 23.2196 22.5619" stroke="#101F52" stroke-width="0.3501"/>
<path d="M24.3244 20.5337C24.1936 20.7432 24.0628 20.9528 23.9893 21.1659C23.9159 21.3788 23.8997 21.595 23.9158 21.8233C23.9318 22.0516 23.9801 22.2919 24.0356 22.4536C24.0912 22.6153 24.154 22.6984 24.2172 22.7815" stroke="#101F52" stroke-width="0.3501"/>
<path d="M26.0139 20.5454C26.121 20.775 26.2281 21.0047 26.2777 21.2557C26.3273 21.5067 26.3192 21.779 26.2792 22.0074C26.2392 22.2357 26.1671 22.4198 26.1122 22.5563C26.0575 22.6927 26.0199 22.7814 25.9824 22.8701" stroke="#101F52" stroke-width="0.3501"/>
<path d="M26.6696 20.4771C26.6463 20.6814 26.6227 20.8858 26.6111 21.1001C26.5994 21.3144 26.5994 21.5387 26.6434 21.743C26.6875 21.9473 26.7756 22.1314 26.8359 22.2772C26.8961 22.4229 26.9284 22.5301 26.9607 22.6373" stroke="#101F52" stroke-width="0.3501"/>
<path d="M22.9912 22.4902C22.9923 22.7204 22.9934 22.9506 22.9942 23.0657C22.9947 23.1808 22.9947 23.1808 22.9947 23.1808" stroke="#101F52" stroke-width="0.3501"/>
<path d="M22.9928 22.8358C22.9214 22.8668 22.8498 22.8977 22.8162 22.9393C22.7824 22.9808 22.7864 23.0329 22.8225 23.0749C22.8585 23.117 22.9266 23.1491 23.0527 23.2032C23.1789 23.2572 23.3632 23.3334 23.6236 23.3873C23.8838 23.4414 24.2203 23.4735 24.5067 23.4895C24.7931 23.5055 25.0293 23.5055 25.2797 23.4935C25.53 23.4815 25.7942 23.4574 26.0126 23.4315C26.2309 23.4054 26.403 23.3774 26.5573 23.3273C26.7115 23.2772 26.8477 23.2051 26.9317 23.1471C27.0158 23.089 27.048 23.045 27.0624 22.9547C27.0769 22.8645 27.0738 22.7281 27.0706 22.5918" stroke="#101F52" stroke-width="0.3501"/>
<path d="M26.1552 28.4678C26.0951 28.3957 26.0351 28.3236 25.9229 28.1794C25.8106 28.0353 25.6464 27.819 25.5143 27.5726C25.3821 27.3264 25.282 27.0499 25.2481 26.8037C25.2139 26.5573 25.246 26.341 25.3202 26.1529C25.3941 25.9646 25.5103 25.8044 25.6885 25.6042C25.8668 25.4039 26.1071 25.1635 26.3374 24.9613C26.5676 24.759 26.788 24.5948 27.0022 24.4486C27.2164 24.3024 27.4249 24.1743 27.5289 24.1102C27.6331 24.0461 27.6331 24.0461 27.6331 23.944C27.6331 23.8419 27.6331 23.6376 27.6131 23.5155C27.593 23.3933 27.553 23.3532 27.4579 23.2734C27.363 23.1937 27.2128 23.0742 27.0628 22.9546" stroke="#101F52" stroke-width="0.3501"/>
<path d="M32.1369 24.701C32.2272 24.8391 32.3152 24.8632 32.4092 24.9213C32.5034 24.9793 32.6036 25.0715 32.6878 25.1956C32.7717 25.3197 32.8398 25.4759 32.8839 25.6702C32.9281 25.8645 32.948 26.0968 32.9581 26.325C32.968 26.5533 32.968 26.7776 32.9401 27.0199C32.9119 27.2623 32.8559 27.5226 32.7779 27.795C32.6997 28.0673 32.5996 28.3517 32.4834 28.598C32.3674 28.8443 32.2351 29.0525 32.115 29.1807C31.9947 29.3089 31.8866 29.3569 31.1677 29.2668C30.4488 29.1768 29.1192 28.9484 28.3962 28.7922C27.6732 28.6361 27.5571 28.5518 27.4729 28.4458C27.3889 28.3397 27.3369 28.2115 27.2847 28.0152C27.2327 27.819 27.1805 27.5546 27.1645 27.2623C27.1485 26.9699 27.1685 26.6495 27.2247 26.305C27.2807 25.9606 27.3729 25.5921 27.4569 25.3618C27.541 25.1315 27.6171 25.0394 27.7052 24.9252C27.7933 24.8111 27.8936 24.6749 27.9697 24.5468C28.0456 24.4186 28.0978 24.2984 28.182 24.1182C28.2659 23.938 28.3822 23.6977 28.4642 23.5595C28.5464 23.4213 28.5944 23.3853 28.6424 23.3613C28.6906 23.3372 28.7386 23.3252 29.2312 23.3832C29.7238 23.4413 30.6611 23.5695 31.1456 23.6436C31.6304 23.7177 31.6624 23.7377 31.7063 23.7978C31.7505 23.8579 31.8066 23.958 31.8806 24.1343C31.9548 24.3104 32.0468 24.5628 32.1369 24.701Z" stroke="#101F52" stroke-width="0.3501"/>
<path d="M28.54 23.4473C29.4915 23.5947 30.4428 23.7422 30.9305 23.82C31.4182 23.8977 31.4423 23.9057 31.4783 23.9658C31.5144 24.0259 31.5624 24.1381 31.6205 24.3043C31.6786 24.4705 31.7466 24.6908 31.7787 24.8229C31.8107 24.9551 31.8068 24.9992 31.7827 25.0612C31.7587 25.1233 31.7146 25.2034 31.6426 25.3356C31.5705 25.4677 31.4703 25.6519 31.3762 25.8622C31.2821 26.0725 31.194 26.3088 31.1319 26.5752C31.0698 26.8415 31.0338 27.1378 31.0178 27.4243C31.0017 27.7106 31.0057 27.987 31.0358 28.2233C31.0659 28.4596 31.1219 28.6559 31.1899 28.8161C31.258 28.9763 31.3382 29.1004 31.3939 29.1756C31.4495 29.2507 31.4808 29.2769 31.5119 29.3031" stroke="#101F52" stroke-width="0.3501"/>
<path d="M32.3005 26.1668C32.2464 26.1289 32.1985 26.1208 32.1363 26.1348C32.0744 26.1488 31.9981 26.1849 31.9322 26.265C31.866 26.3451 31.8099 26.4693 31.756 26.6635C31.7019 26.8577 31.6497 27.122 31.6418 27.3383C31.6337 27.5546 31.6697 27.7228 31.72 27.8551C31.7699 27.9872 31.834 28.0834 31.9121 28.1334C31.9902 28.1834 32.0823 28.1875 32.1604 28.1494C32.2385 28.1114 32.3026 28.0312 32.3668 27.885C32.4307 27.7388 32.4949 27.5266 32.529 27.3163C32.5629 27.106 32.567 26.8978 32.5529 26.7356C32.5388 26.5734 32.5069 26.4572 32.4608 26.3651C32.4148 26.273 32.3546 26.2049 32.3005 26.1668Z" stroke="#101F52" stroke-width="0.3501"/>
<path d="M31.7827 25.0615C30.5313 24.8548 29.2797 24.6481 28.0283 24.4414" stroke="#101F52" stroke-width="0.3501"/>
<path d="M31.5038 25.5962C30.3137 25.4159 29.1237 25.2355 27.9336 25.0552" stroke="#101F52" stroke-width="0.3501"/>
<path d="M28.0652 24.2025C27.9771 24.1945 27.8891 24.1865 27.8141 24.1607C27.7391 24.135 27.6772 24.0915 27.6152 24.0479" stroke="#101F52" stroke-width="0.3501"/>
<path d="M28.0803 24.3348C27.9311 24.4268 27.7818 24.5187 27.6531 24.6547C27.5244 24.7908 27.4162 24.971 27.3122 25.1894C27.208 25.4076 27.1078 25.6639 27.0377 25.9663C26.9677 26.2687 26.9276 26.6171 26.9136 26.9316C26.8997 27.246 26.9115 27.5263 26.9697 27.7706C27.0279 28.0149 27.1319 28.2232 27.228 28.3514C27.3241 28.4795 27.4122 28.5276 27.4543 28.5516C27.4964 28.5756 27.4923 28.5756 27.4503 28.6117C27.4083 28.6478 27.3282 28.7198 27.2241 28.7959C27.12 28.872 26.9917 28.9521 26.8154 29.0202C26.6392 29.0883 26.415 29.1444 26.1847 29.1805C25.9544 29.2165 25.718 29.2325 25.4137 29.2286C25.1093 29.2245 24.7368 29.2005 24.3744 29.1745C24.0119 29.1484 23.6595 29.1203 23.3852 29.0763C23.1107 29.0322 22.9145 28.9722 22.7462 28.8701C22.5781 28.7679 22.4378 28.6238 22.3477 28.5216C22.2576 28.4194 22.2176 28.3594 22.1997 27.5764C22.1816 26.7934 22.1855 25.2874 22.1916 24.5264C22.1976 23.7654 22.2055 23.7494 22.2617 23.6654C22.3177 23.5812 22.4218 23.4291 22.5185 23.3081C22.6149 23.1872 22.704 23.0974 22.7486 23.0526C22.7931 23.0077 22.7931 23.0077 22.798 23.0188C22.8028 23.03 22.8126 23.0523 22.8224 23.0745" stroke="#101F52" stroke-width="0.3501"/>
<path d="M22.4307 23.8779C22.5708 23.958 22.7109 24.0381 22.9033 24.1002C23.0956 24.1623 23.3398 24.2064 23.6242 24.2363C23.9086 24.2664 24.2331 24.2824 24.4933 24.2845C24.7537 24.2864 24.9499 24.2744 25.2182 24.2283C25.4866 24.1823 25.8271 24.1022 26.0594 24.0501C26.2917 23.9981 26.4158 23.974 26.54 23.95" stroke="#101F52" stroke-width="0.3501"/>
<path d="M24.2686 29.0447C24.2686 27.8231 24.2686 26.6015 24.2686 25.3799" stroke="#101F52" stroke-width="0.3501"/>
<path d="M22.1826 23.7052C22.2093 23.692 22.236 23.6788 22.1491 23.7215C22.0623 23.7643 21.862 23.863 21.6497 24.1247C21.4375 24.3863 21.2132 24.8109 21.0951 25.0633C20.9768 25.3156 20.9648 25.3957 20.9589 25.4878C20.9529 25.5799 20.9529 25.684 20.9969 25.8262C21.041 25.9683 21.1291 26.1486 21.2492 26.3769C21.3694 26.6052 21.5215 26.8815 21.6337 27.0258C21.746 27.1699 21.818 27.1819 21.9046 27.1879C21.9913 27.1939 22.0926 27.1938 22.1939 27.1937" stroke="#101F52" stroke-width="0.3501"/>
<path d="M22.1976 24.0908C22.0749 24.2241 21.9522 24.3574 21.8508 24.5202C21.7495 24.6831 21.6694 24.8752 21.6194 25.0796C21.5693 25.2838 21.5492 25.5001 21.5533 25.7104C21.5572 25.9206 21.5853 26.1249 21.6493 26.3131C21.7135 26.5013 21.8135 26.6736 21.91 26.7937C22.0065 26.9138 22.0992 26.9816 22.192 27.0496" stroke="#101F52" stroke-width="0.3501"/>
<path d="M22.1909 23.7006C21.85 23.6554 21.5091 23.6104 21.3326 23.5918C21.1563 23.5733 21.1442 23.5813 20.952 23.7636C20.7598 23.9458 20.3872 24.3023 20.177 24.5666C19.9667 24.8309 19.9185 25.0032 19.8906 25.1634C19.8625 25.3236 19.8546 25.4718 19.8506 25.6219C19.8464 25.7721 19.8464 25.9243 19.8766 26.0705C19.9066 26.2167 19.9667 26.3569 20.1348 26.5451C20.3032 26.7334 20.5794 26.9696 20.7397 27.0918C20.9 27.2139 20.9439 27.222 21.1426 27.2199C21.3415 27.2177 21.6949 27.2053 22.0484 27.193" stroke="#101F52" stroke-width="0.3501"/>
<path d="M19.8623 25.3921C20.2307 25.3969 20.5991 25.4018 20.9675 25.4065" stroke="#101F52" stroke-width="0.3501"/>
<path d="M20.9521 23.7637C21.26 23.8074 21.568 23.851 21.8759 23.8947" stroke="#101F52" stroke-width="0.3501"/>
<path d="M20.6755 23.9258C20.2951 23.9258 19.9145 23.9258 19.7184 23.9378C19.5221 23.9498 19.5102 23.9738 19.462 24.072C19.414 24.1701 19.3299 24.3423 19.2517 24.5245C19.1736 24.7068 19.1016 24.899 19.0596 25.0612C19.0174 25.2234 19.0055 25.3556 19.0215 25.5138C19.0375 25.672 19.0816 25.8563 19.1357 26.0585C19.1898 26.2608 19.2538 26.4811 19.3218 26.6092C19.39 26.7374 19.462 26.7735 19.5703 26.8075C19.6783 26.8415 19.8224 26.8735 19.9712 26.8771C20.1199 26.8807 20.2729 26.8557 20.4262 26.8307" stroke="#101F52" stroke-width="0.3501"/>
<path d="M18.7454 23.9819C18.7093 24.034 18.5932 24.1302 18.489 24.2803C18.3849 24.4305 18.2928 24.6348 18.2288 24.855C18.1646 25.0753 18.1287 25.3117 18.1186 25.532C18.1085 25.7522 18.1247 25.9565 18.1646 26.1248C18.2046 26.2929 18.2688 26.4251 18.3088 26.4932C18.3489 26.5612 18.3649 26.5653 18.3289 26.5673C18.2928 26.5692 18.2046 26.5692 18.1105 26.5653C18.0165 26.5612 17.9162 26.5532 17.8622 26.5513C17.8082 26.5492 17.8003 26.5532 17.7722 26.5112C17.7441 26.4692 17.6961 26.3811 17.6581 26.2028C17.62 26.0245 17.5919 25.7561 17.5899 25.5259C17.588 25.2956 17.6119 25.1034 17.6541 24.9231C17.6961 24.7429 17.7561 24.5747 17.8422 24.4346C17.9284 24.2943 18.0405 24.1822 18.1306 24.1001C18.2206 24.0179 18.2888 23.9659 18.3349 23.9379C18.3809 23.9099 18.4049 23.9058 18.461 23.9058C18.5171 23.9058 18.6053 23.9099 18.6713 23.9158C18.7374 23.9218 18.7814 23.9299 18.7454 23.9819Z" stroke="#101F52" stroke-width="0.3501"/>
<path d="M19.4183 24.0063C19.3822 24.0583 19.2661 24.1545 19.162 24.3047C19.0578 24.4548 18.9657 24.6591 18.9017 24.8794C18.8375 25.0997 18.8015 25.336 18.7916 25.5563C18.7814 25.7765 18.7974 25.9808 18.8375 26.1491C18.8776 26.3172 18.9417 26.4495 18.9817 26.5175C19.0218 26.5855 19.0378 26.5896 19.0018 26.5916C18.9657 26.5936 18.8776 26.5936 18.7835 26.5896C18.6893 26.5855 18.5892 26.5775 18.5352 26.5756C18.4811 26.5736 18.473 26.5775 18.4451 26.5356C18.4171 26.4935 18.3689 26.4054 18.3309 26.2272C18.2928 26.0489 18.2648 25.7805 18.2628 25.5502C18.2608 25.3199 18.2849 25.1277 18.327 24.9475C18.3689 24.7673 18.4291 24.599 18.5151 24.4589C18.6013 24.3186 18.7134 24.2066 18.8035 24.1244C18.8936 24.0423 18.9617 23.9902 19.0078 23.9623C19.0538 23.9342 19.0779 23.9302 19.134 23.9302C19.1901 23.9302 19.2782 23.9342 19.3442 23.9401C19.4102 23.9462 19.4544 23.9542 19.4183 24.0063Z" stroke="#101F52" stroke-width="0.3501"/>
<path d="M18.0726 23.9701C18.0365 24.0221 17.9202 24.1182 17.8163 24.2684C17.7121 24.4186 17.62 24.6229 17.5558 24.8432C17.4918 25.0635 17.4557 25.2998 17.4458 25.52C17.4356 25.7403 17.4516 25.9446 17.4918 26.1129C17.5319 26.281 17.5959 26.4133 17.636 26.4813C17.676 26.5493 17.692 26.5534 17.656 26.5554C17.62 26.5573 17.5319 26.5573 17.4378 26.5534C17.3435 26.5493 17.2435 26.5413 17.1894 26.5394C17.1353 26.5374 17.1272 26.5413 17.0993 26.4993C17.0712 26.4573 17.0232 26.3691 16.9851 26.1909C16.9471 26.0127 16.919 25.7443 16.9171 25.514C16.915 25.2837 16.9391 25.0915 16.9811 24.9113C17.0232 24.7311 17.0833 24.5628 17.1694 24.4227C17.2555 24.2824 17.3677 24.1704 17.4578 24.0882C17.5479 24.0061 17.6159 23.954 17.662 23.926C17.7081 23.898 17.7321 23.894 17.7881 23.894C17.8442 23.894 17.9324 23.898 17.9985 23.9039C18.0645 23.91 18.1087 23.918 18.0726 23.9701Z" stroke="#101F52" stroke-width="0.3501"/>
<path d="M17.3811 23.9341C17.3451 23.9861 17.229 24.0822 17.1249 24.2324C17.0207 24.3825 16.9286 24.5869 16.8645 24.8072C16.8003 25.0274 16.7644 25.2638 16.7543 25.484C16.7444 25.7043 16.7604 25.9086 16.8003 26.0768C16.8404 26.245 16.9045 26.3772 16.9446 26.4453C16.9846 26.5133 17.0006 26.5174 16.9646 26.5194C16.9286 26.5213 16.8404 26.5213 16.7463 26.5174C16.6522 26.5133 16.552 26.5053 16.498 26.5033C16.4439 26.5014 16.436 26.5053 16.4079 26.4633C16.3799 26.4213 16.3318 26.3331 16.2938 26.1549C16.2558 25.9767 16.2276 25.7083 16.2257 25.478C16.2237 25.2477 16.2476 25.0555 16.2898 24.8753C16.3318 24.695 16.3919 24.5268 16.4779 24.3866C16.5641 24.2464 16.6762 24.1343 16.7664 24.0522C16.8564 23.9701 16.9246 23.918 16.9706 23.89C17.0166 23.8619 17.0407 23.8579 17.0967 23.8579C17.1528 23.8579 17.241 23.8619 17.3071 23.8679C17.3732 23.874 17.4171 23.882 17.3811 23.9341Z" stroke="#101F52" stroke-width="0.3501"/>
<path d="M16.6888 23.8981C16.6528 23.9501 16.5365 24.0462 16.4325 24.1964C16.3283 24.3465 16.2361 24.5509 16.1722 24.7712C16.108 24.9914 16.072 25.2277 16.062 25.448C16.0519 25.6683 16.068 25.8726 16.108 26.0408C16.1481 26.209 16.2121 26.3412 16.2522 26.4093C16.2923 26.4773 16.3082 26.4814 16.2722 26.4833C16.2361 26.4853 16.1481 26.4853 16.0539 26.4814C15.9598 26.4773 15.8598 26.4693 15.8057 26.4673C15.7516 26.4654 15.7435 26.4693 15.7155 26.4273C15.6874 26.3852 15.6394 26.2971 15.6013 26.1189C15.5633 25.9407 15.5353 25.6723 15.5333 25.442C15.5313 25.2116 15.5554 25.0195 15.5974 24.8393C15.6394 24.6589 15.6996 24.4908 15.7856 24.3506C15.8717 24.2104 15.9838 24.0983 16.074 24.0162C16.1641 23.9341 16.2322 23.882 16.2784 23.8539C16.3243 23.8259 16.3484 23.8218 16.4045 23.8218C16.4606 23.8218 16.5487 23.8259 16.6147 23.8319C16.6808 23.8379 16.7249 23.8459 16.6888 23.8981Z" stroke="#101F52" stroke-width="0.3501"/>
<path d="M15.8764 23.8899C15.8431 23.9438 15.7321 24.0459 15.636 24.2013C15.54 24.3567 15.4585 24.5656 15.4061 24.7889C15.3537 25.0122 15.3301 25.2501 15.3316 25.4706C15.3331 25.6911 15.3598 25.8943 15.4085 26.0602C15.4573 26.226 15.5283 26.3547 15.5717 26.4206C15.6153 26.4865 15.6315 26.4896 15.5957 26.4935C15.5597 26.4974 15.4718 26.502 15.3776 26.503C15.2833 26.5038 15.1829 26.5011 15.1289 26.502C15.0747 26.5028 15.067 26.5072 15.0369 26.4667C15.0066 26.4262 14.9541 26.3407 14.9067 26.1647C14.8594 25.9887 14.8172 25.7221 14.8033 25.4923C14.7892 25.2624 14.8032 25.0692 14.8357 24.887C14.8682 24.7048 14.9195 24.5337 14.9981 24.3892C15.0768 24.2447 15.1829 24.1268 15.2687 24.0401C15.3543 23.9534 15.4197 23.8979 15.464 23.8675C15.5086 23.837 15.5324 23.8317 15.5884 23.8288C15.6444 23.8258 15.7327 23.8252 15.799 23.8278C15.8651 23.8303 15.9097 23.836 15.8764 23.8899Z" stroke="#101F52" stroke-width="0.3501"/>
<path d="M15.0606 23.8877C15.0302 23.9432 14.9246 24.051 14.8367 24.2113C14.7489 24.3715 14.6786 24.5843 14.6379 24.81C14.5972 25.0359 14.5861 25.2746 14.5991 25.4947C14.6122 25.7148 14.6495 25.9164 14.7069 26.0795C14.7643 26.2426 14.8418 26.3673 14.8887 26.4309C14.9358 26.4944 14.9521 26.4967 14.9164 26.5025C14.8808 26.5082 14.7932 26.5174 14.6991 26.5232C14.6052 26.5291 14.5047 26.5316 14.4507 26.5353C14.3967 26.539 14.3892 26.5438 14.357 26.5049C14.3247 26.466 14.2676 26.3833 14.2112 26.2101C14.1547 26.0368 14.0987 25.7728 14.0728 25.544C14.0466 25.3152 14.0505 25.1215 14.0734 24.9379C14.0964 24.7542 14.1387 24.5807 14.2095 24.4322C14.2805 24.2838 14.3803 24.1606 14.4615 24.0695C14.5424 23.9784 14.6048 23.9196 14.6476 23.8869C14.6904 23.8542 14.714 23.8476 14.7697 23.8417C14.8256 23.8359 14.9136 23.8307 14.9798 23.8297C15.0462 23.8288 15.091 23.8321 15.0606 23.8877Z" stroke="#101F52" stroke-width="0.3501"/>
<path d="M14.2438 23.8829C14.2162 23.9399 14.1166 24.0531 14.0372 24.2177C13.9579 24.3823 13.8988 24.5985 13.87 24.8261C13.8411 25.0536 13.8426 25.2927 13.867 25.5119C13.8916 25.731 13.9395 25.9302 14.0053 26.0902C14.0712 26.25 14.1552 26.3706 14.2053 26.4315C14.2557 26.4925 14.2721 26.4939 14.2367 26.5016C14.2015 26.5092 14.1145 26.523 14.0209 26.5338C13.9272 26.5445 13.8271 26.5523 13.7733 26.5587C13.7196 26.5652 13.7124 26.5704 13.6781 26.5333C13.6439 26.4961 13.5826 26.4166 13.5172 26.2466C13.4517 26.0764 13.3819 25.8157 13.344 25.5886C13.306 25.3615 13.2996 25.1678 13.313 24.9833C13.3263 24.7986 13.3593 24.6231 13.4225 24.4712C13.4857 24.3192 13.5789 24.191 13.6549 24.0957C13.7311 24.0005 13.7902 23.9385 13.8314 23.9036C13.8725 23.8687 13.8956 23.861 13.9509 23.8522C14.0063 23.8434 14.094 23.8336 14.1603 23.8292C14.2264 23.8248 14.2711 23.8258 14.2438 23.8829Z" stroke="#101F52" stroke-width="0.3501"/>
<path d="M13.426 23.9887C13.4016 24.0471 13.3079 24.1653 13.2373 24.3339C13.1667 24.5024 13.1191 24.7214 13.1021 24.9502C13.0852 25.179 13.0991 25.4177 13.1351 25.6352C13.1711 25.8527 13.2292 26.0492 13.3034 26.2055C13.3776 26.3616 13.4677 26.4776 13.5211 26.5359C13.5744 26.5941 13.5909 26.5948 13.5561 26.6042C13.5212 26.6136 13.435 26.6319 13.3421 26.6477C13.2493 26.6632 13.1495 26.6763 13.0963 26.6855C13.043 26.6948 13.036 26.7004 12.9999 26.6651C12.9637 26.6298 12.8983 26.5536 12.824 26.3872C12.7499 26.2207 12.6665 25.9641 12.6169 25.7392C12.567 25.5143 12.5505 25.3214 12.5542 25.1364C12.5578 24.9512 12.5815 24.7742 12.6366 24.6192C12.6917 24.4642 12.7782 24.3312 12.8492 24.2322C12.9203 24.133 12.976 24.068 13.0153 24.031C13.0545 23.994 13.0772 23.9851 13.132 23.9734C13.1869 23.9617 13.2739 23.9473 13.3399 23.9395C13.4056 23.9316 13.4504 23.9303 13.426 23.9887Z" stroke="#101F52" stroke-width="0.3501"/>
<path d="M12.6068 24.0962C12.5855 24.1559 12.4981 24.2788 12.4364 24.4508C12.3748 24.6229 12.3386 24.844 12.3337 25.0734C12.3288 25.3027 12.3553 25.5404 12.4025 25.7557C12.4498 25.971 12.5182 26.1643 12.6005 26.3164C12.6826 26.4685 12.7787 26.5796 12.835 26.635C12.8915 26.6903 12.908 26.6901 12.8736 26.7014C12.8393 26.7126 12.7541 26.7354 12.6622 26.7559C12.5703 26.7764 12.4714 26.7945 12.4187 26.8067C12.3659 26.8187 12.3594 26.8246 12.3214 26.7913C12.2833 26.7579 12.2142 26.6853 12.1313 26.523C12.0484 26.3606 11.9518 26.1086 11.8904 25.8867C11.8287 25.6648 11.8022 25.4729 11.7962 25.2879C11.7901 25.103 11.8046 24.9249 11.8516 24.7672C11.8985 24.6095 11.9778 24.4722 12.0436 24.3695C12.1093 24.2669 12.1617 24.199 12.1989 24.16C12.2361 24.121 12.2582 24.1109 12.3124 24.0963C12.3666 24.0819 12.4528 24.063 12.5182 24.0516C12.5836 24.0403 12.6282 24.0366 12.6068 24.0962Z" stroke="#101F52" stroke-width="0.3501"/>
<path d="M11.7867 24.2611C11.7685 24.3218 11.6877 24.4491 11.6351 24.6241C11.5824 24.7991 11.558 25.0219 11.5651 25.2512C11.5721 25.4805 11.611 25.7164 11.6695 25.929C11.728 26.1415 11.8064 26.3309 11.8964 26.4786C11.9865 26.6261 12.0884 26.7321 12.1475 26.7844C12.2066 26.8368 12.223 26.8356 12.1894 26.8487C12.1557 26.8617 12.072 26.8889 11.9812 26.9142C11.8904 26.9395 11.7928 26.9628 11.7407 26.9776C11.6887 26.9924 11.6822 26.9987 11.6426 26.9674C11.6029 26.9361 11.5301 26.8671 11.4387 26.7094C11.3474 26.5516 11.2378 26.305 11.1648 26.0866C11.0917 25.8682 11.0553 25.678 11.0395 25.4936C11.0239 25.3091 11.0289 25.1306 11.0675 24.9707C11.106 24.8107 11.1781 24.6694 11.2384 24.5635C11.2987 24.4576 11.3474 24.387 11.3826 24.3461C11.4177 24.3052 11.4393 24.294 11.4927 24.2766C11.5461 24.2593 11.6311 24.2359 11.6957 24.2212C11.7605 24.2065 11.8048 24.2005 11.7867 24.2611Z" stroke="#101F52" stroke-width="0.3501"/>
<path d="M10.9668 24.4287C10.9517 24.4902 10.8778 24.6215 10.8343 24.7991C10.791 24.9766 10.7781 25.2004 10.7974 25.4289C10.8164 25.6575 10.8675 25.8911 10.9371 26.1003C11.0067 26.3096 11.0947 26.4946 11.1925 26.6373C11.2902 26.7799 11.3974 26.8804 11.4591 26.9296C11.521 26.9788 11.5374 26.9768 11.5044 26.9916C11.4715 27.0063 11.3892 27.0379 11.2998 27.0679C11.2106 27.0979 11.1142 27.1263 11.063 27.1438C11.0118 27.1614 11.0057 27.1679 10.9645 27.1387C10.9232 27.1095 10.8468 27.0444 10.7475 26.8918C10.6481 26.7389 10.5257 26.4985 10.4413 26.2842C10.3569 26.0699 10.3104 25.8818 10.2852 25.6985C10.2598 25.5152 10.2557 25.3365 10.2857 25.1748C10.3159 25.0131 10.3805 24.8682 10.4352 24.7593C10.4898 24.6503 10.5348 24.5774 10.5677 24.5347C10.6007 24.4919 10.6216 24.4796 10.674 24.4595C10.7264 24.4394 10.81 24.4116 10.8738 24.3935C10.9377 24.3755 10.9818 24.3671 10.9668 24.4287Z" stroke="#101F52" stroke-width="0.3501"/>
<path d="M10.1457 24.7091C10.1338 24.7713 10.0668 24.9064 10.0329 25.0859C9.99867 25.2655 9.99757 25.4896 10.0287 25.7168C10.0598 25.9442 10.123 26.1747 10.2034 26.3801C10.2838 26.5854 10.3816 26.7654 10.4866 26.9029C10.5916 27.0402 10.7039 27.1349 10.7682 27.1808C10.8324 27.2267 10.8487 27.2238 10.8166 27.2403C10.7844 27.2568 10.704 27.2926 10.6164 27.3273C10.5288 27.3619 10.434 27.3953 10.3837 27.4155C10.3336 27.4356 10.3279 27.4425 10.2852 27.4156C10.2425 27.3886 10.1628 27.3276 10.0555 27.1803C9.94817 27.0329 9.81347 26.7991 9.71787 26.5895C9.62247 26.38 9.56617 26.1946 9.53137 26.0128C9.49637 25.8311 9.48297 25.653 9.50457 25.4899C9.52617 25.3268 9.58297 25.1788 9.63197 25.0671C9.68077 24.9554 9.72197 24.8802 9.75247 24.8358C9.78327 24.7914 9.80347 24.778 9.85477 24.7552C9.90597 24.7324 9.98817 24.7003 10.051 24.6788C10.1138 24.6574 10.1573 24.6469 10.1457 24.7091Z" stroke="#101F52" stroke-width="0.3501"/>
<path d="M22.8931 29.1265C22.8992 29.0043 22.9111 29.0183 23.0874 29.0955C23.2636 29.1726 23.6041 29.3128 23.9165 29.3949C24.2289 29.477 24.5132 29.501 24.7856 29.5131C25.0579 29.525 25.3183 29.525 25.5346 29.499C25.7508 29.473 25.9231 29.4208 26.0652 29.3789C26.2074 29.3368 26.3195 29.3048 26.4397 29.2466C26.56 29.1886 26.688 29.1045 26.7521 29.0625C26.8161 29.0203 26.8161 29.0203 26.8262 29.1365C26.8362 29.2527 26.8562 29.485 26.8543 29.6172C26.8523 29.7493 26.8283 29.7814 26.7582 29.8415C26.6881 29.9015 26.5718 29.9896 26.3916 30.0798C26.2114 30.1699 25.9672 30.262 25.6748 30.3081C25.3823 30.3541 25.042 30.3541 24.7395 30.3301C24.4371 30.306 24.1728 30.2579 23.9504 30.2099C23.7283 30.1619 23.548 30.1138 23.3838 30.0497C23.2195 29.9856 23.0713 29.9055 22.9913 29.8554C22.9111 29.8054 22.8992 29.7854 22.8931 29.6461C22.8872 29.507 22.8872 29.2487 22.8931 29.1265Z" stroke="#101F52" stroke-width="0.3501"/>
<path d="M22.7969 29.519C22.7568 29.6191 22.7167 29.7193 22.6887 29.7974C22.6606 29.8755 22.6445 29.9316 22.6507 29.9696C22.6566 30.0077 22.6847 30.0276 22.9751 30.1418C23.2655 30.256 23.8182 30.4642 24.1025 30.5724C24.3869 30.6805 24.4028 30.6885 24.7934 30.6484C25.1838 30.6084 25.9489 30.5203 26.3314 30.4762C26.7138 30.4321 26.7138 30.4321 26.7899 30.324C26.866 30.2159 27.0182 29.9997 27.0964 29.8874C27.1745 29.7753 27.1785 29.7673 27.1257 29.7396C27.073 29.7119 26.9635 29.6645 26.9088 29.6408C26.854 29.6171 26.854 29.6171 26.854 29.6171" stroke="#101F52" stroke-width="0.3501"/>
<path d="M22.5086 30.1382C22.5046 30.787 22.5005 31.4358 22.5025 31.7873C22.5046 32.1388 22.5125 32.1928 22.5417 32.2321C22.5708 32.2712 22.621 32.2956 22.9223 32.4119C23.2239 32.5282 23.7765 32.7364 24.0609 32.8446C24.3453 32.9528 24.3613 32.9608 24.7518 32.9207C25.1422 32.8806 25.9073 32.7925 26.2899 32.7485C26.6723 32.7044 26.6723 32.7044 26.7559 32.5846C26.8394 32.4649 27.0066 32.2253 27.1736 31.9857" stroke="#101F52" stroke-width="0.3501"/>
<path d="M27.1475 29.8115C27.1483 30.5476 27.1492 31.2836 27.1501 32.0197" stroke="#101F52" stroke-width="0.3501"/>
<path d="M24.3652 30.6997C24.3672 31.4286 24.3692 32.1576 24.3702 32.522C24.3712 32.8865 24.3712 32.8865 24.3712 32.8865" stroke="#101F52" stroke-width="0.3501"/>
<path d="M22.5078 30.1716C22.532 30.0995 22.5562 30.0273 22.5863 29.9651C22.6164 29.9028 22.6524 29.8503 22.6884 29.7979" stroke="#101F52" stroke-width="0.3501"/>
<path d="M22.7627 29.5602C22.7952 29.5061 22.8277 29.4519 22.8603 29.3979" stroke="#101F52" stroke-width="0.3501"/>
<path d="M27.193 32.1566C27.193 32.1566 27.193 32.1566 27.1931 32.1804C27.1932 32.2044 27.1936 32.252 27.2104 32.2928C27.2272 32.3336 27.2605 32.3675 27.2652 32.5207C27.2698 32.6738 27.2458 32.9461 27.2698 33.1063C27.294 33.2666 27.366 33.3146 32.9932 37.2677C38.6205 41.2208 49.8029 49.0789 55.9869 53.3966C62.1709 57.714 63.3564 58.4911 63.9813 58.9236C64.606 59.3561 64.6701 59.4442 64.7121 59.5404C64.7543 59.6365 64.7743 59.7406 64.7423 60.1672C64.7102 60.5938 64.626 61.3427 64.4958 61.8113C64.3656 62.2799 64.1894 62.4682 64.0033 62.6144C63.817 62.7606 63.6208 62.8646 63.3063 62.9387C62.9919 63.0129 62.5595 63.0569 62.1469 63.059C61.7342 63.0609 61.3418 63.0209 60.9694 62.9468C60.5968 62.8727 60.2444 62.7645 59.9019 62.6244C59.5595 62.4842 59.227 62.3119 58.9869 62.1417C58.7464 61.9715 58.5982 61.8033 58.5121 61.6871C58.4261 61.571 58.402 61.5069 58.402 61.3787C58.402 61.2506 58.4261 61.0584 58.4501 60.9101C58.4741 60.762 58.4982 60.6579 58.4982 60.5838C58.4982 60.5096 58.4741 60.4656 57.9395 60.0991C57.4047 59.7326 56.3595 59.0437 54.6532 57.8903C52.9471 56.7368 50.5799 55.1187 47.7343 53.086C44.8886 51.0534 41.5643 48.6063 37.4951 45.5844C33.4259 42.5625 28.6117 38.9658 26.0844 37.0754C23.5571 35.185 23.3167 35.0008 23.1306 34.8606C22.9443 34.7204 22.812 34.6243 22.712 34.5022C22.6119 34.38 22.5437 34.2317 22.5077 33.9794C22.4717 33.7271 22.4676 33.3706 22.4798 33.0843C22.4917 32.7979 22.5198 32.5816 22.5339 32.4735C22.5477 32.3654 22.5477 32.3654 22.5477 32.3654C22.5477 32.3654 22.5477 32.3654 22.6119 32.4455C22.676 32.5255 22.8042 32.6858 23.0205 32.81C23.2368 32.9342 23.5411 33.0222 23.8214 33.0862C24.1019 33.1504 24.3582 33.1904 24.7006 33.1945C25.043 33.1985 25.4716 33.1664 25.7939 33.1284C26.1163 33.0903 26.3326 33.0462 26.5209 32.9742C26.7091 32.9021 26.8693 32.8019 26.9855 32.6798C27.1017 32.5576 27.1737 32.4134 27.1938 32.2997C27.2138 32.186 27.1818 32.1028 27.1498 32.0195" stroke="#101F52" stroke-width="0.3501"/>
<path d="M27.27 33.1064C27.1418 33.264 27.0136 33.4215 26.7133 33.5462C26.4128 33.671 25.9403 33.7632 25.5177 33.8132C25.0952 33.8633 24.7226 33.8713 24.4743 33.8633C24.2261 33.8553 24.1019 33.8313 24.7907 34.4C25.4796 34.9687 26.9816 36.1302 32.9493 40.4959C38.9171 44.8614 49.3504 52.4312 54.6633 56.2662C59.9762 60.1012 60.1684 60.2012 60.4347 60.2834C60.7011 60.3655 61.0416 60.4295 61.426 60.4476C61.8105 60.4656 62.239 60.4375 62.6497 60.3754C63.0602 60.3134 63.4526 60.2172 63.735 60.0951C64.0174 59.9729 64.1896 59.8248 64.2718 59.7006C64.3538 59.5765 64.3458 59.4763 64.2824 59.3508C64.219 59.2253 64.1002 59.0745 63.9815 58.9237" stroke="#101F52" stroke-width="0.3501"/>
<path d="M58.7316 61.9331C58.6979 62.0701 58.6641 62.2071 58.6833 62.3576C58.7023 62.5081 58.7745 62.6724 58.9488 62.8427C59.1229 63.0128 59.3994 63.1891 59.7317 63.3393C60.0642 63.4895 60.4527 63.6136 60.8692 63.6998C61.2857 63.7859 61.7302 63.8339 62.0828 63.84C62.4352 63.8459 62.6956 63.8099 62.9078 63.7358C63.12 63.6617 63.2843 63.5496 63.4226 63.4314C63.5608 63.3133 63.6728 63.1891 63.7409 63.103C63.809 63.0169 63.8331 62.9688 63.8402 62.9141C63.8474 62.8593 63.8377 62.7977 63.8279 62.7363" stroke="#101F52" stroke-width="0.3501"/>
<path d="M60.0771 63.4789C60.1035 63.3449 60.1299 63.2111 60.1432 63.1442C60.1564 63.0771 60.1563 63.0771 60.3526 63.1172C60.5488 63.1573 60.9412 63.2374 61.1936 63.2854C61.4459 63.3335 61.5581 63.3495 61.6883 63.3615C61.8184 63.3735 61.9666 63.3815 62.0708 63.3855C62.175 63.3895 62.2351 63.3895 62.2691 63.4036C62.3031 63.4176 62.311 63.4457 62.3151 63.4836C62.3191 63.5217 62.3191 63.5698 62.3236 63.6302C62.328 63.6906 62.3369 63.7633 62.3409 63.7997C62.345 63.8361 62.3433 63.8362 62.3433 63.8362" stroke="#101F52" stroke-width="0.3501"/>
<path d="M10.1367 24.741C10.2711 24.6812 10.4051 24.6247 10.5388 24.5744M10.9649 24.4328C11.1172 24.3878 11.2684 24.3486 11.4171 24.3118M11.7878 24.224C11.9345 24.1909 12.0813 24.1598 12.2309 24.1306M12.6104 24.061C12.7814 24.0314 12.9531 24.0036 13.1213 23.9773C13.4047 23.9329 13.6779 23.8927 13.9859 23.8687C14.294 23.8448 14.637 23.8372 15.046 23.8322C15.4549 23.8271 15.9298 23.8244 16.6009 23.8463C17.2722 23.8684 18.14 23.9151 18.5737 23.9386C19.0076 23.9619 19.0076 23.9619 19.0076 23.9619" stroke="#101F52" stroke-width="0.3501"/>
<path d="M10.832 27.2256C10.9269 27.193 11.0271 27.1588 11.1349 27.1224C11.2847 27.0717 11.4492 27.0166 11.6347 26.9608M12.1812 26.8127C12.2235 26.8025 12.2671 26.7923 12.3112 26.7824M12.8733 26.6707C12.9108 26.6642 12.9485 26.6577 12.9863 26.6514M13.5519 26.568C13.5996 26.5618 13.6475 26.5558 13.6952 26.5502M14.2549 26.4953C14.8296 26.4522 15.3183 26.4595 15.8278 26.4552C16.347 26.451 16.8882 26.4345 17.3281 26.4458C17.7679 26.4572 18.1064 26.4962 18.4126 26.5068C18.7186 26.5175 18.9921 26.4995 19.2658 26.4817" stroke="#101F52" stroke-width="0.3501"/>
<path d="M20.6868 8.56689C20.6856 8.58029 20.6842 8.59379 20.6826 8.60699" stroke="#101F52" stroke-width="0.3501"/>
<path d="M20.6826 8.60693C20.9434 8.73123 21.2039 8.85563 21.5636 8.98513C21.9231 9.11473 22.3814 9.24953 22.8802 9.34843C23.379 9.44733 23.9184 9.51013 24.4935 9.55963C25.0687 9.60903 25.6798 9.64493 26.2281 9.63603C26.7764 9.62703 27.2616 9.57313 27.7471 9.50113C27.8004 9.49333 27.8538 9.48503 27.9069 9.47683" stroke="#101F52" stroke-width="0.3501"/>
<path d="M39.4586 3.55265C39.1411 3.19785 38.8234 2.84304 38.3884 2.50464C37.9533 2.16634 37.4008 1.84465 36.7446 1.53995C36.0883 1.23505 35.3283 0.947345 34.257 0.717345C33.1856 0.487445 31.8028 0.315345 30.589 0.231745C29.3751 0.148145 28.3299 0.152845 27.3423 0.276545C26.3548 0.400145 25.4251 0.642646 24.61 0.951046C23.7948 1.25945 23.0941 1.63384 22.4937 2.09404C21.8933 2.55434 21.393 3.10075 20.9542 3.65595C20.5155 4.21135 20.1383 4.77565 19.9143 5.28345C19.6902 5.79125 19.6195 6.24255 19.6336 6.62795C19.6475 7.01345 19.7464 7.33315 19.9476 7.67715C20.1395 8.00545 20.4249 8.35575 20.7997 8.66245M27.9073 9.47685C28.0555 9.42875 28.1971 9.37765 28.3326 9.32425C28.8135 9.13485 29.22 8.91535 29.5668 8.63185C29.9136 8.34825 30.2007 8.00084 30.3758 7.71134C30.5509 7.42184 30.6139 7.19015 30.6723 6.70415C30.7305 6.21805 30.7838 5.47735 30.8372 4.73665" stroke="#101F52" stroke-width="0.3501"/>
<path d="M24.0801 6.85218C24.5496 6.40108 25.0192 5.94988 25.7536 5.59058C26.488 5.23118 27.4874 4.96368 28.5026 4.83408C29.5178 4.70458 30.5487 4.71308 31.5833 4.81098C32.6182 4.90898 33.6565 5.09658 34.4625 5.24848C35.2686 5.40038 35.842 5.51658 36.3697 5.56258C36.8975 5.60848 37.3796 5.58408 37.8437 5.48348C38.3079 5.38278 38.754 5.20578 39.0361 5.00268C39.3183 4.79928 39.4362 4.56968 39.4793 4.32368C39.5222 4.07768 39.4902 3.81528 39.4741 3.68408C39.458 3.55288 39.458 3.55288 39.3422 3.72078C39.2263 3.88858 38.9946 4.22418 38.6222 4.45188C38.25 4.67948 37.737 4.79908 36.8024 4.78708C35.8678 4.77508 34.5116 4.63138 33.3821 4.48888C32.2528 4.34628 31.3502 4.20468 30.5139 4.13428C29.6776 4.06378 28.9076 4.06448 28.0996 4.16688C27.2917 4.26928 26.4457 4.47348 25.801 4.62968C25.1561 4.78598 24.7124 4.89428 24.2685 5.00248" stroke="#101F52" stroke-width="0.3501"/>
<path d="M29.6072 5.69746C29.7504 5.73006 29.891 5.83796 29.9866 5.95836C30.082 6.07846 30.1324 6.21086 30.1479 6.35576C30.1634 6.50076 30.1442 6.65816 30.0905 6.81776C30.0367 6.97756 29.9486 7.13946 29.8327 7.31076C29.7166 7.48196 29.5728 7.66256 29.4204 7.79476C29.2679 7.92696 29.1069 8.01066 28.9658 8.01606C28.8247 8.02146 28.7035 7.94836 28.604 7.84526C28.5044 7.74206 28.4266 7.60886 28.4054 7.42936C28.3842 7.24976 28.4196 7.02416 28.5032 6.79336C28.5868 6.56256 28.719 6.32646 28.8384 6.15196C28.9579 5.97736 29.065 5.86416 29.1916 5.78606C29.3179 5.70796 29.4639 5.66496 29.6072 5.69746Z" stroke="#101F52" stroke-width="0.3501"/>
<path d="M25.5527 6.61475C25.5345 7.13665 25.5162 7.65845 25.5053 8.16695C25.4944 8.67525 25.4909 9.17024 25.4873 9.66504" stroke="#101F52" stroke-width="0.3501"/>
<path d="M30.5371 7.37682C30.5724 7.31142 30.6008 7.24582 30.6235 7.17942C30.7111 6.92452 30.7173 6.65582 30.7322 6.32582C30.737 6.21822 30.7429 6.10412 30.7505 5.98682" stroke="#101F52" stroke-width="0.3501"/>
<path d="M20.3877 8.23926C20.4662 8.30686 20.5532 8.37116 20.6541 8.43246" stroke="#101F52" stroke-width="0.3501"/>
<path d="M20.3874 8.23926C20.3853 8.25496 20.383 8.27066 20.3809 8.28626" stroke="#101F52" stroke-width="0.3501"/>
<path d="M28.0237 20.2709C27.9652 20.2899 27.8973 20.3317 27.8237 20.3675C27.6578 20.4484 27.4619 20.4994 27.1811 20.5505C26.9003 20.6016 26.5343 20.6526 26.164 20.6781C25.7938 20.7037 25.4194 20.7037 25.0406 20.6824C24.6619 20.6611 24.2789 20.6186 23.8277 20.5463C23.3766 20.474 22.8576 20.3718 22.4915 20.2825C22.1256 20.1931 21.9129 20.1164 21.8066 20.0782C21.7298 20.0505 21.7084 20.0429 21.7041 20.1409" stroke="#101F52" stroke-width="0.3501"/>
<path d="M20.6541 8.43213C20.6364 8.57533 20.6188 8.74153 20.6025 8.94563C20.5558 9.53713 20.5217 10.4479 20.4665 10.9926C20.411 11.5373 20.3345 11.716 20.2323 11.9075C20.1302 12.099 20.0026 12.3032 19.7812 12.4478C19.5599 12.5926 19.2451 12.6777 17.8069 12.9118C16.3684 13.1458 13.8067 13.5288 12.3639 13.7671C10.9214 14.0054 10.598 14.099 10.2448 14.1672C9.89165 14.2352 9.50855 14.2777 9.15975 14.3415C8.81075 14.4054 8.49585 14.4905 8.22355 14.6224C7.95115 14.7543 7.72135 14.9331 7.49575 15.2267C7.27025 15.5203 7.04905 15.9289 6.90855 16.3502C6.76805 16.7714 6.70855 17.2055 6.70435 17.5672C6.70005 17.9289 6.75105 18.2183 6.95955 18.5119C7.16815 18.8055 7.53415 19.1034 7.96825 19.3843C8.40225 19.6652 8.90435 19.929 9.38515 20.0864C9.86605 20.2439 10.3257 20.295 11.7469 20.2354C13.1682 20.1758 15.5514 20.0056 17.0237 19.9035C18.4961 19.8014 19.0578 19.7673 19.5005 19.7461C19.943 19.7247 20.2663 19.7162 20.5387 19.7332C20.8111 19.7503 21.0324 19.7928 21.2182 19.865C21.4039 19.9372 21.5541 20.039 21.7045 20.1408" stroke="#101F52" stroke-width="0.3501"/>
<path d="M28.0234 20.271C28.2008 20.1429 28.378 20.0148 28.5349 19.8698C28.6916 19.7249 28.8276 19.5632 28.9597 19.3249C29.0916 19.0866 29.2192 18.7718 29.364 18.5462C29.5086 18.3207 29.6702 18.1844 30.0064 18.0312C30.3426 17.878 30.8533 17.7078 31.8277 17.4142C32.8024 17.1206 34.2406 16.7036 35.2365 16.3971C36.2321 16.0908 36.7854 15.895 37.1855 15.7163C37.5854 15.5376 37.8323 15.3759 38.0705 15.1375C38.3088 14.8992 38.5387 14.5843 38.6918 14.2184C38.8451 13.8524 38.9216 13.4353 38.909 13.0609C38.8962 12.6864 38.7939 12.3545 38.5856 12.0609C38.3769 11.7672 38.0621 11.5119 37.7769 11.2694C37.4918 11.0267 37.2366 10.797 37.0152 10.6055C36.7939 10.4139 36.6067 10.2608 36.3812 10.146C36.1556 10.031 35.8917 9.95444 35.6279 9.93734C35.3641 9.92034 35.1002 9.96294 34.8704 10.031C34.6407 10.0991 34.445 10.1927 34.2535 10.2821C34.062 10.3714 33.8746 10.4565 33.781 10.4991C33.6875 10.5416 33.6875 10.5416 33.6875 10.5416" stroke="#101F52" stroke-width="0.3501"/>
<path d="M37.227 10.7898C37.2389 10.4433 37.2508 10.0966 37.1718 9.62973C37.0925 9.16273 36.9223 8.57563 36.7053 8.12023C36.4881 7.66483 36.2244 7.34153 35.9436 7.05213C35.6626 6.76273 35.3649 6.50743 35.0754 6.29463C34.7861 6.08183 34.5052 5.91172 34.0966 5.77122C33.6882 5.63082 33.1519 5.52022 32.7393 5.49042C32.3263 5.46062 32.037 5.51172 31.7305 5.60522C31.4242 5.69892 31.1008 5.83502 30.8158 5.95842C30.7907 5.96922 30.7661 5.98003 30.7419 5.99053M29.6865 8.52923C29.6995 8.68573 29.7115 8.84472 29.722 8.99692C29.7474 9.36712 29.7645 9.69892 29.7731 10.0139C29.7816 10.3288 29.7816 10.6266 29.7816 10.8097C29.7816 10.9927 29.7816 11.0607 29.7986 11.265C29.8155 11.4692 29.8497 11.8097 29.8751 12.082C29.9008 12.3544 29.9178 12.5586 29.9262 12.6607C29.9348 12.7629 29.9348 12.7629 29.9348 12.7629" stroke="#101F52" stroke-width="0.3501"/>
<path d="M30.7207 6.57184C30.9421 6.46114 31.1891 6.36234 31.4455 6.28174C31.8923 6.14134 32.369 6.05614 32.8201 6.05194C33.2711 6.04754 33.6966 6.12424 34.0627 6.22214C34.4286 6.31994 34.735 6.43914 35.0499 6.65624C35.3648 6.87314 35.6882 7.18804 35.952 7.52854C36.216 7.86894 36.4201 8.23494 36.6135 8.58934C36.8068 8.94374 36.9892 9.28664 37.0871 9.50654C37.185 9.72664 37.1982 9.82354 37.2115 9.92064" stroke="#101F52" stroke-width="0.3501"/>
<path d="M36.016 10.0038C35.521 9.77456 35.0259 9.54527 34.7061 9.44347C34.3864 9.34157 34.2416 9.36716 33.9907 9.46076C33.7396 9.55436 33.3821 9.71597 33.0927 9.86507C32.8034 10.014 32.582 10.1501 32.4459 10.2651C32.3097 10.3799 32.2586 10.4735 32.216 10.5502C32.1735 10.6267 32.1395 10.6863 32.1055 10.7459" stroke="#101F52" stroke-width="0.3501"/>
<path d="M29.7812 10.8097C30.9643 10.7118 32.1473 10.6139 32.7985 10.5692C33.4495 10.5245 33.5686 10.533 33.6879 10.5415" stroke="#101F52" stroke-width="0.3501"/>
<path d="M30.3428 12.3546C30.9726 12.278 31.6026 12.2014 32.4962 12.0993C33.3897 11.9971 34.5473 11.8695 35.4196 11.7673C36.2919 11.6652 36.8793 11.5886 37.2409 11.563C37.6027 11.5375 37.7389 11.563 37.9254 11.6546C38.1118 11.7461 38.3489 11.9035 38.5858 12.061" stroke="#101F52" stroke-width="0.3501"/>
<path d="M20.207 13.8096C18.2834 14.1246 16.3599 14.4395 14.6833 14.7373C13.0066 15.0352 11.5768 15.3161 10.73 15.5885C9.88314 15.8608 9.61933 16.1246 9.44493 16.5501C9.27033 16.9757 9.18523 17.563 9.26613 18.0864C9.34693 18.6098 9.59373 19.0693 9.84063 19.529" stroke="#101F52" stroke-width="0.3501"/>
<path d="M21.8408 13.5547C22.2834 14.21 22.726 14.8654 22.9941 15.4697C23.2621 16.0739 23.3558 16.6272 23.3642 17.1464C23.3728 17.6655 23.2961 18.1506 23.1642 18.5507C23.0323 18.9507 22.8451 19.2656 22.6579 19.5805" stroke="#101F52" stroke-width="0.3501"/>
<path d="M29.3728 12.7119C29.2792 14.1503 29.1856 15.5887 29.0877 16.627C28.9898 17.6653 28.8877 18.3036 28.8342 18.735C28.7806 19.1663 28.7755 19.3908 28.7705 19.6152" stroke="#101F52" stroke-width="0.3501"/>
<path d="M9.74528 20.1822C9.47908 20.4155 9.21278 20.6488 8.81598 20.8634C8.41898 21.078 7.89128 21.2737 7.35518 21.4014C6.81888 21.5291 6.27418 21.5886 5.68278 21.5504C5.09118 21.5121 4.45288 21.3758 3.87418 21.1504C3.29538 20.9247 2.77628 20.6099 2.34218 20.2694C1.90808 19.929 1.55908 19.563 1.24848 19.0864C0.937981 18.6098 0.665581 18.0225 0.478181 17.4651C0.291081 16.9077 0.188881 16.3799 0.176181 15.8352C0.163481 15.2906 0.239882 14.7288 0.354882 14.1672C0.469782 13.6053 0.622882 13.0437 0.810182 12.5798C0.997382 12.116 1.21868 11.75 1.47408 11.4011C1.72938 11.0521 2.01878 10.7203 2.29958 10.4394C2.58058 10.1584 2.85278 9.92863 3.16348 9.72873C3.47408 9.52863 3.82298 9.35853 4.19758 9.18403C4.57198 9.00953 4.97198 8.83073 5.35078 8.71593C5.72958 8.60093 6.08698 8.54993 6.51248 8.52023C6.93808 8.49033 7.43158 8.48183 7.90408 8.52443C8.37648 8.56693 8.82748 8.66053 9.27438 8.83073C9.72108 9.00093 10.1637 9.24783 10.5892 9.60533C11.0149 9.96273 11.4233 10.4308 11.7169 10.8266C12.0105 11.2224 12.1894 11.5457 12.3256 11.8564C12.4616 12.167 12.5552 12.4649 12.6319 12.7202C12.7085 12.9756 12.768 13.1883 12.7988 13.343C12.8296 13.4976 12.8313 13.5942 12.8331 13.6908" stroke="#101F52" stroke-width="0.3501"/>
<path d="M5.34623 21.2144C4.67393 20.9165 4.00163 20.6187 3.43133 20.2782C2.86123 19.9378 2.39303 19.5548 2.01443 19.0655C1.63563 18.576 1.34623 17.9802 1.14193 17.3249C0.93783 16.6696 0.81853 15.9546 0.86113 15.1632C0.90373 14.3716 1.10783 13.5036 1.32063 12.861C1.53353 12.2184 1.75473 11.8013 2.17173 11.3375C2.58873 10.8737 3.20163 10.363 3.85703 9.97148C4.51223 9.57998 5.21033 9.30768 5.87833 9.16728C6.54643 9.02678 7.18473 9.01828 7.75503 9.08208C8.32523 9.14598 8.82733 9.28208 9.26563 9.50338C9.70393 9.72468 10.0785 10.0311 10.4316 10.3843C10.7848 10.7375 11.1168 11.1375 11.3721 11.5205C11.6275 11.9035 11.8061 12.2694 11.9295 12.5588C12.053 12.8483 12.121 13.061 12.1609 13.2536C12.2008 13.4461 12.2125 13.6183 12.2243 13.7906" stroke="#101F52" stroke-width="0.3501"/>
<path d="M10.7343 13.9627C10.4789 13.7669 10.2237 13.5712 9.97679 13.4265C9.72999 13.2819 9.49169 13.1882 9.27479 13.1287C9.05759 13.0691 8.8619 13.0435 8.662 13.035C8.4619 13.0265 8.25769 13.035 7.99799 13.0925C7.73839 13.1499 7.4236 13.2563 7.1406 13.3669C6.8576 13.4776 6.60639 13.5925 6.38729 13.7393C6.16819 13.8862 5.98089 14.0648 5.79379 14.3585C5.60649 14.6521 5.41929 15.0606 5.29379 15.3926C5.16819 15.7245 5.10429 15.9798 5.05959 16.1841C5.01489 16.3883 4.98949 16.5415 4.99359 16.6777C4.99789 16.8139 5.0321 16.933 5.0767 17.0883C5.1214 17.2436 5.17659 17.4352 5.32789 17.682C5.47879 17.9288 5.72569 18.2309 5.96829 18.4863C6.21079 18.7416 6.449 18.9502 6.6533 19.1225C6.8576 19.2949 7.02779 19.431 7.24699 19.5395C7.46619 19.6481 7.73419 19.729 7.91939 19.7737C8.10439 19.8183 8.2066 19.8268 8.3155 19.8218C8.4242 19.8167 8.5396 19.7981 8.655 19.7795" stroke="#101F52" stroke-width="0.3501"/>
<path d="M7.91894 19.7739C7.46574 19.356 7.01244 18.9383 6.71144 18.6039C6.41034 18.2695 6.26144 18.0184 6.16564 17.8142C6.06994 17.6099 6.02734 17.4524 6.18474 16.8971C6.34224 16.3418 6.69974 15.3885 6.92314 14.8842C7.14654 14.38 7.23584 14.3246 7.68484 14.2012C8.13384 14.0779 8.94234 13.8863 9.38274 13.7884C9.82324 13.6906 9.89554 13.6863 9.97004 13.6991C10.0444 13.7118 10.1211 13.7417 10.2487 13.7884C10.3764 13.8353 10.5551 13.8991 10.7338 13.9629" stroke="#101F52" stroke-width="0.3501"/>
<path d="M6.25391 13.8364C6.55991 13.9892 6.86621 14.1421 7.17221 14.2949" stroke="#101F52" stroke-width="0.3501"/>
<path d="M6.08807 17.5806C5.75077 17.4165 5.41337 17.2525 5.07617 17.0884" stroke="#101F52" stroke-width="0.3501"/>
</svg>
