<svg width="230" height="58" viewBox="0 0 230 58" fill="none" xmlns="http://www.w3.org/2000/svg">
<rect y="0.000488281" width="230" height="57.9998" rx="5" fill="url(#paint0_linear_962_1011)"/>
<path d="M108.203 48.6508C92.5833 49.9501 74.7645 53.3013 71.8242 53.8663C71.5402 53.9209 71.2814 54.0339 71.0451 54.2005C69.404 55.3577 70.2227 57.9397 72.2309 57.9397H224.923C227.684 57.9397 229.923 55.7012 229.923 52.9397V46.623C229.923 43.5411 227.162 41.1929 224.12 41.6879L216.713 42.8932L193.124 45.0043L169.773 47.0941C169.614 47.1083 169.48 47.115 169.32 47.1142C166.162 47.0969 128.856 46.9327 108.203 48.6508Z" fill="#0F2458" fill-opacity="0.5"/>
<path d="M136.198 49.99C124.291 51.091 110.724 53.9133 108.258 54.4386C107.997 54.4942 107.754 54.6089 107.544 54.7734C106.219 55.8121 106.953 57.94 108.637 57.94H224.923C227.684 57.94 229.923 55.7014 229.923 52.94V49.2081C229.923 46.0904 227.101 43.7331 224.033 44.2879L219.751 45.0623L201.588 46.8691L183.689 48.6496C183.512 48.6672 183.353 48.6754 183.176 48.6744C180.238 48.6574 151.938 48.5347 136.198 49.99Z" fill="#0D2862" fill-opacity="0.5"/>
<path d="M120.572 12.4689C135.612 10.7725 152.712 6.47027 156.315 5.53836C156.774 5.41944 157.183 5.18651 157.526 4.8584C159.364 3.10101 158.12 -1.80105e-05 155.577 -1.80105e-05L5.06866 -1.80105e-05C2.30723 -1.80105e-05 0.0686604 2.23856 0.0686604 4.99998L0.0686604 16.8596C0.0686604 20.0552 3.02533 22.4307 6.1459 21.7422L13.1465 20.1976L36.4998 17.3638L59.5309 14.569C59.7454 14.543 59.9365 14.5307 60.1526 14.5322C63.821 14.5583 100.3 14.7555 120.572 12.4689Z" fill="#0F2458" fill-opacity="0.7"/>
<path d="M105.965 9.37271C119.373 8.07915 134.643 4.76999 137.505 4.13444C137.821 4.06429 138.11 3.92139 138.361 3.71655C139.885 2.47011 139.003 7.23182e-05 137.035 7.23182e-05L5.06819 7.23182e-05C2.30676 7.23182e-05 0.0681898 2.23865 0.0681898 5.00007L0.0681898 11.3192C0.0681898 14.4523 2.91667 16.8135 5.99542 16.2325L11.5608 15.1822L32.0834 13.0521L52.3297 10.9506C52.5137 10.9315 52.6762 10.9225 52.8613 10.9236C56.0399 10.943 88.1352 11.0929 105.965 9.37271Z" fill="#0D2862" fill-opacity="0.7"/>
<path d="M80.072 27.12C79.6827 27.12 79.328 27.056 79.008 26.928C78.688 26.8 78.4133 26.6133 78.184 26.368C77.9547 26.1227 77.776 25.8213 77.648 25.464C77.5253 25.1013 77.464 24.688 77.464 24.224C77.464 23.76 77.5333 23.3493 77.672 22.992C77.816 22.6293 78.008 22.3253 78.248 22.08C78.488 21.8347 78.768 21.648 79.088 21.52C79.408 21.392 79.7493 21.328 80.112 21.328C80.3413 21.328 80.5467 21.344 80.728 21.376C80.9147 21.408 81.0747 21.4453 81.208 21.488C81.3467 21.5307 81.4587 21.5733 81.544 21.616C81.6293 21.6587 81.688 21.6907 81.72 21.712L81.496 22.352C81.448 22.32 81.3787 22.2853 81.288 22.248C81.1973 22.2107 81.0933 22.1733 80.976 22.136C80.864 22.0987 80.7387 22.0693 80.6 22.048C80.4667 22.0213 80.3307 22.008 80.192 22.008C79.8987 22.008 79.6347 22.0587 79.4 22.16C79.1653 22.2613 78.9653 22.408 78.8 22.6C78.6347 22.792 78.5067 23.0267 78.416 23.304C78.3307 23.576 78.288 23.8827 78.288 24.224C78.288 24.5547 78.3253 24.856 78.4 25.128C78.48 25.4 78.5973 25.6347 78.752 25.832C78.9067 26.024 79.0987 26.1733 79.328 26.28C79.5627 26.3867 79.8347 26.44 80.144 26.44C80.5013 26.44 80.7973 26.4027 81.032 26.328C81.2667 26.2533 81.4427 26.1867 81.56 26.128L81.76 26.768C81.7227 26.7947 81.656 26.8293 81.56 26.872C81.464 26.9093 81.344 26.9467 81.2 26.984C81.056 27.0213 80.888 27.0533 80.696 27.08C80.504 27.1067 80.296 27.12 80.072 27.12ZM83.3929 23.936C83.3396 24.464 83.2996 24.992 83.2729 25.52C83.2463 26.0427 83.2249 26.536 83.2089 27H82.4969C82.5076 26.6747 82.5236 26.336 82.5449 25.984C82.5663 25.6267 82.5903 25.2693 82.6169 24.912C82.6436 24.5493 82.6729 24.1947 82.7049 23.848C82.7369 23.496 82.7716 23.16 82.8089 22.84H83.4889C83.6596 23.1173 83.8596 23.4987 84.0889 23.984C84.3183 24.464 84.5823 25.0187 84.8809 25.648C85.1796 25.0187 85.4436 24.464 85.6729 23.984C85.9023 23.4987 86.1023 23.1173 86.2729 22.84H86.9609C86.9983 23.16 87.0329 23.496 87.0649 23.848C87.0969 24.1947 87.1263 24.5493 87.1529 24.912C87.1796 25.2693 87.2036 25.6267 87.2249 25.984C87.2463 26.336 87.2623 26.6747 87.2729 27H86.5369C86.5209 26.536 86.4996 26.0427 86.4729 25.52C86.4463 24.992 86.4063 24.464 86.3529 23.936C86.2676 24.1013 86.1689 24.3013 86.0569 24.536C85.9449 24.7653 85.8329 25 85.7209 25.24C85.6143 25.48 85.5129 25.7093 85.4169 25.928C85.3209 26.1467 85.2463 26.32 85.1929 26.448H84.5689C84.5103 26.3147 84.4303 26.1387 84.3289 25.92C84.2329 25.7013 84.1289 25.472 84.0169 25.232C83.9103 24.9867 83.8009 24.7493 83.6889 24.52C83.5769 24.2853 83.4783 24.0907 83.3929 23.936ZM88.2205 24.928C88.2205 24.56 88.2738 24.24 88.3805 23.968C88.4872 23.6907 88.6285 23.4613 88.8045 23.28C88.9805 23.0987 89.1832 22.9627 89.4125 22.872C89.6418 22.7813 89.8765 22.736 90.1165 22.736C90.6765 22.736 91.1058 22.912 91.4045 23.264C91.7032 23.6107 91.8525 24.1413 91.8525 24.856C91.8525 24.888 91.8525 24.9307 91.8525 24.984C91.8525 25.032 91.8498 25.0773 91.8445 25.12H88.9965C89.0285 25.552 89.1538 25.88 89.3725 26.104C89.5912 26.328 89.9325 26.44 90.3965 26.44C90.6578 26.44 90.8765 26.4187 91.0525 26.376C91.2338 26.328 91.3698 26.2827 91.4605 26.24L91.5645 26.864C91.4738 26.912 91.3138 26.9627 91.0845 27.016C90.8605 27.0693 90.6045 27.096 90.3165 27.096C89.9538 27.096 89.6392 27.0427 89.3725 26.936C89.1112 26.824 88.8952 26.672 88.7245 26.48C88.5538 26.288 88.4258 26.0613 88.3405 25.8C88.2605 25.5333 88.2205 25.2427 88.2205 24.928ZM91.0765 24.52C91.0818 24.184 90.9965 23.9093 90.8205 23.696C90.6498 23.4773 90.4125 23.368 90.1085 23.368C89.9378 23.368 89.7858 23.4027 89.6525 23.472C89.5245 23.536 89.4152 23.6213 89.3245 23.728C89.2338 23.8347 89.1618 23.9573 89.1085 24.096C89.0605 24.2347 89.0285 24.376 89.0125 24.52H91.0765ZM94.7293 27.096C94.3933 27.096 94.0973 27.0427 93.8413 26.936C93.5906 26.8293 93.3773 26.68 93.2013 26.488C93.0306 26.296 92.9026 26.0693 92.8173 25.808C92.7319 25.5413 92.6893 25.248 92.6893 24.928C92.6893 24.608 92.7346 24.3147 92.8253 24.048C92.9213 23.7813 93.0546 23.552 93.2253 23.36C93.3959 23.1627 93.6039 23.0107 93.8493 22.904C94.0999 22.792 94.3773 22.736 94.6813 22.736C94.8679 22.736 95.0546 22.752 95.2413 22.784C95.4279 22.816 95.6066 22.8667 95.7773 22.936L95.6093 23.568C95.4973 23.5147 95.3666 23.472 95.2173 23.44C95.0733 23.408 94.9186 23.392 94.7533 23.392C94.3373 23.392 94.0173 23.5227 93.7933 23.784C93.5746 24.0453 93.4653 24.4267 93.4653 24.928C93.4653 25.152 93.4893 25.3573 93.5373 25.544C93.5906 25.7307 93.6706 25.8907 93.7773 26.024C93.8893 26.1573 94.0306 26.2613 94.2013 26.336C94.3719 26.4053 94.5799 26.44 94.8253 26.44C95.0226 26.44 95.2013 26.4213 95.3613 26.384C95.5213 26.3467 95.6466 26.3067 95.7373 26.264L95.8413 26.888C95.7986 26.9147 95.7373 26.9413 95.6573 26.968C95.5773 26.9893 95.4866 27.008 95.3853 27.024C95.2839 27.0453 95.1746 27.0613 95.0573 27.072C94.9453 27.088 94.8359 27.096 94.7293 27.096ZM100.136 22.84V27H99.416V23.832C99.256 24.0347 99.08 24.272 98.888 24.544C98.696 24.816 98.504 25.0987 98.312 25.392C98.12 25.68 97.936 25.9653 97.76 26.248C97.584 26.5307 97.432 26.7813 97.304 27H96.64V22.84H97.36V25.832C97.4987 25.6027 97.656 25.352 97.832 25.08C98.008 24.8027 98.1893 24.5307 98.376 24.264C98.568 23.992 98.7573 23.7333 98.944 23.488C99.136 23.2373 99.3147 23.0213 99.48 22.84H100.136ZM104.349 22.84V23.464H102.997V27H102.253V23.464H100.901V22.84H104.349ZM104.885 24.928C104.885 24.56 104.938 24.24 105.045 23.968C105.151 23.6907 105.293 23.4613 105.469 23.28C105.645 23.0987 105.847 22.9627 106.077 22.872C106.306 22.7813 106.541 22.736 106.781 22.736C107.341 22.736 107.77 22.912 108.069 23.264C108.367 23.6107 108.517 24.1413 108.517 24.856C108.517 24.888 108.517 24.9307 108.517 24.984C108.517 25.032 108.514 25.0773 108.509 25.12H105.661C105.693 25.552 105.818 25.88 106.037 26.104C106.255 26.328 106.597 26.44 107.061 26.44C107.322 26.44 107.541 26.4187 107.717 26.376C107.898 26.328 108.034 26.2827 108.125 26.24L108.229 26.864C108.138 26.912 107.978 26.9627 107.749 27.016C107.525 27.0693 107.269 27.096 106.981 27.096C106.618 27.096 106.303 27.0427 106.037 26.936C105.775 26.824 105.559 26.672 105.389 26.48C105.218 26.288 105.09 26.0613 105.005 25.8C104.925 25.5333 104.885 25.2427 104.885 24.928ZM107.741 24.52C107.746 24.184 107.661 23.9093 107.485 23.696C107.314 23.4773 107.077 23.368 106.773 23.368C106.602 23.368 106.45 23.4027 106.317 23.472C106.189 23.536 106.079 23.6213 105.989 23.728C105.898 23.8347 105.826 23.9573 105.773 24.096C105.725 24.2347 105.693 24.376 105.677 24.52H107.741ZM111.033 23.464C111.033 23.64 111.028 23.8293 111.017 24.032C111.012 24.2293 110.999 24.4293 110.977 24.632C110.956 24.8293 110.927 25.0267 110.889 25.224C110.852 25.416 110.804 25.5973 110.745 25.768C110.687 25.9387 110.612 26.0987 110.521 26.248C110.436 26.3973 110.329 26.5307 110.201 26.648C110.073 26.76 109.924 26.856 109.753 26.936C109.583 27.0107 109.383 27.0587 109.153 27.08L109.049 26.456C109.311 26.4027 109.516 26.304 109.665 26.16C109.82 26.016 109.943 25.84 110.033 25.632C110.113 25.4507 110.172 25.2453 110.209 25.016C110.247 24.7867 110.273 24.5493 110.289 24.304C110.305 24.0533 110.313 23.8027 110.313 23.552C110.319 23.3013 110.321 23.064 110.321 22.84H113.089V27H112.345V23.464H111.033ZM115.943 26.48C116.257 26.48 116.505 26.4187 116.687 26.296C116.868 26.1733 116.959 25.976 116.959 25.704C116.959 25.5707 116.932 25.456 116.879 25.36C116.825 25.264 116.751 25.1867 116.655 25.128C116.564 25.064 116.457 25.0187 116.335 24.992C116.212 24.96 116.081 24.944 115.943 24.944C115.799 24.944 115.649 24.9493 115.495 24.96C115.345 24.9653 115.217 24.9813 115.111 25.008V26.44C115.143 26.4453 115.191 26.4507 115.255 26.456C115.319 26.4613 115.388 26.4667 115.463 26.472C115.543 26.472 115.623 26.4747 115.703 26.48C115.788 26.48 115.868 26.48 115.943 26.48ZM114.367 26.912V22.84H115.111V24.432C115.153 24.4213 115.209 24.4107 115.279 24.4C115.353 24.3893 115.431 24.3787 115.511 24.368C115.596 24.3573 115.684 24.3493 115.775 24.344C115.865 24.3387 115.951 24.336 116.031 24.336C116.26 24.336 116.476 24.3627 116.679 24.416C116.881 24.464 117.057 24.544 117.207 24.656C117.361 24.7627 117.484 24.904 117.575 25.08C117.665 25.2507 117.711 25.456 117.711 25.696C117.711 25.9467 117.668 26.16 117.583 26.336C117.497 26.512 117.375 26.656 117.215 26.768C117.055 26.88 116.863 26.96 116.639 27.008C116.42 27.0613 116.175 27.088 115.903 27.088C115.636 27.088 115.375 27.072 115.119 27.04C114.863 27.0133 114.612 26.9707 114.367 26.912ZM119.933 26.392H120.381C120.557 26.136 120.695 25.872 120.797 25.6C120.903 25.328 120.983 25.048 121.037 24.76C121.09 24.4667 121.125 24.1627 121.141 23.848C121.157 23.528 121.167 23.192 121.173 22.84H123.901V26.392H124.461V28.16H123.757V27H120.637V28.16H119.933V26.392ZM123.157 26.392V23.464H121.853C121.847 23.7147 121.834 23.968 121.813 24.224C121.791 24.4747 121.757 24.7253 121.709 24.976C121.661 25.2213 121.591 25.464 121.501 25.704C121.415 25.9387 121.306 26.168 121.173 26.392H123.157ZM126.885 23.464C126.885 23.64 126.88 23.8293 126.869 24.032C126.864 24.2293 126.85 24.4293 126.829 24.632C126.808 24.8293 126.778 25.0267 126.741 25.224C126.704 25.416 126.656 25.5973 126.597 25.768C126.538 25.9387 126.464 26.0987 126.373 26.248C126.288 26.3973 126.181 26.5307 126.053 26.648C125.925 26.76 125.776 26.856 125.605 26.936C125.434 27.0107 125.234 27.0587 125.005 27.08L124.901 26.456C125.162 26.4027 125.368 26.304 125.517 26.16C125.672 26.016 125.794 25.84 125.885 25.632C125.965 25.4507 126.024 25.2453 126.061 25.016C126.098 24.7867 126.125 24.5493 126.141 24.304C126.157 24.0533 126.165 23.8027 126.165 23.552C126.17 23.3013 126.173 23.064 126.173 22.84H128.941V27H128.197V23.464H126.885ZM131.938 25.384C131.858 25.384 131.781 25.384 131.706 25.384C131.631 25.3787 131.559 25.3733 131.49 25.368C131.319 25.624 131.154 25.8987 130.994 26.192C130.839 26.48 130.701 26.7493 130.578 27H129.826C129.89 26.8453 129.965 26.688 130.05 26.528C130.135 26.3627 130.221 26.2027 130.306 26.048C130.397 25.8933 130.487 25.7467 130.578 25.608C130.669 25.4693 130.754 25.344 130.834 25.232C130.685 25.1787 130.562 25.1147 130.466 25.04C130.37 24.96 130.293 24.872 130.234 24.776C130.175 24.68 130.133 24.5787 130.106 24.472C130.085 24.36 130.074 24.248 130.074 24.136C130.074 23.9013 130.117 23.696 130.202 23.52C130.293 23.344 130.415 23.2 130.57 23.088C130.725 22.9707 130.906 22.8827 131.114 22.824C131.327 22.7653 131.559 22.736 131.81 22.736C132.162 22.736 132.461 22.752 132.706 22.784C132.951 22.816 133.157 22.8533 133.322 22.896V27H132.586V25.384H131.938ZM132.586 23.392C132.527 23.3813 132.429 23.3707 132.29 23.36C132.157 23.3493 132.002 23.344 131.826 23.344C131.522 23.344 131.277 23.408 131.09 23.536C130.903 23.6587 130.81 23.856 130.81 24.128C130.81 24.3947 130.906 24.5787 131.098 24.68C131.29 24.7813 131.538 24.832 131.842 24.832H132.586V23.392ZM137.181 26.44C137.213 26.4453 137.258 26.4507 137.317 26.456C137.375 26.4613 137.442 26.4667 137.517 26.472C137.591 26.472 137.669 26.4747 137.749 26.48C137.834 26.48 137.914 26.48 137.989 26.48C138.143 26.48 138.29 26.4693 138.429 26.448C138.573 26.4267 138.695 26.3893 138.797 26.336C138.903 26.2827 138.986 26.2133 139.045 26.128C139.109 26.0373 139.141 25.9227 139.141 25.784C139.141 25.6507 139.111 25.5413 139.053 25.456C138.999 25.3653 138.925 25.2933 138.829 25.24C138.733 25.1867 138.618 25.1493 138.485 25.128C138.357 25.1067 138.218 25.096 138.069 25.096H137.181V26.44ZM137.973 24.544C138.117 24.544 138.247 24.536 138.365 24.52C138.487 24.4987 138.591 24.464 138.677 24.416C138.767 24.368 138.837 24.304 138.885 24.224C138.938 24.144 138.965 24.0427 138.965 23.92C138.965 23.792 138.933 23.6907 138.869 23.616C138.805 23.5413 138.719 23.4853 138.613 23.448C138.511 23.4053 138.394 23.3787 138.261 23.368C138.133 23.352 138.002 23.344 137.868 23.344C137.746 23.344 137.621 23.3467 137.493 23.352C137.37 23.3573 137.266 23.3627 137.181 23.368V24.544H137.973ZM137.957 27.072C137.642 27.072 137.351 27.056 137.085 27.024C136.818 26.9973 136.607 26.9653 136.453 26.928V22.88C136.607 22.8427 136.818 22.8107 137.085 22.784C137.351 22.752 137.642 22.736 137.957 22.736C138.175 22.736 138.389 22.7547 138.597 22.792C138.805 22.8293 138.989 22.8933 139.149 22.984C139.309 23.0693 139.437 23.1893 139.533 23.344C139.634 23.4933 139.685 23.68 139.685 23.904C139.685 24.1067 139.634 24.28 139.533 24.424C139.431 24.568 139.295 24.68 139.125 24.76C139.354 24.84 139.535 24.96 139.669 25.12C139.807 25.2747 139.877 25.4933 139.877 25.776C139.877 26.0267 139.826 26.2347 139.725 26.4C139.629 26.5653 139.493 26.6987 139.317 26.8C139.146 26.9013 138.943 26.9707 138.709 27.008C138.474 27.0507 138.223 27.072 137.957 27.072ZM142.243 26.464C142.419 26.464 142.574 26.4613 142.707 26.456C142.846 26.4453 142.961 26.4293 143.051 26.408V25.168C142.998 25.1413 142.91 25.12 142.787 25.104C142.67 25.0827 142.526 25.072 142.355 25.072C142.243 25.072 142.123 25.08 141.995 25.096C141.873 25.112 141.758 25.1467 141.651 25.2C141.55 25.248 141.465 25.3173 141.395 25.408C141.326 25.4933 141.291 25.608 141.291 25.752C141.291 26.0187 141.377 26.2053 141.547 26.312C141.718 26.4133 141.95 26.464 142.243 26.464ZM142.179 22.736C142.478 22.736 142.729 22.776 142.931 22.856C143.139 22.9307 143.305 23.04 143.427 23.184C143.555 23.3227 143.646 23.4907 143.699 23.688C143.753 23.88 143.779 24.0933 143.779 24.328V26.928C143.715 26.9387 143.625 26.9547 143.507 26.976C143.395 26.992 143.267 27.008 143.123 27.024C142.979 27.04 142.822 27.0533 142.651 27.064C142.486 27.08 142.321 27.088 142.155 27.088C141.921 27.088 141.705 27.064 141.507 27.016C141.31 26.968 141.139 26.8933 140.995 26.792C140.851 26.6853 140.739 26.5467 140.659 26.376C140.579 26.2053 140.539 26 140.539 25.76C140.539 25.5307 140.585 25.3333 140.675 25.168C140.771 25.0027 140.899 24.8693 141.059 24.768C141.219 24.6667 141.406 24.592 141.619 24.544C141.833 24.496 142.057 24.472 142.291 24.472C142.366 24.472 142.443 24.4773 142.523 24.488C142.603 24.4933 142.678 24.504 142.747 24.52C142.822 24.5307 142.886 24.5413 142.939 24.552C142.993 24.5627 143.03 24.5707 143.051 24.576V24.368C143.051 24.2453 143.038 24.1253 143.011 24.008C142.985 23.8853 142.937 23.7787 142.867 23.688C142.798 23.592 142.702 23.5173 142.579 23.464C142.462 23.4053 142.307 23.376 142.115 23.376C141.87 23.376 141.654 23.3947 141.467 23.432C141.286 23.464 141.15 23.4987 141.059 23.536L140.971 22.92C141.067 22.8773 141.227 22.8373 141.451 22.8C141.675 22.7573 141.918 22.736 142.179 22.736ZM148.423 27H147.679V25.16H145.759V27H145.015V22.84H145.759V24.536H147.679V22.84H148.423V27ZM153.111 27H152.367V25.16H150.447V27H149.703V22.84H150.447V24.536H152.367V22.84H153.111V27ZM158.062 24.92C158.062 25.2507 158.014 25.5493 157.918 25.816C157.822 26.0827 157.686 26.312 157.51 26.504C157.339 26.696 157.134 26.8453 156.894 26.952C156.654 27.0533 156.393 27.104 156.11 27.104C155.827 27.104 155.566 27.0533 155.326 26.952C155.086 26.8453 154.878 26.696 154.702 26.504C154.531 26.312 154.398 26.0827 154.302 25.816C154.206 25.5493 154.158 25.2507 154.158 24.92C154.158 24.5947 154.206 24.2987 154.302 24.032C154.398 23.76 154.531 23.528 154.702 23.336C154.878 23.144 155.086 22.9973 155.326 22.896C155.566 22.7893 155.827 22.736 156.11 22.736C156.393 22.736 156.654 22.7893 156.894 22.896C157.134 22.9973 157.339 23.144 157.51 23.336C157.686 23.528 157.822 23.76 157.918 24.032C158.014 24.2987 158.062 24.5947 158.062 24.92ZM157.286 24.92C157.286 24.4507 157.179 24.08 156.966 23.808C156.758 23.5307 156.473 23.392 156.11 23.392C155.747 23.392 155.459 23.5307 155.246 23.808C155.038 24.08 154.934 24.4507 154.934 24.92C154.934 25.3893 155.038 25.7627 155.246 26.04C155.459 26.312 155.747 26.448 156.11 26.448C156.473 26.448 156.758 26.312 156.966 26.04C157.179 25.7627 157.286 25.3893 157.286 24.92ZM162.605 22.84V27H161.885V23.832C161.725 24.0347 161.549 24.272 161.357 24.544C161.165 24.816 160.973 25.0987 160.781 25.392C160.589 25.68 160.405 25.9653 160.229 26.248C160.053 26.5307 159.901 26.7813 159.773 27H159.109V22.84H159.829V25.832C159.967 25.6027 160.125 25.352 160.301 25.08C160.477 24.8027 160.658 24.5307 160.845 24.264C161.037 23.992 161.226 23.7333 161.413 23.488C161.605 23.2373 161.783 23.0213 161.949 22.84H162.605ZM160.861 22.168C160.525 22.168 160.25 22.0827 160.037 21.912C159.829 21.7413 159.703 21.504 159.661 21.2L160.229 21.048C160.271 21.2187 160.343 21.3573 160.445 21.464C160.546 21.5707 160.685 21.624 160.861 21.624C161.037 21.624 161.175 21.5707 161.277 21.464C161.378 21.3573 161.45 21.2187 161.493 21.048L162.053 21.2C162.01 21.504 161.885 21.7413 161.677 21.912C161.469 22.0827 161.197 22.168 160.861 22.168ZM169.23 22.84V27H168.51V23.832C168.35 24.0347 168.174 24.272 167.982 24.544C167.79 24.816 167.598 25.0987 167.406 25.392C167.214 25.68 167.03 25.9653 166.854 26.248C166.678 26.5307 166.526 26.7813 166.398 27H165.734V22.84H166.454V25.832C166.592 25.6027 166.75 25.352 166.926 25.08C167.102 24.8027 167.283 24.5307 167.47 24.264C167.662 23.992 167.851 23.7333 168.038 23.488C168.23 23.2373 168.408 23.0213 168.574 22.84H169.23ZM171.871 27.776C171.929 27.8027 172.004 27.8267 172.095 27.848C172.191 27.8747 172.284 27.888 172.375 27.888C172.668 27.888 172.897 27.8213 173.063 27.688C173.228 27.56 173.377 27.3493 173.511 27.056C173.175 26.416 172.86 25.7387 172.567 25.024C172.279 24.304 172.039 23.576 171.847 22.84H172.647C172.705 23.08 172.775 23.3387 172.855 23.616C172.94 23.8933 173.033 24.1787 173.135 24.472C173.236 24.7653 173.345 25.0587 173.463 25.352C173.58 25.6453 173.703 25.928 173.831 26.2C174.033 25.64 174.209 25.0853 174.359 24.536C174.508 23.9867 174.649 23.4213 174.783 22.84H175.551C175.359 23.624 175.145 24.3787 174.911 25.104C174.676 25.824 174.423 26.4987 174.151 27.128C174.044 27.368 173.932 27.5733 173.815 27.744C173.703 27.92 173.577 28.064 173.439 28.176C173.3 28.288 173.143 28.3707 172.967 28.424C172.796 28.4773 172.601 28.504 172.383 28.504C172.324 28.504 172.263 28.4987 172.199 28.488C172.135 28.4827 172.071 28.472 172.007 28.456C171.948 28.4453 171.892 28.432 171.839 28.416C171.791 28.4 171.756 28.3867 171.735 28.376L171.871 27.776ZM177.127 23.936C177.074 24.464 177.034 24.992 177.007 25.52C176.981 26.0427 176.959 26.536 176.943 27H176.231C176.242 26.6747 176.258 26.336 176.279 25.984C176.301 25.6267 176.325 25.2693 176.351 24.912C176.378 24.5493 176.407 24.1947 176.439 23.848C176.471 23.496 176.506 23.16 176.543 22.84H177.223C177.394 23.1173 177.594 23.4987 177.823 23.984C178.053 24.464 178.317 25.0187 178.615 25.648C178.914 25.0187 179.178 24.464 179.407 23.984C179.637 23.4987 179.837 23.1173 180.007 22.84H180.695C180.733 23.16 180.767 23.496 180.799 23.848C180.831 24.1947 180.861 24.5493 180.887 24.912C180.914 25.2693 180.938 25.6267 180.959 25.984C180.981 26.336 180.997 26.6747 181.007 27H180.271C180.255 26.536 180.234 26.0427 180.207 25.52C180.181 24.992 180.141 24.464 180.087 23.936C180.002 24.1013 179.903 24.3013 179.791 24.536C179.679 24.7653 179.567 25 179.455 25.24C179.349 25.48 179.247 25.7093 179.151 25.928C179.055 26.1467 178.981 26.32 178.927 26.448H178.303C178.245 26.3147 178.165 26.1387 178.063 25.92C177.967 25.7013 177.863 25.472 177.751 25.232C177.645 24.9867 177.535 24.7493 177.423 24.52C177.311 24.2853 177.213 24.0907 177.127 23.936ZM183.715 24.944C183.571 24.944 183.43 24.9493 183.291 24.96C183.158 24.9653 183.038 24.9813 182.931 25.008V26.44C182.963 26.4453 183.008 26.4507 183.067 26.456C183.131 26.4613 183.198 26.4667 183.267 26.472C183.342 26.472 183.416 26.4747 183.491 26.48C183.566 26.48 183.632 26.48 183.691 26.48C184.016 26.48 184.267 26.4187 184.443 26.296C184.619 26.1733 184.707 25.976 184.707 25.704C184.707 25.5707 184.678 25.456 184.619 25.36C184.566 25.264 184.491 25.1867 184.395 25.128C184.304 25.064 184.2 25.0187 184.083 24.992C183.966 24.96 183.843 24.944 183.715 24.944ZM182.187 22.84H182.931V24.432C183.022 24.4107 183.152 24.3893 183.323 24.368C183.499 24.3467 183.667 24.336 183.827 24.336C184.046 24.336 184.254 24.3627 184.451 24.416C184.648 24.464 184.822 24.544 184.971 24.656C185.12 24.7627 185.238 24.904 185.323 25.08C185.414 25.2507 185.459 25.456 185.459 25.696C185.459 25.9467 185.416 26.16 185.331 26.336C185.246 26.512 185.126 26.656 184.971 26.768C184.816 26.88 184.63 26.96 184.411 27.008C184.192 27.0613 183.952 27.088 183.691 27.088C183.44 27.088 183.187 27.072 182.931 27.04C182.675 27.0133 182.427 26.9707 182.187 26.912V22.84ZM186.971 27H186.227V22.84H186.971V27ZM188.977 26.44C189.009 26.4453 189.055 26.4507 189.113 26.456C189.172 26.4613 189.239 26.4667 189.313 26.472C189.388 26.472 189.465 26.4747 189.545 26.48C189.631 26.48 189.711 26.48 189.785 26.48C189.94 26.48 190.087 26.4693 190.225 26.448C190.369 26.4267 190.492 26.3893 190.593 26.336C190.7 26.2827 190.783 26.2133 190.841 26.128C190.905 26.0373 190.937 25.9227 190.937 25.784C190.937 25.6507 190.908 25.5413 190.849 25.456C190.796 25.3653 190.721 25.2933 190.625 25.24C190.529 25.1867 190.415 25.1493 190.281 25.128C190.153 25.1067 190.015 25.096 189.865 25.096H188.977V26.44ZM189.769 24.544C189.913 24.544 190.044 24.536 190.161 24.52C190.284 24.4987 190.388 24.464 190.473 24.416C190.564 24.368 190.633 24.304 190.681 24.224C190.735 24.144 190.761 24.0427 190.761 23.92C190.761 23.792 190.729 23.6907 190.665 23.616C190.601 23.5413 190.516 23.4853 190.409 23.448C190.308 23.4053 190.191 23.3787 190.057 23.368C189.929 23.352 189.799 23.344 189.665 23.344C189.543 23.344 189.417 23.3467 189.289 23.352C189.167 23.3573 189.063 23.3627 188.977 23.368V24.544H189.769ZM189.753 27.072C189.439 27.072 189.148 27.056 188.881 27.024C188.615 26.9973 188.404 26.9653 188.249 26.928V22.88C188.404 22.8427 188.615 22.8107 188.881 22.784C189.148 22.752 189.439 22.736 189.753 22.736C189.972 22.736 190.185 22.7547 190.393 22.792C190.601 22.8293 190.785 22.8933 190.945 22.984C191.105 23.0693 191.233 23.1893 191.329 23.344C191.431 23.4933 191.481 23.68 191.481 23.904C191.481 24.1067 191.431 24.28 191.329 24.424C191.228 24.568 191.092 24.68 190.921 24.76C191.151 24.84 191.332 24.96 191.465 25.12C191.604 25.2747 191.673 25.4933 191.673 25.776C191.673 26.0267 191.623 26.2347 191.521 26.4C191.425 26.5653 191.289 26.6987 191.113 26.8C190.943 26.9013 190.74 26.9707 190.505 27.008C190.271 27.0507 190.02 27.072 189.753 27.072ZM194.04 26.464C194.216 26.464 194.371 26.4613 194.504 26.456C194.643 26.4453 194.758 26.4293 194.848 26.408V25.168C194.795 25.1413 194.707 25.12 194.584 25.104C194.467 25.0827 194.323 25.072 194.152 25.072C194.04 25.072 193.92 25.08 193.792 25.096C193.67 25.112 193.555 25.1467 193.448 25.2C193.347 25.248 193.262 25.3173 193.192 25.408C193.123 25.4933 193.088 25.608 193.088 25.752C193.088 26.0187 193.174 26.2053 193.344 26.312C193.515 26.4133 193.747 26.464 194.04 26.464ZM193.976 22.736C194.275 22.736 194.526 22.776 194.728 22.856C194.936 22.9307 195.102 23.04 195.224 23.184C195.352 23.3227 195.443 23.4907 195.496 23.688C195.55 23.88 195.576 24.0933 195.576 24.328V26.928C195.512 26.9387 195.422 26.9547 195.304 26.976C195.192 26.992 195.064 27.008 194.92 27.024C194.776 27.04 194.619 27.0533 194.448 27.064C194.283 27.08 194.118 27.088 193.952 27.088C193.718 27.088 193.502 27.064 193.304 27.016C193.107 26.968 192.936 26.8933 192.792 26.792C192.648 26.6853 192.536 26.5467 192.456 26.376C192.376 26.2053 192.336 26 192.336 25.76C192.336 25.5307 192.382 25.3333 192.472 25.168C192.568 25.0027 192.696 24.8693 192.856 24.768C193.016 24.6667 193.203 24.592 193.416 24.544C193.63 24.496 193.854 24.472 194.088 24.472C194.163 24.472 194.24 24.4773 194.32 24.488C194.4 24.4933 194.475 24.504 194.544 24.52C194.619 24.5307 194.683 24.5413 194.736 24.552C194.79 24.5627 194.827 24.5707 194.848 24.576V24.368C194.848 24.2453 194.835 24.1253 194.808 24.008C194.782 23.8853 194.734 23.7787 194.664 23.688C194.595 23.592 194.499 23.5173 194.376 23.464C194.259 23.4053 194.104 23.376 193.912 23.376C193.667 23.376 193.451 23.3947 193.264 23.432C193.083 23.464 192.947 23.4987 192.856 23.536L192.768 22.92C192.864 22.8773 193.024 22.8373 193.248 22.8C193.472 22.7573 193.715 22.736 193.976 22.736ZM198.26 23.464C198.26 23.64 198.255 23.8293 198.244 24.032C198.239 24.2293 198.225 24.4293 198.204 24.632C198.183 24.8293 198.153 25.0267 198.116 25.224C198.079 25.416 198.031 25.5973 197.972 25.768C197.913 25.9387 197.839 26.0987 197.748 26.248C197.663 26.3973 197.556 26.5307 197.428 26.648C197.3 26.76 197.151 26.856 196.98 26.936C196.809 27.0107 196.609 27.0587 196.38 27.08L196.276 26.456C196.537 26.4027 196.743 26.304 196.892 26.16C197.047 26.016 197.169 25.84 197.26 25.632C197.34 25.4507 197.399 25.2453 197.436 25.016C197.473 24.7867 197.5 24.5493 197.516 24.304C197.532 24.0533 197.54 23.8027 197.54 23.552C197.545 23.3013 197.548 23.064 197.548 22.84H200.316V27H199.572V23.464H198.26ZM203.169 26.48C203.484 26.48 203.732 26.4187 203.913 26.296C204.094 26.1733 204.185 25.976 204.185 25.704C204.185 25.5707 204.158 25.456 204.105 25.36C204.052 25.264 203.977 25.1867 203.881 25.128C203.79 25.064 203.684 25.0187 203.561 24.992C203.438 24.96 203.308 24.944 203.169 24.944C203.025 24.944 202.876 24.9493 202.721 24.96C202.572 24.9653 202.444 24.9813 202.337 25.008V26.44C202.369 26.4453 202.417 26.4507 202.481 26.456C202.545 26.4613 202.614 26.4667 202.689 26.472C202.769 26.472 202.849 26.4747 202.929 26.48C203.014 26.48 203.094 26.48 203.169 26.48ZM201.593 26.912V22.84H202.337V24.432C202.38 24.4213 202.436 24.4107 202.505 24.4C202.58 24.3893 202.657 24.3787 202.737 24.368C202.822 24.3573 202.91 24.3493 203.001 24.344C203.092 24.3387 203.177 24.336 203.257 24.336C203.486 24.336 203.702 24.3627 203.905 24.416C204.108 24.464 204.284 24.544 204.433 24.656C204.588 24.7627 204.71 24.904 204.801 25.08C204.892 25.2507 204.937 25.456 204.937 25.696C204.937 25.9467 204.894 26.16 204.809 26.336C204.724 26.512 204.601 26.656 204.441 26.768C204.281 26.88 204.089 26.96 203.865 27.008C203.646 27.0613 203.401 27.088 203.129 27.088C202.862 27.088 202.601 27.072 202.345 27.04C202.089 27.0133 201.838 26.9707 201.593 26.912ZM209.228 27H208.484V25.16H206.564V27H205.82V22.84H206.564V24.536H208.484V22.84H209.228V27ZM214.003 22.84V27H213.283V23.832C213.123 24.0347 212.947 24.272 212.755 24.544C212.563 24.816 212.371 25.0987 212.179 25.392C211.987 25.68 211.803 25.9653 211.627 26.248C211.451 26.5307 211.299 26.7813 211.171 27H210.507V22.84H211.227V25.832C211.366 25.6027 211.523 25.352 211.699 25.08C211.875 24.8027 212.057 24.5307 212.243 24.264C212.435 23.992 212.625 23.7333 212.811 23.488C213.003 23.2373 213.182 23.0213 213.347 22.84H214.003ZM216.801 24.736C216.966 24.8533 217.145 25.0027 217.337 25.184C217.529 25.36 217.715 25.552 217.897 25.76C218.083 25.968 218.257 26.1813 218.417 26.4C218.577 26.6133 218.713 26.8133 218.825 27H217.945C217.827 26.8187 217.689 26.6347 217.529 26.448C217.374 26.256 217.211 26.072 217.041 25.896C216.87 25.72 216.697 25.5573 216.521 25.408C216.345 25.2587 216.179 25.1333 216.025 25.032V27H215.281V22.84H216.025V24.624C216.153 24.5013 216.299 24.36 216.465 24.2C216.63 24.0347 216.795 23.8693 216.961 23.704C217.131 23.5333 217.289 23.3733 217.433 23.224C217.577 23.0693 217.694 22.9413 217.785 22.84H218.649C218.531 22.968 218.393 23.1147 218.233 23.28C218.078 23.44 217.915 23.6053 217.745 23.776C217.579 23.9467 217.414 24.1173 217.249 24.288C217.083 24.4533 216.934 24.6027 216.801 24.736ZM220.986 26.464C221.162 26.464 221.316 26.4613 221.45 26.456C221.588 26.4453 221.703 26.4293 221.794 26.408V25.168C221.74 25.1413 221.652 25.12 221.53 25.104C221.412 25.0827 221.268 25.072 221.098 25.072C220.986 25.072 220.866 25.08 220.738 25.096C220.615 25.112 220.5 25.1467 220.394 25.2C220.292 25.248 220.207 25.3173 220.138 25.408C220.068 25.4933 220.034 25.608 220.034 25.752C220.034 26.0187 220.119 26.2053 220.29 26.312C220.46 26.4133 220.692 26.464 220.986 26.464ZM220.922 22.736C221.22 22.736 221.471 22.776 221.674 22.856C221.882 22.9307 222.047 23.04 222.17 23.184C222.298 23.3227 222.388 23.4907 222.442 23.688C222.495 23.88 222.522 24.0933 222.522 24.328V26.928C222.458 26.9387 222.367 26.9547 222.25 26.976C222.138 26.992 222.01 27.008 221.866 27.024C221.722 27.04 221.564 27.0533 221.394 27.064C221.228 27.08 221.063 27.088 220.898 27.088C220.663 27.088 220.447 27.064 220.25 27.016C220.052 26.968 219.882 26.8933 219.738 26.792C219.594 26.6853 219.482 26.5467 219.402 26.376C219.322 26.2053 219.282 26 219.282 25.76C219.282 25.5307 219.327 25.3333 219.418 25.168C219.514 25.0027 219.642 24.8693 219.802 24.768C219.962 24.6667 220.148 24.592 220.362 24.544C220.575 24.496 220.799 24.472 221.034 24.472C221.108 24.472 221.186 24.4773 221.266 24.488C221.346 24.4933 221.42 24.504 221.49 24.52C221.564 24.5307 221.628 24.5413 221.682 24.552C221.735 24.5627 221.772 24.5707 221.794 24.576V24.368C221.794 24.2453 221.78 24.1253 221.754 24.008C221.727 23.8853 221.679 23.7787 221.61 23.688C221.54 23.592 221.444 23.5173 221.322 23.464C221.204 23.4053 221.05 23.376 220.858 23.376C220.612 23.376 220.396 23.3947 220.21 23.432C220.028 23.464 219.892 23.4987 219.802 23.536L219.714 22.92C219.81 22.8773 219.97 22.8373 220.194 22.8C220.418 22.7573 220.66 22.736 220.922 22.736ZM79.088 32.464C79.088 32.64 79.0827 32.8293 79.072 33.032C79.0667 33.2293 79.0533 33.4293 79.032 33.632C79.0107 33.8293 78.9813 34.0267 78.944 34.224C78.9067 34.416 78.8587 34.5973 78.8 34.768C78.7413 34.9387 78.6667 35.0987 78.576 35.248C78.4907 35.3973 78.384 35.5307 78.256 35.648C78.128 35.76 77.9787 35.856 77.808 35.936C77.6373 36.0107 77.4373 36.0587 77.208 36.08L77.104 35.456C77.3653 35.4027 77.5707 35.304 77.72 35.16C77.8747 35.016 77.9973 34.84 78.088 34.632C78.168 34.4507 78.2267 34.2453 78.264 34.016C78.3013 33.7867 78.328 33.5493 78.344 33.304C78.36 33.0533 78.368 32.8027 78.368 32.552C78.3733 32.3013 78.376 32.064 78.376 31.84H81.144V36H80.4V32.464H79.088ZM85.9173 31.84V36H85.1973V32.832C85.0373 33.0347 84.8613 33.272 84.6693 33.544C84.4773 33.816 84.2853 34.0987 84.0933 34.392C83.9013 34.68 83.7173 34.9653 83.5413 35.248C83.3653 35.5307 83.2133 35.7813 83.0853 36H82.4213V31.84H83.1413V34.832C83.2799 34.6027 83.4373 34.352 83.6133 34.08C83.7893 33.8027 83.9706 33.5307 84.1573 33.264C84.3493 32.992 84.5386 32.7333 84.7253 32.488C84.9173 32.2373 85.0959 32.0213 85.2613 31.84H85.9173ZM90.1307 31.84V32.464H88.7787V36H88.0347V32.464H86.6827V31.84H90.1307ZM94.5698 33.92C94.5698 34.2507 94.5218 34.5493 94.4258 34.816C94.3298 35.0827 94.1938 35.312 94.0178 35.504C93.8471 35.696 93.6418 35.8453 93.4018 35.952C93.1618 36.0533 92.9005 36.104 92.6178 36.104C92.3351 36.104 92.0738 36.0533 91.8338 35.952C91.5938 35.8453 91.3858 35.696 91.2098 35.504C91.0391 35.312 90.9058 35.0827 90.8098 34.816C90.7138 34.5493 90.6658 34.2507 90.6658 33.92C90.6658 33.5947 90.7138 33.2987 90.8098 33.032C90.9058 32.76 91.0391 32.528 91.2098 32.336C91.3858 32.144 91.5938 31.9973 91.8338 31.896C92.0738 31.7893 92.3351 31.736 92.6178 31.736C92.9005 31.736 93.1618 31.7893 93.4018 31.896C93.6418 31.9973 93.8471 32.144 94.0178 32.336C94.1938 32.528 94.3298 32.76 94.4258 33.032C94.5218 33.2987 94.5698 33.5947 94.5698 33.92ZM93.7938 33.92C93.7938 33.4507 93.6871 33.08 93.4738 32.808C93.2658 32.5307 92.9805 32.392 92.6178 32.392C92.2551 32.392 91.9671 32.5307 91.7538 32.808C91.5458 33.08 91.4418 33.4507 91.4418 33.92C91.4418 34.3893 91.5458 34.7627 91.7538 35.04C91.9671 35.312 92.2551 35.448 92.6178 35.448C92.9805 35.448 93.2658 35.312 93.4738 35.04C93.6871 34.7627 93.7938 34.3893 93.7938 33.92ZM99.1126 31.84V36H98.3926V32.832C98.2326 33.0347 98.0566 33.272 97.8646 33.544C97.6726 33.816 97.4806 34.0987 97.2886 34.392C97.0966 34.68 96.9126 34.9653 96.7366 35.248C96.5606 35.5307 96.4086 35.7813 96.2806 36H95.6166V31.84H96.3366V34.832C96.4752 34.6027 96.6326 34.352 96.8086 34.08C96.9846 33.8027 97.1659 33.5307 97.3526 33.264C97.5446 32.992 97.7339 32.7333 97.9206 32.488C98.1126 32.2373 98.2912 32.0213 98.4566 31.84H99.1126ZM97.3686 31.168C97.0326 31.168 96.7579 31.0827 96.5446 30.912C96.3366 30.7413 96.2112 30.504 96.1686 30.2L96.7366 30.048C96.7792 30.2187 96.8512 30.3573 96.9526 30.464C97.0539 30.5707 97.1926 30.624 97.3686 30.624C97.5446 30.624 97.6832 30.5707 97.7846 30.464C97.8859 30.3573 97.9579 30.2187 98.0006 30.048L98.5606 30.2C98.5179 30.504 98.3926 30.7413 98.1846 30.912C97.9766 31.0827 97.7046 31.168 97.3686 31.168ZM105.914 33.92C105.914 34.2507 105.866 34.5493 105.77 34.816C105.674 35.0827 105.538 35.312 105.362 35.504C105.191 35.696 104.986 35.8453 104.746 35.952C104.506 36.0533 104.244 36.104 103.962 36.104C103.679 36.104 103.418 36.0533 103.178 35.952C102.938 35.8453 102.73 35.696 102.554 35.504C102.383 35.312 102.25 35.0827 102.154 34.816C102.058 34.5493 102.01 34.2507 102.01 33.92C102.01 33.5947 102.058 33.2987 102.154 33.032C102.25 32.76 102.383 32.528 102.554 32.336C102.73 32.144 102.938 31.9973 103.178 31.896C103.418 31.7893 103.679 31.736 103.962 31.736C104.244 31.736 104.506 31.7893 104.746 31.896C104.986 31.9973 105.191 32.144 105.362 32.336C105.538 32.528 105.674 32.76 105.77 33.032C105.866 33.2987 105.914 33.5947 105.914 33.92ZM105.138 33.92C105.138 33.4507 105.031 33.08 104.818 32.808C104.61 32.5307 104.324 32.392 103.962 32.392C103.599 32.392 103.311 32.5307 103.098 32.808C102.89 33.08 102.786 33.4507 102.786 33.92C102.786 34.3893 102.89 34.7627 103.098 35.04C103.311 35.312 103.599 35.448 103.962 35.448C104.324 35.448 104.61 35.312 104.818 35.04C105.031 34.7627 105.138 34.3893 105.138 33.92ZM106.448 35.392H106.896C107.072 35.136 107.211 34.872 107.312 34.6C107.419 34.328 107.499 34.048 107.552 33.76C107.606 33.4667 107.64 33.1627 107.656 32.848C107.672 32.528 107.683 32.192 107.688 31.84H110.416V35.392H110.976V37.16H110.272V36H107.152V37.16H106.448V35.392ZM109.672 35.392V32.464H108.368C108.363 32.7147 108.35 32.968 108.328 33.224C108.307 33.4747 108.272 33.7253 108.224 33.976C108.176 34.2213 108.107 34.464 108.016 34.704C107.931 34.9387 107.822 35.168 107.688 35.392H109.672ZM115.189 36H114.445V34.16H112.525V36H111.781V31.84H112.525V33.536H114.445V31.84H115.189V36ZM120.14 33.92C120.14 34.2507 120.092 34.5493 119.996 34.816C119.9 35.0827 119.764 35.312 119.588 35.504C119.417 35.696 119.212 35.8453 118.972 35.952C118.732 36.0533 118.471 36.104 118.188 36.104C117.905 36.104 117.644 36.0533 117.404 35.952C117.164 35.8453 116.956 35.696 116.78 35.504C116.609 35.312 116.476 35.0827 116.38 34.816C116.284 34.5493 116.236 34.2507 116.236 33.92C116.236 33.5947 116.284 33.2987 116.38 33.032C116.476 32.76 116.609 32.528 116.78 32.336C116.956 32.144 117.164 31.9973 117.404 31.896C117.644 31.7893 117.905 31.736 118.188 31.736C118.471 31.736 118.732 31.7893 118.972 31.896C119.212 31.9973 119.417 32.144 119.588 32.336C119.764 32.528 119.9 32.76 119.996 33.032C120.092 33.2987 120.14 33.5947 120.14 33.92ZM119.364 33.92C119.364 33.4507 119.257 33.08 119.044 32.808C118.836 32.5307 118.551 32.392 118.188 32.392C117.825 32.392 117.537 32.5307 117.324 32.808C117.116 33.08 117.012 33.4507 117.012 33.92C117.012 34.3893 117.116 34.7627 117.324 35.04C117.537 35.312 117.825 35.448 118.188 35.448C118.551 35.448 118.836 35.312 119.044 35.04C119.257 34.7627 119.364 34.3893 119.364 33.92ZM124.075 33.928C124.075 33.4427 123.955 33.0693 123.715 32.808C123.475 32.5467 123.155 32.416 122.755 32.416C122.531 32.416 122.355 32.424 122.227 32.44C122.104 32.456 122.006 32.4747 121.931 32.496V35.12C122.022 35.1947 122.152 35.2667 122.323 35.336C122.494 35.4053 122.68 35.44 122.883 35.44C123.096 35.44 123.278 35.4027 123.427 35.328C123.582 35.248 123.707 35.1413 123.803 35.008C123.899 34.8693 123.968 34.7093 124.011 34.528C124.054 34.3413 124.075 34.1413 124.075 33.928ZM124.851 33.928C124.851 34.2427 124.808 34.5333 124.723 34.8C124.643 35.0667 124.523 35.296 124.363 35.488C124.203 35.68 124.006 35.8293 123.771 35.936C123.542 36.0427 123.278 36.096 122.979 36.096C122.739 36.096 122.526 36.064 122.339 36C122.158 35.936 122.022 35.8747 121.931 35.816V37.48H121.187V31.968C121.363 31.9253 121.582 31.88 121.843 31.832C122.11 31.7787 122.416 31.752 122.763 31.752C123.083 31.752 123.371 31.8027 123.627 31.904C123.883 32.0053 124.102 32.1493 124.283 32.336C124.464 32.5227 124.603 32.752 124.699 33.024C124.8 33.2907 124.851 33.592 124.851 33.928ZM125.3 36.776C125.359 36.8027 125.434 36.8267 125.524 36.848C125.62 36.8747 125.714 36.888 125.804 36.888C126.098 36.888 126.327 36.8213 126.492 36.688C126.658 36.56 126.807 36.3493 126.94 36.056C126.604 35.416 126.29 34.7387 125.996 34.024C125.708 33.304 125.468 32.576 125.276 31.84H126.076C126.135 32.08 126.204 32.3387 126.284 32.616C126.37 32.8933 126.463 33.1787 126.564 33.472C126.666 33.7653 126.775 34.0587 126.892 34.352C127.01 34.6453 127.132 34.928 127.26 35.2C127.463 34.64 127.639 34.0853 127.788 33.536C127.938 32.9867 128.079 32.4213 128.212 31.84H128.98C128.788 32.624 128.575 33.3787 128.34 34.104C128.106 34.824 127.852 35.4987 127.58 36.128C127.474 36.368 127.362 36.5733 127.244 36.744C127.132 36.92 127.007 37.064 126.868 37.176C126.73 37.288 126.572 37.3707 126.396 37.424C126.226 37.4773 126.031 37.504 125.812 37.504C125.754 37.504 125.692 37.4987 125.628 37.488C125.564 37.4827 125.5 37.472 125.436 37.456C125.378 37.4453 125.322 37.432 125.268 37.416C125.22 37.4 125.186 37.3867 125.164 37.376L125.3 36.776ZM131.285 33.736C131.45 33.8533 131.629 34.0027 131.821 34.184C132.013 34.36 132.2 34.552 132.381 34.76C132.568 34.968 132.741 35.1813 132.901 35.4C133.061 35.6133 133.197 35.8133 133.309 36H132.429C132.312 35.8187 132.173 35.6347 132.013 35.448C131.858 35.256 131.696 35.072 131.525 34.896C131.354 34.72 131.181 34.5573 131.005 34.408C130.829 34.2587 130.664 34.1333 130.509 34.032V36H129.765V31.84H130.509V33.624C130.637 33.5013 130.784 33.36 130.949 33.2C131.114 33.0347 131.28 32.8693 131.445 32.704C131.616 32.5333 131.773 32.3733 131.917 32.224C132.061 32.0693 132.178 31.9413 132.269 31.84H133.133C133.016 31.968 132.877 32.1147 132.717 32.28C132.562 32.44 132.4 32.6053 132.229 32.776C132.064 32.9467 131.898 33.1173 131.733 33.288C131.568 33.4533 131.418 33.6027 131.285 33.736ZM137.5 33.92C137.5 34.2507 137.452 34.5493 137.356 34.816C137.26 35.0827 137.124 35.312 136.948 35.504C136.777 35.696 136.572 35.8453 136.332 35.952C136.092 36.0533 135.83 36.104 135.548 36.104C135.265 36.104 135.004 36.0533 134.764 35.952C134.524 35.8453 134.316 35.696 134.14 35.504C133.969 35.312 133.836 35.0827 133.74 34.816C133.644 34.5493 133.596 34.2507 133.596 33.92C133.596 33.5947 133.644 33.2987 133.74 33.032C133.836 32.76 133.969 32.528 134.14 32.336C134.316 32.144 134.524 31.9973 134.764 31.896C135.004 31.7893 135.265 31.736 135.548 31.736C135.83 31.736 136.092 31.7893 136.332 31.896C136.572 31.9973 136.777 32.144 136.948 32.336C137.124 32.528 137.26 32.76 137.356 33.032C137.452 33.2987 137.5 33.5947 137.5 33.92ZM136.724 33.92C136.724 33.4507 136.617 33.08 136.404 32.808C136.196 32.5307 135.91 32.392 135.548 32.392C135.185 32.392 134.897 32.5307 134.684 32.808C134.476 33.08 134.372 33.4507 134.372 33.92C134.372 34.3893 134.476 34.7627 134.684 35.04C134.897 35.312 135.185 35.448 135.548 35.448C135.91 35.448 136.196 35.312 136.404 35.04C136.617 34.7627 136.724 34.3893 136.724 33.92ZM140.266 34.384C140.186 34.384 140.109 34.384 140.034 34.384C139.96 34.3787 139.888 34.3733 139.818 34.368C139.648 34.624 139.482 34.8987 139.322 35.192C139.168 35.48 139.029 35.7493 138.906 36H138.154C138.218 35.8453 138.293 35.688 138.378 35.528C138.464 35.3627 138.549 35.2027 138.634 35.048C138.725 34.8933 138.816 34.7467 138.906 34.608C138.997 34.4693 139.082 34.344 139.162 34.232C139.013 34.1787 138.89 34.1147 138.794 34.04C138.698 33.96 138.621 33.872 138.562 33.776C138.504 33.68 138.461 33.5787 138.434 33.472C138.413 33.36 138.402 33.248 138.402 33.136C138.402 32.9013 138.445 32.696 138.53 32.52C138.621 32.344 138.744 32.2 138.898 32.088C139.053 31.9707 139.234 31.8827 139.442 31.824C139.656 31.7653 139.888 31.736 140.138 31.736C140.49 31.736 140.789 31.752 141.034 31.784C141.28 31.816 141.485 31.8533 141.65 31.896V36H140.914V34.384H140.266ZM140.914 32.392C140.856 32.3813 140.757 32.3707 140.618 32.36C140.485 32.3493 140.33 32.344 140.154 32.344C139.85 32.344 139.605 32.408 139.418 32.536C139.232 32.6587 139.138 32.856 139.138 33.128C139.138 33.3947 139.234 33.5787 139.426 33.68C139.618 33.7813 139.866 33.832 140.17 33.832H140.914V32.392ZM145.865 31.84V32.464H144.513V36H143.769V32.464H142.417V31.84H145.865ZM150.304 33.92C150.304 34.2507 150.256 34.5493 150.16 34.816C150.064 35.0827 149.928 35.312 149.752 35.504C149.582 35.696 149.376 35.8453 149.136 35.952C148.896 36.0533 148.635 36.104 148.352 36.104C148.07 36.104 147.808 36.0533 147.568 35.952C147.328 35.8453 147.12 35.696 146.944 35.504C146.774 35.312 146.64 35.0827 146.544 34.816C146.448 34.5493 146.4 34.2507 146.4 33.92C146.4 33.5947 146.448 33.2987 146.544 33.032C146.64 32.76 146.774 32.528 146.944 32.336C147.12 32.144 147.328 31.9973 147.568 31.896C147.808 31.7893 148.07 31.736 148.352 31.736C148.635 31.736 148.896 31.7893 149.136 31.896C149.376 31.9973 149.582 32.144 149.752 32.336C149.928 32.528 150.064 32.76 150.16 33.032C150.256 33.2987 150.304 33.5947 150.304 33.92ZM149.528 33.92C149.528 33.4507 149.422 33.08 149.208 32.808C149 32.5307 148.715 32.392 148.352 32.392C147.99 32.392 147.702 32.5307 147.488 32.808C147.28 33.08 147.176 33.4507 147.176 33.92C147.176 34.3893 147.28 34.7627 147.488 35.04C147.702 35.312 147.99 35.448 148.352 35.448C148.715 35.448 149 35.312 149.208 35.04C149.422 34.7627 149.528 34.3893 149.528 33.92ZM151.823 31.84V33.064C151.823 33.3787 151.903 33.6 152.063 33.728C152.223 33.8507 152.442 33.912 152.719 33.912C152.922 33.912 153.09 33.9013 153.223 33.88C153.362 33.8587 153.484 33.8347 153.591 33.808V31.84H154.335V36H153.591V34.384C153.548 34.3947 153.492 34.408 153.423 34.424C153.354 34.44 153.274 34.456 153.183 34.472C153.098 34.4827 153.007 34.4933 152.911 34.504C152.815 34.5147 152.722 34.52 152.631 34.52C152.402 34.52 152.191 34.496 151.999 34.448C151.812 34.4 151.65 34.32 151.511 34.208C151.378 34.096 151.271 33.9493 151.191 33.768C151.116 33.5813 151.079 33.3493 151.079 33.072V31.84H151.823ZM159.025 36H158.281V34.16H156.361V36H155.617V31.84H156.361V33.536H158.281V31.84H159.025V36ZM161.832 33.944C161.688 33.944 161.547 33.9493 161.408 33.96C161.275 33.9653 161.155 33.9813 161.048 34.008V35.44C161.08 35.4453 161.125 35.4507 161.184 35.456C161.248 35.4613 161.315 35.4667 161.384 35.472C161.459 35.472 161.533 35.4747 161.608 35.48C161.683 35.48 161.749 35.48 161.808 35.48C162.133 35.48 162.384 35.4187 162.56 35.296C162.736 35.1733 162.824 34.976 162.824 34.704C162.824 34.5707 162.795 34.456 162.736 34.36C162.683 34.264 162.608 34.1867 162.512 34.128C162.421 34.064 162.317 34.0187 162.2 33.992C162.083 33.96 161.96 33.944 161.832 33.944ZM160.304 31.84H161.048V33.432C161.139 33.4107 161.269 33.3893 161.44 33.368C161.616 33.3467 161.784 33.336 161.944 33.336C162.163 33.336 162.371 33.3627 162.568 33.416C162.765 33.464 162.939 33.544 163.088 33.656C163.237 33.7627 163.355 33.904 163.44 34.08C163.531 34.2507 163.576 34.456 163.576 34.696C163.576 34.9467 163.533 35.16 163.448 35.336C163.363 35.512 163.243 35.656 163.088 35.768C162.933 35.88 162.747 35.96 162.528 36.008C162.309 36.0613 162.069 36.088 161.808 36.088C161.557 36.088 161.304 36.072 161.048 36.04C160.792 36.0133 160.544 35.9707 160.304 35.912V31.84ZM165.088 36H164.344V31.84H165.088V36ZM169.863 31.84V36H169.143V32.832C168.983 33.0347 168.807 33.272 168.615 33.544C168.423 33.816 168.231 34.0987 168.039 34.392C167.847 34.68 167.663 34.9653 167.487 35.248C167.311 35.5307 167.159 35.7813 167.031 36H166.367V31.84H167.087V34.832C167.225 34.6027 167.383 34.352 167.559 34.08C167.735 33.8027 167.916 33.5307 168.103 33.264C168.295 32.992 168.484 32.7333 168.671 32.488C168.863 32.2373 169.041 32.0213 169.207 31.84H169.863ZM168.119 31.168C167.783 31.168 167.508 31.0827 167.295 30.912C167.087 30.7413 166.961 30.504 166.919 30.2L167.487 30.048C167.529 30.2187 167.601 30.3573 167.703 30.464C167.804 30.5707 167.943 30.624 168.119 30.624C168.295 30.624 168.433 30.5707 168.535 30.464C168.636 30.3573 168.708 30.2187 168.751 30.048L169.311 30.2C169.268 30.504 169.143 30.7413 168.935 30.912C168.727 31.0827 168.455 31.168 168.119 31.168Z" fill="white"/>
<path d="M39.9551 18.0166C39.9552 18.0919 39.9596 18.1725 39.9699 18.2616C39.999 18.5133 40.0768 18.8321 40.2811 19.1097C40.4854 19.3874 40.8161 19.6239 41.4093 19.8861C42.0026 20.1483 42.8586 20.4362 43.7727 20.6007C44.687 20.7653 45.6596 20.8064 46.4815 20.7909C47.3034 20.7755 47.9744 20.7035 48.626 20.5441C49.2776 20.3848 49.9099 20.138 50.3963 19.8604C50.8824 19.5828 51.2229 19.2742 51.4126 19.0583C51.6022 18.8424 51.641 18.7191 51.6557 18.5957C51.6702 18.4722 51.6605 18.3489 51.6507 18.2255" stroke="white" stroke-width="0.3501"/>
<path d="M39.9712 18.2614C39.887 19.0924 39.8026 19.9235 39.7266 20.7453C39.6502 21.5671 39.5822 22.3794 39.4266 22.9706C39.2709 23.5618 39.0279 23.9319 38.4055 24.3176C37.7829 24.7032 36.7811 25.1041 35.4195 25.5154C34.0578 25.9268 32.3363 26.3484 31.2373 26.6054C30.1382 26.8625 29.6617 26.955 29.3359 27.0064C29.01 27.0578 28.8351 27.0681 28.4557 27.1606C28.0763 27.2532 27.4928 27.4279 27.0503 27.6336C26.6077 27.8393 26.3063 28.0758 26.0097 28.3483C25.713 28.6208 25.4212 28.9293 25.2364 29.2736C25.0516 29.6182 24.9739 29.9985 24.935 30.4253C24.896 30.852 24.896 31.325 25.0029 31.6796C25.1099 32.0345 25.3239 32.2709 25.6886 32.5692C26.0534 32.8674 26.5688 33.2272 27.0551 33.5048C27.5414 33.7825 27.9984 33.9779 28.4023 34.1218C28.8059 34.2658 29.156 34.3584 29.866 34.3121C30.576 34.2658 31.6458 34.0807 33.1923 33.7773C34.7387 33.474 36.7617 33.0524 38.172 32.7954C39.5822 32.5383 40.3797 32.4457 41.114 32.4097C41.8484 32.3738 42.5194 32.3943 43.0641 32.4355C43.6088 32.4766 44.027 32.5383 44.4647 32.6617C44.9024 32.7851 45.3595 32.9702 46.9448 33.7671C47.2065 33.8986 47.499 34.0468 47.8132 34.2068M56.6324 38.4964C56.7453 38.5426 56.855 38.5872 56.9626 38.6305C57.867 38.9955 58.6258 39.2836 59.1995 39.4378C59.7734 39.592 60.1624 39.6125 60.6243 39.5817C61.0864 39.5509 61.6213 39.4686 62.1174 39.3194C62.6134 39.1704 63.0705 38.9545 63.3867 38.7437C63.7027 38.5329 63.8777 38.3273 63.9555 37.9828C64.0333 37.6384 64.0139 37.1551 63.868 36.6101C63.7221 36.0651 63.4499 35.4585 62.7544 34.6873C62.0591 33.9161 60.9405 32.9805 59.8608 32.1065C59.3765 31.7144 58.9002 31.3347 58.4578 30.9888M58.3924 24.7763C58.8916 24.474 59.3729 24.1225 59.7345 23.7572C60.1722 23.3151 60.4348 22.8523 60.5903 22.3587C60.746 21.8652 60.7946 21.3409 60.7315 20.9347C60.6681 20.5285 60.4931 20.2407 59.9387 19.8294C59.3844 19.418 58.4506 18.8833 57.8622 18.575C57.2738 18.2664 57.0307 18.1842 56.7486 18.1533C56.4665 18.1225 56.1455 18.1431 55.8636 18.2047C55.5815 18.2664 55.3383 18.3692 55.1048 18.5029C54.8715 18.6366 54.6478 18.8011 54.4679 18.9707C54.288 19.1404 54.1518 19.3152 54.0205 19.4592C53.8892 19.6031 53.7627 19.7163 53.5051 19.8602C53.2472 20.0042 52.8583 20.1789 52.5324 20.2972C52.2066 20.4154 51.9439 20.4771 51.6813 20.5388" stroke="white" stroke-width="0.3501"/>
<path d="M41.4389 25.6289C41.0206 25.958 40.6024 26.2869 39.7952 26.6107C38.9878 26.9347 37.7917 27.2535 36.362 27.6133C34.9321 27.9732 33.2692 28.3741 32.0533 28.693C30.8376 29.0117 30.0691 29.2483 29.5294 29.4848C28.9896 29.7213 28.6784 29.9577 28.4499 30.2457C28.2212 30.5336 28.0754 30.8729 27.9829 31.315C27.8905 31.7571 27.8517 32.3021 27.9051 32.7134C27.9586 33.1247 28.1046 33.4023 28.2855 33.639C28.4666 33.8757 28.6826 34.0714 28.9518 34.1768C29.2209 34.2822 29.543 34.2973 29.865 34.3124" stroke="white" stroke-width="0.3501"/>
<path d="M60.3477 39.5935C60.4545 38.5168 60.5612 37.44 60.3861 36.6549C60.2108 35.8697 59.7537 35.3762 58.3727 34.4302C58.1583 34.2835 57.9218 34.1256 57.6685 33.9599M49.5118 28.5522C49.3613 28.4368 49.219 28.3261 49.0844 28.2196C48.1993 27.5206 47.6353 27.0064 47.2266 26.5591C46.8181 26.1118 46.5652 25.7314 46.3951 25.0013C46.2249 24.2714 46.1373 23.1916 46.0984 22.4924C46.0596 21.7933 46.0693 21.4746 46.079 21.1558" stroke="white" stroke-width="0.3501"/>
<path d="M59.9378 19.8291C59.2569 19.973 58.5762 20.1169 57.8613 20.3535C57.1464 20.59 56.3975 20.9189 55.7605 21.2018C55.1234 21.4845 54.5983 21.7209 53.9709 21.9009C53.3435 22.0809 52.6141 22.2043 52.2105 22.158C51.8069 22.1117 51.729 21.8958 51.6755 21.5205C51.622 21.1452 51.5928 20.6106 51.5938 20.0964C51.5945 19.5823 51.6252 19.0888 51.6561 18.5952" stroke="white" stroke-width="0.3501"/>
<path d="M57.124 38.6953C57.1286 39.2546 57.1332 39.8138 57.1696 40.1242C57.2059 40.4348 57.2739 40.4964 57.4589 40.594C57.6436 40.6918 57.945 40.8255 58.2125 40.918C58.4801 41.0105 58.7134 41.062 58.9808 41.0979C59.2483 41.134 59.5499 41.1545 59.8952 41.1545C60.2404 41.1545 60.6294 41.134 61.0281 41.067C61.4269 41.0003 61.8353 40.8871 62.1758 40.7227C62.5162 40.5581 62.7886 40.3422 62.9539 40.188C63.1192 40.0338 63.1776 39.9412 63.1916 39.7352C63.2054 39.5292 63.1748 39.2099 63.1444 38.8905" stroke="white" stroke-width="0.3501"/>
<path d="M59.1534 41.1189C59.1478 40.9577 59.1421 40.7967 59.1515 40.7213C59.1608 40.6459 59.1852 40.6561 59.4332 40.6536C59.6811 40.6511 60.1529 40.6356 60.5248 40.6176C60.8969 40.5996 61.1692 40.5791 61.3053 40.5791C61.4415 40.5791 61.4415 40.5996 61.4415 40.6433C61.4415 40.687 61.4415 40.7538 61.4406 40.8143C61.4397 40.8747 61.4381 40.9287 61.4363 40.9827" stroke="white" stroke-width="0.3501"/>
<path d="M50.8824 36.4448C50.8608 36.6263 50.8416 36.803 50.8272 36.9709C50.7962 37.3299 50.7863 37.6486 50.8253 37.9313C50.8642 38.2141 50.9517 38.4609 51.0563 38.6537C51.1608 38.8465 51.2824 38.9853 51.4525 39.1138C51.6227 39.2424 51.8416 39.3606 52.2136 39.466C52.5856 39.5715 53.1108 39.6639 53.5729 39.6896C54.0349 39.7154 54.4335 39.6743 54.7983 39.5971C55.163 39.52 55.4937 39.4069 55.7295 39.2784C55.9653 39.1498 56.1065 39.0059 56.1842 38.8722C56.262 38.7385 56.2766 38.6151 56.2913 38.4917" stroke="white" stroke-width="0.3501"/>
<path d="M53.2212 37.6919C53.2255 37.8756 53.2277 38.051 53.2259 38.2092C53.2224 38.5225 53.2027 38.7693 53.1712 38.9646C53.1395 39.16 53.0957 39.3039 53.0466 39.4032C52.9972 39.5027 52.9424 39.5575 52.8877 39.6122" stroke="white" stroke-width="0.3501"/>
<path d="M53.3528 37.7231C53.3353 37.8369 53.3178 37.9511 53.3006 38.0662C53.2566 38.3615 53.2135 38.6631 53.2816 38.8944C53.3497 39.1259 53.5289 39.2869 53.6982 39.4069C53.8678 39.5269 54.0276 39.6057 54.2206 39.6279C54.4135 39.6504 54.6396 39.6163 54.8965 39.5486C55.1532 39.4809 55.441 39.3796 55.6605 39.2613C55.8801 39.1429 56.0317 39.0076 56.0936 38.8635C56.1556 38.7197 56.128 38.5671 56.1005 38.4147" stroke="white" stroke-width="0.3501"/>
<path d="M51.841 39.4786C51.8313 40.399 51.8216 41.3191 51.8265 41.8024C51.8313 42.2856 51.8509 42.332 51.9554 42.4065C52.0599 42.481 52.2496 42.5839 52.4781 42.6559C52.7067 42.7278 52.9742 42.7689 53.2976 42.7766C53.621 42.7844 54.0003 42.7586 54.2653 42.6995C54.5303 42.6404 54.6812 42.5479 54.8367 42.445C54.9923 42.3423 55.1528 42.2291 55.25 42.1315C55.3474 42.0337 55.3813 41.9515 55.4039 41.4999C55.4265 41.0485 55.4376 40.2275 55.4486 39.4067" stroke="white" stroke-width="0.3501"/>
<path d="M52.0083 42.5782C51.9792 42.5961 51.896 42.7185 51.8571 42.9107C51.8178 43.1031 51.8226 43.3653 51.8471 43.5144C51.8713 43.6635 51.9151 43.6995 52.0075 43.7534C52.0998 43.8074 52.241 43.8794 52.3917 43.9308C52.5423 43.9822 52.703 44.0131 52.8708 44.0336C53.0385 44.0542 53.2136 44.0645 53.4153 44.0542C53.6171 44.0438 53.8457 44.0131 54.0183 43.977C54.1909 43.9411 54.3077 43.9 54.4439 43.846C54.58 43.792 54.7357 43.7252 54.8475 43.6532C54.9593 43.5813 55.0274 43.5041 55.0956 43.4192C55.1636 43.3345 55.2316 43.2419 55.2657 43.0876C55.2997 42.9334 55.2997 42.7175 55.2949 42.6172C55.29 42.5169 55.2803 42.5325 55.222 42.6019C55.1636 42.6712 55.0567 42.7946 54.9253 42.9102C54.7941 43.0259 54.6384 43.134 54.4633 43.2136C54.2882 43.2934 54.0938 43.3447 53.8531 43.3704C53.6124 43.3961 53.3254 43.3961 53.0872 43.3781C52.8488 43.3601 52.6591 43.3242 52.5035 43.2804C52.348 43.2367 52.2263 43.1853 52.1413 43.139C52.0561 43.0928 52.0075 43.0517 51.9881 42.9848C51.9686 42.918 51.9784 42.8254 51.9955 42.736C52.0128 42.6465 52.0375 42.5602 52.0083 42.5782Z" stroke="white" stroke-width="0.3501"/>
<path d="M51.935 43.8135C51.9059 43.8315 51.8227 43.9539 51.7838 44.1461C51.7445 44.3384 51.7494 44.6006 51.7738 44.7497C51.798 44.8988 51.8418 44.9348 51.9342 44.9888C52.0266 45.0428 52.1676 45.1147 52.3184 45.1662C52.4691 45.2175 52.6297 45.2484 52.7975 45.2689C52.9652 45.2895 53.1403 45.2998 53.3421 45.2895C53.5439 45.2792 53.7724 45.2484 53.9451 45.2123C54.1177 45.1764 54.2345 45.1353 54.3706 45.0814C54.5067 45.0273 54.6624 44.9605 54.7742 44.8885C54.886 44.8166 54.9542 44.7395 55.0223 44.6546C55.0904 44.5698 55.1584 44.4772 55.1925 44.323C55.2264 44.1688 55.2264 43.9529 55.2216 43.8526C55.2167 43.7523 55.207 43.7678 55.1487 43.8372C55.0904 43.9065 54.9834 44.0299 54.8521 44.1456C54.7208 44.2613 54.5651 44.3693 54.3901 44.449C54.2149 44.5287 54.0205 44.5801 53.7798 44.6058C53.5391 44.6314 53.252 44.6314 53.0139 44.6134C52.7755 44.5955 52.5859 44.5596 52.4302 44.5157C52.2747 44.4721 52.153 44.4206 52.068 44.3743C51.9829 44.3282 51.9342 44.2871 51.9148 44.2201C51.8953 44.1534 51.9051 44.0608 51.9222 43.9713C51.9395 43.8819 51.9642 43.7955 51.935 43.8135Z" stroke="white" stroke-width="0.3501"/>
<path d="M51.8637 45.0494C51.8345 45.0673 51.7514 45.1897 51.7124 45.382C51.6733 45.5742 51.6781 45.8365 51.7025 45.9855C51.7267 46.1347 51.7706 46.1706 51.863 46.2247C51.9554 46.2786 52.0963 46.3505 52.2471 46.402C52.3978 46.4533 52.5584 46.4842 52.7262 46.5049C52.8939 46.5254 53.069 46.5357 53.2708 46.5254C53.4726 46.5151 53.7012 46.4842 53.8738 46.4482C54.0464 46.4122 54.1632 46.3712 54.2994 46.3172C54.4355 46.2632 54.5911 46.1964 54.703 46.1244C54.8147 46.0524 54.883 45.9753 54.951 45.8904C55.0191 45.8056 55.0871 45.713 55.1212 45.5589C55.1552 45.4046 55.1552 45.1887 55.1503 45.0885C55.1455 44.9881 55.1357 45.0036 55.0773 45.073C55.0191 45.1424 54.9121 45.2658 54.7808 45.3815C54.6494 45.4972 54.4938 45.6052 54.3188 45.6848C54.1437 45.7645 53.9492 45.8159 53.7085 45.8416C53.4677 45.8673 53.1808 45.8673 52.9426 45.8493C52.7042 45.8314 52.5146 45.7954 52.3589 45.7516C52.2034 45.7079 52.0817 45.6565 51.9967 45.6103C51.9116 45.5641 51.863 45.5229 51.8436 45.456C51.8241 45.3892 51.8338 45.2967 51.851 45.2073C51.8682 45.1177 51.893 45.0314 51.8637 45.0494Z" stroke="white" stroke-width="0.3501"/>
<path d="M51.7914 46.2847C51.7622 46.3027 51.6791 46.425 51.6401 46.6173C51.6011 46.8096 51.6058 47.0718 51.6301 47.2209C51.6545 47.3701 51.6983 47.406 51.7907 47.46C51.8831 47.514 52.0241 47.5858 52.1749 47.6373C52.3256 47.6887 52.4861 47.7195 52.6539 47.7402C52.8216 47.7607 52.9966 47.771 53.1985 47.7607C53.4003 47.7505 53.6289 47.7196 53.8015 47.6836C53.9742 47.6476 54.0909 47.6065 54.2271 47.5525C54.3632 47.4985 54.5188 47.4317 54.6307 47.3598C54.7424 47.2878 54.8106 47.2106 54.8787 47.1258C54.9468 47.0409 55.0149 46.9484 55.0489 46.7942C55.0829 46.6399 55.0829 46.4241 55.0781 46.3238C55.0732 46.2235 55.0635 46.2389 55.0051 46.3084C54.9468 46.3778 54.8398 46.5012 54.7084 46.6168C54.5772 46.7325 54.4215 46.8405 54.2465 46.9201C54.0714 46.9998 53.8769 47.0512 53.6362 47.0769C53.3954 47.1027 53.1085 47.1027 52.8703 47.0847C52.6319 47.0667 52.4424 47.0307 52.2867 46.987C52.1311 46.9432 52.0094 46.8919 51.9244 46.8456C51.8393 46.7994 51.7907 46.7582 51.7713 46.6914C51.7517 46.6245 51.7616 46.532 51.7787 46.4426C51.7959 46.3531 51.8207 46.2667 51.7914 46.2847Z" stroke="white" stroke-width="0.3501"/>
<path d="M51.7191 47.5201C51.69 47.538 51.6069 47.6604 51.5679 47.8526C51.5288 48.0449 51.5336 48.3072 51.5579 48.4562C51.5822 48.6054 51.626 48.6414 51.7184 48.6953C51.8108 48.7494 51.9519 48.8213 52.1026 48.8727C52.2533 48.9241 52.4138 48.955 52.5816 48.9755C52.7494 48.996 52.9244 49.0064 53.1262 48.996C53.328 48.9858 53.5566 48.955 53.7293 48.9189C53.902 48.8829 54.0186 48.8419 54.1548 48.7879C54.2909 48.7339 54.4466 48.667 54.5584 48.5952C54.6702 48.5231 54.7383 48.4459 54.8065 48.3611C54.8745 48.2763 54.9426 48.1838 54.9766 48.0295C55.0107 47.8753 55.0107 47.6594 55.0058 47.5591C55.0009 47.4589 54.9913 47.4743 54.9328 47.5437C54.8745 47.6132 54.7675 47.7366 54.6362 47.8522C54.5049 47.9679 54.3493 48.0758 54.1743 48.1555C53.9991 48.2352 53.8047 48.2866 53.564 48.3122C53.3233 48.3381 53.0362 48.3381 52.798 48.32C52.5597 48.302 52.3699 48.266 52.2145 48.2224C52.0588 48.1786 51.9372 48.1273 51.8521 48.081C51.7671 48.0347 51.7184 47.9936 51.699 47.9268C51.6795 47.8599 51.6893 47.7673 51.7064 47.6779C51.7237 47.5884 51.7485 47.5022 51.7191 47.5201Z" stroke="white" stroke-width="0.3501"/>
<path d="M29.6775 26.9465C29.654 26.8106 29.6307 26.6744 29.3079 26.4213C28.9849 26.1682 28.3625 25.7981 27.7984 25.5719C27.2343 25.3456 26.7285 25.2634 26.3151 25.2223C25.9019 25.1811 25.5809 25.1811 25.3474 25.2223C25.1139 25.2634 24.9681 25.3456 24.6666 25.6181C24.365 25.8907 23.908 26.3533 23.5821 26.7853C23.2564 27.2171 23.0617 27.618 22.9208 28.0036C22.7797 28.3893 22.6922 28.7594 22.6533 29.1449C22.6144 29.5306 22.6241 29.9316 22.6679 30.3121C22.7117 30.6925 22.7896 31.0523 22.8674 31.3197C22.9451 31.5871 23.0228 31.7619 23.2953 31.9829C23.5676 32.204 24.0344 32.4712 24.3651 32.6512C24.6958 32.8312 24.8903 32.9237 25.1188 33.0111C25.3474 33.0985 25.61 33.1808 25.8974 33.238C26.1846 33.2953 26.4967 33.3275 26.8086 33.3598" stroke="white" stroke-width="0.3501"/>
<path d="M29.5462 26.6447C28.7788 26.4343 28.0114 26.2241 27.5547 26.1395C27.098 26.0549 26.9521 26.096 26.7964 26.204C26.641 26.312 26.4756 26.4867 26.0768 26.9443C25.6781 27.4018 25.0458 28.1423 24.7152 28.5843C24.3844 29.0265 24.3553 29.1705 24.3407 29.2424C24.3262 29.3145 24.3262 29.3145 24.3946 29.9028C24.4629 30.491 24.5995 31.6678 24.6679 32.2561C24.7363 32.8445 24.7363 32.8445 24.9298 32.91C25.1233 32.9756 25.5104 33.1067 25.7038 33.1723C25.8974 33.2378 25.8974 33.2378 25.9223 33.2423C25.9473 33.247 25.9973 33.2561 26.0472 33.2653" stroke="white" stroke-width="0.3501"/>
<path d="M25.3477 25.2222C25.9022 25.5175 26.4565 25.8127 27.011 26.1079" stroke="white" stroke-width="0.3501"/>
<path d="M22.8086 28.3486C23.3196 28.6466 23.8307 28.9447 24.3416 29.2427" stroke="white" stroke-width="0.3501"/>
<path d="M23.0244 31.6929C23.5954 32.0768 24.1663 32.4607 24.7372 32.8446" stroke="white" stroke-width="0.3501"/>
<path d="M30.146 26.8516C30.1417 26.0787 30.1374 25.306 30.0818 24.6471C30.0263 23.9883 29.9193 23.4433 29.7541 22.9188C29.5886 22.3944 29.3649 21.8906 29.0295 21.4279C28.6939 20.9652 28.2464 20.5437 27.8525 20.2095C27.4586 19.8754 27.1182 19.6285 26.6466 19.4229C26.1748 19.2172 25.5718 19.0528 25.0466 18.9705C24.5213 18.8882 24.074 18.8882 23.6363 18.9294C23.1986 18.9705 22.7707 19.0528 22.406 19.1504C22.0411 19.2481 21.7397 19.3612 21.375 19.5822C21.0102 19.8033 20.5824 20.1324 20.1204 20.5179C19.6584 20.9036 19.1624 21.3456 18.7248 21.8392C18.287 22.3328 17.9077 22.8777 17.5575 23.4793C17.2074 24.0808 16.8865 24.7388 16.6434 25.4175C16.4002 26.0961 16.2348 26.7953 16.1278 27.5151C16.0209 28.2349 15.9722 28.9752 16.0161 29.659C16.0598 30.3427 16.1959 30.9699 16.5266 31.6434C16.8572 32.3169 17.3826 33.0367 17.9758 33.5971C18.569 34.1575 19.2304 34.5585 19.78 34.8052C20.3294 35.052 20.7671 35.1447 21.1756 35.2012C21.5842 35.2577 21.9634 35.2783 22.3767 35.2423C22.7903 35.2063 23.2376 35.1137 23.6996 34.9698C24.1616 34.8258 24.6381 34.6305 25.0515 34.43C25.4648 34.2295 25.8148 34.0238 26.0541 33.84C26.2933 33.6562 26.4215 33.4942 26.5499 33.3322" stroke="white" stroke-width="0.3501"/>
<path d="M18.8321 34.278C18.4484 33.6621 18.0649 33.0462 17.7662 32.2806C17.4674 31.5151 17.2533 30.5999 17.2144 29.5664C17.1755 28.5332 17.3117 27.3815 17.6716 26.2351C18.0315 25.0885 18.615 23.9473 19.1451 23.1555C19.6753 22.3637 20.1518 21.9217 20.7061 21.464C21.2605 21.0065 21.8927 20.5336 22.4811 20.2148C23.0695 19.8959 23.6142 19.7315 24.1783 19.6543C24.7424 19.5772 25.326 19.5875 25.8457 19.6209C26.3656 19.6545 26.8216 19.711 27.2828 19.9439C27.7438 20.177 28.2098 20.5863 28.6758 20.9955" stroke="white" stroke-width="0.3501"/>
<path d="M51.6631 18.41C52.2016 17.7672 52.7401 17.1243 53.1504 16.7463C53.5607 16.3684 53.8427 16.2552 54.3387 16.3066C54.8348 16.3581 55.5448 16.5739 56.0312 16.7436C56.5174 16.9133 56.7799 17.0366 57.0425 17.2012C57.3051 17.3657 57.5677 17.5713 57.7282 17.741C57.8887 17.9107 57.9471 18.0444 57.9949 18.2001C58.0429 18.3559 58.0804 18.5336 58.1178 18.7114" stroke="white" stroke-width="0.3501"/>
<path d="M51.6807 20.5389C52.1964 20.3602 52.712 20.1817 53.1254 20.0234C53.5388 19.8652 53.85 19.7274 54.081 19.5839C54.3121 19.4405 54.4628 19.2914 54.5648 19.1461C54.6668 19.0009 54.72 18.8594 54.8195 18.7431C54.9188 18.6269 55.0645 18.536 55.2461 18.4505C55.4278 18.3649 55.6454 18.2848 55.8277 18.2348C56.0098 18.1847 56.1568 18.1646 56.3042 18.1561C56.4517 18.1474 56.5999 18.1505 56.748 18.1534" stroke="white" stroke-width="0.3501"/>
<path d="M51.6367 18.9099C52.1231 19.188 52.6095 19.4658 52.8527 19.6048C53.0958 19.7439 53.0958 19.7439 53.1056 19.7053C53.1152 19.6666 53.1347 19.5896 53.468 19.24C53.8009 18.8903 54.4477 18.2683 54.8805 17.8698C55.3135 17.4714 55.5323 17.2967 55.6806 17.2041C55.8288 17.1115 55.9066 17.1013 56.0186 17.1038C56.1304 17.1064 56.2764 17.1218 56.5245 17.1917C56.7727 17.2615 57.1233 17.3857 57.4739 17.5101" stroke="white" stroke-width="0.3501"/>
<path d="M54.0322 16.2983C54.6356 16.5737 55.2388 16.849 55.8423 17.1243" stroke="white" stroke-width="0.3501"/>
<path d="M53.085 19.7515C53.0871 19.8564 53.0892 19.9615 53.0913 20.0666" stroke="white" stroke-width="0.3501"/>
<path d="M57.4 17.4508C57.4037 16.8706 57.4075 16.2904 57.3777 15.8023C57.3481 15.3141 57.2849 14.918 57.2217 14.522" stroke="white" stroke-width="0.3501"/>
<path d="M56.8265 23.9644C56.705 24.0416 56.5834 24.1187 56.3888 24.1958C56.1943 24.2729 55.9267 24.3501 55.6083 24.3989C55.2899 24.4477 54.9203 24.4682 54.5336 24.453C54.147 24.4375 53.7433 24.386 53.3957 24.3192C53.048 24.2524 52.7562 24.1701 52.5349 24.0725C52.3137 23.9746 52.1629 23.8616 52.0632 23.7459C51.9635 23.6303 51.9149 23.512 51.8978 23.4092C51.8809 23.3064 51.8955 23.219 51.9611 23.1187C52.0267 23.0184 52.1435 22.9054 52.2893 22.8128C52.4352 22.7203 52.6103 22.6482 52.8169 22.5815C53.0237 22.5146 53.262 22.453 53.4758 22.4092C53.6899 22.3655 53.8795 22.3399 54.1106 22.3322C54.3415 22.3244 54.6139 22.3346 54.8692 22.3552C55.1245 22.3759 55.3627 22.4067 55.5913 22.4581C55.8198 22.5095 56.0388 22.5815 56.2332 22.6715C56.4277 22.7614 56.5979 22.8694 56.7268 22.9824C56.8556 23.0955 56.9432 23.2139 57.0186 23.309C57.0941 23.404 57.1572 23.476 57.3274 23.566C57.4976 23.6559 57.7749 23.7639 57.9693 23.8488C58.1639 23.9336 58.2756 23.9953 58.3802 24.0828C58.4849 24.1701 58.582 24.2832 58.6721 24.4477C58.7621 24.6122 58.8447 24.8281 58.8861 25.0775C58.9273 25.3267 58.9273 25.6097 58.7718 26.0466C58.616 26.4836 58.3048 27.0749 58.0106 27.5864C57.7165 28.098 57.4394 28.5298 57.1961 28.8716C56.9529 29.2135 56.7439 29.4656 56.615 29.6198C56.486 29.774 56.4375 29.8305 56.4181 29.9026C56.3986 29.9745 56.4084 30.0619 56.4229 30.1211C56.4375 30.1802 56.457 30.211 56.4495 30.2676C56.4424 30.3241 56.4084 30.4064 56.3792 30.4861C56.35 30.5657 56.3256 30.6429 56.294 30.7174C56.2624 30.7919 56.2235 30.8639 56.1699 30.9282C56.1165 30.9925 56.0484 31.049 55.8636 31.1081C55.6789 31.1672 55.3774 31.229 55.1147 31.2753C54.8521 31.3215 54.6285 31.3524 54.3973 31.3678C54.1664 31.3832 53.9283 31.3832 53.7141 31.3524C53.5002 31.3215 53.3106 31.2598 53.1209 31.1725C52.9312 31.085 52.7415 30.9719 52.5689 30.8357C52.3962 30.6994 52.2408 30.54 52.1458 30.3806C52.051 30.2213 52.017 30.0618 51.9951 29.9256C51.9732 29.7894 51.9635 29.6763 51.9198 29.5632C51.876 29.4501 51.7982 29.337 51.7471 29.2418C51.6961 29.1467 51.6717 29.0696 51.6936 28.0774C51.7155 27.0851 51.7835 25.1778 51.8175 24.2241C51.8517 23.2704 51.8517 23.2704 51.8517 23.2704" stroke="white" stroke-width="0.3501"/>
<path d="M51.7471 29.2417C51.9132 29.4363 52.0794 29.6307 52.3569 29.7897C52.6346 29.9486 53.0236 30.072 53.4442 30.1466C53.8648 30.2212 54.3173 30.2468 54.7111 30.2391C55.105 30.2315 55.4406 30.1903 55.7152 30.1286C55.99 30.0669 56.204 29.9846 56.418 29.9024" stroke="white" stroke-width="0.3501"/>
<path d="M52.5664 30.6574C52.8193 30.7447 53.0721 30.8322 53.3954 30.8734C53.719 30.9145 54.1128 30.9093 54.4921 30.8707C54.8714 30.8322 55.2361 30.7602 55.5481 30.6904C55.8602 30.6205 56.1196 30.5529 56.2493 30.5191C56.379 30.4852 56.379 30.4852 56.3857 30.4673C56.3924 30.4493 56.4055 30.4133 56.4189 30.3774" stroke="white" stroke-width="0.3501"/>
<path d="M56.8262 23.9644C57.0547 24.0363 57.2832 24.1083 57.5119 24.2085C57.7404 24.3088 57.9689 24.4374 58.1489 24.6225C58.3288 24.8075 58.4602 25.0491 58.5331 25.2856C58.606 25.5221 58.6206 25.7535 58.5922 26.0104C58.5636 26.2674 58.492 26.5499 58.3879 26.8169C58.2837 27.0837 58.1471 27.3351 57.942 27.6232C57.7371 27.9112 57.4641 28.2359 57.2765 28.4317C57.0889 28.6274 56.9867 28.6943 56.8845 28.7611" stroke="white" stroke-width="0.3501"/>
<path d="M57.1046 24.3804C57.0462 25.5886 56.9879 26.7967 56.9563 27.4678C56.9246 28.1386 56.9199 28.2723 56.9125 28.3983C56.9052 28.5243 56.8954 28.6426 56.8857 28.7607" stroke="white" stroke-width="0.3501"/>
<path d="M53.4955 23.3881C53.4615 23.311 53.4372 23.2134 53.4688 23.1285C53.5004 23.0437 53.588 22.9717 53.7143 22.9126C53.8408 22.8535 54.0062 22.8072 54.1788 22.7893C54.3515 22.7712 54.5314 22.7814 54.7065 22.8098C54.8815 22.838 55.0518 22.8843 55.1806 22.9434C55.3095 23.0026 55.397 23.0745 55.4408 23.1542C55.4845 23.2339 55.4845 23.3213 55.4554 23.401C55.4262 23.4807 55.3679 23.5527 55.2512 23.6144C55.1344 23.6761 54.9594 23.7275 54.7428 23.7506C54.5265 23.7737 54.2688 23.7686 54.0742 23.7352C53.8797 23.7017 53.7484 23.64 53.6609 23.5809C53.5734 23.5218 53.5296 23.4652 53.4955 23.3881Z" stroke="white" stroke-width="0.3501"/>
<path d="M53.457 23.2607C53.5912 23.4005 53.7254 23.5403 53.9272 23.5933C54.1287 23.6463 54.3979 23.6123 54.6103 23.5826C54.8227 23.5528 54.9784 23.5271 55.1096 23.4975C55.2409 23.4679 55.348 23.4346 55.4549 23.4011" stroke="white" stroke-width="0.3501"/>
<path d="M62.8925 12.2634C62.5132 11.8156 62.134 11.3677 61.6145 10.9406C61.0951 10.5135 60.4354 10.1073 59.6518 9.72258C58.8682 9.33784 57.9608 8.97452 56.6816 8.68434C55.4023 8.39407 53.7513 8.17684 52.3018 8.07126C50.8523 7.96567 49.6044 7.97173 48.4252 8.12785C47.2463 8.28388 46.1362 8.58997 45.1628 8.97932C44.1895 9.36857 43.353 9.84118 42.636 10.4223C41.919 11.0032 41.3217 11.6928 40.7979 12.3939C40.2739 13.0947 39.8235 13.8072 39.556 14.4482C39.2886 15.0892 39.2041 15.6589 39.2208 16.1455C39.2376 16.632 39.3556 17.0357 39.5957 17.4698C39.8359 17.9039 40.1982 18.3685 40.6775 18.7682C41.1569 19.1677 41.7532 19.5021 42.4835 19.7634C43.2135 20.0246 44.0775 20.2127 44.9705 20.2719C45.8632 20.3307 46.7849 20.2606 47.5775 20.125C48.37 19.9894 49.0334 19.7882 49.6077 19.5491C50.182 19.3099 50.6673 19.0328 51.0814 18.6749C51.4955 18.317 51.8383 17.8785 52.0474 17.513C52.2565 17.1475 52.3318 16.8551 52.4013 16.2415C52.4709 15.628 52.5346 14.693 52.5982 13.7581" stroke="white" stroke-width="0.3501"/>
<path d="M44.5322 16.4287C45.0929 15.8592 45.6534 15.2898 46.5304 14.8363C47.4073 14.3826 48.6005 14.0448 49.8127 13.8812C51.0248 13.7177 52.2558 13.7284 53.4912 13.8521C54.7267 13.9759 55.9667 14.2126 56.929 14.4043C57.8913 14.5961 58.5761 14.7428 59.2063 14.8008C59.8364 14.8588 60.4121 14.828 60.9662 14.7009C61.5204 14.5738 62.0533 14.3505 62.3901 14.0939C62.727 13.8373 62.8678 13.5475 62.919 13.237C62.9703 12.9264 62.9322 12.5951 62.9129 12.4296C62.8938 12.2639 62.8938 12.2639 62.7554 12.4758C62.617 12.6877 62.3404 13.1114 61.8959 13.3988C61.4513 13.6861 60.8387 13.837 59.7229 13.8219C58.607 13.8067 56.9876 13.6254 55.6391 13.4455C54.2904 13.2655 53.2127 13.0869 52.2142 12.9979C51.2157 12.909 50.2963 12.9097 49.3316 13.039C48.3667 13.1683 47.3568 13.426 46.5868 13.6233C45.8169 13.8205 45.2869 13.9571 44.757 14.0938" stroke="white" stroke-width="0.3501"/>
<path d="M51.1305 14.9703C51.3016 15.0114 51.4695 15.1477 51.5837 15.2995C51.6976 15.4513 51.7577 15.6183 51.7762 15.8014C51.7948 15.9843 51.7718 16.183 51.7078 16.3845C51.6437 16.5861 51.5383 16.7904 51.3999 17.0068C51.2614 17.2229 51.0897 17.4509 50.9077 17.6178C50.7258 17.7846 50.5334 17.8903 50.3649 17.8971C50.1965 17.9039 50.0516 17.8118 49.9328 17.6816C49.814 17.5512 49.721 17.383 49.6957 17.1565C49.6702 16.9298 49.7126 16.645 49.8125 16.3536C49.9124 16.0623 50.0701 15.7643 50.2128 15.5439C50.3554 15.3236 50.4833 15.1807 50.6344 15.0822C50.7854 14.9836 50.9595 14.9293 51.1305 14.9703Z" stroke="white" stroke-width="0.3501"/>
<path d="M46.2888 16.1284C46.267 16.7872 46.2454 17.446 46.2324 18.0877C46.2193 18.7295 46.2152 19.3541 46.2109 19.9789" stroke="white" stroke-width="0.3501"/>
<path d="M49.5117 28.5522C49.835 28.9369 50.1585 29.3216 50.4272 29.7042C50.6958 30.0868 50.9097 30.4673 51.2356 30.8477C51.5614 31.2281 51.9991 31.6085 52.5826 31.9582C53.1661 32.3078 53.8956 32.6264 54.4938 32.8579C55.092 33.0893 55.5588 33.2332 56.0661 33.4022C56.5733 33.5714 57.1209 33.7656 57.3947 33.8628C57.6685 33.9599 57.6685 33.9599 57.6685 33.9599" stroke="white" stroke-width="0.3501"/>
<path d="M47.8125 34.207C48.8379 34.9352 49.8631 35.6634 50.5706 36.2038C51.278 36.7442 51.6675 37.0966 52.1104 37.324C52.553 37.5513 53.0492 37.6535 53.8117 37.828C54.5742 38.0026 55.6029 38.2497 56.6317 38.4966" stroke="white" stroke-width="0.3501"/>
<path d="M58.4568 30.9886C58.2615 30.6279 58.0661 30.2671 57.7898 29.9258C57.5278 29.6025 57.1932 29.2965 57.0068 29.1284" stroke="white" stroke-width="0.3501"/>
<path d="M55.1838 42.2979C55.1769 42.4692 55.1701 42.6406 55.1631 42.8119M55.1344 43.5275C55.1278 43.6929 55.1212 43.8584 55.1145 44.0238M55.0858 44.7381C55.0792 44.9037 55.0726 45.0694 55.0659 45.235M55.0373 45.947C55.0307 46.1132 55.0239 46.2795 55.0173 46.4458M54.9888 47.1546C54.9821 47.3218 54.9753 47.4888 54.9688 47.656" stroke="white" stroke-width="0.3501"/>
<defs>
<linearGradient id="paint0_linear_962_1011" x1="115" y1="0.000488281" x2="115" y2="58.0003" gradientUnits="userSpaceOnUse">
<stop stop-color="#101F52"/>
<stop offset="0.9999" stop-color="#101F52" stop-opacity="0.8125"/>
<stop offset="1" stop-color="#101F52" stop-opacity="0"/>
</linearGradient>
</defs>
</svg>
