<svg width="204" height="58" viewBox="0 0 204 58" fill="none" xmlns="http://www.w3.org/2000/svg">
<rect y="0.000488281" width="204" height="57.9998" rx="5" fill="url(#paint0_linear_973_2042)"/>
<path d="M95.9712 48.6508C82.2707 49.9357 66.6623 53.2274 63.7963 53.8466C63.4888 53.913 63.204 54.0495 62.9577 54.2453C61.4218 55.4663 62.2852 57.9397 64.2472 57.9397H198.932C201.693 57.9397 203.932 55.7012 203.932 52.9397V46.7444C203.932 43.6216 201.101 41.263 198.029 41.8265L192.215 42.8932L171.292 45.0043L150.639 47.0883C150.46 47.1064 150.303 47.1149 150.123 47.1138C146.964 47.095 114.174 46.9435 95.9712 48.6508Z" fill="#0F2458" fill-opacity="0.5"/>
<path d="M120.802 49.99C110.348 51.0799 98.4501 53.8565 96.0896 54.422C95.8089 54.4893 95.5573 54.6233 95.341 54.8144C94.1079 55.904 94.8786 57.94 96.5241 57.94H198.932C201.693 57.94 203.932 55.7014 203.932 52.94V49.3451C203.932 46.1822 201.032 43.814 197.933 44.4459L194.91 45.0623L178.8 46.8691L162.987 48.6425C162.789 48.6648 162.592 48.6752 162.392 48.6739C159.405 48.6553 134.635 48.5481 120.802 49.99Z" fill="#0D2862" fill-opacity="0.5"/>
<path d="M106.942 12.4689C120.109 10.7945 135.057 6.58121 138.514 5.57623C139.002 5.43455 139.436 5.16236 139.782 4.79025C141.474 2.96561 140.18 -1.80105e-05 137.691 -1.80105e-05L5.06077 -1.80105e-05C2.29935 -1.80105e-05 0.0607738 2.23856 0.0607738 4.99998L0.0607738 16.6869C0.0607738 19.9373 3.11343 22.3237 6.26774 21.539L11.6602 20.1976L32.3736 17.3638L52.7248 14.5795C52.9659 14.5465 53.2002 14.5311 53.4435 14.5329C57.1648 14.5615 89.1168 14.7357 106.942 12.4689Z" fill="#0F2458" fill-opacity="0.7"/>
<path d="M93.9862 9.37271C105.752 8.09295 119.134 4.84039 121.876 4.1557C122.215 4.07109 122.517 3.90408 122.773 3.66734C124.188 2.3628 123.265 7.23182e-05 121.341 7.23182e-05L5.06069 7.23182e-05C2.29926 7.23182e-05 0.060692 2.23865 0.060692 5.00007V11.1753C0.060692 14.3555 2.99062 16.7277 6.10125 16.0658L10.2542 15.1822L28.4568 13.0521L46.3486 10.9583C46.5556 10.9341 46.7541 10.9227 46.9626 10.9241C50.184 10.9454 78.3056 11.0784 93.9862 9.37271Z" fill="#0D2862" fill-opacity="0.7"/>
<path d="M71.072 27.12C70.6827 27.12 70.328 27.056 70.008 26.928C69.688 26.8 69.4133 26.6133 69.184 26.368C68.9547 26.1227 68.776 25.8213 68.648 25.464C68.5253 25.1013 68.464 24.688 68.464 24.224C68.464 23.76 68.5333 23.3493 68.672 22.992C68.816 22.6293 69.008 22.3253 69.248 22.08C69.488 21.8347 69.768 21.648 70.088 21.52C70.408 21.392 70.7493 21.328 71.112 21.328C71.3413 21.328 71.5467 21.344 71.728 21.376C71.9147 21.408 72.0747 21.4453 72.208 21.488C72.3467 21.5307 72.4587 21.5733 72.544 21.616C72.6293 21.6587 72.688 21.6907 72.72 21.712L72.496 22.352C72.448 22.32 72.3787 22.2853 72.288 22.248C72.1973 22.2107 72.0933 22.1733 71.976 22.136C71.864 22.0987 71.7387 22.0693 71.6 22.048C71.4667 22.0213 71.3307 22.008 71.192 22.008C70.8987 22.008 70.6347 22.0587 70.4 22.16C70.1653 22.2613 69.9653 22.408 69.8 22.6C69.6347 22.792 69.5067 23.0267 69.416 23.304C69.3307 23.576 69.288 23.8827 69.288 24.224C69.288 24.5547 69.3253 24.856 69.4 25.128C69.48 25.4 69.5973 25.6347 69.752 25.832C69.9067 26.024 70.0987 26.1733 70.328 26.28C70.5627 26.3867 70.8347 26.44 71.144 26.44C71.5013 26.44 71.7973 26.4027 72.032 26.328C72.2667 26.2533 72.4427 26.1867 72.56 26.128L72.76 26.768C72.7227 26.7947 72.656 26.8293 72.56 26.872C72.464 26.9093 72.344 26.9467 72.2 26.984C72.056 27.0213 71.888 27.0533 71.696 27.08C71.504 27.1067 71.296 27.12 71.072 27.12ZM74.3929 23.936C74.3396 24.464 74.2996 24.992 74.2729 25.52C74.2463 26.0427 74.2249 26.536 74.2089 27H73.4969C73.5076 26.6747 73.5236 26.336 73.5449 25.984C73.5663 25.6267 73.5903 25.2693 73.6169 24.912C73.6436 24.5493 73.6729 24.1947 73.7049 23.848C73.7369 23.496 73.7716 23.16 73.8089 22.84H74.4889C74.6596 23.1173 74.8596 23.4987 75.0889 23.984C75.3183 24.464 75.5823 25.0187 75.8809 25.648C76.1796 25.0187 76.4436 24.464 76.6729 23.984C76.9023 23.4987 77.1023 23.1173 77.2729 22.84H77.9609C77.9983 23.16 78.0329 23.496 78.0649 23.848C78.0969 24.1947 78.1263 24.5493 78.1529 24.912C78.1796 25.2693 78.2036 25.6267 78.2249 25.984C78.2463 26.336 78.2623 26.6747 78.2729 27H77.5369C77.5209 26.536 77.4996 26.0427 77.4729 25.52C77.4463 24.992 77.4063 24.464 77.3529 23.936C77.2676 24.1013 77.1689 24.3013 77.0569 24.536C76.9449 24.7653 76.8329 25 76.7209 25.24C76.6143 25.48 76.5129 25.7093 76.4169 25.928C76.3209 26.1467 76.2463 26.32 76.1929 26.448H75.5689C75.5103 26.3147 75.4303 26.1387 75.3289 25.92C75.2329 25.7013 75.1289 25.472 75.0169 25.232C74.9103 24.9867 74.8009 24.7493 74.6889 24.52C74.5769 24.2853 74.4783 24.0907 74.3929 23.936ZM79.2205 24.928C79.2205 24.56 79.2738 24.24 79.3805 23.968C79.4872 23.6907 79.6285 23.4613 79.8045 23.28C79.9805 23.0987 80.1832 22.9627 80.4125 22.872C80.6418 22.7813 80.8765 22.736 81.1165 22.736C81.6765 22.736 82.1058 22.912 82.4045 23.264C82.7032 23.6107 82.8525 24.1413 82.8525 24.856C82.8525 24.888 82.8525 24.9307 82.8525 24.984C82.8525 25.032 82.8498 25.0773 82.8445 25.12H79.9965C80.0285 25.552 80.1538 25.88 80.3725 26.104C80.5912 26.328 80.9325 26.44 81.3965 26.44C81.6578 26.44 81.8765 26.4187 82.0525 26.376C82.2338 26.328 82.3698 26.2827 82.4605 26.24L82.5645 26.864C82.4738 26.912 82.3138 26.9627 82.0845 27.016C81.8605 27.0693 81.6045 27.096 81.3165 27.096C80.9538 27.096 80.6392 27.0427 80.3725 26.936C80.1112 26.824 79.8952 26.672 79.7245 26.48C79.5538 26.288 79.4258 26.0613 79.3405 25.8C79.2605 25.5333 79.2205 25.2427 79.2205 24.928ZM82.0765 24.52C82.0818 24.184 81.9965 23.9093 81.8205 23.696C81.6498 23.4773 81.4125 23.368 81.1085 23.368C80.9378 23.368 80.7858 23.4027 80.6525 23.472C80.5245 23.536 80.4152 23.6213 80.3245 23.728C80.2338 23.8347 80.1618 23.9573 80.1085 24.096C80.0605 24.2347 80.0285 24.376 80.0125 24.52H82.0765ZM85.7293 27.096C85.3933 27.096 85.0973 27.0427 84.8413 26.936C84.5906 26.8293 84.3773 26.68 84.2013 26.488C84.0306 26.296 83.9026 26.0693 83.8173 25.808C83.7319 25.5413 83.6893 25.248 83.6893 24.928C83.6893 24.608 83.7346 24.3147 83.8253 24.048C83.9213 23.7813 84.0546 23.552 84.2253 23.36C84.3959 23.1627 84.6039 23.0107 84.8493 22.904C85.0999 22.792 85.3773 22.736 85.6813 22.736C85.8679 22.736 86.0546 22.752 86.2413 22.784C86.4279 22.816 86.6066 22.8667 86.7773 22.936L86.6093 23.568C86.4973 23.5147 86.3666 23.472 86.2173 23.44C86.0733 23.408 85.9186 23.392 85.7533 23.392C85.3373 23.392 85.0173 23.5227 84.7933 23.784C84.5746 24.0453 84.4653 24.4267 84.4653 24.928C84.4653 25.152 84.4893 25.3573 84.5373 25.544C84.5906 25.7307 84.6706 25.8907 84.7773 26.024C84.8893 26.1573 85.0306 26.2613 85.2013 26.336C85.3719 26.4053 85.5799 26.44 85.8253 26.44C86.0226 26.44 86.2013 26.4213 86.3613 26.384C86.5213 26.3467 86.6466 26.3067 86.7373 26.264L86.8413 26.888C86.7986 26.9147 86.7373 26.9413 86.6573 26.968C86.5773 26.9893 86.4866 27.008 86.3853 27.024C86.2839 27.0453 86.1746 27.0613 86.0573 27.072C85.9453 27.088 85.8359 27.096 85.7293 27.096ZM91.136 22.84V27H90.416V23.832C90.256 24.0347 90.08 24.272 89.888 24.544C89.696 24.816 89.504 25.0987 89.312 25.392C89.12 25.68 88.936 25.9653 88.76 26.248C88.584 26.5307 88.432 26.7813 88.304 27H87.64V22.84H88.36V25.832C88.4987 25.6027 88.656 25.352 88.832 25.08C89.008 24.8027 89.1893 24.5307 89.376 24.264C89.568 23.992 89.7573 23.7333 89.944 23.488C90.136 23.2373 90.3147 23.0213 90.48 22.84H91.136ZM95.3494 22.84V23.464H93.9974V27H93.2534V23.464H91.9014V22.84H95.3494ZM95.8846 24.928C95.8846 24.56 95.9379 24.24 96.0446 23.968C96.1512 23.6907 96.2926 23.4613 96.4686 23.28C96.6446 23.0987 96.8472 22.9627 97.0766 22.872C97.3059 22.7813 97.5406 22.736 97.7806 22.736C98.3406 22.736 98.7699 22.912 99.0686 23.264C99.3672 23.6107 99.5166 24.1413 99.5166 24.856C99.5166 24.888 99.5166 24.9307 99.5166 24.984C99.5166 25.032 99.5139 25.0773 99.5086 25.12H96.6606C96.6926 25.552 96.8179 25.88 97.0366 26.104C97.2552 26.328 97.5966 26.44 98.0606 26.44C98.3219 26.44 98.5406 26.4187 98.7166 26.376C98.8979 26.328 99.0339 26.2827 99.1246 26.24L99.2286 26.864C99.1379 26.912 98.9779 26.9627 98.7486 27.016C98.5246 27.0693 98.2686 27.096 97.9806 27.096C97.6179 27.096 97.3032 27.0427 97.0366 26.936C96.7752 26.824 96.5592 26.672 96.3886 26.48C96.2179 26.288 96.0899 26.0613 96.0046 25.8C95.9246 25.5333 95.8846 25.2427 95.8846 24.928ZM98.7406 24.52C98.7459 24.184 98.6606 23.9093 98.4846 23.696C98.3139 23.4773 98.0766 23.368 97.7726 23.368C97.6019 23.368 97.4499 23.4027 97.3166 23.472C97.1886 23.536 97.0792 23.6213 96.9886 23.728C96.8979 23.8347 96.8259 23.9573 96.7726 24.096C96.7246 24.2347 96.6926 24.376 96.6766 24.52H98.7406ZM102.033 23.464C102.033 23.64 102.028 23.8293 102.017 24.032C102.012 24.2293 101.999 24.4293 101.977 24.632C101.956 24.8293 101.927 25.0267 101.889 25.224C101.852 25.416 101.804 25.5973 101.745 25.768C101.687 25.9387 101.612 26.0987 101.521 26.248C101.436 26.3973 101.329 26.5307 101.201 26.648C101.073 26.76 100.924 26.856 100.753 26.936C100.583 27.0107 100.383 27.0587 100.153 27.08L100.049 26.456C100.311 26.4027 100.516 26.304 100.665 26.16C100.82 26.016 100.943 25.84 101.033 25.632C101.113 25.4507 101.172 25.2453 101.209 25.016C101.247 24.7867 101.273 24.5493 101.289 24.304C101.305 24.0533 101.313 23.8027 101.313 23.552C101.319 23.3013 101.321 23.064 101.321 22.84H104.089V27H103.345V23.464H102.033ZM106.943 26.48C107.257 26.48 107.505 26.4187 107.687 26.296C107.868 26.1733 107.959 25.976 107.959 25.704C107.959 25.5707 107.932 25.456 107.879 25.36C107.825 25.264 107.751 25.1867 107.655 25.128C107.564 25.064 107.457 25.0187 107.335 24.992C107.212 24.96 107.081 24.944 106.943 24.944C106.799 24.944 106.649 24.9493 106.495 24.96C106.345 24.9653 106.217 24.9813 106.111 25.008V26.44C106.143 26.4453 106.191 26.4507 106.255 26.456C106.319 26.4613 106.388 26.4667 106.463 26.472C106.543 26.472 106.623 26.4747 106.703 26.48C106.788 26.48 106.868 26.48 106.943 26.48ZM105.367 26.912V22.84H106.111V24.432C106.153 24.4213 106.209 24.4107 106.279 24.4C106.353 24.3893 106.431 24.3787 106.511 24.368C106.596 24.3573 106.684 24.3493 106.775 24.344C106.865 24.3387 106.951 24.336 107.031 24.336C107.26 24.336 107.476 24.3627 107.679 24.416C107.881 24.464 108.057 24.544 108.207 24.656C108.361 24.7627 108.484 24.904 108.575 25.08C108.665 25.2507 108.711 25.456 108.711 25.696C108.711 25.9467 108.668 26.16 108.583 26.336C108.497 26.512 108.375 26.656 108.215 26.768C108.055 26.88 107.863 26.96 107.639 27.008C107.42 27.0613 107.175 27.088 106.903 27.088C106.636 27.088 106.375 27.072 106.119 27.04C105.863 27.0133 105.612 26.9707 105.367 26.912ZM110.933 26.392H111.381C111.557 26.136 111.695 25.872 111.797 25.6C111.903 25.328 111.983 25.048 112.037 24.76C112.09 24.4667 112.125 24.1627 112.141 23.848C112.157 23.528 112.167 23.192 112.173 22.84H114.901V26.392H115.461V28.16H114.757V27H111.637V28.16H110.933V26.392ZM114.157 26.392V23.464H112.853C112.847 23.7147 112.834 23.968 112.813 24.224C112.791 24.4747 112.757 24.7253 112.709 24.976C112.661 25.2213 112.591 25.464 112.501 25.704C112.415 25.9387 112.306 26.168 112.173 26.392H114.157ZM117.885 23.464C117.885 23.64 117.88 23.8293 117.869 24.032C117.864 24.2293 117.85 24.4293 117.829 24.632C117.808 24.8293 117.778 25.0267 117.741 25.224C117.704 25.416 117.656 25.5973 117.597 25.768C117.538 25.9387 117.464 26.0987 117.373 26.248C117.288 26.3973 117.181 26.5307 117.053 26.648C116.925 26.76 116.776 26.856 116.605 26.936C116.434 27.0107 116.234 27.0587 116.005 27.08L115.901 26.456C116.162 26.4027 116.368 26.304 116.517 26.16C116.672 26.016 116.794 25.84 116.885 25.632C116.965 25.4507 117.024 25.2453 117.061 25.016C117.098 24.7867 117.125 24.5493 117.141 24.304C117.157 24.0533 117.165 23.8027 117.165 23.552C117.17 23.3013 117.173 23.064 117.173 22.84H119.941V27H119.197V23.464H117.885ZM122.938 25.384C122.858 25.384 122.781 25.384 122.706 25.384C122.631 25.3787 122.559 25.3733 122.49 25.368C122.319 25.624 122.154 25.8987 121.994 26.192C121.839 26.48 121.701 26.7493 121.578 27H120.826C120.89 26.8453 120.965 26.688 121.05 26.528C121.135 26.3627 121.221 26.2027 121.306 26.048C121.397 25.8933 121.487 25.7467 121.578 25.608C121.669 25.4693 121.754 25.344 121.834 25.232C121.685 25.1787 121.562 25.1147 121.466 25.04C121.37 24.96 121.293 24.872 121.234 24.776C121.175 24.68 121.133 24.5787 121.106 24.472C121.085 24.36 121.074 24.248 121.074 24.136C121.074 23.9013 121.117 23.696 121.202 23.52C121.293 23.344 121.415 23.2 121.57 23.088C121.725 22.9707 121.906 22.8827 122.114 22.824C122.327 22.7653 122.559 22.736 122.81 22.736C123.162 22.736 123.461 22.752 123.706 22.784C123.951 22.816 124.157 22.8533 124.322 22.896V27H123.586V25.384H122.938ZM123.586 23.392C123.527 23.3813 123.429 23.3707 123.29 23.36C123.157 23.3493 123.002 23.344 122.826 23.344C122.522 23.344 122.277 23.408 122.09 23.536C121.903 23.6587 121.81 23.856 121.81 24.128C121.81 24.3947 121.906 24.5787 122.098 24.68C122.29 24.7813 122.538 24.832 122.842 24.832H123.586V23.392ZM130.341 24.928C130.341 24.4427 130.221 24.0693 129.981 23.808C129.741 23.5467 129.421 23.416 129.021 23.416C128.797 23.416 128.621 23.424 128.493 23.44C128.37 23.456 128.271 23.4747 128.197 23.496V26.12C128.287 26.1947 128.418 26.2667 128.589 26.336C128.759 26.4053 128.946 26.44 129.149 26.44C129.362 26.44 129.543 26.4027 129.693 26.328C129.847 26.248 129.973 26.1413 130.069 26.008C130.165 25.8693 130.234 25.7093 130.277 25.528C130.319 25.3413 130.341 25.1413 130.341 24.928ZM131.117 24.928C131.117 25.2427 131.074 25.5333 130.989 25.8C130.909 26.0667 130.789 26.296 130.629 26.488C130.469 26.68 130.271 26.8293 130.037 26.936C129.807 27.0427 129.543 27.096 129.245 27.096C129.005 27.096 128.791 27.064 128.605 27C128.423 26.936 128.287 26.8747 128.197 26.816V28.48H127.453V22.968C127.629 22.9253 127.847 22.88 128.109 22.832C128.375 22.7787 128.682 22.752 129.029 22.752C129.349 22.752 129.637 22.8027 129.893 22.904C130.149 23.0053 130.367 23.1493 130.549 23.336C130.73 23.5227 130.869 23.752 130.965 24.024C131.066 24.2907 131.117 24.592 131.117 24.928ZM133.571 26.464C133.747 26.464 133.902 26.4613 134.035 26.456C134.174 26.4453 134.289 26.4293 134.379 26.408V25.168C134.326 25.1413 134.238 25.12 134.115 25.104C133.998 25.0827 133.854 25.072 133.683 25.072C133.571 25.072 133.451 25.08 133.323 25.096C133.201 25.112 133.086 25.1467 132.979 25.2C132.878 25.248 132.793 25.3173 132.723 25.408C132.654 25.4933 132.619 25.608 132.619 25.752C132.619 26.0187 132.705 26.2053 132.875 26.312C133.046 26.4133 133.278 26.464 133.571 26.464ZM133.507 22.736C133.806 22.736 134.057 22.776 134.259 22.856C134.467 22.9307 134.633 23.04 134.755 23.184C134.883 23.3227 134.974 23.4907 135.027 23.688C135.081 23.88 135.107 24.0933 135.107 24.328V26.928C135.043 26.9387 134.953 26.9547 134.835 26.976C134.723 26.992 134.595 27.008 134.451 27.024C134.307 27.04 134.15 27.0533 133.979 27.064C133.814 27.08 133.649 27.088 133.483 27.088C133.249 27.088 133.033 27.064 132.835 27.016C132.638 26.968 132.467 26.8933 132.323 26.792C132.179 26.6853 132.067 26.5467 131.987 26.376C131.907 26.2053 131.867 26 131.867 25.76C131.867 25.5307 131.913 25.3333 132.003 25.168C132.099 25.0027 132.227 24.8693 132.387 24.768C132.547 24.6667 132.734 24.592 132.947 24.544C133.161 24.496 133.385 24.472 133.619 24.472C133.694 24.472 133.771 24.4773 133.851 24.488C133.931 24.4933 134.006 24.504 134.075 24.52C134.15 24.5307 134.214 24.5413 134.267 24.552C134.321 24.5627 134.358 24.5707 134.379 24.576V24.368C134.379 24.2453 134.366 24.1253 134.339 24.008C134.313 23.8853 134.265 23.7787 134.195 23.688C134.126 23.592 134.03 23.5173 133.907 23.464C133.79 23.4053 133.635 23.376 133.443 23.376C133.198 23.376 132.982 23.3947 132.795 23.432C132.614 23.464 132.478 23.4987 132.387 23.536L132.299 22.92C132.395 22.8773 132.555 22.8373 132.779 22.8C133.003 22.7573 133.246 22.736 133.507 22.736ZM137.863 24.736C138.028 24.8533 138.207 25.0027 138.399 25.184C138.591 25.36 138.778 25.552 138.959 25.76C139.146 25.968 139.319 26.1813 139.479 26.4C139.639 26.6133 139.775 26.8133 139.887 27H139.007C138.89 26.8187 138.751 26.6347 138.591 26.448C138.436 26.256 138.274 26.072 138.103 25.896C137.932 25.72 137.759 25.5573 137.583 25.408C137.407 25.2587 137.242 25.1333 137.087 25.032V27H136.343V22.84H137.087V24.624C137.215 24.5013 137.362 24.36 137.527 24.2C137.692 24.0347 137.858 23.8693 138.023 23.704C138.194 23.5333 138.351 23.3733 138.495 23.224C138.639 23.0693 138.756 22.9413 138.847 22.84H139.711C139.594 22.968 139.455 23.1147 139.295 23.28C139.14 23.44 138.978 23.6053 138.807 23.776C138.642 23.9467 138.476 24.1173 138.311 24.288C138.146 24.4533 137.996 24.6027 137.863 24.736ZM144.078 24.92C144.078 25.2507 144.03 25.5493 143.934 25.816C143.838 26.0827 143.702 26.312 143.526 26.504C143.355 26.696 143.15 26.8453 142.91 26.952C142.67 27.0533 142.408 27.104 142.126 27.104C141.843 27.104 141.582 27.0533 141.342 26.952C141.102 26.8453 140.894 26.696 140.718 26.504C140.547 26.312 140.414 26.0827 140.318 25.816C140.222 25.5493 140.174 25.2507 140.174 24.92C140.174 24.5947 140.222 24.2987 140.318 24.032C140.414 23.76 140.547 23.528 140.718 23.336C140.894 23.144 141.102 22.9973 141.342 22.896C141.582 22.7893 141.843 22.736 142.126 22.736C142.408 22.736 142.67 22.7893 142.91 22.896C143.15 22.9973 143.355 23.144 143.526 23.336C143.702 23.528 143.838 23.76 143.934 24.032C144.03 24.2987 144.078 24.5947 144.078 24.92ZM143.302 24.92C143.302 24.4507 143.195 24.08 142.982 23.808C142.774 23.5307 142.488 23.392 142.126 23.392C141.763 23.392 141.475 23.5307 141.262 23.808C141.054 24.08 140.95 24.4507 140.95 24.92C140.95 25.3893 141.054 25.7627 141.262 26.04C141.475 26.312 141.763 26.448 142.126 26.448C142.488 26.448 142.774 26.312 142.982 26.04C143.195 25.7627 143.302 25.3893 143.302 24.92ZM145.852 26.44C145.884 26.4453 145.93 26.4507 145.988 26.456C146.047 26.4613 146.114 26.4667 146.188 26.472C146.263 26.472 146.34 26.4747 146.42 26.48C146.506 26.48 146.586 26.48 146.66 26.48C146.815 26.48 146.962 26.4693 147.1 26.448C147.244 26.4267 147.367 26.3893 147.468 26.336C147.575 26.2827 147.658 26.2133 147.716 26.128C147.78 26.0373 147.812 25.9227 147.812 25.784C147.812 25.6507 147.783 25.5413 147.724 25.456C147.671 25.3653 147.596 25.2933 147.5 25.24C147.404 25.1867 147.29 25.1493 147.156 25.128C147.028 25.1067 146.89 25.096 146.74 25.096H145.852V26.44ZM146.644 24.544C146.788 24.544 146.919 24.536 147.036 24.52C147.159 24.4987 147.263 24.464 147.348 24.416C147.439 24.368 147.508 24.304 147.556 24.224C147.61 24.144 147.636 24.0427 147.636 23.92C147.636 23.792 147.604 23.6907 147.54 23.616C147.476 23.5413 147.391 23.4853 147.284 23.448C147.183 23.4053 147.066 23.3787 146.932 23.368C146.804 23.352 146.674 23.344 146.54 23.344C146.418 23.344 146.292 23.3467 146.164 23.352C146.042 23.3573 145.938 23.3627 145.852 23.368V24.544H146.644ZM146.628 27.072C146.314 27.072 146.023 27.056 145.756 27.024C145.49 26.9973 145.279 26.9653 145.124 26.928V22.88C145.279 22.8427 145.49 22.8107 145.756 22.784C146.023 22.752 146.314 22.736 146.628 22.736C146.847 22.736 147.06 22.7547 147.268 22.792C147.476 22.8293 147.66 22.8933 147.82 22.984C147.98 23.0693 148.108 23.1893 148.204 23.344C148.306 23.4933 148.356 23.68 148.356 23.904C148.356 24.1067 148.306 24.28 148.204 24.424C148.103 24.568 147.967 24.68 147.796 24.76C148.026 24.84 148.207 24.96 148.34 25.12C148.479 25.2747 148.548 25.4933 148.548 25.776C148.548 26.0267 148.498 26.2347 148.396 26.4C148.3 26.5653 148.164 26.6987 147.988 26.8C147.818 26.9013 147.615 26.9707 147.38 27.008C147.146 27.0507 146.895 27.072 146.628 27.072ZM153.003 22.84V27H152.283V23.832C152.123 24.0347 151.947 24.272 151.755 24.544C151.563 24.816 151.371 25.0987 151.179 25.392C150.987 25.68 150.803 25.9653 150.627 26.248C150.451 26.5307 150.299 26.7813 150.171 27H149.507V22.84H150.227V25.832C150.366 25.6027 150.523 25.352 150.699 25.08C150.875 24.8027 151.057 24.5307 151.243 24.264C151.435 23.992 151.625 23.7333 151.811 23.488C152.003 23.2373 152.182 23.0213 152.347 22.84H153.003ZM157.689 27H156.945V25.16H155.025V27H154.281V22.84H155.025V24.536H156.945V22.84H157.689V27ZM160.496 24.944C160.352 24.944 160.211 24.9493 160.072 24.96C159.939 24.9653 159.819 24.9813 159.712 25.008V26.44C159.744 26.4453 159.789 26.4507 159.848 26.456C159.912 26.4613 159.979 26.4667 160.048 26.472C160.123 26.472 160.197 26.4747 160.272 26.48C160.347 26.48 160.413 26.48 160.472 26.48C160.797 26.48 161.048 26.4187 161.224 26.296C161.4 26.1733 161.488 25.976 161.488 25.704C161.488 25.5707 161.459 25.456 161.4 25.36C161.347 25.264 161.272 25.1867 161.176 25.128C161.085 25.064 160.981 25.0187 160.864 24.992C160.747 24.96 160.624 24.944 160.496 24.944ZM158.968 22.84H159.712V24.432C159.803 24.4107 159.933 24.3893 160.104 24.368C160.28 24.3467 160.448 24.336 160.608 24.336C160.827 24.336 161.035 24.3627 161.232 24.416C161.429 24.464 161.603 24.544 161.752 24.656C161.901 24.7627 162.019 24.904 162.104 25.08C162.195 25.2507 162.24 25.456 162.24 25.696C162.24 25.9467 162.197 26.16 162.112 26.336C162.027 26.512 161.907 26.656 161.752 26.768C161.597 26.88 161.411 26.96 161.192 27.008C160.973 27.0613 160.733 27.088 160.472 27.088C160.221 27.088 159.968 27.072 159.712 27.04C159.456 27.0133 159.208 26.9707 158.968 26.912V22.84ZM163.752 27H163.008V22.84H163.752V27ZM170.378 22.84V27H169.658V23.832C169.498 24.0347 169.322 24.272 169.13 24.544C168.938 24.816 168.746 25.0987 168.554 25.392C168.362 25.68 168.178 25.9653 168.002 26.248C167.826 26.5307 167.674 26.7813 167.546 27H166.882V22.84H167.602V25.832C167.741 25.6027 167.898 25.352 168.074 25.08C168.25 24.8027 168.432 24.5307 168.618 24.264C168.81 23.992 169 23.7333 169.186 23.488C169.378 23.2373 169.557 23.0213 169.722 22.84H170.378ZM68.152 36.776C68.2107 36.8027 68.2853 36.8267 68.376 36.848C68.472 36.8747 68.5653 36.888 68.656 36.888C68.9493 36.888 69.1787 36.8213 69.344 36.688C69.5093 36.56 69.6587 36.3493 69.792 36.056C69.456 35.416 69.1413 34.7387 68.848 34.024C68.56 33.304 68.32 32.576 68.128 31.84H68.928C68.9867 32.08 69.056 32.3387 69.136 32.616C69.2213 32.8933 69.3147 33.1787 69.416 33.472C69.5173 33.7653 69.6267 34.0587 69.744 34.352C69.8613 34.6453 69.984 34.928 70.112 35.2C70.3147 34.64 70.4907 34.0853 70.64 33.536C70.7893 32.9867 70.9307 32.4213 71.064 31.84H71.832C71.64 32.624 71.4267 33.3787 71.192 34.104C70.9573 34.824 70.704 35.4987 70.432 36.128C70.3253 36.368 70.2133 36.5733 70.096 36.744C69.984 36.92 69.8587 37.064 69.72 37.176C69.5813 37.288 69.424 37.3707 69.248 37.424C69.0773 37.4773 68.8827 37.504 68.664 37.504C68.6053 37.504 68.544 37.4987 68.48 37.488C68.416 37.4827 68.352 37.472 68.288 37.456C68.2293 37.4453 68.1733 37.432 68.12 37.416C68.072 37.4 68.0373 37.3867 68.016 37.376L68.152 36.776ZM73.4086 32.936C73.3552 33.464 73.3152 33.992 73.2886 34.52C73.2619 35.0427 73.2406 35.536 73.2246 36H72.5126C72.5232 35.6747 72.5392 35.336 72.5606 34.984C72.5819 34.6267 72.6059 34.2693 72.6326 33.912C72.6592 33.5493 72.6886 33.1947 72.7206 32.848C72.7526 32.496 72.7872 32.16 72.8246 31.84H73.5046C73.6752 32.1173 73.8752 32.4987 74.1046 32.984C74.3339 33.464 74.5979 34.0187 74.8966 34.648C75.1952 34.0187 75.4592 33.464 75.6886 32.984C75.9179 32.4987 76.1179 32.1173 76.2886 31.84H76.9766C77.0139 32.16 77.0486 32.496 77.0806 32.848C77.1126 33.1947 77.1419 33.5493 77.1686 33.912C77.1952 34.2693 77.2192 34.6267 77.2406 34.984C77.2619 35.336 77.2779 35.6747 77.2886 36H76.5526C76.5366 35.536 76.5152 35.0427 76.4886 34.52C76.4619 33.992 76.4219 33.464 76.3686 32.936C76.2832 33.1013 76.1846 33.3013 76.0726 33.536C75.9606 33.7653 75.8486 34 75.7366 34.24C75.6299 34.48 75.5286 34.7093 75.4326 34.928C75.3366 35.1467 75.2619 35.32 75.2086 35.448H74.5846C74.5259 35.3147 74.4459 35.1387 74.3446 34.92C74.2486 34.7013 74.1446 34.472 74.0326 34.232C73.9259 33.9867 73.8166 33.7493 73.7046 33.52C73.5926 33.2853 73.4939 33.0907 73.4086 32.936ZM79.9961 33.944C79.8521 33.944 79.7108 33.9493 79.5721 33.96C79.4388 33.9653 79.3188 33.9813 79.2121 34.008V35.44C79.2441 35.4453 79.2895 35.4507 79.3481 35.456C79.4121 35.4613 79.4788 35.4667 79.5481 35.472C79.6228 35.472 79.6975 35.4747 79.7721 35.48C79.8468 35.48 79.9135 35.48 79.9721 35.48C80.2975 35.48 80.5481 35.4187 80.7241 35.296C80.9001 35.1733 80.9881 34.976 80.9881 34.704C80.9881 34.5707 80.9588 34.456 80.9001 34.36C80.8468 34.264 80.7721 34.1867 80.6761 34.128C80.5855 34.064 80.4815 34.0187 80.3641 33.992C80.2468 33.96 80.1241 33.944 79.9961 33.944ZM78.4681 31.84H79.2121V33.432C79.3028 33.4107 79.4335 33.3893 79.6041 33.368C79.7801 33.3467 79.9481 33.336 80.1081 33.336C80.3268 33.336 80.5348 33.3627 80.7321 33.416C80.9295 33.464 81.1028 33.544 81.2521 33.656C81.4015 33.7627 81.5188 33.904 81.6041 34.08C81.6948 34.2507 81.7401 34.456 81.7401 34.696C81.7401 34.9467 81.6975 35.16 81.6121 35.336C81.5268 35.512 81.4068 35.656 81.2521 35.768C81.0975 35.88 80.9108 35.96 80.6921 36.008C80.4735 36.0613 80.2335 36.088 79.9721 36.088C79.7215 36.088 79.4681 36.072 79.2121 36.04C78.9561 36.0133 78.7081 35.9707 78.4681 35.912V31.84ZM83.2521 36H82.5081V31.84H83.2521V36ZM85.2586 35.44C85.2906 35.4453 85.336 35.4507 85.3946 35.456C85.4533 35.4613 85.52 35.4667 85.5946 35.472C85.6693 35.472 85.7466 35.4747 85.8266 35.48C85.912 35.48 85.992 35.48 86.0666 35.48C86.2213 35.48 86.368 35.4693 86.5066 35.448C86.6506 35.4267 86.7733 35.3893 86.8746 35.336C86.9813 35.2827 87.064 35.2133 87.1226 35.128C87.1866 35.0373 87.2186 34.9227 87.2186 34.784C87.2186 34.6507 87.1893 34.5413 87.1306 34.456C87.0773 34.3653 87.0026 34.2933 86.9066 34.24C86.8106 34.1867 86.696 34.1493 86.5626 34.128C86.4346 34.1067 86.296 34.096 86.1466 34.096H85.2586V35.44ZM86.0506 33.544C86.1946 33.544 86.3253 33.536 86.4426 33.52C86.5653 33.4987 86.6693 33.464 86.7546 33.416C86.8453 33.368 86.9146 33.304 86.9626 33.224C87.016 33.144 87.0426 33.0427 87.0426 32.92C87.0426 32.792 87.0106 32.6907 86.9466 32.616C86.8826 32.5413 86.7973 32.4853 86.6906 32.448C86.5893 32.4053 86.472 32.3787 86.3386 32.368C86.2106 32.352 86.08 32.344 85.9466 32.344C85.824 32.344 85.6986 32.3467 85.5706 32.352C85.448 32.3573 85.344 32.3627 85.2586 32.368V33.544H86.0506ZM86.0346 36.072C85.72 36.072 85.4293 36.056 85.1626 36.024C84.896 35.9973 84.6853 35.9653 84.5306 35.928V31.88C84.6853 31.8427 84.896 31.8107 85.1626 31.784C85.4293 31.752 85.72 31.736 86.0346 31.736C86.2533 31.736 86.4666 31.7547 86.6746 31.792C86.8826 31.8293 87.0666 31.8933 87.2266 31.984C87.3866 32.0693 87.5146 32.1893 87.6106 32.344C87.712 32.4933 87.7626 32.68 87.7626 32.904C87.7626 33.1067 87.712 33.28 87.6106 33.424C87.5093 33.568 87.3733 33.68 87.2026 33.76C87.432 33.84 87.6133 33.96 87.7466 34.12C87.8853 34.2747 87.9546 34.4933 87.9546 34.776C87.9546 35.0267 87.904 35.2347 87.8026 35.4C87.7066 35.5653 87.5706 35.6987 87.3946 35.8C87.224 35.9013 87.0213 35.9707 86.7866 36.008C86.552 36.0507 86.3013 36.072 86.0346 36.072ZM90.3214 35.464C90.4974 35.464 90.6521 35.4613 90.7854 35.456C90.9241 35.4453 91.0388 35.4293 91.1294 35.408V34.168C91.0761 34.1413 90.9881 34.12 90.8654 34.104C90.7481 34.0827 90.6041 34.072 90.4334 34.072C90.3214 34.072 90.2014 34.08 90.0734 34.096C89.9508 34.112 89.8361 34.1467 89.7294 34.2C89.6281 34.248 89.5428 34.3173 89.4734 34.408C89.4041 34.4933 89.3694 34.608 89.3694 34.752C89.3694 35.0187 89.4548 35.2053 89.6254 35.312C89.7961 35.4133 90.0281 35.464 90.3214 35.464ZM90.2574 31.736C90.5561 31.736 90.8068 31.776 91.0094 31.856C91.2174 31.9307 91.3828 32.04 91.5054 32.184C91.6334 32.3227 91.7241 32.4907 91.7774 32.688C91.8308 32.88 91.8574 33.0933 91.8574 33.328V35.928C91.7934 35.9387 91.7028 35.9547 91.5854 35.976C91.4734 35.992 91.3454 36.008 91.2014 36.024C91.0574 36.04 90.9001 36.0533 90.7294 36.064C90.5641 36.08 90.3988 36.088 90.2334 36.088C89.9988 36.088 89.7828 36.064 89.5854 36.016C89.3881 35.968 89.2174 35.8933 89.0734 35.792C88.9294 35.6853 88.8174 35.5467 88.7374 35.376C88.6574 35.2053 88.6174 35 88.6174 34.76C88.6174 34.5307 88.6628 34.3333 88.7534 34.168C88.8494 34.0027 88.9774 33.8693 89.1374 33.768C89.2974 33.6667 89.4841 33.592 89.6974 33.544C89.9108 33.496 90.1348 33.472 90.3694 33.472C90.4441 33.472 90.5214 33.4773 90.6014 33.488C90.6814 33.4933 90.7561 33.504 90.8254 33.52C90.9001 33.5307 90.9641 33.5413 91.0174 33.552C91.0708 33.5627 91.1081 33.5707 91.1294 33.576V33.368C91.1294 33.2453 91.1161 33.1253 91.0894 33.008C91.0628 32.8853 91.0148 32.7787 90.9454 32.688C90.8761 32.592 90.7801 32.5173 90.6574 32.464C90.5401 32.4053 90.3854 32.376 90.1934 32.376C89.9481 32.376 89.7321 32.3947 89.5454 32.432C89.3641 32.464 89.2281 32.4987 89.1374 32.536L89.0494 31.92C89.1454 31.8773 89.3054 31.8373 89.5294 31.8C89.7534 31.7573 89.9961 31.736 90.2574 31.736ZM94.5411 32.464C94.5411 32.64 94.5358 32.8293 94.5251 33.032C94.5198 33.2293 94.5065 33.4293 94.4851 33.632C94.4638 33.8293 94.4345 34.0267 94.3971 34.224C94.3598 34.416 94.3118 34.5973 94.2531 34.768C94.1945 34.9387 94.1198 35.0987 94.0291 35.248C93.9438 35.3973 93.8371 35.5307 93.7091 35.648C93.5811 35.76 93.4318 35.856 93.2611 35.936C93.0905 36.0107 92.8905 36.0587 92.6611 36.08L92.5571 35.456C92.8185 35.4027 93.0238 35.304 93.1731 35.16C93.3278 35.016 93.4505 34.84 93.5411 34.632C93.6211 34.4507 93.6798 34.2453 93.7171 34.016C93.7545 33.7867 93.7811 33.5493 93.7971 33.304C93.8131 33.0533 93.8211 32.8027 93.8211 32.552C93.8265 32.3013 93.8291 32.064 93.8291 31.84H96.5971V36H95.8531V32.464H94.5411ZM99.4504 35.48C99.765 35.48 100.013 35.4187 100.194 35.296C100.376 35.1733 100.466 34.976 100.466 34.704C100.466 34.5707 100.44 34.456 100.386 34.36C100.333 34.264 100.258 34.1867 100.162 34.128C100.072 34.064 99.965 34.0187 99.8424 33.992C99.7197 33.96 99.589 33.944 99.4504 33.944C99.3064 33.944 99.157 33.9493 99.0024 33.96C98.853 33.9653 98.725 33.9813 98.6184 34.008V35.44C98.6504 35.4453 98.6984 35.4507 98.7624 35.456C98.8264 35.4613 98.8957 35.4667 98.9704 35.472C99.0504 35.472 99.1304 35.4747 99.2104 35.48C99.2957 35.48 99.3757 35.48 99.4504 35.48ZM97.8744 35.912V31.84H98.6184V33.432C98.661 33.4213 98.717 33.4107 98.7864 33.4C98.861 33.3893 98.9384 33.3787 99.0184 33.368C99.1037 33.3573 99.1917 33.3493 99.2824 33.344C99.373 33.3387 99.4584 33.336 99.5384 33.336C99.7677 33.336 99.9837 33.3627 100.186 33.416C100.389 33.464 100.565 33.544 100.714 33.656C100.869 33.7627 100.992 33.904 101.082 34.08C101.173 34.2507 101.218 34.456 101.218 34.696C101.218 34.9467 101.176 35.16 101.09 35.336C101.005 35.512 100.882 35.656 100.722 35.768C100.562 35.88 100.37 35.96 100.146 36.008C99.9277 36.0613 99.6824 36.088 99.4104 36.088C99.1437 36.088 98.8824 36.072 98.6264 36.04C98.3704 36.0133 98.1197 35.9707 97.8744 35.912ZM105.509 36H104.765V34.16H102.845V36H102.101V31.84H102.845V33.536H104.765V31.84H105.509V36ZM110.284 31.84V36H109.564V32.832C109.404 33.0347 109.228 33.272 109.036 33.544C108.844 33.816 108.652 34.0987 108.46 34.392C108.268 34.68 108.084 34.9653 107.908 35.248C107.732 35.5307 107.58 35.7813 107.452 36H106.788V31.84H107.508V34.832C107.647 34.6027 107.804 34.352 107.98 34.08C108.156 33.8027 108.338 33.5307 108.524 33.264C108.716 32.992 108.906 32.7333 109.092 32.488C109.284 32.2373 109.463 32.0213 109.628 31.84H110.284ZM113.082 33.736C113.247 33.8533 113.426 34.0027 113.618 34.184C113.81 34.36 113.997 34.552 114.178 34.76C114.365 34.968 114.538 35.1813 114.698 35.4C114.858 35.6133 114.994 35.8133 115.106 36H114.226C114.109 35.8187 113.97 35.6347 113.81 35.448C113.655 35.256 113.493 35.072 113.322 34.896C113.151 34.72 112.978 34.5573 112.802 34.408C112.626 34.2587 112.461 34.1333 112.306 34.032V36H111.562V31.84H112.306V33.624C112.434 33.5013 112.581 33.36 112.746 33.2C112.911 33.0347 113.077 32.8693 113.242 32.704C113.413 32.5333 113.57 32.3733 113.714 32.224C113.858 32.0693 113.975 31.9413 114.066 31.84H114.93C114.813 31.968 114.674 32.1147 114.514 32.28C114.359 32.44 114.197 32.6053 114.026 32.776C113.861 32.9467 113.695 33.1173 113.53 33.288C113.365 33.4533 113.215 33.6027 113.082 33.736ZM117.267 35.464C117.443 35.464 117.597 35.4613 117.731 35.456C117.869 35.4453 117.984 35.4293 118.075 35.408V34.168C118.021 34.1413 117.933 34.12 117.811 34.104C117.693 34.0827 117.549 34.072 117.379 34.072C117.267 34.072 117.147 34.08 117.019 34.096C116.896 34.112 116.781 34.1467 116.675 34.2C116.573 34.248 116.488 34.3173 116.419 34.408C116.349 34.4933 116.315 34.608 116.315 34.752C116.315 35.0187 116.4 35.2053 116.571 35.312C116.741 35.4133 116.973 35.464 117.267 35.464ZM117.203 31.736C117.501 31.736 117.752 31.776 117.955 31.856C118.163 31.9307 118.328 32.04 118.451 32.184C118.579 32.3227 118.669 32.4907 118.723 32.688C118.776 32.88 118.803 33.0933 118.803 33.328V35.928C118.739 35.9387 118.648 35.9547 118.531 35.976C118.419 35.992 118.291 36.008 118.147 36.024C118.003 36.04 117.845 36.0533 117.675 36.064C117.509 36.08 117.344 36.088 117.179 36.088C116.944 36.088 116.728 36.064 116.531 36.016C116.333 35.968 116.163 35.8933 116.019 35.792C115.875 35.6853 115.763 35.5467 115.683 35.376C115.603 35.2053 115.563 35 115.563 34.76C115.563 34.5307 115.608 34.3333 115.699 34.168C115.795 34.0027 115.923 33.8693 116.083 33.768C116.243 33.6667 116.429 33.592 116.643 33.544C116.856 33.496 117.08 33.472 117.315 33.472C117.389 33.472 117.467 33.4773 117.547 33.488C117.627 33.4933 117.701 33.504 117.771 33.52C117.845 33.5307 117.909 33.5413 117.963 33.552C118.016 33.5627 118.053 33.5707 118.075 33.576V33.368C118.075 33.2453 118.061 33.1253 118.035 33.008C118.008 32.8853 117.96 32.7787 117.891 32.688C117.821 32.592 117.725 32.5173 117.603 32.464C117.485 32.4053 117.331 32.376 117.139 32.376C116.893 32.376 116.677 32.3947 116.491 32.432C116.309 32.464 116.173 32.4987 116.083 32.536L115.995 31.92C116.091 31.8773 116.251 31.8373 116.475 31.8C116.699 31.7573 116.941 31.736 117.203 31.736ZM125.562 33.92C125.562 34.2507 125.514 34.5493 125.418 34.816C125.322 35.0827 125.186 35.312 125.01 35.504C124.839 35.696 124.634 35.8453 124.394 35.952C124.154 36.0533 123.893 36.104 123.61 36.104C123.327 36.104 123.066 36.0533 122.826 35.952C122.586 35.8453 122.378 35.696 122.202 35.504C122.031 35.312 121.898 35.0827 121.802 34.816C121.706 34.5493 121.658 34.2507 121.658 33.92C121.658 33.5947 121.706 33.2987 121.802 33.032C121.898 32.76 122.031 32.528 122.202 32.336C122.378 32.144 122.586 31.9973 122.826 31.896C123.066 31.7893 123.327 31.736 123.61 31.736C123.893 31.736 124.154 31.7893 124.394 31.896C124.634 31.9973 124.839 32.144 125.01 32.336C125.186 32.528 125.322 32.76 125.418 33.032C125.514 33.2987 125.562 33.5947 125.562 33.92ZM124.786 33.92C124.786 33.4507 124.679 33.08 124.466 32.808C124.258 32.5307 123.973 32.392 123.61 32.392C123.247 32.392 122.959 32.5307 122.746 32.808C122.538 33.08 122.434 33.4507 122.434 33.92C122.434 34.3893 122.538 34.7627 122.746 35.04C122.959 35.312 123.247 35.448 123.61 35.448C123.973 35.448 124.258 35.312 124.466 35.04C124.679 34.7627 124.786 34.3893 124.786 33.92ZM126.097 35.392H126.545C126.721 35.136 126.859 34.872 126.961 34.6C127.067 34.328 127.147 34.048 127.201 33.76C127.254 33.4667 127.289 33.1627 127.305 32.848C127.321 32.528 127.331 32.192 127.337 31.84H130.065V35.392H130.625V37.16H129.921V36H126.801V37.16H126.097V35.392ZM129.321 35.392V32.464H128.017C128.011 32.7147 127.998 32.968 127.977 33.224C127.955 33.4747 127.921 33.7253 127.873 33.976C127.825 34.2213 127.755 34.464 127.665 34.704C127.579 34.9387 127.47 35.168 127.337 35.392H129.321ZM134.837 36H134.093V34.16H132.173V36H131.429V31.84H132.173V33.536H134.093V31.84H134.837V36ZM139.789 33.92C139.789 34.2507 139.741 34.5493 139.645 34.816C139.549 35.0827 139.413 35.312 139.237 35.504C139.066 35.696 138.861 35.8453 138.621 35.952C138.381 36.0533 138.119 36.104 137.837 36.104C137.554 36.104 137.293 36.0533 137.053 35.952C136.813 35.8453 136.605 35.696 136.429 35.504C136.258 35.312 136.125 35.0827 136.029 34.816C135.933 34.5493 135.885 34.2507 135.885 33.92C135.885 33.5947 135.933 33.2987 136.029 33.032C136.125 32.76 136.258 32.528 136.429 32.336C136.605 32.144 136.813 31.9973 137.053 31.896C137.293 31.7893 137.554 31.736 137.837 31.736C138.119 31.736 138.381 31.7893 138.621 31.896C138.861 31.9973 139.066 32.144 139.237 32.336C139.413 32.528 139.549 32.76 139.645 33.032C139.741 33.2987 139.789 33.5947 139.789 33.92ZM139.013 33.92C139.013 33.4507 138.906 33.08 138.693 32.808C138.485 32.5307 138.199 32.392 137.837 32.392C137.474 32.392 137.186 32.5307 136.973 32.808C136.765 33.08 136.661 33.4507 136.661 33.92C136.661 34.3893 136.765 34.7627 136.973 35.04C137.186 35.312 137.474 35.448 137.837 35.448C138.199 35.448 138.485 35.312 138.693 35.04C138.906 34.7627 139.013 34.3893 139.013 33.92ZM143.723 33.928C143.723 33.4427 143.603 33.0693 143.363 32.808C143.123 32.5467 142.803 32.416 142.403 32.416C142.179 32.416 142.003 32.424 141.875 32.44C141.753 32.456 141.654 32.4747 141.579 32.496V35.12C141.67 35.1947 141.801 35.2667 141.971 35.336C142.142 35.4053 142.329 35.44 142.531 35.44C142.745 35.44 142.926 35.4027 143.075 35.328C143.23 35.248 143.355 35.1413 143.451 35.008C143.547 34.8693 143.617 34.7093 143.659 34.528C143.702 34.3413 143.723 34.1413 143.723 33.928ZM144.499 33.928C144.499 34.2427 144.457 34.5333 144.371 34.8C144.291 35.0667 144.171 35.296 144.011 35.488C143.851 35.68 143.654 35.8293 143.419 35.936C143.19 36.0427 142.926 36.096 142.627 36.096C142.387 36.096 142.174 36.064 141.987 36C141.806 35.936 141.67 35.8747 141.579 35.816V37.48H140.835V31.968C141.011 31.9253 141.23 31.88 141.491 31.832C141.758 31.7787 142.065 31.752 142.411 31.752C142.731 31.752 143.019 31.8027 143.275 31.904C143.531 32.0053 143.75 32.1493 143.931 32.336C144.113 32.5227 144.251 32.752 144.347 33.024C144.449 33.2907 144.499 33.592 144.499 33.928ZM144.949 36.776C145.008 36.8027 145.082 36.8267 145.173 36.848C145.269 36.8747 145.362 36.888 145.453 36.888C145.746 36.888 145.976 36.8213 146.141 36.688C146.306 36.56 146.456 36.3493 146.589 36.056C146.253 35.416 145.938 34.7387 145.645 34.024C145.357 33.304 145.117 32.576 144.925 31.84H145.725C145.784 32.08 145.853 32.3387 145.933 32.616C146.018 32.8933 146.112 33.1787 146.213 33.472C146.314 33.7653 146.424 34.0587 146.541 34.352C146.658 34.6453 146.781 34.928 146.909 35.2C147.112 34.64 147.288 34.0853 147.437 33.536C147.586 32.9867 147.728 32.4213 147.861 31.84H148.629C148.437 32.624 148.224 33.3787 147.989 34.104C147.754 34.824 147.501 35.4987 147.229 36.128C147.122 36.368 147.01 36.5733 146.893 36.744C146.781 36.92 146.656 37.064 146.517 37.176C146.378 37.288 146.221 37.3707 146.045 37.424C145.874 37.4773 145.68 37.504 145.461 37.504C145.402 37.504 145.341 37.4987 145.277 37.488C145.213 37.4827 145.149 37.472 145.085 37.456C145.026 37.4453 144.97 37.432 144.917 37.416C144.869 37.4 144.834 37.3867 144.813 37.376L144.949 36.776ZM150.933 33.736C151.099 33.8533 151.277 34.0027 151.469 34.184C151.661 34.36 151.848 34.552 152.029 34.76C152.216 34.968 152.389 35.1813 152.549 35.4C152.709 35.6133 152.845 35.8133 152.957 36H152.077C151.96 35.8187 151.821 35.6347 151.661 35.448C151.507 35.256 151.344 35.072 151.173 34.896C151.003 34.72 150.829 34.5573 150.653 34.408C150.477 34.2587 150.312 34.1333 150.157 34.032V36H149.413V31.84H150.157V33.624C150.285 33.5013 150.432 33.36 150.597 33.2C150.763 33.0347 150.928 32.8693 151.093 32.704C151.264 32.5333 151.421 32.3733 151.565 32.224C151.709 32.0693 151.827 31.9413 151.917 31.84H152.781C152.664 31.968 152.525 32.1147 152.365 32.28C152.211 32.44 152.048 32.6053 151.877 32.776C151.712 32.9467 151.547 33.1173 151.381 33.288C151.216 33.4533 151.067 33.6027 150.933 33.736ZM157.148 33.92C157.148 34.2507 157.1 34.5493 157.004 34.816C156.908 35.0827 156.772 35.312 156.596 35.504C156.425 35.696 156.22 35.8453 155.98 35.952C155.74 36.0533 155.479 36.104 155.196 36.104C154.913 36.104 154.652 36.0533 154.412 35.952C154.172 35.8453 153.964 35.696 153.788 35.504C153.617 35.312 153.484 35.0827 153.388 34.816C153.292 34.5493 153.244 34.2507 153.244 33.92C153.244 33.5947 153.292 33.2987 153.388 33.032C153.484 32.76 153.617 32.528 153.788 32.336C153.964 32.144 154.172 31.9973 154.412 31.896C154.652 31.7893 154.913 31.736 155.196 31.736C155.479 31.736 155.74 31.7893 155.98 31.896C156.22 31.9973 156.425 32.144 156.596 32.336C156.772 32.528 156.908 32.76 157.004 33.032C157.1 33.2987 157.148 33.5947 157.148 33.92ZM156.372 33.92C156.372 33.4507 156.265 33.08 156.052 32.808C155.844 32.5307 155.559 32.392 155.196 32.392C154.833 32.392 154.545 32.5307 154.332 32.808C154.124 33.08 154.02 33.4507 154.02 33.92C154.02 34.3893 154.124 34.7627 154.332 35.04C154.545 35.312 154.833 35.448 155.196 35.448C155.559 35.448 155.844 35.312 156.052 35.04C156.265 34.7627 156.372 34.3893 156.372 33.92ZM159.915 34.384C159.835 34.384 159.757 34.384 159.683 34.384C159.608 34.3787 159.536 34.3733 159.467 34.368C159.296 34.624 159.131 34.8987 158.971 35.192C158.816 35.48 158.677 35.7493 158.555 36H157.803C157.867 35.8453 157.941 35.688 158.027 35.528C158.112 35.3627 158.197 35.2027 158.283 35.048C158.373 34.8933 158.464 34.7467 158.555 34.608C158.645 34.4693 158.731 34.344 158.811 34.232C158.661 34.1787 158.539 34.1147 158.443 34.04C158.347 33.96 158.269 33.872 158.211 33.776C158.152 33.68 158.109 33.5787 158.083 33.472C158.061 33.36 158.051 33.248 158.051 33.136C158.051 32.9013 158.093 32.696 158.179 32.52C158.269 32.344 158.392 32.2 158.547 32.088C158.701 31.9707 158.883 31.8827 159.091 31.824C159.304 31.7653 159.536 31.736 159.787 31.736C160.139 31.736 160.437 31.752 160.683 31.784C160.928 31.816 161.133 31.8533 161.299 31.896V36H160.563V34.384H159.915ZM160.563 32.392C160.504 32.3813 160.405 32.3707 160.267 32.36C160.133 32.3493 159.979 32.344 159.803 32.344C159.499 32.344 159.253 32.408 159.067 32.536C158.88 32.6587 158.787 32.856 158.787 33.128C158.787 33.3947 158.883 33.5787 159.075 33.68C159.267 33.7813 159.515 33.832 159.819 33.832H160.563V32.392ZM165.514 31.84V32.464H164.162V36H163.418V32.464H162.066V31.84H165.514ZM169.953 33.92C169.953 34.2507 169.905 34.5493 169.809 34.816C169.713 35.0827 169.577 35.312 169.401 35.504C169.23 35.696 169.025 35.8453 168.785 35.952C168.545 36.0533 168.283 36.104 168.001 36.104C167.718 36.104 167.457 36.0533 167.217 35.952C166.977 35.8453 166.769 35.696 166.593 35.504C166.422 35.312 166.289 35.0827 166.193 34.816C166.097 34.5493 166.049 34.2507 166.049 33.92C166.049 33.5947 166.097 33.2987 166.193 33.032C166.289 32.76 166.422 32.528 166.593 32.336C166.769 32.144 166.977 31.9973 167.217 31.896C167.457 31.7893 167.718 31.736 168.001 31.736C168.283 31.736 168.545 31.7893 168.785 31.896C169.025 31.9973 169.23 32.144 169.401 32.336C169.577 32.528 169.713 32.76 169.809 33.032C169.905 33.2987 169.953 33.5947 169.953 33.92ZM169.177 33.92C169.177 33.4507 169.07 33.08 168.857 32.808C168.649 32.5307 168.363 32.392 168.001 32.392C167.638 32.392 167.35 32.5307 167.137 32.808C166.929 33.08 166.825 33.4507 166.825 33.92C166.825 34.3893 166.929 34.7627 167.137 35.04C167.35 35.312 167.638 35.448 168.001 35.448C168.363 35.448 168.649 35.312 168.857 35.04C169.07 34.7627 169.177 34.3893 169.177 33.92ZM171.471 31.84V33.064C171.471 33.3787 171.551 33.6 171.711 33.728C171.871 33.8507 172.09 33.912 172.367 33.912C172.57 33.912 172.738 33.9013 172.871 33.88C173.01 33.8587 173.133 33.8347 173.239 33.808V31.84H173.983V36H173.239V34.384C173.197 34.3947 173.141 34.408 173.071 34.424C173.002 34.44 172.922 34.456 172.831 34.472C172.746 34.4827 172.655 34.4933 172.559 34.504C172.463 34.5147 172.37 34.52 172.279 34.52C172.05 34.52 171.839 34.496 171.647 34.448C171.461 34.4 171.298 34.32 171.159 34.208C171.026 34.096 170.919 33.9493 170.839 33.768C170.765 33.5813 170.727 33.3493 170.727 33.072V31.84H171.471ZM178.673 36H177.929V34.16H176.009V36H175.265V31.84H176.009V33.536H177.929V31.84H178.673V36ZM181.481 33.944C181.337 33.944 181.195 33.9493 181.057 33.96C180.923 33.9653 180.803 33.9813 180.697 34.008V35.44C180.729 35.4453 180.774 35.4507 180.833 35.456C180.897 35.4613 180.963 35.4667 181.033 35.472C181.107 35.472 181.182 35.4747 181.257 35.48C181.331 35.48 181.398 35.48 181.457 35.48C181.782 35.48 182.033 35.4187 182.209 35.296C182.385 35.1733 182.473 34.976 182.473 34.704C182.473 34.5707 182.443 34.456 182.385 34.36C182.331 34.264 182.257 34.1867 182.161 34.128C182.07 34.064 181.966 34.0187 181.849 33.992C181.731 33.96 181.609 33.944 181.481 33.944ZM179.953 31.84H180.697V33.432C180.787 33.4107 180.918 33.3893 181.089 33.368C181.265 33.3467 181.433 33.336 181.593 33.336C181.811 33.336 182.019 33.3627 182.217 33.416C182.414 33.464 182.587 33.544 182.737 33.656C182.886 33.7627 183.003 33.904 183.089 34.08C183.179 34.2507 183.225 34.456 183.225 34.696C183.225 34.9467 183.182 35.16 183.097 35.336C183.011 35.512 182.891 35.656 182.737 35.768C182.582 35.88 182.395 35.96 182.177 36.008C181.958 36.0613 181.718 36.088 181.457 36.088C181.206 36.088 180.953 36.072 180.697 36.04C180.441 36.0133 180.193 35.9707 179.953 35.912V31.84ZM184.737 36H183.993V31.84H184.737V36ZM189.511 31.84V36H188.791V32.832C188.631 33.0347 188.455 33.272 188.263 33.544C188.071 33.816 187.879 34.0987 187.687 34.392C187.495 34.68 187.311 34.9653 187.135 35.248C186.959 35.5307 186.807 35.7813 186.679 36H186.015V31.84H186.735V34.832C186.874 34.6027 187.031 34.352 187.207 34.08C187.383 33.8027 187.564 33.5307 187.751 33.264C187.943 32.992 188.132 32.7333 188.319 32.488C188.511 32.2373 188.69 32.0213 188.855 31.84H189.511ZM187.767 31.168C187.431 31.168 187.156 31.0827 186.943 30.912C186.735 30.7413 186.61 30.504 186.567 30.2L187.135 30.048C187.178 30.2187 187.25 30.3573 187.351 30.464C187.452 30.5707 187.591 30.624 187.767 30.624C187.943 30.624 188.082 30.5707 188.183 30.464C188.284 30.3573 188.356 30.2187 188.399 30.048L188.959 30.2C188.916 30.504 188.791 30.7413 188.583 30.912C188.375 31.0827 188.103 31.168 187.767 31.168Z" fill="white"/>
<path d="M32.6803 33.7773C31.4972 33.7773 30.5381 33.9331 30.5381 34.1253C30.5381 34.3175 31.4972 34.4732 32.6803 34.4732C33.8634 34.4732 34.8224 34.3175 34.8224 34.1253C34.8224 33.9331 33.8634 33.7773 32.6803 33.7773Z" stroke="white" stroke-width="0.216"/>
<path d="M30.623 36.1825C30.8826 36.3272 31.7053 36.433 32.68 36.433C33.8631 36.433 34.8221 36.2772 34.8221 36.085" stroke="white" stroke-width="0.216"/>
<path d="M30.6224 36.1826C30.5054 36.2079 30.4056 36.2354 30.3261 36.2648M30.1504 36.5083C30.3684 36.7029 31.4177 36.8505 32.6794 36.8505C34.0991 36.8505 35.25 36.6636 35.25 36.4331C35.25 36.376 35.1793 36.3215 35.0516 36.272" stroke="white" stroke-width="0.216"/>
<path d="M30.1123 36.8711C30.1789 37.092 31.303 37.2678 32.6798 37.2678C34.0566 37.2678 35.1807 37.092 35.2473 36.8711" stroke="white" stroke-width="0.216"/>
<path d="M34.8223 34.1255C34.8223 34.7787 34.8223 35.4319 34.8223 35.7585C34.8223 36.0851 34.8223 36.0851 34.8223 36.0851" stroke="white" stroke-width="0.216"/>
<path d="M34.822 36.085C34.9648 36.201 35.1076 36.317 35.179 36.3749C35.2505 36.433 35.2505 36.433 35.2505 36.5025C35.2505 36.5721 35.2505 36.7113 35.2666 36.7815C35.2828 36.8517 35.3151 36.853 35.3381 36.9514C35.361 37.0498 35.3747 37.2454 35.3792 37.4898C35.3837 37.7343 35.3792 38.0276 35.3439 38.437C35.3087 38.8463 35.2428 39.3716 35.179 39.7548C35.1154 40.138 35.054 40.379 34.9744 40.6508C34.8948 40.9225 34.797 41.225 34.6572 41.5786C34.5173 41.9322 34.3354 42.337 34.1182 42.8031C33.9011 43.2693 33.6487 43.7969 33.4656 44.1255C33.3582 44.3183 33.2746 44.4427 33.1982 44.5375" stroke="white" stroke-width="0.216"/>
<path d="M30.5376 34.1255C30.5376 34.7787 30.5376 35.4319 30.5376 35.7585C30.5376 36.0851 30.5376 36.0851 30.4663 36.1431C30.3949 36.2011 30.252 36.3171 30.1806 36.4447C30.1092 36.5722 30.1092 36.7114 30.0976 36.7907C30.086 36.87 30.0628 36.8894 30.041 36.8867C30.0192 36.8839 29.9987 36.8589 29.9327 36.727C29.8668 36.5951 29.7554 36.3563 29.6758 36.1425C29.5962 35.9288 29.5484 35.7401 29.4859 35.565C29.4234 35.3899 29.3461 35.2284 29.2824 35.0965C29.2187 34.9646 29.1687 34.8623 29.1369 34.8054C29.105 34.7486 29.0914 34.7372 29.0493 34.6872C29.0072 34.6372 28.9367 34.5485 28.8924 34.5041C28.8727 34.4844 28.8581 34.4735 28.8417 34.4722M22.167 37.2477C22.2119 37.4416 22.2669 37.6745 22.3056 37.8345C22.3533 38.0323 22.376 38.1187 22.4283 38.3097C22.4807 38.5008 22.5625 38.7964 22.6603 39.0579C22.7581 39.3194 22.8717 39.5468 23.0151 39.8084C23.1583 40.0699 23.3311 40.3655 23.4892 40.6634C23.6472 40.9613 23.7905 41.2615 23.9338 41.5617" stroke="white" stroke-width="0.216"/>
<path d="M29.1369 34.8052C29.0284 34.997 28.92 35.1888 28.6475 35.4394C28.375 35.6898 27.9384 35.9991 27.4836 36.3016C27.0288 36.604 26.5558 36.8996 26.0441 37.1725C25.5324 37.4454 24.9821 37.6956 24.5455 37.882C24.1089 38.0685 23.7859 38.1913 23.4904 38.2686C23.1947 38.3459 22.9263 38.3778 22.7506 38.3648C22.5747 38.3517 22.4915 38.2938 22.4082 38.2359" stroke="white" stroke-width="0.216"/>
<path d="M27.9934 45.2457C27.6113 44.7681 27.2292 44.2906 26.7995 43.5742C26.3697 42.8579 25.8921 41.9028 25.5214 41.1501C25.1508 40.3974 24.887 39.8471 24.6869 39.4037C24.4867 38.9602 24.3503 38.6237 24.2139 38.2871" stroke="white" stroke-width="0.216"/>
<path d="M30.2174 45.0818C29.8081 44.1858 29.3988 43.2898 28.9099 42.3097C28.421 41.3296 27.8524 40.2653 27.4454 39.5126C27.0384 38.7599 26.7927 38.3187 26.5722 37.9618C26.3516 37.6047 26.156 37.3318 25.965 37.1567C25.8474 37.0489 25.7315 36.9782 25.6348 36.9302" stroke="white" stroke-width="0.216"/>
<path d="M25.1143 37.168C25.1143 37.3908 25.1143 37.6137 25.1371 37.8388C25.1598 38.0639 25.2052 38.2913 25.3713 38.7348C25.5373 39.1783 25.8238 39.8377 26.29 40.7428C26.7562 41.6478 27.402 42.7985 27.8408 43.5512C28.2798 44.304 28.5117 44.6587 28.7437 45.0134" stroke="white" stroke-width="0.216"/>
<path d="M32.6796 33.792C31.5557 33.792 30.6445 33.94 30.6445 34.1226C30.6445 34.3051 31.5557 34.4531 32.6796 34.4531C33.8035 34.4531 34.7146 34.3051 34.7146 34.1226C34.7146 33.94 33.8035 33.792 32.6796 33.792Z" stroke="white" stroke-width="0.216"/>
<path d="M30.6379 36.1902C30.617 36.1778 30.5962 36.1654 30.575 36.1503C30.5538 36.1353 30.5323 36.1177 30.5107 36.1001" stroke="white" stroke-width="0.216"/>
<path d="M30.1271 36.8999C30.1172 36.8784 30.1075 36.8569 30.0977 36.8354" stroke="white" stroke-width="0.216"/>
<path d="M35.2344 36.8973C35.2454 36.8727 35.2564 36.848 35.2675 36.8232" stroke="white" stroke-width="0.216"/>
<path d="M24.8175 43.5546C24.6579 43.2687 24.4962 42.9738 24.3543 42.712C24.061 42.1708 23.8517 41.7705 23.6312 41.3407C23.4106 40.911 23.1786 40.4516 23.0113 40.0562C22.844 39.6609 22.7413 39.3294 22.6387 38.998" stroke="white" stroke-width="0.216"/>
<path d="M13 35.6913C13.1828 35.3873 13.3655 35.0833 13.6421 34.7665C13.9187 34.4495 14.2892 34.1198 14.743 33.7803C15.1969 33.4407 15.734 33.0914 16.5226 32.7174C17.3111 32.3434 18.351 31.9446 19.276 31.6399C20.201 31.3352 21.011 31.1246 21.7975 31.0059C22.584 30.8871 23.3469 30.8603 24.0329 30.9013C24.7189 30.9423 25.3279 31.0511 25.8747 31.2383C26.4215 31.4254 26.9061 31.691 27.3446 31.9753C27.7832 32.2596 28.1756 32.5625 28.4394 32.8587C28.7033 33.1549 28.8383 33.4444 28.8961 33.7069C28.9538 33.9694 28.9342 34.205 28.8396 34.4778C28.7452 34.7506 28.5758 35.0605 28.3213 35.3559C28.0669 35.6512 27.7273 35.9318 27.2907 36.1964C26.8541 36.4609 26.3204 36.7092 25.7498 36.8937C25.1792 37.0782 24.5717 37.1987 24.0387 37.2621C23.5057 37.3255 23.0471 37.3318 22.641 37.3026C22.2349 37.2734 21.8813 37.2087 21.5623 37.0886C21.2434 36.9686 20.9592 36.7933 20.7721 36.6342C20.585 36.475 20.495 36.3319 20.3633 36.0164C20.2318 35.7009 20.0587 35.213 19.8855 34.725" stroke="white" stroke-width="0.216"/>
<path d="M25.4933 34.7679C25.0495 34.5601 24.6057 34.3523 23.9731 34.2605C23.3406 34.1687 22.5192 34.1929 21.7103 34.3133C20.9012 34.4337 20.1046 34.6504 19.3209 34.9281C18.5373 35.2057 17.7667 35.5445 17.1698 35.8117C16.5729 36.0789 16.1496 36.2745 15.7491 36.4134C15.3487 36.5523 14.9711 36.6345 14.5938 36.6616C14.2165 36.6888 13.8396 36.6609 13.5851 36.5817C13.3305 36.5025 13.1982 36.372 13.1212 36.2151C13.0442 36.0581 13.0223 35.8748 13.0114 35.7832C13.0004 35.6916 13.0004 35.6916 13.12 35.7809C13.2396 35.8703 13.4787 36.049 13.8075 36.1261C14.1362 36.2032 14.5546 36.1788 15.276 35.9796C15.9975 35.7803 17.022 35.4061 17.871 35.079C18.72 34.7519 19.3936 34.472 20.0285 34.2535C20.6634 34.0349 21.2597 33.8778 21.9034 33.7815C22.5473 33.6852 23.2384 33.6497 23.7655 33.623C24.2926 33.5963 24.6554 33.5785 25.0183 33.5605" stroke="white" stroke-width="0.216"/>
<path d="M21.0085 35.1209C20.9033 35.1721 20.8137 35.2736 20.7611 35.3741C20.7086 35.4746 20.6932 35.574 20.7069 35.6749C20.7207 35.7757 20.7636 35.8778 20.8336 35.9743C20.9036 36.071 21.0007 36.1619 21.1209 36.2536C21.2412 36.3452 21.3846 36.4375 21.5262 36.4953C21.6678 36.5531 21.8073 36.5766 21.9175 36.5514C22.0277 36.5261 22.1086 36.4521 22.1673 36.3623C22.226 36.2724 22.2625 36.1667 22.2471 36.0415C22.2315 35.9162 22.164 35.7715 22.0581 35.6331C21.9523 35.4948 21.808 35.3628 21.6844 35.2697C21.5608 35.1766 21.4578 35.1222 21.346 35.0955C21.2342 35.0688 21.1135 35.0697 21.0085 35.1209Z" stroke="white" stroke-width="0.216"/>
<path d="M24.3105 34.9092C24.4175 35.257 24.5246 35.6048 24.6235 35.9449C24.7224 36.2852 24.8131 36.6178 24.9039 36.9503" stroke="white" stroke-width="0.216"/>
<path d="M25.8408 45.4751C25.9758 45.9039 27.4162 46.2415 29.1733 46.2415C30.8437 46.2415 32.2279 45.9365 32.4764 45.5379" stroke="white" stroke-width="0.216"/>
<path d="M32.4766 45.5379C32.7433 45.1697 33.0098 44.8016 33.1604 44.5908C33.3109 44.3801 33.3455 44.3268 33.3801 44.2734" stroke="white" stroke-width="0.216"/>
<path d="M25.9881 45.6625C25.8401 45.478 25.6919 45.2935 25.4968 44.9422C25.3017 44.5909 25.0596 44.0728 24.8174 43.5547" stroke="white" stroke-width="0.216"/>
<path d="M29.0145 50.4346C27.334 50.4346 25.9717 51.0305 25.9717 51.7655C25.9717 52.5005 27.334 53.0964 29.0145 53.0964C30.6949 53.0964 32.0572 52.5005 32.0572 51.7655C32.0572 51.0305 30.6949 50.4346 29.0145 50.4346Z" stroke="white" stroke-width="0.216"/>
<path d="M29.0143 50.8638C27.8759 50.8638 26.9531 51.2675 26.9531 51.7654C26.9531 52.2633 27.8759 52.667 29.0143 52.667C30.1526 52.667 31.0754 52.2633 31.0754 51.7654C31.0754 51.2675 30.1526 50.8638 29.0143 50.8638Z" stroke="white" stroke-width="0.216"/>
<path d="M30.7888 52.2246C30.9666 52.1297 31.0687 52.0189 31.0687 51.9006C31.0687 51.5475 30.159 51.2612 29.0366 51.2612C27.9537 51.2612 27.0687 51.5277 27.0078 51.8636" stroke="white" stroke-width="0.216"/>
<path d="M26.5171 52.5265C26.4696 52.5951 26.4443 52.6669 26.4443 52.7407C26.4443 53.2386 27.592 53.6423 29.0076 53.6423C30.4233 53.6423 31.5709 53.2386 31.5709 52.7407C31.5709 52.6688 31.5471 52.599 31.502 52.532M30.9205 52.1405C30.9132 52.1376 30.9056 52.1347 30.8981 52.1318" stroke="white" stroke-width="0.216"/>
<path d="M26.3701 52.4507L26.5203 53.03" stroke="white" stroke-width="0.216"/>
<path d="M27.8018 53.0137L27.8752 53.5725" stroke="white" stroke-width="0.216"/>
<path d="M31.9785 45.8887C31.9825 47.1301 31.9825 48.2795 31.96 48.9014C31.9538 49.0737 31.9458 49.2055 31.9348 49.3071M27.0184 49.7863C26.8367 49.6789 26.6779 49.5617 26.5717 49.4532C26.4324 49.3112 26.3832 49.1841 26.3586 49.1206C26.3341 49.0571 26.3341 49.0571 26.3322 48.4197C26.3307 47.9135 26.3281 47.0054 26.3252 46.0145" stroke="white" stroke-width="0.216"/>
<path d="M26.3602 49.1247C26.3458 49.1605 26.3386 49.1968 26.3389 49.2337C26.3432 49.7085 27.6055 50.0821 29.1584 50.0681C30.7113 50.0541 31.9667 49.6578 31.9625 49.1831C31.9622 49.1571 31.9582 49.1314 31.9506 49.106" stroke="white" stroke-width="0.216"/>
<path d="M26.3408 46.8869C26.4259 47.3388 27.6551 47.6871 29.1556 47.6736C30.656 47.6602 31.8789 47.2897 31.9558 46.8364" stroke="white" stroke-width="0.216"/>
<path d="M26.3682 45.9152C26.4532 46.3671 27.6825 46.7154 29.183 46.7018C30.6834 46.6884 31.9062 46.318 31.9832 45.8647" stroke="white" stroke-width="0.216"/>
<path d="M26.3721 46.3209C26.4571 46.7728 27.6865 47.1211 29.1869 47.1076C30.6874 47.0941 31.9102 46.7237 31.9871 46.2705" stroke="white" stroke-width="0.216"/>
<path d="M26.376 46.7273C26.461 47.1791 27.6903 47.5274 29.1908 47.514C30.6912 47.5004 31.914 47.1301 31.991 46.6768" stroke="white" stroke-width="0.216"/>
<path d="M26.3799 47.133C26.4649 47.5849 27.6943 47.9333 29.1947 47.9197C30.6952 47.9062 31.918 47.5358 31.9949 47.0825" stroke="white" stroke-width="0.216"/>
<path d="M26.3828 47.5388C26.4679 47.9906 27.6972 48.3389 29.1977 48.3255C30.6981 48.312 31.921 47.9416 31.9979 47.4883" stroke="white" stroke-width="0.216"/>
<path d="M26.3867 47.945C26.4717 48.3968 27.7011 48.7451 29.2015 48.7316C30.702 48.7181 31.9248 48.3477 32.0017 47.8945" stroke="white" stroke-width="0.216"/>
<path d="M26.3906 48.3509C26.4757 48.8026 27.705 49.151 29.2055 49.1374C30.7059 49.124 31.9288 48.7536 32.0057 48.3003" stroke="white" stroke-width="0.216"/>
<path d="M26.3936 48.7569C26.4787 49.2088 27.708 49.5571 29.2084 49.5437C30.7089 49.5301 31.9317 49.1598 32.0086 48.7065" stroke="white" stroke-width="0.216"/>
<path d="M34.7847 33.437C34.8528 33.4971 34.8901 33.5618 34.8915 33.6295C34.8992 33.9947 33.8584 34.3126 32.567 34.3395C31.2755 34.3663 30.2224 34.092 30.2149 33.7267C30.2134 33.659 30.2481 33.5929 30.3136 33.53" stroke="white" stroke-width="0.216"/>
<path d="M34.785 33.437C34.8081 33.4727 34.8205 33.5096 34.8213 33.5475C34.8286 33.9021 33.8185 34.2106 32.5651 34.2367C31.3117 34.2627 30.2896 33.9965 30.2823 33.642C30.2815 33.604 30.2924 33.5666 30.3139 33.53" stroke="white" stroke-width="0.216"/>
<path d="M34.9812 36.2061L34.9815 36.2114C34.989 36.5767 33.9483 36.8946 32.6568 36.9215C31.3654 36.9483 30.3123 36.674 30.3047 36.3087" stroke="white" stroke-width="0.216"/>
<path d="M30.2158 33.7134L30.3052 36.3084" stroke="white" stroke-width="0.216"/>
<path d="M34.8916 33.6294L34.9814 36.2113" stroke="white" stroke-width="0.216"/>
<path d="M34.7875 34.0889C34.4623 34.2772 33.8393 34.4217 33.0986 34.4672" stroke="white" stroke-width="0.216"/>
<path d="M34.8002 35.0952C34.4751 35.2835 33.852 35.428 33.1113 35.4735" stroke="white" stroke-width="0.216"/>
<path d="M33.0986 34.4673L33.1116 35.4732" stroke="white" stroke-width="0.216"/>
<path d="M34.7871 34.0889L34.8001 35.0948" stroke="white" stroke-width="0.216"/>
<path d="M53.856 8.19741C52.5484 8.43131 51.5404 8.73421 51.6045 8.87391C51.6685 9.01371 52.7804 8.93731 54.0879 8.70351C55.3955 8.46951 56.4035 8.16661 56.3394 8.02691C56.2754 7.88721 55.1635 7.96351 53.856 8.19741Z" stroke="white" stroke-width="0.216"/>
<path d="M53.8719 8.23237C52.746 8.43377 51.878 8.69467 51.9332 8.81487C51.9883 8.93527 52.9458 8.86957 54.0716 8.66817C55.1976 8.46677 56.0655 8.20587 56.0103 8.08557C55.9552 7.96527 54.9977 8.03097 53.8719 8.23237Z" stroke="white" stroke-width="0.216"/>
<path d="M54.118 9.57559C52.9921 9.77709 52.1241 10.0378 52.1793 10.1582C52.2345 10.2785 53.1919 10.2128 54.3178 10.0114C55.4437 9.80999 56.3116 9.54909 56.2565 9.42879C56.2013 9.30859 55.2439 9.37419 54.118 9.57559Z" stroke="white" stroke-width="0.216"/>
<path d="M56.0098 8.08594L56.2579 9.43544" stroke="white" stroke-width="0.216"/>
<path d="M51.9326 8.81543L52.1766 10.1519" stroke="white" stroke-width="0.216"/>
<path d="M30.4209 33.4853C30.4316 32.9112 30.4424 32.337 30.4599 31.8444C30.4775 31.3518 30.502 30.9408 30.5237 30.5174C30.5455 30.0941 30.5645 29.6584 30.5835 29.2122C30.6026 28.7661 30.6218 28.3095 30.6314 28.0812C30.641 27.853 30.641 27.853 30.67 27.4552C30.6992 27.0575 30.7573 26.262 30.8656 25.467C30.974 24.6719 31.1326 23.8774 31.3409 23.0378C31.5492 22.1982 31.8071 21.3136 32.0406 20.6296C32.274 19.9456 32.4829 19.4623 32.8195 18.799C33.156 18.1357 33.6201 17.2925 34.0022 16.636C34.3843 15.9794 34.6843 15.5096 35.1699 14.8638C35.6555 14.2179 36.3268 13.396 36.9049 12.7333C37.4832 12.0707 37.9683 11.5669 38.6281 10.9767C39.2881 10.3865 40.1227 9.7097 40.9376 9.1298C41.7525 8.5499 42.5477 8.0668 43.5516 7.5849C44.5555 7.103 45.768 6.6222 46.7747 6.2749C47.7814 5.9278 48.5823 5.7142 49.3979 5.5488C50.2137 5.3835 51.0441 5.2661 51.9252 5.175C52.8064 5.0837 53.7385 5.0185 54.3746 5.0034C55.0109 4.9884 55.3514 5.0235 55.6084 5.0988C55.8654 5.174 56.0389 5.2894 56.1476 5.5866C56.2563 5.8839 56.3003 6.363 56.3229 6.7969C56.3454 7.2308 56.3466 7.6193 56.3471 7.8136C56.3477 8.0079 56.3477 8.0079 56.3477 8.0079" stroke="white" stroke-width="0.216"/>
<path d="M51.6044 8.87415C51.5071 8.78305 51.4097 8.69185 51.3606 8.56665C51.3115 8.44145 51.3105 8.28235 51.31 8.20265C51.3096 8.12305 51.3096 8.12305 51.3096 8.12305" stroke="white" stroke-width="0.216"/>
<path d="M51.058 8.68311C50.4997 8.83621 49.9413 8.98931 49.2162 9.21131C48.4912 9.43331 47.5992 9.72421 46.8354 10.036C46.0716 10.3479 45.4359 10.6806 44.7259 11.1083C44.0159 11.536 43.2317 12.0586 42.5832 12.549C41.9346 13.0393 41.4219 13.4976 40.9426 13.9586C40.4635 14.4197 40.0178 14.8836 39.6114 15.355C39.205 15.8264 38.8379 16.3053 38.4735 16.8159C38.1092 17.3266 37.7476 17.8691 37.3392 18.6088C36.9309 19.3484 36.4759 20.2851 36.1359 21.0512C35.796 21.8174 35.5713 22.4127 35.3669 23.1126C35.1625 23.8125 34.9783 24.6169 34.8588 25.1889C34.7394 25.761 34.6846 26.1007 34.6276 26.6878C34.5707 27.275 34.5116 28.1096 34.4787 28.6975C34.446 29.2855 34.4395 29.6268 34.4362 29.8013C34.4329 29.9758 34.4328 29.9834 34.4326 29.991" stroke="white" stroke-width="0.216"/>
<path d="M34.4277 30.228C34.4559 30.7438 34.484 31.2597 34.5223 31.7906C34.5605 32.3217 34.6087 32.8679 34.6329 33.141C34.657 33.4142 34.657 33.4142 34.657 33.4142" stroke="white" stroke-width="0.216"/>
<path d="M34.4316 29.9785C34.4325 30.1076 34.4334 30.2366 34.4339 30.3012C34.4344 30.3658 34.4344 30.3658 34.4344 30.3658" stroke="white" stroke-width="0.216"/>
<path d="M34.805 33.455C34.7776 33.4321 34.7501 33.4093 34.7311 33.3969C34.7122 33.3844 34.7018 33.3824 34.6966 33.3814C34.6914 33.3804 34.6914 33.3804 34.6914 33.3804" stroke="white" stroke-width="0.216"/>
<path d="M30.2744 33.5726C30.3163 33.5358 30.3583 33.4989 30.3827 33.4801C30.4071 33.4613 30.414 33.4604 30.421 33.4595" stroke="white" stroke-width="0.216"/>
<path d="M51.7335 8.40923C51.6896 8.05803 51.6456 7.70683 51.6288 7.44343C51.6121 7.18003 51.6225 7.00453 51.4934 6.92863C51.3642 6.85263 51.0954 6.87643 50.4913 6.98373C49.8872 7.09113 48.9478 7.28193 47.9633 7.58823C46.9788 7.89453 45.9493 8.31613 44.9769 8.78903C44.0046 9.26183 43.0894 9.78583 42.3479 10.2309C41.6065 10.6761 41.0387 11.0426 40.3321 11.6863C39.6256 12.3301 38.7803 13.2512 38.0358 14.1401C37.2913 15.029 36.6475 15.8855 36.1793 16.6114C35.7111 17.3372 35.4184 17.9322 35.0647 18.6968C34.711 19.4615 34.2963 20.3957 34.0167 21.0148C33.7371 21.6339 33.5926 21.9378 33.5204 22.0898C33.4482 22.2418 33.4482 22.2418 33.4482 22.2418" stroke="white" stroke-width="0.216"/>
<path d="M51.0576 8.67039C51.1424 8.64719 51.2273 8.62389 51.3121 8.60059" stroke="white" stroke-width="0.216"/>
<path d="M54.7471 7.52751C54.6476 6.92371 54.5482 6.31971 54.5469 5.94701C54.5457 5.57411 54.6426 5.43241 54.7652 5.32981C54.8879 5.22701 55.0363 5.16331 55.1847 5.09961" stroke="white" stroke-width="0.216"/>
<path d="M53.6329 5.84961C53.0553 5.85331 52.4777 5.85701 51.5419 5.94661C50.6062 6.03631 49.3123 6.21191 48.2837 6.40871C47.2551 6.60531 46.4916 6.82301 45.5575 7.22221C44.6235 7.62131 43.5188 8.20201 42.9663 8.49231C42.4141 8.78261 42.4141 8.78261 42.4141 8.78261" stroke="white" stroke-width="0.216"/>
<defs>
<linearGradient id="paint0_linear_973_2042" x1="102" y1="0.000488281" x2="102" y2="58.0003" gradientUnits="userSpaceOnUse">
<stop stop-color="#101F52"/>
<stop offset="0.9999" stop-color="#101F52" stop-opacity="0.8125"/>
<stop offset="1" stop-color="#101F52" stop-opacity="0"/>
</linearGradient>
</defs>
</svg>
