<svg width="230" height="58" viewBox="0 0 230 58" fill="none" xmlns="http://www.w3.org/2000/svg">
<rect y="0.000488281" width="230" height="57.9998" rx="5" fill="url(#paint0_linear_962_1012)"/>
<path d="M108.203 48.6508C92.5833 49.9501 74.7645 53.3013 71.8242 53.8663C71.5402 53.9209 71.2814 54.0339 71.0451 54.2005C69.404 55.3577 70.2227 57.9397 72.2309 57.9397H224.923C227.684 57.9397 229.923 55.7012 229.923 52.9397V46.623C229.923 43.5411 227.162 41.1929 224.12 41.6879L216.713 42.8932L193.124 45.0043L169.773 47.0941C169.614 47.1083 169.48 47.115 169.32 47.1142C166.162 47.0969 128.856 46.9327 108.203 48.6508Z" fill="#0F2458" fill-opacity="0.5"/>
<path d="M136.198 49.99C124.291 51.091 110.724 53.9133 108.258 54.4386C107.997 54.4942 107.754 54.6089 107.544 54.7734C106.219 55.8121 106.953 57.94 108.637 57.94H224.923C227.684 57.94 229.923 55.7014 229.923 52.94V49.2081C229.923 46.0904 227.101 43.7331 224.033 44.2879L219.751 45.0623L201.588 46.8691L183.689 48.6496C183.512 48.6672 183.353 48.6754 183.176 48.6744C180.238 48.6574 151.938 48.5347 136.198 49.99Z" fill="#0D2862" fill-opacity="0.5"/>
<path d="M120.572 12.4689C135.612 10.7725 152.712 6.47027 156.315 5.53836C156.774 5.41944 157.183 5.18651 157.526 4.8584C159.364 3.10101 158.12 -1.80105e-05 155.577 -1.80105e-05L5.06866 -1.80105e-05C2.30723 -1.80105e-05 0.0686604 2.23856 0.0686604 4.99998L0.0686604 16.8596C0.0686604 20.0552 3.02533 22.4307 6.1459 21.7422L13.1465 20.1976L36.4998 17.3638L59.5309 14.569C59.7454 14.543 59.9365 14.5307 60.1526 14.5322C63.821 14.5583 100.3 14.7555 120.572 12.4689Z" fill="#0F2458" fill-opacity="0.7"/>
<path d="M105.965 9.37271C119.373 8.07915 134.643 4.76999 137.505 4.13444C137.821 4.06429 138.11 3.92139 138.361 3.71655C139.885 2.47011 139.003 7.23182e-05 137.035 7.23182e-05L5.06819 7.23182e-05C2.30676 7.23182e-05 0.0681898 2.23865 0.0681898 5.00007L0.0681898 11.3192C0.0681898 14.4523 2.91667 16.8135 5.99542 16.2325L11.5608 15.1822L32.0834 13.0521L52.3297 10.9506C52.5137 10.9315 52.6762 10.9225 52.8613 10.9236C56.0399 10.943 88.1352 11.0929 105.965 9.37271Z" fill="#0D2862" fill-opacity="0.7"/>
<path d="M80.072 27.12C79.6827 27.12 79.328 27.056 79.008 26.928C78.688 26.8 78.4133 26.6133 78.184 26.368C77.9547 26.1227 77.776 25.8213 77.648 25.464C77.5253 25.1013 77.464 24.688 77.464 24.224C77.464 23.76 77.5333 23.3493 77.672 22.992C77.816 22.6293 78.008 22.3253 78.248 22.08C78.488 21.8347 78.768 21.648 79.088 21.52C79.408 21.392 79.7493 21.328 80.112 21.328C80.3413 21.328 80.5467 21.344 80.728 21.376C80.9147 21.408 81.0747 21.4453 81.208 21.488C81.3467 21.5307 81.4587 21.5733 81.544 21.616C81.6293 21.6587 81.688 21.6907 81.72 21.712L81.496 22.352C81.448 22.32 81.3787 22.2853 81.288 22.248C81.1973 22.2107 81.0933 22.1733 80.976 22.136C80.864 22.0987 80.7387 22.0693 80.6 22.048C80.4667 22.0213 80.3307 22.008 80.192 22.008C79.8987 22.008 79.6347 22.0587 79.4 22.16C79.1653 22.2613 78.9653 22.408 78.8 22.6C78.6347 22.792 78.5067 23.0267 78.416 23.304C78.3307 23.576 78.288 23.8827 78.288 24.224C78.288 24.5547 78.3253 24.856 78.4 25.128C78.48 25.4 78.5973 25.6347 78.752 25.832C78.9067 26.024 79.0987 26.1733 79.328 26.28C79.5627 26.3867 79.8347 26.44 80.144 26.44C80.5013 26.44 80.7973 26.4027 81.032 26.328C81.2667 26.2533 81.4427 26.1867 81.56 26.128L81.76 26.768C81.7227 26.7947 81.656 26.8293 81.56 26.872C81.464 26.9093 81.344 26.9467 81.2 26.984C81.056 27.0213 80.888 27.0533 80.696 27.08C80.504 27.1067 80.296 27.12 80.072 27.12ZM83.3929 23.936C83.3396 24.464 83.2996 24.992 83.2729 25.52C83.2463 26.0427 83.2249 26.536 83.2089 27H82.4969C82.5076 26.6747 82.5236 26.336 82.5449 25.984C82.5663 25.6267 82.5903 25.2693 82.6169 24.912C82.6436 24.5493 82.6729 24.1947 82.7049 23.848C82.7369 23.496 82.7716 23.16 82.8089 22.84H83.4889C83.6596 23.1173 83.8596 23.4987 84.0889 23.984C84.3183 24.464 84.5823 25.0187 84.8809 25.648C85.1796 25.0187 85.4436 24.464 85.6729 23.984C85.9023 23.4987 86.1023 23.1173 86.2729 22.84H86.9609C86.9983 23.16 87.0329 23.496 87.0649 23.848C87.0969 24.1947 87.1263 24.5493 87.1529 24.912C87.1796 25.2693 87.2036 25.6267 87.2249 25.984C87.2463 26.336 87.2623 26.6747 87.2729 27H86.5369C86.5209 26.536 86.4996 26.0427 86.4729 25.52C86.4463 24.992 86.4063 24.464 86.3529 23.936C86.2676 24.1013 86.1689 24.3013 86.0569 24.536C85.9449 24.7653 85.8329 25 85.7209 25.24C85.6143 25.48 85.5129 25.7093 85.4169 25.928C85.3209 26.1467 85.2463 26.32 85.1929 26.448H84.5689C84.5103 26.3147 84.4303 26.1387 84.3289 25.92C84.2329 25.7013 84.1289 25.472 84.0169 25.232C83.9103 24.9867 83.8009 24.7493 83.6889 24.52C83.5769 24.2853 83.4783 24.0907 83.3929 23.936ZM88.2205 24.928C88.2205 24.56 88.2738 24.24 88.3805 23.968C88.4872 23.6907 88.6285 23.4613 88.8045 23.28C88.9805 23.0987 89.1832 22.9627 89.4125 22.872C89.6418 22.7813 89.8765 22.736 90.1165 22.736C90.6765 22.736 91.1058 22.912 91.4045 23.264C91.7032 23.6107 91.8525 24.1413 91.8525 24.856C91.8525 24.888 91.8525 24.9307 91.8525 24.984C91.8525 25.032 91.8498 25.0773 91.8445 25.12H88.9965C89.0285 25.552 89.1538 25.88 89.3725 26.104C89.5912 26.328 89.9325 26.44 90.3965 26.44C90.6578 26.44 90.8765 26.4187 91.0525 26.376C91.2338 26.328 91.3698 26.2827 91.4605 26.24L91.5645 26.864C91.4738 26.912 91.3138 26.9627 91.0845 27.016C90.8605 27.0693 90.6045 27.096 90.3165 27.096C89.9538 27.096 89.6392 27.0427 89.3725 26.936C89.1112 26.824 88.8952 26.672 88.7245 26.48C88.5538 26.288 88.4258 26.0613 88.3405 25.8C88.2605 25.5333 88.2205 25.2427 88.2205 24.928ZM91.0765 24.52C91.0818 24.184 90.9965 23.9093 90.8205 23.696C90.6498 23.4773 90.4125 23.368 90.1085 23.368C89.9378 23.368 89.7858 23.4027 89.6525 23.472C89.5245 23.536 89.4152 23.6213 89.3245 23.728C89.2338 23.8347 89.1618 23.9573 89.1085 24.096C89.0605 24.2347 89.0285 24.376 89.0125 24.52H91.0765ZM94.7293 27.096C94.3933 27.096 94.0973 27.0427 93.8413 26.936C93.5906 26.8293 93.3773 26.68 93.2013 26.488C93.0306 26.296 92.9026 26.0693 92.8173 25.808C92.7319 25.5413 92.6893 25.248 92.6893 24.928C92.6893 24.608 92.7346 24.3147 92.8253 24.048C92.9213 23.7813 93.0546 23.552 93.2253 23.36C93.3959 23.1627 93.6039 23.0107 93.8493 22.904C94.0999 22.792 94.3773 22.736 94.6813 22.736C94.8679 22.736 95.0546 22.752 95.2413 22.784C95.4279 22.816 95.6066 22.8667 95.7773 22.936L95.6093 23.568C95.4973 23.5147 95.3666 23.472 95.2173 23.44C95.0733 23.408 94.9186 23.392 94.7533 23.392C94.3373 23.392 94.0173 23.5227 93.7933 23.784C93.5746 24.0453 93.4653 24.4267 93.4653 24.928C93.4653 25.152 93.4893 25.3573 93.5373 25.544C93.5906 25.7307 93.6706 25.8907 93.7773 26.024C93.8893 26.1573 94.0306 26.2613 94.2013 26.336C94.3719 26.4053 94.5799 26.44 94.8253 26.44C95.0226 26.44 95.2013 26.4213 95.3613 26.384C95.5213 26.3467 95.6466 26.3067 95.7373 26.264L95.8413 26.888C95.7986 26.9147 95.7373 26.9413 95.6573 26.968C95.5773 26.9893 95.4866 27.008 95.3853 27.024C95.2839 27.0453 95.1746 27.0613 95.0573 27.072C94.9453 27.088 94.8359 27.096 94.7293 27.096ZM100.136 22.84V27H99.416V23.832C99.256 24.0347 99.08 24.272 98.888 24.544C98.696 24.816 98.504 25.0987 98.312 25.392C98.12 25.68 97.936 25.9653 97.76 26.248C97.584 26.5307 97.432 26.7813 97.304 27H96.64V22.84H97.36V25.832C97.4987 25.6027 97.656 25.352 97.832 25.08C98.008 24.8027 98.1893 24.5307 98.376 24.264C98.568 23.992 98.7573 23.7333 98.944 23.488C99.136 23.2373 99.3147 23.0213 99.48 22.84H100.136ZM104.349 22.84V23.464H102.997V27H102.253V23.464H100.901V22.84H104.349ZM104.885 24.928C104.885 24.56 104.938 24.24 105.045 23.968C105.151 23.6907 105.293 23.4613 105.469 23.28C105.645 23.0987 105.847 22.9627 106.077 22.872C106.306 22.7813 106.541 22.736 106.781 22.736C107.341 22.736 107.77 22.912 108.069 23.264C108.367 23.6107 108.517 24.1413 108.517 24.856C108.517 24.888 108.517 24.9307 108.517 24.984C108.517 25.032 108.514 25.0773 108.509 25.12H105.661C105.693 25.552 105.818 25.88 106.037 26.104C106.255 26.328 106.597 26.44 107.061 26.44C107.322 26.44 107.541 26.4187 107.717 26.376C107.898 26.328 108.034 26.2827 108.125 26.24L108.229 26.864C108.138 26.912 107.978 26.9627 107.749 27.016C107.525 27.0693 107.269 27.096 106.981 27.096C106.618 27.096 106.303 27.0427 106.037 26.936C105.775 26.824 105.559 26.672 105.389 26.48C105.218 26.288 105.09 26.0613 105.005 25.8C104.925 25.5333 104.885 25.2427 104.885 24.928ZM107.741 24.52C107.746 24.184 107.661 23.9093 107.485 23.696C107.314 23.4773 107.077 23.368 106.773 23.368C106.602 23.368 106.45 23.4027 106.317 23.472C106.189 23.536 106.079 23.6213 105.989 23.728C105.898 23.8347 105.826 23.9573 105.773 24.096C105.725 24.2347 105.693 24.376 105.677 24.52H107.741ZM111.033 23.464C111.033 23.64 111.028 23.8293 111.017 24.032C111.012 24.2293 110.999 24.4293 110.977 24.632C110.956 24.8293 110.927 25.0267 110.889 25.224C110.852 25.416 110.804 25.5973 110.745 25.768C110.687 25.9387 110.612 26.0987 110.521 26.248C110.436 26.3973 110.329 26.5307 110.201 26.648C110.073 26.76 109.924 26.856 109.753 26.936C109.583 27.0107 109.383 27.0587 109.153 27.08L109.049 26.456C109.311 26.4027 109.516 26.304 109.665 26.16C109.82 26.016 109.943 25.84 110.033 25.632C110.113 25.4507 110.172 25.2453 110.209 25.016C110.247 24.7867 110.273 24.5493 110.289 24.304C110.305 24.0533 110.313 23.8027 110.313 23.552C110.319 23.3013 110.321 23.064 110.321 22.84H113.089V27H112.345V23.464H111.033ZM115.943 26.48C116.257 26.48 116.505 26.4187 116.687 26.296C116.868 26.1733 116.959 25.976 116.959 25.704C116.959 25.5707 116.932 25.456 116.879 25.36C116.825 25.264 116.751 25.1867 116.655 25.128C116.564 25.064 116.457 25.0187 116.335 24.992C116.212 24.96 116.081 24.944 115.943 24.944C115.799 24.944 115.649 24.9493 115.495 24.96C115.345 24.9653 115.217 24.9813 115.111 25.008V26.44C115.143 26.4453 115.191 26.4507 115.255 26.456C115.319 26.4613 115.388 26.4667 115.463 26.472C115.543 26.472 115.623 26.4747 115.703 26.48C115.788 26.48 115.868 26.48 115.943 26.48ZM114.367 26.912V22.84H115.111V24.432C115.153 24.4213 115.209 24.4107 115.279 24.4C115.353 24.3893 115.431 24.3787 115.511 24.368C115.596 24.3573 115.684 24.3493 115.775 24.344C115.865 24.3387 115.951 24.336 116.031 24.336C116.26 24.336 116.476 24.3627 116.679 24.416C116.881 24.464 117.057 24.544 117.207 24.656C117.361 24.7627 117.484 24.904 117.575 25.08C117.665 25.2507 117.711 25.456 117.711 25.696C117.711 25.9467 117.668 26.16 117.583 26.336C117.497 26.512 117.375 26.656 117.215 26.768C117.055 26.88 116.863 26.96 116.639 27.008C116.42 27.0613 116.175 27.088 115.903 27.088C115.636 27.088 115.375 27.072 115.119 27.04C114.863 27.0133 114.612 26.9707 114.367 26.912ZM119.933 26.392H120.381C120.557 26.136 120.695 25.872 120.797 25.6C120.903 25.328 120.983 25.048 121.037 24.76C121.09 24.4667 121.125 24.1627 121.141 23.848C121.157 23.528 121.167 23.192 121.173 22.84H123.901V26.392H124.461V28.16H123.757V27H120.637V28.16H119.933V26.392ZM123.157 26.392V23.464H121.853C121.847 23.7147 121.834 23.968 121.813 24.224C121.791 24.4747 121.757 24.7253 121.709 24.976C121.661 25.2213 121.591 25.464 121.501 25.704C121.415 25.9387 121.306 26.168 121.173 26.392H123.157ZM126.885 23.464C126.885 23.64 126.88 23.8293 126.869 24.032C126.864 24.2293 126.85 24.4293 126.829 24.632C126.808 24.8293 126.778 25.0267 126.741 25.224C126.704 25.416 126.656 25.5973 126.597 25.768C126.538 25.9387 126.464 26.0987 126.373 26.248C126.288 26.3973 126.181 26.5307 126.053 26.648C125.925 26.76 125.776 26.856 125.605 26.936C125.434 27.0107 125.234 27.0587 125.005 27.08L124.901 26.456C125.162 26.4027 125.368 26.304 125.517 26.16C125.672 26.016 125.794 25.84 125.885 25.632C125.965 25.4507 126.024 25.2453 126.061 25.016C126.098 24.7867 126.125 24.5493 126.141 24.304C126.157 24.0533 126.165 23.8027 126.165 23.552C126.17 23.3013 126.173 23.064 126.173 22.84H128.941V27H128.197V23.464H126.885ZM131.938 25.384C131.858 25.384 131.781 25.384 131.706 25.384C131.631 25.3787 131.559 25.3733 131.49 25.368C131.319 25.624 131.154 25.8987 130.994 26.192C130.839 26.48 130.701 26.7493 130.578 27H129.826C129.89 26.8453 129.965 26.688 130.05 26.528C130.135 26.3627 130.221 26.2027 130.306 26.048C130.397 25.8933 130.487 25.7467 130.578 25.608C130.669 25.4693 130.754 25.344 130.834 25.232C130.685 25.1787 130.562 25.1147 130.466 25.04C130.37 24.96 130.293 24.872 130.234 24.776C130.175 24.68 130.133 24.5787 130.106 24.472C130.085 24.36 130.074 24.248 130.074 24.136C130.074 23.9013 130.117 23.696 130.202 23.52C130.293 23.344 130.415 23.2 130.57 23.088C130.725 22.9707 130.906 22.8827 131.114 22.824C131.327 22.7653 131.559 22.736 131.81 22.736C132.162 22.736 132.461 22.752 132.706 22.784C132.951 22.816 133.157 22.8533 133.322 22.896V27H132.586V25.384H131.938ZM132.586 23.392C132.527 23.3813 132.429 23.3707 132.29 23.36C132.157 23.3493 132.002 23.344 131.826 23.344C131.522 23.344 131.277 23.408 131.09 23.536C130.903 23.6587 130.81 23.856 130.81 24.128C130.81 24.3947 130.906 24.5787 131.098 24.68C131.29 24.7813 131.538 24.832 131.842 24.832H132.586V23.392ZM137.181 26.44C137.213 26.4453 137.258 26.4507 137.317 26.456C137.375 26.4613 137.442 26.4667 137.517 26.472C137.591 26.472 137.669 26.4747 137.749 26.48C137.834 26.48 137.914 26.48 137.989 26.48C138.143 26.48 138.29 26.4693 138.429 26.448C138.573 26.4267 138.695 26.3893 138.797 26.336C138.903 26.2827 138.986 26.2133 139.045 26.128C139.109 26.0373 139.141 25.9227 139.141 25.784C139.141 25.6507 139.111 25.5413 139.053 25.456C138.999 25.3653 138.925 25.2933 138.829 25.24C138.733 25.1867 138.618 25.1493 138.485 25.128C138.357 25.1067 138.218 25.096 138.069 25.096H137.181V26.44ZM137.973 24.544C138.117 24.544 138.247 24.536 138.365 24.52C138.487 24.4987 138.591 24.464 138.677 24.416C138.767 24.368 138.837 24.304 138.885 24.224C138.938 24.144 138.965 24.0427 138.965 23.92C138.965 23.792 138.933 23.6907 138.869 23.616C138.805 23.5413 138.719 23.4853 138.613 23.448C138.511 23.4053 138.394 23.3787 138.261 23.368C138.133 23.352 138.002 23.344 137.868 23.344C137.746 23.344 137.621 23.3467 137.493 23.352C137.37 23.3573 137.266 23.3627 137.181 23.368V24.544H137.973ZM137.957 27.072C137.642 27.072 137.351 27.056 137.085 27.024C136.818 26.9973 136.607 26.9653 136.453 26.928V22.88C136.607 22.8427 136.818 22.8107 137.085 22.784C137.351 22.752 137.642 22.736 137.957 22.736C138.175 22.736 138.389 22.7547 138.597 22.792C138.805 22.8293 138.989 22.8933 139.149 22.984C139.309 23.0693 139.437 23.1893 139.533 23.344C139.634 23.4933 139.685 23.68 139.685 23.904C139.685 24.1067 139.634 24.28 139.533 24.424C139.431 24.568 139.295 24.68 139.125 24.76C139.354 24.84 139.535 24.96 139.669 25.12C139.807 25.2747 139.877 25.4933 139.877 25.776C139.877 26.0267 139.826 26.2347 139.725 26.4C139.629 26.5653 139.493 26.6987 139.317 26.8C139.146 26.9013 138.943 26.9707 138.709 27.008C138.474 27.0507 138.223 27.072 137.957 27.072ZM142.243 26.464C142.419 26.464 142.574 26.4613 142.707 26.456C142.846 26.4453 142.961 26.4293 143.051 26.408V25.168C142.998 25.1413 142.91 25.12 142.787 25.104C142.67 25.0827 142.526 25.072 142.355 25.072C142.243 25.072 142.123 25.08 141.995 25.096C141.873 25.112 141.758 25.1467 141.651 25.2C141.55 25.248 141.465 25.3173 141.395 25.408C141.326 25.4933 141.291 25.608 141.291 25.752C141.291 26.0187 141.377 26.2053 141.547 26.312C141.718 26.4133 141.95 26.464 142.243 26.464ZM142.179 22.736C142.478 22.736 142.729 22.776 142.931 22.856C143.139 22.9307 143.305 23.04 143.427 23.184C143.555 23.3227 143.646 23.4907 143.699 23.688C143.753 23.88 143.779 24.0933 143.779 24.328V26.928C143.715 26.9387 143.625 26.9547 143.507 26.976C143.395 26.992 143.267 27.008 143.123 27.024C142.979 27.04 142.822 27.0533 142.651 27.064C142.486 27.08 142.321 27.088 142.155 27.088C141.921 27.088 141.705 27.064 141.507 27.016C141.31 26.968 141.139 26.8933 140.995 26.792C140.851 26.6853 140.739 26.5467 140.659 26.376C140.579 26.2053 140.539 26 140.539 25.76C140.539 25.5307 140.585 25.3333 140.675 25.168C140.771 25.0027 140.899 24.8693 141.059 24.768C141.219 24.6667 141.406 24.592 141.619 24.544C141.833 24.496 142.057 24.472 142.291 24.472C142.366 24.472 142.443 24.4773 142.523 24.488C142.603 24.4933 142.678 24.504 142.747 24.52C142.822 24.5307 142.886 24.5413 142.939 24.552C142.993 24.5627 143.03 24.5707 143.051 24.576V24.368C143.051 24.2453 143.038 24.1253 143.011 24.008C142.985 23.8853 142.937 23.7787 142.867 23.688C142.798 23.592 142.702 23.5173 142.579 23.464C142.462 23.4053 142.307 23.376 142.115 23.376C141.87 23.376 141.654 23.3947 141.467 23.432C141.286 23.464 141.15 23.4987 141.059 23.536L140.971 22.92C141.067 22.8773 141.227 22.8373 141.451 22.8C141.675 22.7573 141.918 22.736 142.179 22.736ZM148.423 27H147.679V25.16H145.759V27H145.015V22.84H145.759V24.536H147.679V22.84H148.423V27ZM153.111 27H152.367V25.16H150.447V27H149.703V22.84H150.447V24.536H152.367V22.84H153.111V27ZM158.062 24.92C158.062 25.2507 158.014 25.5493 157.918 25.816C157.822 26.0827 157.686 26.312 157.51 26.504C157.339 26.696 157.134 26.8453 156.894 26.952C156.654 27.0533 156.393 27.104 156.11 27.104C155.827 27.104 155.566 27.0533 155.326 26.952C155.086 26.8453 154.878 26.696 154.702 26.504C154.531 26.312 154.398 26.0827 154.302 25.816C154.206 25.5493 154.158 25.2507 154.158 24.92C154.158 24.5947 154.206 24.2987 154.302 24.032C154.398 23.76 154.531 23.528 154.702 23.336C154.878 23.144 155.086 22.9973 155.326 22.896C155.566 22.7893 155.827 22.736 156.11 22.736C156.393 22.736 156.654 22.7893 156.894 22.896C157.134 22.9973 157.339 23.144 157.51 23.336C157.686 23.528 157.822 23.76 157.918 24.032C158.014 24.2987 158.062 24.5947 158.062 24.92ZM157.286 24.92C157.286 24.4507 157.179 24.08 156.966 23.808C156.758 23.5307 156.473 23.392 156.11 23.392C155.747 23.392 155.459 23.5307 155.246 23.808C155.038 24.08 154.934 24.4507 154.934 24.92C154.934 25.3893 155.038 25.7627 155.246 26.04C155.459 26.312 155.747 26.448 156.11 26.448C156.473 26.448 156.758 26.312 156.966 26.04C157.179 25.7627 157.286 25.3893 157.286 24.92ZM162.605 22.84V27H161.885V23.832C161.725 24.0347 161.549 24.272 161.357 24.544C161.165 24.816 160.973 25.0987 160.781 25.392C160.589 25.68 160.405 25.9653 160.229 26.248C160.053 26.5307 159.901 26.7813 159.773 27H159.109V22.84H159.829V25.832C159.967 25.6027 160.125 25.352 160.301 25.08C160.477 24.8027 160.658 24.5307 160.845 24.264C161.037 23.992 161.226 23.7333 161.413 23.488C161.605 23.2373 161.783 23.0213 161.949 22.84H162.605ZM160.861 22.168C160.525 22.168 160.25 22.0827 160.037 21.912C159.829 21.7413 159.703 21.504 159.661 21.2L160.229 21.048C160.271 21.2187 160.343 21.3573 160.445 21.464C160.546 21.5707 160.685 21.624 160.861 21.624C161.037 21.624 161.175 21.5707 161.277 21.464C161.378 21.3573 161.45 21.2187 161.493 21.048L162.053 21.2C162.01 21.504 161.885 21.7413 161.677 21.912C161.469 22.0827 161.197 22.168 160.861 22.168ZM169.23 22.84V27H168.51V23.832C168.35 24.0347 168.174 24.272 167.982 24.544C167.79 24.816 167.598 25.0987 167.406 25.392C167.214 25.68 167.03 25.9653 166.854 26.248C166.678 26.5307 166.526 26.7813 166.398 27H165.734V22.84H166.454V25.832C166.592 25.6027 166.75 25.352 166.926 25.08C167.102 24.8027 167.283 24.5307 167.47 24.264C167.662 23.992 167.851 23.7333 168.038 23.488C168.23 23.2373 168.408 23.0213 168.574 22.84H169.23ZM171.871 27.776C171.929 27.8027 172.004 27.8267 172.095 27.848C172.191 27.8747 172.284 27.888 172.375 27.888C172.668 27.888 172.897 27.8213 173.063 27.688C173.228 27.56 173.377 27.3493 173.511 27.056C173.175 26.416 172.86 25.7387 172.567 25.024C172.279 24.304 172.039 23.576 171.847 22.84H172.647C172.705 23.08 172.775 23.3387 172.855 23.616C172.94 23.8933 173.033 24.1787 173.135 24.472C173.236 24.7653 173.345 25.0587 173.463 25.352C173.58 25.6453 173.703 25.928 173.831 26.2C174.033 25.64 174.209 25.0853 174.359 24.536C174.508 23.9867 174.649 23.4213 174.783 22.84H175.551C175.359 23.624 175.145 24.3787 174.911 25.104C174.676 25.824 174.423 26.4987 174.151 27.128C174.044 27.368 173.932 27.5733 173.815 27.744C173.703 27.92 173.577 28.064 173.439 28.176C173.3 28.288 173.143 28.3707 172.967 28.424C172.796 28.4773 172.601 28.504 172.383 28.504C172.324 28.504 172.263 28.4987 172.199 28.488C172.135 28.4827 172.071 28.472 172.007 28.456C171.948 28.4453 171.892 28.432 171.839 28.416C171.791 28.4 171.756 28.3867 171.735 28.376L171.871 27.776ZM177.127 23.936C177.074 24.464 177.034 24.992 177.007 25.52C176.981 26.0427 176.959 26.536 176.943 27H176.231C176.242 26.6747 176.258 26.336 176.279 25.984C176.301 25.6267 176.325 25.2693 176.351 24.912C176.378 24.5493 176.407 24.1947 176.439 23.848C176.471 23.496 176.506 23.16 176.543 22.84H177.223C177.394 23.1173 177.594 23.4987 177.823 23.984C178.053 24.464 178.317 25.0187 178.615 25.648C178.914 25.0187 179.178 24.464 179.407 23.984C179.637 23.4987 179.837 23.1173 180.007 22.84H180.695C180.733 23.16 180.767 23.496 180.799 23.848C180.831 24.1947 180.861 24.5493 180.887 24.912C180.914 25.2693 180.938 25.6267 180.959 25.984C180.981 26.336 180.997 26.6747 181.007 27H180.271C180.255 26.536 180.234 26.0427 180.207 25.52C180.181 24.992 180.141 24.464 180.087 23.936C180.002 24.1013 179.903 24.3013 179.791 24.536C179.679 24.7653 179.567 25 179.455 25.24C179.349 25.48 179.247 25.7093 179.151 25.928C179.055 26.1467 178.981 26.32 178.927 26.448H178.303C178.245 26.3147 178.165 26.1387 178.063 25.92C177.967 25.7013 177.863 25.472 177.751 25.232C177.645 24.9867 177.535 24.7493 177.423 24.52C177.311 24.2853 177.213 24.0907 177.127 23.936ZM183.715 24.944C183.571 24.944 183.43 24.9493 183.291 24.96C183.158 24.9653 183.038 24.9813 182.931 25.008V26.44C182.963 26.4453 183.008 26.4507 183.067 26.456C183.131 26.4613 183.198 26.4667 183.267 26.472C183.342 26.472 183.416 26.4747 183.491 26.48C183.566 26.48 183.632 26.48 183.691 26.48C184.016 26.48 184.267 26.4187 184.443 26.296C184.619 26.1733 184.707 25.976 184.707 25.704C184.707 25.5707 184.678 25.456 184.619 25.36C184.566 25.264 184.491 25.1867 184.395 25.128C184.304 25.064 184.2 25.0187 184.083 24.992C183.966 24.96 183.843 24.944 183.715 24.944ZM182.187 22.84H182.931V24.432C183.022 24.4107 183.152 24.3893 183.323 24.368C183.499 24.3467 183.667 24.336 183.827 24.336C184.046 24.336 184.254 24.3627 184.451 24.416C184.648 24.464 184.822 24.544 184.971 24.656C185.12 24.7627 185.238 24.904 185.323 25.08C185.414 25.2507 185.459 25.456 185.459 25.696C185.459 25.9467 185.416 26.16 185.331 26.336C185.246 26.512 185.126 26.656 184.971 26.768C184.816 26.88 184.63 26.96 184.411 27.008C184.192 27.0613 183.952 27.088 183.691 27.088C183.44 27.088 183.187 27.072 182.931 27.04C182.675 27.0133 182.427 26.9707 182.187 26.912V22.84ZM186.971 27H186.227V22.84H186.971V27ZM188.977 26.44C189.009 26.4453 189.055 26.4507 189.113 26.456C189.172 26.4613 189.239 26.4667 189.313 26.472C189.388 26.472 189.465 26.4747 189.545 26.48C189.631 26.48 189.711 26.48 189.785 26.48C189.94 26.48 190.087 26.4693 190.225 26.448C190.369 26.4267 190.492 26.3893 190.593 26.336C190.7 26.2827 190.783 26.2133 190.841 26.128C190.905 26.0373 190.937 25.9227 190.937 25.784C190.937 25.6507 190.908 25.5413 190.849 25.456C190.796 25.3653 190.721 25.2933 190.625 25.24C190.529 25.1867 190.415 25.1493 190.281 25.128C190.153 25.1067 190.015 25.096 189.865 25.096H188.977V26.44ZM189.769 24.544C189.913 24.544 190.044 24.536 190.161 24.52C190.284 24.4987 190.388 24.464 190.473 24.416C190.564 24.368 190.633 24.304 190.681 24.224C190.735 24.144 190.761 24.0427 190.761 23.92C190.761 23.792 190.729 23.6907 190.665 23.616C190.601 23.5413 190.516 23.4853 190.409 23.448C190.308 23.4053 190.191 23.3787 190.057 23.368C189.929 23.352 189.799 23.344 189.665 23.344C189.543 23.344 189.417 23.3467 189.289 23.352C189.167 23.3573 189.063 23.3627 188.977 23.368V24.544H189.769ZM189.753 27.072C189.439 27.072 189.148 27.056 188.881 27.024C188.615 26.9973 188.404 26.9653 188.249 26.928V22.88C188.404 22.8427 188.615 22.8107 188.881 22.784C189.148 22.752 189.439 22.736 189.753 22.736C189.972 22.736 190.185 22.7547 190.393 22.792C190.601 22.8293 190.785 22.8933 190.945 22.984C191.105 23.0693 191.233 23.1893 191.329 23.344C191.431 23.4933 191.481 23.68 191.481 23.904C191.481 24.1067 191.431 24.28 191.329 24.424C191.228 24.568 191.092 24.68 190.921 24.76C191.151 24.84 191.332 24.96 191.465 25.12C191.604 25.2747 191.673 25.4933 191.673 25.776C191.673 26.0267 191.623 26.2347 191.521 26.4C191.425 26.5653 191.289 26.6987 191.113 26.8C190.943 26.9013 190.74 26.9707 190.505 27.008C190.271 27.0507 190.02 27.072 189.753 27.072ZM194.04 26.464C194.216 26.464 194.371 26.4613 194.504 26.456C194.643 26.4453 194.758 26.4293 194.848 26.408V25.168C194.795 25.1413 194.707 25.12 194.584 25.104C194.467 25.0827 194.323 25.072 194.152 25.072C194.04 25.072 193.92 25.08 193.792 25.096C193.67 25.112 193.555 25.1467 193.448 25.2C193.347 25.248 193.262 25.3173 193.192 25.408C193.123 25.4933 193.088 25.608 193.088 25.752C193.088 26.0187 193.174 26.2053 193.344 26.312C193.515 26.4133 193.747 26.464 194.04 26.464ZM193.976 22.736C194.275 22.736 194.526 22.776 194.728 22.856C194.936 22.9307 195.102 23.04 195.224 23.184C195.352 23.3227 195.443 23.4907 195.496 23.688C195.55 23.88 195.576 24.0933 195.576 24.328V26.928C195.512 26.9387 195.422 26.9547 195.304 26.976C195.192 26.992 195.064 27.008 194.92 27.024C194.776 27.04 194.619 27.0533 194.448 27.064C194.283 27.08 194.118 27.088 193.952 27.088C193.718 27.088 193.502 27.064 193.304 27.016C193.107 26.968 192.936 26.8933 192.792 26.792C192.648 26.6853 192.536 26.5467 192.456 26.376C192.376 26.2053 192.336 26 192.336 25.76C192.336 25.5307 192.382 25.3333 192.472 25.168C192.568 25.0027 192.696 24.8693 192.856 24.768C193.016 24.6667 193.203 24.592 193.416 24.544C193.63 24.496 193.854 24.472 194.088 24.472C194.163 24.472 194.24 24.4773 194.32 24.488C194.4 24.4933 194.475 24.504 194.544 24.52C194.619 24.5307 194.683 24.5413 194.736 24.552C194.79 24.5627 194.827 24.5707 194.848 24.576V24.368C194.848 24.2453 194.835 24.1253 194.808 24.008C194.782 23.8853 194.734 23.7787 194.664 23.688C194.595 23.592 194.499 23.5173 194.376 23.464C194.259 23.4053 194.104 23.376 193.912 23.376C193.667 23.376 193.451 23.3947 193.264 23.432C193.083 23.464 192.947 23.4987 192.856 23.536L192.768 22.92C192.864 22.8773 193.024 22.8373 193.248 22.8C193.472 22.7573 193.715 22.736 193.976 22.736ZM198.26 23.464C198.26 23.64 198.255 23.8293 198.244 24.032C198.239 24.2293 198.225 24.4293 198.204 24.632C198.183 24.8293 198.153 25.0267 198.116 25.224C198.079 25.416 198.031 25.5973 197.972 25.768C197.913 25.9387 197.839 26.0987 197.748 26.248C197.663 26.3973 197.556 26.5307 197.428 26.648C197.3 26.76 197.151 26.856 196.98 26.936C196.809 27.0107 196.609 27.0587 196.38 27.08L196.276 26.456C196.537 26.4027 196.743 26.304 196.892 26.16C197.047 26.016 197.169 25.84 197.26 25.632C197.34 25.4507 197.399 25.2453 197.436 25.016C197.473 24.7867 197.5 24.5493 197.516 24.304C197.532 24.0533 197.54 23.8027 197.54 23.552C197.545 23.3013 197.548 23.064 197.548 22.84H200.316V27H199.572V23.464H198.26ZM203.169 26.48C203.484 26.48 203.732 26.4187 203.913 26.296C204.094 26.1733 204.185 25.976 204.185 25.704C204.185 25.5707 204.158 25.456 204.105 25.36C204.052 25.264 203.977 25.1867 203.881 25.128C203.79 25.064 203.684 25.0187 203.561 24.992C203.438 24.96 203.308 24.944 203.169 24.944C203.025 24.944 202.876 24.9493 202.721 24.96C202.572 24.9653 202.444 24.9813 202.337 25.008V26.44C202.369 26.4453 202.417 26.4507 202.481 26.456C202.545 26.4613 202.614 26.4667 202.689 26.472C202.769 26.472 202.849 26.4747 202.929 26.48C203.014 26.48 203.094 26.48 203.169 26.48ZM201.593 26.912V22.84H202.337V24.432C202.38 24.4213 202.436 24.4107 202.505 24.4C202.58 24.3893 202.657 24.3787 202.737 24.368C202.822 24.3573 202.91 24.3493 203.001 24.344C203.092 24.3387 203.177 24.336 203.257 24.336C203.486 24.336 203.702 24.3627 203.905 24.416C204.108 24.464 204.284 24.544 204.433 24.656C204.588 24.7627 204.71 24.904 204.801 25.08C204.892 25.2507 204.937 25.456 204.937 25.696C204.937 25.9467 204.894 26.16 204.809 26.336C204.724 26.512 204.601 26.656 204.441 26.768C204.281 26.88 204.089 26.96 203.865 27.008C203.646 27.0613 203.401 27.088 203.129 27.088C202.862 27.088 202.601 27.072 202.345 27.04C202.089 27.0133 201.838 26.9707 201.593 26.912ZM209.228 27H208.484V25.16H206.564V27H205.82V22.84H206.564V24.536H208.484V22.84H209.228V27ZM214.003 22.84V27H213.283V23.832C213.123 24.0347 212.947 24.272 212.755 24.544C212.563 24.816 212.371 25.0987 212.179 25.392C211.987 25.68 211.803 25.9653 211.627 26.248C211.451 26.5307 211.299 26.7813 211.171 27H210.507V22.84H211.227V25.832C211.366 25.6027 211.523 25.352 211.699 25.08C211.875 24.8027 212.057 24.5307 212.243 24.264C212.435 23.992 212.625 23.7333 212.811 23.488C213.003 23.2373 213.182 23.0213 213.347 22.84H214.003ZM216.801 24.736C216.966 24.8533 217.145 25.0027 217.337 25.184C217.529 25.36 217.715 25.552 217.897 25.76C218.083 25.968 218.257 26.1813 218.417 26.4C218.577 26.6133 218.713 26.8133 218.825 27H217.945C217.827 26.8187 217.689 26.6347 217.529 26.448C217.374 26.256 217.211 26.072 217.041 25.896C216.87 25.72 216.697 25.5573 216.521 25.408C216.345 25.2587 216.179 25.1333 216.025 25.032V27H215.281V22.84H216.025V24.624C216.153 24.5013 216.299 24.36 216.465 24.2C216.63 24.0347 216.795 23.8693 216.961 23.704C217.131 23.5333 217.289 23.3733 217.433 23.224C217.577 23.0693 217.694 22.9413 217.785 22.84H218.649C218.531 22.968 218.393 23.1147 218.233 23.28C218.078 23.44 217.915 23.6053 217.745 23.776C217.579 23.9467 217.414 24.1173 217.249 24.288C217.083 24.4533 216.934 24.6027 216.801 24.736ZM220.986 26.464C221.162 26.464 221.316 26.4613 221.45 26.456C221.588 26.4453 221.703 26.4293 221.794 26.408V25.168C221.74 25.1413 221.652 25.12 221.53 25.104C221.412 25.0827 221.268 25.072 221.098 25.072C220.986 25.072 220.866 25.08 220.738 25.096C220.615 25.112 220.5 25.1467 220.394 25.2C220.292 25.248 220.207 25.3173 220.138 25.408C220.068 25.4933 220.034 25.608 220.034 25.752C220.034 26.0187 220.119 26.2053 220.29 26.312C220.46 26.4133 220.692 26.464 220.986 26.464ZM220.922 22.736C221.22 22.736 221.471 22.776 221.674 22.856C221.882 22.9307 222.047 23.04 222.17 23.184C222.298 23.3227 222.388 23.4907 222.442 23.688C222.495 23.88 222.522 24.0933 222.522 24.328V26.928C222.458 26.9387 222.367 26.9547 222.25 26.976C222.138 26.992 222.01 27.008 221.866 27.024C221.722 27.04 221.564 27.0533 221.394 27.064C221.228 27.08 221.063 27.088 220.898 27.088C220.663 27.088 220.447 27.064 220.25 27.016C220.052 26.968 219.882 26.8933 219.738 26.792C219.594 26.6853 219.482 26.5467 219.402 26.376C219.322 26.2053 219.282 26 219.282 25.76C219.282 25.5307 219.327 25.3333 219.418 25.168C219.514 25.0027 219.642 24.8693 219.802 24.768C219.962 24.6667 220.148 24.592 220.362 24.544C220.575 24.496 220.799 24.472 221.034 24.472C221.108 24.472 221.186 24.4773 221.266 24.488C221.346 24.4933 221.42 24.504 221.49 24.52C221.564 24.5307 221.628 24.5413 221.682 24.552C221.735 24.5627 221.772 24.5707 221.794 24.576V24.368C221.794 24.2453 221.78 24.1253 221.754 24.008C221.727 23.8853 221.679 23.7787 221.61 23.688C221.54 23.592 221.444 23.5173 221.322 23.464C221.204 23.4053 221.05 23.376 220.858 23.376C220.612 23.376 220.396 23.3947 220.21 23.432C220.028 23.464 219.892 23.4987 219.802 23.536L219.714 22.92C219.81 22.8773 219.97 22.8373 220.194 22.8C220.418 22.7573 220.66 22.736 220.922 22.736ZM81.312 33.92C81.312 34.2507 81.264 34.5493 81.168 34.816C81.072 35.0827 80.936 35.312 80.76 35.504C80.5893 35.696 80.384 35.8453 80.144 35.952C79.904 36.0533 79.6427 36.104 79.36 36.104C79.0773 36.104 78.816 36.0533 78.576 35.952C78.336 35.8453 78.128 35.696 77.952 35.504C77.7813 35.312 77.648 35.0827 77.552 34.816C77.456 34.5493 77.408 34.2507 77.408 33.92C77.408 33.5947 77.456 33.2987 77.552 33.032C77.648 32.76 77.7813 32.528 77.952 32.336C78.128 32.144 78.336 31.9973 78.576 31.896C78.816 31.7893 79.0773 31.736 79.36 31.736C79.6427 31.736 79.904 31.7893 80.144 31.896C80.384 31.9973 80.5893 32.144 80.76 32.336C80.936 32.528 81.072 32.76 81.168 33.032C81.264 33.2987 81.312 33.5947 81.312 33.92ZM80.536 33.92C80.536 33.4507 80.4293 33.08 80.216 32.808C80.008 32.5307 79.7227 32.392 79.36 32.392C78.9973 32.392 78.7093 32.5307 78.496 32.808C78.288 33.08 78.184 33.4507 78.184 33.92C78.184 34.3893 78.288 34.7627 78.496 35.04C78.7093 35.312 78.9973 35.448 79.36 35.448C79.7227 35.448 80.008 35.312 80.216 35.04C80.4293 34.7627 80.536 34.3893 80.536 33.92ZM81.8468 35.392H82.2948C82.4708 35.136 82.6094 34.872 82.7108 34.6C82.8174 34.328 82.8974 34.048 82.9508 33.76C83.0041 33.4667 83.0388 33.1627 83.0548 32.848C83.0708 32.528 83.0814 32.192 83.0868 31.84H85.8148V35.392H86.3748V37.16H85.6708V36H82.5508V37.16H81.8468V35.392ZM85.0708 35.392V32.464H83.7668C83.7614 32.7147 83.7481 32.968 83.7268 33.224C83.7054 33.4747 83.6708 33.7253 83.6228 33.976C83.5748 34.2213 83.5054 34.464 83.4148 34.704C83.3294 34.9387 83.2201 35.168 83.0868 35.392H85.0708ZM90.5871 36H89.8431V34.16H87.9231V36H87.1791V31.84H87.9231V33.536H89.8431V31.84H90.5871V36ZM95.5386 33.92C95.5386 34.2507 95.4906 34.5493 95.3946 34.816C95.2986 35.0827 95.1626 35.312 94.9866 35.504C94.8159 35.696 94.6106 35.8453 94.3706 35.952C94.1306 36.0533 93.8692 36.104 93.5866 36.104C93.3039 36.104 93.0426 36.0533 92.8026 35.952C92.5626 35.8453 92.3546 35.696 92.1786 35.504C92.0079 35.312 91.8746 35.0827 91.7786 34.816C91.6826 34.5493 91.6346 34.2507 91.6346 33.92C91.6346 33.5947 91.6826 33.2987 91.7786 33.032C91.8746 32.76 92.0079 32.528 92.1786 32.336C92.3546 32.144 92.5626 31.9973 92.8026 31.896C93.0426 31.7893 93.3039 31.736 93.5866 31.736C93.8692 31.736 94.1306 31.7893 94.3706 31.896C94.6106 31.9973 94.8159 32.144 94.9866 32.336C95.1626 32.528 95.2986 32.76 95.3946 33.032C95.4906 33.2987 95.5386 33.5947 95.5386 33.92ZM94.7626 33.92C94.7626 33.4507 94.6559 33.08 94.4426 32.808C94.2346 32.5307 93.9492 32.392 93.5866 32.392C93.2239 32.392 92.9359 32.5307 92.7226 32.808C92.5146 33.08 92.4106 33.4507 92.4106 33.92C92.4106 34.3893 92.5146 34.7627 92.7226 35.04C92.9359 35.312 93.2239 35.448 93.5866 35.448C93.9492 35.448 94.2346 35.312 94.4426 35.04C94.6559 34.7627 94.7626 34.3893 94.7626 33.92ZM99.4733 33.928C99.4733 33.4427 99.3533 33.0693 99.1133 32.808C98.8733 32.5467 98.5533 32.416 98.1533 32.416C97.9293 32.416 97.7533 32.424 97.6253 32.44C97.5026 32.456 97.404 32.4747 97.3293 32.496V35.12C97.42 35.1947 97.5506 35.2667 97.7213 35.336C97.892 35.4053 98.0786 35.44 98.2813 35.44C98.4946 35.44 98.676 35.4027 98.8253 35.328C98.98 35.248 99.1053 35.1413 99.2013 35.008C99.2973 34.8693 99.3666 34.7093 99.4093 34.528C99.452 34.3413 99.4733 34.1413 99.4733 33.928ZM100.249 33.928C100.249 34.2427 100.207 34.5333 100.121 34.8C100.041 35.0667 99.9213 35.296 99.7613 35.488C99.6013 35.68 99.404 35.8293 99.1693 35.936C98.94 36.0427 98.676 36.096 98.3773 36.096C98.1373 36.096 97.924 36.064 97.7373 36C97.556 35.936 97.42 35.8747 97.3293 35.816V37.48H96.5853V31.968C96.7613 31.9253 96.98 31.88 97.2413 31.832C97.508 31.7787 97.8146 31.752 98.1613 31.752C98.4813 31.752 98.7693 31.8027 99.0253 31.904C99.2813 32.0053 99.5 32.1493 99.6813 32.336C99.8626 32.5227 100.001 32.752 100.097 33.024C100.199 33.2907 100.249 33.592 100.249 33.928ZM100.699 36.776C100.758 36.8027 100.832 36.8267 100.923 36.848C101.019 36.8747 101.112 36.888 101.203 36.888C101.496 36.888 101.726 36.8213 101.891 36.688C102.056 36.56 102.206 36.3493 102.339 36.056C102.003 35.416 101.688 34.7387 101.395 34.024C101.107 33.304 100.867 32.576 100.675 31.84H101.475C101.534 32.08 101.603 32.3387 101.683 32.616C101.768 32.8933 101.862 33.1787 101.963 33.472C102.064 33.7653 102.174 34.0587 102.291 34.352C102.408 34.6453 102.531 34.928 102.659 35.2C102.862 34.64 103.038 34.0853 103.187 33.536C103.336 32.9867 103.478 32.4213 103.611 31.84H104.379C104.187 32.624 103.974 33.3787 103.739 34.104C103.504 34.824 103.251 35.4987 102.979 36.128C102.872 36.368 102.76 36.5733 102.643 36.744C102.531 36.92 102.406 37.064 102.267 37.176C102.128 37.288 101.971 37.3707 101.795 37.424C101.624 37.4773 101.43 37.504 101.211 37.504C101.152 37.504 101.091 37.4987 101.027 37.488C100.963 37.4827 100.899 37.472 100.835 37.456C100.776 37.4453 100.72 37.432 100.667 37.416C100.619 37.4 100.584 37.3867 100.563 37.376L100.699 36.776ZM106.683 33.736C106.849 33.8533 107.027 34.0027 107.219 34.184C107.411 34.36 107.598 34.552 107.779 34.76C107.966 34.968 108.139 35.1813 108.299 35.4C108.459 35.6133 108.595 35.8133 108.707 36H107.827C107.71 35.8187 107.571 35.6347 107.411 35.448C107.257 35.256 107.094 35.072 106.923 34.896C106.753 34.72 106.579 34.5573 106.403 34.408C106.227 34.2587 106.062 34.1333 105.907 34.032V36H105.163V31.84H105.907V33.624C106.035 33.5013 106.182 33.36 106.347 33.2C106.513 33.0347 106.678 32.8693 106.843 32.704C107.014 32.5333 107.171 32.3733 107.315 32.224C107.459 32.0693 107.577 31.9413 107.667 31.84H108.531C108.414 31.968 108.275 32.1147 108.115 32.28C107.961 32.44 107.798 32.6053 107.627 32.776C107.462 32.9467 107.297 33.1173 107.131 33.288C106.966 33.4533 106.817 33.6027 106.683 33.736ZM112.898 33.92C112.898 34.2507 112.85 34.5493 112.754 34.816C112.658 35.0827 112.522 35.312 112.346 35.504C112.175 35.696 111.97 35.8453 111.73 35.952C111.49 36.0533 111.229 36.104 110.946 36.104C110.663 36.104 110.402 36.0533 110.162 35.952C109.922 35.8453 109.714 35.696 109.538 35.504C109.367 35.312 109.234 35.0827 109.138 34.816C109.042 34.5493 108.994 34.2507 108.994 33.92C108.994 33.5947 109.042 33.2987 109.138 33.032C109.234 32.76 109.367 32.528 109.538 32.336C109.714 32.144 109.922 31.9973 110.162 31.896C110.402 31.7893 110.663 31.736 110.946 31.736C111.229 31.736 111.49 31.7893 111.73 31.896C111.97 31.9973 112.175 32.144 112.346 32.336C112.522 32.528 112.658 32.76 112.754 33.032C112.85 33.2987 112.898 33.5947 112.898 33.92ZM112.122 33.92C112.122 33.4507 112.015 33.08 111.802 32.808C111.594 32.5307 111.309 32.392 110.946 32.392C110.583 32.392 110.295 32.5307 110.082 32.808C109.874 33.08 109.77 33.4507 109.77 33.92C109.77 34.3893 109.874 34.7627 110.082 35.04C110.295 35.312 110.583 35.448 110.946 35.448C111.309 35.448 111.594 35.312 111.802 35.04C112.015 34.7627 112.122 34.3893 112.122 33.92ZM115.665 34.384C115.585 34.384 115.507 34.384 115.433 34.384C115.358 34.3787 115.286 34.3733 115.217 34.368C115.046 34.624 114.881 34.8987 114.721 35.192C114.566 35.48 114.427 35.7493 114.305 36H113.553C113.617 35.8453 113.691 35.688 113.777 35.528C113.862 35.3627 113.947 35.2027 114.033 35.048C114.123 34.8933 114.214 34.7467 114.305 34.608C114.395 34.4693 114.481 34.344 114.561 34.232C114.411 34.1787 114.289 34.1147 114.193 34.04C114.097 33.96 114.019 33.872 113.961 33.776C113.902 33.68 113.859 33.5787 113.833 33.472C113.811 33.36 113.801 33.248 113.801 33.136C113.801 32.9013 113.843 32.696 113.929 32.52C114.019 32.344 114.142 32.2 114.297 32.088C114.451 31.9707 114.633 31.8827 114.841 31.824C115.054 31.7653 115.286 31.736 115.537 31.736C115.889 31.736 116.187 31.752 116.433 31.784C116.678 31.816 116.883 31.8533 117.049 31.896V36H116.313V34.384H115.665ZM116.313 32.392C116.254 32.3813 116.155 32.3707 116.017 32.36C115.883 32.3493 115.729 32.344 115.553 32.344C115.249 32.344 115.003 32.408 114.817 32.536C114.63 32.6587 114.537 32.856 114.537 33.128C114.537 33.3947 114.633 33.5787 114.825 33.68C115.017 33.7813 115.265 33.832 115.569 33.832H116.313V32.392ZM121.264 31.84V32.464H119.912V36H119.168V32.464H117.816V31.84H121.264ZM125.703 33.92C125.703 34.2507 125.655 34.5493 125.559 34.816C125.463 35.0827 125.327 35.312 125.151 35.504C124.98 35.696 124.775 35.8453 124.535 35.952C124.295 36.0533 124.033 36.104 123.751 36.104C123.468 36.104 123.207 36.0533 122.967 35.952C122.727 35.8453 122.519 35.696 122.343 35.504C122.172 35.312 122.039 35.0827 121.943 34.816C121.847 34.5493 121.799 34.2507 121.799 33.92C121.799 33.5947 121.847 33.2987 121.943 33.032C122.039 32.76 122.172 32.528 122.343 32.336C122.519 32.144 122.727 31.9973 122.967 31.896C123.207 31.7893 123.468 31.736 123.751 31.736C124.033 31.736 124.295 31.7893 124.535 31.896C124.775 31.9973 124.98 32.144 125.151 32.336C125.327 32.528 125.463 32.76 125.559 33.032C125.655 33.2987 125.703 33.5947 125.703 33.92ZM124.927 33.92C124.927 33.4507 124.82 33.08 124.607 32.808C124.399 32.5307 124.113 32.392 123.751 32.392C123.388 32.392 123.1 32.5307 122.887 32.808C122.679 33.08 122.575 33.4507 122.575 33.92C122.575 34.3893 122.679 34.7627 122.887 35.04C123.1 35.312 123.388 35.448 123.751 35.448C124.113 35.448 124.399 35.312 124.607 35.04C124.82 34.7627 124.927 34.3893 124.927 33.92ZM127.221 31.84V33.064C127.221 33.3787 127.301 33.6 127.461 33.728C127.621 33.8507 127.84 33.912 128.117 33.912C128.32 33.912 128.488 33.9013 128.621 33.88C128.76 33.8587 128.883 33.8347 128.989 33.808V31.84H129.733V36H128.989V34.384C128.947 34.3947 128.891 34.408 128.821 34.424C128.752 34.44 128.672 34.456 128.581 34.472C128.496 34.4827 128.405 34.4933 128.309 34.504C128.213 34.5147 128.12 34.52 128.029 34.52C127.8 34.52 127.589 34.496 127.397 34.448C127.211 34.4 127.048 34.32 126.909 34.208C126.776 34.096 126.669 33.9493 126.589 33.768C126.515 33.5813 126.477 33.3493 126.477 33.072V31.84H127.221ZM134.423 36H133.679V34.16H131.759V36H131.015V31.84H131.759V33.536H133.679V31.84H134.423V36ZM137.231 33.944C137.087 33.944 136.945 33.9493 136.807 33.96C136.673 33.9653 136.553 33.9813 136.447 34.008V35.44C136.479 35.4453 136.524 35.4507 136.583 35.456C136.647 35.4613 136.713 35.4667 136.783 35.472C136.857 35.472 136.932 35.4747 137.007 35.48C137.081 35.48 137.148 35.48 137.207 35.48C137.532 35.48 137.783 35.4187 137.959 35.296C138.135 35.1733 138.223 34.976 138.223 34.704C138.223 34.5707 138.193 34.456 138.135 34.36C138.081 34.264 138.007 34.1867 137.911 34.128C137.82 34.064 137.716 34.0187 137.599 33.992C137.481 33.96 137.359 33.944 137.231 33.944ZM135.703 31.84H136.447V33.432C136.537 33.4107 136.668 33.3893 136.839 33.368C137.015 33.3467 137.183 33.336 137.343 33.336C137.561 33.336 137.769 33.3627 137.967 33.416C138.164 33.464 138.337 33.544 138.487 33.656C138.636 33.7627 138.753 33.904 138.839 34.08C138.929 34.2507 138.975 34.456 138.975 34.696C138.975 34.9467 138.932 35.16 138.847 35.336C138.761 35.512 138.641 35.656 138.487 35.768C138.332 35.88 138.145 35.96 137.927 36.008C137.708 36.0613 137.468 36.088 137.207 36.088C136.956 36.088 136.703 36.072 136.447 36.04C136.191 36.0133 135.943 35.9707 135.703 35.912V31.84ZM140.487 36H139.743V31.84H140.487V36ZM145.261 31.84V36H144.541V32.832C144.381 33.0347 144.205 33.272 144.013 33.544C143.821 33.816 143.629 34.0987 143.437 34.392C143.245 34.68 143.061 34.9653 142.885 35.248C142.709 35.5307 142.557 35.7813 142.429 36H141.765V31.84H142.485V34.832C142.624 34.6027 142.781 34.352 142.957 34.08C143.133 33.8027 143.314 33.5307 143.501 33.264C143.693 32.992 143.882 32.7333 144.069 32.488C144.261 32.2373 144.44 32.0213 144.605 31.84H145.261ZM143.517 31.168C143.181 31.168 142.906 31.0827 142.693 30.912C142.485 30.7413 142.36 30.504 142.317 30.2L142.885 30.048C142.928 30.2187 143 30.3573 143.101 30.464C143.202 30.5707 143.341 30.624 143.517 30.624C143.693 30.624 143.832 30.5707 143.933 30.464C144.034 30.3573 144.106 30.2187 144.149 30.048L144.709 30.2C144.666 30.504 144.541 30.7413 144.333 30.912C144.125 31.0827 143.853 31.168 143.517 31.168Z" fill="white"/>
<path d="M38.3616 30.04C38.3092 30.0604 38.2496 30.1019 38.1843 30.1385C38.0372 30.2209 37.8613 30.2778 37.6078 30.3395C37.3542 30.4012 37.0227 30.4675 36.6861 30.5109C36.3495 30.5544 36.0077 30.575 35.6607 30.5766C35.3135 30.5781 34.9617 30.5607 34.5457 30.52C34.1297 30.4794 33.6503 30.4154 33.3109 30.3547C32.9718 30.2938 32.7734 30.2362 32.6742 30.2074C32.6027 30.1866 32.5827 30.1808 32.584 30.2699" stroke="white" stroke-width="0.3501"/>
<path d="M38.324 30.1341C38.1769 30.2165 38.0009 30.2733 37.7473 30.3351C37.4937 30.3968 37.1624 30.4631 36.8258 30.5065C36.4891 30.55 36.1472 30.5706 35.8003 30.5722C35.4532 30.5737 35.1011 30.5563 34.6852 30.5156C34.2694 30.475 33.7897 30.411 33.4505 30.3503C33.1114 30.2894 32.9129 30.2317 32.8138 30.203C32.7145 30.1741 32.7145 30.1741 32.7333 30.4166C32.7519 30.6591 32.7893 31.144 32.8659 31.503C32.9426 31.8618 33.0583 32.0946 33.2719 32.2712C33.4856 32.4478 33.797 32.5682 34.1413 32.648C34.4854 32.7278 34.8622 32.767 35.2336 32.7834C35.6052 32.7997 35.9713 32.7931 36.3278 32.7561C36.6843 32.7192 37.0312 32.652 37.3566 32.5511C37.6818 32.4502 37.9855 32.316 38.1886 32.1916C38.3916 32.0673 38.4937 31.9529 38.577 31.7816C38.66 31.6103 38.724 31.3822 38.7426 31.0485C38.761 30.7148 38.7341 30.2757 38.6616 30.1099C38.5891 29.9441 38.471 30.0518 38.324 30.1341Z" stroke="white" stroke-width="0.3501"/>
<path d="M33.4512 30.3506C33.6619 30.6046 33.8723 30.8588 33.997 31.1084C34.1214 31.358 34.1599 31.6032 34.1264 31.8474C34.0929 32.0917 33.9877 32.3348 33.8825 32.5779" stroke="white" stroke-width="0.3501"/>
<path d="M34.9187 30.5366C34.7568 30.8531 34.5951 31.1695 34.5273 31.4159C34.4594 31.6622 34.4858 31.8384 34.5626 32.0079C34.6393 32.1773 34.7662 32.3397 34.8864 32.4679C35.0069 32.5959 35.1205 32.6896 35.234 32.7834" stroke="white" stroke-width="0.3501"/>
<path d="M36.5935 30.5327C36.6941 30.7545 36.7949 30.9764 36.8363 31.1961C36.8778 31.4159 36.8599 31.6334 36.8215 31.833C36.7829 32.0325 36.7238 32.2139 36.6674 32.3613C36.6111 32.5086 36.5575 32.622 36.5039 32.7351" stroke="white" stroke-width="0.3501"/>
<path d="M37.2897 30.4331C37.2578 30.6513 37.2255 30.8695 37.2434 31.0849C37.2612 31.3003 37.3288 31.5127 37.4017 31.6823C37.4744 31.852 37.5524 31.9787 37.6405 32.0799C37.7287 32.1811 37.8272 32.2567 37.9255 32.3322" stroke="white" stroke-width="0.3501"/>
<path d="M38.3242 30.1343C38.4574 30.2197 38.5907 30.3051 38.6615 30.4139C38.7321 30.5227 38.7402 30.6548 38.7481 30.7868" stroke="white" stroke-width="0.3501"/>
<path d="M33.4775 32.5064C33.4898 32.5792 33.502 32.6519 33.5444 32.7054C33.5866 32.759 33.6589 32.7933 33.7982 32.8371C33.9373 32.8809 34.1432 32.9341 34.3682 32.9787C34.5933 33.0232 34.8374 33.0587 35.0456 33.0828C35.2537 33.1072 35.426 33.12 35.6524 33.1218C35.8787 33.1236 36.1588 33.1145 36.4071 33.0937C36.6555 33.073 36.8719 33.0406 37.0778 32.9953C37.2837 32.9501 37.479 32.8919 37.639 32.8282C37.7987 32.7644 37.9233 32.695 37.9963 32.6461C38.0694 32.5972 38.091 32.5689 38.0979 32.5062C38.1046 32.4435 38.0968 32.3465 38.0886 32.2495" stroke="white" stroke-width="0.3501"/>
<path d="M33.5439 32.7057C33.5496 33.098 33.5554 33.49 33.5783 33.8202C33.6012 34.1504 33.641 34.4188 33.7196 34.6189C33.7982 34.8192 33.9155 34.9513 34.4808 35.333C35.0462 35.7145 36.0599 36.3457 38.1661 37.7172C40.2721 39.0888 43.4707 41.2008 45.9791 42.8692C48.4875 44.5376 50.3057 45.7621 52.1905 46.9885C54.0751 48.2149 56.0261 49.443 57.0443 50.0836C58.0623 50.724 58.1474 50.777 58.1763 50.8333C58.205 50.8895 58.1775 50.9491 58.1546 51.0511C58.1314 51.153 58.1129 51.2973 58.1127 51.421C58.1127 51.5447 58.1306 51.648 58.168 51.7483C58.2053 51.8485 58.262 51.9456 58.3849 52.0755C58.508 52.2054 58.6973 52.368 59.0276 52.5414C59.3581 52.7149 59.8297 52.8991 60.1915 53.0146C60.5535 53.13 60.8059 53.1767 61.0573 53.2061C61.3088 53.2354 61.5591 53.2474 61.8193 53.2299C62.0795 53.2122 62.3497 53.1651 62.5702 53.1053C62.7907 53.0457 62.9619 52.9735 63.1184 52.8848C63.2747 52.7961 63.4164 52.6908 63.5272 52.5895C63.638 52.4881 63.7177 52.3904 63.8005 52.02C63.883 51.6496 63.9684 51.0065 64.0133 50.6248C64.0581 50.2432 64.0624 50.123 64.0269 50.0189C63.9913 49.9146 63.9155 49.8264 63.6846 49.6509C63.4535 49.4753 63.0668 49.2125 61.7789 48.4006C60.4908 47.5888 58.3018 46.2279 56.3066 44.9792C54.3114 43.7305 52.5101 42.5939 50.1564 41.0942C47.8026 39.5944 44.8961 37.7316 42.7908 36.3715C40.6854 35.0114 39.381 34.1542 38.7187 33.7205C38.0566 33.2867 38.0364 33.2763 38.0183 33.2349C38.0001 33.1934 37.984 33.1209 37.9805 33.0177C37.9771 32.9144 37.9865 32.7804 37.9959 32.6465" stroke="white" stroke-width="0.3501"/>
<path d="M64.0278 50.0189C64.0278 50.0189 64.0278 50.0189 63.9283 50.0999C63.829 50.1809 63.6303 50.343 63.3323 50.4901C63.034 50.6372 62.6367 50.7693 62.2435 50.8472C61.8505 50.925 61.462 50.9485 61.062 50.9106C60.6619 50.8728 60.2502 50.774 59.8731 50.6033C59.496 50.4327 59.1536 50.1904 56.2989 48.2818C53.4446 46.3734 48.0777 42.7988 44.035 40.115C39.9921 37.4313 37.2732 35.6385 35.976 34.7692C34.6786 33.9 34.803 33.9544 34.9769 33.9942C35.151 34.0339 35.3749 34.0592 35.6116 34.0721C35.8483 34.0848 36.0979 34.0852 36.3973 34.0402C36.6967 33.995 37.0462 33.9044 37.2991 33.8002C37.5521 33.696 37.7088 33.5784 37.8125 33.4819C37.9166 33.3854 37.9678 33.3101 38.0192 33.2349" stroke="white" stroke-width="0.3501"/>
<path d="M58.5278 52.2104C58.5013 52.3925 58.4747 52.5745 58.4672 52.6707C58.4591 52.7668 58.4701 52.7769 58.5304 52.8269C58.5909 52.877 58.7008 52.9669 58.8919 53.0835C59.0828 53.2 59.3549 53.3432 59.6413 53.4717C59.9277 53.6001 60.2279 53.7139 60.5227 53.7932C60.8171 53.8726 61.1057 53.9176 61.4332 53.9187C61.7606 53.9198 62.1267 53.877 62.4016 53.8188C62.6766 53.7606 62.8601 53.6871 62.984 53.6207C63.1078 53.5543 63.1718 53.4949 63.2292 53.4464C63.2862 53.3978 63.3367 53.3601 63.3616 53.2388C63.3867 53.1173 63.3861 52.9124 63.3858 52.7074" stroke="white" stroke-width="0.3501"/>
<path fill-rule="evenodd" clip-rule="evenodd" d="M30.9661 34.8196L29.9502 34.7158L30.4056 35.6224L30.9661 34.8196Z" stroke="white" stroke-width="0.3501"/>
<path d="M47.3524 9.37287C47.4931 9.14056 47.4649 8.85247 47.3899 8.62489C47.3151 8.39722 47.1933 8.23006 46.9636 8.03488C46.7341 7.83978 46.3966 7.61675 45.8674 7.38453C45.3378 7.15222 44.6164 6.91063 43.8386 6.74802C43.0607 6.5855 42.227 6.50188 41.5569 6.43682C40.8868 6.37176 40.381 6.32535 39.8188 6.20923C39.2563 6.09304 38.638 5.90722 37.9305 5.70285C37.2231 5.49838 36.4267 5.27544 35.6817 5.14077C34.9368 5.00592 34.2433 4.95959 33.5265 5.03858C32.8097 5.11748 32.0695 5.32185 31.4087 5.57745C30.7481 5.83297 30.1674 6.13945 29.8487 6.34855C29.5301 6.55757 29.4739 6.66904 29.4409 7.30091C29.4082 7.93269 29.3988 9.08478 29.4505 9.7677C29.5019 10.4506 29.6145 10.6643 29.811 10.8919C30.0078 11.1196 30.2891 11.3611 30.7717 11.5655C31.2542 11.77 31.9382 11.9372 32.6644 12.0487C33.3907 12.1601 34.159 12.2159 34.8899 12.2252C35.6207 12.2345 36.3143 12.1974 36.9749 12.0951C37.6355 11.9929 38.2632 11.8257 38.7036 11.6492C39.1439 11.4727 39.3969 11.2868 39.575 11.0081C39.753 10.7294 39.8562 10.3577 39.9217 10.0465C39.9873 9.73512 40.0155 9.48434 40.039 9.36358C40.0624 9.24275 40.0812 9.25203 40.2404 9.31709C40.3996 9.38206 40.6996 9.5029 41.1822 9.64686C41.6648 9.7909 42.3299 9.95815 43.0704 10.0511C43.8105 10.144 44.6257 10.1625 45.2253 10.1347C45.8252 10.1068 46.2093 10.0325 46.5561 9.9071C46.9027 9.78162 47.2118 9.60518 47.3524 9.37287Z" stroke="white" stroke-width="0.3501"/>
<path d="M37.3609 10.7291C37.4896 10.7104 37.635 10.6687 37.7757 10.5734C37.9161 10.4782 38.052 10.3295 38.1363 10.1646C38.2207 9.99967 38.2533 9.81858 38.2487 9.65821C38.2441 9.49792 38.2019 9.3586 38.1059 9.24249C38.0099 9.12638 37.8599 9.03339 37.7077 9.0009C37.5554 8.96833 37.4007 8.99626 37.2624 9.06364C37.1243 9.13093 37.0025 9.23785 36.9016 9.39117C36.8009 9.54441 36.7213 9.74424 36.7003 9.92077C36.6791 10.0973 36.7165 10.2505 36.7775 10.383C36.8385 10.5154 36.9229 10.6269 37.0211 10.6849C37.1195 10.743 37.2319 10.7476 37.3609 10.7291Z" stroke="white" stroke-width="0.3501"/>
<path d="M29.5381 6.6665C29.7277 6.8347 29.9172 7.00289 30.3119 7.12416C30.7064 7.24534 31.3062 7.31968 31.8896 7.34753C32.4728 7.37538 33.0397 7.35681 33.6019 7.35449C34.1644 7.35217 34.7217 7.3661 35.3026 7.41491C35.8837 7.46364 36.488 7.54735 37.0995 7.67515C37.711 7.80287 38.3294 7.97467 39.0041 8.16977C39.6787 8.36495 40.4097 8.58333 41.0912 8.78066C41.773 8.97808 42.4054 9.15461 43.0918 9.28009C43.7782 9.40557 44.5187 9.47991 45.0855 9.48919C45.6525 9.49839 46.0459 9.4427 46.3411 9.37067C46.6361 9.29865 46.833 9.21047 46.9986 9.11086C47.1642 9.01117 47.2987 8.9003 47.366 8.84478C47.433 8.78934 47.433 8.78934 47.433 8.78934" stroke="white" stroke-width="0.3501"/>
<path d="M40.1125 9.27125C39.6915 9.09146 39.2703 8.91157 38.7599 8.7194C38.2494 8.52731 37.6498 8.32285 37.0077 8.15792C36.366 7.993 35.6821 7.8676 35.0962 7.81423C34.5107 7.76077 34.0234 7.77934 33.5501 7.83976C33.0771 7.90017 32.6178 8.00236 32.2781 8.10455C31.9385 8.20674 31.7182 8.30893 31.5659 8.39496C31.4137 8.48082 31.3293 8.55052 31.2451 8.62022" stroke="white" stroke-width="0.3501"/>
<path d="M31.709 8.70428C32.1445 8.66242 32.5802 8.62065 33.0442 8.49982C33.5079 8.37906 34 8.17933 34.3708 8.05436C34.7417 7.9294 34.9914 7.87921 35.2411 7.8291" stroke="white" stroke-width="0.3501"/>
<path d="M31.5822 9.08008C31.5118 9.60967 31.4415 10.1393 31.4268 10.5938C31.4123 11.0484 31.4531 11.4278 31.4938 11.8073" stroke="white" stroke-width="0.3501"/>
<path d="M30.0252 11.1085C30.0102 11.3289 29.9952 11.5494 29.9855 11.6619C29.9755 11.7745 29.9709 11.7791 30.0317 11.8372C30.0926 11.8952 30.2193 12.0067 30.4253 12.1253C30.6314 12.2437 30.9172 12.3691 31.3318 12.4806C31.7465 12.5921 32.2901 12.6897 32.7913 12.7454C33.2926 12.8011 33.7519 12.8151 34.286 12.8174C34.82 12.8197 35.4291 12.8105 35.9704 12.7733C36.5112 12.7361 36.9845 12.6711 37.4273 12.5851C37.8701 12.4991 38.2823 12.3924 38.6197 12.2599C38.957 12.1276 39.2193 11.9695 39.3553 11.8488C39.4911 11.7279 39.5006 11.6444 39.5046 11.527C39.5085 11.4097 39.507 11.2585 39.5056 11.1074" stroke="white" stroke-width="0.3501"/>
<path d="M30.032 11.8374C29.9634 12.9995 29.8946 14.1617 29.8508 15.1238C29.8072 16.0858 29.7883 16.8476 29.7719 17.4794C29.7555 18.1112 29.7414 18.613 29.7157 19.0056C29.6898 19.3981 29.6525 19.6814 29.587 19.9462C29.5213 20.211 29.4276 20.4572 29.3151 20.6361C29.2029 20.815 29.0715 20.9264 28.8935 21.0728C28.7155 21.2191 28.4906 21.4003 28.0995 21.593C27.7081 21.7859 27.1505 21.9902 26.5766 22.1669C26.0028 22.3434 25.4124 22.492 24.9416 22.6058C24.4707 22.7197 24.1192 22.7986 23.6483 22.931C23.1776 23.0634 22.5872 23.2493 22.0695 23.4049C21.5517 23.5605 21.1068 23.6859 20.7552 23.8021C20.404 23.9182 20.1462 24.0251 19.9214 24.1551C19.6965 24.2852 19.5044 24.4386 19.3428 24.5825C19.181 24.7266 19.0499 24.8612 18.9165 25.0332C18.7828 25.205 18.6469 25.4141 18.5368 25.6115C18.4267 25.809 18.3423 25.9948 18.2721 26.1899C18.2018 26.385 18.1458 26.5894 18.1245 26.8054C18.1036 27.0215 18.1175 27.2491 18.141 27.4256C18.1643 27.6021 18.1973 27.7276 18.2744 27.9133C18.3517 28.0992 18.4737 28.3454 18.6984 28.6056C18.9234 28.8658 19.2513 29.1398 19.6145 29.379C19.9777 29.6183 20.3759 29.8228 20.8701 29.9668C21.3643 30.1108 21.9546 30.1944 23.1705 30.1618C24.3864 30.1293 26.2276 29.9807 28.5914 29.7623C30.9549 29.544 33.8409 29.2559 35.3168 29.0933C36.7927 28.9308 36.8583 28.8937 36.9896 28.9494C37.1207 29.0052 37.3175 29.1538 37.643 29.3837C37.9689 29.6137 38.4233 29.9249 38.7817 30.1038C39.1401 30.2826 39.4025 30.3291 39.7022 30.3151C40.002 30.3012 40.3395 30.2269 40.6228 30.1247C40.9065 30.0225 41.1359 29.8925 41.4007 29.6741C41.6655 29.4558 41.9653 29.1491 42.1879 28.8355C42.4104 28.522 42.5555 28.2015 42.6516 27.8391C42.7475 27.4767 42.7945 27.0725 42.7945 26.759C42.7945 26.4454 42.7475 26.2224 42.6539 26.0156C42.5603 25.809 42.4197 25.6185 42.2393 25.4443C42.0588 25.2701 41.8387 25.1121 41.6373 24.9541C41.4357 24.7963 41.2531 24.6383 41.0962 24.3712C40.9391 24.104 40.8079 23.7277 40.726 23.5117C40.644 23.2957 40.6111 23.24 40.3089 23.0216C40.0068 22.8033 39.4351 22.4224 39.1377 22.2388C38.8403 22.0553 38.8167 22.0693 38.7395 22.0809C38.6621 22.0925 38.5309 22.1018 38.4279 22.1505C38.3249 22.1994 38.2498 22.2876 38.0954 22.4966C37.9407 22.7057 37.7064 23.0356 37.4838 23.2841C37.2612 23.5327 37.0504 23.6999 36.8278 23.8834C36.6054 24.0668 36.3712 24.2667 36.1509 24.5431C35.9307 24.8195 35.7246 25.1725 35.5932 25.4745C35.4622 25.7765 35.406 26.0273 35.3848 26.241C35.3639 26.4547 35.3779 26.6312 35.4084 26.8193C35.4387 27.0075 35.4857 27.2073 35.5371 27.3699C35.5886 27.5325 35.6448 27.6579 35.7223 27.781C35.7994 27.9041 35.8978 28.025 36.0173 28.148C36.137 28.2711 36.2775 28.3965 36.4343 28.5243C36.5914 28.6521 36.7645 28.7821 36.9381 28.9122" stroke="white" stroke-width="0.3501"/>
<path d="M38.2737 22.1348C38.8977 22.5433 39.5217 22.952 39.8338 23.1562C40.1458 23.3605 40.1458 23.3605 40.1458 23.4604C40.1458 23.5603 40.1458 23.7602 40.078 24.0318C40.0099 24.3037 39.8741 24.6474 39.6398 24.9679C39.4055 25.2885 39.0728 25.5858 38.8152 25.8483C38.5575 26.1108 38.3748 26.3383 38.2225 26.5915C38.0702 26.8447 37.9484 27.1235 37.8805 27.4835C37.8125 27.8436 37.7985 28.2849 37.8125 28.5752C37.8266 28.8656 37.8688 29.0049 37.9428 29.1793C38.0168 29.3536 38.1227 29.563 38.2286 29.7723" stroke="white" stroke-width="0.3501"/>
<path d="M39.8212 26.952C39.8986 26.8799 40.0156 26.7871 40.161 26.7289C40.306 26.6709 40.4796 26.6477 40.6225 26.6941C40.7653 26.7406 40.8778 26.8567 40.941 27.0217C41.0043 27.1866 41.0184 27.4003 40.9481 27.6001C40.8778 27.7998 40.7231 27.9857 40.5475 28.1041C40.3718 28.2226 40.1751 28.2737 40.0156 28.2365C39.8564 28.1994 39.7347 28.074 39.6619 27.9368C39.5892 27.7998 39.5659 27.6512 39.5752 27.5141C39.5847 27.377 39.6269 27.2516 39.6668 27.1634C39.7065 27.0751 39.7439 27.0241 39.8212 26.952Z" stroke="white" stroke-width="0.3501"/>
<path d="M42.8548 26.5148C43.6655 26.1524 44.4759 25.7901 45.2467 25.4207C46.0173 25.0514 46.7483 24.6751 47.2823 24.3407C47.8165 24.0062 48.1538 23.7135 48.4138 23.3953C48.6737 23.0771 48.8565 22.7333 48.9807 22.4127C49.1048 22.0922 49.1704 21.7949 49.1776 21.5602C49.1844 21.3257 49.133 21.1538 48.9996 20.9493C48.8658 20.745 48.6503 20.508 48.3389 20.2387C48.0272 19.9691 47.6197 19.6672 47.3176 19.4604C47.0153 19.2537 46.8185 19.1423 46.5513 19.0749C46.2845 19.0075 45.947 18.9843 44.8155 19.054C43.684 19.1237 41.7586 19.2862 39.833 19.4488" stroke="white" stroke-width="0.3501"/>
<path d="M39.6934 19.2822C39.8244 19.8397 39.9556 20.3971 40.0727 20.7456C40.1899 21.094 40.2928 21.2333 40.5272 21.3053C40.7613 21.3774 41.127 21.382 41.7921 21.2868C42.4574 21.1915 43.4226 20.9965 44.4041 20.8129C45.3859 20.6294 46.3836 20.4575 47.077 20.4413C47.7705 20.425 48.1596 20.5644 48.4218 20.7014C48.6842 20.8384 48.8201 20.9732 48.925 21.116C49.0301 21.2589 49.1043 21.4099 49.1785 21.5608" stroke="white" stroke-width="0.3501"/>
<path d="M39.4707 11.7065C39.5167 12.0296 39.5625 12.3527 39.5996 13.6152C39.6365 14.8778 39.6646 17.0798 39.6928 19.2818" stroke="white" stroke-width="0.3501"/>
<path d="M39.6377 15.3789C39.8997 15.1932 40.1617 15.0076 40.5314 14.8288C40.9014 14.6501 41.3792 14.4782 41.7987 14.3713C42.2181 14.2644 42.5786 14.2227 42.8927 14.2227C43.2066 14.2227 43.4737 14.2644 43.7079 14.3202C43.9422 14.376 44.1436 14.4456 44.4224 14.5688C44.7011 14.6918 45.0572 14.8684 45.3523 15.0659C45.6475 15.2633 45.8818 15.4816 46.0808 15.6976C46.28 15.9137 46.444 16.1274 46.5939 16.3898C46.7438 16.6523 46.8797 16.9635 46.9828 17.2818C47.0858 17.6 47.1561 17.9252 47.2123 18.2388C47.2686 18.5523 47.3107 18.8543 47.326 19.056C47.3412 19.2577 47.3296 19.3592 47.3237 19.4098C47.3179 19.4605 47.3179 19.4605 47.3179 19.4605" stroke="white" stroke-width="0.3501"/>
<path d="M39.6592 16.7739C39.8672 16.5415 40.075 16.309 40.3475 16.0556C40.6201 15.8025 40.9575 15.5284 41.3698 15.3146C41.7821 15.101 42.2695 14.9476 42.6982 14.871C43.1268 14.7943 43.4969 14.7943 43.8718 14.8385C44.2464 14.8826 44.626 14.9708 44.9118 15.0685C45.1977 15.166 45.3898 15.2729 45.5689 15.3793C45.7481 15.4857 45.9144 15.5918 46.0272 15.6789C46.1398 15.7659 46.199 15.8339 46.2582 15.9019" stroke="white" stroke-width="0.3501"/>
<path d="M41.7471 19.2885C41.91 19.0587 42.073 18.829 42.2859 18.5886C42.4984 18.3482 42.7608 18.0973 43.0022 17.9162C43.2433 17.735 43.4636 17.6235 43.6978 17.5608C43.9321 17.4981 44.1803 17.4841 44.4499 17.5144C44.7192 17.5445 45.0096 17.6188 45.2439 17.7234C45.4781 17.828 45.6562 17.9627 45.8016 18.0811C45.9467 18.1995 46.0592 18.3017 46.1669 18.4155C46.2747 18.5294 46.3778 18.6548 46.5078 18.7929C46.6378 18.9309 46.7949 19.0815 46.8992 19.1717C47.0032 19.262 47.0545 19.2919 47.1059 19.3217" stroke="white" stroke-width="0.3501"/>
<path d="M46.168 18.4152C45.9634 18.351 45.7589 18.2868 45.4927 18.1873C45.2262 18.0878 44.8983 17.9531 44.7251 17.8881C44.5516 17.823 44.533 17.8276 44.1746 18.0135C43.8161 18.1993 43.1179 18.5663 42.769 18.7498C42.4199 18.9332 42.4199 18.9332 42.4039 18.9846C42.3879 19.0359 42.3559 19.1383 42.3403 19.1896C42.3242 19.2409 42.3242 19.2409 42.3242 19.2409" stroke="white" stroke-width="0.3501"/>
<path d="M44.5859 19.0687C44.8196 18.926 45.0533 18.7832 45.2605 18.6561C45.4675 18.529 45.648 18.4176 45.8286 18.3062" stroke="white" stroke-width="0.3501"/>
<path d="M44.9883 18.8225C45.2233 18.7713 45.4588 18.7199 45.6513 18.7035C45.8439 18.6872 45.9937 18.7057 46.1292 18.7265C46.265 18.7471 46.3866 18.7699 46.4789 18.8136C46.5715 18.8573 46.6354 18.9219 46.6991 18.9864" stroke="white" stroke-width="0.3501"/>
<path d="M24.1712 22.7922C24.0601 22.3654 23.9491 21.9386 23.7904 21.5626C23.6317 21.1867 23.4257 20.8614 23.2336 20.599C23.0413 20.3365 22.8633 20.1368 22.6104 19.8975C22.3573 19.6583 22.0294 19.3795 21.7156 19.1588C21.4015 18.9382 21.1016 18.7756 20.7409 18.6292C20.3801 18.483 19.9584 18.3528 19.5414 18.2762C19.1246 18.1995 18.7122 18.1763 18.2813 18.2018C17.8501 18.2275 17.4005 18.3017 17.0068 18.4062C16.6133 18.5108 16.2759 18.6456 15.9432 18.8081C15.6106 18.9707 15.2827 19.1612 14.9828 19.3679C14.6831 19.5746 14.4111 19.7977 14.1607 20.0415C13.9099 20.2854 13.6803 20.5502 13.4624 20.8313C13.2446 21.1124 13.0385 21.4096 12.8674 21.6953C12.6965 21.9811 12.5606 22.2552 12.4365 22.5362C12.3121 22.8173 12.1999 23.1053 12.12 23.4793C12.0405 23.8532 11.9937 24.3132 12.0007 24.7475C12.0078 25.1819 12.0685 25.5907 12.1718 25.9948C12.2747 26.399 12.4201 26.7986 12.5769 27.1283C12.7339 27.4582 12.9026 27.7183 13.1228 27.9901C13.3431 28.2619 13.6147 28.5452 13.8936 28.7915C14.1724 29.0377 14.458 29.2468 14.7393 29.4186C15.0202 29.5905 15.2967 29.7253 15.6434 29.8506C15.9902 29.9761 16.4072 30.0922 16.7656 30.1666C17.124 30.2409 17.4238 30.2734 17.7004 30.2734C17.9768 30.2734 18.2296 30.2409 18.4991 30.1828C18.7684 30.1247 19.0544 30.0412 19.2862 29.9691C19.5181 29.8971 19.6961 29.8367 19.8227 29.7876C19.9493 29.7385 20.0246 29.7007 20.0622 29.6818C20.0997 29.6629 20.0997 29.6629 20.0961 29.6609C20.0923 29.659 20.085 29.6552 20.0773 29.6513" stroke="white" stroke-width="0.3501"/>
<path d="M14.9396 29.5354C14.6636 29.286 14.3875 29.0365 14.13 28.7816C13.8723 28.5268 13.6334 28.2667 13.4225 27.9507C13.2115 27.6349 13.0291 27.2633 12.9025 26.8382C12.776 26.4131 12.7056 25.9345 12.6892 25.4143C12.6728 24.894 12.7104 24.3318 12.8274 23.7906C12.9447 23.2495 13.1413 22.7291 13.3521 22.2901C13.5631 21.8511 13.7879 21.4933 14.1183 21.1148C14.4486 20.7362 14.8842 20.3367 15.2966 20.0277C15.7088 19.7188 16.0977 19.5004 16.4795 19.3216C16.8614 19.1428 17.2361 19.0034 17.7328 18.9128C18.2295 18.8223 18.848 18.7804 19.3375 18.7874C19.8271 18.7943 20.1879 18.8501 20.572 18.9825C20.9564 19.1149 21.3638 19.3239 21.6966 19.5121C22.0293 19.7002 22.2868 19.8674 22.5142 20.0695C22.7412 20.2716 22.9382 20.5085 23.1114 20.7595C23.285 21.0103 23.4348 21.2751 23.5793 21.5126C23.7238 21.7502 23.8631 21.9605 23.9547 22.1462C24.0464 22.3318 24.0906 22.4928 24.1351 22.6537" stroke="white" stroke-width="0.3501"/>
<path d="M22.0685 23.405C21.8991 23.1596 21.7295 22.9141 21.4645 22.7078C21.1994 22.5014 20.8385 22.3342 20.4966 22.2344C20.1547 22.1345 19.8312 22.1019 19.515 22.1275C19.1988 22.1531 18.8896 22.2366 18.5687 22.3667C18.2476 22.4968 17.915 22.6733 17.6457 22.8614C17.3762 23.0496 17.17 23.2494 17.0132 23.4468C16.8562 23.6443 16.7485 23.8393 16.6335 24.0925C16.5188 24.3457 16.397 24.6571 16.3222 24.952C16.247 25.247 16.2189 25.5257 16.2447 25.8741C16.2704 26.2226 16.3503 26.6406 16.4907 26.9844C16.6313 27.3282 16.8329 27.5976 17.0273 27.8044C17.2215 28.0112 17.409 28.1551 17.5918 28.2527C17.7745 28.3502 17.9526 28.4014 18.1307 28.4525" stroke="white" stroke-width="0.3501"/>
<path d="M19.131 29.0218C18.9618 28.9991 18.7927 28.9765 18.4342 28.7027C18.0757 28.429 17.5272 27.9039 17.197 27.5834C16.8667 27.2629 16.7542 27.1467 16.6982 27.0887C16.642 27.0306 16.642 27.0306 16.5751 26.8264C16.5084 26.6224 16.3749 26.2143 16.3084 26.0101C16.2415 25.8061 16.2415 25.8061 16.4911 25.3388C16.7405 24.8716 17.2395 23.9372 17.7381 23.0029" stroke="white" stroke-width="0.3501"/>
<path d="M21.9211 23.4492C21.5387 23.1797 21.1564 22.9102 20.9206 22.7568C20.6849 22.6034 20.5961 22.5663 20.5515 22.5477C20.5069 22.5292 20.5069 22.5292 20.0456 22.6082C19.584 22.6871 18.6609 22.845 18.1996 22.924C17.738 23.0031 17.738 23.0031 17.8996 23.1633C18.0614 23.3236 18.3846 23.6441 18.5461 23.8043C18.7079 23.9646 18.7079 23.9646 19.1882 23.8787C19.6683 23.7927 20.6288 23.6209 21.5893 23.449" stroke="white" stroke-width="0.3501"/>
<path d="M18.7172 23.9282C18.2876 24.8648 17.8583 25.8012 17.4287 26.7378" stroke="white" stroke-width="0.3501"/>
<path d="M18.4261 28.4384C18.4215 28.4337 18.4168 28.4292 18.2505 28.1457C18.0841 27.8623 17.7563 27.3002 17.395 26.8752C17.0338 26.45 16.6394 26.162 16.2451 25.874" stroke="white" stroke-width="0.3501"/>
<path d="M33.5643 14.7383C33.4145 17.4142 33.2645 20.09 32.9366 21.623C32.6087 23.1561 32.1025 23.5463 30.4346 23.9829C28.7666 24.4195 25.9368 24.9027 24.0533 25.3116C22.1701 25.7203 21.2329 26.0548 20.624 26.5008C20.0148 26.9468 19.7337 27.5043 19.62 28.0024C19.5066 28.5007 19.5603 28.9397 19.6646 29.2046C19.7685 29.4696 19.9231 29.5603 20.0774 29.651" stroke="white" stroke-width="0.3501"/>
<path d="M31.7183 26.2523C32.5064 26.3278 33.1199 26.6497 33.0887 26.9716C33.0572 27.2933 32.3929 27.4929 31.6048 27.4175C30.8168 27.342 30.2033 27.02 30.2345 26.6983C30.266 26.3764 30.9302 26.1768 31.7183 26.2523Z" stroke="white" stroke-width="0.3501" stroke-dasharray="0.35 0.35 0.35 0.35"/>
<path d="M31.6618 26.5506C32.4498 26.6262 33.0633 26.9481 33.0321 27.2699C33.0006 27.5917 32.3364 27.7913 31.5484 27.7159C30.76 27.6404 30.1465 27.3184 30.1779 26.9966C30.2095 26.6748 30.8738 26.4752 31.6618 26.5506Z" stroke="white" stroke-width="0.3501" stroke-dasharray="0.35 0.35 0.35 0.35"/>
<path d="M31.5619 28.1494C32.3106 28.2212 32.8936 28.527 32.8637 28.8327C32.834 29.1384 32.203 29.328 31.4542 29.2564C30.7055 29.1847 30.1228 28.8788 30.1525 28.5731C30.1822 28.2674 30.8134 28.0778 31.5619 28.1494Z" stroke="white" stroke-width="0.3501" stroke-dasharray="0.35 0.35 0.35 0.35"/>
<path d="M30.2343 26.6987L30.1775 26.9968L30.1514 28.5918" stroke="white" stroke-width="0.3501" stroke-dasharray="0.35 0.35 0.35 0.35"/>
<path d="M33.0885 26.9722L32.9551 27.4327L32.8637 28.833L32.6924 29.846" stroke="white" stroke-width="0.3501" stroke-dasharray="0.35 0.35 0.35 0.35"/>
<path d="M30.1523 28.5732L30.1625 29.9016" stroke="white" stroke-width="0.3501" stroke-dasharray="0.35 0.35 0.35 0.35"/>
<path d="M31.869 29.4482C32.3603 29.568 32.6981 29.7964 32.676 30.0245C32.6479 30.3141 32.0499 30.4938 31.3406 30.4259C30.6314 30.358 30.0791 30.068 30.1075 29.7785C30.1134 29.7172 30.1448 29.661 30.1974 29.6109" stroke="white" stroke-width="0.3501"/>
<path d="M30.1434 30.7561C30.1281 30.8235 30.1211 30.9791 30.1222 31.0708C30.1235 31.1626 30.1328 31.1905 30.1866 31.2381C30.2405 31.2857 30.3389 31.3531 30.4443 31.4087C30.5499 31.4645 30.6624 31.5087 30.7968 31.5353C30.9316 31.5621 31.0886 31.5714 31.2303 31.5679C31.372 31.5644 31.4985 31.5482 31.6238 31.5203C31.7492 31.4925 31.8734 31.4529 31.9941 31.3995C32.1146 31.346 32.2318 31.2787 32.322 31.1997C32.4122 31.1207 32.4753 31.0302 32.5107 30.9779C32.5456 30.9257 32.5528 30.9117 32.5587 30.8467C32.5645 30.7816 32.569 30.6655 32.5714 30.6074C32.5738 30.5494 32.5738 30.5494 32.5587 30.5667C32.5433 30.5842 32.5129 30.619 32.465 30.6678C32.4169 30.7165 32.3512 30.7793 32.2352 30.8455C32.1192 30.9117 31.953 30.9813 31.8299 31.0255C31.7071 31.0696 31.6275 31.0883 31.5266 31.0999C31.4258 31.1115 31.304 31.1161 31.1857 31.1103C31.0674 31.1046 30.9526 31.0883 30.8322 31.0569C30.7113 31.0255 30.5849 30.9791 30.497 30.9361C30.4092 30.8931 30.36 30.8536 30.318 30.8199C30.2758 30.7863 30.2405 30.7584 30.2113 30.734C30.1822 30.7096 30.1586 30.6888 30.1434 30.7561Z" stroke="white" stroke-width="0.3501"/>
<path d="M30.1092 31.3935C30.0956 31.4611 30.0926 31.617 30.096 31.7088C30.0994 31.8004 30.1093 31.828 30.1644 31.8743C30.2193 31.9206 30.3195 31.9856 30.4263 32.0388C30.5329 32.092 30.6465 32.1334 30.7818 32.1569C30.9171 32.1803 31.0742 32.1858 31.2159 32.1789C31.3574 32.1721 31.4835 32.1527 31.6082 32.1218C31.7327 32.091 31.8557 32.0485 31.9751 31.9922C32.0944 31.9359 32.2098 31.8658 32.298 31.7846C32.3863 31.7035 32.4473 31.6114 32.4813 31.5583C32.5151 31.5052 32.5217 31.4911 32.5259 31.4259C32.5303 31.3608 32.5322 31.2446 32.5331 31.1865C32.534 31.1284 32.534 31.1284 32.5191 31.1462C32.5044 31.1639 32.4749 31.1994 32.4279 31.2494C32.3813 31.2993 32.317 31.3636 32.2028 31.4325C32.0884 31.5015 31.9239 31.5752 31.8022 31.6223C31.6801 31.6694 31.6009 31.6898 31.5006 31.7039C31.4002 31.718 31.2785 31.7255 31.1601 31.7226C31.0417 31.7196 30.9264 31.7061 30.805 31.6776C30.6838 31.6493 30.5563 31.6058 30.4672 31.565C30.3783 31.5241 30.3283 31.4858 30.2852 31.4532C30.2424 31.4206 30.2065 31.3935 30.1765 31.3698C30.1469 31.3462 30.1228 31.3259 30.1092 31.3935Z" stroke="white" stroke-width="0.3501"/>
<path d="M30.0768 32.0314C30.0651 32.0993 30.0656 32.2551 30.0713 32.3467C30.0768 32.4383 30.0875 32.4656 30.1437 32.5106C30.1999 32.5556 30.3014 32.6182 30.4094 32.6687C30.5176 32.7194 30.632 32.758 30.7679 32.7782C30.9037 32.7984 31.0608 32.8001 31.2025 32.7898C31.3437 32.7796 31.4692 32.7573 31.593 32.7234C31.717 32.6895 31.8389 32.6441 31.9567 32.5848C32.0746 32.5257 32.1884 32.4528 32.2748 32.3696C32.3608 32.2864 32.4195 32.1929 32.4522 32.1389C32.4848 32.0851 32.4911 32.0707 32.4936 32.0056C32.4964 31.9403 32.4954 31.8241 32.4949 31.766C32.4944 31.7079 32.4944 31.7079 32.4799 31.726C32.4655 31.7441 32.4368 31.7804 32.3913 31.8314C32.3458 31.8824 32.2834 31.9483 32.1707 32.0199C32.0581 32.0917 31.8955 32.1692 31.7747 32.2192C31.654 32.2693 31.5754 32.2917 31.4755 32.308C31.3752 32.3245 31.2539 32.3351 31.1356 32.3349C31.0171 32.3348 30.9014 32.3241 30.7796 32.2986C30.6574 32.2731 30.5288 32.2328 30.439 32.1941C30.3491 32.1554 30.298 32.1183 30.2543 32.0866C30.2106 32.0551 30.1741 32.029 30.1437 32.0059C30.1131 31.9831 30.0889 31.9633 30.0768 32.0314Z" stroke="white" stroke-width="0.3501"/>
<path d="M30.0753 32.6684C30.0651 32.7367 30.0695 32.8924 30.0775 32.9838C30.0854 33.0753 30.0966 33.1024 30.1539 33.146C30.2111 33.1896 30.3143 33.2497 30.4235 33.2976C30.5327 33.3457 30.648 33.3816 30.7843 33.3985C30.9207 33.4154 31.0779 33.4134 31.219 33.3996C31.3601 33.386 31.4851 33.3606 31.6079 33.3237C31.731 33.2869 31.8519 33.2386 31.9683 33.1766C32.0847 33.1146 32.1966 33.039 32.2809 32.9538C32.365 32.8684 32.4213 32.7734 32.4527 32.7189C32.4837 32.6642 32.4897 32.6499 32.4909 32.5845C32.492 32.5191 32.4881 32.4031 32.4862 32.3449C32.4842 32.2869 32.4842 32.2869 32.4702 32.3053C32.4565 32.3238 32.4285 32.3607 32.3843 32.4128C32.3401 32.465 32.2791 32.5323 32.1685 32.6067C32.0574 32.681 31.8968 32.7625 31.7773 32.8155C31.6579 32.8683 31.5798 32.8926 31.4803 32.9115C31.3807 32.9304 31.2596 32.9437 31.1412 32.9465C31.0226 32.9493 30.907 32.9413 30.7842 32.9188C30.6617 32.8962 30.5321 32.859 30.4414 32.8224C30.3508 32.7859 30.2987 32.7501 30.2542 32.7196C30.2096 32.689 30.1726 32.6637 30.1417 32.6415C30.1106 32.6193 30.0856 32.6002 30.0753 32.6684Z" stroke="white" stroke-width="0.3501"/>
<path d="M30.0759 33.3062C30.0673 33.3747 30.0754 33.5304 30.0856 33.6216C30.0958 33.7128 30.1079 33.7397 30.1662 33.7818C30.2244 33.8241 30.329 33.8816 30.4393 33.9269C30.5497 33.9723 30.6659 34.0054 30.8025 34.0191C30.9392 34.0327 31.0964 34.0269 31.2371 34.0098C31.3777 33.9927 31.5022 33.9643 31.6241 33.9245C31.7463 33.8847 31.866 33.8335 31.9807 33.7687C32.0955 33.7039 32.2055 33.6257 32.2875 33.5384C32.3696 33.4511 32.4238 33.3549 32.4535 33.2995C32.4834 33.2441 32.4892 33.2295 32.4887 33.1643C32.4881 33.0989 32.4814 32.9828 32.478 32.9249C32.4747 32.8669 32.4747 32.8669 32.4611 32.8856C32.4477 32.9045 32.4209 32.9421 32.3777 32.9952C32.3348 33.0484 32.2756 33.1171 32.1668 33.1942C32.0576 33.2712 31.899 33.3565 31.7811 33.4123C31.6628 33.468 31.5853 33.4942 31.4863 33.5154C31.3872 33.5368 31.2663 33.553 31.1481 33.5586C31.0299 33.5643 30.914 33.5591 30.7908 33.5394C30.6676 33.5199 30.5371 33.4858 30.4454 33.4515C30.3539 33.4171 30.301 33.3826 30.2558 33.353C30.2106 33.3236 30.1729 33.2993 30.1414 33.2778C30.1098 33.2563 30.0844 33.2378 30.0759 33.3062Z" stroke="white" stroke-width="0.3501"/>
<path d="M30.0772 33.9444C30.0703 34.0131 30.0824 34.1685 30.0947 34.2593C30.1072 34.3503 30.1198 34.3769 30.179 34.4176C30.2383 34.4584 30.3443 34.5134 30.4556 34.5561C30.5671 34.5988 30.6843 34.6292 30.8211 34.6395C30.9581 34.6498 31.1151 34.6402 31.2553 34.6198C31.3956 34.5993 31.5191 34.5679 31.6403 34.5251C31.7611 34.4826 31.8796 34.4284 31.9929 34.3609C32.1061 34.2933 32.2141 34.2125 32.2941 34.1232C32.3738 34.034 32.4256 33.9364 32.4542 33.8804C32.4825 33.8243 32.4878 33.8096 32.4857 33.7443C32.4836 33.679 32.474 33.5632 32.4692 33.5052C32.4644 33.4474 32.4644 33.4474 32.4516 33.4665C32.4386 33.4856 32.4126 33.5239 32.3709 33.578C32.3292 33.6322 32.2718 33.7024 32.1647 33.782C32.0576 33.8616 31.901 33.9508 31.7843 34.0094C31.6676 34.0679 31.5908 34.0959 31.4925 34.1196C31.3939 34.1432 31.2733 34.1624 31.1554 34.1709C31.0371 34.1794 30.9211 34.177 30.7976 34.1604C30.6741 34.1436 30.5427 34.1127 30.4502 34.0806C30.3579 34.0486 30.3042 34.0152 30.2582 33.9869C30.2124 33.9585 30.1741 33.935 30.1421 33.9143C30.1099 33.8936 30.084 33.8757 30.0772 33.9444Z" stroke="white" stroke-width="0.3501"/>
<path d="M30.0792 34.5822C30.0739 34.651 30.0898 34.806 30.1045 34.8966C30.1189 34.9873 30.1322 35.0135 30.1927 35.0528C30.2529 35.0921 30.3601 35.1447 30.4727 35.1846C30.5851 35.2246 30.7025 35.2521 30.8398 35.2591C30.977 35.2662 31.1337 35.2527 31.2733 35.229C31.413 35.2051 31.5358 35.1708 31.6557 35.1252C31.7758 35.0796 31.8928 35.0227 32.0044 34.9525C32.1158 34.8822 32.222 34.7987 32.2996 34.7076C32.3773 34.6164 32.4267 34.5177 32.4538 34.4609C32.4809 34.4041 32.4859 34.3893 32.482 34.3241C32.4782 34.2591 32.4659 34.1434 32.4597 34.0856C32.4535 34.0279 32.4535 34.0279 32.4411 34.0473C32.4287 34.0666 32.4033 34.1056 32.3631 34.1607C32.3229 34.2159 32.2671 34.2874 32.1619 34.3696C32.057 34.4517 31.9024 34.5447 31.7875 34.6059C31.672 34.6674 31.5959 34.6973 31.4981 34.7232C31.4 34.7492 31.2803 34.7714 31.1624 34.7825C31.0444 34.794 30.9285 34.7943 30.8045 34.7807C30.6807 34.7671 30.5488 34.7392 30.4555 34.7094C30.3623 34.6795 30.3076 34.6475 30.2612 34.6203C30.2146 34.593 30.1757 34.5705 30.1432 34.5505C30.1105 34.5306 30.0843 34.5133 30.0792 34.5822Z" stroke="white" stroke-width="0.3501"/>
<path d="M30.1449 35.2201C30.1415 35.2891 30.1611 35.4437 30.1779 35.5339C30.1947 35.6242 30.2086 35.6501 30.27 35.6879C30.3311 35.7258 30.4396 35.7757 30.553 35.8129C30.6664 35.8502 30.7846 35.8749 30.9219 35.8786C31.0595 35.8823 31.2158 35.8651 31.3549 35.838C31.4937 35.8107 31.6158 35.7735 31.7345 35.7251C31.8532 35.6767 31.9689 35.6169 32.0786 35.5439C32.1885 35.4711 32.2925 35.3851 32.3678 35.2921C32.4433 35.1992 32.4903 35.0992 32.516 35.0418C32.5417 34.9844 32.5461 34.9694 32.5408 34.9044C32.5354 34.8393 32.5204 34.7241 32.5126 34.6664C32.505 34.6089 32.505 34.6089 32.4932 34.6285C32.4812 34.6482 32.4569 34.6877 32.4181 34.7438C32.3789 34.8 32.325 34.8727 32.2221 34.9575C32.1189 35.0421 31.967 35.1387 31.8532 35.2029C31.7396 35.267 31.6644 35.2987 31.567 35.327C31.4697 35.3553 31.3505 35.3803 31.2328 35.3944C31.1153 35.4086 30.9994 35.4119 30.8749 35.4011C30.7507 35.3905 30.6182 35.3659 30.5242 35.3383C30.4305 35.3107 30.3752 35.28 30.3278 35.2538C30.2807 35.2278 30.2411 35.2061 30.2081 35.187C30.1751 35.1679 30.1484 35.1513 30.1449 35.2201Z" stroke="white" stroke-width="0.3501"/>
<path d="M30.2443 35.8583C30.2423 35.9272 30.2658 36.0813 30.2849 36.1712C30.3039 36.261 30.3184 36.2865 30.3805 36.3229C30.4427 36.3594 30.5522 36.4066 30.6667 36.4411C30.7808 36.4756 30.8999 36.4974 31.0372 36.4978C31.1745 36.4983 31.3303 36.4774 31.4688 36.4468C31.6071 36.4163 31.728 36.3761 31.8456 36.3247C31.9631 36.2734 32.0774 36.2109 32.1852 36.1354C32.2933 36.0599 32.3952 35.9714 32.4682 35.8767C32.5413 35.7819 32.5858 35.6809 32.6101 35.6228C32.6343 35.5649 32.6387 35.5499 32.6316 35.485C32.6247 35.42 32.6067 35.3052 32.5978 35.2478C32.5887 35.1903 32.5887 35.1903 32.5771 35.2103C32.5656 35.2303 32.5426 35.2704 32.5048 35.3273C32.4673 35.3844 32.4151 35.4586 32.3142 35.5457C32.2134 35.6329 32.0636 35.7331 31.9516 35.7999C31.8394 35.8667 31.765 35.9002 31.6684 35.9309C31.5718 35.9615 31.4532 35.9894 31.336 36.0064C31.2188 36.0233 31.103 36.0293 30.9785 36.0216C30.854 36.014 30.721 35.9926 30.6264 35.9672C30.5318 35.9419 30.4758 35.9125 30.4279 35.8875C30.38 35.8626 30.34 35.842 30.3067 35.8236C30.273 35.8053 30.2462 35.7893 30.2443 35.8583Z" stroke="white" stroke-width="0.3501"/>
<path d="M30.3428 36.4966C30.3428 36.5656 30.37 36.719 30.3912 36.8084C30.4122 36.8977 30.4276 36.9229 30.4906 36.9577C30.5534 36.9926 30.6643 37.0372 30.7794 37.069C30.8946 37.1008 31.014 37.1197 31.1512 37.1168C31.2885 37.1139 31.4438 37.0892 31.5815 37.0554C31.7192 37.0215 31.839 36.9785 31.9553 36.9243C32.0714 36.8702 32.184 36.8049 32.2901 36.7268C32.3963 36.6488 32.4958 36.5578 32.5666 36.4613C32.6374 36.3649 32.6794 36.2628 32.7023 36.2043C32.7251 36.1457 32.7289 36.1306 32.7206 36.0658C32.7119 36.0011 32.6911 35.8867 32.6807 35.8295C32.6703 35.7723 32.6703 35.7723 32.6592 35.7926C32.6483 35.8129 32.6261 35.8534 32.5898 35.9114C32.5538 35.9693 32.5034 36.0447 32.4046 36.1341C32.3059 36.2237 32.1587 36.3275 32.0484 36.397C31.9379 36.4666 31.8641 36.5018 31.7684 36.5348C31.6727 36.5678 31.5548 36.5985 31.4379 36.6182C31.3212 36.638 31.2056 36.6468 31.0809 36.6422C30.9563 36.6374 30.8228 36.6193 30.7275 36.5962C30.6324 36.5732 30.5757 36.5452 30.5271 36.5213C30.4786 36.4976 30.4383 36.4778 30.4043 36.4604C30.3704 36.4429 30.3429 36.4276 30.3428 36.4966Z" stroke="white" stroke-width="0.3501"/>
<path d="M30.4434 37.1344C30.4449 37.2033 30.4759 37.356 30.4991 37.4449C30.5225 37.5336 30.5385 37.5585 30.6025 37.5919C30.6662 37.6252 30.7781 37.6672 30.894 37.6961C31.0098 37.7251 31.1296 37.7412 31.2669 37.735C31.4041 37.7288 31.5586 37.7003 31.6953 37.6632C31.8321 37.6261 31.9508 37.5802 32.0658 37.5232C32.1807 37.4663 32.2917 37.3983 32.3958 37.3177C32.4999 37.2371 32.5973 37.1438 32.6657 37.0457C32.7341 36.9475 32.7735 36.8444 32.7949 36.7854C32.8166 36.7262 32.8199 36.7111 32.8097 36.6465C32.7996 36.582 32.7762 36.4681 32.7642 36.4112C32.7524 36.3543 32.7524 36.3543 32.7419 36.3749C32.7313 36.3954 32.7103 36.4365 32.6754 36.4953C32.6406 36.5541 32.5922 36.6306 32.4956 36.7225C32.3991 36.8144 32.2545 36.9217 32.1459 36.9938C32.0372 37.066 31.9643 37.103 31.8694 37.1383C31.7745 37.1736 31.6573 37.2071 31.5411 37.2297C31.425 37.2523 31.3097 37.2638 31.1849 37.2622C31.0602 37.2605 30.926 37.2455 30.8304 37.2248C30.7349 37.204 30.6773 37.1774 30.6283 37.1548C30.5792 37.1322 30.5385 37.1134 30.5041 37.0967C30.4696 37.0801 30.442 37.0654 30.4434 37.1344Z" stroke="white" stroke-width="0.3501"/>
<path d="M32.8574 29.3501C32.8726 29.85 32.888 30.3498 32.9191 30.6321C32.9502 30.9146 32.997 30.9797 33.1281 31.0609C33.2593 31.1423 33.4749 31.2398 33.7465 31.3095C34.0182 31.3792 34.3464 31.421 34.6953 31.4372C35.0444 31.4535 35.4144 31.4442 35.7962 31.4047C36.1782 31.3653 36.5717 31.2955 36.8811 31.2258C37.1901 31.1562 37.415 31.0865 37.5673 31.0052C37.7196 30.9239 37.7992 30.831 37.8462 30.7752C37.8929 30.7195 37.9069 30.701 37.9117 30.5059C37.9162 30.3109 37.9113 29.9395 37.9065 29.5681" stroke="white" stroke-width="0.3501"/>
<path d="M35.0886 29.8287C35.0871 29.683 35.0857 29.5372 35.0849 29.4528C35.0843 29.3683 35.0843 29.3451 35.0258 29.3358C34.9671 29.3264 34.85 29.3311 34.6135 29.3287C34.3769 29.3264 34.0208 29.3171 33.8169 29.3032C33.6131 29.2893 33.5616 29.2707 33.5362 29.3464C33.5107 29.422 33.5115 29.5917 33.5118 29.6766C33.5122 29.7616 33.5122 29.7616 33.5122 29.7616" stroke="white" stroke-width="0.3501"/>
<path d="M37.022 29.6489C36.6658 29.7466 36.3096 29.8441 35.9841 29.9324C35.6584 30.0206 35.3634 30.0996 35.0776 30.1832C34.7916 30.2668 34.5152 30.355 34.2997 30.4411C34.0843 30.527 33.9296 30.6106 33.8008 30.6988C33.672 30.7871 33.5689 30.8801 33.4658 30.9729" stroke="white" stroke-width="0.3501"/>
<path d="M30.2009 30.173C30.1857 30.2403 30.1787 30.3961 30.1798 30.4878C30.1809 30.5796 30.1905 30.6074 30.2443 30.655C30.2981 30.7026 30.3966 30.77 30.5019 30.8257C30.6075 30.8815 30.7197 30.9257 30.8544 30.9523C30.9893 30.979 31.1461 30.9883 31.288 30.9848C31.4297 30.9814 31.5561 30.9651 31.6813 30.9373C31.8066 30.9093 31.9309 30.8699 32.0515 30.8164C32.1723 30.7631 32.2893 30.6957 32.3794 30.6168C32.4696 30.5377 32.533 30.4471 32.5681 30.3949C32.6034 30.3426 32.6102 30.3286 32.6161 30.2636C32.6219 30.1986 32.6266 30.0825 32.629 30.0244C32.6314 29.9664 32.6314 29.9664 32.6161 29.9838C32.601 30.0012 32.5704 30.0361 32.5224 30.0848C32.4743 30.1336 32.4089 30.1963 32.2929 30.2625C32.177 30.3287 32.0106 30.3984 31.8875 30.4424C31.7646 30.4867 31.6849 30.5051 31.5843 30.5168C31.4835 30.5285 31.3617 30.5331 31.2434 30.5273C31.1251 30.5215 31.0102 30.5051 30.8896 30.4739C30.7691 30.4425 30.6425 30.3961 30.5548 30.353C30.467 30.3101 30.4175 30.2706 30.3754 30.2369C30.3332 30.2032 30.2981 30.1755 30.269 30.151C30.2395 30.1266 30.2161 30.1057 30.2009 30.173Z" stroke="white" stroke-width="0.3501"/>
<defs>
<linearGradient id="paint0_linear_962_1012" x1="115" y1="0.000488281" x2="115" y2="58.0003" gradientUnits="userSpaceOnUse">
<stop stop-color="#101F52"/>
<stop offset="0.9999" stop-color="#101F52" stop-opacity="0.8125"/>
<stop offset="1" stop-color="#101F52" stop-opacity="0"/>
</linearGradient>
</defs>
</svg>
