<svg width="204" height="58" viewBox="0 0 204 58" fill="none" xmlns="http://www.w3.org/2000/svg">
<rect y="0.000488281" width="204" height="57.9998" rx="5" fill="url(#paint0_linear_973_2043)"/>
<path d="M95.9712 48.6508C82.2707 49.9357 66.6623 53.2274 63.7963 53.8466C63.4888 53.913 63.204 54.0495 62.9577 54.2453C61.4218 55.4663 62.2852 57.9397 64.2472 57.9397H198.932C201.693 57.9397 203.932 55.7012 203.932 52.9397V46.7444C203.932 43.6216 201.101 41.263 198.029 41.8265L192.215 42.8932L171.292 45.0043L150.639 47.0883C150.46 47.1064 150.303 47.1149 150.123 47.1138C146.964 47.095 114.174 46.9435 95.9712 48.6508Z" fill="#0F2458" fill-opacity="0.5"/>
<path d="M120.802 49.99C110.348 51.0799 98.4501 53.8565 96.0896 54.422C95.8089 54.4893 95.5573 54.6233 95.341 54.8144C94.1079 55.904 94.8786 57.94 96.5241 57.94H198.932C201.693 57.94 203.932 55.7014 203.932 52.94V49.3451C203.932 46.1822 201.032 43.814 197.933 44.4459L194.91 45.0623L178.8 46.8691L162.987 48.6425C162.789 48.6648 162.592 48.6752 162.392 48.6739C159.405 48.6553 134.635 48.5481 120.802 49.99Z" fill="#0D2862" fill-opacity="0.5"/>
<path d="M106.942 12.4689C120.109 10.7945 135.057 6.58121 138.514 5.57623C139.002 5.43455 139.436 5.16236 139.782 4.79025C141.474 2.96561 140.18 -1.80105e-05 137.691 -1.80105e-05L5.06077 -1.80105e-05C2.29935 -1.80105e-05 0.0607738 2.23856 0.0607738 4.99998L0.0607738 16.6869C0.0607738 19.9373 3.11343 22.3237 6.26774 21.539L11.6602 20.1976L32.3736 17.3638L52.7248 14.5795C52.9659 14.5465 53.2002 14.5311 53.4435 14.5329C57.1648 14.5615 89.1168 14.7357 106.942 12.4689Z" fill="#0F2458" fill-opacity="0.7"/>
<path d="M93.9862 9.37271C105.752 8.09295 119.134 4.84039 121.876 4.1557C122.215 4.07109 122.517 3.90408 122.773 3.66734C124.188 2.3628 123.265 7.23182e-05 121.341 7.23182e-05L5.06069 7.23182e-05C2.29926 7.23182e-05 0.060692 2.23865 0.060692 5.00007V11.1753C0.060692 14.3555 2.99062 16.7277 6.10125 16.0658L10.2542 15.1822L28.4568 13.0521L46.3486 10.9583C46.5556 10.9341 46.7541 10.9227 46.9626 10.9241C50.184 10.9454 78.3056 11.0784 93.9862 9.37271Z" fill="#0D2862" fill-opacity="0.7"/>
<path d="M77.072 19.12C76.6827 19.12 76.328 19.056 76.008 18.928C75.688 18.8 75.4133 18.6133 75.184 18.368C74.9547 18.1227 74.776 17.8213 74.648 17.464C74.5253 17.1013 74.464 16.688 74.464 16.224C74.464 15.76 74.5333 15.3493 74.672 14.992C74.816 14.6293 75.008 14.3253 75.248 14.08C75.488 13.8347 75.768 13.648 76.088 13.52C76.408 13.392 76.7493 13.328 77.112 13.328C77.3413 13.328 77.5467 13.344 77.728 13.376C77.9147 13.408 78.0747 13.4453 78.208 13.488C78.3467 13.5307 78.4587 13.5733 78.544 13.616C78.6293 13.6587 78.688 13.6907 78.72 13.712L78.496 14.352C78.448 14.32 78.3787 14.2853 78.288 14.248C78.1973 14.2107 78.0933 14.1733 77.976 14.136C77.864 14.0987 77.7387 14.0693 77.6 14.048C77.4667 14.0213 77.3307 14.008 77.192 14.008C76.8987 14.008 76.6347 14.0587 76.4 14.16C76.1653 14.2613 75.9653 14.408 75.8 14.6C75.6347 14.792 75.5067 15.0267 75.416 15.304C75.3307 15.576 75.288 15.8827 75.288 16.224C75.288 16.5547 75.3253 16.856 75.4 17.128C75.48 17.4 75.5973 17.6347 75.752 17.832C75.9067 18.024 76.0987 18.1733 76.328 18.28C76.5627 18.3867 76.8347 18.44 77.144 18.44C77.5013 18.44 77.7973 18.4027 78.032 18.328C78.2667 18.2533 78.4427 18.1867 78.56 18.128L78.76 18.768C78.7227 18.7947 78.656 18.8293 78.56 18.872C78.464 18.9093 78.344 18.9467 78.2 18.984C78.056 19.0213 77.888 19.0533 77.696 19.08C77.504 19.1067 77.296 19.12 77.072 19.12ZM80.3929 15.936C80.3396 16.464 80.2996 16.992 80.2729 17.52C80.2463 18.0427 80.2249 18.536 80.2089 19H79.4969C79.5076 18.6747 79.5236 18.336 79.5449 17.984C79.5663 17.6267 79.5903 17.2693 79.6169 16.912C79.6436 16.5493 79.6729 16.1947 79.7049 15.848C79.7369 15.496 79.7716 15.16 79.8089 14.84H80.4889C80.6596 15.1173 80.8596 15.4987 81.0889 15.984C81.3183 16.464 81.5823 17.0187 81.8809 17.648C82.1796 17.0187 82.4436 16.464 82.6729 15.984C82.9023 15.4987 83.1023 15.1173 83.2729 14.84H83.9609C83.9983 15.16 84.0329 15.496 84.0649 15.848C84.0969 16.1947 84.1263 16.5493 84.1529 16.912C84.1796 17.2693 84.2036 17.6267 84.2249 17.984C84.2463 18.336 84.2623 18.6747 84.2729 19H83.5369C83.5209 18.536 83.4996 18.0427 83.4729 17.52C83.4463 16.992 83.4063 16.464 83.3529 15.936C83.2676 16.1013 83.1689 16.3013 83.0569 16.536C82.9449 16.7653 82.8329 17 82.7209 17.24C82.6143 17.48 82.5129 17.7093 82.4169 17.928C82.3209 18.1467 82.2463 18.32 82.1929 18.448H81.5689C81.5103 18.3147 81.4303 18.1387 81.3289 17.92C81.2329 17.7013 81.1289 17.472 81.0169 17.232C80.9103 16.9867 80.8009 16.7493 80.6889 16.52C80.5769 16.2853 80.4783 16.0907 80.3929 15.936ZM85.2205 16.928C85.2205 16.56 85.2738 16.24 85.3805 15.968C85.4872 15.6907 85.6285 15.4613 85.8045 15.28C85.9805 15.0987 86.1832 14.9627 86.4125 14.872C86.6418 14.7813 86.8765 14.736 87.1165 14.736C87.6765 14.736 88.1058 14.912 88.4045 15.264C88.7032 15.6107 88.8525 16.1413 88.8525 16.856C88.8525 16.888 88.8525 16.9307 88.8525 16.984C88.8525 17.032 88.8498 17.0773 88.8445 17.12H85.9965C86.0285 17.552 86.1538 17.88 86.3725 18.104C86.5912 18.328 86.9325 18.44 87.3965 18.44C87.6578 18.44 87.8765 18.4187 88.0525 18.376C88.2338 18.328 88.3698 18.2827 88.4605 18.24L88.5645 18.864C88.4738 18.912 88.3138 18.9627 88.0845 19.016C87.8605 19.0693 87.6045 19.096 87.3165 19.096C86.9538 19.096 86.6392 19.0427 86.3725 18.936C86.1112 18.824 85.8952 18.672 85.7245 18.48C85.5538 18.288 85.4258 18.0613 85.3405 17.8C85.2605 17.5333 85.2205 17.2427 85.2205 16.928ZM88.0765 16.52C88.0818 16.184 87.9965 15.9093 87.8205 15.696C87.6498 15.4773 87.4125 15.368 87.1085 15.368C86.9378 15.368 86.7858 15.4027 86.6525 15.472C86.5245 15.536 86.4152 15.6213 86.3245 15.728C86.2338 15.8347 86.1618 15.9573 86.1085 16.096C86.0605 16.2347 86.0285 16.376 86.0125 16.52H88.0765ZM91.7293 19.096C91.3933 19.096 91.0973 19.0427 90.8413 18.936C90.5906 18.8293 90.3773 18.68 90.2013 18.488C90.0306 18.296 89.9026 18.0693 89.8173 17.808C89.7319 17.5413 89.6893 17.248 89.6893 16.928C89.6893 16.608 89.7346 16.3147 89.8253 16.048C89.9213 15.7813 90.0546 15.552 90.2253 15.36C90.3959 15.1627 90.6039 15.0107 90.8493 14.904C91.0999 14.792 91.3773 14.736 91.6813 14.736C91.8679 14.736 92.0546 14.752 92.2413 14.784C92.4279 14.816 92.6066 14.8667 92.7773 14.936L92.6093 15.568C92.4973 15.5147 92.3666 15.472 92.2173 15.44C92.0733 15.408 91.9186 15.392 91.7533 15.392C91.3373 15.392 91.0173 15.5227 90.7933 15.784C90.5746 16.0453 90.4653 16.4267 90.4653 16.928C90.4653 17.152 90.4893 17.3573 90.5373 17.544C90.5906 17.7307 90.6706 17.8907 90.7773 18.024C90.8893 18.1573 91.0306 18.2613 91.2013 18.336C91.3719 18.4053 91.5799 18.44 91.8253 18.44C92.0226 18.44 92.2013 18.4213 92.3613 18.384C92.5213 18.3467 92.6466 18.3067 92.7373 18.264L92.8413 18.888C92.7986 18.9147 92.7373 18.9413 92.6573 18.968C92.5773 18.9893 92.4866 19.008 92.3853 19.024C92.2839 19.0453 92.1746 19.0613 92.0573 19.072C91.9453 19.088 91.8359 19.096 91.7293 19.096ZM97.136 14.84V19H96.416V15.832C96.256 16.0347 96.08 16.272 95.888 16.544C95.696 16.816 95.504 17.0987 95.312 17.392C95.12 17.68 94.936 17.9653 94.76 18.248C94.584 18.5307 94.432 18.7813 94.304 19H93.64V14.84H94.36V17.832C94.4987 17.6027 94.656 17.352 94.832 17.08C95.008 16.8027 95.1893 16.5307 95.376 16.264C95.568 15.992 95.7573 15.7333 95.944 15.488C96.136 15.2373 96.3147 15.0213 96.48 14.84H97.136ZM101.349 14.84V15.464H99.9974V19H99.2534V15.464H97.9014V14.84H101.349ZM101.885 16.928C101.885 16.56 101.938 16.24 102.045 15.968C102.151 15.6907 102.293 15.4613 102.469 15.28C102.645 15.0987 102.847 14.9627 103.077 14.872C103.306 14.7813 103.541 14.736 103.781 14.736C104.341 14.736 104.77 14.912 105.069 15.264C105.367 15.6107 105.517 16.1413 105.517 16.856C105.517 16.888 105.517 16.9307 105.517 16.984C105.517 17.032 105.514 17.0773 105.509 17.12H102.661C102.693 17.552 102.818 17.88 103.037 18.104C103.255 18.328 103.597 18.44 104.061 18.44C104.322 18.44 104.541 18.4187 104.717 18.376C104.898 18.328 105.034 18.2827 105.125 18.24L105.229 18.864C105.138 18.912 104.978 18.9627 104.749 19.016C104.525 19.0693 104.269 19.096 103.981 19.096C103.618 19.096 103.303 19.0427 103.037 18.936C102.775 18.824 102.559 18.672 102.389 18.48C102.218 18.288 102.09 18.0613 102.005 17.8C101.925 17.5333 101.885 17.2427 101.885 16.928ZM104.741 16.52C104.746 16.184 104.661 15.9093 104.485 15.696C104.314 15.4773 104.077 15.368 103.773 15.368C103.602 15.368 103.45 15.4027 103.317 15.472C103.189 15.536 103.079 15.6213 102.989 15.728C102.898 15.8347 102.826 15.9573 102.773 16.096C102.725 16.2347 102.693 16.376 102.677 16.52H104.741ZM108.033 15.464C108.033 15.64 108.028 15.8293 108.017 16.032C108.012 16.2293 107.999 16.4293 107.977 16.632C107.956 16.8293 107.927 17.0267 107.889 17.224C107.852 17.416 107.804 17.5973 107.745 17.768C107.687 17.9387 107.612 18.0987 107.521 18.248C107.436 18.3973 107.329 18.5307 107.201 18.648C107.073 18.76 106.924 18.856 106.753 18.936C106.583 19.0107 106.383 19.0587 106.153 19.08L106.049 18.456C106.311 18.4027 106.516 18.304 106.665 18.16C106.82 18.016 106.943 17.84 107.033 17.632C107.113 17.4507 107.172 17.2453 107.209 17.016C107.247 16.7867 107.273 16.5493 107.289 16.304C107.305 16.0533 107.313 15.8027 107.313 15.552C107.319 15.3013 107.321 15.064 107.321 14.84H110.089V19H109.345V15.464H108.033ZM112.943 18.48C113.257 18.48 113.505 18.4187 113.687 18.296C113.868 18.1733 113.959 17.976 113.959 17.704C113.959 17.5707 113.932 17.456 113.879 17.36C113.825 17.264 113.751 17.1867 113.655 17.128C113.564 17.064 113.457 17.0187 113.335 16.992C113.212 16.96 113.081 16.944 112.943 16.944C112.799 16.944 112.649 16.9493 112.495 16.96C112.345 16.9653 112.217 16.9813 112.111 17.008V18.44C112.143 18.4453 112.191 18.4507 112.255 18.456C112.319 18.4613 112.388 18.4667 112.463 18.472C112.543 18.472 112.623 18.4747 112.703 18.48C112.788 18.48 112.868 18.48 112.943 18.48ZM111.367 18.912V14.84H112.111V16.432C112.153 16.4213 112.209 16.4107 112.279 16.4C112.353 16.3893 112.431 16.3787 112.511 16.368C112.596 16.3573 112.684 16.3493 112.775 16.344C112.865 16.3387 112.951 16.336 113.031 16.336C113.26 16.336 113.476 16.3627 113.679 16.416C113.881 16.464 114.057 16.544 114.207 16.656C114.361 16.7627 114.484 16.904 114.575 17.08C114.665 17.2507 114.711 17.456 114.711 17.696C114.711 17.9467 114.668 18.16 114.583 18.336C114.497 18.512 114.375 18.656 114.215 18.768C114.055 18.88 113.863 18.96 113.639 19.008C113.42 19.0613 113.175 19.088 112.903 19.088C112.636 19.088 112.375 19.072 112.119 19.04C111.863 19.0133 111.612 18.9707 111.367 18.912ZM120.789 19H120.045V15.464H118.189V19H117.445V14.84H120.789V19ZM125.742 16.92C125.742 17.2507 125.694 17.5493 125.598 17.816C125.502 18.0827 125.366 18.312 125.19 18.504C125.019 18.696 124.814 18.8453 124.574 18.952C124.334 19.0533 124.072 19.104 123.79 19.104C123.507 19.104 123.246 19.0533 123.006 18.952C122.766 18.8453 122.558 18.696 122.382 18.504C122.211 18.312 122.078 18.0827 121.982 17.816C121.886 17.5493 121.838 17.2507 121.838 16.92C121.838 16.5947 121.886 16.2987 121.982 16.032C122.078 15.76 122.211 15.528 122.382 15.336C122.558 15.144 122.766 14.9973 123.006 14.896C123.246 14.7893 123.507 14.736 123.79 14.736C124.072 14.736 124.334 14.7893 124.574 14.896C124.814 14.9973 125.019 15.144 125.19 15.336C125.366 15.528 125.502 15.76 125.598 16.032C125.694 16.2987 125.742 16.5947 125.742 16.92ZM124.966 16.92C124.966 16.4507 124.859 16.08 124.646 15.808C124.438 15.5307 124.152 15.392 123.79 15.392C123.427 15.392 123.139 15.5307 122.926 15.808C122.718 16.08 122.614 16.4507 122.614 16.92C122.614 17.3893 122.718 17.7627 122.926 18.04C123.139 18.312 123.427 18.448 123.79 18.448C124.152 18.448 124.438 18.312 124.646 18.04C124.859 17.7627 124.966 17.3893 124.966 16.92ZM127.516 18.44C127.548 18.4453 127.594 18.4507 127.652 18.456C127.711 18.4613 127.778 18.4667 127.852 18.472C127.927 18.472 128.004 18.4747 128.084 18.48C128.17 18.48 128.25 18.48 128.324 18.48C128.479 18.48 128.626 18.4693 128.764 18.448C128.908 18.4267 129.031 18.3893 129.132 18.336C129.239 18.2827 129.322 18.2133 129.38 18.128C129.444 18.0373 129.476 17.9227 129.476 17.784C129.476 17.6507 129.447 17.5413 129.388 17.456C129.335 17.3653 129.26 17.2933 129.164 17.24C129.068 17.1867 128.954 17.1493 128.82 17.128C128.692 17.1067 128.554 17.096 128.404 17.096H127.516V18.44ZM128.308 16.544C128.452 16.544 128.583 16.536 128.7 16.52C128.823 16.4987 128.927 16.464 129.012 16.416C129.103 16.368 129.172 16.304 129.22 16.224C129.274 16.144 129.3 16.0427 129.3 15.92C129.3 15.792 129.268 15.6907 129.204 15.616C129.14 15.5413 129.055 15.4853 128.948 15.448C128.847 15.4053 128.73 15.3787 128.596 15.368C128.468 15.352 128.338 15.344 128.204 15.344C128.082 15.344 127.956 15.3467 127.828 15.352C127.706 15.3573 127.602 15.3627 127.516 15.368V16.544H128.308ZM128.292 19.072C127.978 19.072 127.687 19.056 127.42 19.024C127.154 18.9973 126.943 18.9653 126.788 18.928V14.88C126.943 14.8427 127.154 14.8107 127.42 14.784C127.687 14.752 127.978 14.736 128.292 14.736C128.511 14.736 128.724 14.7547 128.932 14.792C129.14 14.8293 129.324 14.8933 129.484 14.984C129.644 15.0693 129.772 15.1893 129.868 15.344C129.97 15.4933 130.02 15.68 130.02 15.904C130.02 16.1067 129.97 16.28 129.868 16.424C129.767 16.568 129.631 16.68 129.46 16.76C129.69 16.84 129.871 16.96 130.004 17.12C130.143 17.2747 130.212 17.4933 130.212 17.776C130.212 18.0267 130.162 18.2347 130.06 18.4C129.964 18.5653 129.828 18.6987 129.652 18.8C129.482 18.9013 129.279 18.9707 129.044 19.008C128.81 19.0507 128.559 19.072 128.292 19.072ZM134.843 16.92C134.843 17.2507 134.795 17.5493 134.699 17.816C134.603 18.0827 134.467 18.312 134.291 18.504C134.121 18.696 133.915 18.8453 133.675 18.952C133.435 19.0533 133.174 19.104 132.891 19.104C132.609 19.104 132.347 19.0533 132.107 18.952C131.867 18.8453 131.659 18.696 131.483 18.504C131.313 18.312 131.179 18.0827 131.083 17.816C130.987 17.5493 130.939 17.2507 130.939 16.92C130.939 16.5947 130.987 16.2987 131.083 16.032C131.179 15.76 131.313 15.528 131.483 15.336C131.659 15.144 131.867 14.9973 132.107 14.896C132.347 14.7893 132.609 14.736 132.891 14.736C133.174 14.736 133.435 14.7893 133.675 14.896C133.915 14.9973 134.121 15.144 134.291 15.336C134.467 15.528 134.603 15.76 134.699 16.032C134.795 16.2987 134.843 16.5947 134.843 16.92ZM134.067 16.92C134.067 16.4507 133.961 16.08 133.747 15.808C133.539 15.5307 133.254 15.392 132.891 15.392C132.529 15.392 132.241 15.5307 132.027 15.808C131.819 16.08 131.715 16.4507 131.715 16.92C131.715 17.3893 131.819 17.7627 132.027 18.04C132.241 18.312 132.529 18.448 132.891 18.448C133.254 18.448 133.539 18.312 133.747 18.04C133.961 17.7627 134.067 17.3893 134.067 16.92ZM138.778 16.928C138.778 16.4427 138.658 16.0693 138.418 15.808C138.178 15.5467 137.858 15.416 137.458 15.416C137.234 15.416 137.058 15.424 136.93 15.44C136.807 15.456 136.709 15.4747 136.634 15.496V18.12C136.725 18.1947 136.855 18.2667 137.026 18.336C137.197 18.4053 137.383 18.44 137.586 18.44C137.799 18.44 137.981 18.4027 138.13 18.328C138.285 18.248 138.41 18.1413 138.506 18.008C138.602 17.8693 138.671 17.7093 138.714 17.528C138.757 17.3413 138.778 17.1413 138.778 16.928ZM139.554 16.928C139.554 17.2427 139.511 17.5333 139.426 17.8C139.346 18.0667 139.226 18.296 139.066 18.488C138.906 18.68 138.709 18.8293 138.474 18.936C138.245 19.0427 137.981 19.096 137.682 19.096C137.442 19.096 137.229 19.064 137.042 19C136.861 18.936 136.725 18.8747 136.634 18.816V20.48H135.89V14.968C136.066 14.9253 136.285 14.88 136.546 14.832C136.813 14.7787 137.119 14.752 137.466 14.752C137.786 14.752 138.074 14.8027 138.33 14.904C138.586 15.0053 138.805 15.1493 138.986 15.336C139.167 15.5227 139.306 15.752 139.402 16.024C139.503 16.2907 139.554 16.592 139.554 16.928ZM144.273 16.92C144.273 17.2507 144.225 17.5493 144.129 17.816C144.033 18.0827 143.897 18.312 143.721 18.504C143.55 18.696 143.345 18.8453 143.105 18.952C142.865 19.0533 142.604 19.104 142.321 19.104C142.038 19.104 141.777 19.0533 141.537 18.952C141.297 18.8453 141.089 18.696 140.913 18.504C140.742 18.312 140.609 18.0827 140.513 17.816C140.417 17.5493 140.369 17.2507 140.369 16.92C140.369 16.5947 140.417 16.2987 140.513 16.032C140.609 15.76 140.742 15.528 140.913 15.336C141.089 15.144 141.297 14.9973 141.537 14.896C141.777 14.7893 142.038 14.736 142.321 14.736C142.604 14.736 142.865 14.7893 143.105 14.896C143.345 14.9973 143.55 15.144 143.721 15.336C143.897 15.528 144.033 15.76 144.129 16.032C144.225 16.2987 144.273 16.5947 144.273 16.92ZM143.497 16.92C143.497 16.4507 143.39 16.08 143.177 15.808C142.969 15.5307 142.684 15.392 142.321 15.392C141.958 15.392 141.67 15.5307 141.457 15.808C141.249 16.08 141.145 16.4507 141.145 16.92C141.145 17.3893 141.249 17.7627 141.457 18.04C141.67 18.312 141.958 18.448 142.321 18.448C142.684 18.448 142.969 18.312 143.177 18.04C143.39 17.7627 143.497 17.3893 143.497 16.92ZM148.256 14.84V15.464H146.904V19H146.16V15.464H144.808V14.84H148.256ZM152.431 19H151.687V17.16H149.767V19H149.023V14.84H149.767V16.536H151.687V14.84H152.431V19ZM155.238 16.944C155.094 16.944 154.953 16.9493 154.814 16.96C154.681 16.9653 154.561 16.9813 154.454 17.008V18.44C154.486 18.4453 154.532 18.4507 154.59 18.456C154.654 18.4613 154.721 18.4667 154.79 18.472C154.865 18.472 154.94 18.4747 155.014 18.48C155.089 18.48 155.156 18.48 155.214 18.48C155.54 18.48 155.79 18.4187 155.966 18.296C156.142 18.1733 156.23 17.976 156.23 17.704C156.23 17.5707 156.201 17.456 156.142 17.36C156.089 17.264 156.014 17.1867 155.918 17.128C155.828 17.064 155.724 17.0187 155.606 16.992C155.489 16.96 155.366 16.944 155.238 16.944ZM153.71 14.84H154.454V16.432C154.545 16.4107 154.676 16.3893 154.846 16.368C155.022 16.3467 155.19 16.336 155.35 16.336C155.569 16.336 155.777 16.3627 155.974 16.416C156.172 16.464 156.345 16.544 156.494 16.656C156.644 16.7627 156.761 16.904 156.846 17.08C156.937 17.2507 156.982 17.456 156.982 17.696C156.982 17.9467 156.94 18.16 156.854 18.336C156.769 18.512 156.649 18.656 156.494 18.768C156.34 18.88 156.153 18.96 155.934 19.008C155.716 19.0613 155.476 19.088 155.214 19.088C154.964 19.088 154.71 19.072 154.454 19.04C154.198 19.0133 153.95 18.9707 153.71 18.912V14.84ZM158.494 19H157.75V14.84H158.494V19ZM163.269 14.84V19H162.549V15.832C162.389 16.0347 162.213 16.272 162.021 16.544C161.829 16.816 161.637 17.0987 161.445 17.392C161.253 17.68 161.069 17.9653 160.893 18.248C160.717 18.5307 160.565 18.7813 160.437 19H159.773V14.84H160.493V17.832C160.631 17.6027 160.789 17.352 160.965 17.08C161.141 16.8027 161.322 16.5307 161.509 16.264C161.701 15.992 161.89 15.7333 162.077 15.488C162.269 15.2373 162.447 15.0213 162.613 14.84H163.269ZM161.525 14.168C161.189 14.168 160.914 14.0827 160.701 13.912C160.493 13.7413 160.367 13.504 160.325 13.2L160.893 13.048C160.935 13.2187 161.007 13.3573 161.109 13.464C161.21 13.5707 161.349 13.624 161.525 13.624C161.701 13.624 161.839 13.5707 161.941 13.464C162.042 13.3573 162.114 13.2187 162.157 13.048L162.717 13.2C162.674 13.504 162.549 13.7413 162.341 13.912C162.133 14.0827 161.861 14.168 161.525 14.168ZM165.886 18.392H166.334C166.51 18.136 166.648 17.872 166.75 17.6C166.856 17.328 166.936 17.048 166.99 16.76C167.043 16.4667 167.078 16.1627 167.094 15.848C167.11 15.528 167.12 15.192 167.126 14.84H169.854V18.392H170.414V20.16H169.71V19H166.59V20.16H165.886V18.392ZM169.11 18.392V15.464H167.806C167.8 15.7147 167.787 15.968 167.766 16.224C167.744 16.4747 167.71 16.7253 167.662 16.976C167.614 17.2213 167.544 17.464 167.454 17.704C167.368 17.9387 167.259 18.168 167.126 18.392H169.11ZM172.838 15.464C172.838 15.64 172.833 15.8293 172.822 16.032C172.817 16.2293 172.803 16.4293 172.782 16.632C172.761 16.8293 172.731 17.0267 172.694 17.224C172.657 17.416 172.609 17.5973 172.55 17.768C172.491 17.9387 172.417 18.0987 172.326 18.248C172.241 18.3973 172.134 18.5307 172.006 18.648C171.878 18.76 171.729 18.856 171.558 18.936C171.387 19.0107 171.187 19.0587 170.958 19.08L170.854 18.456C171.115 18.4027 171.321 18.304 171.47 18.16C171.625 18.016 171.747 17.84 171.838 17.632C171.918 17.4507 171.977 17.2453 172.014 17.016C172.051 16.7867 172.078 16.5493 172.094 16.304C172.11 16.0533 172.118 15.8027 172.118 15.552C172.123 15.3013 172.126 15.064 172.126 14.84H174.894V19H174.15V15.464H172.838ZM177.891 17.384C177.811 17.384 177.734 17.384 177.659 17.384C177.585 17.3787 177.513 17.3733 177.443 17.368C177.273 17.624 177.107 17.8987 176.947 18.192C176.793 18.48 176.654 18.7493 176.531 19H175.779C175.843 18.8453 175.918 18.688 176.003 18.528C176.089 18.3627 176.174 18.2027 176.259 18.048C176.35 17.8933 176.441 17.7467 176.531 17.608C176.622 17.4693 176.707 17.344 176.787 17.232C176.638 17.1787 176.515 17.1147 176.419 17.04C176.323 16.96 176.246 16.872 176.187 16.776C176.129 16.68 176.086 16.5787 176.059 16.472C176.038 16.36 176.027 16.248 176.027 16.136C176.027 15.9013 176.07 15.696 176.155 15.52C176.246 15.344 176.369 15.2 176.523 15.088C176.678 14.9707 176.859 14.8827 177.067 14.824C177.281 14.7653 177.513 14.736 177.763 14.736C178.115 14.736 178.414 14.752 178.659 14.784C178.905 14.816 179.11 14.8533 179.275 14.896V19H178.539V17.384H177.891ZM178.539 15.392C178.481 15.3813 178.382 15.3707 178.243 15.36C178.11 15.3493 177.955 15.344 177.779 15.344C177.475 15.344 177.23 15.408 177.043 15.536C176.857 15.6587 176.763 15.856 176.763 16.128C176.763 16.3947 176.859 16.5787 177.051 16.68C177.243 16.7813 177.491 16.832 177.795 16.832H178.539V15.392ZM77.528 25.928C77.528 25.4427 77.408 25.0693 77.168 24.808C76.928 24.5467 76.608 24.416 76.208 24.416C75.984 24.416 75.808 24.424 75.68 24.44C75.5573 24.456 75.4587 24.4747 75.384 24.496V27.12C75.4747 27.1947 75.6053 27.2667 75.776 27.336C75.9467 27.4053 76.1333 27.44 76.336 27.44C76.5493 27.44 76.7307 27.4027 76.88 27.328C77.0347 27.248 77.16 27.1413 77.256 27.008C77.352 26.8693 77.4213 26.7093 77.464 26.528C77.5067 26.3413 77.528 26.1413 77.528 25.928ZM78.304 25.928C78.304 26.2427 78.2613 26.5333 78.176 26.8C78.096 27.0667 77.976 27.296 77.816 27.488C77.656 27.68 77.4587 27.8293 77.224 27.936C76.9947 28.0427 76.7307 28.096 76.432 28.096C76.192 28.096 75.9787 28.064 75.792 28C75.6107 27.936 75.4747 27.8747 75.384 27.816V29.48H74.64V23.968C74.816 23.9253 75.0347 23.88 75.296 23.832C75.5627 23.7787 75.8693 23.752 76.216 23.752C76.536 23.752 76.824 23.8027 77.08 23.904C77.336 24.0053 77.5547 24.1493 77.736 24.336C77.9173 24.5227 78.056 24.752 78.152 25.024C78.2533 25.2907 78.304 25.592 78.304 25.928ZM80.7589 27.464C80.9349 27.464 81.0896 27.4613 81.2229 27.456C81.3616 27.4453 81.4763 27.4293 81.5669 27.408V26.168C81.5136 26.1413 81.4256 26.12 81.3029 26.104C81.1856 26.0827 81.0416 26.072 80.8709 26.072C80.7589 26.072 80.6389 26.08 80.5109 26.096C80.3883 26.112 80.2736 26.1467 80.1669 26.2C80.0656 26.248 79.9803 26.3173 79.9109 26.408C79.8416 26.4933 79.8069 26.608 79.8069 26.752C79.8069 27.0187 79.8923 27.2053 80.0629 27.312C80.2336 27.4133 80.4656 27.464 80.7589 27.464ZM80.6949 23.736C80.9936 23.736 81.2443 23.776 81.4469 23.856C81.6549 23.9307 81.8203 24.04 81.9429 24.184C82.0709 24.3227 82.1616 24.4907 82.2149 24.688C82.2683 24.88 82.2949 25.0933 82.2949 25.328V27.928C82.2309 27.9387 82.1403 27.9547 82.0229 27.976C81.9109 27.992 81.7829 28.008 81.6389 28.024C81.4949 28.04 81.3376 28.0533 81.1669 28.064C81.0016 28.08 80.8363 28.088 80.6709 28.088C80.4363 28.088 80.2203 28.064 80.0229 28.016C79.8256 27.968 79.6549 27.8933 79.5109 27.792C79.3669 27.6853 79.2549 27.5467 79.1749 27.376C79.0949 27.2053 79.0549 27 79.0549 26.76C79.0549 26.5307 79.1003 26.3333 79.1909 26.168C79.2869 26.0027 79.4149 25.8693 79.5749 25.768C79.7349 25.6667 79.9216 25.592 80.1349 25.544C80.3483 25.496 80.5723 25.472 80.8069 25.472C80.8816 25.472 80.9589 25.4773 81.0389 25.488C81.1189 25.4933 81.1936 25.504 81.2629 25.52C81.3376 25.5307 81.4016 25.5413 81.4549 25.552C81.5083 25.5627 81.5456 25.5707 81.5669 25.576V25.368C81.5669 25.2453 81.5536 25.1253 81.5269 25.008C81.5003 24.8853 81.4523 24.7787 81.3829 24.688C81.3136 24.592 81.2176 24.5173 81.0949 24.464C80.9776 24.4053 80.8229 24.376 80.6309 24.376C80.3856 24.376 80.1696 24.3947 79.9829 24.432C79.8016 24.464 79.6656 24.4987 79.5749 24.536L79.4869 23.92C79.5829 23.8773 79.7429 23.8373 79.9669 23.8C80.1909 23.7573 80.4336 23.736 80.6949 23.736ZM85.0506 25.736C85.216 25.8533 85.3946 26.0027 85.5866 26.184C85.7786 26.36 85.9653 26.552 86.1466 26.76C86.3333 26.968 86.5066 27.1813 86.6666 27.4C86.8266 27.6133 86.9626 27.8133 87.0746 28H86.1946C86.0773 27.8187 85.9386 27.6347 85.7786 27.448C85.624 27.256 85.4613 27.072 85.2906 26.896C85.12 26.72 84.9466 26.5573 84.7706 26.408C84.5946 26.2587 84.4293 26.1333 84.2746 26.032V28H83.5306V23.84H84.2746V25.624C84.4026 25.5013 84.5493 25.36 84.7146 25.2C84.88 25.0347 85.0453 24.8693 85.2106 24.704C85.3813 24.5333 85.5386 24.3733 85.6826 24.224C85.8266 24.0693 85.944 23.9413 86.0346 23.84H86.8986C86.7813 23.968 86.6426 24.1147 86.4826 24.28C86.328 24.44 86.1653 24.6053 85.9946 24.776C85.8293 24.9467 85.664 25.1173 85.4986 25.288C85.3333 25.4533 85.184 25.6027 85.0506 25.736ZM91.2651 25.92C91.2651 26.2507 91.2171 26.5493 91.1211 26.816C91.0251 27.0827 90.8891 27.312 90.7131 27.504C90.5425 27.696 90.3371 27.8453 90.0971 27.952C89.8571 28.0533 89.5958 28.104 89.3131 28.104C89.0305 28.104 88.7691 28.0533 88.5291 27.952C88.2891 27.8453 88.0811 27.696 87.9051 27.504C87.7345 27.312 87.6011 27.0827 87.5051 26.816C87.4091 26.5493 87.3611 26.2507 87.3611 25.92C87.3611 25.5947 87.4091 25.2987 87.5051 25.032C87.6011 24.76 87.7345 24.528 87.9051 24.336C88.0811 24.144 88.2891 23.9973 88.5291 23.896C88.7691 23.7893 89.0305 23.736 89.3131 23.736C89.5958 23.736 89.8571 23.7893 90.0971 23.896C90.3371 23.9973 90.5425 24.144 90.7131 24.336C90.8891 24.528 91.0251 24.76 91.1211 25.032C91.2171 25.2987 91.2651 25.5947 91.2651 25.92ZM90.4891 25.92C90.4891 25.4507 90.3825 25.08 90.1691 24.808C89.9611 24.5307 89.6758 24.392 89.3131 24.392C88.9505 24.392 88.6625 24.5307 88.4491 24.808C88.2411 25.08 88.1371 25.4507 88.1371 25.92C88.1371 26.3893 88.2411 26.7627 88.4491 27.04C88.6625 27.312 88.9505 27.448 89.3131 27.448C89.6758 27.448 89.9611 27.312 90.1691 27.04C90.3825 26.7627 90.4891 26.3893 90.4891 25.92ZM93.0399 27.44C93.0719 27.4453 93.1172 27.4507 93.1759 27.456C93.2345 27.4613 93.3012 27.4667 93.3759 27.472C93.4505 27.472 93.5279 27.4747 93.6079 27.48C93.6932 27.48 93.7732 27.48 93.8479 27.48C94.0025 27.48 94.1492 27.4693 94.2879 27.448C94.4319 27.4267 94.5545 27.3893 94.6559 27.336C94.7625 27.2827 94.8452 27.2133 94.9039 27.128C94.9679 27.0373 94.9999 26.9227 94.9999 26.784C94.9999 26.6507 94.9705 26.5413 94.9119 26.456C94.8585 26.3653 94.7839 26.2933 94.6879 26.24C94.5919 26.1867 94.4772 26.1493 94.3439 26.128C94.2159 26.1067 94.0772 26.096 93.9279 26.096H93.0399V27.44ZM93.8319 25.544C93.9759 25.544 94.1065 25.536 94.2239 25.52C94.3465 25.4987 94.4505 25.464 94.5359 25.416C94.6265 25.368 94.6959 25.304 94.7439 25.224C94.7972 25.144 94.8239 25.0427 94.8239 24.92C94.8239 24.792 94.7919 24.6907 94.7279 24.616C94.6639 24.5413 94.5785 24.4853 94.4719 24.448C94.3705 24.4053 94.2532 24.3787 94.1199 24.368C93.9919 24.352 93.8612 24.344 93.7279 24.344C93.6052 24.344 93.4799 24.3467 93.3519 24.352C93.2292 24.3573 93.1252 24.3627 93.0399 24.368V25.544H93.8319ZM93.8159 28.072C93.5012 28.072 93.2105 28.056 92.9439 28.024C92.6772 27.9973 92.4665 27.9653 92.3119 27.928V23.88C92.4665 23.8427 92.6772 23.8107 92.9439 23.784C93.2105 23.752 93.5012 23.736 93.8159 23.736C94.0345 23.736 94.2479 23.7547 94.4559 23.792C94.6639 23.8293 94.8479 23.8933 95.0079 23.984C95.1679 24.0693 95.2959 24.1893 95.3919 24.344C95.4932 24.4933 95.5439 24.68 95.5439 24.904C95.5439 25.1067 95.4932 25.28 95.3919 25.424C95.2905 25.568 95.1545 25.68 94.9839 25.76C95.2132 25.84 95.3945 25.96 95.5279 26.12C95.6665 26.2747 95.7359 26.4933 95.7359 26.776C95.7359 27.0267 95.6852 27.2347 95.5839 27.4C95.4879 27.5653 95.3519 27.6987 95.1759 27.8C95.0052 27.9013 94.8025 27.9707 94.5679 28.008C94.3332 28.0507 94.0825 28.072 93.8159 28.072ZM100.191 23.84V28H99.4707V24.832C99.3107 25.0347 99.1347 25.272 98.9427 25.544C98.7507 25.816 98.5587 26.0987 98.3667 26.392C98.1747 26.68 97.9907 26.9653 97.8147 27.248C97.6387 27.5307 97.4867 27.7813 97.3587 28H96.6947V23.84H97.4147V26.832C97.5534 26.6027 97.7107 26.352 97.8867 26.08C98.0627 25.8027 98.244 25.5307 98.4307 25.264C98.6227 24.992 98.812 24.7333 98.9987 24.488C99.1907 24.2373 99.3694 24.0213 99.5347 23.84H100.191ZM104.876 28H104.132V26.16H102.212V28H101.468V23.84H102.212V25.536H104.132V23.84H104.876V28ZM107.684 25.944C107.54 25.944 107.398 25.9493 107.26 25.96C107.126 25.9653 107.006 25.9813 106.9 26.008V27.44C106.932 27.4453 106.977 27.4507 107.036 27.456C107.1 27.4613 107.166 27.4667 107.236 27.472C107.31 27.472 107.385 27.4747 107.46 27.48C107.534 27.48 107.601 27.48 107.66 27.48C107.985 27.48 108.236 27.4187 108.412 27.296C108.588 27.1733 108.676 26.976 108.676 26.704C108.676 26.5707 108.646 26.456 108.588 26.36C108.534 26.264 108.46 26.1867 108.364 26.128C108.273 26.064 108.169 26.0187 108.052 25.992C107.934 25.96 107.812 25.944 107.684 25.944ZM106.156 23.84H106.9V25.432C106.99 25.4107 107.121 25.3893 107.292 25.368C107.468 25.3467 107.636 25.336 107.796 25.336C108.014 25.336 108.222 25.3627 108.42 25.416C108.617 25.464 108.79 25.544 108.94 25.656C109.089 25.7627 109.206 25.904 109.292 26.08C109.382 26.2507 109.428 26.456 109.428 26.696C109.428 26.9467 109.385 27.16 109.3 27.336C109.214 27.512 109.094 27.656 108.94 27.768C108.785 27.88 108.598 27.96 108.38 28.008C108.161 28.0613 107.921 28.088 107.66 28.088C107.409 28.088 107.156 28.072 106.9 28.04C106.644 28.0133 106.396 27.9707 106.156 27.912V23.84ZM110.94 28H110.196V23.84H110.94V28ZM117.566 23.84V28H116.846V24.832C116.686 25.0347 116.51 25.272 116.318 25.544C116.126 25.816 115.934 26.0987 115.742 26.392C115.55 26.68 115.366 26.9653 115.19 27.248C115.014 27.5307 114.862 27.7813 114.734 28H114.07V23.84H114.79V26.832C114.928 26.6027 115.086 26.352 115.262 26.08C115.438 25.8027 115.619 25.5307 115.806 25.264C115.998 24.992 116.187 24.7333 116.374 24.488C116.566 24.2373 116.744 24.0213 116.91 23.84H117.566ZM120.207 28.776C120.265 28.8027 120.34 28.8267 120.431 28.848C120.527 28.8747 120.62 28.888 120.711 28.888C121.004 28.888 121.233 28.8213 121.399 28.688C121.564 28.56 121.713 28.3493 121.847 28.056C121.511 27.416 121.196 26.7387 120.903 26.024C120.615 25.304 120.375 24.576 120.183 23.84H120.983C121.041 24.08 121.111 24.3387 121.191 24.616C121.276 24.8933 121.369 25.1787 121.471 25.472C121.572 25.7653 121.681 26.0587 121.799 26.352C121.916 26.6453 122.039 26.928 122.167 27.2C122.369 26.64 122.545 26.0853 122.695 25.536C122.844 24.9867 122.985 24.4213 123.119 23.84H123.887C123.695 24.624 123.481 25.3787 123.247 26.104C123.012 26.824 122.759 27.4987 122.487 28.128C122.38 28.368 122.268 28.5733 122.151 28.744C122.039 28.92 121.913 29.064 121.775 29.176C121.636 29.288 121.479 29.3707 121.303 29.424C121.132 29.4773 120.937 29.504 120.719 29.504C120.66 29.504 120.599 29.4987 120.535 29.488C120.471 29.4827 120.407 29.472 120.343 29.456C120.284 29.4453 120.228 29.432 120.175 29.416C120.127 29.4 120.092 29.3867 120.071 29.376L120.207 28.776ZM125.463 24.936C125.41 25.464 125.37 25.992 125.343 26.52C125.317 27.0427 125.295 27.536 125.279 28H124.567C124.578 27.6747 124.594 27.336 124.615 26.984C124.637 26.6267 124.661 26.2693 124.687 25.912C124.714 25.5493 124.743 25.1947 124.775 24.848C124.807 24.496 124.842 24.16 124.879 23.84H125.559C125.73 24.1173 125.93 24.4987 126.159 24.984C126.389 25.464 126.653 26.0187 126.951 26.648C127.25 26.0187 127.514 25.464 127.743 24.984C127.973 24.4987 128.173 24.1173 128.343 23.84H129.031C129.069 24.16 129.103 24.496 129.135 24.848C129.167 25.1947 129.197 25.5493 129.223 25.912C129.25 26.2693 129.274 26.6267 129.295 26.984C129.317 27.336 129.333 27.6747 129.343 28H128.607C128.591 27.536 128.57 27.0427 128.543 26.52C128.517 25.992 128.477 25.464 128.423 24.936C128.338 25.1013 128.239 25.3013 128.127 25.536C128.015 25.7653 127.903 26 127.791 26.24C127.685 26.48 127.583 26.7093 127.487 26.928C127.391 27.1467 127.317 27.32 127.263 27.448H126.639C126.581 27.3147 126.501 27.1387 126.399 26.92C126.303 26.7013 126.199 26.472 126.087 26.232C125.981 25.9867 125.871 25.7493 125.759 25.52C125.647 25.2853 125.549 25.0907 125.463 24.936ZM132.051 25.944C131.907 25.944 131.765 25.9493 131.627 25.96C131.493 25.9653 131.373 25.9813 131.267 26.008V27.44C131.299 27.4453 131.344 27.4507 131.403 27.456C131.467 27.4613 131.533 27.4667 131.603 27.472C131.677 27.472 131.752 27.4747 131.827 27.48C131.901 27.48 131.968 27.48 132.027 27.48C132.352 27.48 132.603 27.4187 132.779 27.296C132.955 27.1733 133.043 26.976 133.043 26.704C133.043 26.5707 133.013 26.456 132.955 26.36C132.901 26.264 132.827 26.1867 132.731 26.128C132.64 26.064 132.536 26.0187 132.419 25.992C132.301 25.96 132.179 25.944 132.051 25.944ZM130.523 23.84H131.267V25.432C131.357 25.4107 131.488 25.3893 131.659 25.368C131.835 25.3467 132.003 25.336 132.163 25.336C132.381 25.336 132.589 25.3627 132.787 25.416C132.984 25.464 133.157 25.544 133.307 25.656C133.456 25.7627 133.573 25.904 133.659 26.08C133.749 26.2507 133.795 26.456 133.795 26.696C133.795 26.9467 133.752 27.16 133.667 27.336C133.581 27.512 133.461 27.656 133.307 27.768C133.152 27.88 132.965 27.96 132.747 28.008C132.528 28.0613 132.288 28.088 132.027 28.088C131.776 28.088 131.523 28.072 131.267 28.04C131.011 28.0133 130.763 27.9707 130.523 27.912V23.84ZM135.307 28H134.563V23.84H135.307V28ZM137.313 27.44C137.345 27.4453 137.391 27.4507 137.449 27.456C137.508 27.4613 137.575 27.4667 137.649 27.472C137.724 27.472 137.801 27.4747 137.881 27.48C137.967 27.48 138.047 27.48 138.121 27.48C138.276 27.48 138.423 27.4693 138.561 27.448C138.705 27.4267 138.828 27.3893 138.929 27.336C139.036 27.2827 139.119 27.2133 139.177 27.128C139.241 27.0373 139.273 26.9227 139.273 26.784C139.273 26.6507 139.244 26.5413 139.185 26.456C139.132 26.3653 139.057 26.2933 138.961 26.24C138.865 26.1867 138.751 26.1493 138.617 26.128C138.489 26.1067 138.351 26.096 138.201 26.096H137.313V27.44ZM138.105 25.544C138.249 25.544 138.38 25.536 138.497 25.52C138.62 25.4987 138.724 25.464 138.809 25.416C138.9 25.368 138.969 25.304 139.017 25.224C139.071 25.144 139.097 25.0427 139.097 24.92C139.097 24.792 139.065 24.6907 139.001 24.616C138.937 24.5413 138.852 24.4853 138.745 24.448C138.644 24.4053 138.527 24.3787 138.393 24.368C138.265 24.352 138.135 24.344 138.001 24.344C137.879 24.344 137.753 24.3467 137.625 24.352C137.503 24.3573 137.399 24.3627 137.313 24.368V25.544H138.105ZM138.089 28.072C137.775 28.072 137.484 28.056 137.217 28.024C136.951 27.9973 136.74 27.9653 136.585 27.928V23.88C136.74 23.8427 136.951 23.8107 137.217 23.784C137.484 23.752 137.775 23.736 138.089 23.736C138.308 23.736 138.521 23.7547 138.729 23.792C138.937 23.8293 139.121 23.8933 139.281 23.984C139.441 24.0693 139.569 24.1893 139.665 24.344C139.767 24.4933 139.817 24.68 139.817 24.904C139.817 25.1067 139.767 25.28 139.665 25.424C139.564 25.568 139.428 25.68 139.257 25.76C139.487 25.84 139.668 25.96 139.801 26.12C139.94 26.2747 140.009 26.4933 140.009 26.776C140.009 27.0267 139.959 27.2347 139.857 27.4C139.761 27.5653 139.625 27.6987 139.449 27.8C139.279 27.9013 139.076 27.9707 138.841 28.008C138.607 28.0507 138.356 28.072 138.089 28.072ZM142.376 27.464C142.552 27.464 142.707 27.4613 142.84 27.456C142.979 27.4453 143.093 27.4293 143.184 27.408V26.168C143.131 26.1413 143.043 26.12 142.92 26.104C142.803 26.0827 142.659 26.072 142.488 26.072C142.376 26.072 142.256 26.08 142.128 26.096C142.005 26.112 141.891 26.1467 141.784 26.2C141.683 26.248 141.597 26.3173 141.528 26.408C141.459 26.4933 141.424 26.608 141.424 26.752C141.424 27.0187 141.509 27.2053 141.68 27.312C141.851 27.4133 142.083 27.464 142.376 27.464ZM142.312 23.736C142.611 23.736 142.861 23.776 143.064 23.856C143.272 23.9307 143.437 24.04 143.56 24.184C143.688 24.3227 143.779 24.4907 143.832 24.688C143.885 24.88 143.912 25.0933 143.912 25.328V27.928C143.848 27.9387 143.757 27.9547 143.64 27.976C143.528 27.992 143.4 28.008 143.256 28.024C143.112 28.04 142.955 28.0533 142.784 28.064C142.619 28.08 142.453 28.088 142.288 28.088C142.053 28.088 141.837 28.064 141.64 28.016C141.443 27.968 141.272 27.8933 141.128 27.792C140.984 27.6853 140.872 27.5467 140.792 27.376C140.712 27.2053 140.672 27 140.672 26.76C140.672 26.5307 140.717 26.3333 140.808 26.168C140.904 26.0027 141.032 25.8693 141.192 25.768C141.352 25.6667 141.539 25.592 141.752 25.544C141.965 25.496 142.189 25.472 142.424 25.472C142.499 25.472 142.576 25.4773 142.656 25.488C142.736 25.4933 142.811 25.504 142.88 25.52C142.955 25.5307 143.019 25.5413 143.072 25.552C143.125 25.5627 143.163 25.5707 143.184 25.576V25.368C143.184 25.2453 143.171 25.1253 143.144 25.008C143.117 24.8853 143.069 24.7787 143 24.688C142.931 24.592 142.835 24.5173 142.712 24.464C142.595 24.4053 142.44 24.376 142.248 24.376C142.003 24.376 141.787 24.3947 141.6 24.432C141.419 24.464 141.283 24.4987 141.192 24.536L141.104 23.92C141.2 23.8773 141.36 23.8373 141.584 23.8C141.808 23.7573 142.051 23.736 142.312 23.736ZM146.596 24.464C146.596 24.64 146.59 24.8293 146.58 25.032C146.574 25.2293 146.561 25.4293 146.54 25.632C146.518 25.8293 146.489 26.0267 146.452 26.224C146.414 26.416 146.366 26.5973 146.308 26.768C146.249 26.9387 146.174 27.0987 146.084 27.248C145.998 27.3973 145.892 27.5307 145.764 27.648C145.636 27.76 145.486 27.856 145.316 27.936C145.145 28.0107 144.945 28.0587 144.716 28.08L144.612 27.456C144.873 27.4027 145.078 27.304 145.228 27.16C145.382 27.016 145.505 26.84 145.596 26.632C145.676 26.4507 145.734 26.2453 145.772 26.016C145.809 25.7867 145.836 25.5493 145.852 25.304C145.868 25.0533 145.876 24.8027 145.876 24.552C145.881 24.3013 145.884 24.064 145.884 23.84H148.652V28H147.908V24.464H146.596ZM151.505 27.48C151.82 27.48 152.068 27.4187 152.249 27.296C152.43 27.1733 152.521 26.976 152.521 26.704C152.521 26.5707 152.494 26.456 152.441 26.36C152.388 26.264 152.313 26.1867 152.217 26.128C152.126 26.064 152.02 26.0187 151.897 25.992C151.774 25.96 151.644 25.944 151.505 25.944C151.361 25.944 151.212 25.9493 151.057 25.96C150.908 25.9653 150.78 25.9813 150.673 26.008V27.44C150.705 27.4453 150.753 27.4507 150.817 27.456C150.881 27.4613 150.95 27.4667 151.025 27.472C151.105 27.472 151.185 27.4747 151.265 27.48C151.35 27.48 151.43 27.48 151.505 27.48ZM149.929 27.912V23.84H150.673V25.432C150.716 25.4213 150.772 25.4107 150.841 25.4C150.916 25.3893 150.993 25.3787 151.073 25.368C151.158 25.3573 151.246 25.3493 151.337 25.344C151.428 25.3387 151.513 25.336 151.593 25.336C151.822 25.336 152.038 25.3627 152.241 25.416C152.444 25.464 152.62 25.544 152.769 25.656C152.924 25.7627 153.046 25.904 153.137 26.08C153.228 26.2507 153.273 26.456 153.273 26.696C153.273 26.9467 153.23 27.16 153.145 27.336C153.06 27.512 152.937 27.656 152.777 27.768C152.617 27.88 152.425 27.96 152.201 28.008C151.982 28.0613 151.737 28.088 151.465 28.088C151.198 28.088 150.937 28.072 150.681 28.04C150.425 28.0133 150.174 27.9707 149.929 27.912ZM157.564 28H156.82V26.16H154.9V28H154.156V23.84H154.9V25.536H156.82V23.84H157.564V28ZM162.339 23.84V28H161.619V24.832C161.459 25.0347 161.283 25.272 161.091 25.544C160.899 25.816 160.707 26.0987 160.515 26.392C160.323 26.68 160.139 26.9653 159.963 27.248C159.787 27.5307 159.635 27.7813 159.507 28H158.843V23.84H159.563V26.832C159.702 26.6027 159.859 26.352 160.035 26.08C160.211 25.8027 160.392 25.5307 160.579 25.264C160.771 24.992 160.96 24.7333 161.147 24.488C161.339 24.2373 161.518 24.0213 161.683 23.84H162.339ZM165.137 25.736C165.302 25.8533 165.481 26.0027 165.673 26.184C165.865 26.36 166.051 26.552 166.233 26.76C166.419 26.968 166.593 27.1813 166.753 27.4C166.913 27.6133 167.049 27.8133 167.161 28H166.281C166.163 27.8187 166.025 27.6347 165.865 27.448C165.71 27.256 165.547 27.072 165.377 26.896C165.206 26.72 165.033 26.5573 164.857 26.408C164.681 26.2587 164.515 26.1333 164.361 26.032V28H163.617V23.84H164.361V25.624C164.489 25.5013 164.635 25.36 164.801 25.2C164.966 25.0347 165.131 24.8693 165.297 24.704C165.467 24.5333 165.625 24.3733 165.769 24.224C165.913 24.0693 166.03 23.9413 166.121 23.84H166.985C166.867 23.968 166.729 24.1147 166.569 24.28C166.414 24.44 166.251 24.6053 166.081 24.776C165.915 24.9467 165.75 25.1173 165.585 25.288C165.419 25.4533 165.27 25.6027 165.137 25.736ZM169.321 27.464C169.497 27.464 169.652 27.4613 169.785 27.456C169.924 27.4453 170.039 27.4293 170.129 27.408V26.168C170.076 26.1413 169.988 26.12 169.865 26.104C169.748 26.0827 169.604 26.072 169.433 26.072C169.321 26.072 169.201 26.08 169.073 26.096C168.951 26.112 168.836 26.1467 168.729 26.2C168.628 26.248 168.543 26.3173 168.473 26.408C168.404 26.4933 168.369 26.608 168.369 26.752C168.369 27.0187 168.455 27.2053 168.625 27.312C168.796 27.4133 169.028 27.464 169.321 27.464ZM169.257 23.736C169.556 23.736 169.807 23.776 170.009 23.856C170.217 23.9307 170.383 24.04 170.505 24.184C170.633 24.3227 170.724 24.4907 170.777 24.688C170.831 24.88 170.857 25.0933 170.857 25.328V27.928C170.793 27.9387 170.703 27.9547 170.585 27.976C170.473 27.992 170.345 28.008 170.201 28.024C170.057 28.04 169.9 28.0533 169.729 28.064C169.564 28.08 169.399 28.088 169.233 28.088C168.999 28.088 168.783 28.064 168.585 28.016C168.388 27.968 168.217 27.8933 168.073 27.792C167.929 27.6853 167.817 27.5467 167.737 27.376C167.657 27.2053 167.617 27 167.617 26.76C167.617 26.5307 167.663 26.3333 167.753 26.168C167.849 26.0027 167.977 25.8693 168.137 25.768C168.297 25.6667 168.484 25.592 168.697 25.544C168.911 25.496 169.135 25.472 169.369 25.472C169.444 25.472 169.521 25.4773 169.601 25.488C169.681 25.4933 169.756 25.504 169.825 25.52C169.9 25.5307 169.964 25.5413 170.017 25.552C170.071 25.5627 170.108 25.5707 170.129 25.576V25.368C170.129 25.2453 170.116 25.1253 170.089 25.008C170.063 24.8853 170.015 24.7787 169.945 24.688C169.876 24.592 169.78 24.5173 169.657 24.464C169.54 24.4053 169.385 24.376 169.193 24.376C168.948 24.376 168.732 24.3947 168.545 24.432C168.364 24.464 168.228 24.4987 168.137 24.536L168.049 23.92C168.145 23.8773 168.305 23.8373 168.529 23.8C168.753 23.7573 168.996 23.736 169.257 23.736ZM78.312 34.92C78.312 35.2507 78.264 35.5493 78.168 35.816C78.072 36.0827 77.936 36.312 77.76 36.504C77.5893 36.696 77.384 36.8453 77.144 36.952C76.904 37.0533 76.6427 37.104 76.36 37.104C76.0773 37.104 75.816 37.0533 75.576 36.952C75.336 36.8453 75.128 36.696 74.952 36.504C74.7813 36.312 74.648 36.0827 74.552 35.816C74.456 35.5493 74.408 35.2507 74.408 34.92C74.408 34.5947 74.456 34.2987 74.552 34.032C74.648 33.76 74.7813 33.528 74.952 33.336C75.128 33.144 75.336 32.9973 75.576 32.896C75.816 32.7893 76.0773 32.736 76.36 32.736C76.6427 32.736 76.904 32.7893 77.144 32.896C77.384 32.9973 77.5893 33.144 77.76 33.336C77.936 33.528 78.072 33.76 78.168 34.032C78.264 34.2987 78.312 34.5947 78.312 34.92ZM77.536 34.92C77.536 34.4507 77.4293 34.08 77.216 33.808C77.008 33.5307 76.7227 33.392 76.36 33.392C75.9973 33.392 75.7093 33.5307 75.496 33.808C75.288 34.08 75.184 34.4507 75.184 34.92C75.184 35.3893 75.288 35.7627 75.496 36.04C75.7093 36.312 75.9973 36.448 76.36 36.448C76.7227 36.448 77.008 36.312 77.216 36.04C77.4293 35.7627 77.536 35.3893 77.536 34.92ZM78.8468 36.392H79.2948C79.4708 36.136 79.6094 35.872 79.7108 35.6C79.8174 35.328 79.8974 35.048 79.9508 34.76C80.0041 34.4667 80.0388 34.1627 80.0548 33.848C80.0708 33.528 80.0814 33.192 80.0868 32.84H82.8148V36.392H83.3748V38.16H82.6708V37H79.5508V38.16H78.8468V36.392ZM82.0708 36.392V33.464H80.7668C80.7614 33.7147 80.7481 33.968 80.7268 34.224C80.7054 34.4747 80.6708 34.7253 80.6228 34.976C80.5748 35.2213 80.5054 35.464 80.4148 35.704C80.3294 35.9387 80.2201 36.168 80.0868 36.392H82.0708ZM87.5871 37H86.8431V35.16H84.9231V37H84.1791V32.84H84.9231V34.536H86.8431V32.84H87.5871V37ZM92.5386 34.92C92.5386 35.2507 92.4906 35.5493 92.3946 35.816C92.2986 36.0827 92.1626 36.312 91.9866 36.504C91.8159 36.696 91.6106 36.8453 91.3706 36.952C91.1306 37.0533 90.8692 37.104 90.5866 37.104C90.3039 37.104 90.0426 37.0533 89.8026 36.952C89.5626 36.8453 89.3546 36.696 89.1786 36.504C89.0079 36.312 88.8746 36.0827 88.7786 35.816C88.6826 35.5493 88.6346 35.2507 88.6346 34.92C88.6346 34.5947 88.6826 34.2987 88.7786 34.032C88.8746 33.76 89.0079 33.528 89.1786 33.336C89.3546 33.144 89.5626 32.9973 89.8026 32.896C90.0426 32.7893 90.3039 32.736 90.5866 32.736C90.8692 32.736 91.1306 32.7893 91.3706 32.896C91.6106 32.9973 91.8159 33.144 91.9866 33.336C92.1626 33.528 92.2986 33.76 92.3946 34.032C92.4906 34.2987 92.5386 34.5947 92.5386 34.92ZM91.7626 34.92C91.7626 34.4507 91.6559 34.08 91.4426 33.808C91.2346 33.5307 90.9492 33.392 90.5866 33.392C90.2239 33.392 89.9359 33.5307 89.7226 33.808C89.5146 34.08 89.4106 34.4507 89.4106 34.92C89.4106 35.3893 89.5146 35.7627 89.7226 36.04C89.9359 36.312 90.2239 36.448 90.5866 36.448C90.9492 36.448 91.2346 36.312 91.4426 36.04C91.6559 35.7627 91.7626 35.3893 91.7626 34.92ZM96.4733 34.928C96.4733 34.4427 96.3533 34.0693 96.1133 33.808C95.8733 33.5467 95.5533 33.416 95.1533 33.416C94.9293 33.416 94.7533 33.424 94.6253 33.44C94.5026 33.456 94.404 33.4747 94.3293 33.496V36.12C94.42 36.1947 94.5506 36.2667 94.7213 36.336C94.892 36.4053 95.0786 36.44 95.2813 36.44C95.4946 36.44 95.676 36.4027 95.8253 36.328C95.98 36.248 96.1053 36.1413 96.2013 36.008C96.2973 35.8693 96.3666 35.7093 96.4093 35.528C96.452 35.3413 96.4733 35.1413 96.4733 34.928ZM97.2493 34.928C97.2493 35.2427 97.2066 35.5333 97.1213 35.8C97.0413 36.0667 96.9213 36.296 96.7613 36.488C96.6013 36.68 96.404 36.8293 96.1693 36.936C95.94 37.0427 95.676 37.096 95.3773 37.096C95.1373 37.096 94.924 37.064 94.7373 37C94.556 36.936 94.42 36.8747 94.3293 36.816V38.48H93.5853V32.968C93.7613 32.9253 93.98 32.88 94.2413 32.832C94.508 32.7787 94.8146 32.752 95.1613 32.752C95.4813 32.752 95.7693 32.8027 96.0253 32.904C96.2813 33.0053 96.5 33.1493 96.6813 33.336C96.8626 33.5227 97.0013 33.752 97.0973 34.024C97.1986 34.2907 97.2493 34.592 97.2493 34.928ZM97.6989 37.776C97.7575 37.8027 97.8322 37.8267 97.9229 37.848C98.0189 37.8747 98.1122 37.888 98.2029 37.888C98.4962 37.888 98.7255 37.8213 98.8909 37.688C99.0562 37.56 99.2055 37.3493 99.3389 37.056C99.0029 36.416 98.6882 35.7387 98.3949 35.024C98.1069 34.304 97.8669 33.576 97.6749 32.84H98.4749C98.5335 33.08 98.6029 33.3387 98.6829 33.616C98.7682 33.8933 98.8615 34.1787 98.9629 34.472C99.0642 34.7653 99.1735 35.0587 99.2909 35.352C99.4082 35.6453 99.5309 35.928 99.6589 36.2C99.8615 35.64 100.038 35.0853 100.187 34.536C100.336 33.9867 100.478 33.4213 100.611 32.84H101.379C101.187 33.624 100.974 34.3787 100.739 35.104C100.504 35.824 100.251 36.4987 99.9789 37.128C99.8722 37.368 99.7602 37.5733 99.6429 37.744C99.5309 37.92 99.4055 38.064 99.2669 38.176C99.1282 38.288 98.9709 38.3707 98.7949 38.424C98.6242 38.4773 98.4295 38.504 98.2109 38.504C98.1522 38.504 98.0909 38.4987 98.0269 38.488C97.9629 38.4827 97.8989 38.472 97.8349 38.456C97.7762 38.4453 97.7202 38.432 97.6669 38.416C97.6189 38.4 97.5842 38.3867 97.5629 38.376L97.6989 37.776ZM103.683 34.736C103.849 34.8533 104.027 35.0027 104.219 35.184C104.411 35.36 104.598 35.552 104.779 35.76C104.966 35.968 105.139 36.1813 105.299 36.4C105.459 36.6133 105.595 36.8133 105.707 37H104.827C104.71 36.8187 104.571 36.6347 104.411 36.448C104.257 36.256 104.094 36.072 103.923 35.896C103.753 35.72 103.579 35.5573 103.403 35.408C103.227 35.2587 103.062 35.1333 102.907 35.032V37H102.163V32.84H102.907V34.624C103.035 34.5013 103.182 34.36 103.347 34.2C103.513 34.0347 103.678 33.8693 103.843 33.704C104.014 33.5333 104.171 33.3733 104.315 33.224C104.459 33.0693 104.577 32.9413 104.667 32.84H105.531C105.414 32.968 105.275 33.1147 105.115 33.28C104.961 33.44 104.798 33.6053 104.627 33.776C104.462 33.9467 104.297 34.1173 104.131 34.288C103.966 34.4533 103.817 34.6027 103.683 34.736ZM109.898 34.92C109.898 35.2507 109.85 35.5493 109.754 35.816C109.658 36.0827 109.522 36.312 109.346 36.504C109.175 36.696 108.97 36.8453 108.73 36.952C108.49 37.0533 108.229 37.104 107.946 37.104C107.663 37.104 107.402 37.0533 107.162 36.952C106.922 36.8453 106.714 36.696 106.538 36.504C106.367 36.312 106.234 36.0827 106.138 35.816C106.042 35.5493 105.994 35.2507 105.994 34.92C105.994 34.5947 106.042 34.2987 106.138 34.032C106.234 33.76 106.367 33.528 106.538 33.336C106.714 33.144 106.922 32.9973 107.162 32.896C107.402 32.7893 107.663 32.736 107.946 32.736C108.229 32.736 108.49 32.7893 108.73 32.896C108.97 32.9973 109.175 33.144 109.346 33.336C109.522 33.528 109.658 33.76 109.754 34.032C109.85 34.2987 109.898 34.5947 109.898 34.92ZM109.122 34.92C109.122 34.4507 109.015 34.08 108.802 33.808C108.594 33.5307 108.309 33.392 107.946 33.392C107.583 33.392 107.295 33.5307 107.082 33.808C106.874 34.08 106.77 34.4507 106.77 34.92C106.77 35.3893 106.874 35.7627 107.082 36.04C107.295 36.312 107.583 36.448 107.946 36.448C108.309 36.448 108.594 36.312 108.802 36.04C109.015 35.7627 109.122 35.3893 109.122 34.92ZM112.665 35.384C112.585 35.384 112.507 35.384 112.433 35.384C112.358 35.3787 112.286 35.3733 112.217 35.368C112.046 35.624 111.881 35.8987 111.721 36.192C111.566 36.48 111.427 36.7493 111.305 37H110.553C110.617 36.8453 110.691 36.688 110.777 36.528C110.862 36.3627 110.947 36.2027 111.033 36.048C111.123 35.8933 111.214 35.7467 111.305 35.608C111.395 35.4693 111.481 35.344 111.561 35.232C111.411 35.1787 111.289 35.1147 111.193 35.04C111.097 34.96 111.019 34.872 110.961 34.776C110.902 34.68 110.859 34.5787 110.833 34.472C110.811 34.36 110.801 34.248 110.801 34.136C110.801 33.9013 110.843 33.696 110.929 33.52C111.019 33.344 111.142 33.2 111.297 33.088C111.451 32.9707 111.633 32.8827 111.841 32.824C112.054 32.7653 112.286 32.736 112.537 32.736C112.889 32.736 113.187 32.752 113.433 32.784C113.678 32.816 113.883 32.8533 114.049 32.896V37H113.313V35.384H112.665ZM113.313 33.392C113.254 33.3813 113.155 33.3707 113.017 33.36C112.883 33.3493 112.729 33.344 112.553 33.344C112.249 33.344 112.003 33.408 111.817 33.536C111.63 33.6587 111.537 33.856 111.537 34.128C111.537 34.3947 111.633 34.5787 111.825 34.68C112.017 34.7813 112.265 34.832 112.569 34.832H113.313V33.392ZM118.264 32.84V33.464H116.912V37H116.168V33.464H114.816V32.84H118.264ZM122.703 34.92C122.703 35.2507 122.655 35.5493 122.559 35.816C122.463 36.0827 122.327 36.312 122.151 36.504C121.98 36.696 121.775 36.8453 121.535 36.952C121.295 37.0533 121.033 37.104 120.751 37.104C120.468 37.104 120.207 37.0533 119.967 36.952C119.727 36.8453 119.519 36.696 119.343 36.504C119.172 36.312 119.039 36.0827 118.943 35.816C118.847 35.5493 118.799 35.2507 118.799 34.92C118.799 34.5947 118.847 34.2987 118.943 34.032C119.039 33.76 119.172 33.528 119.343 33.336C119.519 33.144 119.727 32.9973 119.967 32.896C120.207 32.7893 120.468 32.736 120.751 32.736C121.033 32.736 121.295 32.7893 121.535 32.896C121.775 32.9973 121.98 33.144 122.151 33.336C122.327 33.528 122.463 33.76 122.559 34.032C122.655 34.2987 122.703 34.5947 122.703 34.92ZM121.927 34.92C121.927 34.4507 121.82 34.08 121.607 33.808C121.399 33.5307 121.113 33.392 120.751 33.392C120.388 33.392 120.1 33.5307 119.887 33.808C119.679 34.08 119.575 34.4507 119.575 34.92C119.575 35.3893 119.679 35.7627 119.887 36.04C120.1 36.312 120.388 36.448 120.751 36.448C121.113 36.448 121.399 36.312 121.607 36.04C121.82 35.7627 121.927 35.3893 121.927 34.92ZM124.221 32.84V34.064C124.221 34.3787 124.301 34.6 124.461 34.728C124.621 34.8507 124.84 34.912 125.117 34.912C125.32 34.912 125.488 34.9013 125.621 34.88C125.76 34.8587 125.883 34.8347 125.989 34.808V32.84H126.733V37H125.989V35.384C125.947 35.3947 125.891 35.408 125.821 35.424C125.752 35.44 125.672 35.456 125.581 35.472C125.496 35.4827 125.405 35.4933 125.309 35.504C125.213 35.5147 125.12 35.52 125.029 35.52C124.8 35.52 124.589 35.496 124.397 35.448C124.211 35.4 124.048 35.32 123.909 35.208C123.776 35.096 123.669 34.9493 123.589 34.768C123.515 34.5813 123.477 34.3493 123.477 34.072V32.84H124.221ZM131.423 37H130.679V35.16H128.759V37H128.015V32.84H128.759V34.536H130.679V32.84H131.423V37ZM134.231 34.944C134.087 34.944 133.945 34.9493 133.807 34.96C133.673 34.9653 133.553 34.9813 133.447 35.008V36.44C133.479 36.4453 133.524 36.4507 133.583 36.456C133.647 36.4613 133.713 36.4667 133.783 36.472C133.857 36.472 133.932 36.4747 134.007 36.48C134.081 36.48 134.148 36.48 134.207 36.48C134.532 36.48 134.783 36.4187 134.959 36.296C135.135 36.1733 135.223 35.976 135.223 35.704C135.223 35.5707 135.193 35.456 135.135 35.36C135.081 35.264 135.007 35.1867 134.911 35.128C134.82 35.064 134.716 35.0187 134.599 34.992C134.481 34.96 134.359 34.944 134.231 34.944ZM132.703 32.84H133.447V34.432C133.537 34.4107 133.668 34.3893 133.839 34.368C134.015 34.3467 134.183 34.336 134.343 34.336C134.561 34.336 134.769 34.3627 134.967 34.416C135.164 34.464 135.337 34.544 135.487 34.656C135.636 34.7627 135.753 34.904 135.839 35.08C135.929 35.2507 135.975 35.456 135.975 35.696C135.975 35.9467 135.932 36.16 135.847 36.336C135.761 36.512 135.641 36.656 135.487 36.768C135.332 36.88 135.145 36.96 134.927 37.008C134.708 37.0613 134.468 37.088 134.207 37.088C133.956 37.088 133.703 37.072 133.447 37.04C133.191 37.0133 132.943 36.9707 132.703 36.912V32.84ZM137.487 37H136.743V32.84H137.487V37ZM142.261 32.84V37H141.541V33.832C141.381 34.0347 141.205 34.272 141.013 34.544C140.821 34.816 140.629 35.0987 140.437 35.392C140.245 35.68 140.061 35.9653 139.885 36.248C139.709 36.5307 139.557 36.7813 139.429 37H138.765V32.84H139.485V35.832C139.624 35.6027 139.781 35.352 139.957 35.08C140.133 34.8027 140.314 34.5307 140.501 34.264C140.693 33.992 140.882 33.7333 141.069 33.488C141.261 33.2373 141.44 33.0213 141.605 32.84H142.261ZM140.517 32.168C140.181 32.168 139.906 32.0827 139.693 31.912C139.485 31.7413 139.36 31.504 139.317 31.2L139.885 31.048C139.928 31.2187 140 31.3573 140.101 31.464C140.202 31.5707 140.341 31.624 140.517 31.624C140.693 31.624 140.832 31.5707 140.933 31.464C141.034 31.3573 141.106 31.2187 141.149 31.048L141.709 31.2C141.666 31.504 141.541 31.7413 141.333 31.912C141.125 32.0827 140.853 32.168 140.517 32.168ZM147.198 37.096C146.862 37.096 146.566 37.0427 146.31 36.936C146.059 36.8293 145.846 36.68 145.67 36.488C145.499 36.296 145.371 36.0693 145.286 35.808C145.201 35.5413 145.158 35.248 145.158 34.928C145.158 34.608 145.203 34.3147 145.294 34.048C145.39 33.7813 145.523 33.552 145.694 33.36C145.865 33.1627 146.073 33.0107 146.318 32.904C146.569 32.792 146.846 32.736 147.15 32.736C147.337 32.736 147.523 32.752 147.71 32.784C147.897 32.816 148.075 32.8667 148.246 32.936L148.078 33.568C147.966 33.5147 147.835 33.472 147.686 33.44C147.542 33.408 147.387 33.392 147.222 33.392C146.806 33.392 146.486 33.5227 146.262 33.784C146.043 34.0453 145.934 34.4267 145.934 34.928C145.934 35.152 145.958 35.3573 146.006 35.544C146.059 35.7307 146.139 35.8907 146.246 36.024C146.358 36.1573 146.499 36.2613 146.67 36.336C146.841 36.4053 147.049 36.44 147.294 36.44C147.491 36.44 147.67 36.4213 147.83 36.384C147.99 36.3467 148.115 36.3067 148.206 36.264L148.31 36.888C148.267 36.9147 148.206 36.9413 148.126 36.968C148.046 36.9893 147.955 37.008 147.854 37.024C147.753 37.0453 147.643 37.0613 147.526 37.072C147.414 37.088 147.305 37.096 147.198 37.096ZM77.128 46C77.0693 45.8827 76.9973 45.752 76.912 45.608C76.8267 45.464 76.7333 45.3173 76.632 45.168C76.5307 45.0133 76.4267 44.8613 76.32 44.712C76.2133 44.5627 76.1093 44.4213 76.008 44.288C75.9067 44.4213 75.8027 44.5653 75.696 44.72C75.5893 44.8693 75.4853 45.0213 75.384 45.176C75.288 45.3253 75.1973 45.472 75.112 45.616C75.0267 45.76 74.9547 45.888 74.896 46H74.128C74.3147 45.6373 74.536 45.2693 74.792 44.896C75.0533 44.5173 75.312 44.1573 75.568 43.816L74.192 41.84H75.032L76.024 43.296L77.024 41.84H77.816L76.472 43.768C76.728 44.1147 76.9893 44.4827 77.256 44.872C77.528 45.256 77.7573 45.632 77.944 46H77.128ZM82.2219 41.84V46H81.5019V42.832C81.3419 43.0347 81.1659 43.272 80.9739 43.544C80.7819 43.816 80.5899 44.0987 80.3979 44.392C80.2059 44.68 80.0219 44.9653 79.8459 45.248C79.6699 45.5307 79.5179 45.7813 79.3899 46H78.7259V41.84H79.4459V44.832C79.5846 44.6027 79.7419 44.352 79.9179 44.08C80.0939 43.8027 80.2753 43.5307 80.4619 43.264C80.6539 42.992 80.8433 42.7333 81.0299 42.488C81.2219 42.2373 81.4006 42.0213 81.5659 41.84H82.2219ZM86.3874 43.928C86.3874 43.4427 86.2674 43.0693 86.0274 42.808C85.7874 42.5467 85.4674 42.416 85.0674 42.416C84.8434 42.416 84.6674 42.424 84.5394 42.44C84.4167 42.456 84.318 42.4747 84.2434 42.496V45.12C84.334 45.1947 84.4647 45.2667 84.6354 45.336C84.806 45.4053 84.9927 45.44 85.1954 45.44C85.4087 45.44 85.59 45.4027 85.7394 45.328C85.894 45.248 86.0194 45.1413 86.1154 45.008C86.2114 44.8693 86.2807 44.7093 86.3234 44.528C86.366 44.3413 86.3874 44.1413 86.3874 43.928ZM87.1634 43.928C87.1634 44.2427 87.1207 44.5333 87.0354 44.8C86.9554 45.0667 86.8354 45.296 86.6754 45.488C86.5154 45.68 86.318 45.8293 86.0834 45.936C85.854 46.0427 85.59 46.096 85.2914 46.096C85.0514 46.096 84.838 46.064 84.6514 46C84.47 45.936 84.334 45.8747 84.2434 45.816V47.48H83.4994V41.968C83.6754 41.9253 83.894 41.88 84.1554 41.832C84.422 41.7787 84.7287 41.752 85.0754 41.752C85.3954 41.752 85.6834 41.8027 85.9394 41.904C86.1954 42.0053 86.414 42.1493 86.5954 42.336C86.7767 42.5227 86.9154 42.752 87.0114 43.024C87.1127 43.2907 87.1634 43.592 87.1634 43.928ZM87.6129 46.776C87.6716 46.8027 87.7463 46.8267 87.8369 46.848C87.9329 46.8747 88.0263 46.888 88.1169 46.888C88.4103 46.888 88.6396 46.8213 88.8049 46.688C88.9703 46.56 89.1196 46.3493 89.2529 46.056C88.9169 45.416 88.6023 44.7387 88.3089 44.024C88.0209 43.304 87.7809 42.576 87.5889 41.84H88.3889C88.4476 42.08 88.5169 42.3387 88.5969 42.616C88.6823 42.8933 88.7756 43.1787 88.8769 43.472C88.9783 43.7653 89.0876 44.0587 89.2049 44.352C89.3223 44.6453 89.4449 44.928 89.5729 45.2C89.7756 44.64 89.9516 44.0853 90.1009 43.536C90.2503 42.9867 90.3916 42.4213 90.5249 41.84H91.2929C91.1009 42.624 90.8876 43.3787 90.6529 44.104C90.4183 44.824 90.1649 45.4987 89.8929 46.128C89.7863 46.368 89.6743 46.5733 89.5569 46.744C89.4449 46.92 89.3196 47.064 89.1809 47.176C89.0423 47.288 88.8849 47.3707 88.7089 47.424C88.5383 47.4773 88.3436 47.504 88.1249 47.504C88.0663 47.504 88.0049 47.4987 87.9409 47.488C87.8769 47.4827 87.8129 47.472 87.7489 47.456C87.6903 47.4453 87.6343 47.432 87.5809 47.416C87.5329 47.4 87.4983 47.3867 87.4769 47.376L87.6129 46.776ZM94.9655 43.928C94.9655 43.4427 94.8455 43.0693 94.6055 42.808C94.3655 42.5467 94.0455 42.416 93.6455 42.416C93.4215 42.416 93.2455 42.424 93.1175 42.44C92.9948 42.456 92.8962 42.4747 92.8215 42.496V45.12C92.9122 45.1947 93.0428 45.2667 93.2135 45.336C93.3842 45.4053 93.5708 45.44 93.7735 45.44C93.9868 45.44 94.1682 45.4027 94.3175 45.328C94.4722 45.248 94.5975 45.1413 94.6935 45.008C94.7895 44.8693 94.8588 44.7093 94.9015 44.528C94.9442 44.3413 94.9655 44.1413 94.9655 43.928ZM95.7415 43.928C95.7415 44.2427 95.6988 44.5333 95.6135 44.8C95.5335 45.0667 95.4135 45.296 95.2535 45.488C95.0935 45.68 94.8962 45.8293 94.6615 45.936C94.4322 46.0427 94.1682 46.096 93.8695 46.096C93.6295 46.096 93.4162 46.064 93.2295 46C93.0482 45.936 92.9122 45.8747 92.8215 45.816V47.48H92.0775V41.968C92.2535 41.9253 92.4722 41.88 92.7335 41.832C93.0002 41.7787 93.3068 41.752 93.6535 41.752C93.9735 41.752 94.2615 41.8027 94.5175 41.904C94.7735 42.0053 94.9922 42.1493 95.1735 42.336C95.3548 42.5227 95.4935 42.752 95.5895 43.024C95.6908 43.2907 95.7415 43.592 95.7415 43.928ZM99.3644 42.464H97.5324V46H96.7884V41.84H99.3644V42.464ZM103.628 41.84V46H102.908V42.832C102.748 43.0347 102.572 43.272 102.38 43.544C102.188 43.816 101.996 44.0987 101.804 44.392C101.612 44.68 101.428 44.9653 101.252 45.248C101.076 45.5307 100.924 45.7813 100.796 46H100.132V41.84H100.852V44.832C100.991 44.6027 101.148 44.352 101.324 44.08C101.5 43.8027 101.682 43.5307 101.868 43.264C102.06 42.992 102.25 42.7333 102.436 42.488C102.628 42.2373 102.807 42.0213 102.972 41.84H103.628ZM105.378 41.84V43.064C105.378 43.3787 105.458 43.6 105.618 43.728C105.778 43.8507 105.996 43.912 106.274 43.912C106.476 43.912 106.644 43.9013 106.778 43.88C106.916 43.8587 107.039 43.8347 107.146 43.808V41.84H107.89V46H107.146V44.384C107.103 44.3947 107.047 44.408 106.978 44.424C106.908 44.44 106.828 44.456 106.738 44.472C106.652 44.4827 106.562 44.4933 106.466 44.504C106.37 44.5147 106.276 44.52 106.186 44.52C105.956 44.52 105.746 44.496 105.554 44.448C105.367 44.4 105.204 44.32 105.066 44.208C104.932 44.096 104.826 43.9493 104.746 43.768C104.671 43.5813 104.634 43.3493 104.634 43.072V41.84H105.378ZM108.939 43.928C108.939 43.56 108.993 43.24 109.099 42.968C109.206 42.6907 109.347 42.4613 109.523 42.28C109.699 42.0987 109.902 41.9627 110.131 41.872C110.361 41.7813 110.595 41.736 110.835 41.736C111.395 41.736 111.825 41.912 112.123 42.264C112.422 42.6107 112.571 43.1413 112.571 43.856C112.571 43.888 112.571 43.9307 112.571 43.984C112.571 44.032 112.569 44.0773 112.563 44.12H109.715C109.747 44.552 109.873 44.88 110.091 45.104C110.31 45.328 110.651 45.44 111.115 45.44C111.377 45.44 111.595 45.4187 111.771 45.376C111.953 45.328 112.089 45.2827 112.179 45.24L112.283 45.864C112.193 45.912 112.033 45.9627 111.803 46.016C111.579 46.0693 111.323 46.096 111.035 46.096C110.673 46.096 110.358 46.0427 110.091 45.936C109.83 45.824 109.614 45.672 109.443 45.48C109.273 45.288 109.145 45.0613 109.059 44.8C108.979 44.5333 108.939 44.2427 108.939 43.928ZM111.795 43.52C111.801 43.184 111.715 42.9093 111.539 42.696C111.369 42.4773 111.131 42.368 110.827 42.368C110.657 42.368 110.505 42.4027 110.371 42.472C110.243 42.536 110.134 42.6213 110.043 42.728C109.953 42.8347 109.881 42.9573 109.827 43.096C109.779 43.2347 109.747 43.376 109.731 43.52H111.795ZM115.448 46.096C115.112 46.096 114.816 46.0427 114.56 45.936C114.309 45.8293 114.096 45.68 113.92 45.488C113.749 45.296 113.621 45.0693 113.536 44.808C113.451 44.5413 113.408 44.248 113.408 43.928C113.408 43.608 113.453 43.3147 113.544 43.048C113.64 42.7813 113.773 42.552 113.944 42.36C114.115 42.1627 114.323 42.0107 114.568 41.904C114.819 41.792 115.096 41.736 115.4 41.736C115.587 41.736 115.773 41.752 115.96 41.784C116.147 41.816 116.325 41.8667 116.496 41.936L116.328 42.568C116.216 42.5147 116.085 42.472 115.936 42.44C115.792 42.408 115.637 42.392 115.472 42.392C115.056 42.392 114.736 42.5227 114.512 42.784C114.293 43.0453 114.184 43.4267 114.184 43.928C114.184 44.152 114.208 44.3573 114.256 44.544C114.309 44.7307 114.389 44.8907 114.496 45.024C114.608 45.1573 114.749 45.2613 114.92 45.336C115.091 45.4053 115.299 45.44 115.544 45.44C115.741 45.44 115.92 45.4213 116.08 45.384C116.24 45.3467 116.365 45.3067 116.456 45.264L116.56 45.888C116.517 45.9147 116.456 45.9413 116.376 45.968C116.296 45.9893 116.205 46.008 116.104 46.024C116.003 46.0453 115.893 46.0613 115.776 46.072C115.664 46.088 115.555 46.096 115.448 46.096ZM118.879 43.736C119.044 43.8533 119.223 44.0027 119.415 44.184C119.607 44.36 119.793 44.552 119.975 44.76C120.161 44.968 120.335 45.1813 120.495 45.4C120.655 45.6133 120.791 45.8133 120.903 46H120.023C119.905 45.8187 119.767 45.6347 119.607 45.448C119.452 45.256 119.289 45.072 119.119 44.896C118.948 44.72 118.775 44.5573 118.599 44.408C118.423 44.2587 118.257 44.1333 118.103 44.032V46H117.359V41.84H118.103V43.624C118.231 43.5013 118.377 43.36 118.543 43.2C118.708 43.0347 118.873 42.8693 119.039 42.704C119.209 42.5333 119.367 42.3733 119.511 42.224C119.655 42.0693 119.772 41.9413 119.863 41.84H120.727C120.609 41.968 120.471 42.1147 120.311 42.28C120.156 42.44 119.993 42.6053 119.823 42.776C119.657 42.9467 119.492 43.1173 119.327 43.288C119.161 43.4533 119.012 43.6027 118.879 43.736ZM125.093 43.92C125.093 44.2507 125.045 44.5493 124.949 44.816C124.853 45.0827 124.717 45.312 124.541 45.504C124.371 45.696 124.165 45.8453 123.925 45.952C123.685 46.0533 123.424 46.104 123.141 46.104C122.859 46.104 122.597 46.0533 122.357 45.952C122.117 45.8453 121.909 45.696 121.733 45.504C121.563 45.312 121.429 45.0827 121.333 44.816C121.237 44.5493 121.189 44.2507 121.189 43.92C121.189 43.5947 121.237 43.2987 121.333 43.032C121.429 42.76 121.563 42.528 121.733 42.336C121.909 42.144 122.117 41.9973 122.357 41.896C122.597 41.7893 122.859 41.736 123.141 41.736C123.424 41.736 123.685 41.7893 123.925 41.896C124.165 41.9973 124.371 42.144 124.541 42.336C124.717 42.528 124.853 42.76 124.949 43.032C125.045 43.2987 125.093 43.5947 125.093 43.92ZM124.317 43.92C124.317 43.4507 124.211 43.08 123.997 42.808C123.789 42.5307 123.504 42.392 123.141 42.392C122.779 42.392 122.491 42.5307 122.277 42.808C122.069 43.08 121.965 43.4507 121.965 43.92C121.965 44.3893 122.069 44.7627 122.277 45.04C122.491 45.312 122.779 45.448 123.141 45.448C123.504 45.448 123.789 45.312 123.997 45.04C124.211 44.7627 124.317 44.3893 124.317 43.92ZM129.636 41.84V46H128.916V42.832C128.756 43.0347 128.58 43.272 128.388 43.544C128.196 43.816 128.004 44.0987 127.812 44.392C127.62 44.68 127.436 44.9653 127.26 45.248C127.084 45.5307 126.932 45.7813 126.804 46H126.14V41.84H126.86V44.832C126.999 44.6027 127.156 44.352 127.332 44.08C127.508 43.8027 127.689 43.5307 127.876 43.264C128.068 42.992 128.257 42.7333 128.444 42.488C128.636 42.2373 128.815 42.0213 128.98 41.84H129.636ZM127.892 41.168C127.556 41.168 127.281 41.0827 127.068 40.912C126.86 40.7413 126.735 40.504 126.692 40.2L127.26 40.048C127.303 40.2187 127.375 40.3573 127.476 40.464C127.577 40.5707 127.716 40.624 127.892 40.624C128.068 40.624 128.207 40.5707 128.308 40.464C128.409 40.3573 128.481 40.2187 128.524 40.048L129.084 40.2C129.041 40.504 128.916 40.7413 128.708 40.912C128.5 41.0827 128.228 41.168 127.892 41.168ZM134.213 42.464C134.213 42.64 134.208 42.8293 134.197 43.032C134.192 43.2293 134.178 43.4293 134.157 43.632C134.136 43.8293 134.106 44.0267 134.069 44.224C134.032 44.416 133.984 44.5973 133.925 44.768C133.866 44.9387 133.792 45.0987 133.701 45.248C133.616 45.3973 133.509 45.5307 133.381 45.648C133.253 45.76 133.104 45.856 132.933 45.936C132.762 46.0107 132.562 46.0587 132.333 46.08L132.229 45.456C132.49 45.4027 132.696 45.304 132.845 45.16C133 45.016 133.122 44.84 133.213 44.632C133.293 44.4507 133.352 44.2453 133.389 44.016C133.426 43.7867 133.453 43.5493 133.469 43.304C133.485 43.0533 133.493 42.8027 133.493 42.552C133.498 42.3013 133.501 42.064 133.501 41.84H136.269V46H135.525V42.464H134.213ZM137.314 43.928C137.314 43.56 137.368 43.24 137.474 42.968C137.581 42.6907 137.722 42.4613 137.898 42.28C138.074 42.0987 138.277 41.9627 138.506 41.872C138.736 41.7813 138.97 41.736 139.21 41.736C139.77 41.736 140.2 41.912 140.498 42.264C140.797 42.6107 140.946 43.1413 140.946 43.856C140.946 43.888 140.946 43.9307 140.946 43.984C140.946 44.032 140.944 44.0773 140.938 44.12H138.09C138.122 44.552 138.248 44.88 138.466 45.104C138.685 45.328 139.026 45.44 139.49 45.44C139.752 45.44 139.97 45.4187 140.146 45.376C140.328 45.328 140.464 45.2827 140.554 45.24L140.658 45.864C140.568 45.912 140.408 45.9627 140.178 46.016C139.954 46.0693 139.698 46.096 139.41 46.096C139.048 46.096 138.733 46.0427 138.466 45.936C138.205 45.824 137.989 45.672 137.818 45.48C137.648 45.288 137.52 45.0613 137.434 44.8C137.354 44.5333 137.314 44.2427 137.314 43.928ZM140.17 43.52C140.176 43.184 140.09 42.9093 139.914 42.696C139.744 42.4773 139.506 42.368 139.202 42.368C139.032 42.368 138.88 42.4027 138.746 42.472C138.618 42.536 138.509 42.6213 138.418 42.728C138.328 42.8347 138.256 42.9573 138.202 43.096C138.154 43.2347 138.122 43.376 138.106 43.52H140.17ZM145.511 41.84V46H144.791V42.832C144.631 43.0347 144.455 43.272 144.263 43.544C144.071 43.816 143.879 44.0987 143.687 44.392C143.495 44.68 143.311 44.9653 143.135 45.248C142.959 45.5307 142.807 45.7813 142.679 46H142.015V41.84H142.735V44.832C142.874 44.6027 143.031 44.352 143.207 44.08C143.383 43.8027 143.564 43.5307 143.751 43.264C143.943 42.992 144.132 42.7333 144.319 42.488C144.511 42.2373 144.69 42.0213 144.855 41.84H145.511ZM143.767 41.168C143.431 41.168 143.156 41.0827 142.943 40.912C142.735 40.7413 142.61 40.504 142.567 40.2L143.135 40.048C143.178 40.2187 143.25 40.3573 143.351 40.464C143.452 40.5707 143.591 40.624 143.767 40.624C143.943 40.624 144.082 40.5707 144.183 40.464C144.284 40.3573 144.356 40.2187 144.399 40.048L144.959 40.2C144.916 40.504 144.791 40.7413 144.583 40.912C144.375 41.0827 144.103 41.168 143.767 41.168ZM148.308 43.736C148.474 43.8533 148.652 44.0027 148.844 44.184C149.036 44.36 149.223 44.552 149.404 44.76C149.591 44.968 149.764 45.1813 149.924 45.4C150.084 45.6133 150.22 45.8133 150.332 46H149.452C149.335 45.8187 149.196 45.6347 149.036 45.448C148.882 45.256 148.719 45.072 148.548 44.896C148.378 44.72 148.204 44.5573 148.028 44.408C147.852 44.2587 147.687 44.1333 147.532 44.032V46H146.788V41.84H147.532V43.624C147.66 43.5013 147.807 43.36 147.972 43.2C148.138 43.0347 148.303 42.8693 148.468 42.704C148.639 42.5333 148.796 42.3733 148.94 42.224C149.084 42.0693 149.202 41.9413 149.292 41.84H150.156C150.039 41.968 149.9 42.1147 149.74 42.28C149.586 42.44 149.423 42.6053 149.252 42.776C149.087 42.9467 148.922 43.1173 148.756 43.288C148.591 43.4533 148.442 43.6027 148.308 43.736ZM154.523 43.92C154.523 44.2507 154.475 44.5493 154.379 44.816C154.283 45.0827 154.147 45.312 153.971 45.504C153.8 45.696 153.595 45.8453 153.355 45.952C153.115 46.0533 152.854 46.104 152.571 46.104C152.288 46.104 152.027 46.0533 151.787 45.952C151.547 45.8453 151.339 45.696 151.163 45.504C150.992 45.312 150.859 45.0827 150.763 44.816C150.667 44.5493 150.619 44.2507 150.619 43.92C150.619 43.5947 150.667 43.2987 150.763 43.032C150.859 42.76 150.992 42.528 151.163 42.336C151.339 42.144 151.547 41.9973 151.787 41.896C152.027 41.7893 152.288 41.736 152.571 41.736C152.854 41.736 153.115 41.7893 153.355 41.896C153.595 41.9973 153.8 42.144 153.971 42.336C154.147 42.528 154.283 42.76 154.379 43.032C154.475 43.2987 154.523 43.5947 154.523 43.92ZM153.747 43.92C153.747 43.4507 153.64 43.08 153.427 42.808C153.219 42.5307 152.934 42.392 152.571 42.392C152.208 42.392 151.92 42.5307 151.707 42.808C151.499 43.08 151.395 43.4507 151.395 43.92C151.395 44.3893 151.499 44.7627 151.707 45.04C151.92 45.312 152.208 45.448 152.571 45.448C152.934 45.448 153.219 45.312 153.427 45.04C153.64 44.7627 153.747 44.3893 153.747 43.92ZM159.066 41.84V46H158.346V42.832C158.186 43.0347 158.01 43.272 157.818 43.544C157.626 43.816 157.434 44.0987 157.242 44.392C157.05 44.68 156.866 44.9653 156.69 45.248C156.514 45.5307 156.362 45.7813 156.234 46H155.57V41.84H156.29V44.832C156.428 44.6027 156.586 44.352 156.762 44.08C156.938 43.8027 157.119 43.5307 157.306 43.264C157.498 42.992 157.687 42.7333 157.874 42.488C158.066 42.2373 158.244 42.0213 158.41 41.84H159.066ZM157.322 41.168C156.986 41.168 156.711 41.0827 156.498 40.912C156.29 40.7413 156.164 40.504 156.122 40.2L156.69 40.048C156.732 40.2187 156.804 40.3573 156.906 40.464C157.007 40.5707 157.146 40.624 157.322 40.624C157.498 40.624 157.636 40.5707 157.738 40.464C157.839 40.3573 157.911 40.2187 157.954 40.048L158.514 40.2C158.471 40.504 158.346 40.7413 158.138 40.912C157.93 41.0827 157.658 41.168 157.322 41.168Z" fill="white"/>
<path d="M29.8834 15.3343C29.2381 15.3555 28.2738 15.3555 27.4386 15.299C26.6032 15.2424 25.8969 15.1292 25.2246 15.0231C24.5524 14.9169 23.914 14.8178 23.3097 14.8108C22.7052 14.8037 22.1347 14.8886 21.51 15.1364C20.8853 15.3839 20.2061 15.7942 19.6764 16.2046C19.1467 16.6149 18.7664 17.0253 18.454 17.5276C18.1417 18.03 17.8972 18.6242 17.7342 19.2044C17.5713 19.7845 17.4898 20.3505 17.4829 20.775C17.4761 21.1995 17.544 21.4825 17.6799 21.7231C17.8156 21.9636 18.0194 22.1617 18.325 22.4234C18.6306 22.6852 19.038 23.0108 19.5475 23.2796C20.0567 23.5483 20.6679 23.7607 21.2722 23.9023C21.8767 24.0436 22.4743 24.1144 23.1262 24.1074C23.7782 24.1002 24.4844 24.0152 25.0481 23.8951C25.6118 23.7748 26.0328 23.6191 26.5014 23.3928C26.97 23.1663 27.4861 22.8693 27.8392 22.6004C28.1923 22.3315 28.3825 22.0909 28.4911 21.8291C28.5998 21.5673 28.627 21.2845 28.6677 20.9379C28.7084 20.591 28.7627 20.1806 28.8511 19.8128C28.9393 19.4448 29.0615 19.1194 29.245 18.8295C29.4283 18.5393 29.6727 18.2847 30.0871 18.0017C30.5013 17.7186 31.0853 17.4074 33.0479 16.6574C35.0105 15.9075 38.3517 14.7189 40.8712 13.7496C43.3906 12.7802 45.0883 12.0304 46.4941 11.4079C47.8998 10.7852 49.0136 10.2899 49.9371 9.83729C50.8607 9.38437 51.5941 8.97408 52.0627 8.50706C52.5312 8.04014 52.735 7.5166 52.7893 6.97887C52.8437 6.44123 52.7487 5.88933 52.5177 5.4294C52.2868 4.96948 51.9201 4.60173 51.5399 4.36122C51.1596 4.12054 50.7657 4.00746 50.3785 4.00037C49.9914 3.9931 49.6112 4.09227 49.292 4.24088C48.9728 4.38949 48.7148 4.58746 48.5043 4.82105C48.2937 5.05438 48.1307 5.32333 48.0017 5.67718C47.8727 6.03085 47.7776 6.4695 47.6758 6.8658C47.5739 7.26191 47.4652 7.61567 47.3091 7.96225C47.1529 8.30892 46.949 8.64849 46.7521 8.93163C46.5552 9.21458 46.3651 9.4409 45.2989 10.0211C44.2327 10.6013 42.2905 11.5351 40.9323 12.1436C39.5741 12.752 38.7998 13.035 37.985 13.3251C37.17 13.6152 36.3144 13.9123 35.4384 14.1812C34.5623 14.45 33.6658 14.6906 32.9529 14.8603C32.2398 15.0301 31.71 15.1292 31.2822 15.2C30.8544 15.2707 30.5284 15.3132 29.8834 15.3343Z" stroke="white" stroke-width="0.3501"/>
<path d="M47.6758 6.86575C47.8543 6.31784 48.033 5.77021 48.3023 5.33274C48.5716 4.89517 48.9319 4.56814 49.2852 4.4528C49.6384 4.33745 49.9846 4.43416 50.3208 4.58168C50.657 4.72902 50.9829 4.92708 51.2614 5.13941C51.5398 5.35155 51.7707 5.57806 51.9066 5.86801C52.0422 6.15805 52.0831 6.51181 52.0831 6.88684C52.0831 7.26186 52.0422 7.65798 51.8629 8.05564C51.6835 8.45321 51.3653 8.85214 51.0606 9.12982C50.7557 9.40741 50.4643 9.56402 50.3186 9.6421C50.1729 9.72036 50.1729 9.72035 50.1729 9.72035" stroke="white" stroke-width="0.3501"/>
<path d="M46.4534 9.27832C46.0821 9.59908 45.7107 9.91976 44.6491 10.5169C43.5873 11.1141 41.8353 11.988 40.0492 12.7451C38.2632 13.5021 36.4432 14.1423 35.0476 14.6181C33.6521 15.094 32.6811 15.4052 31.8831 15.6723C31.0851 15.9395 30.4603 16.1622 29.7524 16.3019C29.0444 16.4417 28.2533 16.4984 27.019 16.5461C25.7847 16.5937 24.1074 16.6327 23.0802 16.6752C22.0531 16.7176 21.6762 16.7637 21.3434 16.8431C21.0106 16.9227 20.722 17.0359 20.4775 17.1757C20.233 17.3155 20.0327 17.4817 19.8867 17.6885C19.7408 17.8956 19.649 18.1431 19.6168 18.3501C19.5845 18.5572 19.6118 18.7234 19.6898 18.909C19.7679 19.0947 19.8969 19.3001 20.0615 19.4803C20.2262 19.6608 20.4266 19.8164 20.6898 19.9191C20.9529 20.0217 21.2789 20.0712 21.6168 20.0853C21.9546 20.0995 22.3043 20.0783 22.7119 19.9827C23.1193 19.8872 23.5844 19.7175 24.1074 19.4716C24.6303 19.2257 25.2109 18.9038 25.7745 18.6243C26.3382 18.3449 26.8848 18.1079 27.4026 17.9221C27.9204 17.7363 28.4094 17.6021 29.0054 17.4446C29.6013 17.2872 30.3041 17.1068 31.3466 16.7954C32.389 16.484 33.7709 16.042 35.1852 15.5625C36.5993 15.0833 38.0458 14.5668 39.5212 14.0256C40.9965 13.4844 42.5008 12.9182 43.4583 12.5592C44.4158 12.2003 44.8267 12.048 45.0321 11.9721C45.2375 11.8961 45.2375 11.8961 45.2375 11.8961" stroke="white" stroke-width="0.3501"/>
<path d="M23.2852 23.8246C23.3463 23.2656 23.4075 22.7068 23.5739 22.1089C23.7403 21.511 24.0119 20.8743 24.3989 20.3685C24.786 19.8626 25.2886 19.4875 25.9337 19.1232C26.5789 18.7589 27.3666 18.4052 28.0695 18.1577C28.7724 17.9099 29.3903 17.7684 29.6994 17.6978C30.0083 17.627 30.0083 17.627 30.0083 17.627" stroke="white" stroke-width="0.3501"/>
<path d="M28.4249 19.822C28.3281 19.8556 28.1855 19.9723 28.0752 20.1439C27.9648 20.3155 27.8867 20.5419 27.8613 20.7329C27.8357 20.9239 27.8629 21.0795 27.9155 21.1663C27.9682 21.2529 28.0463 21.2707 28.1414 21.2193C28.2365 21.168 28.3485 21.0476 28.4317 20.885C28.5149 20.7222 28.5692 20.5172 28.5964 20.3438C28.6235 20.1704 28.6235 20.029 28.5981 19.9334C28.5727 19.8378 28.5216 19.7885 28.4249 19.822Z" stroke="white" stroke-width="0.3501"/>
<path d="M40.2469 34.3709C40.8332 34.1538 41.6249 33.9611 42.2198 33.7979C42.9192 33.6063 43.5577 33.4799 44.1595 33.39C44.761 33.3003 45.3255 33.2469 46.0128 33.2369C46.6998 33.2269 47.5096 33.2602 48.1901 33.3236C48.8702 33.387 49.4209 33.4808 49.7066 33.5898C49.992 33.699 50.0126 33.8234 50.0272 33.9728C50.0419 34.1218 50.0506 34.2957 50.0916 34.4019C50.1323 34.5081 50.2052 34.5466 50.3295 34.6212C50.4538 34.6958 50.6296 34.8064 50.7969 34.8894C50.964 34.9725 51.1229 35.0281 51.5279 35.0448C51.9328 35.0612 52.5839 35.0389 53.1797 34.9739C53.7754 34.9087 54.3158 34.8007 54.7949 34.6712C55.274 34.5415 55.6916 34.3903 56.1558 34.1777C56.6201 33.9651 57.1308 33.6913 57.4561 33.4676C57.7816 33.2437 57.9217 33.0702 57.9904 32.9592C58.0593 32.848 58.0567 32.7993 57.9957 32.2933C57.9346 31.7872 57.8148 30.8238 57.7062 30.292C57.5978 29.7602 57.5005 29.6602 57.3108 29.5536C57.1211 29.4473 56.8389 29.3345 56.158 29.1178C55.477 28.9009 54.3972 28.5801 53.403 28.3357C52.4087 28.0912 51.4998 27.9229 50.6759 27.8241C49.8522 27.7254 49.1132 27.6958 48.3305 27.7068C47.5477 27.7175 46.7207 27.7687 45.9314 27.86C45.142 27.9514 44.3901 28.0828 43.7176 28.2419C43.0895 28.3905 42.1742 28.4333 39.7959 29.3905" stroke="white" stroke-width="0.3501"/>
<path d="M57.565 33.3462C57.6707 33.8464 57.7763 34.3465 57.8206 34.6412C57.8647 34.9359 57.8476 35.0255 57.7375 35.1751C57.6274 35.3246 57.4243 35.5342 57.1153 35.7527C56.8062 35.9713 56.3913 36.1988 55.8791 36.3943C55.3669 36.5897 54.7575 36.7532 54.2982 36.8647C53.8388 36.9764 53.5297 37.0361 53.1405 37.0554C52.7513 37.0748 52.2825 37.0539 51.9358 36.9937C51.589 36.9334 51.3647 36.8338 51.25 36.7286C51.1353 36.6236 51.1302 36.513 51.0728 36.2155C51.0154 35.9179 50.9057 35.4334 50.7959 34.9489" stroke="white" stroke-width="0.3501"/>
<path d="M53.4955 37.0239C53.4316 36.7289 53.3677 36.4336 53.3457 36.2708C53.3236 36.108 53.3435 36.0774 53.7881 35.9555C54.2328 35.8337 55.1023 35.6204 55.5449 35.5318C55.9875 35.4432 56.0034 35.4793 56.0349 35.6247C56.0664 35.7701 56.1136 36.0246 56.1609 36.2792" stroke="white" stroke-width="0.3501"/>
<path d="M57.332 29.5649C56.6982 29.8743 56.0734 30.1875 55.5466 30.5396C54.9651 30.9286 54.5031 31.3654 54.2161 31.834C53.9292 32.3026 53.8176 32.8032 53.8109 33.2763C53.8042 33.7495 53.9027 34.1951 53.9506 34.4618C53.9985 34.7284 53.9958 34.816 53.9931 34.9037" stroke="white" stroke-width="0.3501"/>
<path d="M55.0581 30.5762C54.2758 30.6818 53.4936 30.7874 52.5251 30.7729C51.5565 30.7584 50.4016 30.6239 49.2998 30.4868C48.1979 30.3499 47.1492 30.21 46.3155 30.1187C45.4816 30.0272 44.8626 29.9842 44.0432 30.051C43.2238 30.1178 42.2038 30.2944 41.0307 30.6113C40.7811 30.6789 40.3972 30.7488 40.1162 30.8374" stroke="white" stroke-width="0.3501"/>
<path d="M17.8311 21.6484C18.0384 22.0177 18.351 22.4129 18.7649 22.753C19.1786 23.0929 19.6936 23.3774 20.3239 23.5997C20.9544 23.822 21.7002 23.982 22.471 24.0323C23.2418 24.0824 24.0375 24.0228 24.7218 23.9074C25.406 23.792 25.9787 23.6207 26.4746 23.4173C26.9704 23.2139 27.3892 22.9781 27.7467 22.6737C27.8205 22.6108 27.8916 22.545 27.9596 22.4776" stroke="white" stroke-width="0.3501"/>
<path d="M17.8304 21.6484C17.823 22.2905 17.8157 22.9325 17.8109 25.823C17.8062 28.7132 17.804 33.8519 17.8009 36.4804C17.7979 39.1087 17.794 39.2266 17.8934 39.4297C17.9929 39.6326 18.1959 39.9205 18.5697 40.1851C18.9435 40.4498 19.4883 40.6911 20.0485 40.8888C20.6088 41.0862 21.1849 41.2401 21.7848 41.3137C22.3847 41.3872 23.0086 41.3803 23.6133 41.3137C24.2178 41.2472 24.8032 41.1208 25.3485 40.9192C25.8939 40.7174 26.3993 40.4405 26.7621 40.1879C27.1249 39.9352 27.3452 39.7071 27.4864 39.5129C27.6275 39.3187 27.6896 39.1585 27.7151 39.0338C27.7404 38.9092 27.7293 38.8203 27.7237 38.7758C27.718 38.7313 27.718 38.7313 27.718 38.7313" stroke="white" stroke-width="0.3501"/>
<path d="M27.9586 22.4775C27.9073 26.1836 27.8561 29.8896 27.8047 33.5956" stroke="white" stroke-width="0.3501"/>
<path d="M17.8164 23.7358C18.2823 24.0833 18.7482 24.4304 19.2546 24.6952C19.7609 24.9602 20.3075 25.1424 20.9403 25.2911C21.5733 25.4395 22.2923 25.5543 22.972 25.5717C23.6518 25.5891 24.2923 25.509 24.885 25.3755C25.4777 25.2419 26.0225 25.055 26.4405 24.8488C26.8584 24.6424 27.1495 24.4168 27.3785 24.233C27.6076 24.0494 27.7746 23.9077 27.9417 23.7659" stroke="white" stroke-width="0.3501"/>
<path d="M17.8047 31.812C17.9744 32.0699 18.1442 32.3278 18.4158 32.5965C18.6873 32.8651 19.0607 33.1445 19.4926 33.367C19.9246 33.5895 20.4151 33.755 20.9496 33.8779C21.484 34.0005 22.0624 34.0806 22.6505 34.0874C23.2385 34.0939 23.8361 34.0272 24.4141 33.9079C24.9921 33.7886 25.5506 33.617 26.0184 33.405C26.4861 33.1932 26.863 32.941 27.1497 32.6782C27.4363 32.4153 27.6326 32.1415 27.8289 31.8678" stroke="white" stroke-width="0.3501"/>
<path d="M28.4945 38.4051C28.4927 38.8777 28.4912 39.3501 28.4441 39.6954C28.397 40.0407 28.3047 40.2589 28.0103 40.5877C27.7157 40.9168 27.219 41.3564 26.6334 41.7042C26.0477 42.052 25.3729 42.3082 24.6733 42.46C23.9737 42.6117 23.2492 42.6591 22.5134 42.6249C21.7774 42.5907 21.0301 42.4751 20.4534 42.3433C19.8766 42.2116 19.4707 42.0638 19.094 41.8802C18.7175 41.6968 18.3705 41.4774 18.068 41.2006C17.7654 40.9239 17.5073 40.5896 17.327 40.2582C17.1468 39.9267 17.0445 39.5982 17.0119 39.3017C16.9793 39.0052 17.0165 38.7406 17.0889 38.4849C17.1613 38.2291 17.2688 37.982 17.3932 37.7939C17.5175 37.6058 17.6588 37.4767 17.8 37.3477" stroke="white" stroke-width="0.3501"/>
<path d="M23.2119 39.9625C23.4436 40.0299 23.6751 40.0974 24.1027 40.0299C24.5301 39.9625 25.1535 39.7599 25.64 39.5672C26.1268 39.3745 26.4766 39.1915 27.1517 38.9226C27.8269 38.6538 28.8275 38.2989 29.3277 38.1215C29.828 37.9438 29.828 37.9438 29.828 37.9438" stroke="white" stroke-width="0.3501"/>
<path d="M28.2368 38.5129C28.1951 38.6901 28.1534 38.8673 28.0133 39.1269C27.8734 39.3865 27.6351 39.7286 27.3596 40.0194C27.0842 40.3103 26.7713 40.5499 26.3334 40.7703C25.8956 40.9904 25.3324 41.1916 24.7733 41.3282C24.2142 41.4646 23.659 41.5368 23.1266 41.5598C22.5944 41.5829 22.0849 41.5571 21.521 41.47C20.9569 41.383 20.3381 41.2351 19.8423 41.0693C19.3465 40.9035 18.9735 40.7202 18.6427 40.496C18.3117 40.2716 18.0229 40.0063 17.814 39.7385C17.605 39.4706 17.4759 39.2002 17.3902 38.959C17.3043 38.7176 17.2618 38.5057 17.2488 38.3529C17.2358 38.2 17.2523 38.106 17.2688 38.0122" stroke="white" stroke-width="0.3501"/>
<path d="M36.852 30.4033C33.8363 31.4673 30.8205 32.5318 29.104 33.1041C27.3875 33.6766 26.9702 33.7575 26.643 33.8489C26.3157 33.9404 26.0785 34.0424 25.7302 34.2846C25.3819 34.5265 24.9226 34.9086 24.5037 35.3512C24.0849 35.7938 23.7067 36.2969 23.4159 36.7292C23.125 37.1615 22.9214 37.5234 22.8047 37.8366C22.6879 38.1497 22.6578 38.4144 22.6832 38.7109C22.7087 39.007 22.7899 39.3349 22.8872 39.5488C22.9845 39.7628 23.0981 39.863 23.2115 39.963" stroke="white" stroke-width="0.3501"/>
<path d="M29.8281 37.944C33.6277 36.6417 37.4272 35.3395 40.5834 34.2555M42.1579 28.5786C41.1313 28.9311 40.201 29.2511 39.473 29.5015C36.8526 30.403 36.8525 30.403 36.8525 30.403" stroke="white" stroke-width="0.3501"/>
<path d="M40.1159 30.8369C37.6464 31.7304 35.0506 32.6878 32.9219 33.4862C29.0463 34.9399 26.719 35.8669 25.3552 36.4891C23.9913 37.1115 23.5909 37.4292 23.1904 37.7468" stroke="white" stroke-width="0.3501"/>
<path d="M18.3831 41.521C18.3768 43.5348 18.3768 45.3998 18.4118 46.4087C18.4214 46.6881 18.4339 46.9021 18.4511 47.067M26.1073 47.8443C26.3902 47.6701 26.6374 47.4798 26.8028 47.304C27.0198 47.0736 27.0963 46.8674 27.1347 46.7644C27.1729 46.6613 27.1729 46.6613 27.1759 45.6272C27.1781 44.8059 27.1822 43.3328 27.1867 41.7251" stroke="white" stroke-width="0.3501"/>
<path d="M27.1324 46.7716C27.1548 46.8296 27.166 46.8885 27.1656 46.9484C27.1589 47.7186 25.193 48.3248 22.7748 48.3019C20.3566 48.2793 18.4015 47.6365 18.4082 46.8664C18.4085 46.824 18.4149 46.7824 18.4266 46.7412" stroke="white" stroke-width="0.3501"/>
<path d="M27.1622 43.1416C27.0296 43.8746 25.1153 44.4398 22.7787 44.4178C20.4421 44.3959 18.5378 43.7951 18.418 43.0596" stroke="white" stroke-width="0.3501"/>
<path d="M27.1201 41.5643C26.9875 42.2974 25.0732 42.8626 22.7366 42.8407C20.4 42.8188 18.4957 42.2179 18.376 41.4824" stroke="white" stroke-width="0.3501"/>
<path d="M27.1142 42.2231C26.9818 42.9562 25.0673 43.5212 22.7307 43.4993C20.3942 43.4773 18.4899 42.8765 18.3701 42.1411" stroke="white" stroke-width="0.3501"/>
<path d="M27.1084 42.8818C26.976 43.6148 25.0616 44.1798 22.7251 44.1578C20.3884 44.136 18.4841 43.535 18.3643 42.7998" stroke="white" stroke-width="0.3501"/>
<path d="M27.1036 43.5405C26.971 44.2736 25.0567 44.8387 22.7201 44.8169C20.3835 44.795 18.4792 44.194 18.3594 43.4585" stroke="white" stroke-width="0.3501"/>
<path d="M27.0967 44.1992C26.9642 44.9323 25.0499 45.4974 22.7132 45.4756C20.3766 45.4536 18.4723 44.8528 18.3525 44.1172" stroke="white" stroke-width="0.3501"/>
<path d="M27.0908 44.8578C26.9583 45.5908 25.0439 46.1558 22.7074 46.1339C20.3708 46.1121 18.4665 45.5111 18.3467 44.7759" stroke="white" stroke-width="0.3501"/>
<path d="M27.0859 45.516C26.9535 46.2489 25.039 46.814 22.7024 46.7922C20.3659 46.7703 18.4616 46.1694 18.3418 45.4341" stroke="white" stroke-width="0.3501"/>
<path d="M27.0801 46.1748C26.9477 46.9078 25.0333 47.4731 22.6967 47.4512C20.3601 47.4292 18.4558 46.8284 18.3359 46.0928" stroke="white" stroke-width="0.3501"/>
<path d="M23.1445 48.7031C25.7615 48.7031 27.8829 49.6699 27.8829 50.8623C27.8829 52.0547 25.7615 53.0217 23.1445 53.0217C20.5276 53.0217 18.4062 52.0547 18.4062 50.8623C18.4062 49.6699 20.5276 48.7031 23.1445 48.7031Z" stroke="white" stroke-width="0.3501"/>
<path d="M23.1442 49.3999C24.917 49.3999 26.354 50.0549 26.354 50.8627C26.354 51.6704 24.917 52.3253 23.1442 52.3253C21.3716 52.3253 19.9346 51.6704 19.9346 50.8627C19.9346 50.0549 21.3716 49.3999 23.1442 49.3999Z" stroke="white" stroke-width="0.3501"/>
<path d="M20.3813 51.6074C20.1044 51.4535 19.9453 51.2738 19.9453 51.082C19.9453 50.5089 21.3621 50.0444 23.1099 50.0444C24.7963 50.0444 26.1745 50.4769 26.2694 51.0218" stroke="white" stroke-width="0.3501"/>
<path d="M27.0322 52.0968C27.1063 52.2082 27.1455 52.3246 27.1455 52.4444C27.1455 53.2522 25.3583 53.9069 23.1539 53.9069C20.9492 53.9069 19.1621 53.2522 19.1621 52.4444C19.1621 52.3278 19.1993 52.2144 19.2693 52.1059M20.1749 51.4706C20.1865 51.466 20.1982 51.4611 20.2098 51.4565" stroke="white" stroke-width="0.3501"/>
<path d="M18.9883 51.9004L19.2221 52.8401" stroke="white" stroke-width="0.3501"/>
<path d="M27.2631 51.9741L27.0293 52.914" stroke="white" stroke-width="0.3501"/>
<defs>
<linearGradient id="paint0_linear_973_2043" x1="102" y1="0.000488281" x2="102" y2="58.0003" gradientUnits="userSpaceOnUse">
<stop stop-color="#101F52"/>
<stop offset="0.9999" stop-color="#101F52" stop-opacity="0.8125"/>
<stop offset="1" stop-color="#101F52" stop-opacity="0"/>
</linearGradient>
</defs>
</svg>
