<svg width="204" height="58" viewBox="0 0 204 58" fill="none" xmlns="http://www.w3.org/2000/svg">
<rect y="0.000488281" width="204" height="57.9998" rx="5" fill="url(#paint0_linear_973_2040)"/>
<path d="M95.9712 48.6508C82.2707 49.9357 66.6623 53.2274 63.7963 53.8466C63.4888 53.913 63.204 54.0495 62.9577 54.2453C61.4218 55.4663 62.2852 57.9397 64.2472 57.9397H198.932C201.693 57.9397 203.932 55.7012 203.932 52.9397V46.7444C203.932 43.6216 201.101 41.263 198.029 41.8265L192.215 42.8932L171.292 45.0043L150.639 47.0883C150.46 47.1064 150.303 47.1149 150.123 47.1138C146.964 47.095 114.174 46.9435 95.9712 48.6508Z" fill="#0F2458" fill-opacity="0.5"/>
<path d="M120.802 49.99C110.348 51.0799 98.4501 53.8565 96.0896 54.422C95.8089 54.4893 95.5573 54.6233 95.341 54.8144C94.1079 55.904 94.8786 57.94 96.5241 57.94H198.932C201.693 57.94 203.932 55.7014 203.932 52.94V49.3451C203.932 46.1822 201.032 43.814 197.933 44.4459L194.91 45.0623L178.8 46.8691L162.987 48.6425C162.789 48.6648 162.592 48.6752 162.392 48.6739C159.405 48.6553 134.635 48.5481 120.802 49.99Z" fill="#0D2862" fill-opacity="0.5"/>
<path d="M106.942 12.4689C120.109 10.7945 135.057 6.58121 138.514 5.57623C139.002 5.43455 139.436 5.16236 139.782 4.79025C141.474 2.96561 140.18 -1.80105e-05 137.691 -1.80105e-05L5.06077 -1.80105e-05C2.29935 -1.80105e-05 0.0607738 2.23856 0.0607738 4.99998L0.0607738 16.6869C0.0607738 19.9373 3.11343 22.3237 6.26774 21.539L11.6602 20.1976L32.3736 17.3638L52.7248 14.5795C52.9659 14.5465 53.2002 14.5311 53.4435 14.5329C57.1648 14.5615 89.1168 14.7357 106.942 12.4689Z" fill="#0F2458" fill-opacity="0.7"/>
<path d="M93.9862 9.37271C105.752 8.09295 119.134 4.84039 121.876 4.1557C122.215 4.07109 122.517 3.90408 122.773 3.66734C124.188 2.3628 123.265 7.23182e-05 121.341 7.23182e-05L5.06069 7.23182e-05C2.29926 7.23182e-05 0.060692 2.23865 0.060692 5.00007V11.1753C0.060692 14.3555 2.99062 16.7277 6.10125 16.0658L10.2542 15.1822L28.4568 13.0521L46.3486 10.9583C46.5556 10.9341 46.7541 10.9227 46.9626 10.9241C50.184 10.9454 78.3056 11.0784 93.9862 9.37271Z" fill="#0D2862" fill-opacity="0.7"/>
<path d="M72.072 27.12C71.6827 27.12 71.328 27.056 71.008 26.928C70.688 26.8 70.4133 26.6133 70.184 26.368C69.9547 26.1227 69.776 25.8213 69.648 25.464C69.5253 25.1013 69.464 24.688 69.464 24.224C69.464 23.76 69.5333 23.3493 69.672 22.992C69.816 22.6293 70.008 22.3253 70.248 22.08C70.488 21.8347 70.768 21.648 71.088 21.52C71.408 21.392 71.7493 21.328 72.112 21.328C72.3413 21.328 72.5467 21.344 72.728 21.376C72.9147 21.408 73.0747 21.4453 73.208 21.488C73.3467 21.5307 73.4587 21.5733 73.544 21.616C73.6293 21.6587 73.688 21.6907 73.72 21.712L73.496 22.352C73.448 22.32 73.3787 22.2853 73.288 22.248C73.1973 22.2107 73.0933 22.1733 72.976 22.136C72.864 22.0987 72.7387 22.0693 72.6 22.048C72.4667 22.0213 72.3307 22.008 72.192 22.008C71.8987 22.008 71.6347 22.0587 71.4 22.16C71.1653 22.2613 70.9653 22.408 70.8 22.6C70.6347 22.792 70.5067 23.0267 70.416 23.304C70.3307 23.576 70.288 23.8827 70.288 24.224C70.288 24.5547 70.3253 24.856 70.4 25.128C70.48 25.4 70.5973 25.6347 70.752 25.832C70.9067 26.024 71.0987 26.1733 71.328 26.28C71.5627 26.3867 71.8347 26.44 72.144 26.44C72.5013 26.44 72.7973 26.4027 73.032 26.328C73.2667 26.2533 73.4427 26.1867 73.56 26.128L73.76 26.768C73.7227 26.7947 73.656 26.8293 73.56 26.872C73.464 26.9093 73.344 26.9467 73.2 26.984C73.056 27.0213 72.888 27.0533 72.696 27.08C72.504 27.1067 72.296 27.12 72.072 27.12ZM75.3929 23.936C75.3396 24.464 75.2996 24.992 75.2729 25.52C75.2463 26.0427 75.2249 26.536 75.2089 27H74.4969C74.5076 26.6747 74.5236 26.336 74.5449 25.984C74.5663 25.6267 74.5903 25.2693 74.6169 24.912C74.6436 24.5493 74.6729 24.1947 74.7049 23.848C74.7369 23.496 74.7716 23.16 74.8089 22.84H75.4889C75.6596 23.1173 75.8596 23.4987 76.0889 23.984C76.3183 24.464 76.5823 25.0187 76.8809 25.648C77.1796 25.0187 77.4436 24.464 77.6729 23.984C77.9023 23.4987 78.1023 23.1173 78.2729 22.84H78.9609C78.9983 23.16 79.0329 23.496 79.0649 23.848C79.0969 24.1947 79.1263 24.5493 79.1529 24.912C79.1796 25.2693 79.2036 25.6267 79.2249 25.984C79.2463 26.336 79.2623 26.6747 79.2729 27H78.5369C78.5209 26.536 78.4996 26.0427 78.4729 25.52C78.4463 24.992 78.4063 24.464 78.3529 23.936C78.2676 24.1013 78.1689 24.3013 78.0569 24.536C77.9449 24.7653 77.8329 25 77.7209 25.24C77.6143 25.48 77.5129 25.7093 77.4169 25.928C77.3209 26.1467 77.2463 26.32 77.1929 26.448H76.5689C76.5103 26.3147 76.4303 26.1387 76.3289 25.92C76.2329 25.7013 76.1289 25.472 76.0169 25.232C75.9103 24.9867 75.8009 24.7493 75.6889 24.52C75.5769 24.2853 75.4783 24.0907 75.3929 23.936ZM80.2205 24.928C80.2205 24.56 80.2738 24.24 80.3805 23.968C80.4872 23.6907 80.6285 23.4613 80.8045 23.28C80.9805 23.0987 81.1832 22.9627 81.4125 22.872C81.6418 22.7813 81.8765 22.736 82.1165 22.736C82.6765 22.736 83.1058 22.912 83.4045 23.264C83.7032 23.6107 83.8525 24.1413 83.8525 24.856C83.8525 24.888 83.8525 24.9307 83.8525 24.984C83.8525 25.032 83.8498 25.0773 83.8445 25.12H80.9965C81.0285 25.552 81.1538 25.88 81.3725 26.104C81.5912 26.328 81.9325 26.44 82.3965 26.44C82.6578 26.44 82.8765 26.4187 83.0525 26.376C83.2338 26.328 83.3698 26.2827 83.4605 26.24L83.5645 26.864C83.4738 26.912 83.3138 26.9627 83.0845 27.016C82.8605 27.0693 82.6045 27.096 82.3165 27.096C81.9538 27.096 81.6392 27.0427 81.3725 26.936C81.1112 26.824 80.8952 26.672 80.7245 26.48C80.5538 26.288 80.4258 26.0613 80.3405 25.8C80.2605 25.5333 80.2205 25.2427 80.2205 24.928ZM83.0765 24.52C83.0818 24.184 82.9965 23.9093 82.8205 23.696C82.6498 23.4773 82.4125 23.368 82.1085 23.368C81.9378 23.368 81.7858 23.4027 81.6525 23.472C81.5245 23.536 81.4152 23.6213 81.3245 23.728C81.2338 23.8347 81.1618 23.9573 81.1085 24.096C81.0605 24.2347 81.0285 24.376 81.0125 24.52H83.0765ZM86.7293 27.096C86.3933 27.096 86.0973 27.0427 85.8413 26.936C85.5906 26.8293 85.3773 26.68 85.2013 26.488C85.0306 26.296 84.9026 26.0693 84.8173 25.808C84.7319 25.5413 84.6893 25.248 84.6893 24.928C84.6893 24.608 84.7346 24.3147 84.8253 24.048C84.9213 23.7813 85.0546 23.552 85.2253 23.36C85.3959 23.1627 85.6039 23.0107 85.8493 22.904C86.0999 22.792 86.3773 22.736 86.6813 22.736C86.8679 22.736 87.0546 22.752 87.2413 22.784C87.4279 22.816 87.6066 22.8667 87.7773 22.936L87.6093 23.568C87.4973 23.5147 87.3666 23.472 87.2173 23.44C87.0733 23.408 86.9186 23.392 86.7533 23.392C86.3373 23.392 86.0173 23.5227 85.7933 23.784C85.5746 24.0453 85.4653 24.4267 85.4653 24.928C85.4653 25.152 85.4893 25.3573 85.5373 25.544C85.5906 25.7307 85.6706 25.8907 85.7773 26.024C85.8893 26.1573 86.0306 26.2613 86.2013 26.336C86.3719 26.4053 86.5799 26.44 86.8253 26.44C87.0226 26.44 87.2013 26.4213 87.3613 26.384C87.5213 26.3467 87.6466 26.3067 87.7373 26.264L87.8413 26.888C87.7986 26.9147 87.7373 26.9413 87.6573 26.968C87.5773 26.9893 87.4866 27.008 87.3853 27.024C87.2839 27.0453 87.1746 27.0613 87.0573 27.072C86.9453 27.088 86.8359 27.096 86.7293 27.096ZM92.136 22.84V27H91.416V23.832C91.256 24.0347 91.08 24.272 90.888 24.544C90.696 24.816 90.504 25.0987 90.312 25.392C90.12 25.68 89.936 25.9653 89.76 26.248C89.584 26.5307 89.432 26.7813 89.304 27H88.64V22.84H89.36V25.832C89.4987 25.6027 89.656 25.352 89.832 25.08C90.008 24.8027 90.1893 24.5307 90.376 24.264C90.568 23.992 90.7573 23.7333 90.944 23.488C91.136 23.2373 91.3147 23.0213 91.48 22.84H92.136ZM96.3494 22.84V23.464H94.9974V27H94.2534V23.464H92.9014V22.84H96.3494ZM96.8846 24.928C96.8846 24.56 96.9379 24.24 97.0446 23.968C97.1512 23.6907 97.2926 23.4613 97.4686 23.28C97.6446 23.0987 97.8472 22.9627 98.0766 22.872C98.3059 22.7813 98.5406 22.736 98.7806 22.736C99.3406 22.736 99.7699 22.912 100.069 23.264C100.367 23.6107 100.517 24.1413 100.517 24.856C100.517 24.888 100.517 24.9307 100.517 24.984C100.517 25.032 100.514 25.0773 100.509 25.12H97.6606C97.6926 25.552 97.8179 25.88 98.0366 26.104C98.2552 26.328 98.5966 26.44 99.0606 26.44C99.3219 26.44 99.5406 26.4187 99.7166 26.376C99.8979 26.328 100.034 26.2827 100.125 26.24L100.229 26.864C100.138 26.912 99.9779 26.9627 99.7486 27.016C99.5246 27.0693 99.2686 27.096 98.9806 27.096C98.6179 27.096 98.3032 27.0427 98.0366 26.936C97.7752 26.824 97.5592 26.672 97.3886 26.48C97.2179 26.288 97.0899 26.0613 97.0046 25.8C96.9246 25.5333 96.8846 25.2427 96.8846 24.928ZM99.7406 24.52C99.7459 24.184 99.6606 23.9093 99.4846 23.696C99.3139 23.4773 99.0766 23.368 98.7726 23.368C98.6019 23.368 98.4499 23.4027 98.3166 23.472C98.1886 23.536 98.0792 23.6213 97.9886 23.728C97.8979 23.8347 97.8259 23.9573 97.7726 24.096C97.7246 24.2347 97.6926 24.376 97.6766 24.52H99.7406ZM103.033 23.464C103.033 23.64 103.028 23.8293 103.017 24.032C103.012 24.2293 102.999 24.4293 102.977 24.632C102.956 24.8293 102.927 25.0267 102.889 25.224C102.852 25.416 102.804 25.5973 102.745 25.768C102.687 25.9387 102.612 26.0987 102.521 26.248C102.436 26.3973 102.329 26.5307 102.201 26.648C102.073 26.76 101.924 26.856 101.753 26.936C101.583 27.0107 101.383 27.0587 101.153 27.08L101.049 26.456C101.311 26.4027 101.516 26.304 101.665 26.16C101.82 26.016 101.943 25.84 102.033 25.632C102.113 25.4507 102.172 25.2453 102.209 25.016C102.247 24.7867 102.273 24.5493 102.289 24.304C102.305 24.0533 102.313 23.8027 102.313 23.552C102.319 23.3013 102.321 23.064 102.321 22.84H105.089V27H104.345V23.464H103.033ZM107.943 26.48C108.257 26.48 108.505 26.4187 108.687 26.296C108.868 26.1733 108.959 25.976 108.959 25.704C108.959 25.5707 108.932 25.456 108.879 25.36C108.825 25.264 108.751 25.1867 108.655 25.128C108.564 25.064 108.457 25.0187 108.335 24.992C108.212 24.96 108.081 24.944 107.943 24.944C107.799 24.944 107.649 24.9493 107.495 24.96C107.345 24.9653 107.217 24.9813 107.111 25.008V26.44C107.143 26.4453 107.191 26.4507 107.255 26.456C107.319 26.4613 107.388 26.4667 107.463 26.472C107.543 26.472 107.623 26.4747 107.703 26.48C107.788 26.48 107.868 26.48 107.943 26.48ZM106.367 26.912V22.84H107.111V24.432C107.153 24.4213 107.209 24.4107 107.279 24.4C107.353 24.3893 107.431 24.3787 107.511 24.368C107.596 24.3573 107.684 24.3493 107.775 24.344C107.865 24.3387 107.951 24.336 108.031 24.336C108.26 24.336 108.476 24.3627 108.679 24.416C108.881 24.464 109.057 24.544 109.207 24.656C109.361 24.7627 109.484 24.904 109.575 25.08C109.665 25.2507 109.711 25.456 109.711 25.696C109.711 25.9467 109.668 26.16 109.583 26.336C109.497 26.512 109.375 26.656 109.215 26.768C109.055 26.88 108.863 26.96 108.639 27.008C108.42 27.0613 108.175 27.088 107.903 27.088C107.636 27.088 107.375 27.072 107.119 27.04C106.863 27.0133 106.612 26.9707 106.367 26.912ZM111.933 26.392H112.381C112.557 26.136 112.695 25.872 112.797 25.6C112.903 25.328 112.983 25.048 113.037 24.76C113.09 24.4667 113.125 24.1627 113.141 23.848C113.157 23.528 113.167 23.192 113.173 22.84H115.901V26.392H116.461V28.16H115.757V27H112.637V28.16H111.933V26.392ZM115.157 26.392V23.464H113.853C113.847 23.7147 113.834 23.968 113.813 24.224C113.791 24.4747 113.757 24.7253 113.709 24.976C113.661 25.2213 113.591 25.464 113.501 25.704C113.415 25.9387 113.306 26.168 113.173 26.392H115.157ZM118.885 23.464C118.885 23.64 118.88 23.8293 118.869 24.032C118.864 24.2293 118.85 24.4293 118.829 24.632C118.808 24.8293 118.778 25.0267 118.741 25.224C118.704 25.416 118.656 25.5973 118.597 25.768C118.538 25.9387 118.464 26.0987 118.373 26.248C118.288 26.3973 118.181 26.5307 118.053 26.648C117.925 26.76 117.776 26.856 117.605 26.936C117.434 27.0107 117.234 27.0587 117.005 27.08L116.901 26.456C117.162 26.4027 117.368 26.304 117.517 26.16C117.672 26.016 117.794 25.84 117.885 25.632C117.965 25.4507 118.024 25.2453 118.061 25.016C118.098 24.7867 118.125 24.5493 118.141 24.304C118.157 24.0533 118.165 23.8027 118.165 23.552C118.17 23.3013 118.173 23.064 118.173 22.84H120.941V27H120.197V23.464H118.885ZM123.938 25.384C123.858 25.384 123.781 25.384 123.706 25.384C123.631 25.3787 123.559 25.3733 123.49 25.368C123.319 25.624 123.154 25.8987 122.994 26.192C122.839 26.48 122.701 26.7493 122.578 27H121.826C121.89 26.8453 121.965 26.688 122.05 26.528C122.135 26.3627 122.221 26.2027 122.306 26.048C122.397 25.8933 122.487 25.7467 122.578 25.608C122.669 25.4693 122.754 25.344 122.834 25.232C122.685 25.1787 122.562 25.1147 122.466 25.04C122.37 24.96 122.293 24.872 122.234 24.776C122.175 24.68 122.133 24.5787 122.106 24.472C122.085 24.36 122.074 24.248 122.074 24.136C122.074 23.9013 122.117 23.696 122.202 23.52C122.293 23.344 122.415 23.2 122.57 23.088C122.725 22.9707 122.906 22.8827 123.114 22.824C123.327 22.7653 123.559 22.736 123.81 22.736C124.162 22.736 124.461 22.752 124.706 22.784C124.951 22.816 125.157 22.8533 125.322 22.896V27H124.586V25.384H123.938ZM124.586 23.392C124.527 23.3813 124.429 23.3707 124.29 23.36C124.157 23.3493 124.002 23.344 123.826 23.344C123.522 23.344 123.277 23.408 123.09 23.536C122.903 23.6587 122.81 23.856 122.81 24.128C122.81 24.3947 122.906 24.5787 123.098 24.68C123.29 24.7813 123.538 24.832 123.842 24.832H124.586V23.392ZM131.341 24.928C131.341 24.4427 131.221 24.0693 130.981 23.808C130.741 23.5467 130.421 23.416 130.021 23.416C129.797 23.416 129.621 23.424 129.493 23.44C129.37 23.456 129.271 23.4747 129.197 23.496V26.12C129.287 26.1947 129.418 26.2667 129.589 26.336C129.759 26.4053 129.946 26.44 130.149 26.44C130.362 26.44 130.543 26.4027 130.693 26.328C130.847 26.248 130.973 26.1413 131.069 26.008C131.165 25.8693 131.234 25.7093 131.277 25.528C131.319 25.3413 131.341 25.1413 131.341 24.928ZM132.117 24.928C132.117 25.2427 132.074 25.5333 131.989 25.8C131.909 26.0667 131.789 26.296 131.629 26.488C131.469 26.68 131.271 26.8293 131.037 26.936C130.807 27.0427 130.543 27.096 130.245 27.096C130.005 27.096 129.791 27.064 129.605 27C129.423 26.936 129.287 26.8747 129.197 26.816V28.48H128.453V22.968C128.629 22.9253 128.847 22.88 129.109 22.832C129.375 22.7787 129.682 22.752 130.029 22.752C130.349 22.752 130.637 22.8027 130.893 22.904C131.149 23.0053 131.367 23.1493 131.549 23.336C131.73 23.5227 131.869 23.752 131.965 24.024C132.066 24.2907 132.117 24.592 132.117 24.928ZM134.571 26.464C134.747 26.464 134.902 26.4613 135.035 26.456C135.174 26.4453 135.289 26.4293 135.379 26.408V25.168C135.326 25.1413 135.238 25.12 135.115 25.104C134.998 25.0827 134.854 25.072 134.683 25.072C134.571 25.072 134.451 25.08 134.323 25.096C134.201 25.112 134.086 25.1467 133.979 25.2C133.878 25.248 133.793 25.3173 133.723 25.408C133.654 25.4933 133.619 25.608 133.619 25.752C133.619 26.0187 133.705 26.2053 133.875 26.312C134.046 26.4133 134.278 26.464 134.571 26.464ZM134.507 22.736C134.806 22.736 135.057 22.776 135.259 22.856C135.467 22.9307 135.633 23.04 135.755 23.184C135.883 23.3227 135.974 23.4907 136.027 23.688C136.081 23.88 136.107 24.0933 136.107 24.328V26.928C136.043 26.9387 135.953 26.9547 135.835 26.976C135.723 26.992 135.595 27.008 135.451 27.024C135.307 27.04 135.15 27.0533 134.979 27.064C134.814 27.08 134.649 27.088 134.483 27.088C134.249 27.088 134.033 27.064 133.835 27.016C133.638 26.968 133.467 26.8933 133.323 26.792C133.179 26.6853 133.067 26.5467 132.987 26.376C132.907 26.2053 132.867 26 132.867 25.76C132.867 25.5307 132.913 25.3333 133.003 25.168C133.099 25.0027 133.227 24.8693 133.387 24.768C133.547 24.6667 133.734 24.592 133.947 24.544C134.161 24.496 134.385 24.472 134.619 24.472C134.694 24.472 134.771 24.4773 134.851 24.488C134.931 24.4933 135.006 24.504 135.075 24.52C135.15 24.5307 135.214 24.5413 135.267 24.552C135.321 24.5627 135.358 24.5707 135.379 24.576V24.368C135.379 24.2453 135.366 24.1253 135.339 24.008C135.313 23.8853 135.265 23.7787 135.195 23.688C135.126 23.592 135.03 23.5173 134.907 23.464C134.79 23.4053 134.635 23.376 134.443 23.376C134.198 23.376 133.982 23.3947 133.795 23.432C133.614 23.464 133.478 23.4987 133.387 23.536L133.299 22.92C133.395 22.8773 133.555 22.8373 133.779 22.8C134.003 22.7573 134.246 22.736 134.507 22.736ZM138.863 24.736C139.028 24.8533 139.207 25.0027 139.399 25.184C139.591 25.36 139.778 25.552 139.959 25.76C140.146 25.968 140.319 26.1813 140.479 26.4C140.639 26.6133 140.775 26.8133 140.887 27H140.007C139.89 26.8187 139.751 26.6347 139.591 26.448C139.436 26.256 139.274 26.072 139.103 25.896C138.932 25.72 138.759 25.5573 138.583 25.408C138.407 25.2587 138.242 25.1333 138.087 25.032V27H137.343V22.84H138.087V24.624C138.215 24.5013 138.362 24.36 138.527 24.2C138.692 24.0347 138.858 23.8693 139.023 23.704C139.194 23.5333 139.351 23.3733 139.495 23.224C139.639 23.0693 139.756 22.9413 139.847 22.84H140.711C140.594 22.968 140.455 23.1147 140.295 23.28C140.14 23.44 139.978 23.6053 139.807 23.776C139.642 23.9467 139.476 24.1173 139.311 24.288C139.146 24.4533 138.996 24.6027 138.863 24.736ZM145.078 24.92C145.078 25.2507 145.03 25.5493 144.934 25.816C144.838 26.0827 144.702 26.312 144.526 26.504C144.355 26.696 144.15 26.8453 143.91 26.952C143.67 27.0533 143.408 27.104 143.126 27.104C142.843 27.104 142.582 27.0533 142.342 26.952C142.102 26.8453 141.894 26.696 141.718 26.504C141.547 26.312 141.414 26.0827 141.318 25.816C141.222 25.5493 141.174 25.2507 141.174 24.92C141.174 24.5947 141.222 24.2987 141.318 24.032C141.414 23.76 141.547 23.528 141.718 23.336C141.894 23.144 142.102 22.9973 142.342 22.896C142.582 22.7893 142.843 22.736 143.126 22.736C143.408 22.736 143.67 22.7893 143.91 22.896C144.15 22.9973 144.355 23.144 144.526 23.336C144.702 23.528 144.838 23.76 144.934 24.032C145.03 24.2987 145.078 24.5947 145.078 24.92ZM144.302 24.92C144.302 24.4507 144.195 24.08 143.982 23.808C143.774 23.5307 143.488 23.392 143.126 23.392C142.763 23.392 142.475 23.5307 142.262 23.808C142.054 24.08 141.95 24.4507 141.95 24.92C141.95 25.3893 142.054 25.7627 142.262 26.04C142.475 26.312 142.763 26.448 143.126 26.448C143.488 26.448 143.774 26.312 143.982 26.04C144.195 25.7627 144.302 25.3893 144.302 24.92ZM146.852 26.44C146.884 26.4453 146.93 26.4507 146.988 26.456C147.047 26.4613 147.114 26.4667 147.188 26.472C147.263 26.472 147.34 26.4747 147.42 26.48C147.506 26.48 147.586 26.48 147.66 26.48C147.815 26.48 147.962 26.4693 148.1 26.448C148.244 26.4267 148.367 26.3893 148.468 26.336C148.575 26.2827 148.658 26.2133 148.716 26.128C148.78 26.0373 148.812 25.9227 148.812 25.784C148.812 25.6507 148.783 25.5413 148.724 25.456C148.671 25.3653 148.596 25.2933 148.5 25.24C148.404 25.1867 148.29 25.1493 148.156 25.128C148.028 25.1067 147.89 25.096 147.74 25.096H146.852V26.44ZM147.644 24.544C147.788 24.544 147.919 24.536 148.036 24.52C148.159 24.4987 148.263 24.464 148.348 24.416C148.439 24.368 148.508 24.304 148.556 24.224C148.61 24.144 148.636 24.0427 148.636 23.92C148.636 23.792 148.604 23.6907 148.54 23.616C148.476 23.5413 148.391 23.4853 148.284 23.448C148.183 23.4053 148.066 23.3787 147.932 23.368C147.804 23.352 147.674 23.344 147.54 23.344C147.418 23.344 147.292 23.3467 147.164 23.352C147.042 23.3573 146.938 23.3627 146.852 23.368V24.544H147.644ZM147.628 27.072C147.314 27.072 147.023 27.056 146.756 27.024C146.49 26.9973 146.279 26.9653 146.124 26.928V22.88C146.279 22.8427 146.49 22.8107 146.756 22.784C147.023 22.752 147.314 22.736 147.628 22.736C147.847 22.736 148.06 22.7547 148.268 22.792C148.476 22.8293 148.66 22.8933 148.82 22.984C148.98 23.0693 149.108 23.1893 149.204 23.344C149.306 23.4933 149.356 23.68 149.356 23.904C149.356 24.1067 149.306 24.28 149.204 24.424C149.103 24.568 148.967 24.68 148.796 24.76C149.026 24.84 149.207 24.96 149.34 25.12C149.479 25.2747 149.548 25.4933 149.548 25.776C149.548 26.0267 149.498 26.2347 149.396 26.4C149.3 26.5653 149.164 26.6987 148.988 26.8C148.818 26.9013 148.615 26.9707 148.38 27.008C148.146 27.0507 147.895 27.072 147.628 27.072ZM154.003 22.84V27H153.283V23.832C153.123 24.0347 152.947 24.272 152.755 24.544C152.563 24.816 152.371 25.0987 152.179 25.392C151.987 25.68 151.803 25.9653 151.627 26.248C151.451 26.5307 151.299 26.7813 151.171 27H150.507V22.84H151.227V25.832C151.366 25.6027 151.523 25.352 151.699 25.08C151.875 24.8027 152.057 24.5307 152.243 24.264C152.435 23.992 152.625 23.7333 152.811 23.488C153.003 23.2373 153.182 23.0213 153.347 22.84H154.003ZM158.689 27H157.945V25.16H156.025V27H155.281V22.84H156.025V24.536H157.945V22.84H158.689V27ZM161.496 24.944C161.352 24.944 161.211 24.9493 161.072 24.96C160.939 24.9653 160.819 24.9813 160.712 25.008V26.44C160.744 26.4453 160.789 26.4507 160.848 26.456C160.912 26.4613 160.979 26.4667 161.048 26.472C161.123 26.472 161.197 26.4747 161.272 26.48C161.347 26.48 161.413 26.48 161.472 26.48C161.797 26.48 162.048 26.4187 162.224 26.296C162.4 26.1733 162.488 25.976 162.488 25.704C162.488 25.5707 162.459 25.456 162.4 25.36C162.347 25.264 162.272 25.1867 162.176 25.128C162.085 25.064 161.981 25.0187 161.864 24.992C161.747 24.96 161.624 24.944 161.496 24.944ZM159.968 22.84H160.712V24.432C160.803 24.4107 160.933 24.3893 161.104 24.368C161.28 24.3467 161.448 24.336 161.608 24.336C161.827 24.336 162.035 24.3627 162.232 24.416C162.429 24.464 162.603 24.544 162.752 24.656C162.901 24.7627 163.019 24.904 163.104 25.08C163.195 25.2507 163.24 25.456 163.24 25.696C163.24 25.9467 163.197 26.16 163.112 26.336C163.027 26.512 162.907 26.656 162.752 26.768C162.597 26.88 162.411 26.96 162.192 27.008C161.973 27.0613 161.733 27.088 161.472 27.088C161.221 27.088 160.968 27.072 160.712 27.04C160.456 27.0133 160.208 26.9707 159.968 26.912V22.84ZM164.752 27H164.008V22.84H164.752V27ZM171.378 22.84V27H170.658V23.832C170.498 24.0347 170.322 24.272 170.13 24.544C169.938 24.816 169.746 25.0987 169.554 25.392C169.362 25.68 169.178 25.9653 169.002 26.248C168.826 26.5307 168.674 26.7813 168.546 27H167.882V22.84H168.602V25.832C168.741 25.6027 168.898 25.352 169.074 25.08C169.25 24.8027 169.432 24.5307 169.618 24.264C169.81 23.992 170 23.7333 170.186 23.488C170.378 23.2373 170.557 23.0213 170.722 22.84H171.378ZM69.152 36.776C69.2107 36.8027 69.2853 36.8267 69.376 36.848C69.472 36.8747 69.5653 36.888 69.656 36.888C69.9493 36.888 70.1787 36.8213 70.344 36.688C70.5093 36.56 70.6587 36.3493 70.792 36.056C70.456 35.416 70.1413 34.7387 69.848 34.024C69.56 33.304 69.32 32.576 69.128 31.84H69.928C69.9867 32.08 70.056 32.3387 70.136 32.616C70.2213 32.8933 70.3147 33.1787 70.416 33.472C70.5173 33.7653 70.6267 34.0587 70.744 34.352C70.8613 34.6453 70.984 34.928 71.112 35.2C71.3147 34.64 71.4907 34.0853 71.64 33.536C71.7893 32.9867 71.9307 32.4213 72.064 31.84H72.832C72.64 32.624 72.4267 33.3787 72.192 34.104C71.9573 34.824 71.704 35.4987 71.432 36.128C71.3253 36.368 71.2133 36.5733 71.096 36.744C70.984 36.92 70.8587 37.064 70.72 37.176C70.5813 37.288 70.424 37.3707 70.248 37.424C70.0773 37.4773 69.8827 37.504 69.664 37.504C69.6053 37.504 69.544 37.4987 69.48 37.488C69.416 37.4827 69.352 37.472 69.288 37.456C69.2293 37.4453 69.1733 37.432 69.12 37.416C69.072 37.4 69.0373 37.3867 69.016 37.376L69.152 36.776ZM74.4086 32.936C74.3552 33.464 74.3152 33.992 74.2886 34.52C74.2619 35.0427 74.2406 35.536 74.2246 36H73.5126C73.5232 35.6747 73.5392 35.336 73.5606 34.984C73.5819 34.6267 73.6059 34.2693 73.6326 33.912C73.6592 33.5493 73.6886 33.1947 73.7206 32.848C73.7526 32.496 73.7872 32.16 73.8246 31.84H74.5046C74.6752 32.1173 74.8752 32.4987 75.1046 32.984C75.3339 33.464 75.5979 34.0187 75.8966 34.648C76.1952 34.0187 76.4592 33.464 76.6886 32.984C76.9179 32.4987 77.1179 32.1173 77.2886 31.84H77.9766C78.0139 32.16 78.0486 32.496 78.0806 32.848C78.1126 33.1947 78.1419 33.5493 78.1686 33.912C78.1952 34.2693 78.2192 34.6267 78.2406 34.984C78.2619 35.336 78.2779 35.6747 78.2886 36H77.5526C77.5366 35.536 77.5152 35.0427 77.4886 34.52C77.4619 33.992 77.4219 33.464 77.3686 32.936C77.2832 33.1013 77.1846 33.3013 77.0726 33.536C76.9606 33.7653 76.8486 34 76.7366 34.24C76.6299 34.48 76.5286 34.7093 76.4326 34.928C76.3366 35.1467 76.2619 35.32 76.2086 35.448H75.5846C75.5259 35.3147 75.4459 35.1387 75.3446 34.92C75.2486 34.7013 75.1446 34.472 75.0326 34.232C74.9259 33.9867 74.8166 33.7493 74.7046 33.52C74.5926 33.2853 74.4939 33.0907 74.4086 32.936ZM80.9961 33.944C80.8521 33.944 80.7108 33.9493 80.5721 33.96C80.4388 33.9653 80.3188 33.9813 80.2121 34.008V35.44C80.2441 35.4453 80.2895 35.4507 80.3481 35.456C80.4121 35.4613 80.4788 35.4667 80.5481 35.472C80.6228 35.472 80.6975 35.4747 80.7721 35.48C80.8468 35.48 80.9135 35.48 80.9721 35.48C81.2975 35.48 81.5481 35.4187 81.7241 35.296C81.9001 35.1733 81.9881 34.976 81.9881 34.704C81.9881 34.5707 81.9588 34.456 81.9001 34.36C81.8468 34.264 81.7721 34.1867 81.6761 34.128C81.5855 34.064 81.4815 34.0187 81.3641 33.992C81.2468 33.96 81.1241 33.944 80.9961 33.944ZM79.4681 31.84H80.2121V33.432C80.3028 33.4107 80.4335 33.3893 80.6041 33.368C80.7801 33.3467 80.9481 33.336 81.1081 33.336C81.3268 33.336 81.5348 33.3627 81.7321 33.416C81.9295 33.464 82.1028 33.544 82.2521 33.656C82.4015 33.7627 82.5188 33.904 82.6041 34.08C82.6948 34.2507 82.7401 34.456 82.7401 34.696C82.7401 34.9467 82.6975 35.16 82.6121 35.336C82.5268 35.512 82.4068 35.656 82.2521 35.768C82.0975 35.88 81.9108 35.96 81.6921 36.008C81.4735 36.0613 81.2335 36.088 80.9721 36.088C80.7215 36.088 80.4681 36.072 80.2121 36.04C79.9561 36.0133 79.7081 35.9707 79.4681 35.912V31.84ZM84.2521 36H83.5081V31.84H84.2521V36ZM86.2586 35.44C86.2906 35.4453 86.336 35.4507 86.3946 35.456C86.4533 35.4613 86.52 35.4667 86.5946 35.472C86.6693 35.472 86.7466 35.4747 86.8266 35.48C86.912 35.48 86.992 35.48 87.0666 35.48C87.2213 35.48 87.368 35.4693 87.5066 35.448C87.6506 35.4267 87.7733 35.3893 87.8746 35.336C87.9813 35.2827 88.064 35.2133 88.1226 35.128C88.1866 35.0373 88.2186 34.9227 88.2186 34.784C88.2186 34.6507 88.1893 34.5413 88.1306 34.456C88.0773 34.3653 88.0026 34.2933 87.9066 34.24C87.8106 34.1867 87.696 34.1493 87.5626 34.128C87.4346 34.1067 87.296 34.096 87.1466 34.096H86.2586V35.44ZM87.0506 33.544C87.1946 33.544 87.3253 33.536 87.4426 33.52C87.5653 33.4987 87.6693 33.464 87.7546 33.416C87.8453 33.368 87.9146 33.304 87.9626 33.224C88.016 33.144 88.0426 33.0427 88.0426 32.92C88.0426 32.792 88.0106 32.6907 87.9466 32.616C87.8826 32.5413 87.7973 32.4853 87.6906 32.448C87.5893 32.4053 87.472 32.3787 87.3386 32.368C87.2106 32.352 87.08 32.344 86.9466 32.344C86.824 32.344 86.6986 32.3467 86.5706 32.352C86.448 32.3573 86.344 32.3627 86.2586 32.368V33.544H87.0506ZM87.0346 36.072C86.72 36.072 86.4293 36.056 86.1626 36.024C85.896 35.9973 85.6853 35.9653 85.5306 35.928V31.88C85.6853 31.8427 85.896 31.8107 86.1626 31.784C86.4293 31.752 86.72 31.736 87.0346 31.736C87.2533 31.736 87.4666 31.7547 87.6746 31.792C87.8826 31.8293 88.0666 31.8933 88.2266 31.984C88.3866 32.0693 88.5146 32.1893 88.6106 32.344C88.712 32.4933 88.7626 32.68 88.7626 32.904C88.7626 33.1067 88.712 33.28 88.6106 33.424C88.5093 33.568 88.3733 33.68 88.2026 33.76C88.432 33.84 88.6133 33.96 88.7466 34.12C88.8853 34.2747 88.9546 34.4933 88.9546 34.776C88.9546 35.0267 88.904 35.2347 88.8026 35.4C88.7066 35.5653 88.5706 35.6987 88.3946 35.8C88.224 35.9013 88.0213 35.9707 87.7866 36.008C87.552 36.0507 87.3013 36.072 87.0346 36.072ZM91.3214 35.464C91.4974 35.464 91.6521 35.4613 91.7854 35.456C91.9241 35.4453 92.0388 35.4293 92.1294 35.408V34.168C92.0761 34.1413 91.9881 34.12 91.8654 34.104C91.7481 34.0827 91.6041 34.072 91.4334 34.072C91.3214 34.072 91.2014 34.08 91.0734 34.096C90.9508 34.112 90.8361 34.1467 90.7294 34.2C90.6281 34.248 90.5428 34.3173 90.4734 34.408C90.4041 34.4933 90.3694 34.608 90.3694 34.752C90.3694 35.0187 90.4548 35.2053 90.6254 35.312C90.7961 35.4133 91.0281 35.464 91.3214 35.464ZM91.2574 31.736C91.5561 31.736 91.8068 31.776 92.0094 31.856C92.2174 31.9307 92.3828 32.04 92.5054 32.184C92.6334 32.3227 92.7241 32.4907 92.7774 32.688C92.8308 32.88 92.8574 33.0933 92.8574 33.328V35.928C92.7934 35.9387 92.7028 35.9547 92.5854 35.976C92.4734 35.992 92.3454 36.008 92.2014 36.024C92.0574 36.04 91.9001 36.0533 91.7294 36.064C91.5641 36.08 91.3988 36.088 91.2334 36.088C90.9988 36.088 90.7828 36.064 90.5854 36.016C90.3881 35.968 90.2174 35.8933 90.0734 35.792C89.9294 35.6853 89.8174 35.5467 89.7374 35.376C89.6574 35.2053 89.6174 35 89.6174 34.76C89.6174 34.5307 89.6628 34.3333 89.7534 34.168C89.8494 34.0027 89.9774 33.8693 90.1374 33.768C90.2974 33.6667 90.4841 33.592 90.6974 33.544C90.9108 33.496 91.1348 33.472 91.3694 33.472C91.4441 33.472 91.5214 33.4773 91.6014 33.488C91.6814 33.4933 91.7561 33.504 91.8254 33.52C91.9001 33.5307 91.9641 33.5413 92.0174 33.552C92.0708 33.5627 92.1081 33.5707 92.1294 33.576V33.368C92.1294 33.2453 92.1161 33.1253 92.0894 33.008C92.0628 32.8853 92.0148 32.7787 91.9454 32.688C91.8761 32.592 91.7801 32.5173 91.6574 32.464C91.5401 32.4053 91.3854 32.376 91.1934 32.376C90.9481 32.376 90.7321 32.3947 90.5454 32.432C90.3641 32.464 90.2281 32.4987 90.1374 32.536L90.0494 31.92C90.1454 31.8773 90.3054 31.8373 90.5294 31.8C90.7534 31.7573 90.9961 31.736 91.2574 31.736ZM95.5411 32.464C95.5411 32.64 95.5358 32.8293 95.5251 33.032C95.5198 33.2293 95.5065 33.4293 95.4851 33.632C95.4638 33.8293 95.4345 34.0267 95.3971 34.224C95.3598 34.416 95.3118 34.5973 95.2531 34.768C95.1945 34.9387 95.1198 35.0987 95.0291 35.248C94.9438 35.3973 94.8371 35.5307 94.7091 35.648C94.5811 35.76 94.4318 35.856 94.2611 35.936C94.0905 36.0107 93.8905 36.0587 93.6611 36.08L93.5571 35.456C93.8185 35.4027 94.0238 35.304 94.1731 35.16C94.3278 35.016 94.4505 34.84 94.5411 34.632C94.6211 34.4507 94.6798 34.2453 94.7171 34.016C94.7545 33.7867 94.7811 33.5493 94.7971 33.304C94.8131 33.0533 94.8211 32.8027 94.8211 32.552C94.8265 32.3013 94.8291 32.064 94.8291 31.84H97.5971V36H96.8531V32.464H95.5411ZM100.45 35.48C100.765 35.48 101.013 35.4187 101.194 35.296C101.376 35.1733 101.466 34.976 101.466 34.704C101.466 34.5707 101.44 34.456 101.386 34.36C101.333 34.264 101.258 34.1867 101.162 34.128C101.072 34.064 100.965 34.0187 100.842 33.992C100.72 33.96 100.589 33.944 100.45 33.944C100.306 33.944 100.157 33.9493 100.002 33.96C99.853 33.9653 99.725 33.9813 99.6184 34.008V35.44C99.6504 35.4453 99.6984 35.4507 99.7624 35.456C99.8264 35.4613 99.8957 35.4667 99.9704 35.472C100.05 35.472 100.13 35.4747 100.21 35.48C100.296 35.48 100.376 35.48 100.45 35.48ZM98.8744 35.912V31.84H99.6184V33.432C99.661 33.4213 99.717 33.4107 99.7864 33.4C99.861 33.3893 99.9384 33.3787 100.018 33.368C100.104 33.3573 100.192 33.3493 100.282 33.344C100.373 33.3387 100.458 33.336 100.538 33.336C100.768 33.336 100.984 33.3627 101.186 33.416C101.389 33.464 101.565 33.544 101.714 33.656C101.869 33.7627 101.992 33.904 102.082 34.08C102.173 34.2507 102.218 34.456 102.218 34.696C102.218 34.9467 102.176 35.16 102.09 35.336C102.005 35.512 101.882 35.656 101.722 35.768C101.562 35.88 101.37 35.96 101.146 36.008C100.928 36.0613 100.682 36.088 100.41 36.088C100.144 36.088 99.8824 36.072 99.6264 36.04C99.3704 36.0133 99.1197 35.9707 98.8744 35.912ZM106.509 36H105.765V34.16H103.845V36H103.101V31.84H103.845V33.536H105.765V31.84H106.509V36ZM111.284 31.84V36H110.564V32.832C110.404 33.0347 110.228 33.272 110.036 33.544C109.844 33.816 109.652 34.0987 109.46 34.392C109.268 34.68 109.084 34.9653 108.908 35.248C108.732 35.5307 108.58 35.7813 108.452 36H107.788V31.84H108.508V34.832C108.647 34.6027 108.804 34.352 108.98 34.08C109.156 33.8027 109.338 33.5307 109.524 33.264C109.716 32.992 109.906 32.7333 110.092 32.488C110.284 32.2373 110.463 32.0213 110.628 31.84H111.284ZM114.082 33.736C114.247 33.8533 114.426 34.0027 114.618 34.184C114.81 34.36 114.997 34.552 115.178 34.76C115.365 34.968 115.538 35.1813 115.698 35.4C115.858 35.6133 115.994 35.8133 116.106 36H115.226C115.109 35.8187 114.97 35.6347 114.81 35.448C114.655 35.256 114.493 35.072 114.322 34.896C114.151 34.72 113.978 34.5573 113.802 34.408C113.626 34.2587 113.461 34.1333 113.306 34.032V36H112.562V31.84H113.306V33.624C113.434 33.5013 113.581 33.36 113.746 33.2C113.911 33.0347 114.077 32.8693 114.242 32.704C114.413 32.5333 114.57 32.3733 114.714 32.224C114.858 32.0693 114.975 31.9413 115.066 31.84H115.93C115.813 31.968 115.674 32.1147 115.514 32.28C115.359 32.44 115.197 32.6053 115.026 32.776C114.861 32.9467 114.695 33.1173 114.53 33.288C114.365 33.4533 114.215 33.6027 114.082 33.736ZM118.267 35.464C118.443 35.464 118.597 35.4613 118.731 35.456C118.869 35.4453 118.984 35.4293 119.075 35.408V34.168C119.021 34.1413 118.933 34.12 118.811 34.104C118.693 34.0827 118.549 34.072 118.379 34.072C118.267 34.072 118.147 34.08 118.019 34.096C117.896 34.112 117.781 34.1467 117.675 34.2C117.573 34.248 117.488 34.3173 117.419 34.408C117.349 34.4933 117.315 34.608 117.315 34.752C117.315 35.0187 117.4 35.2053 117.571 35.312C117.741 35.4133 117.973 35.464 118.267 35.464ZM118.203 31.736C118.501 31.736 118.752 31.776 118.955 31.856C119.163 31.9307 119.328 32.04 119.451 32.184C119.579 32.3227 119.669 32.4907 119.723 32.688C119.776 32.88 119.803 33.0933 119.803 33.328V35.928C119.739 35.9387 119.648 35.9547 119.531 35.976C119.419 35.992 119.291 36.008 119.147 36.024C119.003 36.04 118.845 36.0533 118.675 36.064C118.509 36.08 118.344 36.088 118.179 36.088C117.944 36.088 117.728 36.064 117.531 36.016C117.333 35.968 117.163 35.8933 117.019 35.792C116.875 35.6853 116.763 35.5467 116.683 35.376C116.603 35.2053 116.563 35 116.563 34.76C116.563 34.5307 116.608 34.3333 116.699 34.168C116.795 34.0027 116.923 33.8693 117.083 33.768C117.243 33.6667 117.429 33.592 117.643 33.544C117.856 33.496 118.08 33.472 118.315 33.472C118.389 33.472 118.467 33.4773 118.547 33.488C118.627 33.4933 118.701 33.504 118.771 33.52C118.845 33.5307 118.909 33.5413 118.963 33.552C119.016 33.5627 119.053 33.5707 119.075 33.576V33.368C119.075 33.2453 119.061 33.1253 119.035 33.008C119.008 32.8853 118.96 32.7787 118.891 32.688C118.821 32.592 118.725 32.5173 118.603 32.464C118.485 32.4053 118.331 32.376 118.139 32.376C117.893 32.376 117.677 32.3947 117.491 32.432C117.309 32.464 117.173 32.4987 117.083 32.536L116.995 31.92C117.091 31.8773 117.251 31.8373 117.475 31.8C117.699 31.7573 117.941 31.736 118.203 31.736ZM122.378 35.392H122.826C123.002 35.136 123.141 34.872 123.242 34.6C123.349 34.328 123.429 34.048 123.482 33.76C123.535 33.4667 123.57 33.1627 123.586 32.848C123.602 32.528 123.613 32.192 123.618 31.84H126.346V35.392H126.906V37.16H126.202V36H123.082V37.16H122.378V35.392ZM125.602 35.392V32.464H124.298C124.293 32.7147 124.279 32.968 124.258 33.224C124.237 33.4747 124.202 33.7253 124.154 33.976C124.106 34.2213 124.037 34.464 123.946 34.704C123.861 34.9387 123.751 35.168 123.618 35.392H125.602ZM128.438 35.44C128.47 35.4453 128.516 35.4507 128.574 35.456C128.633 35.4613 128.7 35.4667 128.774 35.472C128.849 35.472 128.926 35.4747 129.006 35.48C129.092 35.48 129.172 35.48 129.246 35.48C129.401 35.48 129.548 35.4693 129.686 35.448C129.83 35.4267 129.953 35.3893 130.054 35.336C130.161 35.2827 130.244 35.2133 130.302 35.128C130.366 35.0373 130.398 34.9227 130.398 34.784C130.398 34.6507 130.369 34.5413 130.31 34.456C130.257 34.3653 130.182 34.2933 130.086 34.24C129.99 34.1867 129.876 34.1493 129.742 34.128C129.614 34.1067 129.476 34.096 129.326 34.096H128.438V35.44ZM129.23 33.544C129.374 33.544 129.505 33.536 129.622 33.52C129.745 33.4987 129.849 33.464 129.934 33.416C130.025 33.368 130.094 33.304 130.142 33.224C130.196 33.144 130.222 33.0427 130.222 32.92C130.222 32.792 130.19 32.6907 130.126 32.616C130.062 32.5413 129.977 32.4853 129.87 32.448C129.769 32.4053 129.652 32.3787 129.518 32.368C129.39 32.352 129.26 32.344 129.126 32.344C129.004 32.344 128.878 32.3467 128.75 32.352C128.628 32.3573 128.524 32.3627 128.438 32.368V33.544H129.23ZM129.214 36.072C128.9 36.072 128.609 36.056 128.342 36.024C128.076 35.9973 127.865 35.9653 127.71 35.928V31.88C127.865 31.8427 128.076 31.8107 128.342 31.784C128.609 31.752 128.9 31.736 129.214 31.736C129.433 31.736 129.646 31.7547 129.854 31.792C130.062 31.8293 130.246 31.8933 130.406 31.984C130.566 32.0693 130.694 32.1893 130.79 32.344C130.892 32.4933 130.942 32.68 130.942 32.904C130.942 33.1067 130.892 33.28 130.79 33.424C130.689 33.568 130.553 33.68 130.382 33.76C130.612 33.84 130.793 33.96 130.926 34.12C131.065 34.2747 131.134 34.4933 131.134 34.776C131.134 35.0267 131.084 35.2347 130.982 35.4C130.886 35.5653 130.75 35.6987 130.574 35.8C130.404 35.9013 130.201 35.9707 129.966 36.008C129.732 36.0507 129.481 36.072 129.214 36.072ZM131.605 36.776C131.664 36.8027 131.738 36.8267 131.829 36.848C131.925 36.8747 132.018 36.888 132.109 36.888C132.402 36.888 132.632 36.8213 132.797 36.688C132.962 36.56 133.112 36.3493 133.245 36.056C132.909 35.416 132.594 34.7387 132.301 34.024C132.013 33.304 131.773 32.576 131.581 31.84H132.381C132.44 32.08 132.509 32.3387 132.589 32.616C132.674 32.8933 132.768 33.1787 132.869 33.472C132.97 33.7653 133.08 34.0587 133.197 34.352C133.314 34.6453 133.437 34.928 133.565 35.2C133.768 34.64 133.944 34.0853 134.093 33.536C134.242 32.9867 134.384 32.4213 134.517 31.84H135.285C135.093 32.624 134.88 33.3787 134.645 34.104C134.41 34.824 134.157 35.4987 133.885 36.128C133.778 36.368 133.666 36.5733 133.549 36.744C133.437 36.92 133.312 37.064 133.173 37.176C133.034 37.288 132.877 37.3707 132.701 37.424C132.53 37.4773 132.336 37.504 132.117 37.504C132.058 37.504 131.997 37.4987 131.933 37.488C131.869 37.4827 131.805 37.472 131.741 37.456C131.682 37.4453 131.626 37.432 131.573 37.416C131.525 37.4 131.49 37.3867 131.469 37.376L131.605 36.776ZM138.659 36C138.601 35.8827 138.529 35.752 138.443 35.608C138.358 35.464 138.265 35.3173 138.163 35.168C138.062 35.0133 137.958 34.8613 137.851 34.712C137.745 34.5627 137.641 34.4213 137.539 34.288C137.438 34.4213 137.334 34.5653 137.227 34.72C137.121 34.8693 137.017 35.0213 136.915 35.176C136.819 35.3253 136.729 35.472 136.643 35.616C136.558 35.76 136.486 35.888 136.427 36H135.659C135.846 35.6373 136.067 35.2693 136.323 34.896C136.585 34.5173 136.843 34.1573 137.099 33.816L135.723 31.84H136.563L137.555 33.296L138.555 31.84H139.347L138.003 33.768C138.259 34.1147 138.521 34.4827 138.787 34.872C139.059 35.256 139.289 35.632 139.475 36H138.659ZM143.145 33.928C143.145 33.4427 143.025 33.0693 142.785 32.808C142.545 32.5467 142.225 32.416 141.825 32.416C141.601 32.416 141.425 32.424 141.297 32.44C141.175 32.456 141.076 32.4747 141.001 32.496V35.12C141.092 35.1947 141.223 35.2667 141.393 35.336C141.564 35.4053 141.751 35.44 141.953 35.44C142.167 35.44 142.348 35.4027 142.497 35.328C142.652 35.248 142.777 35.1413 142.873 35.008C142.969 34.8693 143.039 34.7093 143.081 34.528C143.124 34.3413 143.145 34.1413 143.145 33.928ZM143.921 33.928C143.921 34.2427 143.879 34.5333 143.793 34.8C143.713 35.0667 143.593 35.296 143.433 35.488C143.273 35.68 143.076 35.8293 142.841 35.936C142.612 36.0427 142.348 36.096 142.049 36.096C141.809 36.096 141.596 36.064 141.409 36C141.228 35.936 141.092 35.8747 141.001 35.816V37.48H140.257V31.968C140.433 31.9253 140.652 31.88 140.913 31.832C141.18 31.7787 141.487 31.752 141.833 31.752C142.153 31.752 142.441 31.8027 142.697 31.904C142.953 32.0053 143.172 32.1493 143.353 32.336C143.535 32.5227 143.673 32.752 143.769 33.024C143.871 33.2907 143.921 33.592 143.921 33.928ZM144.371 36.776C144.429 36.8027 144.504 36.8267 144.595 36.848C144.691 36.8747 144.784 36.888 144.875 36.888C145.168 36.888 145.397 36.8213 145.563 36.688C145.728 36.56 145.877 36.3493 146.011 36.056C145.675 35.416 145.36 34.7387 145.067 34.024C144.779 33.304 144.539 32.576 144.347 31.84H145.147C145.205 32.08 145.275 32.3387 145.355 32.616C145.44 32.8933 145.533 33.1787 145.635 33.472C145.736 33.7653 145.845 34.0587 145.963 34.352C146.08 34.6453 146.203 34.928 146.331 35.2C146.533 34.64 146.709 34.0853 146.859 33.536C147.008 32.9867 147.149 32.4213 147.283 31.84H148.051C147.859 32.624 147.645 33.3787 147.411 34.104C147.176 34.824 146.923 35.4987 146.651 36.128C146.544 36.368 146.432 36.5733 146.315 36.744C146.203 36.92 146.077 37.064 145.939 37.176C145.8 37.288 145.643 37.3707 145.467 37.424C145.296 37.4773 145.101 37.504 144.883 37.504C144.824 37.504 144.763 37.4987 144.699 37.488C144.635 37.4827 144.571 37.472 144.507 37.456C144.448 37.4453 144.392 37.432 144.339 37.416C144.291 37.4 144.256 37.3867 144.235 37.376L144.371 36.776ZM150.355 33.736C150.521 33.8533 150.699 34.0027 150.891 34.184C151.083 34.36 151.27 34.552 151.451 34.76C151.638 34.968 151.811 35.1813 151.971 35.4C152.131 35.6133 152.267 35.8133 152.379 36H151.499C151.382 35.8187 151.243 35.6347 151.083 35.448C150.929 35.256 150.766 35.072 150.595 34.896C150.425 34.72 150.251 34.5573 150.075 34.408C149.899 34.2587 149.734 34.1333 149.579 34.032V36H148.835V31.84H149.579V33.624C149.707 33.5013 149.854 33.36 150.019 33.2C150.185 33.0347 150.35 32.8693 150.515 32.704C150.686 32.5333 150.843 32.3733 150.987 32.224C151.131 32.0693 151.249 31.9413 151.339 31.84H152.203C152.086 31.968 151.947 32.1147 151.787 32.28C151.633 32.44 151.47 32.6053 151.299 32.776C151.134 32.9467 150.969 33.1173 150.803 33.288C150.638 33.4533 150.489 33.6027 150.355 33.736ZM156.57 33.92C156.57 34.2507 156.522 34.5493 156.426 34.816C156.33 35.0827 156.194 35.312 156.018 35.504C155.847 35.696 155.642 35.8453 155.402 35.952C155.162 36.0533 154.9 36.104 154.618 36.104C154.335 36.104 154.074 36.0533 153.834 35.952C153.594 35.8453 153.386 35.696 153.21 35.504C153.039 35.312 152.906 35.0827 152.81 34.816C152.714 34.5493 152.666 34.2507 152.666 33.92C152.666 33.5947 152.714 33.2987 152.81 33.032C152.906 32.76 153.039 32.528 153.21 32.336C153.386 32.144 153.594 31.9973 153.834 31.896C154.074 31.7893 154.335 31.736 154.618 31.736C154.9 31.736 155.162 31.7893 155.402 31.896C155.642 31.9973 155.847 32.144 156.018 32.336C156.194 32.528 156.33 32.76 156.426 33.032C156.522 33.2987 156.57 33.5947 156.57 33.92ZM155.794 33.92C155.794 33.4507 155.687 33.08 155.474 32.808C155.266 32.5307 154.98 32.392 154.618 32.392C154.255 32.392 153.967 32.5307 153.754 32.808C153.546 33.08 153.442 33.4507 153.442 33.92C153.442 34.3893 153.546 34.7627 153.754 35.04C153.967 35.312 154.255 35.448 154.618 35.448C154.98 35.448 155.266 35.312 155.474 35.04C155.687 34.7627 155.794 34.3893 155.794 33.92ZM159.337 34.384C159.257 34.384 159.179 34.384 159.105 34.384C159.03 34.3787 158.958 34.3733 158.889 34.368C158.718 34.624 158.553 34.8987 158.393 35.192C158.238 35.48 158.099 35.7493 157.977 36H157.225C157.289 35.8453 157.363 35.688 157.449 35.528C157.534 35.3627 157.619 35.2027 157.705 35.048C157.795 34.8933 157.886 34.7467 157.977 34.608C158.067 34.4693 158.153 34.344 158.233 34.232C158.083 34.1787 157.961 34.1147 157.865 34.04C157.769 33.96 157.691 33.872 157.633 33.776C157.574 33.68 157.531 33.5787 157.505 33.472C157.483 33.36 157.473 33.248 157.473 33.136C157.473 32.9013 157.515 32.696 157.601 32.52C157.691 32.344 157.814 32.2 157.969 32.088C158.123 31.9707 158.305 31.8827 158.513 31.824C158.726 31.7653 158.958 31.736 159.209 31.736C159.561 31.736 159.859 31.752 160.105 31.784C160.35 31.816 160.555 31.8533 160.721 31.896V36H159.985V34.384H159.337ZM159.985 32.392C159.926 32.3813 159.827 32.3707 159.689 32.36C159.555 32.3493 159.401 32.344 159.225 32.344C158.921 32.344 158.675 32.408 158.489 32.536C158.302 32.6587 158.209 32.856 158.209 33.128C158.209 33.3947 158.305 33.5787 158.497 33.68C158.689 33.7813 158.937 33.832 159.241 33.832H159.985V32.392ZM164.935 31.84V32.464H163.583V36H162.839V32.464H161.487V31.84H164.935ZM169.375 33.92C169.375 34.2507 169.327 34.5493 169.231 34.816C169.135 35.0827 168.999 35.312 168.823 35.504C168.652 35.696 168.447 35.8453 168.207 35.952C167.967 36.0533 167.705 36.104 167.423 36.104C167.14 36.104 166.879 36.0533 166.639 35.952C166.399 35.8453 166.191 35.696 166.015 35.504C165.844 35.312 165.711 35.0827 165.615 34.816C165.519 34.5493 165.471 34.2507 165.471 33.92C165.471 33.5947 165.519 33.2987 165.615 33.032C165.711 32.76 165.844 32.528 166.015 32.336C166.191 32.144 166.399 31.9973 166.639 31.896C166.879 31.7893 167.14 31.736 167.423 31.736C167.705 31.736 167.967 31.7893 168.207 31.896C168.447 31.9973 168.652 32.144 168.823 32.336C168.999 32.528 169.135 32.76 169.231 33.032C169.327 33.2987 169.375 33.5947 169.375 33.92ZM168.599 33.92C168.599 33.4507 168.492 33.08 168.279 32.808C168.071 32.5307 167.785 32.392 167.423 32.392C167.06 32.392 166.772 32.5307 166.559 32.808C166.351 33.08 166.247 33.4507 166.247 33.92C166.247 34.3893 166.351 34.7627 166.559 35.04C166.772 35.312 167.06 35.448 167.423 35.448C167.785 35.448 168.071 35.312 168.279 35.04C168.492 34.7627 168.599 34.3893 168.599 33.92ZM170.893 31.84V33.064C170.893 33.3787 170.973 33.6 171.133 33.728C171.293 33.8507 171.512 33.912 171.789 33.912C171.992 33.912 172.16 33.9013 172.293 33.88C172.432 33.8587 172.555 33.8347 172.661 33.808V31.84H173.405V36H172.661V34.384C172.619 34.3947 172.563 34.408 172.493 34.424C172.424 34.44 172.344 34.456 172.253 34.472C172.168 34.4827 172.077 34.4933 171.981 34.504C171.885 34.5147 171.792 34.52 171.701 34.52C171.472 34.52 171.261 34.496 171.069 34.448C170.883 34.4 170.72 34.32 170.581 34.208C170.448 34.096 170.341 33.9493 170.261 33.768C170.187 33.5813 170.149 33.3493 170.149 33.072V31.84H170.893ZM178.095 36H177.351V34.16H175.431V36H174.687V31.84H175.431V33.536H177.351V31.84H178.095V36ZM180.902 33.944C180.758 33.944 180.617 33.9493 180.478 33.96C180.345 33.9653 180.225 33.9813 180.118 34.008V35.44C180.15 35.4453 180.196 35.4507 180.254 35.456C180.318 35.4613 180.385 35.4667 180.454 35.472C180.529 35.472 180.604 35.4747 180.678 35.48C180.753 35.48 180.82 35.48 180.878 35.48C181.204 35.48 181.454 35.4187 181.63 35.296C181.806 35.1733 181.894 34.976 181.894 34.704C181.894 34.5707 181.865 34.456 181.806 34.36C181.753 34.264 181.678 34.1867 181.582 34.128C181.492 34.064 181.388 34.0187 181.27 33.992C181.153 33.96 181.03 33.944 180.902 33.944ZM179.374 31.84H180.118V33.432C180.209 33.4107 180.34 33.3893 180.51 33.368C180.686 33.3467 180.854 33.336 181.014 33.336C181.233 33.336 181.441 33.3627 181.638 33.416C181.836 33.464 182.009 33.544 182.158 33.656C182.308 33.7627 182.425 33.904 182.51 34.08C182.601 34.2507 182.646 34.456 182.646 34.696C182.646 34.9467 182.604 35.16 182.518 35.336C182.433 35.512 182.313 35.656 182.158 35.768C182.004 35.88 181.817 35.96 181.598 36.008C181.38 36.0613 181.14 36.088 180.878 36.088C180.628 36.088 180.374 36.072 180.118 36.04C179.862 36.0133 179.614 35.9707 179.374 35.912V31.84ZM184.158 36H183.414V31.84H184.158V36ZM188.933 31.84V36H188.213V32.832C188.053 33.0347 187.877 33.272 187.685 33.544C187.493 33.816 187.301 34.0987 187.109 34.392C186.917 34.68 186.733 34.9653 186.557 35.248C186.381 35.5307 186.229 35.7813 186.101 36H185.437V31.84H186.157V34.832C186.296 34.6027 186.453 34.352 186.629 34.08C186.805 33.8027 186.986 33.5307 187.173 33.264C187.365 32.992 187.554 32.7333 187.741 32.488C187.933 32.2373 188.112 32.0213 188.277 31.84H188.933ZM187.189 31.168C186.853 31.168 186.578 31.0827 186.365 30.912C186.157 30.7413 186.032 30.504 185.989 30.2L186.557 30.048C186.6 30.2187 186.672 30.3573 186.773 30.464C186.874 30.5707 187.013 30.624 187.189 30.624C187.365 30.624 187.504 30.5707 187.605 30.464C187.706 30.3573 187.778 30.2187 187.821 30.048L188.381 30.2C188.338 30.504 188.213 30.7413 188.005 30.912C187.797 31.0827 187.525 31.168 187.189 31.168Z" fill="white"/>
<path d="M31.0259 41.2173C31.0348 41.2484 31.0394 41.28 31.0394 41.3119C31.0394 41.8595 29.6971 42.3034 28.0412 42.3034C26.3853 42.3034 25.043 41.8595 25.043 41.3119" stroke="white" stroke-width="0.216"/>
<path d="M29.5734 34.2784C29.5734 34.5102 28.6337 34.6982 27.4746 34.6982C26.3156 34.6982 25.376 34.5102 25.376 34.2784C25.376 34.274 25.3764 34.2695 25.377 34.2651" stroke="white" stroke-width="0.216"/>
<path d="M25.043 41.3122C25.0393 41.1488 25.0355 40.9854 25.0318 40.8474C25.0293 40.7579 25.0268 40.679 25.0295 40.5192M25.2982 36.219C25.2986 36.2137 25.299 36.2082 25.2995 36.2028C25.3484 35.5807 25.3824 35.0635 25.3927 34.7603C25.403 34.457 25.3896 34.3677 25.3762 34.2783" stroke="white" stroke-width="0.216"/>
<path d="M29.5732 34.2783C29.5991 34.5354 29.625 34.7924 29.6799 35.0877M30.9235 40.5725C30.9385 40.6623 30.9534 40.7473 30.9673 40.8319C30.9936 40.9932 31.0163 41.1526 31.039 41.3122" stroke="white" stroke-width="0.216"/>
<path d="M25.7221 36.0514C25.6693 36.1642 25.6165 36.2769 25.5461 36.3021C25.4756 36.3274 25.3877 36.2653 25.1746 36.1526C25.1101 36.1184 25.0341 36.0796 24.9502 36.0376" stroke="white" stroke-width="0.216"/>
<path d="M24.4922 40.2417C24.6288 40.3109 24.752 40.3739 24.8546 40.4271C25.1544 40.5826 25.2795 40.6556 25.4043 40.7504C25.5291 40.8452 25.6536 40.9619 25.778 41.0785" stroke="white" stroke-width="0.216"/>
<path d="M26.7744 41.0085C27.3401 40.2153 27.5551 39.4687 27.4759 38.9204" stroke="white" stroke-width="0.216"/>
<path d="M30.9238 40.5728C30.9261 39.5159 31.0166 39.3293 31.2938 39.0085C31.571 38.6877 32.0349 38.2328 32.3998 37.8595C32.7647 37.4862 33.0305 37.1947 33.2003 37.043" stroke="white" stroke-width="0.216"/>
<path d="M30.9708 34.6279C30.5522 35.0245 30.3372 35.182 30.176 35.252C30.0148 35.322 29.9073 35.3045 29.6797 35.0876" stroke="white" stroke-width="0.216"/>
<path d="M17.3518 33.4193C17.6685 33.3027 17.8241 33.2969 17.9424 33.3124C18.0608 33.3279 18.1419 33.3649 18.2031 33.429C18.2644 33.4932 18.3059 33.5846 18.3238 33.7207C18.3418 33.8567 18.3361 34.0376 18.2953 34.2005C18.2545 34.3634 18.1786 34.5084 18.0674 34.6795C17.9561 34.8506 17.8095 35.0478 17.6533 35.1998C17.497 35.3518 17.3311 35.4587 17.1896 35.4967C17.0482 35.5345 16.9313 35.5035 16.8389 35.4102C16.7465 35.3168 16.6785 35.1613 16.6597 34.9815C16.6409 34.8016 16.671 34.5975 16.7498 34.3554C16.8285 34.1134 16.9558 33.8334 17.2047 33.5476" stroke="white" stroke-width="0.216"/>
<path d="M17.5325 33.2968C17.855 33.0692 18.0586 32.9964 18.2142 32.9618C18.3697 32.9273 18.4772 32.9313 18.5942 32.9672C18.7111 33.0032 18.8375 33.0712 18.9241 33.184C19.0109 33.2968 19.058 33.4542 19.0712 33.6331C19.0845 33.8119 19.0637 34.0122 18.9883 34.2688C18.9128 34.5255 18.7828 34.8384 18.6385 35.0902C18.4943 35.342 18.3359 35.5325 18.1717 35.6861C18.0077 35.8397 17.8381 35.9563 17.6796 36.0477C17.5212 36.1391 17.3741 36.2052 17.2487 36.2421C17.1233 36.279 17.0196 36.2868 16.9366 36.2567C16.8537 36.2266 16.7915 36.1585 16.7348 36.0361C16.6783 35.9135 16.6274 35.7366 16.6034 35.584C16.5793 35.4314 16.5822 35.3031 16.6541 34.8943" stroke="white" stroke-width="0.216"/>
<path d="M18.2901 32.906C18.4108 32.8768 18.5315 32.8477 18.6493 32.8477C18.7671 32.8477 18.8822 32.8768 19.2348 33.0459C19.343 33.0978 19.4737 33.163 19.6118 33.2332M20.949 34.0107C20.9818 34.0562 21.0155 34.1144 21.0535 34.1969C21.1073 34.3135 21.1695 34.4788 21.1968 34.6606C21.2241 34.8424 21.2166 35.0406 21.1789 35.2586C21.141 35.4766 21.0729 35.7142 20.9381 35.966C20.8033 36.2178 20.6017 36.4837 20.4368 36.673C20.3998 36.7155 20.3645 36.7542 20.3308 36.7897M18.8734 37.3264C18.8197 37.3131 18.7636 37.2967 18.704 37.2764C18.5334 37.2181 18.3354 37.1267 18.1128 37.012C17.8904 36.8973 17.6433 36.7593 17.4708 36.6572C17.2982 36.5552 17.2002 36.489 17.0993 36.4229C16.9984 36.3568 16.8947 36.2907 16.791 36.2246" stroke="white" stroke-width="0.216"/>
<path d="M18.896 36.9649C18.5904 36.6732 18.5678 36.4808 18.5839 36.3184C18.5999 36.1561 18.6546 36.0239 18.7376 35.9218C18.8205 35.8198 18.9318 35.7478 19.0685 35.6983C19.2052 35.6487 19.3674 35.6215 19.5201 35.6292C19.6728 35.637 19.8161 35.6798 19.919 35.7381C20.0217 35.7965 20.084 35.8703 20.1273 35.9685C20.1706 36.0667 20.1952 36.1891 20.2056 36.2961C20.2159 36.403 20.2121 36.4944 20.2159 36.5595C20.2197 36.6246 20.231 36.6635 20.2574 36.7034C20.2839 36.7432 20.3253 36.784 20.397 36.854C20.4686 36.924 20.5704 37.0232 20.6619 37.1233C20.7533 37.2235 20.8345 37.3245 20.9004 37.4314C20.9664 37.5384 21.0173 37.6512 21.0494 37.7785C21.0815 37.9058 21.0947 38.0477 21.0607 38.2082C21.0267 38.3685 20.9457 38.5474 20.8618 38.6883C20.7778 38.8293 20.6911 38.9323 20.6072 39.0111C20.5233 39.0898 20.4422 39.1442 20.3442 39.1821C20.2461 39.2201 20.1311 39.2415 19.9991 39.2453C19.8671 39.2492 19.7181 39.2356 19.5691 39.1938C19.4201 39.152 19.2712 39.082 19.1514 38.9916C19.0318 38.9012 18.9412 38.7904 18.8847 38.6505C18.828 38.5105 18.8054 38.3413 18.7969 38.1916C18.7885 38.0419 18.7942 37.9116 18.8045 37.8037C18.8149 37.6959 18.8299 37.6103 18.8488 37.4917C18.8677 37.3731 18.8903 37.2214 18.896 37.1048" stroke="white" stroke-width="0.216"/>
<path d="M18.2012 37.0566C17.578 37.6709 17.4168 37.9596 17.288 38.21C17.1594 38.4603 17.0632 38.6722 16.9547 38.854C16.8464 39.0357 16.7256 39.1874 16.5937 39.2865C16.4617 39.3857 16.3184 39.4324 16.1581 39.445C15.9978 39.4576 15.8205 39.4362 15.6885 39.3983C15.5566 39.3605 15.4698 39.306 15.3953 39.2496C15.3208 39.1932 15.2586 39.135 15.1954 39.0561C15.1322 38.9774 15.0682 38.8783 15.0333 38.7412C14.9984 38.6042 14.9928 38.4292 15.0078 38.2688C15.0229 38.1084 15.0588 37.9626 15.1097 37.842C15.1606 37.7215 15.2265 37.6263 15.3039 37.5504C15.3812 37.4746 15.4698 37.4182 15.567 37.3726C15.664 37.3268 15.7696 37.2918 15.8706 37.25C15.9714 37.2082 16.0676 37.1596 16.1779 37.0989C16.2882 37.0381 16.4127 36.9653 16.9461 36.3232" stroke="white" stroke-width="0.216"/>
<path d="M19.5293 33.2263C19.5293 33.4596 19.5831 33.6463 19.6608 33.8105C19.7387 33.9749 19.8405 34.1168 19.9461 34.2227C20.0517 34.3287 20.161 34.3987 20.2638 34.4414C20.3666 34.4842 20.4627 34.4997 20.5278 34.5027C20.5929 34.5056 20.6269 34.4959 20.6588 34.4736C20.6909 34.4512 20.7212 34.4162 20.7456 34.3714C20.7702 34.3268 20.789 34.2723 20.8418 34.1809C20.8946 34.0895 20.9814 33.9613 21.0634 33.8427C21.1454 33.724 21.2227 33.6152 21.3113 33.5248C21.3999 33.4344 21.4999 33.3624 21.6385 33.2876C21.7771 33.2127 21.9543 33.135 22.1127 33.0426C22.2712 32.9503 22.4106 32.8434 22.5266 32.7374C22.6426 32.6315 22.735 32.5265 22.8085 32.4157C22.8821 32.3048 22.9368 32.1881 22.966 32.0618C22.9952 31.9354 22.999 31.7993 22.9877 31.673C22.9764 31.5466 22.9499 31.4299 22.9057 31.3288C22.8613 31.2278 22.7991 31.1422 22.7359 31.0683C22.6728 30.9944 22.6086 30.9322 22.5314 30.8817C22.454 30.8311 22.3635 30.7923 22.2608 30.766C22.158 30.7398 22.043 30.7261 21.9251 30.7271C21.8072 30.7282 21.6866 30.7437 21.5677 30.7787C21.449 30.8137 21.3321 30.868 21.2293 30.9448C21.1266 31.0216 21.0379 31.1208 20.9606 31.2403C20.8833 31.3599 20.8172 31.4999 20.7352 31.669C20.6532 31.8383 20.5551 32.0365 20.4996 32.1648C20.4439 32.2931 20.4307 32.3515 20.2657 32.5571C20.1007 32.7627 19.784 33.1155 19.6408 33.2474" stroke="white" stroke-width="0.216"/>
<path d="M19.0947 32.9116C19.1456 32.2525 19.0834 32.06 18.9787 31.8987C18.8741 31.7373 18.727 31.607 18.5724 31.5234C18.4178 31.4399 18.2556 31.4029 18.0972 31.401C17.9388 31.399 17.7842 31.432 17.6428 31.4982C17.5013 31.5642 17.3731 31.6634 17.2666 31.8024C17.1601 31.9414 17.0752 32.1203 17.029 32.2632C16.9828 32.4061 16.9753 32.513 16.978 32.6229C16.9809 32.7327 16.9941 32.8455 17.0158 32.9369C17.0375 33.0282 17.0677 33.0982 17.1025 33.1537C17.1374 33.209 17.177 33.2498 17.2209 33.2907C17.2647 33.3315 17.3128 33.3724 17.3807 33.421" stroke="white" stroke-width="0.216"/>
<path d="M20.9141 38.5952C21.1646 38.9132 21.4361 39.1028 21.6803 39.2588C21.9245 39.4149 22.1414 39.5373 22.3045 39.6131C22.4675 39.689 22.577 39.7181 22.7062 39.72C22.8353 39.722 22.9843 39.6967 23.1483 39.6336C23.3123 39.5704 23.4915 39.4692 23.6508 39.3477C23.8101 39.2263 23.9497 39.0844 24.1015 38.8996C24.2533 38.7149 24.4173 38.4874 24.5456 38.2763C24.6738 38.0651 24.7661 37.8702 24.8359 37.6826C24.9056 37.495 24.9528 37.3147 24.9811 37.0942C25.0094 36.8738 25.0188 36.6133 25.0142 36.4286C25.0094 36.2439 24.9906 36.1351 24.9416 36.0145C24.8926 35.894 24.8133 35.7618 24.7417 35.6753C24.67 35.5887 24.6059 35.5479 24.4777 35.4818C24.3495 35.4158 24.1571 35.3244 23.9704 35.2398C23.7837 35.1552 23.6027 35.0774 23.4575 35.0318C23.3123 34.986 23.203 34.9725 23.0323 34.9559C22.8617 34.9394 22.6297 34.92 22.3808 34.8626C22.132 34.8053 21.866 34.71 21.6412 34.6186C21.4163 34.5272 21.2325 34.4398 21.129 34.3838" stroke="white" stroke-width="0.216"/>
<path d="M30.3008 35.0876C30.3064 34.8018 30.3545 34.6997 30.4248 34.637C30.495 34.5743 30.5874 34.551 30.7156 34.5607C30.8439 34.5704 31.0079 34.6132 31.2097 34.7191C31.4114 34.8251 31.6509 34.9942 31.8546 35.1624C32.0582 35.3306 32.2261 35.4978 32.3674 35.6582C32.5089 35.8186 32.6239 35.9721 32.7296 36.1306C32.8351 36.2891 32.9313 36.4524 33.0077 36.606C33.0841 36.7596 33.1406 36.9034 33.1802 37.0258C33.2197 37.1484 33.2424 37.2494 33.2509 37.3311C33.2594 37.4127 33.2537 37.4749 33.2245 37.5275C33.1953 37.5799 33.1425 37.6227 33.0878 37.646C33.0331 37.6694 32.9766 37.6732 32.9209 37.6704C32.8653 37.6675 32.8106 37.6577 32.7493 37.6455C32.6881 37.6334 32.6201 37.6189 32.6201 37.6189" stroke="white" stroke-width="0.216"/>
<path d="M30.3525 35.118C30.3581 34.84 30.4048 34.7408 30.4731 34.6798C30.5414 34.6188 30.6313 34.5961 30.756 34.6056C30.8807 34.6151 31.0402 34.6566 31.2364 34.7597C31.4327 34.8627 31.6655 35.0272 31.8636 35.1908C32.0616 35.3543 32.2249 35.5169 32.3624 35.6728C32.4999 35.8288 32.6118 35.9782 32.7146 36.1323C32.8172 36.2864 32.9108 36.4453 32.985 36.5946C33.0592 36.744 33.1143 36.8839 33.1528 37.003C33.1913 37.1221 33.2133 37.2205 33.2216 37.2999C33.2298 37.3792 33.2244 37.4397 33.1959 37.4908C33.1675 37.5419 33.1161 37.5835 33.0629 37.6061C33.0097 37.6288 32.9547 37.6326 32.9007 37.6298C32.8466 37.6269 32.7934 37.6175 32.7338 37.6056C32.6741 37.5938 32.6082 37.5796 32.6082 37.5796" stroke="white" stroke-width="0.216"/>
<path d="M30.3584 34.7061C30.5547 34.4514 30.798 34.2386 30.9592 34.101C31.1205 33.9635 31.1996 33.9012 31.2873 33.8468C31.375 33.7924 31.4712 33.7457 31.6173 33.6757C31.7634 33.6057 31.9595 33.5125 32.1858 33.3734C32.4121 33.2344 32.6685 33.0497 32.8807 32.8747C33.0928 32.6998 33.2606 32.5346 33.3927 32.4237C33.5247 32.3129 33.6208 32.2565 33.6783 32.2244C33.7359 32.1924 33.7547 32.1846 33.7914 32.1787C33.8283 32.1729 33.883 32.1691 33.9668 32.1865C34.0507 32.2041 34.1639 32.2429 34.2723 32.2993C34.3808 32.3556 34.4845 32.4296 34.5919 32.517C34.6994 32.6046 34.8106 32.7056 34.9068 32.7999C35.003 32.8942 35.0841 32.9817 35.1633 33.0838C35.2425 33.1858 35.3199 33.3025 35.3604 33.3657C35.4009 33.4288 35.4046 33.4385 35.4301 33.4949C35.4555 33.5513 35.5027 33.6544 35.5338 33.7448C35.5649 33.8351 35.5801 33.9129 35.5905 33.9868C35.6008 34.0607 35.6064 34.1307 35.5999 34.2026C35.5932 34.2745 35.5744 34.3484 35.548 34.4018C35.5215 34.4553 35.4876 34.4883 35.4451 34.5282C35.4028 34.5681 35.3518 34.6147 35.2953 34.6576C35.2387 34.7003 35.1765 34.7392 35.1115 34.7838C35.0464 34.8286 34.9785 34.8791 34.8747 35.0182C34.771 35.1572 34.6316 35.3846 34.5306 35.5645C34.4298 35.7443 34.3675 35.8765 34.2921 36.0339C34.2166 36.1915 34.1281 36.3742 34.047 36.518C33.9659 36.6619 33.8924 36.7669 33.8103 36.8777C33.7283 36.9885 33.6378 37.1052 33.5661 37.1898C33.4945 37.2743 33.4417 37.3268 33.394 37.3808C33.3464 37.4348 33.304 37.4902 33.1647 37.5977" stroke="white" stroke-width="0.216"/>
<path d="M33.4141 32.3666C33.4236 32.2869 33.433 32.2072 33.4801 32.1042C33.5273 32.0011 33.6121 31.8747 33.746 31.7134C33.8799 31.552 34.0627 31.3556 34.2118 31.2041C34.3607 31.0524 34.4758 30.9455 34.6078 30.8492C34.7397 30.7529 34.8887 30.6674 34.9868 30.611C35.0332 30.5844 35.0682 30.5642 35.0993 30.5479M36.7947 31.3596C36.8786 31.484 36.9056 31.5404 36.9447 31.6231C36.9837 31.7056 37.0346 31.8144 37.0742 31.9088C37.1137 32.003 37.1421 32.0828 37.1684 32.181C37.1949 32.2791 37.2193 32.3958 37.2354 32.4735C37.2514 32.5513 37.2589 32.5902 37.2599 32.632C37.2609 32.6738 37.2552 32.7185 37.2297 32.7652C37.2043 32.8118 37.159 32.8604 37.111 32.9071C37.0629 32.9538 37.0119 32.9985 36.9799 33.0315C36.9478 33.0645 36.9347 33.0859 36.8197 33.2123C36.7046 33.3387 36.4877 33.57 36.3425 33.7246C36.1973 33.8791 36.1238 33.9569 36.0475 34.0327C35.9711 34.1086 35.8919 34.1824 35.8334 34.2359C35.775 34.2893 35.7373 34.3224 35.7043 34.3487C35.6713 34.3748 35.643 34.3944 35.6131 34.4096C35.5832 34.425 35.5519 34.4363 35.5205 34.4475" stroke="white" stroke-width="0.216"/>
<path d="M33.4531 32.1756C33.6869 32.0576 33.8396 32.0313 33.9603 32.0328C34.081 32.0343 34.1695 32.0635 34.3035 32.1412C34.4374 32.219 34.6165 32.3453 34.7664 32.4659C34.9163 32.5864 35.037 32.7012 35.1492 32.8363C35.2614 32.9713 35.3652 33.1269 35.4377 33.2591C35.5103 33.3913 35.5518 33.5001 35.5895 33.6051C35.6272 33.7101 35.6611 33.8113 35.6828 33.8977C35.7045 33.9842 35.7139 34.0561 35.7142 34.1473C35.7144 34.2384 35.7055 34.3488 35.6144 34.4098" stroke="white" stroke-width="0.216"/>
<path d="M34.9985 31.486C34.9307 31.7484 34.9844 31.9176 35.0697 32.0479C35.155 32.1781 35.2719 32.2694 35.402 32.3278C35.5322 32.3861 35.6755 32.4113 35.7952 32.3988C35.9149 32.3861 36.0111 32.3356 36.0856 32.2724C36.1601 32.2092 36.2129 32.1334 36.2431 32.0712C36.2733 32.0089 36.2808 31.9603 36.2846 31.9204C36.2883 31.8806 36.2883 31.8495 36.326 31.8067C36.3637 31.764 36.4392 31.7095 36.507 31.6522C36.575 31.5948 36.6353 31.5346 36.6947 31.4724C36.7541 31.4102 36.8125 31.346 36.8615 31.2653C36.9106 31.1846 36.9502 31.0874 36.9719 30.9912C36.9936 30.895 36.9973 30.7997 36.9907 30.7093C36.9842 30.6189 36.9671 30.5333 36.9323 30.4478C36.8974 30.3623 36.8446 30.2767 36.7918 30.2077C36.739 30.1387 36.6862 30.0862 36.6126 30.0346C36.5391 29.9832 36.4448 29.9326 36.3591 29.8947C36.2733 29.8568 36.1959 29.8315 36.1035 29.8179C36.0111 29.8042 35.9036 29.8023 35.8103 29.8159C35.7169 29.8296 35.6378 29.8587 35.5539 29.9054C35.4699 29.9521 35.3813 30.0162 35.3144 30.0901C35.2474 30.164 35.2022 30.2475 35.1686 30.3262C35.135 30.4049 35.113 30.4787 35.0961 30.5662C35.0791 30.6537 35.0671 30.7548 35.0658 30.8395C35.0645 30.9241 35.074 30.9921 35.0834 31.0505C35.0928 31.1088 35.1022 31.1574 35.1089 31.2021C35.1154 31.2469 35.1192 31.2876 35.1169 31.3373C35.1145 31.3869 35.106 31.4452 35.0607 31.4801" stroke="white" stroke-width="0.216"/>
<path d="M35.1738 31.3638C35.3888 31.667 35.533 31.7487 35.6664 31.8032C35.7998 31.8576 35.9224 31.8848 36.0275 31.8941C36.1326 31.9033 36.2203 31.8946 36.2942 31.8595" stroke="white" stroke-width="0.216"/>
<path d="M34.5488 30.8944C33.7714 30.2144 33.7318 30.1153 33.6629 29.9918C33.5941 29.8684 33.496 29.7207 33.3819 29.5767C33.2678 29.4329 33.1378 29.2929 33.0086 29.2035C32.8794 29.114 32.7512 29.0752 32.6305 29.0654C32.5098 29.0557 32.3967 29.0752 32.2788 29.1227C32.1609 29.1704 32.0384 29.2462 31.9422 29.3541C31.8461 29.4621 31.7763 29.6021 31.7357 29.7517C31.6952 29.9014 31.6839 30.0608 31.7075 30.1969C31.7311 30.333 31.7895 30.4458 31.8602 30.5381C31.9309 30.6305 32.0139 30.7024 32.1336 30.7753C32.2534 30.8482 32.4099 30.922 32.5456 30.9784C32.6814 31.0348 32.7964 31.0737 32.8907 31.1184C32.985 31.1632 33.0585 31.2137 33.1368 31.2798C33.215 31.3459 33.298 31.4275 33.3593 31.4849C33.4206 31.5423 33.4602 31.5753 33.4875 31.6006C33.5149 31.6259 33.53 31.6434 33.5531 31.6711C33.5761 31.6988 33.6072 31.7367 33.6737 31.8042" stroke="white" stroke-width="0.216"/>
<path d="M32.8647 31.1065L32.8613 31.105" stroke="white" stroke-width="0.216"/>
<path d="M32.1924 30.8096C32.3966 30.7394 32.5777 30.5528 32.7294 30.3885C32.8813 30.2242 33.0038 30.0823 33.0981 29.9695C33.1924 29.8568 33.2583 29.7732 33.2956 29.7197C33.3328 29.6663 33.3414 29.6429 33.3495 29.5366" stroke="white" stroke-width="0.216"/>
<path d="M36.0479 34.0326C36.4692 34.4544 36.6446 34.6236 36.7926 34.8073C36.9407 34.991 37.0613 35.1893 37.1915 35.3584C37.3215 35.5275 37.4611 35.6675 37.6063 35.7745C37.7515 35.8814 37.9023 35.9554 38.0664 35.9806C38.2305 36.0059 38.4077 35.9825 38.5529 35.9145C38.6981 35.8464 38.8112 35.7337 38.881 35.5975C38.9508 35.4615 38.9771 35.302 38.9829 35.1387C38.9885 34.9754 38.9734 34.8082 38.9074 34.6624C38.8414 34.5167 38.7244 34.3922 38.5642 34.2775C38.4039 34.1628 38.2003 34.0578 38.0286 33.9762C37.8571 33.8945 37.7175 33.8362 37.5573 33.7215C37.397 33.6067 37.2159 33.4357 37.0918 33.3145C36.9677 33.1933 36.9006 33.1221 36.9006 33.1221" stroke="white" stroke-width="0.216"/>
<path d="M37.2668 35.4508C37.2623 35.1779 37.3585 34.9504 37.4575 34.7784C37.5565 34.6063 37.6583 34.4897 37.7507 34.4061C37.8431 34.3225 37.926 34.2719 38.0412 34.2203C38.1563 34.1685 38.3036 34.1156 38.4522 34.2024" stroke="white" stroke-width="0.216"/>
<path d="M24.4934 40.2421L23.1484 39.6333" stroke="white" stroke-width="0.216"/>
<path d="M20.6846 31.7731C20.8115 31.5122 20.7134 31.714 20.7057 31.8833C20.6979 32.0525 20.7806 32.1893 20.9087 32.3121C21.0368 32.4349 21.2102 32.5438 21.395 32.6273C21.5799 32.7109 21.7759 32.7693 21.9628 32.8168C22.1497 32.8643 22.3274 32.9011 22.5266 32.7373" stroke="white" stroke-width="0.216"/>
<path d="M20.5872 37.0439C20.1395 37.0272 19.8849 37.0739 19.6021 37.1585C19.3192 37.243 19.008 37.3655 18.8047 37.8039" stroke="white" stroke-width="0.216"/>
<path d="M15.4287 37.45C15.8712 37.2499 16.0879 37.3603 16.2755 37.4756C16.4631 37.5911 16.6215 37.7116 16.727 37.8263C16.8326 37.941 16.8854 38.0498 16.9259 38.1568C16.9665 38.2638 16.9948 38.3687 17.0212 38.7377" stroke="white" stroke-width="0.216"/>
<path d="M29.6361 33.6143C29.6361 33.8378 28.6726 34.019 27.4841 34.019C26.2955 34.019 25.332 33.8378 25.332 33.6143" stroke="white" stroke-width="0.216"/>
<path d="M25.332 33.6143L25.3808 34.3034" stroke="white" stroke-width="0.216"/>
<path d="M29.6362 33.6143L29.5742 34.2861" stroke="white" stroke-width="0.216"/>
<path d="M29.0724 31.6021C29.113 31.6179 29.1505 31.6344 29.1849 31.6514M29.3504 31.76C29.3538 31.7631 29.3572 31.7664 29.3604 31.7696M29.3667 32.0531C29.36 32.0602 29.3528 32.0672 29.3451 32.0742M25.6123 31.7906C25.6416 31.756 25.683 31.7226 25.7352 31.6908" stroke="white" stroke-width="0.216"/>
<path d="M28.8367 31.6909C28.8873 31.7063 28.9348 31.7225 28.9789 31.7393M29.3463 32.0551C29.3463 32.0616 29.3459 32.0682 29.3451 32.0747M25.665 31.8226C25.7188 31.7914 25.7831 31.7618 25.8566 31.7343" stroke="white" stroke-width="0.216"/>
<path d="M29.0761 33.853C28.7902 34.0406 28.1497 34.1714 27.4055 34.1714C26.4611 34.1714 25.6837 33.9607 25.5859 33.6904" stroke="white" stroke-width="0.216"/>
<path d="M26.9579 42.6177C27.2228 42.6177 27.4375 42.7889 27.4375 43.0002C27.4375 43.2116 27.2228 43.3829 26.9579 43.3829C26.6932 43.3829 26.4785 43.2116 26.4785 43.0002C26.4785 42.7889 26.6932 42.6177 26.9579 42.6177Z" stroke="white" stroke-width="0.216"/>
<path d="M27.4384 49.1162C27.4384 49.1993 27.4051 49.2763 27.3486 49.3391" stroke="white" stroke-width="0.216"/>
<path d="M26.4785 43.0005V45.5126M26.4785 46.6564V47.1045" stroke="white" stroke-width="0.216"/>
<path d="M27.4375 43.0005V44.9095M27.4375 46.048V47.2209M27.4375 48.1275V49.1159" stroke="white" stroke-width="0.216"/>
<path d="M27.4377 48.1279C27.4297 48.1577 27.4175 48.1863 27.4014 48.2132" stroke="white" stroke-width="0.216"/>
<path d="M27.417 47.2642C27.418 47.2679 27.4189 47.2717 27.4197 47.2754" stroke="white" stroke-width="0.216"/>
<path d="M26.522 47.1844C26.4807 47.128 26.457 47.0622 26.457 46.9922" stroke="white" stroke-width="0.216"/>
<path d="M27.4426 46.5605C27.4495 46.5862 27.453 46.6131 27.453 46.6404C27.453 46.8516 27.2384 47.023 26.9735 47.023C26.7088 47.023 26.4941 46.8516 26.4941 46.6404" stroke="white" stroke-width="0.216"/>
<path d="M27.4324 46.209C27.4392 46.2348 27.4429 46.2615 27.4429 46.2889C27.4429 46.5002 27.2281 46.6715 26.9634 46.6715C26.8195 46.6715 26.6903 46.621 26.6025 46.5408" stroke="white" stroke-width="0.216"/>
<path d="M27.4084 46.0576C27.3453 46.2101 27.1652 46.32 26.9531 46.32C26.9363 46.32 26.9197 46.3193 26.9033 46.3179" stroke="white" stroke-width="0.216"/>
<path d="M27.4163 45.1743C27.4231 45.2001 27.4267 45.2269 27.4267 45.2542C27.4267 45.4655 27.212 45.6368 26.9473 45.6368C26.6825 45.6368 26.4678 45.4655 26.4678 45.2542" stroke="white" stroke-width="0.216"/>
<path d="M27.4348 44.7603C27.4417 44.786 27.4452 44.8127 27.4452 44.84C27.4452 45.0513 27.2306 45.2227 26.9657 45.2227C26.701 45.2227 26.4863 45.0513 26.4863 44.84" stroke="white" stroke-width="0.216"/>
<path d="M27.4241 44.478C27.4309 44.5038 27.4345 44.5306 27.4345 44.5579C27.4345 44.7692 27.2198 44.9406 26.955 44.9406C26.6902 44.9406 26.4756 44.7692 26.4756 44.5579" stroke="white" stroke-width="0.216"/>
<path d="M27.4241 44.0493C27.4309 44.0751 27.4345 44.1019 27.4345 44.1292C27.4345 44.3405 27.2198 44.5118 26.955 44.5118C26.6902 44.5118 26.4756 44.3405 26.4756 44.1292" stroke="white" stroke-width="0.216"/>
<path d="M27.4241 43.5483C27.4309 43.574 27.4345 43.6008 27.4345 43.6281C27.4345 43.8394 27.2198 44.0108 26.955 44.0108C26.6902 44.0108 26.4756 43.8394 26.4756 43.6281" stroke="white" stroke-width="0.216"/>
<path d="M27.6664 51.5003C25.9024 51.2078 24.5996 50.1813 24.5996 48.9602C24.5996 48.7215 24.6494 48.49 24.7427 48.2702M26.3378 46.8148C26.3947 46.789 26.4527 46.7641 26.5116 46.7404M27.3838 46.4741C27.796 46.3849 28.2376 46.3364 28.6969 46.3364C29.9853 46.3364 31.1349 46.7173 31.886 47.3128M32.4363 47.8864C32.6662 48.2141 32.7941 48.5775 32.7941 48.9602C32.7941 49.0805 32.7813 49.1991 32.7569 49.3153" stroke="white" stroke-width="0.216"/>
<path d="M32.7543 49.0063C32.7805 49.1264 32.7941 49.2488 32.7941 49.3734C32.7941 49.4172 32.7924 49.4609 32.7892 49.5042M27.4385 51.8713C25.7913 51.5312 24.5996 50.5413 24.5996 49.3734C24.5996 49.304 24.6039 49.2349 24.6121 49.1668" stroke="white" stroke-width="0.216"/>
<path d="M27.8283 51.0284C26.845 50.7276 26.1504 50.1016 26.084 49.3676M26.2863 48.5393C26.5154 48.162 26.9209 47.8409 27.4381 47.6182" stroke="white" stroke-width="0.216"/>
<path d="M26.1113 49.541C26.1171 49.516 26.1236 49.4912 26.1307 49.4667M26.4784 48.8586C27.0068 48.2637 28.006 47.8623 29.1513 47.8623C30.412 47.8623 31.4954 48.3486 31.9693 49.044M27.5838 51.5232C27.5248 51.5008 27.4672 51.4771 27.4108 51.4523" stroke="white" stroke-width="0.216"/>
<path d="M27.4384 50.8946C27.4438 50.8946 27.4493 50.8945 27.4548 50.8945C27.7088 50.8945 27.9148 51.0382 27.9148 51.2153C27.9148 51.3612 27.7753 51.4843 27.5845 51.5233M27.0564 51.3758C27.0528 51.3713 27.0493 51.3669 27.0459 51.3624" stroke="white" stroke-width="0.216"/>
<path d="M32.7528 49.0063C32.7803 49.0466 32.7956 49.0921 32.7956 49.1399C32.7956 49.3084 32.6057 49.4449 32.3714 49.4449C32.1371 49.4449 31.9473 49.3084 31.9473 49.1399C31.9473 49.1064 31.9548 49.0742 31.9687 49.0441" stroke="white" stroke-width="0.216"/>
<path d="M32.7389 49.2925C32.7749 49.3374 32.7956 49.3895 32.7956 49.4449C32.7956 49.6135 32.6057 49.7501 32.3714 49.7501C32.1371 49.7501 31.9473 49.6135 31.9473 49.4449C31.9473 49.3895 31.968 49.3374 32.004 49.2926" stroke="white" stroke-width="0.216"/>
<path d="M27.8524 51.3755C27.8916 51.4228 27.914 51.4776 27.914 51.536C27.914 51.7132 27.7081 51.8569 27.454 51.8569C27.4486 51.8569 27.443 51.8569 27.4377 51.8568M27.0557 51.3755C27.058 51.3727 27.0604 51.3699 27.0629 51.3672" stroke="white" stroke-width="0.216"/>
<path d="M27.4272 47.0928C27.437 47.1189 27.4424 47.1465 27.4424 47.1749C27.4424 47.352 27.2364 47.4959 26.9824 47.4959C26.7284 47.4959 26.5225 47.352 26.5225 47.1749C26.5225 47.1632 26.5234 47.1515 26.5251 47.1402" stroke="white" stroke-width="0.216"/>
<path d="M31.9473 49.1396L31.9571 49.5113" stroke="white" stroke-width="0.216"/>
<path d="M27.914 51.2153L27.9131 51.5567" stroke="white" stroke-width="0.216"/>
<path d="M27.4381 47.6143C27.8909 47.4628 28.4233 47.3755 28.9931 47.3755C30.6404 47.3755 31.9757 48.1055 31.9757 49.0062C31.9757 49.0785 31.9671 49.1498 31.9504 49.2196M26.1311 49.4668C26.1137 49.4341 26.0979 49.4012 26.084 49.3676" stroke="white" stroke-width="0.216"/>
<path d="M26.584 47.3351C26.598 47.3182 26.6141 47.3023 26.6321 47.2876" stroke="white" stroke-width="0.216"/>
<path d="M27.5882 49.9594C25.8243 49.6668 24.5215 48.6404 24.5215 47.4193C24.5215 46.4725 25.3047 45.6428 26.4786 45.1814M27.4376 44.9062C27.8115 44.8341 28.2082 44.7954 28.6187 44.7954C30.8816 44.7954 32.716 45.9702 32.716 47.4193C32.716 47.5397 32.7033 47.6581 32.6788 47.7742" stroke="white" stroke-width="0.216"/>
<path d="M32.6758 47.4653C32.6899 47.5321 32.7003 47.5998 32.7066 47.6679" stroke="white" stroke-width="0.216"/>
<path d="M27.7505 49.4871C26.7158 49.1705 26.001 48.4938 26.001 47.7105C26.001 47.03 26.5403 46.43 27.3603 46.0767" stroke="white" stroke-width="0.216"/>
<path d="M26.0332 47.9996C26.0388 47.9747 26.0454 47.9498 26.0525 47.9253M27.5056 49.9819C27.4466 49.9595 27.389 49.9358 27.3327 49.911" stroke="white" stroke-width="0.216"/>
<path d="M27.3604 49.3537C27.3657 49.3535 27.3712 49.3535 27.3766 49.3535C27.6307 49.3535 27.8366 49.4971 27.8366 49.6743C27.8366 49.8202 27.6973 49.9433 27.5064 49.9822M26.9783 49.8347C26.9748 49.8304 26.9711 49.8259 26.9678 49.8214" stroke="white" stroke-width="0.216"/>
<path d="M32.6758 47.4653C32.7031 47.5056 32.7185 47.551 32.7185 47.599C32.7185 47.7674 32.5286 47.904 32.2943 47.904C32.06 47.904 31.8701 47.7674 31.8701 47.599C31.8701 47.5654 31.8776 47.5332 31.8915 47.503" stroke="white" stroke-width="0.216"/>
<path d="M32.6621 47.7515C32.6681 47.7592 32.6738 47.7672 32.6789 47.7752" stroke="white" stroke-width="0.216"/>
<path d="M26.9785 49.8345C26.981 49.8316 26.9833 49.8286 26.9859 49.8257" stroke="white" stroke-width="0.216"/>
<path d="M26.4785 45.5126C26.4924 45.4886 26.5106 45.4659 26.5321 45.4453" stroke="white" stroke-width="0.216"/>
<path d="M31.8701 47.5986L31.8722 47.678" stroke="white" stroke-width="0.216"/>
<path d="M27.361 46.0729C27.8138 45.9215 28.3463 45.834 28.916 45.834C30.5632 45.834 31.8986 46.5641 31.8986 47.4648C31.8986 47.5371 31.8899 47.6084 31.8733 47.6781M26.054 47.9253C26.0366 47.8927 26.0207 47.8597 26.0068 47.8262" stroke="white" stroke-width="0.216"/>
<path d="M29.3378 50.1235L29.8016 50.2465L30.2655 50.3695V50.6155V50.8614L29.8016 50.9845L29.3378 51.1074L28.874 50.9845L28.4102 50.8614V50.6155V50.3695L28.874 50.2465L29.3378 50.1235Z" stroke="white" stroke-width="0.216"/>
<path d="M30.2655 53.2622V53.5081V53.7541L29.8016 53.8772L29.3378 54.0001L28.874 53.8772L28.4102 53.7541V53.5081V53.2622" stroke="white" stroke-width="0.216"/>
<path d="M28.4102 50.8618V53.7542" stroke="white" stroke-width="0.216"/>
<path d="M29.3379 51.1074V53.9999" stroke="white" stroke-width="0.216"/>
<path d="M30.2656 50.8618V53.7542" stroke="white" stroke-width="0.216"/>
<path d="M29.3224 50.3687C29.5872 50.3687 29.802 50.488 29.802 50.6352C29.802 50.7824 29.5872 50.9017 29.3224 50.9017C29.0575 50.9017 28.8428 50.7824 28.8428 50.6352C28.8428 50.488 29.0575 50.3687 29.3224 50.3687Z" stroke="white" stroke-width="0.216"/>
<path d="M27.4165 46.9854C27.4301 47.0051 27.4374 47.0263 27.4374 47.0481C27.4374 47.0882 27.4126 47.1257 27.3696 47.1578M26.525 47.1401C26.4953 47.1123 26.4785 47.081 26.4785 47.0481" stroke="white" stroke-width="0.216"/>
<path d="M27.4481 45.6548C27.4481 45.7885 27.2311 45.8966 26.9633 45.8966C26.6955 45.8966 26.4785 45.7885 26.4785 45.6553" stroke="white" stroke-width="0.216"/>
<path d="M27.4375 43.0635L27.4478 45.6554" stroke="white" stroke-width="0.216"/>
<path d="M26.4785 43.0547V45.6557" stroke="white" stroke-width="0.216"/>
<path d="M27.3833 48.2207C27.4181 48.2572 27.4378 48.2989 27.4378 48.3431C27.4378 48.4884 27.2256 48.606 26.9639 48.606C26.8962 48.606 26.8317 48.598 26.7734 48.5839" stroke="white" stroke-width="0.216"/>
<path d="M26.888 49.7974C26.9204 49.7936 26.954 49.7915 26.9885 49.7915C27.2502 49.7915 27.4623 49.9092 27.4623 50.0543C27.4623 50.1995 27.2502 50.3172 26.9885 50.3172C26.7268 50.3172 26.5146 50.1995 26.5146 50.0543" stroke="white" stroke-width="0.216"/>
<path d="M26.5131 50.0545L26.4922 49.6621" stroke="white" stroke-width="0.216"/>
<path d="M27.4378 48.6499C27.4453 48.6685 27.4492 48.6878 27.4492 48.7076C27.4492 48.8529 27.2371 48.9705 26.9754 48.9705C26.773 48.9705 26.6002 48.9002 26.5322 48.801" stroke="white" stroke-width="0.216"/>
<path d="M29.3535 31.2031C29.4135 31.2534 29.4466 31.3077 29.4483 31.365C29.4577 31.6739 28.5508 31.9506 27.4225 31.983C26.2941 32.0153 25.3718 31.7912 25.3624 31.4822C25.3606 31.4248 25.3903 31.3687 25.4472 31.315" stroke="white" stroke-width="0.216"/>
<path d="M29.3541 31.2031C29.3745 31.233 29.3856 31.2642 29.3866 31.2963C29.3957 31.5961 28.5155 31.8646 27.4203 31.896C26.3253 31.9274 25.4301 31.7098 25.421 31.41C25.42 31.3778 25.4292 31.3462 25.4477 31.315" stroke="white" stroke-width="0.216"/>
<path d="M29.5457 33.5439L29.546 33.5485C29.5554 33.8575 28.6484 34.134 27.5201 34.1664C26.3918 34.1987 25.4695 33.9745 25.46 33.6656" stroke="white" stroke-width="0.216"/>
<path d="M25.3623 31.4712L25.4605 33.6656" stroke="white" stroke-width="0.216"/>
<path d="M29.4482 31.3647L29.5465 33.5482" stroke="white" stroke-width="0.216"/>
<path d="M29.3596 31.7549C29.077 31.9166 28.5336 32.0435 27.8867 32.0875" stroke="white" stroke-width="0.216"/>
<path d="M29.3792 32.6055C29.0965 32.7671 28.5532 32.8941 27.9062 32.9381" stroke="white" stroke-width="0.216"/>
<path d="M27.8867 32.0874L27.9052 32.9383" stroke="white" stroke-width="0.216"/>
<path d="M29.3604 31.7549L29.3669 32.0535" stroke="white" stroke-width="0.216"/>
<path d="M45.8243 9.71122C44.6834 9.9188 43.805 10.1826 43.862 10.3003C43.9191 10.418 44.89 10.3452 46.0309 10.1376C47.1717 9.92992 48.0503 9.66625 47.9931 9.5485C47.9361 9.43076 46.9651 9.50363 45.8243 9.71122Z" stroke="white" stroke-width="0.216"/>
<path d="M45.8384 9.74032C44.8562 9.91914 44.0996 10.1462 44.1487 10.2476C44.1979 10.3489 45.034 10.2862 46.0163 10.1074C46.9986 9.92863 47.7551 9.70158 47.706 9.60024C47.6569 9.49889 46.8207 9.5616 45.8384 9.74032Z" stroke="white" stroke-width="0.216"/>
<path d="M46.064 10.8752C45.0817 11.0539 44.3252 11.281 44.3743 11.3824C44.4235 11.4837 45.2596 11.421 46.2419 11.2422C47.2242 11.0635 47.9807 10.8364 47.9316 10.735C47.8824 10.6336 47.0463 10.6964 46.064 10.8752Z" stroke="white" stroke-width="0.216"/>
<path d="M47.7051 9.60059L47.9322 10.7402" stroke="white" stroke-width="0.216"/>
<path d="M44.1484 10.2476L44.3719 11.3763" stroke="white" stroke-width="0.216"/>
<path d="M25.5391 31.2766C25.544 30.7909 25.549 30.3051 25.5606 29.8883C25.5721 29.4714 25.5904 29.1236 25.6061 28.7653C25.6219 28.407 25.6351 28.0383 25.6483 27.6608C25.6616 27.2833 25.6749 26.8968 25.6815 26.7037C25.6881 26.5105 25.6881 26.5105 25.7104 26.1739C25.7328 25.8373 25.7775 25.1638 25.866 24.4905C25.9547 23.8172 26.0871 23.144 26.2626 22.4322C26.4382 21.7203 26.6568 20.9702 26.8555 20.3899C27.0542 19.8095 27.2331 19.3991 27.5221 18.8356C27.811 18.272 28.2102 17.5552 28.539 16.9969C28.8678 16.4387 29.1264 16.0391 29.5458 15.4892C29.9652 14.9392 30.5454 14.239 31.0456 13.6741C31.5457 13.1093 31.9658 12.6795 32.5378 12.1754C33.11 11.6711 33.8341 11.0924 34.5417 10.5958C35.2494 10.0992 35.9406 9.68458 36.8141 9.26951C37.6877 8.85435 38.7436 8.43861 39.6205 8.13745C40.4976 7.83629 41.1958 7.6497 41.9074 7.50367C42.6188 7.35765 43.3436 7.25227 44.1129 7.16857C44.8823 7.08487 45.6962 7.02264 46.252 7.00519C46.8079 6.98774 47.1057 7.01497 47.3309 7.07672C47.556 7.13846 47.7085 7.23473 47.8058 7.48536C47.9031 7.73599 47.9452 8.141 47.9683 8.50784C47.9913 8.87468 47.9953 9.20336 47.9973 9.3677C47.9993 9.53204 47.9993 9.53204 47.9993 9.53204" stroke="white" stroke-width="0.216"/>
<path d="M43.862 10.3001C43.7763 10.2238 43.6905 10.1474 43.6466 10.0419C43.6027 9.93632 43.6007 9.8017 43.5996 9.7343C43.5986 9.66699 43.5986 9.66699 43.5986 9.66699" stroke="white" stroke-width="0.216"/>
<path d="M43.3818 10.1318C42.8951 10.2655 42.4084 10.3992 41.7764 10.5924C41.1445 10.7856 40.3674 11.0383 39.7023 11.3077C39.0373 11.5771 38.4844 11.8634 37.8672 12.2305C37.25 12.5976 36.5688 13.0455 36.0058 13.465C35.4428 13.8847 34.9982 14.2762 34.583 14.6697C34.1678 15.0633 33.782 15.4591 33.4305 15.8608C33.0791 16.2627 32.7618 16.6704 32.4474 17.1052C32.133 17.5398 31.8212 18.0015 31.47 18.6301C31.1189 19.2588 30.7284 20.0547 30.4372 20.7052C30.1461 21.3559 29.9544 21.8611 29.781 22.4547C29.6078 23.0482 29.4531 23.7301 29.3532 24.2148C29.2531 24.6996 29.2079 24.9874 29.1626 25.4845C29.1174 25.9815 29.0722 26.688 29.048 27.1856C29.0239 27.6832 29.0208 27.972 29.0193 28.1196C29.0178 28.2672 29.0177 28.2737 29.0176 28.2801" stroke="white" stroke-width="0.216"/>
<path d="M29.0156 28.4917C29.0443 28.9279 29.0728 29.364 29.1103 29.8128C29.1478 30.2618 29.1942 30.7234 29.2174 30.9543C29.2406 31.1852 29.2406 31.1852 29.2406 31.1852" stroke="white" stroke-width="0.216"/>
<path d="M29.0176 28.2803C29.0194 28.3894 29.0211 28.4986 29.022 28.5532C29.0229 28.6078 29.0229 28.6078 29.0229 28.6078" stroke="white" stroke-width="0.216"/>
<path d="M29.3713 31.2185C29.3472 31.1993 29.323 31.1802 29.3063 31.1699C29.2896 31.1595 29.2805 31.1579 29.276 31.157C29.2715 31.1563 29.2715 31.1562 29.2715 31.1562" stroke="white" stroke-width="0.216"/>
<path d="M25.4131 31.3516C25.4494 31.3201 25.4859 31.2886 25.5071 31.2725C25.5283 31.2564 25.5342 31.2556 25.5403 31.2549" stroke="white" stroke-width="0.216"/>
<path d="M43.9709 9.90606C43.9298 9.60931 43.8887 9.31256 43.872 9.08983C43.8553 8.86719 43.8631 8.71867 43.7496 8.65539C43.6362 8.59221 43.4015 8.61426 42.8744 8.70957C42.3474 8.80487 41.5279 8.97324 40.67 9.2396C39.812 9.50605 38.9157 9.8704 38.0696 10.2777C37.2235 10.6848 36.4277 11.135 35.7832 11.517C35.1387 11.8991 34.6455 12.2133 34.033 12.763C33.4205 13.3129 32.689 14.0985 32.0452 14.8558C31.4014 15.6133 30.8455 16.3427 30.4418 16.9601C30.0383 17.5777 29.7871 18.0832 29.4839 18.7326C29.1807 19.382 28.8256 20.1754 28.586 20.7012C28.3465 21.227 28.2224 21.4852 28.1605 21.6142C28.0986 21.7434 28.0986 21.7434 28.0986 21.7434" stroke="white" stroke-width="0.216"/>
<path d="M43.3828 10.1322C43.4568 10.1118 43.5307 10.0916 43.6047 10.0713" stroke="white" stroke-width="0.216"/>
<path d="M46.5974 9.13769C46.5058 8.62751 46.4143 8.11752 46.4103 7.80217C46.4063 7.48672 46.4899 7.3662 46.5963 7.27837C46.7027 7.19054 46.8318 7.1356 46.961 7.08057" stroke="white" stroke-width="0.216"/>
<path d="M45.6111 7.72656C45.1064 7.73395 44.6017 7.74133 43.7847 7.82417C42.9677 7.90691 41.8384 8.06521 40.941 8.23924C40.0436 8.41326 39.3782 8.60311 38.565 8.9477C37.7518 9.2923 36.7909 9.79165 36.3105 10.0414C35.8301 10.2911 35.8301 10.2911 35.8301 10.2911" stroke="white" stroke-width="0.216"/>
<defs>
<linearGradient id="paint0_linear_973_2040" x1="102" y1="0.000488281" x2="102" y2="58.0003" gradientUnits="userSpaceOnUse">
<stop stop-color="#101F52"/>
<stop offset="0.9999" stop-color="#101F52" stop-opacity="0.8125"/>
<stop offset="1" stop-color="#101F52" stop-opacity="0"/>
</linearGradient>
</defs>
</svg>
