<svg width="230" height="58" viewBox="0 0 230 58" fill="none" xmlns="http://www.w3.org/2000/svg">
<rect y="0.000488281" width="230" height="57.9998" rx="5" fill="url(#paint0_linear_964_1085)"/>
<path d="M108.203 48.6508C92.5833 49.9501 74.7645 53.3013 71.8242 53.8663C71.5402 53.9209 71.2814 54.0339 71.0451 54.2005C69.404 55.3577 70.2227 57.9397 72.2309 57.9397H224.923C227.684 57.9397 229.923 55.7012 229.923 52.9397V46.623C229.923 43.5411 227.162 41.1929 224.12 41.6879L216.713 42.8932L193.124 45.0043L169.773 47.0941C169.614 47.1083 169.48 47.115 169.32 47.1142C166.162 47.0969 128.856 46.9327 108.203 48.6508Z" fill="#0F2458" fill-opacity="0.5"/>
<path d="M136.198 49.99C124.291 51.091 110.724 53.9133 108.258 54.4386C107.997 54.4942 107.754 54.6089 107.544 54.7734C106.219 55.8121 106.953 57.94 108.637 57.94H224.923C227.684 57.94 229.923 55.7014 229.923 52.94V49.2081C229.923 46.0904 227.101 43.7331 224.033 44.2879L219.751 45.0623L201.588 46.8691L183.689 48.6496C183.512 48.6672 183.353 48.6754 183.176 48.6744C180.238 48.6574 151.938 48.5347 136.198 49.99Z" fill="#0D2862" fill-opacity="0.5"/>
<path d="M120.572 12.4689C135.612 10.7725 152.712 6.47027 156.315 5.53836C156.774 5.41944 157.183 5.18651 157.526 4.8584C159.364 3.10101 158.12 -1.80105e-05 155.577 -1.80105e-05L5.06866 -1.80105e-05C2.30723 -1.80105e-05 0.0686604 2.23856 0.0686604 4.99998L0.0686604 16.8596C0.0686604 20.0552 3.02533 22.4307 6.1459 21.7422L13.1465 20.1976L36.4998 17.3638L59.5309 14.569C59.7454 14.543 59.9365 14.5307 60.1526 14.5322C63.821 14.5583 100.3 14.7555 120.572 12.4689Z" fill="#0F2458" fill-opacity="0.7"/>
<path d="M105.965 9.37271C119.373 8.07915 134.643 4.76999 137.505 4.13444C137.821 4.06429 138.11 3.92139 138.361 3.71655C139.885 2.47011 139.003 7.23182e-05 137.035 7.23182e-05L5.06819 7.23182e-05C2.30676 7.23182e-05 0.0681898 2.23865 0.0681898 5.00007L0.0681898 11.3192C0.0681898 14.4523 2.91667 16.8135 5.99542 16.2325L11.5608 15.1822L32.0834 13.0521L52.3297 10.9506C52.5137 10.9315 52.6762 10.9225 52.8613 10.9236C56.0399 10.943 88.1352 11.0929 105.965 9.37271Z" fill="#0D2862" fill-opacity="0.7"/>
<g opacity="0.89">
<path d="M103.072 22.12C102.683 22.12 102.328 22.056 102.008 21.928C101.688 21.8 101.413 21.6133 101.184 21.368C100.955 21.1227 100.776 20.8213 100.648 20.464C100.525 20.1013 100.464 19.688 100.464 19.224C100.464 18.76 100.533 18.3493 100.672 17.992C100.816 17.6293 101.008 17.3253 101.248 17.08C101.488 16.8347 101.768 16.648 102.088 16.52C102.408 16.392 102.749 16.328 103.112 16.328C103.341 16.328 103.547 16.344 103.728 16.376C103.915 16.408 104.075 16.4453 104.208 16.488C104.347 16.5307 104.459 16.5733 104.544 16.616C104.629 16.6587 104.688 16.6907 104.72 16.712L104.496 17.352C104.448 17.32 104.379 17.2853 104.288 17.248C104.197 17.2107 104.093 17.1733 103.976 17.136C103.864 17.0987 103.739 17.0693 103.6 17.048C103.467 17.0213 103.331 17.008 103.192 17.008C102.899 17.008 102.635 17.0587 102.4 17.16C102.165 17.2613 101.965 17.408 101.8 17.6C101.635 17.792 101.507 18.0267 101.416 18.304C101.331 18.576 101.288 18.8827 101.288 19.224C101.288 19.5547 101.325 19.856 101.4 20.128C101.48 20.4 101.597 20.6347 101.752 20.832C101.907 21.024 102.099 21.1733 102.328 21.28C102.563 21.3867 102.835 21.44 103.144 21.44C103.501 21.44 103.797 21.4027 104.032 21.328C104.267 21.2533 104.443 21.1867 104.56 21.128L104.76 21.768C104.723 21.7947 104.656 21.8293 104.56 21.872C104.464 21.9093 104.344 21.9467 104.2 21.984C104.056 22.0213 103.888 22.0533 103.696 22.08C103.504 22.1067 103.296 22.12 103.072 22.12ZM106.393 18.936C106.34 19.464 106.3 19.992 106.273 20.52C106.246 21.0427 106.225 21.536 106.209 22H105.497C105.508 21.6747 105.524 21.336 105.545 20.984C105.566 20.6267 105.59 20.2693 105.617 19.912C105.644 19.5493 105.673 19.1947 105.705 18.848C105.737 18.496 105.772 18.16 105.809 17.84H106.489C106.66 18.1173 106.86 18.4987 107.089 18.984C107.318 19.464 107.582 20.0187 107.881 20.648C108.18 20.0187 108.444 19.464 108.673 18.984C108.902 18.4987 109.102 18.1173 109.273 17.84H109.961C109.998 18.16 110.033 18.496 110.065 18.848C110.097 19.1947 110.126 19.5493 110.153 19.912C110.18 20.2693 110.204 20.6267 110.225 20.984C110.246 21.336 110.262 21.6747 110.273 22H109.537C109.521 21.536 109.5 21.0427 109.473 20.52C109.446 19.992 109.406 19.464 109.353 18.936C109.268 19.1013 109.169 19.3013 109.057 19.536C108.945 19.7653 108.833 20 108.721 20.24C108.614 20.48 108.513 20.7093 108.417 20.928C108.321 21.1467 108.246 21.32 108.193 21.448H107.569C107.51 21.3147 107.43 21.1387 107.329 20.92C107.233 20.7013 107.129 20.472 107.017 20.232C106.91 19.9867 106.801 19.7493 106.689 19.52C106.577 19.2853 106.478 19.0907 106.393 18.936ZM111.221 19.928C111.221 19.56 111.274 19.24 111.381 18.968C111.487 18.6907 111.629 18.4613 111.805 18.28C111.981 18.0987 112.183 17.9627 112.413 17.872C112.642 17.7813 112.877 17.736 113.117 17.736C113.677 17.736 114.106 17.912 114.405 18.264C114.703 18.6107 114.852 19.1413 114.852 19.856C114.852 19.888 114.852 19.9307 114.852 19.984C114.852 20.032 114.85 20.0773 114.845 20.12H111.997C112.029 20.552 112.154 20.88 112.373 21.104C112.591 21.328 112.933 21.44 113.397 21.44C113.658 21.44 113.877 21.4187 114.053 21.376C114.234 21.328 114.37 21.2827 114.461 21.24L114.565 21.864C114.474 21.912 114.314 21.9627 114.085 22.016C113.861 22.0693 113.605 22.096 113.317 22.096C112.954 22.096 112.639 22.0427 112.373 21.936C112.111 21.824 111.895 21.672 111.725 21.48C111.554 21.288 111.426 21.0613 111.34 20.8C111.261 20.5333 111.221 20.2427 111.221 19.928ZM114.077 19.52C114.082 19.184 113.997 18.9093 113.821 18.696C113.65 18.4773 113.413 18.368 113.109 18.368C112.938 18.368 112.786 18.4027 112.653 18.472C112.525 18.536 112.415 18.6213 112.325 18.728C112.234 18.8347 112.162 18.9573 112.109 19.096C112.061 19.2347 112.029 19.376 112.013 19.52H114.077ZM117.729 22.096C117.393 22.096 117.097 22.0427 116.841 21.936C116.591 21.8293 116.377 21.68 116.201 21.488C116.031 21.296 115.903 21.0693 115.817 20.808C115.732 20.5413 115.689 20.248 115.689 19.928C115.689 19.608 115.735 19.3147 115.825 19.048C115.921 18.7813 116.055 18.552 116.225 18.36C116.396 18.1627 116.604 18.0107 116.849 17.904C117.1 17.792 117.377 17.736 117.681 17.736C117.868 17.736 118.055 17.752 118.241 17.784C118.428 17.816 118.607 17.8667 118.777 17.936L118.609 18.568C118.497 18.5147 118.367 18.472 118.217 18.44C118.073 18.408 117.919 18.392 117.753 18.392C117.337 18.392 117.017 18.5227 116.793 18.784C116.575 19.0453 116.465 19.4267 116.465 19.928C116.465 20.152 116.489 20.3573 116.537 20.544C116.591 20.7307 116.671 20.8907 116.777 21.024C116.889 21.1573 117.031 21.2613 117.201 21.336C117.372 21.4053 117.58 21.44 117.825 21.44C118.023 21.44 118.201 21.4213 118.361 21.384C118.521 21.3467 118.647 21.3067 118.737 21.264L118.841 21.888C118.799 21.9147 118.737 21.9413 118.657 21.968C118.577 21.9893 118.487 22.008 118.385 22.024C118.284 22.0453 118.175 22.0613 118.057 22.072C117.945 22.088 117.836 22.096 117.729 22.096ZM123.136 17.84V22H122.416V18.832C122.256 19.0347 122.08 19.272 121.888 19.544C121.696 19.816 121.504 20.0987 121.312 20.392C121.12 20.68 120.936 20.9653 120.76 21.248C120.584 21.5307 120.432 21.7813 120.304 22H119.64V17.84H120.36V20.832C120.499 20.6027 120.656 20.352 120.832 20.08C121.008 19.8027 121.189 19.5307 121.376 19.264C121.568 18.992 121.757 18.7333 121.944 18.488C122.136 18.2373 122.315 18.0213 122.48 17.84H123.136ZM127.349 17.84V18.464H125.997V22H125.253V18.464H123.901V17.84H127.349ZM127.885 19.928C127.885 19.56 127.938 19.24 128.045 18.968C128.151 18.6907 128.293 18.4613 128.469 18.28C128.645 18.0987 128.847 17.9627 129.077 17.872C129.306 17.7813 129.541 17.736 129.781 17.736C130.341 17.736 130.77 17.912 131.069 18.264C131.367 18.6107 131.517 19.1413 131.517 19.856C131.517 19.888 131.517 19.9307 131.517 19.984C131.517 20.032 131.514 20.0773 131.509 20.12H128.661C128.693 20.552 128.818 20.88 129.037 21.104C129.255 21.328 129.597 21.44 130.061 21.44C130.322 21.44 130.541 21.4187 130.717 21.376C130.898 21.328 131.034 21.2827 131.125 21.24L131.229 21.864C131.138 21.912 130.978 21.9627 130.749 22.016C130.525 22.0693 130.269 22.096 129.981 22.096C129.618 22.096 129.303 22.0427 129.037 21.936C128.775 21.824 128.559 21.672 128.389 21.48C128.218 21.288 128.09 21.0613 128.005 20.8C127.925 20.5333 127.885 20.2427 127.885 19.928ZM130.741 19.52C130.746 19.184 130.661 18.9093 130.485 18.696C130.314 18.4773 130.077 18.368 129.773 18.368C129.602 18.368 129.45 18.4027 129.317 18.472C129.189 18.536 129.079 18.6213 128.989 18.728C128.898 18.8347 128.826 18.9573 128.773 19.096C128.725 19.2347 128.693 19.376 128.677 19.52H130.741ZM134.033 18.464C134.033 18.64 134.028 18.8293 134.017 19.032C134.012 19.2293 133.999 19.4293 133.977 19.632C133.956 19.8293 133.927 20.0267 133.889 20.224C133.852 20.416 133.804 20.5973 133.745 20.768C133.687 20.9387 133.612 21.0987 133.521 21.248C133.436 21.3973 133.329 21.5307 133.201 21.648C133.073 21.76 132.924 21.856 132.753 21.936C132.583 22.0107 132.383 22.0587 132.153 22.08L132.049 21.456C132.311 21.4027 132.516 21.304 132.665 21.16C132.82 21.016 132.943 20.84 133.033 20.632C133.113 20.4507 133.172 20.2453 133.209 20.016C133.247 19.7867 133.273 19.5493 133.289 19.304C133.305 19.0533 133.313 18.8027 133.313 18.552C133.319 18.3013 133.321 18.064 133.321 17.84H136.089V22H135.345V18.464H134.033ZM138.943 21.48C139.257 21.48 139.505 21.4187 139.687 21.296C139.868 21.1733 139.959 20.976 139.959 20.704C139.959 20.5707 139.932 20.456 139.879 20.36C139.825 20.264 139.751 20.1867 139.655 20.128C139.564 20.064 139.457 20.0187 139.335 19.992C139.212 19.96 139.081 19.944 138.943 19.944C138.799 19.944 138.649 19.9493 138.495 19.96C138.345 19.9653 138.217 19.9813 138.111 20.008V21.44C138.143 21.4453 138.191 21.4507 138.255 21.456C138.319 21.4613 138.388 21.4667 138.463 21.472C138.543 21.472 138.623 21.4747 138.703 21.48C138.788 21.48 138.868 21.48 138.943 21.48ZM137.367 21.912V17.84H138.111V19.432C138.153 19.4213 138.209 19.4107 138.279 19.4C138.353 19.3893 138.431 19.3787 138.511 19.368C138.596 19.3573 138.684 19.3493 138.775 19.344C138.865 19.3387 138.951 19.336 139.031 19.336C139.26 19.336 139.476 19.3627 139.679 19.416C139.881 19.464 140.057 19.544 140.207 19.656C140.361 19.7627 140.484 19.904 140.575 20.08C140.665 20.2507 140.711 20.456 140.711 20.696C140.711 20.9467 140.668 21.16 140.583 21.336C140.497 21.512 140.375 21.656 140.215 21.768C140.055 21.88 139.863 21.96 139.639 22.008C139.42 22.0613 139.175 22.088 138.903 22.088C138.636 22.088 138.375 22.072 138.119 22.04C137.863 22.0133 137.612 21.9707 137.367 21.912ZM142.933 21.392H143.381C143.557 21.136 143.695 20.872 143.797 20.6C143.903 20.328 143.983 20.048 144.037 19.76C144.09 19.4667 144.125 19.1627 144.141 18.848C144.157 18.528 144.167 18.192 144.173 17.84H146.901V21.392H147.461V23.16H146.757V22H143.637V23.16H142.933V21.392ZM146.157 21.392V18.464H144.853C144.847 18.7147 144.834 18.968 144.813 19.224C144.791 19.4747 144.757 19.7253 144.709 19.976C144.661 20.2213 144.591 20.464 144.501 20.704C144.415 20.9387 144.306 21.168 144.173 21.392H146.157ZM149.885 18.464C149.885 18.64 149.88 18.8293 149.869 19.032C149.864 19.2293 149.85 19.4293 149.829 19.632C149.808 19.8293 149.778 20.0267 149.741 20.224C149.704 20.416 149.656 20.5973 149.597 20.768C149.538 20.9387 149.464 21.0987 149.373 21.248C149.288 21.3973 149.181 21.5307 149.053 21.648C148.925 21.76 148.776 21.856 148.605 21.936C148.434 22.0107 148.234 22.0587 148.005 22.08L147.901 21.456C148.162 21.4027 148.368 21.304 148.517 21.16C148.672 21.016 148.794 20.84 148.885 20.632C148.965 20.4507 149.024 20.2453 149.061 20.016C149.098 19.7867 149.125 19.5493 149.141 19.304C149.157 19.0533 149.165 18.8027 149.165 18.552C149.17 18.3013 149.173 18.064 149.173 17.84H151.941V22H151.197V18.464H149.885ZM154.938 20.384C154.858 20.384 154.781 20.384 154.706 20.384C154.631 20.3787 154.559 20.3733 154.49 20.368C154.319 20.624 154.154 20.8987 153.994 21.192C153.839 21.48 153.701 21.7493 153.578 22H152.826C152.89 21.8453 152.965 21.688 153.05 21.528C153.135 21.3627 153.221 21.2027 153.306 21.048C153.397 20.8933 153.487 20.7467 153.578 20.608C153.669 20.4693 153.754 20.344 153.834 20.232C153.685 20.1787 153.562 20.1147 153.466 20.04C153.37 19.96 153.293 19.872 153.234 19.776C153.175 19.68 153.133 19.5787 153.106 19.472C153.085 19.36 153.074 19.248 153.074 19.136C153.074 18.9013 153.117 18.696 153.202 18.52C153.293 18.344 153.415 18.2 153.57 18.088C153.725 17.9707 153.906 17.8827 154.114 17.824C154.327 17.7653 154.559 17.736 154.81 17.736C155.162 17.736 155.461 17.752 155.706 17.784C155.951 17.816 156.157 17.8533 156.322 17.896V22H155.586V20.384H154.938ZM155.586 18.392C155.527 18.3813 155.429 18.3707 155.29 18.36C155.157 18.3493 155.002 18.344 154.826 18.344C154.522 18.344 154.277 18.408 154.09 18.536C153.903 18.6587 153.81 18.856 153.81 19.128C153.81 19.3947 153.906 19.5787 154.098 19.68C154.29 19.7813 154.538 19.832 154.842 19.832H155.586V18.392ZM160.181 21.44C160.213 21.4453 160.258 21.4507 160.317 21.456C160.375 21.4613 160.442 21.4667 160.517 21.472C160.591 21.472 160.669 21.4747 160.749 21.48C160.834 21.48 160.914 21.48 160.989 21.48C161.143 21.48 161.29 21.4693 161.429 21.448C161.573 21.4267 161.695 21.3893 161.797 21.336C161.903 21.2827 161.986 21.2133 162.045 21.128C162.109 21.0373 162.141 20.9227 162.141 20.784C162.141 20.6507 162.111 20.5413 162.053 20.456C161.999 20.3653 161.925 20.2933 161.829 20.24C161.733 20.1867 161.618 20.1493 161.485 20.128C161.357 20.1067 161.218 20.096 161.069 20.096H160.181V21.44ZM160.973 19.544C161.117 19.544 161.247 19.536 161.365 19.52C161.487 19.4987 161.591 19.464 161.677 19.416C161.767 19.368 161.837 19.304 161.885 19.224C161.938 19.144 161.965 19.0427 161.965 18.92C161.965 18.792 161.933 18.6907 161.869 18.616C161.805 18.5413 161.719 18.4853 161.613 18.448C161.511 18.4053 161.394 18.3787 161.261 18.368C161.133 18.352 161.002 18.344 160.868 18.344C160.746 18.344 160.621 18.3467 160.493 18.352C160.37 18.3573 160.266 18.3627 160.181 18.368V19.544H160.973ZM160.957 22.072C160.642 22.072 160.351 22.056 160.085 22.024C159.818 21.9973 159.607 21.9653 159.453 21.928V17.88C159.607 17.8427 159.818 17.8107 160.085 17.784C160.351 17.752 160.642 17.736 160.957 17.736C161.175 17.736 161.389 17.7547 161.597 17.792C161.805 17.8293 161.989 17.8933 162.149 17.984C162.309 18.0693 162.437 18.1893 162.533 18.344C162.634 18.4933 162.685 18.68 162.685 18.904C162.685 19.1067 162.634 19.28 162.533 19.424C162.431 19.568 162.295 19.68 162.125 19.76C162.354 19.84 162.535 19.96 162.669 20.12C162.807 20.2747 162.877 20.4933 162.877 20.776C162.877 21.0267 162.826 21.2347 162.725 21.4C162.629 21.5653 162.493 21.6987 162.317 21.8C162.146 21.9013 161.943 21.9707 161.709 22.008C161.474 22.0507 161.223 22.072 160.957 22.072ZM165.243 21.464C165.419 21.464 165.574 21.4613 165.707 21.456C165.846 21.4453 165.961 21.4293 166.051 21.408V20.168C165.998 20.1413 165.91 20.12 165.787 20.104C165.67 20.0827 165.526 20.072 165.355 20.072C165.243 20.072 165.123 20.08 164.995 20.096C164.873 20.112 164.758 20.1467 164.651 20.2C164.55 20.248 164.465 20.3173 164.395 20.408C164.326 20.4933 164.291 20.608 164.291 20.752C164.291 21.0187 164.377 21.2053 164.547 21.312C164.718 21.4133 164.95 21.464 165.243 21.464ZM165.179 17.736C165.478 17.736 165.729 17.776 165.931 17.856C166.139 17.9307 166.305 18.04 166.427 18.184C166.555 18.3227 166.646 18.4907 166.699 18.688C166.753 18.88 166.779 19.0933 166.779 19.328V21.928C166.715 21.9387 166.625 21.9547 166.507 21.976C166.395 21.992 166.267 22.008 166.123 22.024C165.979 22.04 165.822 22.0533 165.651 22.064C165.486 22.08 165.321 22.088 165.155 22.088C164.921 22.088 164.705 22.064 164.507 22.016C164.31 21.968 164.139 21.8933 163.995 21.792C163.851 21.6853 163.739 21.5467 163.659 21.376C163.579 21.2053 163.539 21 163.539 20.76C163.539 20.5307 163.585 20.3333 163.675 20.168C163.771 20.0027 163.899 19.8693 164.059 19.768C164.219 19.6667 164.406 19.592 164.619 19.544C164.833 19.496 165.057 19.472 165.291 19.472C165.366 19.472 165.443 19.4773 165.523 19.488C165.603 19.4933 165.678 19.504 165.747 19.52C165.822 19.5307 165.886 19.5413 165.939 19.552C165.993 19.5627 166.03 19.5707 166.051 19.576V19.368C166.051 19.2453 166.038 19.1253 166.011 19.008C165.985 18.8853 165.937 18.7787 165.867 18.688C165.798 18.592 165.702 18.5173 165.579 18.464C165.462 18.4053 165.307 18.376 165.115 18.376C164.87 18.376 164.654 18.3947 164.467 18.432C164.286 18.464 164.15 18.4987 164.059 18.536L163.971 17.92C164.067 17.8773 164.227 17.8373 164.451 17.8C164.675 17.7573 164.918 17.736 165.179 17.736ZM171.423 22H170.679V20.16H168.759V22H168.015V17.84H168.759V19.536H170.679V17.84H171.423V22ZM176.111 22H175.367V20.16H173.447V22H172.703V17.84H173.447V19.536H175.367V17.84H176.111V22ZM181.062 19.92C181.062 20.2507 181.014 20.5493 180.918 20.816C180.822 21.0827 180.686 21.312 180.51 21.504C180.339 21.696 180.134 21.8453 179.894 21.952C179.654 22.0533 179.393 22.104 179.11 22.104C178.827 22.104 178.566 22.0533 178.326 21.952C178.086 21.8453 177.878 21.696 177.702 21.504C177.531 21.312 177.398 21.0827 177.302 20.816C177.206 20.5493 177.158 20.2507 177.158 19.92C177.158 19.5947 177.206 19.2987 177.302 19.032C177.398 18.76 177.531 18.528 177.702 18.336C177.878 18.144 178.086 17.9973 178.326 17.896C178.566 17.7893 178.827 17.736 179.11 17.736C179.393 17.736 179.654 17.7893 179.894 17.896C180.134 17.9973 180.339 18.144 180.51 18.336C180.686 18.528 180.822 18.76 180.918 19.032C181.014 19.2987 181.062 19.5947 181.062 19.92ZM180.286 19.92C180.286 19.4507 180.179 19.08 179.966 18.808C179.758 18.5307 179.473 18.392 179.11 18.392C178.747 18.392 178.459 18.5307 178.246 18.808C178.038 19.08 177.934 19.4507 177.934 19.92C177.934 20.3893 178.038 20.7627 178.246 21.04C178.459 21.312 178.747 21.448 179.11 21.448C179.473 21.448 179.758 21.312 179.966 21.04C180.179 20.7627 180.286 20.3893 180.286 19.92ZM185.605 17.84V22H184.885V18.832C184.725 19.0347 184.549 19.272 184.357 19.544C184.165 19.816 183.973 20.0987 183.781 20.392C183.589 20.68 183.405 20.9653 183.229 21.248C183.053 21.5307 182.901 21.7813 182.773 22H182.109V17.84H182.829V20.832C182.967 20.6027 183.125 20.352 183.301 20.08C183.477 19.8027 183.658 19.5307 183.845 19.264C184.037 18.992 184.226 18.7333 184.413 18.488C184.605 18.2373 184.783 18.0213 184.949 17.84H185.605ZM183.861 17.168C183.525 17.168 183.25 17.0827 183.037 16.912C182.829 16.7413 182.703 16.504 182.661 16.2L183.229 16.048C183.271 16.2187 183.343 16.3573 183.445 16.464C183.546 16.5707 183.685 16.624 183.861 16.624C184.037 16.624 184.175 16.5707 184.277 16.464C184.378 16.3573 184.45 16.2187 184.493 16.048L185.053 16.2C185.01 16.504 184.885 16.7413 184.677 16.912C184.469 17.0827 184.197 17.168 183.861 17.168ZM192.23 17.84V22H191.51V18.832C191.35 19.0347 191.174 19.272 190.982 19.544C190.79 19.816 190.598 20.0987 190.406 20.392C190.214 20.68 190.03 20.9653 189.854 21.248C189.678 21.5307 189.526 21.7813 189.398 22H188.734V17.84H189.454V20.832C189.592 20.6027 189.75 20.352 189.926 20.08C190.102 19.8027 190.283 19.5307 190.47 19.264C190.662 18.992 190.851 18.7333 191.038 18.488C191.23 18.2373 191.408 18.0213 191.574 17.84H192.23ZM100.152 31.776C100.211 31.8027 100.285 31.8267 100.376 31.848C100.472 31.8747 100.565 31.888 100.656 31.888C100.949 31.888 101.179 31.8213 101.344 31.688C101.509 31.56 101.659 31.3493 101.792 31.056C101.456 30.416 101.141 29.7387 100.848 29.024C100.56 28.304 100.32 27.576 100.128 26.84H100.928C100.987 27.08 101.056 27.3387 101.136 27.616C101.221 27.8933 101.315 28.1787 101.416 28.472C101.517 28.7653 101.627 29.0587 101.744 29.352C101.861 29.6453 101.984 29.928 102.112 30.2C102.315 29.64 102.491 29.0853 102.64 28.536C102.789 27.9867 102.931 27.4213 103.064 26.84H103.832C103.64 27.624 103.427 28.3787 103.192 29.104C102.957 29.824 102.704 30.4987 102.432 31.128C102.325 31.368 102.213 31.5733 102.096 31.744C101.984 31.92 101.859 32.064 101.72 32.176C101.581 32.288 101.424 32.3707 101.248 32.424C101.077 32.4773 100.883 32.504 100.664 32.504C100.605 32.504 100.544 32.4987 100.48 32.488C100.416 32.4827 100.352 32.472 100.288 32.456C100.229 32.4453 100.173 32.432 100.12 32.416C100.072 32.4 100.037 32.3867 100.016 32.376L100.152 31.776ZM105.409 27.936C105.355 28.464 105.315 28.992 105.289 29.52C105.262 30.0427 105.241 30.536 105.225 31H104.513C104.523 30.6747 104.539 30.336 104.561 29.984C104.582 29.6267 104.606 29.2693 104.633 28.912C104.659 28.5493 104.689 28.1947 104.721 27.848C104.753 27.496 104.787 27.16 104.825 26.84H105.505C105.675 27.1173 105.875 27.4987 106.105 27.984C106.334 28.464 106.598 29.0187 106.897 29.648C107.195 29.0187 107.459 28.464 107.689 27.984C107.918 27.4987 108.118 27.1173 108.289 26.84H108.977C109.014 27.16 109.049 27.496 109.081 27.848C109.113 28.1947 109.142 28.5493 109.169 28.912C109.195 29.2693 109.219 29.6267 109.241 29.984C109.262 30.336 109.278 30.6747 109.289 31H108.553C108.537 30.536 108.515 30.0427 108.489 29.52C108.462 28.992 108.422 28.464 108.369 27.936C108.283 28.1013 108.185 28.3013 108.073 28.536C107.961 28.7653 107.849 29 107.737 29.24C107.63 29.48 107.529 29.7093 107.433 29.928C107.337 30.1467 107.262 30.32 107.209 30.448H106.585C106.526 30.3147 106.446 30.1387 106.345 29.92C106.249 29.7013 106.145 29.472 106.033 29.232C105.926 28.9867 105.817 28.7493 105.705 28.52C105.593 28.2853 105.494 28.0907 105.409 27.936ZM111.996 28.944C111.852 28.944 111.711 28.9493 111.572 28.96C111.439 28.9653 111.319 28.9813 111.212 29.008V30.44C111.244 30.4453 111.289 30.4507 111.348 30.456C111.412 30.4613 111.479 30.4667 111.548 30.472C111.623 30.472 111.697 30.4747 111.772 30.48C111.847 30.48 111.913 30.48 111.972 30.48C112.297 30.48 112.548 30.4187 112.724 30.296C112.9 30.1733 112.988 29.976 112.988 29.704C112.988 29.5707 112.959 29.456 112.9 29.36C112.847 29.264 112.772 29.1867 112.676 29.128C112.585 29.064 112.481 29.0187 112.364 28.992C112.247 28.96 112.124 28.944 111.996 28.944ZM110.468 26.84H111.212V28.432C111.303 28.4107 111.433 28.3893 111.604 28.368C111.78 28.3467 111.948 28.336 112.108 28.336C112.327 28.336 112.535 28.3627 112.732 28.416C112.929 28.464 113.103 28.544 113.252 28.656C113.401 28.7627 113.519 28.904 113.604 29.08C113.695 29.2507 113.74 29.456 113.74 29.696C113.74 29.9467 113.697 30.16 113.612 30.336C113.527 30.512 113.407 30.656 113.252 30.768C113.097 30.88 112.911 30.96 112.692 31.008C112.473 31.0613 112.233 31.088 111.972 31.088C111.721 31.088 111.468 31.072 111.212 31.04C110.956 31.0133 110.708 30.9707 110.468 30.912V26.84ZM115.252 31H114.508V26.84H115.252V31ZM117.259 30.44C117.291 30.4453 117.336 30.4507 117.395 30.456C117.453 30.4613 117.52 30.4667 117.595 30.472C117.669 30.472 117.747 30.4747 117.827 30.48C117.912 30.48 117.992 30.48 118.067 30.48C118.221 30.48 118.368 30.4693 118.507 30.448C118.651 30.4267 118.773 30.3893 118.875 30.336C118.981 30.2827 119.064 30.2133 119.123 30.128C119.187 30.0373 119.219 29.9227 119.219 29.784C119.219 29.6507 119.189 29.5413 119.131 29.456C119.077 29.3653 119.003 29.2933 118.907 29.24C118.811 29.1867 118.696 29.1493 118.563 29.128C118.435 29.1067 118.296 29.096 118.147 29.096H117.259V30.44ZM118.051 28.544C118.195 28.544 118.325 28.536 118.443 28.52C118.565 28.4987 118.669 28.464 118.755 28.416C118.845 28.368 118.915 28.304 118.963 28.224C119.016 28.144 119.043 28.0427 119.043 27.92C119.043 27.792 119.011 27.6907 118.947 27.616C118.883 27.5413 118.797 27.4853 118.691 27.448C118.589 27.4053 118.472 27.3787 118.339 27.368C118.211 27.352 118.08 27.344 117.947 27.344C117.824 27.344 117.699 27.3467 117.571 27.352C117.448 27.3573 117.344 27.3627 117.259 27.368V28.544H118.051ZM118.035 31.072C117.72 31.072 117.429 31.056 117.163 31.024C116.896 30.9973 116.685 30.9653 116.531 30.928V26.88C116.685 26.8427 116.896 26.8107 117.163 26.784C117.429 26.752 117.72 26.736 118.035 26.736C118.253 26.736 118.467 26.7547 118.675 26.792C118.883 26.8293 119.067 26.8933 119.227 26.984C119.387 27.0693 119.515 27.1893 119.611 27.344C119.712 27.4933 119.763 27.68 119.763 27.904C119.763 28.1067 119.712 28.28 119.611 28.424C119.509 28.568 119.373 28.68 119.203 28.76C119.432 28.84 119.613 28.96 119.747 29.12C119.885 29.2747 119.955 29.4933 119.955 29.776C119.955 30.0267 119.904 30.2347 119.803 30.4C119.707 30.5653 119.571 30.6987 119.395 30.8C119.224 30.9013 119.021 30.9707 118.787 31.008C118.552 31.0507 118.301 31.072 118.035 31.072ZM122.321 30.464C122.497 30.464 122.652 30.4613 122.785 30.456C122.924 30.4453 123.039 30.4293 123.129 30.408V29.168C123.076 29.1413 122.988 29.12 122.865 29.104C122.748 29.0827 122.604 29.072 122.433 29.072C122.321 29.072 122.201 29.08 122.073 29.096C121.951 29.112 121.836 29.1467 121.729 29.2C121.628 29.248 121.543 29.3173 121.473 29.408C121.404 29.4933 121.369 29.608 121.369 29.752C121.369 30.0187 121.455 30.2053 121.625 30.312C121.796 30.4133 122.028 30.464 122.321 30.464ZM122.257 26.736C122.556 26.736 122.807 26.776 123.009 26.856C123.217 26.9307 123.383 27.04 123.505 27.184C123.633 27.3227 123.724 27.4907 123.777 27.688C123.831 27.88 123.857 28.0933 123.857 28.328V30.928C123.793 30.9387 123.703 30.9547 123.585 30.976C123.473 30.992 123.345 31.008 123.201 31.024C123.057 31.04 122.9 31.0533 122.729 31.064C122.564 31.08 122.399 31.088 122.233 31.088C121.999 31.088 121.783 31.064 121.585 31.016C121.388 30.968 121.217 30.8933 121.073 30.792C120.929 30.6853 120.817 30.5467 120.737 30.376C120.657 30.2053 120.617 30 120.617 29.76C120.617 29.5307 120.663 29.3333 120.753 29.168C120.849 29.0027 120.977 28.8693 121.137 28.768C121.297 28.6667 121.484 28.592 121.697 28.544C121.911 28.496 122.135 28.472 122.369 28.472C122.444 28.472 122.521 28.4773 122.601 28.488C122.681 28.4933 122.756 28.504 122.825 28.52C122.9 28.5307 122.964 28.5413 123.017 28.552C123.071 28.5627 123.108 28.5707 123.129 28.576V28.368C123.129 28.2453 123.116 28.1253 123.089 28.008C123.063 27.8853 123.015 27.7787 122.945 27.688C122.876 27.592 122.78 27.5173 122.657 27.464C122.54 27.4053 122.385 27.376 122.193 27.376C121.948 27.376 121.732 27.3947 121.545 27.432C121.364 27.464 121.228 27.4987 121.137 27.536L121.049 26.92C121.145 26.8773 121.305 26.8373 121.529 26.8C121.753 26.7573 121.996 26.736 122.257 26.736ZM126.541 27.464C126.541 27.64 126.536 27.8293 126.525 28.032C126.52 28.2293 126.506 28.4293 126.485 28.632C126.464 28.8293 126.434 29.0267 126.397 29.224C126.36 29.416 126.312 29.5973 126.253 29.768C126.194 29.9387 126.12 30.0987 126.029 30.248C125.944 30.3973 125.837 30.5307 125.709 30.648C125.581 30.76 125.432 30.856 125.261 30.936C125.09 31.0107 124.89 31.0587 124.661 31.08L124.557 30.456C124.818 30.4027 125.024 30.304 125.173 30.16C125.328 30.016 125.45 29.84 125.541 29.632C125.621 29.4507 125.68 29.2453 125.717 29.016C125.754 28.7867 125.781 28.5493 125.797 28.304C125.813 28.0533 125.821 27.8027 125.821 27.552C125.826 27.3013 125.829 27.064 125.829 26.84H128.597V31H127.853V27.464H126.541ZM131.45 30.48C131.765 30.48 132.013 30.4187 132.194 30.296C132.376 30.1733 132.466 29.976 132.466 29.704C132.466 29.5707 132.44 29.456 132.386 29.36C132.333 29.264 132.258 29.1867 132.162 29.128C132.072 29.064 131.965 29.0187 131.842 28.992C131.72 28.96 131.589 28.944 131.45 28.944C131.306 28.944 131.157 28.9493 131.002 28.96C130.853 28.9653 130.725 28.9813 130.618 29.008V30.44C130.65 30.4453 130.698 30.4507 130.762 30.456C130.826 30.4613 130.896 30.4667 130.97 30.472C131.05 30.472 131.13 30.4747 131.21 30.48C131.296 30.48 131.376 30.48 131.45 30.48ZM129.874 30.912V26.84H130.618V28.432C130.661 28.4213 130.717 28.4107 130.786 28.4C130.861 28.3893 130.938 28.3787 131.018 28.368C131.104 28.3573 131.192 28.3493 131.282 28.344C131.373 28.3387 131.458 28.336 131.538 28.336C131.768 28.336 131.984 28.3627 132.186 28.416C132.389 28.464 132.565 28.544 132.714 28.656C132.869 28.7627 132.992 28.904 133.082 29.08C133.173 29.2507 133.218 29.456 133.218 29.696C133.218 29.9467 133.176 30.16 133.09 30.336C133.005 30.512 132.882 30.656 132.722 30.768C132.562 30.88 132.37 30.96 132.146 31.008C131.928 31.0613 131.682 31.088 131.41 31.088C131.144 31.088 130.882 31.072 130.626 31.04C130.37 31.0133 130.12 30.9707 129.874 30.912ZM137.509 31H136.765V29.16H134.845V31H134.101V26.84H134.845V28.536H136.765V26.84H137.509V31ZM142.284 26.84V31H141.564V27.832C141.404 28.0347 141.228 28.272 141.036 28.544C140.844 28.816 140.652 29.0987 140.46 29.392C140.268 29.68 140.084 29.9653 139.908 30.248C139.732 30.5307 139.58 30.7813 139.452 31H138.788V26.84H139.508V29.832C139.647 29.6027 139.804 29.352 139.98 29.08C140.156 28.8027 140.338 28.5307 140.524 28.264C140.716 27.992 140.906 27.7333 141.092 27.488C141.284 27.2373 141.463 27.0213 141.628 26.84H142.284ZM145.082 28.736C145.247 28.8533 145.426 29.0027 145.618 29.184C145.81 29.36 145.997 29.552 146.178 29.76C146.365 29.968 146.538 30.1813 146.698 30.4C146.858 30.6133 146.994 30.8133 147.106 31H146.226C146.109 30.8187 145.97 30.6347 145.81 30.448C145.655 30.256 145.493 30.072 145.322 29.896C145.151 29.72 144.978 29.5573 144.802 29.408C144.626 29.2587 144.461 29.1333 144.306 29.032V31H143.562V26.84H144.306V28.624C144.434 28.5013 144.581 28.36 144.746 28.2C144.911 28.0347 145.077 27.8693 145.242 27.704C145.413 27.5333 145.57 27.3733 145.714 27.224C145.858 27.0693 145.975 26.9413 146.066 26.84H146.93C146.813 26.968 146.674 27.1147 146.514 27.28C146.359 27.44 146.197 27.6053 146.026 27.776C145.861 27.9467 145.695 28.1173 145.53 28.288C145.365 28.4533 145.215 28.6027 145.082 28.736ZM149.267 30.464C149.443 30.464 149.597 30.4613 149.731 30.456C149.869 30.4453 149.984 30.4293 150.075 30.408V29.168C150.021 29.1413 149.933 29.12 149.811 29.104C149.693 29.0827 149.549 29.072 149.379 29.072C149.267 29.072 149.147 29.08 149.019 29.096C148.896 29.112 148.781 29.1467 148.675 29.2C148.573 29.248 148.488 29.3173 148.419 29.408C148.349 29.4933 148.315 29.608 148.315 29.752C148.315 30.0187 148.4 30.2053 148.571 30.312C148.741 30.4133 148.973 30.464 149.267 30.464ZM149.203 26.736C149.501 26.736 149.752 26.776 149.955 26.856C150.163 26.9307 150.328 27.04 150.451 27.184C150.579 27.3227 150.669 27.4907 150.723 27.688C150.776 27.88 150.803 28.0933 150.803 28.328V30.928C150.739 30.9387 150.648 30.9547 150.531 30.976C150.419 30.992 150.291 31.008 150.147 31.024C150.003 31.04 149.845 31.0533 149.675 31.064C149.509 31.08 149.344 31.088 149.179 31.088C148.944 31.088 148.728 31.064 148.531 31.016C148.333 30.968 148.163 30.8933 148.019 30.792C147.875 30.6853 147.763 30.5467 147.683 30.376C147.603 30.2053 147.563 30 147.563 29.76C147.563 29.5307 147.608 29.3333 147.699 29.168C147.795 29.0027 147.923 28.8693 148.083 28.768C148.243 28.6667 148.429 28.592 148.643 28.544C148.856 28.496 149.08 28.472 149.315 28.472C149.389 28.472 149.467 28.4773 149.547 28.488C149.627 28.4933 149.701 28.504 149.771 28.52C149.845 28.5307 149.909 28.5413 149.963 28.552C150.016 28.5627 150.053 28.5707 150.075 28.576V28.368C150.075 28.2453 150.061 28.1253 150.035 28.008C150.008 27.8853 149.96 27.7787 149.891 27.688C149.821 27.592 149.725 27.5173 149.603 27.464C149.485 27.4053 149.331 27.376 149.139 27.376C148.893 27.376 148.677 27.3947 148.491 27.432C148.309 27.464 148.173 27.4987 148.083 27.536L147.995 26.92C148.091 26.8773 148.251 26.8373 148.475 26.8C148.699 26.7573 148.941 26.736 149.203 26.736ZM155.698 31.096C155.362 31.096 155.066 31.0427 154.81 30.936C154.559 30.8293 154.346 30.68 154.17 30.488C153.999 30.296 153.871 30.0693 153.786 29.808C153.701 29.5413 153.658 29.248 153.658 28.928C153.658 28.608 153.703 28.3147 153.794 28.048C153.89 27.7813 154.023 27.552 154.194 27.36C154.365 27.1627 154.573 27.0107 154.818 26.904C155.069 26.792 155.346 26.736 155.65 26.736C155.837 26.736 156.023 26.752 156.21 26.784C156.397 26.816 156.575 26.8667 156.746 26.936L156.578 27.568C156.466 27.5147 156.335 27.472 156.186 27.44C156.042 27.408 155.887 27.392 155.722 27.392C155.306 27.392 154.986 27.5227 154.762 27.784C154.543 28.0453 154.434 28.4267 154.434 28.928C154.434 29.152 154.458 29.3573 154.506 29.544C154.559 29.7307 154.639 29.8907 154.746 30.024C154.858 30.1573 154.999 30.2613 155.17 30.336C155.341 30.4053 155.549 30.44 155.794 30.44C155.991 30.44 156.17 30.4213 156.33 30.384C156.49 30.3467 156.615 30.3067 156.706 30.264L156.81 30.888C156.767 30.9147 156.706 30.9413 156.626 30.968C156.546 30.9893 156.455 31.008 156.354 31.024C156.253 31.0453 156.143 31.0613 156.026 31.072C155.914 31.088 155.805 31.096 155.698 31.096ZM158.948 30.392H159.396C159.572 30.136 159.711 29.872 159.812 29.6C159.919 29.328 159.999 29.048 160.052 28.76C160.106 28.4667 160.14 28.1627 160.156 27.848C160.172 27.528 160.183 27.192 160.188 26.84H162.916V30.392H163.476V32.16H162.772V31H159.652V32.16H158.948V30.392ZM162.172 30.392V27.464H160.868C160.863 27.7147 160.85 27.968 160.828 28.224C160.807 28.4747 160.772 28.7253 160.724 28.976C160.676 29.2213 160.607 29.464 160.516 29.704C160.431 29.9387 160.322 30.168 160.188 30.392H162.172ZM165.689 30.464C165.865 30.464 166.019 30.4613 166.153 30.456C166.291 30.4453 166.406 30.4293 166.497 30.408V29.168C166.443 29.1413 166.355 29.12 166.233 29.104C166.115 29.0827 165.971 29.072 165.801 29.072C165.689 29.072 165.569 29.08 165.441 29.096C165.318 29.112 165.203 29.1467 165.097 29.2C164.995 29.248 164.91 29.3173 164.841 29.408C164.771 29.4933 164.737 29.608 164.737 29.752C164.737 30.0187 164.822 30.2053 164.993 30.312C165.163 30.4133 165.395 30.464 165.689 30.464ZM165.625 26.736C165.923 26.736 166.174 26.776 166.377 26.856C166.585 26.9307 166.75 27.04 166.873 27.184C167.001 27.3227 167.091 27.4907 167.145 27.688C167.198 27.88 167.225 28.0933 167.225 28.328V30.928C167.161 30.9387 167.07 30.9547 166.953 30.976C166.841 30.992 166.713 31.008 166.569 31.024C166.425 31.04 166.267 31.0533 166.097 31.064C165.931 31.08 165.766 31.088 165.601 31.088C165.366 31.088 165.15 31.064 164.953 31.016C164.755 30.968 164.585 30.8933 164.441 30.792C164.297 30.6853 164.185 30.5467 164.105 30.376C164.025 30.2053 163.985 30 163.985 29.76C163.985 29.5307 164.03 29.3333 164.121 29.168C164.217 29.0027 164.345 28.8693 164.505 28.768C164.665 28.6667 164.851 28.592 165.065 28.544C165.278 28.496 165.502 28.472 165.737 28.472C165.811 28.472 165.889 28.4773 165.969 28.488C166.049 28.4933 166.123 28.504 166.193 28.52C166.267 28.5307 166.331 28.5413 166.385 28.552C166.438 28.5627 166.475 28.5707 166.497 28.576V28.368C166.497 28.2453 166.483 28.1253 166.457 28.008C166.43 27.8853 166.382 27.7787 166.313 27.688C166.243 27.592 166.147 27.5173 166.025 27.464C165.907 27.4053 165.753 27.376 165.561 27.376C165.315 27.376 165.099 27.3947 164.913 27.432C164.731 27.464 164.595 27.4987 164.505 27.536L164.417 26.92C164.513 26.8773 164.673 26.8373 164.897 26.8C165.121 26.7573 165.363 26.736 165.625 26.736ZM171.956 26.84V31H171.236V27.832C171.076 28.0347 170.9 28.272 170.708 28.544C170.516 28.816 170.324 29.0987 170.132 29.392C169.94 29.68 169.756 29.9653 169.58 30.248C169.404 30.5307 169.252 30.7813 169.124 31H168.46V26.84H169.18V29.832C169.319 29.6027 169.476 29.352 169.652 29.08C169.828 28.8027 170.01 28.5307 170.196 28.264C170.388 27.992 170.578 27.7333 170.764 27.488C170.956 27.2373 171.135 27.0213 171.3 26.84H171.956ZM170.212 26.168C169.876 26.168 169.602 26.0827 169.388 25.912C169.18 25.7413 169.055 25.504 169.012 25.2L169.58 25.048C169.623 25.2187 169.695 25.3573 169.796 25.464C169.898 25.5707 170.036 25.624 170.212 25.624C170.388 25.624 170.527 25.5707 170.628 25.464C170.73 25.3573 170.802 25.2187 170.844 25.048L171.404 25.2C171.362 25.504 171.236 25.7413 171.028 25.912C170.82 26.0827 170.548 26.168 170.212 26.168ZM173.962 30.44C173.994 30.4453 174.039 30.4507 174.098 30.456C174.156 30.4613 174.223 30.4667 174.298 30.472C174.372 30.472 174.45 30.4747 174.53 30.48C174.615 30.48 174.695 30.48 174.77 30.48C174.924 30.48 175.071 30.4693 175.21 30.448C175.354 30.4267 175.476 30.3893 175.578 30.336C175.684 30.2827 175.767 30.2133 175.826 30.128C175.89 30.0373 175.922 29.9227 175.922 29.784C175.922 29.6507 175.892 29.5413 175.834 29.456C175.78 29.3653 175.706 29.2933 175.61 29.24C175.514 29.1867 175.399 29.1493 175.266 29.128C175.138 29.1067 174.999 29.096 174.85 29.096H173.962V30.44ZM174.754 28.544C174.898 28.544 175.028 28.536 175.146 28.52C175.268 28.4987 175.372 28.464 175.458 28.416C175.548 28.368 175.618 28.304 175.666 28.224C175.719 28.144 175.746 28.0427 175.746 27.92C175.746 27.792 175.714 27.6907 175.65 27.616C175.586 27.5413 175.5 27.4853 175.394 27.448C175.292 27.4053 175.175 27.3787 175.042 27.368C174.914 27.352 174.783 27.344 174.65 27.344C174.527 27.344 174.402 27.3467 174.274 27.352C174.151 27.3573 174.047 27.3627 173.962 27.368V28.544H174.754ZM174.738 31.072C174.423 31.072 174.132 31.056 173.866 31.024C173.599 30.9973 173.388 30.9653 173.234 30.928V26.88C173.388 26.8427 173.599 26.8107 173.866 26.784C174.132 26.752 174.423 26.736 174.738 26.736C174.956 26.736 175.17 26.7547 175.378 26.792C175.586 26.8293 175.77 26.8933 175.93 26.984C176.09 27.0693 176.218 27.1893 176.314 27.344C176.415 27.4933 176.466 27.68 176.466 27.904C176.466 28.1067 176.415 28.28 176.314 28.424C176.212 28.568 176.076 28.68 175.906 28.76C176.135 28.84 176.316 28.96 176.45 29.12C176.588 29.2747 176.658 29.4933 176.658 29.776C176.658 30.0267 176.607 30.2347 176.506 30.4C176.41 30.5653 176.274 30.6987 176.098 30.8C175.927 30.9013 175.724 30.9707 175.49 31.008C175.255 31.0507 175.004 31.072 174.738 31.072ZM181.289 28.92C181.289 29.2507 181.241 29.5493 181.145 29.816C181.049 30.0827 180.913 30.312 180.737 30.504C180.566 30.696 180.361 30.8453 180.121 30.952C179.881 31.0533 179.619 31.104 179.337 31.104C179.054 31.104 178.793 31.0533 178.553 30.952C178.313 30.8453 178.105 30.696 177.929 30.504C177.758 30.312 177.625 30.0827 177.529 29.816C177.433 29.5493 177.385 29.2507 177.385 28.92C177.385 28.5947 177.433 28.2987 177.529 28.032C177.625 27.76 177.758 27.528 177.929 27.336C178.105 27.144 178.313 26.9973 178.553 26.896C178.793 26.7893 179.054 26.736 179.337 26.736C179.619 26.736 179.881 26.7893 180.121 26.896C180.361 26.9973 180.566 27.144 180.737 27.336C180.913 27.528 181.049 27.76 181.145 28.032C181.241 28.2987 181.289 28.5947 181.289 28.92ZM180.513 28.92C180.513 28.4507 180.406 28.08 180.193 27.808C179.985 27.5307 179.699 27.392 179.337 27.392C178.974 27.392 178.686 27.5307 178.473 27.808C178.265 28.08 178.161 28.4507 178.161 28.92C178.161 29.3893 178.265 29.7627 178.473 30.04C178.686 30.312 178.974 30.448 179.337 30.448C179.699 30.448 179.985 30.312 180.193 30.04C180.406 29.7627 180.513 29.3893 180.513 28.92ZM185.271 26.84V27.464H183.919V31H183.175V27.464H181.823V26.84H185.271ZM185.806 28.928C185.806 28.56 185.86 28.24 185.966 27.968C186.073 27.6907 186.214 27.4613 186.39 27.28C186.566 27.0987 186.769 26.9627 186.998 26.872C187.228 26.7813 187.462 26.736 187.702 26.736C188.262 26.736 188.692 26.912 188.99 27.264C189.289 27.6107 189.438 28.1413 189.438 28.856C189.438 28.888 189.438 28.9307 189.438 28.984C189.438 29.032 189.436 29.0773 189.43 29.12H186.582C186.614 29.552 186.74 29.88 186.958 30.104C187.177 30.328 187.518 30.44 187.982 30.44C188.244 30.44 188.462 30.4187 188.638 30.376C188.82 30.328 188.956 30.2827 189.046 30.24L189.15 30.864C189.06 30.912 188.9 30.9627 188.67 31.016C188.446 31.0693 188.19 31.096 187.902 31.096C187.54 31.096 187.225 31.0427 186.958 30.936C186.697 30.824 186.481 30.672 186.31 30.48C186.14 30.288 186.012 30.0613 185.926 29.8C185.846 29.5333 185.806 29.2427 185.806 28.928ZM188.662 28.52C188.668 28.184 188.582 27.9093 188.406 27.696C188.236 27.4773 187.998 27.368 187.694 27.368C187.524 27.368 187.372 27.4027 187.238 27.472C187.11 27.536 187.001 27.6213 186.91 27.728C186.82 27.8347 186.748 27.9573 186.694 28.096C186.646 28.2347 186.614 28.376 186.598 28.52H188.662ZM193.395 28.928C193.395 28.4427 193.275 28.0693 193.035 27.808C192.795 27.5467 192.475 27.416 192.075 27.416C191.851 27.416 191.675 27.424 191.547 27.44C191.425 27.456 191.326 27.4747 191.251 27.496V30.12C191.342 30.1947 191.473 30.2667 191.643 30.336C191.814 30.4053 192.001 30.44 192.203 30.44C192.417 30.44 192.598 30.4027 192.747 30.328C192.902 30.248 193.027 30.1413 193.123 30.008C193.219 29.8693 193.289 29.7093 193.331 29.528C193.374 29.3413 193.395 29.1413 193.395 28.928ZM194.171 28.928C194.171 29.2427 194.129 29.5333 194.043 29.8C193.963 30.0667 193.843 30.296 193.683 30.488C193.523 30.68 193.326 30.8293 193.091 30.936C192.862 31.0427 192.598 31.096 192.299 31.096C192.059 31.096 191.846 31.064 191.659 31C191.478 30.936 191.342 30.8747 191.251 30.816V32.48H190.507V26.968C190.683 26.9253 190.902 26.88 191.163 26.832C191.43 26.7787 191.737 26.752 192.083 26.752C192.403 26.752 192.691 26.8027 192.947 26.904C193.203 27.0053 193.422 27.1493 193.603 27.336C193.785 27.5227 193.923 27.752 194.019 28.024C194.121 28.2907 194.171 28.592 194.171 28.928ZM198.89 28.92C198.89 29.2507 198.842 29.5493 198.746 29.816C198.65 30.0827 198.514 30.312 198.338 30.504C198.167 30.696 197.962 30.8453 197.722 30.952C197.482 31.0533 197.221 31.104 196.938 31.104C196.655 31.104 196.394 31.0533 196.154 30.952C195.914 30.8453 195.706 30.696 195.53 30.504C195.359 30.312 195.226 30.0827 195.13 29.816C195.034 29.5493 194.986 29.2507 194.986 28.92C194.986 28.5947 195.034 28.2987 195.13 28.032C195.226 27.76 195.359 27.528 195.53 27.336C195.706 27.144 195.914 26.9973 196.154 26.896C196.394 26.7893 196.655 26.736 196.938 26.736C197.221 26.736 197.482 26.7893 197.722 26.896C197.962 26.9973 198.167 27.144 198.338 27.336C198.514 27.528 198.65 27.76 198.746 28.032C198.842 28.2987 198.89 28.5947 198.89 28.92ZM198.114 28.92C198.114 28.4507 198.007 28.08 197.794 27.808C197.586 27.5307 197.301 27.392 196.938 27.392C196.575 27.392 196.287 27.5307 196.074 27.808C195.866 28.08 195.762 28.4507 195.762 28.92C195.762 29.3893 195.866 29.7627 196.074 30.04C196.287 30.312 196.575 30.448 196.938 30.448C197.301 30.448 197.586 30.312 197.794 30.04C198.007 29.7627 198.114 29.3893 198.114 28.92ZM200.729 27.936C200.676 28.464 200.636 28.992 200.609 29.52C200.582 30.0427 200.561 30.536 200.545 31H199.833C199.844 30.6747 199.86 30.336 199.881 29.984C199.902 29.6267 199.926 29.2693 199.953 28.912C199.98 28.5493 200.009 28.1947 200.041 27.848C200.073 27.496 200.108 27.16 200.145 26.84H200.825C200.996 27.1173 201.196 27.4987 201.425 27.984C201.654 28.464 201.918 29.0187 202.217 29.648C202.516 29.0187 202.78 28.464 203.009 27.984C203.238 27.4987 203.438 27.1173 203.609 26.84H204.297C204.334 27.16 204.369 27.496 204.401 27.848C204.433 28.1947 204.462 28.5493 204.489 28.912C204.516 29.2693 204.54 29.6267 204.561 29.984C204.582 30.336 204.598 30.6747 204.609 31H203.873C203.857 30.536 203.836 30.0427 203.809 29.52C203.782 28.992 203.742 28.464 203.689 27.936C203.604 28.1013 203.505 28.3013 203.393 28.536C203.281 28.7653 203.169 29 203.057 29.24C202.95 29.48 202.849 29.7093 202.753 29.928C202.657 30.1467 202.582 30.32 202.529 30.448H201.905C201.846 30.3147 201.766 30.1387 201.665 29.92C201.569 29.7013 201.465 29.472 201.353 29.232C201.246 28.9867 201.137 28.7493 201.025 28.52C200.913 28.2853 200.814 28.0907 200.729 27.936ZM104.312 37.92C104.312 38.2507 104.264 38.5493 104.168 38.816C104.072 39.0827 103.936 39.312 103.76 39.504C103.589 39.696 103.384 39.8453 103.144 39.952C102.904 40.0533 102.643 40.104 102.36 40.104C102.077 40.104 101.816 40.0533 101.576 39.952C101.336 39.8453 101.128 39.696 100.952 39.504C100.781 39.312 100.648 39.0827 100.552 38.816C100.456 38.5493 100.408 38.2507 100.408 37.92C100.408 37.5947 100.456 37.2987 100.552 37.032C100.648 36.76 100.781 36.528 100.952 36.336C101.128 36.144 101.336 35.9973 101.576 35.896C101.816 35.7893 102.077 35.736 102.36 35.736C102.643 35.736 102.904 35.7893 103.144 35.896C103.384 35.9973 103.589 36.144 103.76 36.336C103.936 36.528 104.072 36.76 104.168 37.032C104.264 37.2987 104.312 37.5947 104.312 37.92ZM103.536 37.92C103.536 37.4507 103.429 37.08 103.216 36.808C103.008 36.5307 102.723 36.392 102.36 36.392C101.997 36.392 101.709 36.5307 101.496 36.808C101.288 37.08 101.184 37.4507 101.184 37.92C101.184 38.3893 101.288 38.7627 101.496 39.04C101.709 39.312 101.997 39.448 102.36 39.448C102.723 39.448 103.008 39.312 103.216 39.04C103.429 38.7627 103.536 38.3893 103.536 37.92ZM104.847 39.392H105.295C105.471 39.136 105.609 38.872 105.711 38.6C105.817 38.328 105.897 38.048 105.951 37.76C106.004 37.4667 106.039 37.1627 106.055 36.848C106.071 36.528 106.081 36.192 106.087 35.84H108.815V39.392H109.375V41.16H108.671V40H105.551V41.16H104.847V39.392ZM108.071 39.392V36.464H106.767C106.761 36.7147 106.748 36.968 106.727 37.224C106.705 37.4747 106.671 37.7253 106.623 37.976C106.575 38.2213 106.505 38.464 106.415 38.704C106.329 38.9387 106.22 39.168 106.087 39.392H108.071ZM113.587 40H112.843V38.16H110.923V40H110.179V35.84H110.923V37.536H112.843V35.84H113.587V40ZM118.539 37.92C118.539 38.2507 118.491 38.5493 118.395 38.816C118.299 39.0827 118.163 39.312 117.987 39.504C117.816 39.696 117.611 39.8453 117.371 39.952C117.131 40.0533 116.869 40.104 116.587 40.104C116.304 40.104 116.043 40.0533 115.803 39.952C115.563 39.8453 115.355 39.696 115.179 39.504C115.008 39.312 114.875 39.0827 114.779 38.816C114.683 38.5493 114.635 38.2507 114.635 37.92C114.635 37.5947 114.683 37.2987 114.779 37.032C114.875 36.76 115.008 36.528 115.179 36.336C115.355 36.144 115.563 35.9973 115.803 35.896C116.043 35.7893 116.304 35.736 116.587 35.736C116.869 35.736 117.131 35.7893 117.371 35.896C117.611 35.9973 117.816 36.144 117.987 36.336C118.163 36.528 118.299 36.76 118.395 37.032C118.491 37.2987 118.539 37.5947 118.539 37.92ZM117.763 37.92C117.763 37.4507 117.656 37.08 117.443 36.808C117.235 36.5307 116.949 36.392 116.587 36.392C116.224 36.392 115.936 36.5307 115.723 36.808C115.515 37.08 115.411 37.4507 115.411 37.92C115.411 38.3893 115.515 38.7627 115.723 39.04C115.936 39.312 116.224 39.448 116.587 39.448C116.949 39.448 117.235 39.312 117.443 39.04C117.656 38.7627 117.763 38.3893 117.763 37.92ZM122.473 37.928C122.473 37.4427 122.353 37.0693 122.113 36.808C121.873 36.5467 121.553 36.416 121.153 36.416C120.929 36.416 120.753 36.424 120.625 36.44C120.503 36.456 120.404 36.4747 120.329 36.496V39.12C120.42 39.1947 120.551 39.2667 120.721 39.336C120.892 39.4053 121.079 39.44 121.281 39.44C121.495 39.44 121.676 39.4027 121.825 39.328C121.98 39.248 122.105 39.1413 122.201 39.008C122.297 38.8693 122.367 38.7093 122.409 38.528C122.452 38.3413 122.473 38.1413 122.473 37.928ZM123.249 37.928C123.249 38.2427 123.207 38.5333 123.121 38.8C123.041 39.0667 122.921 39.296 122.761 39.488C122.601 39.68 122.404 39.8293 122.169 39.936C121.94 40.0427 121.676 40.096 121.377 40.096C121.137 40.096 120.924 40.064 120.737 40C120.556 39.936 120.42 39.8747 120.329 39.816V41.48H119.585V35.968C119.761 35.9253 119.98 35.88 120.241 35.832C120.508 35.7787 120.815 35.752 121.161 35.752C121.481 35.752 121.769 35.8027 122.025 35.904C122.281 36.0053 122.5 36.1493 122.681 36.336C122.863 36.5227 123.001 36.752 123.097 37.024C123.199 37.2907 123.249 37.592 123.249 37.928ZM123.699 40.776C123.758 40.8027 123.832 40.8267 123.923 40.848C124.019 40.8747 124.112 40.888 124.203 40.888C124.496 40.888 124.726 40.8213 124.891 40.688C125.056 40.56 125.206 40.3493 125.339 40.056C125.003 39.416 124.688 38.7387 124.395 38.024C124.107 37.304 123.867 36.576 123.675 35.84H124.475C124.534 36.08 124.603 36.3387 124.683 36.616C124.768 36.8933 124.862 37.1787 124.963 37.472C125.064 37.7653 125.174 38.0587 125.291 38.352C125.408 38.6453 125.531 38.928 125.659 39.2C125.862 38.64 126.038 38.0853 126.187 37.536C126.336 36.9867 126.478 36.4213 126.611 35.84H127.379C127.187 36.624 126.974 37.3787 126.739 38.104C126.504 38.824 126.251 39.4987 125.979 40.128C125.872 40.368 125.76 40.5733 125.643 40.744C125.531 40.92 125.406 41.064 125.267 41.176C125.128 41.288 124.971 41.3707 124.795 41.424C124.624 41.4773 124.43 41.504 124.211 41.504C124.152 41.504 124.091 41.4987 124.027 41.488C123.963 41.4827 123.899 41.472 123.835 41.456C123.776 41.4453 123.72 41.432 123.667 41.416C123.619 41.4 123.584 41.3867 123.563 41.376L123.699 40.776ZM129.683 37.736C129.849 37.8533 130.027 38.0027 130.219 38.184C130.411 38.36 130.598 38.552 130.779 38.76C130.966 38.968 131.139 39.1813 131.299 39.4C131.459 39.6133 131.595 39.8133 131.707 40H130.827C130.71 39.8187 130.571 39.6347 130.411 39.448C130.257 39.256 130.094 39.072 129.923 38.896C129.753 38.72 129.579 38.5573 129.403 38.408C129.227 38.2587 129.062 38.1333 128.907 38.032V40H128.163V35.84H128.907V37.624C129.035 37.5013 129.182 37.36 129.347 37.2C129.513 37.0347 129.678 36.8693 129.843 36.704C130.014 36.5333 130.171 36.3733 130.315 36.224C130.459 36.0693 130.577 35.9413 130.667 35.84H131.531C131.414 35.968 131.275 36.1147 131.115 36.28C130.961 36.44 130.798 36.6053 130.627 36.776C130.462 36.9467 130.297 37.1173 130.131 37.288C129.966 37.4533 129.817 37.6027 129.683 37.736ZM135.898 37.92C135.898 38.2507 135.85 38.5493 135.754 38.816C135.658 39.0827 135.522 39.312 135.346 39.504C135.175 39.696 134.97 39.8453 134.73 39.952C134.49 40.0533 134.229 40.104 133.946 40.104C133.663 40.104 133.402 40.0533 133.162 39.952C132.922 39.8453 132.714 39.696 132.538 39.504C132.367 39.312 132.234 39.0827 132.138 38.816C132.042 38.5493 131.994 38.2507 131.994 37.92C131.994 37.5947 132.042 37.2987 132.138 37.032C132.234 36.76 132.367 36.528 132.538 36.336C132.714 36.144 132.922 35.9973 133.162 35.896C133.402 35.7893 133.663 35.736 133.946 35.736C134.229 35.736 134.49 35.7893 134.73 35.896C134.97 35.9973 135.175 36.144 135.346 36.336C135.522 36.528 135.658 36.76 135.754 37.032C135.85 37.2987 135.898 37.5947 135.898 37.92ZM135.122 37.92C135.122 37.4507 135.015 37.08 134.802 36.808C134.594 36.5307 134.309 36.392 133.946 36.392C133.583 36.392 133.295 36.5307 133.082 36.808C132.874 37.08 132.77 37.4507 132.77 37.92C132.77 38.3893 132.874 38.7627 133.082 39.04C133.295 39.312 133.583 39.448 133.946 39.448C134.309 39.448 134.594 39.312 134.802 39.04C135.015 38.7627 135.122 38.3893 135.122 37.92ZM138.665 38.384C138.585 38.384 138.507 38.384 138.433 38.384C138.358 38.3787 138.286 38.3733 138.217 38.368C138.046 38.624 137.881 38.8987 137.721 39.192C137.566 39.48 137.427 39.7493 137.305 40H136.553C136.617 39.8453 136.691 39.688 136.777 39.528C136.862 39.3627 136.947 39.2027 137.033 39.048C137.123 38.8933 137.214 38.7467 137.305 38.608C137.395 38.4693 137.481 38.344 137.561 38.232C137.411 38.1787 137.289 38.1147 137.193 38.04C137.097 37.96 137.019 37.872 136.961 37.776C136.902 37.68 136.859 37.5787 136.833 37.472C136.811 37.36 136.801 37.248 136.801 37.136C136.801 36.9013 136.843 36.696 136.929 36.52C137.019 36.344 137.142 36.2 137.297 36.088C137.451 35.9707 137.633 35.8827 137.841 35.824C138.054 35.7653 138.286 35.736 138.537 35.736C138.889 35.736 139.187 35.752 139.433 35.784C139.678 35.816 139.883 35.8533 140.049 35.896V40H139.313V38.384H138.665ZM139.313 36.392C139.254 36.3813 139.155 36.3707 139.017 36.36C138.883 36.3493 138.729 36.344 138.553 36.344C138.249 36.344 138.003 36.408 137.817 36.536C137.63 36.6587 137.537 36.856 137.537 37.128C137.537 37.3947 137.633 37.5787 137.825 37.68C138.017 37.7813 138.265 37.832 138.569 37.832H139.313V36.392ZM144.264 35.84V36.464H142.912V40H142.168V36.464H140.816V35.84H144.264ZM148.703 37.92C148.703 38.2507 148.655 38.5493 148.559 38.816C148.463 39.0827 148.327 39.312 148.151 39.504C147.98 39.696 147.775 39.8453 147.535 39.952C147.295 40.0533 147.033 40.104 146.751 40.104C146.468 40.104 146.207 40.0533 145.967 39.952C145.727 39.8453 145.519 39.696 145.343 39.504C145.172 39.312 145.039 39.0827 144.943 38.816C144.847 38.5493 144.799 38.2507 144.799 37.92C144.799 37.5947 144.847 37.2987 144.943 37.032C145.039 36.76 145.172 36.528 145.343 36.336C145.519 36.144 145.727 35.9973 145.967 35.896C146.207 35.7893 146.468 35.736 146.751 35.736C147.033 35.736 147.295 35.7893 147.535 35.896C147.775 35.9973 147.98 36.144 148.151 36.336C148.327 36.528 148.463 36.76 148.559 37.032C148.655 37.2987 148.703 37.5947 148.703 37.92ZM147.927 37.92C147.927 37.4507 147.82 37.08 147.607 36.808C147.399 36.5307 147.113 36.392 146.751 36.392C146.388 36.392 146.1 36.5307 145.887 36.808C145.679 37.08 145.575 37.4507 145.575 37.92C145.575 38.3893 145.679 38.7627 145.887 39.04C146.1 39.312 146.388 39.448 146.751 39.448C147.113 39.448 147.399 39.312 147.607 39.04C147.82 38.7627 147.927 38.3893 147.927 37.92ZM150.221 35.84V37.064C150.221 37.3787 150.301 37.6 150.461 37.728C150.621 37.8507 150.84 37.912 151.117 37.912C151.32 37.912 151.488 37.9013 151.621 37.88C151.76 37.8587 151.883 37.8347 151.989 37.808V35.84H152.733V40H151.989V38.384C151.947 38.3947 151.891 38.408 151.821 38.424C151.752 38.44 151.672 38.456 151.581 38.472C151.496 38.4827 151.405 38.4933 151.309 38.504C151.213 38.5147 151.12 38.52 151.029 38.52C150.8 38.52 150.589 38.496 150.397 38.448C150.211 38.4 150.048 38.32 149.909 38.208C149.776 38.096 149.669 37.9493 149.589 37.768C149.515 37.5813 149.477 37.3493 149.477 37.072V35.84H150.221ZM157.423 40H156.679V38.16H154.759V40H154.015V35.84H154.759V37.536H156.679V35.84H157.423V40ZM160.231 37.944C160.087 37.944 159.945 37.9493 159.807 37.96C159.673 37.9653 159.553 37.9813 159.447 38.008V39.44C159.479 39.4453 159.524 39.4507 159.583 39.456C159.647 39.4613 159.713 39.4667 159.783 39.472C159.857 39.472 159.932 39.4747 160.007 39.48C160.081 39.48 160.148 39.48 160.207 39.48C160.532 39.48 160.783 39.4187 160.959 39.296C161.135 39.1733 161.223 38.976 161.223 38.704C161.223 38.5707 161.193 38.456 161.135 38.36C161.081 38.264 161.007 38.1867 160.911 38.128C160.82 38.064 160.716 38.0187 160.599 37.992C160.481 37.96 160.359 37.944 160.231 37.944ZM158.703 35.84H159.447V37.432C159.537 37.4107 159.668 37.3893 159.839 37.368C160.015 37.3467 160.183 37.336 160.343 37.336C160.561 37.336 160.769 37.3627 160.967 37.416C161.164 37.464 161.337 37.544 161.487 37.656C161.636 37.7627 161.753 37.904 161.839 38.08C161.929 38.2507 161.975 38.456 161.975 38.696C161.975 38.9467 161.932 39.16 161.847 39.336C161.761 39.512 161.641 39.656 161.487 39.768C161.332 39.88 161.145 39.96 160.927 40.008C160.708 40.0613 160.468 40.088 160.207 40.088C159.956 40.088 159.703 40.072 159.447 40.04C159.191 40.0133 158.943 39.9707 158.703 39.912V35.84ZM163.487 40H162.743V35.84H163.487V40ZM168.261 35.84V40H167.541V36.832C167.381 37.0347 167.205 37.272 167.013 37.544C166.821 37.816 166.629 38.0987 166.437 38.392C166.245 38.68 166.061 38.9653 165.885 39.248C165.709 39.5307 165.557 39.7813 165.429 40H164.765V35.84H165.485V38.832C165.624 38.6027 165.781 38.352 165.957 38.08C166.133 37.8027 166.314 37.5307 166.501 37.264C166.693 36.992 166.882 36.7333 167.069 36.488C167.261 36.2373 167.44 36.0213 167.605 35.84H168.261ZM166.517 35.168C166.181 35.168 165.906 35.0827 165.693 34.912C165.485 34.7413 165.36 34.504 165.317 34.2L165.885 34.048C165.928 34.2187 166 34.3573 166.101 34.464C166.202 34.5707 166.341 34.624 166.517 34.624C166.693 34.624 166.832 34.5707 166.933 34.464C167.034 34.3573 167.106 34.2187 167.149 34.048L167.709 34.2C167.666 34.504 167.541 34.7413 167.333 34.912C167.125 35.0827 166.853 35.168 166.517 35.168Z" fill="white"/>
</g>
<path d="M34.064 20.2644C34.2152 20.2766 34.511 20.3563 34.8299 20.4206C35.1486 20.4849 35.4905 20.5339 35.8193 20.5615C36.1479 20.589 36.4634 20.5951 36.7658 20.589C37.0681 20.5829 37.3575 20.5645 37.6435 20.5308C37.9293 20.4971 38.2119 20.4481 38.4124 20.4053C38.613 20.3624 38.7313 20.3257 38.7871 20.3686C38.843 20.4114 38.8365 20.5339 38.8234 20.6594C38.8102 20.7849 38.7905 20.9135 38.7511 21.0849C38.7115 21.2564 38.6524 21.4707 38.6097 21.6238C38.5669 21.7768 38.5408 21.8686 38.3764 21.9789C38.2119 22.0891 37.9097 22.2177 37.558 22.2912C37.2062 22.3647 36.8052 22.383 36.3681 22.3524C35.9309 22.3218 35.4576 22.2422 35.1026 22.1595C34.7476 22.0769 34.511 21.9911 34.3665 21.9085C34.2218 21.8258 34.1692 21.7462 34.1167 21.6177C34.064 21.4891 34.0115 21.3115 33.9785 21.1216C33.9458 20.9318 33.9326 20.7298 33.9227 20.6012C33.9129 20.4726 33.9062 20.4175 33.9062 20.3625C33.9062 20.3073 33.9129 20.2522 34.064 20.2644Z" stroke="white" stroke-width="0.3501"/>
<path d="M34.8291 20.4209C34.9397 20.6525 35.0503 20.8842 35.1025 21.1072C35.1545 21.3301 35.1478 21.5444 35.1063 21.7105C35.0647 21.8765 34.9881 21.9945 34.95 22.0534C34.9116 22.1123 34.9116 22.1123 34.9116 22.1123" stroke="white" stroke-width="0.3501"/>
<path d="M35.8185 20.562C35.7112 20.7222 35.6037 20.8824 35.5434 21.0453C35.4832 21.208 35.47 21.3733 35.4832 21.5478C35.4963 21.7223 35.5359 21.906 35.5815 22.0296C35.627 22.1532 35.6787 22.2167 35.7305 22.2802" stroke="white" stroke-width="0.3501"/>
<path d="M37.2046 20.5708C37.2925 20.7463 37.3803 20.9219 37.421 21.1137C37.4618 21.3056 37.4551 21.5138 37.4223 21.6883C37.3895 21.8629 37.3303 22.0036 37.2852 22.1079C37.2403 22.2122 37.2095 22.28 37.1787 22.3478" stroke="white" stroke-width="0.3501"/>
<path d="M37.7429 20.5186C37.7238 20.6747 37.7044 20.831 37.6949 20.9948C37.6853 21.1586 37.6853 21.33 37.7214 21.4862C37.7576 21.6424 37.8299 21.7831 37.8794 21.8945C37.9288 22.0059 37.9553 22.0879 37.9818 22.1698" stroke="white" stroke-width="0.3501"/>
<path d="M34.7246 22.0576C34.7255 22.2336 34.7263 22.4095 34.727 22.4975C34.7274 22.5855 34.7274 22.5855 34.7274 22.5855" stroke="white" stroke-width="0.3501"/>
<path d="M34.7255 22.3218C34.6669 22.3455 34.6081 22.3691 34.5806 22.4009C34.5528 22.4326 34.5561 22.4724 34.5857 22.5045C34.6153 22.5367 34.6712 22.5612 34.7746 22.6026C34.8782 22.6439 35.0295 22.7021 35.2432 22.7433C35.4567 22.7847 35.7328 22.8092 35.9679 22.8214C36.2029 22.8337 36.3967 22.8337 36.6022 22.8245C36.8076 22.8153 37.0244 22.7969 37.2037 22.7771C37.3828 22.7572 37.5241 22.7358 37.6507 22.6975C37.7772 22.6592 37.889 22.6041 37.9579 22.5597C38.0269 22.5153 38.0534 22.4817 38.0652 22.4127C38.0771 22.3437 38.0745 22.2394 38.0719 22.1353" stroke="white" stroke-width="0.3501"/>
<path d="M37.3211 26.6264C37.2717 26.5712 37.2225 26.5161 37.1304 26.4059C37.0383 26.2958 36.9035 26.1304 36.7951 25.9421C36.6866 25.7539 36.6045 25.5425 36.5767 25.3543C36.5486 25.166 36.5749 25.0006 36.6358 24.8569C36.6965 24.7129 36.7918 24.5905 36.9381 24.4374C37.0844 24.2843 37.2816 24.1006 37.4706 23.946C37.6595 23.7914 37.8404 23.6659 38.0161 23.5541C38.1919 23.4424 38.363 23.3444 38.4484 23.2954C38.5339 23.2464 38.5339 23.2464 38.5339 23.1684C38.5339 23.0904 38.5339 22.9342 38.5175 22.8409C38.501 22.7474 38.4682 22.7168 38.3901 22.6558C38.3122 22.5949 38.189 22.5035 38.0659 22.4121" stroke="white" stroke-width="0.3501"/>
<path d="M42.2295 23.7473C42.3036 23.8529 42.3758 23.8713 42.4529 23.9157C42.5303 23.96 42.6125 24.0305 42.6816 24.1254C42.7504 24.2202 42.8063 24.3396 42.8425 24.4882C42.8788 24.6367 42.8951 24.8143 42.9034 24.9887C42.9115 25.1632 42.9115 25.3347 42.8886 25.5199C42.8655 25.7052 42.8195 25.9041 42.7555 26.1123C42.6913 26.3205 42.6092 26.5379 42.5138 26.7262C42.4186 26.9144 42.3101 27.0736 42.2115 27.1716C42.1128 27.2696 42.0241 27.3063 41.4341 27.2374C40.8442 27.1686 39.753 26.994 39.1597 26.8746C38.5664 26.7553 38.4711 26.6908 38.402 26.6098C38.3331 26.5287 38.2904 26.4307 38.2475 26.2807C38.2049 26.1307 38.162 25.9286 38.1489 25.7052C38.1358 25.4816 38.1522 25.2367 38.1983 24.9734C38.2443 24.7101 38.3199 24.4285 38.3889 24.2524C38.4579 24.0764 38.5203 24.006 38.5926 23.9187C38.6649 23.8315 38.7472 23.7274 38.8097 23.6294C38.872 23.5314 38.9148 23.4396 38.9839 23.3018C39.0528 23.1641 39.1482 22.9804 39.2155 22.8748C39.283 22.7691 39.3223 22.7416 39.3617 22.7233C39.4013 22.7048 39.4407 22.6957 39.8449 22.74C40.2492 22.7844 41.0184 22.8824 41.416 22.939C41.8138 22.9957 41.8401 23.011 41.8761 23.0569C41.9124 23.1029 41.9584 23.1794 42.0192 23.3141C42.08 23.4487 42.1555 23.6417 42.2295 23.7473Z" stroke="white" stroke-width="0.3501"/>
<path d="M39.2783 22.7891C40.0592 22.9017 40.8398 23.0145 41.2401 23.074C41.6403 23.1333 41.6601 23.1395 41.6896 23.1854C41.7192 23.2313 41.7586 23.3171 41.8063 23.4441C41.854 23.5712 41.9098 23.7396 41.9361 23.8406C41.9624 23.9416 41.9592 23.9753 41.9394 24.0227C41.9197 24.0702 41.8835 24.1314 41.8245 24.2325C41.7653 24.3334 41.6831 24.4742 41.6058 24.635C41.5286 24.7957 41.4563 24.9764 41.4054 25.18C41.3544 25.3836 41.3248 25.6101 41.3117 25.8291C41.2985 26.0479 41.3018 26.2592 41.3265 26.4398C41.3512 26.6204 41.3971 26.7705 41.4529 26.8929C41.5088 27.0154 41.5746 27.1103 41.6204 27.1677C41.666 27.2251 41.6917 27.2452 41.7172 27.2652" stroke="white" stroke-width="0.3501"/>
<path d="M42.3638 24.8678C42.3194 24.8388 42.2801 24.8326 42.229 24.8433C42.1782 24.854 42.1156 24.8816 42.0615 24.9428C42.0072 25.004 41.9612 25.099 41.9169 25.2474C41.8725 25.3959 41.8297 25.5979 41.8232 25.7632C41.8166 25.9286 41.8461 26.0571 41.8874 26.1583C41.9283 26.2593 41.9809 26.3328 42.045 26.371C42.1091 26.4092 42.1847 26.4124 42.2488 26.3832C42.3129 26.3542 42.3655 26.2929 42.4182 26.1811C42.4706 26.0694 42.5233 25.9072 42.5513 25.7464C42.5791 25.5857 42.5825 25.4265 42.5709 25.3025C42.5593 25.1786 42.5331 25.0897 42.4953 25.0193C42.4576 24.9489 42.4082 24.8969 42.3638 24.8678Z" stroke="white" stroke-width="0.3501"/>
<path d="M41.9394 24.0228C40.9125 23.8648 39.8854 23.7068 38.8584 23.5488" stroke="white" stroke-width="0.3501"/>
<path d="M41.7101 24.4316C40.7335 24.2938 39.7569 24.1559 38.7803 24.0181" stroke="white" stroke-width="0.3501"/>
<path d="M38.8888 23.3662C38.8165 23.3601 38.7443 23.354 38.6828 23.3343C38.6212 23.3146 38.5704 23.2814 38.5195 23.248" stroke="white" stroke-width="0.3501"/>
<path d="M38.9002 23.4672C38.7778 23.5375 38.6552 23.6078 38.5496 23.7117C38.444 23.8157 38.3552 23.9535 38.2699 24.1204C38.1843 24.2872 38.1021 24.4831 38.0446 24.7143C37.9871 24.9454 37.9542 25.2118 37.9427 25.4522C37.9313 25.6925 37.941 25.9067 37.9888 26.0935C38.0365 26.2802 38.1219 26.4395 38.2008 26.5374C38.2796 26.6354 38.3519 26.6721 38.3865 26.6905C38.421 26.7088 38.4177 26.7088 38.3832 26.7364C38.3487 26.764 38.283 26.819 38.1976 26.8772C38.1121 26.9354 38.0068 26.9966 37.8622 27.0487C37.7176 27.1007 37.5336 27.1436 37.3446 27.1712C37.1556 27.1987 36.9616 27.211 36.7119 27.208C36.4621 27.2048 36.1564 27.1865 35.859 27.1666C35.5615 27.1467 35.2723 27.1252 35.0472 27.0916C34.8219 27.0578 34.6609 27.012 34.5228 26.9339C34.3848 26.8558 34.2697 26.7457 34.1958 26.6675C34.1218 26.5894 34.089 26.5436 34.0743 25.945C34.0595 25.3465 34.0627 24.1953 34.0677 23.6136C34.0726 23.0319 34.0791 23.0197 34.1252 22.9555C34.1711 22.8911 34.2566 22.7749 34.3359 22.6824C34.415 22.59 34.4882 22.5213 34.5248 22.4871C34.5613 22.4528 34.5613 22.4528 34.5653 22.4612C34.5692 22.4698 34.5773 22.4868 34.5853 22.5038" stroke="white" stroke-width="0.3501"/>
<path d="M34.2646 23.1182C34.3796 23.1794 34.4946 23.2406 34.6525 23.2881C34.8103 23.3356 35.0107 23.3693 35.2441 23.3921C35.4775 23.4151 35.7438 23.4274 35.9573 23.429C36.171 23.4304 36.332 23.4212 36.5522 23.386C36.7725 23.3508 37.0519 23.2896 37.2425 23.2498C37.4332 23.21 37.535 23.1916 37.6369 23.1733" stroke="white" stroke-width="0.3501"/>
<path d="M35.7725 27.0675C35.7725 26.1337 35.7725 25.1999 35.7725 24.2661" stroke="white" stroke-width="0.3501"/>
<path d="M34.0612 22.9859C34.0831 22.9758 34.105 22.9657 34.0337 22.9983C33.9625 23.0311 33.7981 23.1065 33.6239 23.3065C33.4497 23.5065 33.2657 23.8311 33.1688 24.024C33.0717 24.2169 33.0618 24.2781 33.057 24.3485C33.0521 24.4189 33.0521 24.4985 33.0882 24.6072C33.1244 24.7158 33.1967 24.8536 33.2952 25.0281C33.3939 25.2026 33.5187 25.4138 33.6108 25.5241C33.7029 25.6343 33.762 25.6434 33.8331 25.648C33.9042 25.6526 33.9874 25.6525 34.0705 25.6525" stroke="white" stroke-width="0.3501"/>
<path d="M34.0731 23.2808C33.9724 23.3827 33.8717 23.4845 33.7885 23.609C33.7054 23.7335 33.6396 23.8804 33.5986 24.0366C33.5575 24.1927 33.541 24.358 33.5444 24.5188C33.5476 24.6794 33.5706 24.8356 33.6232 24.9795C33.6758 25.1233 33.7579 25.255 33.8371 25.3468C33.9163 25.4386 33.9924 25.4905 34.0685 25.5424" stroke="white" stroke-width="0.3501"/>
<path d="M34.0677 22.9824C33.7879 22.9479 33.5082 22.9135 33.3633 22.8992C33.2186 22.8851 33.2087 22.8912 33.051 23.0306C32.8933 23.1698 32.5875 23.4423 32.415 23.6444C32.2424 23.8464 32.2028 23.9781 32.18 24.1006C32.1569 24.223 32.1504 24.3363 32.1471 24.451C32.1437 24.5658 32.1437 24.6822 32.1685 24.7939C32.1931 24.9057 32.2424 25.0129 32.3804 25.1567C32.5185 25.3007 32.7452 25.4813 32.8768 25.5747C33.0083 25.668 33.0443 25.6741 33.2074 25.6725C33.3706 25.6708 33.6606 25.6614 33.9507 25.652" stroke="white" stroke-width="0.3501"/>
<path d="M32.1572 24.2754C32.4596 24.2791 32.7619 24.2828 33.0642 24.2864" stroke="white" stroke-width="0.3501"/>
<path d="M33.0508 23.0308C33.3035 23.0642 33.5562 23.0975 33.8089 23.1309" stroke="white" stroke-width="0.3501"/>
<path d="M32.8239 23.1548C32.5117 23.1548 32.1994 23.1548 32.0384 23.164C31.8774 23.1731 31.8676 23.1915 31.828 23.2665C31.7886 23.3415 31.7196 23.4732 31.6555 23.6124C31.5914 23.7518 31.5323 23.8987 31.4978 24.0227C31.4632 24.1467 31.4534 24.2477 31.4665 24.3686C31.4797 24.4896 31.5159 24.6304 31.5603 24.785C31.6047 24.9396 31.6572 25.108 31.713 25.206C31.7689 25.304 31.828 25.3315 31.9169 25.3575C32.0055 25.3835 32.1238 25.408 32.2459 25.4107C32.3679 25.4135 32.4935 25.3944 32.6193 25.3753" stroke="white" stroke-width="0.3501"/>
<path d="M31.2394 23.1978C31.2097 23.2376 31.1145 23.3112 31.0289 23.4259C30.9435 23.5407 30.8679 23.6969 30.8154 23.8652C30.7627 24.0336 30.7333 24.2143 30.725 24.3827C30.7167 24.551 30.73 24.7072 30.7627 24.8358C30.7956 24.9643 30.8482 25.0654 30.8811 25.1174C30.914 25.1694 30.9271 25.1726 30.8976 25.1741C30.8679 25.1755 30.7956 25.1755 30.7183 25.1726C30.6412 25.1694 30.5589 25.1633 30.5146 25.1619C30.4702 25.1602 30.4638 25.1633 30.4407 25.1312C30.4176 25.0991 30.3783 25.0318 30.3471 24.8955C30.3158 24.7592 30.2927 24.554 30.2911 24.378C30.2895 24.202 30.3092 24.0551 30.3438 23.9173C30.3783 23.7795 30.4275 23.651 30.4981 23.5439C30.5689 23.4366 30.6609 23.3509 30.7348 23.2882C30.8087 23.2253 30.8647 23.1856 30.9025 23.1642C30.9402 23.1428 30.9599 23.1396 31.006 23.1396C31.052 23.1396 31.1244 23.1428 31.1785 23.1473C31.2328 23.1519 31.2689 23.1581 31.2394 23.1978Z" stroke="white" stroke-width="0.3501"/>
<path d="M31.7921 23.2164C31.7625 23.2561 31.6672 23.3297 31.5818 23.4445C31.4963 23.5592 31.4207 23.7154 31.3682 23.8838C31.3155 24.0522 31.2859 24.2328 31.2778 24.4012C31.2694 24.5695 31.2826 24.7257 31.3155 24.8543C31.3484 24.9828 31.401 25.0839 31.4338 25.1359C31.4667 25.1879 31.4798 25.191 31.4503 25.1926C31.4207 25.1941 31.3484 25.1941 31.2712 25.191C31.1939 25.1879 31.1117 25.1818 31.0674 25.1803C31.023 25.1788 31.0163 25.1818 30.9934 25.1498C30.9705 25.1176 30.9309 25.0502 30.8997 24.914C30.8685 24.7777 30.8455 24.5726 30.8438 24.3965C30.8422 24.2205 30.862 24.0736 30.8965 23.9358C30.9309 23.7981 30.9803 23.6694 31.0509 23.5623C31.1216 23.4551 31.2136 23.3695 31.2876 23.3066C31.3615 23.2439 31.4174 23.2041 31.4552 23.1827C31.493 23.1613 31.5128 23.1582 31.5588 23.1582C31.6048 23.1582 31.6771 23.1613 31.7313 23.1658C31.7855 23.1704 31.8217 23.1765 31.7921 23.2164Z" stroke="white" stroke-width="0.3501"/>
<path d="M30.6876 23.1885C30.658 23.2283 30.5626 23.3017 30.4773 23.4166C30.3918 23.5314 30.3162 23.6875 30.2635 23.8559C30.211 24.0243 30.1814 24.205 30.1732 24.3733C30.1649 24.5417 30.178 24.6978 30.211 24.8265C30.2439 24.955 30.2964 25.0561 30.3293 25.1081C30.3622 25.1601 30.3753 25.1632 30.3457 25.1647C30.3162 25.1662 30.2439 25.1662 30.1667 25.1632C30.0893 25.1601 30.0072 25.1539 29.9628 25.1525C29.9184 25.151 29.9118 25.1539 29.8889 25.1218C29.8658 25.0897 29.8264 25.0223 29.7952 24.8861C29.764 24.7499 29.7409 24.5447 29.7394 24.3687C29.7376 24.1926 29.7574 24.0457 29.7919 23.908C29.8264 23.7702 29.8758 23.6416 29.9464 23.5345C30.0171 23.4273 30.1091 23.3416 30.1831 23.2788C30.257 23.2161 30.3128 23.1762 30.3507 23.1548C30.3885 23.1334 30.4082 23.1304 30.4541 23.1304C30.5002 23.1304 30.5726 23.1334 30.6268 23.1379C30.681 23.1426 30.7172 23.1487 30.6876 23.1885Z" stroke="white" stroke-width="0.3501"/>
<path d="M30.1211 23.1613C30.0916 23.201 29.9963 23.2745 29.9109 23.3893C29.8254 23.504 29.7498 23.6603 29.6972 23.8287C29.6445 23.997 29.615 24.1777 29.6067 24.346C29.5986 24.5144 29.6117 24.6706 29.6445 24.7991C29.6774 24.9277 29.73 25.0288 29.7629 25.0808C29.7957 25.1328 29.8089 25.1359 29.7793 25.1375C29.7498 25.1389 29.6774 25.1389 29.6002 25.1359C29.523 25.1328 29.4407 25.1267 29.3964 25.1252C29.352 25.1237 29.3455 25.1267 29.3225 25.0946C29.2995 25.0625 29.26 24.9951 29.2288 24.8588C29.1976 24.7226 29.1745 24.5175 29.1729 24.3414C29.1713 24.1654 29.1909 24.0185 29.2255 23.8807C29.26 23.7429 29.3093 23.6143 29.3799 23.5072C29.4507 23.4 29.5426 23.3143 29.6167 23.2516C29.6905 23.1888 29.7465 23.149 29.7842 23.1276C29.822 23.1061 29.8418 23.103 29.8877 23.103C29.9338 23.103 30.0061 23.1061 30.0604 23.1107C30.1146 23.1153 30.1507 23.1215 30.1211 23.1613Z" stroke="white" stroke-width="0.3501"/>
<path d="M29.5519 23.1335C29.5223 23.1733 29.4269 23.2467 29.3415 23.3615C29.256 23.4763 29.1804 23.6325 29.1279 23.8009C29.0752 23.9692 29.0457 24.1499 29.0375 24.3182C29.0292 24.4866 29.0424 24.6428 29.0752 24.7714C29.1081 24.9 29.1607 25.001 29.1936 25.0531C29.2265 25.105 29.2395 25.1082 29.21 25.1096C29.1804 25.1112 29.1081 25.1112 29.0308 25.1082C28.9536 25.105 28.8716 25.0989 28.8272 25.0974C28.7828 25.0959 28.7761 25.0989 28.7531 25.0668C28.7301 25.0346 28.6907 24.9673 28.6594 24.8311C28.6282 24.6949 28.6053 24.4897 28.6036 24.3137C28.602 24.1375 28.6217 23.9907 28.6562 23.853C28.6907 23.7151 28.7401 23.5866 28.8107 23.4794C28.8813 23.3722 28.9733 23.2866 29.0473 23.2238C29.1213 23.161 29.1772 23.1212 29.2151 23.0997C29.2527 23.0783 29.2725 23.0752 29.3186 23.0752C29.3646 23.0752 29.4369 23.0783 29.4911 23.0829C29.5453 23.0875 29.5815 23.0936 29.5519 23.1335Z" stroke="white" stroke-width="0.3501"/>
<path d="M28.8851 23.1273C28.8578 23.1685 28.7667 23.2466 28.6878 23.3654C28.6091 23.4842 28.5422 23.6438 28.4992 23.8145C28.4562 23.9852 28.4368 24.1671 28.438 24.3356C28.4393 24.5042 28.4612 24.6595 28.5011 24.7863C28.5412 24.913 28.5995 25.0114 28.6351 25.0618C28.6709 25.1122 28.6841 25.1145 28.6548 25.1175C28.6252 25.1205 28.5531 25.124 28.4758 25.1248C28.3984 25.1254 28.316 25.1233 28.2717 25.124C28.2272 25.1246 28.2209 25.128 28.1962 25.097C28.1713 25.0661 28.1282 25.0007 28.0893 24.8662C28.0505 24.7316 28.0159 24.5279 28.0045 24.3522C27.9929 24.1765 28.0044 24.0288 28.0311 23.8895C28.0577 23.7502 28.0998 23.6195 28.1643 23.509C28.2289 23.3985 28.316 23.3084 28.3864 23.2421C28.4567 23.1759 28.5103 23.1335 28.5467 23.1102C28.5833 23.0869 28.6028 23.0828 28.6488 23.0806C28.6947 23.0783 28.7672 23.0779 28.8216 23.0799C28.8758 23.0818 28.9124 23.0861 28.8851 23.1273Z" stroke="white" stroke-width="0.3501"/>
<path d="M28.2162 23.1255C28.1912 23.1679 28.1045 23.2503 28.0324 23.3728C27.9604 23.4953 27.9027 23.658 27.8693 23.8305C27.8359 24.0032 27.8268 24.1856 27.8374 24.3539C27.8482 24.5221 27.8788 24.6762 27.9259 24.8009C27.973 24.9255 28.0366 25.0209 28.0751 25.0695C28.1137 25.118 28.1271 25.1198 28.0978 25.1242C28.0686 25.1286 27.9967 25.1356 27.9195 25.14C27.8424 25.1445 27.76 25.1465 27.7156 25.1493C27.6713 25.1521 27.6652 25.1558 27.6387 25.126C27.6122 25.0963 27.5654 25.0331 27.5191 24.9007C27.4727 24.7682 27.4268 24.5664 27.4055 24.3915C27.384 24.2166 27.3872 24.0686 27.406 23.9282C27.4249 23.7878 27.4596 23.6552 27.5177 23.5417C27.576 23.4283 27.6579 23.3341 27.7245 23.2644C27.7909 23.1948 27.8421 23.1499 27.8772 23.1249C27.9124 23.0999 27.9317 23.0948 27.9774 23.0903C28.0233 23.0859 28.0955 23.0819 28.1498 23.0811C28.2043 23.0805 28.2411 23.083 28.2162 23.1255Z" stroke="white" stroke-width="0.3501"/>
<path d="M27.5455 23.1219C27.5228 23.1654 27.4411 23.252 27.3759 23.3778C27.3109 23.5036 27.2624 23.6689 27.2387 23.8428C27.215 24.0167 27.2162 24.1995 27.2363 24.367C27.2564 24.5345 27.2958 24.6868 27.3498 24.8091C27.4038 24.9312 27.4728 25.0234 27.5139 25.07C27.5552 25.1166 27.5687 25.1177 27.5397 25.1236C27.5108 25.1294 27.4394 25.1399 27.3626 25.1482C27.2857 25.1564 27.2035 25.1623 27.1594 25.1672C27.1153 25.1722 27.1094 25.1762 27.0812 25.1478C27.0532 25.1194 27.0029 25.0586 26.9492 24.9286C26.8954 24.7985 26.8382 24.5993 26.8071 24.4257C26.7759 24.2521 26.7706 24.104 26.7816 23.963C26.7925 23.8218 26.8196 23.6877 26.8715 23.5715C26.9233 23.4554 26.9998 23.3574 27.0622 23.2845C27.1247 23.2117 27.1732 23.1644 27.207 23.1377C27.2408 23.111 27.2597 23.1051 27.3051 23.0984C27.3506 23.0917 27.4225 23.0842 27.477 23.0808C27.5312 23.0774 27.5679 23.0782 27.5455 23.1219Z" stroke="white" stroke-width="0.3501"/>
<path d="M26.875 23.2027C26.855 23.2474 26.7781 23.3377 26.7202 23.4666C26.6622 23.5954 26.6232 23.7628 26.6092 23.9377C26.5954 24.1126 26.6068 24.295 26.6363 24.4613C26.6658 24.6275 26.7135 24.7777 26.7744 24.8972C26.8353 25.0165 26.9092 25.1052 26.9531 25.1498C26.9968 25.1943 27.0104 25.1948 26.9818 25.202C26.9532 25.2092 26.8824 25.2232 26.8062 25.2352C26.73 25.2471 26.6481 25.2571 26.6045 25.2641C26.5607 25.2712 26.555 25.2755 26.5254 25.2485C26.4956 25.2216 26.442 25.1633 26.381 25.0361C26.3202 24.9088 26.2517 24.7127 26.211 24.5408C26.1701 24.3689 26.1566 24.2214 26.1596 24.08C26.1625 23.9384 26.182 23.8031 26.2272 23.6847C26.2724 23.5662 26.3434 23.4645 26.4017 23.3888C26.46 23.313 26.5057 23.2633 26.538 23.235C26.5702 23.2068 26.5888 23.2 26.6338 23.191C26.6788 23.1821 26.7502 23.1711 26.8044 23.1651C26.8583 23.1591 26.8951 23.1581 26.875 23.2027Z" stroke="white" stroke-width="0.3501"/>
<path d="M26.2015 23.2848C26.184 23.3305 26.1122 23.4244 26.0616 23.5559C26.0111 23.6874 25.9814 23.8564 25.9773 24.0318C25.9733 24.2071 25.9951 24.3888 26.0338 24.5533C26.0726 24.7179 26.1287 24.8657 26.1963 24.9819C26.2637 25.0982 26.3425 25.1831 26.3887 25.2255C26.4351 25.2677 26.4486 25.2676 26.4204 25.2762C26.3923 25.2848 26.3223 25.3022 26.2469 25.3179C26.1715 25.3335 26.0903 25.3474 26.0471 25.3567C26.0038 25.3659 25.9984 25.3704 25.9672 25.3449C25.936 25.3194 25.8793 25.2639 25.8112 25.1399C25.7432 25.0157 25.6639 24.8231 25.6135 24.6535C25.5629 24.4838 25.5412 24.3372 25.5362 24.1957C25.5312 24.0544 25.5431 23.9183 25.5817 23.7977C25.6202 23.6772 25.6853 23.5722 25.7393 23.4937C25.7932 23.4153 25.8362 23.3634 25.8667 23.3336C25.8972 23.3038 25.9154 23.2961 25.9599 23.2849C26.0043 23.2739 26.0751 23.2594 26.1287 23.2507C26.1824 23.2421 26.219 23.2393 26.2015 23.2848Z" stroke="white" stroke-width="0.3501"/>
<path d="M25.5291 23.411C25.5142 23.4574 25.4479 23.5548 25.4047 23.6885C25.3615 23.8223 25.3415 23.9926 25.3473 24.1679C25.353 24.3432 25.385 24.5235 25.433 24.686C25.481 24.8484 25.5453 24.9932 25.6192 25.1061C25.6931 25.2188 25.7767 25.2999 25.8252 25.3398C25.8737 25.3799 25.8872 25.379 25.8596 25.389C25.832 25.3989 25.7633 25.4197 25.6888 25.4391C25.6142 25.4584 25.5341 25.4762 25.4914 25.4875C25.4487 25.4988 25.4434 25.5037 25.4109 25.4797C25.3783 25.4558 25.3186 25.4031 25.2436 25.2825C25.1686 25.1619 25.0787 24.9734 25.0188 24.8064C24.9588 24.6395 24.9289 24.4941 24.916 24.3532C24.9032 24.2121 24.9073 24.0757 24.9389 23.9535C24.9705 23.8312 25.0297 23.7231 25.0792 23.6422C25.1287 23.5613 25.1686 23.5073 25.1975 23.476C25.2263 23.4448 25.244 23.4362 25.2879 23.4229C25.3317 23.4097 25.4015 23.3918 25.4545 23.3805C25.5076 23.3693 25.544 23.3647 25.5291 23.411Z" stroke="white" stroke-width="0.3501"/>
<path d="M24.8565 23.5389C24.8441 23.5859 24.7834 23.6863 24.7478 23.822C24.7122 23.9577 24.7016 24.1288 24.7175 24.3034C24.7331 24.4782 24.775 24.6567 24.8321 24.8167C24.8892 24.9766 24.9614 25.1181 25.0417 25.2271C25.1219 25.3361 25.2099 25.413 25.2605 25.4506C25.3113 25.4882 25.3247 25.4867 25.2977 25.498C25.2707 25.5092 25.2031 25.5334 25.1298 25.5563C25.0566 25.5792 24.9775 25.6009 24.9354 25.6143C24.8934 25.6278 24.8884 25.6327 24.8546 25.6104C24.8207 25.5881 24.758 25.5383 24.6765 25.4217C24.5949 25.3048 24.4945 25.121 24.4252 24.9572C24.356 24.7934 24.3178 24.6496 24.2971 24.5095C24.2763 24.3694 24.2729 24.2328 24.2975 24.1092C24.3223 23.9856 24.3753 23.8749 24.4202 23.7916C24.465 23.7083 24.502 23.6526 24.529 23.6199C24.556 23.5872 24.5732 23.5778 24.6162 23.5624C24.6592 23.5471 24.7278 23.5258 24.7802 23.512C24.8326 23.4982 24.8688 23.4918 24.8565 23.5389Z" stroke="white" stroke-width="0.3501"/>
<path d="M24.1831 23.7537C24.1733 23.8012 24.1184 23.9045 24.0905 24.0417C24.0625 24.179 24.0616 24.3503 24.0871 24.5239C24.1126 24.6978 24.1645 24.874 24.2305 25.031C24.2964 25.1879 24.3767 25.3255 24.4629 25.4306C24.549 25.5355 24.6412 25.6079 24.694 25.643C24.7467 25.6781 24.76 25.6759 24.7337 25.6885C24.7073 25.7011 24.6413 25.7285 24.5694 25.755C24.4975 25.7814 24.4197 25.807 24.3784 25.8224C24.3373 25.8378 24.3326 25.8431 24.2976 25.8225C24.2626 25.8019 24.1971 25.7552 24.1091 25.6426C24.021 25.53 23.9105 25.3512 23.832 25.191C23.7538 25.0309 23.7075 24.8892 23.679 24.7502C23.6503 24.6113 23.6393 24.4752 23.657 24.3505C23.6747 24.2258 23.7213 24.1127 23.7615 24.0273C23.8016 23.9419 23.8354 23.8845 23.8604 23.8505C23.8857 23.8166 23.9023 23.8063 23.9444 23.7889C23.9864 23.7715 24.0539 23.7469 24.1054 23.7305C24.1569 23.7141 24.1926 23.7061 24.1831 23.7537Z" stroke="white" stroke-width="0.3501"/>
<path d="M34.6433 27.1301C34.6483 27.0367 34.6581 27.0474 34.8027 27.1064C34.9473 27.1654 35.2268 27.2726 35.4831 27.3353C35.7395 27.3981 35.9728 27.4164 36.1963 27.4257C36.4198 27.4348 36.6335 27.4348 36.811 27.4149C36.9884 27.395 37.1298 27.3551 37.2464 27.3231C37.3631 27.2909 37.4551 27.2664 37.5538 27.2219C37.6525 27.1776 37.7575 27.1133 37.8102 27.0812C37.8627 27.049 37.8627 27.049 37.871 27.1378C37.8792 27.2266 37.8956 27.4042 37.894 27.5052C37.8924 27.6062 37.8727 27.6307 37.8152 27.6767C37.7576 27.7226 37.6622 27.7899 37.5143 27.8588C37.3664 27.9277 37.166 27.9981 36.9261 28.0334C36.686 28.0685 36.4068 28.0685 36.1585 28.0502C35.9104 28.0317 35.6935 27.995 35.5109 27.9583C35.3287 27.9216 35.1807 27.8848 35.046 27.8358C34.9111 27.7868 34.7895 27.7256 34.7239 27.6873C34.6581 27.6491 34.6483 27.6338 34.6433 27.5273C34.6384 27.421 34.6384 27.2236 34.6433 27.1301Z" stroke="white" stroke-width="0.3501"/>
<path d="M34.5654 27.4302C34.5325 27.5067 34.4996 27.5833 34.4766 27.643C34.4535 27.7027 34.4403 27.7456 34.4454 27.7746C34.4503 27.8037 34.4733 27.8189 34.7116 27.9062C34.95 27.9935 35.4035 28.1527 35.6368 28.2354C35.8702 28.318 35.8833 28.3241 36.2038 28.2935C36.5242 28.2629 37.1521 28.1956 37.466 28.1619C37.7798 28.1281 37.7798 28.1281 37.8422 28.0455C37.9047 27.9629 38.0296 27.7976 38.0938 27.7118C38.1579 27.6261 38.1611 27.62 38.1178 27.5988C38.0746 27.5776 37.9847 27.5414 37.9398 27.5233C37.8948 27.5052 37.8948 27.5052 37.8948 27.5052" stroke="white" stroke-width="0.3501"/>
<path d="M34.3287 27.9033C34.3254 28.3993 34.322 28.8952 34.3237 29.1639C34.3254 29.4326 34.3319 29.4738 34.3558 29.5039C34.3797 29.5338 34.4209 29.5524 34.6682 29.6413C34.9157 29.7302 35.3692 29.8894 35.6026 29.9721C35.836 30.0548 35.8491 30.0609 36.1695 30.0302C36.4899 29.9996 37.1178 29.9323 37.4318 29.8986C37.7456 29.8649 37.7456 29.8649 37.8142 29.7733C37.8827 29.6818 38.0199 29.4987 38.157 29.3155" stroke="white" stroke-width="0.3501"/>
<path d="M38.1348 27.6538C38.1354 28.2165 38.1361 28.7791 38.1368 29.3417" stroke="white" stroke-width="0.3501"/>
<path d="M35.8525 28.3325C35.8541 28.8897 35.8557 29.4469 35.8565 29.7255C35.8572 30.0041 35.8572 30.0041 35.8572 30.0041" stroke="white" stroke-width="0.3501"/>
<path d="M34.3271 27.9287C34.347 27.8736 34.3669 27.8184 34.3916 27.7709C34.4163 27.7233 34.4458 27.6831 34.4754 27.6431" stroke="white" stroke-width="0.3501"/>
<path d="M34.5371 27.4614C34.5638 27.42 34.5905 27.3787 34.6172 27.3374" stroke="white" stroke-width="0.3501"/>
<path d="M38.1728 29.4461C38.1728 29.4461 38.1728 29.4461 38.1728 29.4643C38.1729 29.4826 38.1732 29.519 38.187 29.5502C38.2008 29.5814 38.2281 29.6073 38.232 29.7244C38.2358 29.8415 38.2161 30.0496 38.2358 30.1721C38.2556 30.2946 38.3147 30.3313 42.9327 33.353C47.5507 36.3747 56.7275 42.3814 61.8023 45.6818C66.8772 48.982 67.8501 49.576 68.3629 49.9066C68.8756 50.2372 68.9282 50.3046 68.9626 50.3781C68.9973 50.4516 69.0137 50.5311 68.9874 50.8572C68.9611 51.1833 68.892 51.7558 68.7851 52.114C68.6783 52.4721 68.5337 52.6161 68.381 52.7278C68.2281 52.8396 68.0671 52.9191 67.809 52.9757C67.551 53.0325 67.1961 53.0661 66.8575 53.0677C66.5188 53.0691 66.1968 53.0386 65.8912 52.9819C65.5854 52.9253 65.2962 52.8426 65.0152 52.7355C64.7342 52.6283 64.4613 52.4966 64.2643 52.3665C64.0669 52.2364 63.9453 52.1078 63.8746 52.019C63.8041 51.9303 63.7843 51.8813 63.7843 51.7833C63.7843 51.6854 63.8041 51.5384 63.8238 51.4251C63.8435 51.3119 63.8632 51.2323 63.8632 51.1757C63.8632 51.1189 63.8435 51.0853 63.4047 50.8052C62.9659 50.525 62.1081 49.9984 60.7078 49.1168C59.3077 48.235 57.3651 46.9982 55.0299 45.4444C52.6946 43.8907 49.9665 42.0201 46.6271 39.7102C43.2878 37.4003 39.337 34.651 37.263 33.206C35.189 31.761 34.9917 31.6202 34.839 31.513C34.6861 31.4059 34.5775 31.3324 34.4954 31.2391C34.4133 31.1457 34.3573 31.0323 34.3278 30.8394C34.2982 30.6466 34.2949 30.3741 34.3049 30.1552C34.3147 29.9363 34.3377 29.771 34.3493 29.6883C34.3606 29.6057 34.3606 29.6057 34.3606 29.6057C34.3606 29.6057 34.3606 29.6057 34.4133 29.6669C34.4659 29.7281 34.5711 29.8506 34.7486 29.9456C34.9261 30.0405 35.1758 30.1078 35.4059 30.1567C35.6361 30.2058 35.8464 30.2363 36.1274 30.2395C36.4084 30.2425 36.7601 30.218 37.0246 30.1889C37.2892 30.1598 37.4667 30.1261 37.6212 30.0711C37.7756 30.016 37.9071 29.9394 38.0025 29.846C38.0978 29.7526 38.1569 29.6424 38.1734 29.5555C38.1898 29.4686 38.1636 29.405 38.1373 29.3413" stroke="white" stroke-width="0.3501"/>
<path d="M38.2362 30.1724C38.131 30.2928 38.0258 30.4132 37.7793 30.5085C37.5327 30.6039 37.145 30.6744 36.7982 30.7126C36.4515 30.7509 36.1457 30.757 35.9419 30.7509C35.7382 30.7448 35.6363 30.7265 36.2016 31.1612C36.7669 31.5959 37.9995 32.4837 42.8969 35.8208C47.7943 39.1578 56.3564 44.9441 60.7164 47.8756C65.0764 50.807 65.2341 50.8834 65.4527 50.9463C65.6713 51.009 65.9507 51.058 66.2662 51.0718C66.5817 51.0855 66.9333 51.0641 67.2704 51.0166C67.6073 50.9692 67.9293 50.8957 68.161 50.8023C68.3928 50.7089 68.5341 50.5957 68.6016 50.5008C68.6689 50.4059 68.6623 50.3293 68.6103 50.2334C68.5582 50.1375 68.4607 50.0222 68.3633 49.9069" stroke="white" stroke-width="0.3501"/>
<path d="M64.054 52.207C64.0263 52.3118 63.9986 52.4165 64.0143 52.5315C64.0299 52.6466 64.0892 52.7721 64.2322 52.9023C64.3751 53.0323 64.602 53.1671 64.8747 53.2819C65.1476 53.3967 65.4664 53.4916 65.8082 53.5575C66.15 53.6233 66.5148 53.66 66.8041 53.6647C67.0933 53.6692 67.307 53.6416 67.4812 53.585C67.6553 53.5284 67.7901 53.4427 67.9036 53.3523C68.017 53.262 68.109 53.1671 68.1648 53.1013C68.2207 53.0355 68.2405 52.9987 68.2463 52.9569C68.2522 52.915 68.2443 52.8679 68.2362 52.821" stroke="white" stroke-width="0.3501"/>
<path d="M65.1582 53.3887C65.1799 53.2863 65.2015 53.184 65.2124 53.1328C65.2232 53.0816 65.2232 53.0816 65.3843 53.1122C65.5453 53.1429 65.8673 53.2041 66.0745 53.2408C66.2815 53.2775 66.3736 53.2898 66.4804 53.299C66.5872 53.3081 66.7088 53.3142 66.7943 53.3173C66.8798 53.3204 66.9292 53.3204 66.9571 53.3311C66.985 53.3418 66.9914 53.3633 66.9948 53.3923C66.9981 53.4214 66.9981 53.4582 67.0018 53.5043C67.0054 53.5505 67.0126 53.6061 67.0159 53.6339C67.0193 53.6617 67.0179 53.6618 67.0179 53.6618" stroke="white" stroke-width="0.3501"/>
<path d="M24.1758 23.778C24.2861 23.7323 24.396 23.6891 24.5058 23.6506M24.8554 23.5424C24.9804 23.508 25.1045 23.478 25.2265 23.4499M25.5307 23.3828C25.6511 23.3575 25.7716 23.3337 25.8944 23.3114M26.2058 23.2582C26.3461 23.2356 26.487 23.2143 26.6251 23.1942C26.8577 23.1603 27.0819 23.1295 27.3346 23.1112C27.5875 23.0929 27.8689 23.0871 28.2046 23.0833C28.5401 23.0794 28.9299 23.0773 29.4806 23.0941C30.0315 23.111 30.7437 23.1467 31.0996 23.1646C31.4556 23.1824 31.4556 23.1824 31.4556 23.1824" stroke="white" stroke-width="0.3501"/>
<path d="M24.7451 25.6772C24.823 25.6523 24.9052 25.6261 24.9937 25.5983C25.1166 25.5595 25.2516 25.5174 25.4038 25.4748M25.8523 25.3616C25.887 25.3538 25.9228 25.346 25.959 25.3384M26.4203 25.253C26.4511 25.248 26.482 25.2431 26.513 25.2383M26.9772 25.1745C27.0163 25.1698 27.0556 25.1652 27.0948 25.1609M27.5541 25.1189C28.0257 25.086 28.4268 25.0916 28.8449 25.0883C29.271 25.0851 29.7151 25.0725 30.0761 25.0811C30.437 25.0898 30.7148 25.1196 30.9661 25.1277C31.2172 25.1359 31.4417 25.1221 31.6663 25.1085" stroke="white" stroke-width="0.3501"/>
<path d="M32.8334 11.4146C32.8324 11.4248 32.8313 11.4351 32.8301 11.4452" stroke="white" stroke-width="0.3501"/>
<path d="M32.8301 11.4453C33.0441 11.5403 33.2579 11.6354 33.5531 11.7344C33.8481 11.8335 34.2242 11.9365 34.6335 12.0121C35.0429 12.0877 35.4855 12.1357 35.9575 12.1735C36.4295 12.2113 36.931 12.2388 37.381 12.2319C37.8309 12.2251 38.2291 12.1839 38.6275 12.1288C38.6713 12.1229 38.7151 12.1165 38.7587 12.1103" stroke="white" stroke-width="0.3501"/>
<path d="M48.2375 7.58162C47.977 7.31042 47.7162 7.03921 47.3593 6.78054C47.0022 6.52195 46.5488 6.27604 46.0103 6.04313C45.4717 5.81007 44.848 5.59015 43.9688 5.41434C43.0896 5.23861 41.9548 5.10706 40.9587 5.04315C39.9625 4.97925 39.1048 4.98284 38.2943 5.0774C37.4839 5.17188 36.721 5.35724 36.0521 5.59298C35.3831 5.82872 34.8081 6.11491 34.3153 6.46668C33.8226 6.81853 33.4121 7.2362 33.052 7.66059C32.6919 8.08513 32.3824 8.51648 32.1986 8.90464C32.0147 9.2928 31.9566 9.63777 31.9682 9.93236C31.9796 10.227 32.0608 10.4714 32.2259 10.7344C32.3834 10.9853 32.6176 11.2531 32.9252 11.4875M38.758 12.11C38.8796 12.0733 38.9958 12.0342 39.107 11.9934C39.5017 11.8486 39.8352 11.6808 40.1198 11.4641C40.4044 11.2473 40.6401 10.9818 40.7837 10.7605C40.9274 10.5392 40.9791 10.3621 41.0271 9.99061C41.0748 9.61904 41.1186 9.05285 41.1624 8.48667" stroke="white" stroke-width="0.3501"/>
<path d="M35.6182 10.1036C36.0035 9.75875 36.3888 9.41386 36.9915 9.13921C37.5942 8.86449 38.4144 8.66001 39.2475 8.56095C40.0806 8.46196 40.9266 8.46846 41.7756 8.54329C42.6249 8.6182 43.477 8.7616 44.1384 8.87771C44.8 8.99382 45.2705 9.08265 45.7036 9.11781C46.1367 9.15289 46.5323 9.13424 46.9132 9.05735C47.2941 8.98037 47.6602 8.84507 47.8917 8.68983C48.1233 8.53435 48.2201 8.35884 48.2554 8.1708C48.2907 7.98276 48.2644 7.78219 48.2512 7.6819C48.238 7.58161 48.238 7.58161 48.1429 7.70995C48.0478 7.83821 47.8577 8.09474 47.5521 8.2688C47.2466 8.44277 46.8256 8.5342 46.0587 8.52502C45.2917 8.51585 44.1787 8.40601 43.2518 8.29708C42.3251 8.18808 41.5843 8.07984 40.898 8.02603C40.2117 7.97214 39.5798 7.97267 38.9167 8.05095C38.2537 8.12922 37.5595 8.28531 37.0304 8.40471C36.5012 8.52418 36.1371 8.60696 35.7728 8.68967" stroke="white" stroke-width="0.3501"/>
<path d="M40.1533 9.22125C40.2708 9.24617 40.3862 9.32865 40.4646 9.42068C40.5429 9.51248 40.5843 9.61369 40.597 9.72445C40.6097 9.83529 40.594 9.9556 40.5499 10.0776C40.5058 10.1997 40.4335 10.3235 40.3384 10.4544C40.2431 10.5853 40.1251 10.7234 40 10.8244C39.8748 10.9255 39.7427 10.9894 39.6269 10.9936C39.5111 10.9977 39.4117 10.9418 39.33 10.863C39.2483 10.7841 39.1844 10.6823 39.167 10.5451C39.1496 10.4078 39.1787 10.2354 39.2473 10.0589C39.3159 9.88253 39.4244 9.70205 39.5224 9.56867C39.6204 9.4352 39.7083 9.34867 39.8122 9.28897C39.9159 9.22928 40.0357 9.19641 40.1533 9.22125Z" stroke="white" stroke-width="0.3501"/>
<path d="M36.8261 9.92236C36.8112 10.3213 36.7962 10.7202 36.7872 11.1089C36.7783 11.4974 36.7754 11.8758 36.7725 12.254" stroke="white" stroke-width="0.3501"/>
<path d="M40.917 10.5049C40.946 10.4549 40.9693 10.4048 40.9879 10.354C41.0598 10.1592 41.0649 9.95376 41.0771 9.70151C41.081 9.61926 41.0859 9.53205 41.0921 9.44238" stroke="white" stroke-width="0.3501"/>
<path d="M32.5879 11.1641C32.6523 11.2157 32.7237 11.2649 32.8065 11.3117" stroke="white" stroke-width="0.3501"/>
<path d="M32.5871 11.1641C32.5855 11.1761 32.5837 11.1881 32.582 11.2" stroke="white" stroke-width="0.3501"/>
<path d="M38.8541 20.3609C38.8061 20.3754 38.7504 20.4074 38.69 20.4347C38.5538 20.4966 38.3931 20.5356 38.1626 20.5746C37.9322 20.6137 37.6319 20.6527 37.328 20.6722C37.0242 20.6917 36.7169 20.6917 36.4061 20.6754C36.0953 20.6592 35.781 20.6267 35.4107 20.5714C35.0405 20.5161 34.6146 20.438 34.3141 20.3698C34.0139 20.3014 33.8393 20.2428 33.7521 20.2136C33.6891 20.1924 33.6715 20.1866 33.668 20.2615" stroke="white" stroke-width="0.3501"/>
<path d="M32.8064 11.3115C32.7919 11.421 32.7775 11.548 32.7641 11.704C32.7258 12.1562 32.6978 12.8524 32.6525 13.2688C32.6069 13.6851 32.5442 13.8217 32.4603 13.9681C32.3765 14.1145 32.2718 14.2706 32.0901 14.3811C31.9085 14.4918 31.6502 14.5568 30.4699 14.7358C29.2894 14.9146 27.1872 15.2074 26.0031 15.3896C24.8193 15.5717 24.5539 15.6433 24.2641 15.6954C23.9742 15.7474 23.6599 15.7799 23.3736 15.8286C23.0872 15.8775 22.8288 15.9425 22.6053 16.0433C22.3818 16.1442 22.1932 16.2808 22.0081 16.5053C21.823 16.7297 21.6415 17.042 21.5262 17.3641C21.4109 17.686 21.362 18.0178 21.3586 18.2943C21.3551 18.5708 21.3969 18.792 21.568 19.0165C21.7392 19.2409 22.0396 19.4686 22.3958 19.6833C22.752 19.898 23.164 20.0997 23.5586 20.22C23.9532 20.3404 24.3305 20.3794 25.4968 20.3339C26.6632 20.2883 28.6189 20.1582 29.8272 20.0802C31.0355 20.0021 31.4964 19.9761 31.8597 19.9599C32.2229 19.9435 32.4882 19.937 32.7117 19.95C32.9353 19.9631 33.1169 19.9956 33.2694 20.0508C33.4218 20.1059 33.545 20.1838 33.6684 20.2616" stroke="white" stroke-width="0.3501"/>
<path d="M38.8545 20.3609C39.0001 20.2629 39.1455 20.165 39.2743 20.0542C39.4028 19.9434 39.5145 19.8198 39.6229 19.6377C39.7311 19.4555 39.8358 19.2149 39.9546 19.0424C40.0733 18.8701 40.2059 18.7659 40.4818 18.6488C40.7577 18.5317 41.1768 18.4016 41.9765 18.1771C42.7764 17.9527 43.9566 17.634 44.7739 17.3997C45.5909 17.1655 46.045 17.0159 46.3733 16.8793C46.7015 16.7427 46.9041 16.6191 47.0996 16.4368C47.2952 16.2547 47.4838 16.014 47.6095 15.7343C47.7353 15.4545 47.7981 15.1357 47.7877 14.8495C47.7772 14.5632 47.6933 14.3095 47.5223 14.0851C47.351 13.8606 47.0927 13.6655 46.8587 13.4801C46.6247 13.2946 46.4153 13.119 46.2336 12.9726C46.052 12.8262 45.8983 12.7091 45.7133 12.6214C45.5281 12.5335 45.3116 12.4749 45.0951 12.4618C44.8786 12.4489 44.662 12.4814 44.4735 12.5335C44.285 12.5855 44.1243 12.6571 43.9672 12.7254C43.81 12.7937 43.6563 12.8587 43.5794 12.8913C43.5027 12.9238 43.5027 12.9238 43.5027 12.9238" stroke="white" stroke-width="0.3501"/>
<path d="M46.4068 13.1135C46.4166 12.8486 46.4264 12.5836 46.3615 12.2267C46.2965 11.8697 46.1568 11.4209 45.9787 11.0728C45.8005 10.7247 45.584 10.4776 45.3536 10.2564C45.123 10.0352 44.8787 9.84003 44.6411 9.67737C44.4037 9.51471 44.1732 9.38468 43.8379 9.27728C43.5027 9.16996 43.0626 9.08542 42.724 9.06264C42.3851 9.03986 42.1477 9.07892 41.8962 9.15039C41.6448 9.22202 41.3794 9.32605 41.1455 9.42038C41.1249 9.42863 41.1047 9.43689 41.0849 9.44492M40.2188 11.3855C40.2294 11.5051 40.2393 11.6266 40.2479 11.743C40.2687 12.026 40.2828 12.2796 40.2898 12.5204C40.2968 12.7611 40.2968 12.9887 40.2968 13.1287C40.2968 13.2686 40.2968 13.3205 40.3107 13.4767C40.3246 13.6328 40.3527 13.8931 40.3735 14.1012C40.3946 14.3094 40.4086 14.4655 40.4155 14.5436C40.4225 14.6217 40.4225 14.6217 40.4225 14.6217" stroke="white" stroke-width="0.3501"/>
<path d="M41.0674 9.88924C41.2491 9.80463 41.4518 9.7291 41.6622 9.66749C42.0289 9.56017 42.4201 9.49505 42.7902 9.49184C43.1604 9.48847 43.5095 9.5471 43.81 9.62194C44.1103 9.69669 44.3617 9.78781 44.6201 9.95376C44.8785 10.1196 45.1439 10.3603 45.3604 10.6205C45.5771 10.8807 45.7446 11.1605 45.9033 11.4314C46.0619 11.7023 46.2116 11.9644 46.2919 12.1325C46.3723 12.3008 46.3831 12.3748 46.394 12.449" stroke="white" stroke-width="0.3501"/>
<path d="M45.4123 12.5131C45.006 12.3379 44.5997 12.1626 44.3373 12.0848C44.0749 12.0069 43.9561 12.0264 43.7502 12.098C43.5441 12.1695 43.2508 12.2931 43.0133 12.407C42.7759 12.5208 42.5942 12.6249 42.4825 12.7128C42.3707 12.8005 42.3288 12.8721 42.2938 12.9307C42.2589 12.9892 42.231 13.0347 42.2031 13.0803" stroke="white" stroke-width="0.3501"/>
<path d="M40.2969 13.1287C41.2678 13.0538 42.2385 12.979 42.7729 12.9448C43.3072 12.9107 43.4049 12.9172 43.5028 12.9237" stroke="white" stroke-width="0.3501"/>
<path d="M40.7568 14.31C41.2737 14.2514 41.7907 14.1929 42.524 14.1148C43.2573 14.0367 44.2072 13.9392 44.9231 13.8611C45.6389 13.783 46.121 13.7245 46.4177 13.7049C46.7146 13.6854 46.8264 13.7049 46.9795 13.7749C47.1324 13.8449 47.327 13.9652 47.5214 14.0856" stroke="white" stroke-width="0.3501"/>
<path d="M32.4394 15.4219C30.8608 15.6627 29.2823 15.9034 27.9064 16.131C26.5304 16.3587 25.3571 16.5734 24.6622 16.7817C23.9671 16.9898 23.7507 17.1914 23.6075 17.5167C23.4643 17.842 23.3944 18.2909 23.4608 18.691C23.5271 19.0911 23.7297 19.4424 23.9323 19.7937" stroke="white" stroke-width="0.3501"/>
<path d="M33.7803 15.2271C34.1435 15.728 34.5067 16.2289 34.7267 16.6909C34.9467 17.1527 35.0235 17.5756 35.0304 17.9725C35.0375 18.3693 34.9746 18.7401 34.8663 19.046C34.7581 19.3517 34.6044 19.5924 34.4508 19.8331" stroke="white" stroke-width="0.3501"/>
<path d="M39.9611 14.583C39.8843 15.6825 39.8074 16.782 39.7271 17.5757C39.6468 18.3694 39.563 18.8573 39.5191 19.187C39.4751 19.5167 39.4709 19.6883 39.4668 19.8598" stroke="white" stroke-width="0.3501"/>
<path d="M23.854 20.2929C23.6355 20.4713 23.417 20.6496 23.0913 20.8136C22.7655 20.9777 22.3325 21.1273 21.8925 21.2249C21.4524 21.3225 21.0054 21.368 20.5201 21.3388C20.0346 21.3095 19.5108 21.2053 19.0359 21.033C18.5609 20.8605 18.1349 20.6199 17.7786 20.3596C17.4224 20.0994 17.136 19.8196 16.8811 19.4553C16.6263 19.091 16.4028 18.6421 16.249 18.216C16.0954 17.7899 16.0116 17.3865 16.0011 16.9701C15.9907 16.5538 16.0534 16.1244 16.1478 15.6951C16.2421 15.2656 16.3677 14.8363 16.5214 14.4817C16.675 14.1272 16.8567 13.8474 17.0662 13.5807C17.2758 13.3139 17.5133 13.0603 17.7437 12.8456C17.9743 12.6308 18.1977 12.4551 18.4526 12.3023C18.7075 12.1494 18.9939 12.0194 19.3013 11.886C19.6085 11.7526 19.9368 11.6159 20.2476 11.5282C20.5585 11.4403 20.8518 11.4013 21.201 11.3786C21.5503 11.3557 21.9552 11.3492 22.343 11.3818C22.7307 11.4143 23.1008 11.4858 23.4675 11.6159C23.8341 11.746 24.1973 11.9347 24.5465 12.208C24.8959 12.4812 25.231 12.839 25.472 13.1416C25.7129 13.4441 25.8597 13.6912 25.9715 13.9287C26.0831 14.1662 26.1599 14.3939 26.2228 14.589C26.2857 14.7842 26.3345 14.9468 26.3598 15.0651C26.3851 15.1833 26.3865 15.2571 26.388 15.3309" stroke="white" stroke-width="0.3501"/>
<path d="M20.2444 21.0823C19.6926 20.8546 19.1409 20.6269 18.6729 20.3667C18.2051 20.1065 17.8208 19.8137 17.5101 19.4397C17.1993 19.0655 16.9618 18.6101 16.7941 18.1092C16.6266 17.6083 16.5287 17.0617 16.5637 16.4568C16.5987 15.8517 16.7661 15.1882 16.9408 14.697C17.1155 14.2058 17.297 13.887 17.6392 13.5325C17.9814 13.1779 18.4844 12.7876 19.0223 12.4883C19.56 12.189 20.1328 11.9809 20.681 11.8736C21.2293 11.7662 21.7531 11.7597 22.2211 11.8084C22.6891 11.8573 23.1011 11.9613 23.4608 12.1305C23.8205 12.2996 24.1279 12.5339 24.4177 12.8038C24.7075 13.0738 24.98 13.3796 25.1895 13.6723C25.3991 13.9651 25.5457 14.2448 25.6469 14.466C25.7483 14.6873 25.8041 14.8499 25.8368 14.9971C25.8696 15.1443 25.8792 15.2759 25.8889 15.4076" stroke="white" stroke-width="0.3501"/>
<path d="M24.6655 15.5389C24.4559 15.3892 24.2465 15.2397 24.0439 15.129C23.8414 15.0185 23.6458 14.9469 23.4678 14.9014C23.2896 14.8559 23.129 14.8363 22.9649 14.8298C22.8007 14.8233 22.6331 14.8298 22.42 14.8737C22.207 14.9176 21.9486 14.9989 21.7164 15.0835C21.4841 15.1681 21.278 15.2559 21.0982 15.3681C20.9184 15.4804 20.7647 15.617 20.6111 15.8415C20.4574 16.0659 20.3038 16.3781 20.2008 16.6319C20.0977 16.8856 20.0453 17.0808 20.0086 17.2369C19.9719 17.393 19.9511 17.5101 19.9545 17.6142C19.958 17.7183 19.9861 17.8094 20.0227 17.9281C20.0593 18.0468 20.1046 18.1933 20.2288 18.3819C20.3526 18.5706 20.5552 18.8015 20.7543 18.9967C20.9533 19.1919 21.1488 19.3513 21.3165 19.483C21.4841 19.6148 21.6238 19.7188 21.8037 19.8018C21.9836 19.8848 22.2035 19.9466 22.3555 19.9808C22.5073 20.0149 22.5912 20.0214 22.6806 20.0176C22.7698 20.0137 22.8645 19.9995 22.9592 19.9852" stroke="white" stroke-width="0.3501"/>
<path d="M22.3557 19.981C21.9838 19.6616 21.6118 19.3423 21.3648 19.0867C21.1177 18.8311 20.9955 18.6391 20.9169 18.483C20.8384 18.3269 20.8034 18.2065 20.9326 17.782C21.0618 17.3575 21.3552 16.6288 21.5385 16.2434C21.7219 15.858 21.7952 15.8156 22.1636 15.7213C22.5321 15.627 23.1956 15.4806 23.557 15.4057C23.9185 15.331 23.9778 15.3277 24.039 15.3375C24.1 15.3472 24.163 15.37 24.2677 15.4057C24.3725 15.4416 24.5191 15.4904 24.6658 15.5391" stroke="white" stroke-width="0.3501"/>
<path d="M20.9883 15.4424C21.2394 15.5592 21.4908 15.6761 21.7419 15.7929" stroke="white" stroke-width="0.3501"/>
<path d="M20.8529 18.3045C20.5761 18.179 20.2992 18.0537 20.0225 17.9282" stroke="white" stroke-width="0.3501"/>
<defs>
<linearGradient id="paint0_linear_964_1085" x1="115" y1="0.000488281" x2="115" y2="58.0003" gradientUnits="userSpaceOnUse">
<stop stop-color="#101F52"/>
<stop offset="0.9999" stop-color="#101F52" stop-opacity="0.8125"/>
<stop offset="1" stop-color="#101F52" stop-opacity="0"/>
</linearGradient>
</defs>
</svg>
