<svg width="204" height="58" viewBox="0 0 204 58" fill="none" xmlns="http://www.w3.org/2000/svg">
<rect y="0.000488281" width="204" height="57.9998" rx="5" fill="url(#paint0_linear_973_2045)"/>
<path d="M95.9712 48.6508C82.2707 49.9357 66.6623 53.2274 63.7963 53.8466C63.4888 53.913 63.204 54.0495 62.9577 54.2453C61.4218 55.4663 62.2852 57.9397 64.2472 57.9397H198.932C201.693 57.9397 203.932 55.7012 203.932 52.9397V46.7444C203.932 43.6216 201.101 41.263 198.029 41.8265L192.215 42.8932L171.292 45.0043L150.639 47.0883C150.46 47.1064 150.303 47.1149 150.123 47.1138C146.964 47.095 114.174 46.9435 95.9712 48.6508Z" fill="#0F2458" fill-opacity="0.5"/>
<path d="M120.802 49.99C110.348 51.0799 98.4501 53.8565 96.0896 54.422C95.8089 54.4893 95.5573 54.6233 95.341 54.8144C94.1079 55.904 94.8786 57.94 96.5241 57.94H198.932C201.693 57.94 203.932 55.7014 203.932 52.94V49.3451C203.932 46.1822 201.032 43.814 197.933 44.4459L194.91 45.0623L178.8 46.8691L162.987 48.6425C162.789 48.6648 162.592 48.6752 162.392 48.6739C159.405 48.6553 134.635 48.5481 120.802 49.99Z" fill="#0D2862" fill-opacity="0.5"/>
<path d="M106.942 12.4689C120.109 10.7945 135.057 6.58121 138.514 5.57623C139.002 5.43455 139.436 5.16236 139.782 4.79025C141.474 2.96561 140.18 -1.80105e-05 137.691 -1.80105e-05L5.06077 -1.80105e-05C2.29935 -1.80105e-05 0.0607738 2.23856 0.0607738 4.99998L0.0607738 16.6869C0.0607738 19.9373 3.11343 22.3237 6.26774 21.539L11.6602 20.1976L32.3736 17.3638L52.7248 14.5795C52.9659 14.5465 53.2002 14.5311 53.4435 14.5329C57.1648 14.5615 89.1168 14.7357 106.942 12.4689Z" fill="#0F2458" fill-opacity="0.7"/>
<path d="M93.9862 9.37271C105.752 8.09295 119.134 4.84039 121.876 4.1557C122.215 4.07109 122.517 3.90408 122.773 3.66734C124.188 2.3628 123.265 7.23182e-05 121.341 7.23182e-05L5.06069 7.23182e-05C2.29926 7.23182e-05 0.060692 2.23865 0.060692 5.00007V11.1753C0.060692 14.3555 2.99062 16.7277 6.10125 16.0658L10.2542 15.1822L28.4568 13.0521L46.3486 10.9583C46.5556 10.9341 46.7541 10.9227 46.9626 10.9241C50.184 10.9454 78.3056 11.0784 93.9862 9.37271Z" fill="#0D2862" fill-opacity="0.7"/>
<g opacity="0.89">
<path d="M87.072 22.12C86.6827 22.12 86.328 22.056 86.008 21.928C85.688 21.8 85.4133 21.6133 85.184 21.368C84.9547 21.1227 84.776 20.8213 84.648 20.464C84.5253 20.1013 84.464 19.688 84.464 19.224C84.464 18.76 84.5333 18.3493 84.672 17.992C84.816 17.6293 85.008 17.3253 85.248 17.08C85.488 16.8347 85.768 16.648 86.088 16.52C86.408 16.392 86.7493 16.328 87.112 16.328C87.3413 16.328 87.5467 16.344 87.728 16.376C87.9147 16.408 88.0747 16.4453 88.208 16.488C88.3467 16.5307 88.4587 16.5733 88.544 16.616C88.6293 16.6587 88.688 16.6907 88.72 16.712L88.496 17.352C88.448 17.32 88.3787 17.2853 88.288 17.248C88.1973 17.2107 88.0933 17.1733 87.976 17.136C87.864 17.0987 87.7387 17.0693 87.6 17.048C87.4667 17.0213 87.3307 17.008 87.192 17.008C86.8987 17.008 86.6347 17.0587 86.4 17.16C86.1653 17.2613 85.9653 17.408 85.8 17.6C85.6347 17.792 85.5067 18.0267 85.416 18.304C85.3307 18.576 85.288 18.8827 85.288 19.224C85.288 19.5547 85.3253 19.856 85.4 20.128C85.48 20.4 85.5973 20.6347 85.752 20.832C85.9067 21.024 86.0987 21.1733 86.328 21.28C86.5627 21.3867 86.8347 21.44 87.144 21.44C87.5013 21.44 87.7973 21.4027 88.032 21.328C88.2667 21.2533 88.4427 21.1867 88.56 21.128L88.76 21.768C88.7227 21.7947 88.656 21.8293 88.56 21.872C88.464 21.9093 88.344 21.9467 88.2 21.984C88.056 22.0213 87.888 22.0533 87.696 22.08C87.504 22.1067 87.296 22.12 87.072 22.12ZM90.3929 18.936C90.3396 19.464 90.2996 19.992 90.2729 20.52C90.2463 21.0427 90.2249 21.536 90.2089 22H89.4969C89.5076 21.6747 89.5236 21.336 89.5449 20.984C89.5663 20.6267 89.5903 20.2693 89.6169 19.912C89.6436 19.5493 89.6729 19.1947 89.7049 18.848C89.7369 18.496 89.7716 18.16 89.8089 17.84H90.4889C90.6596 18.1173 90.8596 18.4987 91.0889 18.984C91.3183 19.464 91.5823 20.0187 91.8809 20.648C92.1796 20.0187 92.4436 19.464 92.6729 18.984C92.9023 18.4987 93.1023 18.1173 93.2729 17.84H93.9609C93.9983 18.16 94.0329 18.496 94.0649 18.848C94.0969 19.1947 94.1263 19.5493 94.1529 19.912C94.1796 20.2693 94.2036 20.6267 94.2249 20.984C94.2463 21.336 94.2623 21.6747 94.2729 22H93.5369C93.5209 21.536 93.4996 21.0427 93.4729 20.52C93.4463 19.992 93.4063 19.464 93.3529 18.936C93.2676 19.1013 93.1689 19.3013 93.0569 19.536C92.9449 19.7653 92.8329 20 92.7209 20.24C92.6143 20.48 92.5129 20.7093 92.4169 20.928C92.3209 21.1467 92.2463 21.32 92.1929 21.448H91.5689C91.5103 21.3147 91.4303 21.1387 91.3289 20.92C91.2329 20.7013 91.1289 20.472 91.0169 20.232C90.9103 19.9867 90.8009 19.7493 90.6889 19.52C90.5769 19.2853 90.4783 19.0907 90.3929 18.936ZM95.2205 19.928C95.2205 19.56 95.2738 19.24 95.3805 18.968C95.4872 18.6907 95.6285 18.4613 95.8045 18.28C95.9805 18.0987 96.1832 17.9627 96.4125 17.872C96.6418 17.7813 96.8765 17.736 97.1165 17.736C97.6765 17.736 98.1058 17.912 98.4045 18.264C98.7032 18.6107 98.8525 19.1413 98.8525 19.856C98.8525 19.888 98.8525 19.9307 98.8525 19.984C98.8525 20.032 98.8498 20.0773 98.8445 20.12H95.9965C96.0285 20.552 96.1538 20.88 96.3725 21.104C96.5912 21.328 96.9325 21.44 97.3965 21.44C97.6578 21.44 97.8765 21.4187 98.0525 21.376C98.2338 21.328 98.3698 21.2827 98.4605 21.24L98.5645 21.864C98.4738 21.912 98.3138 21.9627 98.0845 22.016C97.8605 22.0693 97.6045 22.096 97.3165 22.096C96.9538 22.096 96.6392 22.0427 96.3725 21.936C96.1112 21.824 95.8952 21.672 95.7245 21.48C95.5538 21.288 95.4258 21.0613 95.3405 20.8C95.2605 20.5333 95.2205 20.2427 95.2205 19.928ZM98.0765 19.52C98.0818 19.184 97.9965 18.9093 97.8205 18.696C97.6498 18.4773 97.4125 18.368 97.1085 18.368C96.9378 18.368 96.7858 18.4027 96.6525 18.472C96.5245 18.536 96.4152 18.6213 96.3245 18.728C96.2338 18.8347 96.1618 18.9573 96.1085 19.096C96.0605 19.2347 96.0285 19.376 96.0125 19.52H98.0765ZM101.729 22.096C101.393 22.096 101.097 22.0427 100.841 21.936C100.591 21.8293 100.377 21.68 100.201 21.488C100.031 21.296 99.9026 21.0693 99.8173 20.808C99.7319 20.5413 99.6893 20.248 99.6893 19.928C99.6893 19.608 99.7346 19.3147 99.8253 19.048C99.9213 18.7813 100.055 18.552 100.225 18.36C100.396 18.1627 100.604 18.0107 100.849 17.904C101.1 17.792 101.377 17.736 101.681 17.736C101.868 17.736 102.055 17.752 102.241 17.784C102.428 17.816 102.607 17.8667 102.777 17.936L102.609 18.568C102.497 18.5147 102.367 18.472 102.217 18.44C102.073 18.408 101.919 18.392 101.753 18.392C101.337 18.392 101.017 18.5227 100.793 18.784C100.575 19.0453 100.465 19.4267 100.465 19.928C100.465 20.152 100.489 20.3573 100.537 20.544C100.591 20.7307 100.671 20.8907 100.777 21.024C100.889 21.1573 101.031 21.2613 101.201 21.336C101.372 21.4053 101.58 21.44 101.825 21.44C102.023 21.44 102.201 21.4213 102.361 21.384C102.521 21.3467 102.647 21.3067 102.737 21.264L102.841 21.888C102.799 21.9147 102.737 21.9413 102.657 21.968C102.577 21.9893 102.487 22.008 102.385 22.024C102.284 22.0453 102.175 22.0613 102.057 22.072C101.945 22.088 101.836 22.096 101.729 22.096ZM107.136 17.84V22H106.416V18.832C106.256 19.0347 106.08 19.272 105.888 19.544C105.696 19.816 105.504 20.0987 105.312 20.392C105.12 20.68 104.936 20.9653 104.76 21.248C104.584 21.5307 104.432 21.7813 104.304 22H103.64V17.84H104.36V20.832C104.499 20.6027 104.656 20.352 104.832 20.08C105.008 19.8027 105.189 19.5307 105.376 19.264C105.568 18.992 105.757 18.7333 105.944 18.488C106.136 18.2373 106.315 18.0213 106.48 17.84H107.136ZM111.349 17.84V18.464H109.997V22H109.253V18.464H107.901V17.84H111.349ZM111.885 19.928C111.885 19.56 111.938 19.24 112.045 18.968C112.151 18.6907 112.293 18.4613 112.469 18.28C112.645 18.0987 112.847 17.9627 113.077 17.872C113.306 17.7813 113.541 17.736 113.781 17.736C114.341 17.736 114.77 17.912 115.069 18.264C115.367 18.6107 115.517 19.1413 115.517 19.856C115.517 19.888 115.517 19.9307 115.517 19.984C115.517 20.032 115.514 20.0773 115.509 20.12H112.661C112.693 20.552 112.818 20.88 113.037 21.104C113.255 21.328 113.597 21.44 114.061 21.44C114.322 21.44 114.541 21.4187 114.717 21.376C114.898 21.328 115.034 21.2827 115.125 21.24L115.229 21.864C115.138 21.912 114.978 21.9627 114.749 22.016C114.525 22.0693 114.269 22.096 113.981 22.096C113.618 22.096 113.303 22.0427 113.037 21.936C112.775 21.824 112.559 21.672 112.389 21.48C112.218 21.288 112.09 21.0613 112.005 20.8C111.925 20.5333 111.885 20.2427 111.885 19.928ZM114.741 19.52C114.746 19.184 114.661 18.9093 114.485 18.696C114.314 18.4773 114.077 18.368 113.773 18.368C113.602 18.368 113.45 18.4027 113.317 18.472C113.189 18.536 113.079 18.6213 112.989 18.728C112.898 18.8347 112.826 18.9573 112.773 19.096C112.725 19.2347 112.693 19.376 112.677 19.52H114.741ZM118.033 18.464C118.033 18.64 118.028 18.8293 118.017 19.032C118.012 19.2293 117.999 19.4293 117.977 19.632C117.956 19.8293 117.927 20.0267 117.889 20.224C117.852 20.416 117.804 20.5973 117.745 20.768C117.687 20.9387 117.612 21.0987 117.521 21.248C117.436 21.3973 117.329 21.5307 117.201 21.648C117.073 21.76 116.924 21.856 116.753 21.936C116.583 22.0107 116.383 22.0587 116.153 22.08L116.049 21.456C116.311 21.4027 116.516 21.304 116.665 21.16C116.82 21.016 116.943 20.84 117.033 20.632C117.113 20.4507 117.172 20.2453 117.209 20.016C117.247 19.7867 117.273 19.5493 117.289 19.304C117.305 19.0533 117.313 18.8027 117.313 18.552C117.319 18.3013 117.321 18.064 117.321 17.84H120.089V22H119.345V18.464H118.033ZM122.943 21.48C123.257 21.48 123.505 21.4187 123.687 21.296C123.868 21.1733 123.959 20.976 123.959 20.704C123.959 20.5707 123.932 20.456 123.879 20.36C123.825 20.264 123.751 20.1867 123.655 20.128C123.564 20.064 123.457 20.0187 123.335 19.992C123.212 19.96 123.081 19.944 122.943 19.944C122.799 19.944 122.649 19.9493 122.495 19.96C122.345 19.9653 122.217 19.9813 122.111 20.008V21.44C122.143 21.4453 122.191 21.4507 122.255 21.456C122.319 21.4613 122.388 21.4667 122.463 21.472C122.543 21.472 122.623 21.4747 122.703 21.48C122.788 21.48 122.868 21.48 122.943 21.48ZM121.367 21.912V17.84H122.111V19.432C122.153 19.4213 122.209 19.4107 122.279 19.4C122.353 19.3893 122.431 19.3787 122.511 19.368C122.596 19.3573 122.684 19.3493 122.775 19.344C122.865 19.3387 122.951 19.336 123.031 19.336C123.26 19.336 123.476 19.3627 123.679 19.416C123.881 19.464 124.057 19.544 124.207 19.656C124.361 19.7627 124.484 19.904 124.575 20.08C124.665 20.2507 124.711 20.456 124.711 20.696C124.711 20.9467 124.668 21.16 124.583 21.336C124.497 21.512 124.375 21.656 124.215 21.768C124.055 21.88 123.863 21.96 123.639 22.008C123.42 22.0613 123.175 22.088 122.903 22.088C122.636 22.088 122.375 22.072 122.119 22.04C121.863 22.0133 121.612 21.9707 121.367 21.912ZM130.381 17.84V18.464H129.029V22H128.285V18.464H126.933V17.84H130.381ZM131.892 19.56H132.804C132.836 19.2827 132.905 19.032 133.012 18.808C133.124 18.584 133.262 18.392 133.428 18.232C133.593 18.072 133.782 17.9493 133.996 17.864C134.209 17.7787 134.438 17.736 134.684 17.736C134.956 17.736 135.206 17.7893 135.436 17.896C135.67 17.9973 135.873 18.144 136.044 18.336C136.214 18.528 136.348 18.76 136.444 19.032C136.54 19.2987 136.588 19.5947 136.588 19.92C136.588 20.2507 136.54 20.5493 136.444 20.816C136.348 21.0827 136.214 21.312 136.044 21.504C135.873 21.696 135.67 21.8453 135.436 21.952C135.206 22.0533 134.956 22.104 134.684 22.104C134.428 22.104 134.188 22.0587 133.964 21.968C133.745 21.872 133.553 21.7413 133.388 21.576C133.222 21.4053 133.086 21.2 132.98 20.96C132.878 20.72 132.817 20.4533 132.796 20.16H131.892V22H131.148V17.84H131.892V19.56ZM135.82 19.92C135.82 19.4507 135.716 19.08 135.508 18.808C135.305 18.5307 135.03 18.392 134.684 18.392C134.337 18.392 134.06 18.5307 133.852 18.808C133.649 19.08 133.548 19.4507 133.548 19.92C133.548 20.3893 133.649 20.7627 133.852 21.04C134.06 21.312 134.337 21.448 134.684 21.448C135.03 21.448 135.305 21.312 135.508 21.04C135.716 20.7627 135.82 20.3893 135.82 19.92ZM139.08 18.464C139.08 18.64 139.075 18.8293 139.064 19.032C139.059 19.2293 139.046 19.4293 139.024 19.632C139.003 19.8293 138.974 20.0267 138.936 20.224C138.899 20.416 138.851 20.5973 138.792 20.768C138.734 20.9387 138.659 21.0987 138.568 21.248C138.483 21.3973 138.376 21.5307 138.248 21.648C138.12 21.76 137.971 21.856 137.8 21.936C137.63 22.0107 137.43 22.0587 137.2 22.08L137.096 21.456C137.358 21.4027 137.563 21.304 137.712 21.16C137.867 21.016 137.99 20.84 138.08 20.632C138.16 20.4507 138.219 20.2453 138.256 20.016C138.294 19.7867 138.32 19.5493 138.336 19.304C138.352 19.0533 138.36 18.8027 138.36 18.552C138.366 18.3013 138.368 18.064 138.368 17.84H141.136V22H140.392V18.464H139.08ZM143.989 21.48C144.304 21.48 144.552 21.4187 144.733 21.296C144.915 21.1733 145.005 20.976 145.005 20.704C145.005 20.5707 144.979 20.456 144.925 20.36C144.872 20.264 144.797 20.1867 144.701 20.128C144.611 20.064 144.504 20.0187 144.381 19.992C144.259 19.96 144.128 19.944 143.989 19.944C143.845 19.944 143.696 19.9493 143.541 19.96C143.392 19.9653 143.264 19.9813 143.157 20.008V21.44C143.189 21.4453 143.237 21.4507 143.301 21.456C143.365 21.4613 143.435 21.4667 143.509 21.472C143.589 21.472 143.669 21.4747 143.749 21.48C143.835 21.48 143.915 21.48 143.989 21.48ZM142.413 21.912V17.84H143.157V19.432C143.2 19.4213 143.256 19.4107 143.325 19.4C143.4 19.3893 143.477 19.3787 143.557 19.368C143.643 19.3573 143.731 19.3493 143.821 19.344C143.912 19.3387 143.997 19.336 144.077 19.336C144.307 19.336 144.523 19.3627 144.725 19.416C144.928 19.464 145.104 19.544 145.253 19.656C145.408 19.7627 145.531 19.904 145.621 20.08C145.712 20.2507 145.757 20.456 145.757 20.696C145.757 20.9467 145.715 21.16 145.629 21.336C145.544 21.512 145.421 21.656 145.261 21.768C145.101 21.88 144.909 21.96 144.685 22.008C144.467 22.0613 144.221 22.088 143.949 22.088C143.683 22.088 143.421 22.072 143.165 22.04C142.909 22.0133 142.659 21.9707 142.413 21.912ZM149.984 22H149.24V18.464H147.384V22H146.64V17.84H149.984V22ZM152.673 21.464C152.849 21.464 153.004 21.4613 153.137 21.456C153.276 21.4453 153.39 21.4293 153.481 21.408V20.168C153.428 20.1413 153.34 20.12 153.217 20.104C153.1 20.0827 152.956 20.072 152.785 20.072C152.673 20.072 152.553 20.08 152.425 20.096C152.302 20.112 152.188 20.1467 152.081 20.2C151.98 20.248 151.894 20.3173 151.825 20.408C151.756 20.4933 151.721 20.608 151.721 20.752C151.721 21.0187 151.806 21.2053 151.977 21.312C152.148 21.4133 152.38 21.464 152.673 21.464ZM152.609 17.736C152.908 17.736 153.158 17.776 153.361 17.856C153.569 17.9307 153.734 18.04 153.857 18.184C153.985 18.3227 154.076 18.4907 154.129 18.688C154.182 18.88 154.209 19.0933 154.209 19.328V21.928C154.145 21.9387 154.054 21.9547 153.937 21.976C153.825 21.992 153.697 22.008 153.553 22.024C153.409 22.04 153.252 22.0533 153.081 22.064C152.916 22.08 152.75 22.088 152.585 22.088C152.35 22.088 152.134 22.064 151.937 22.016C151.74 21.968 151.569 21.8933 151.425 21.792C151.281 21.6853 151.169 21.5467 151.089 21.376C151.009 21.2053 150.969 21 150.969 20.76C150.969 20.5307 151.014 20.3333 151.105 20.168C151.201 20.0027 151.329 19.8693 151.489 19.768C151.649 19.6667 151.836 19.592 152.049 19.544C152.262 19.496 152.486 19.472 152.721 19.472C152.796 19.472 152.873 19.4773 152.953 19.488C153.033 19.4933 153.108 19.504 153.177 19.52C153.252 19.5307 153.316 19.5413 153.369 19.552C153.422 19.5627 153.46 19.5707 153.481 19.576V19.368C153.481 19.2453 153.468 19.1253 153.441 19.008C153.414 18.8853 153.366 18.7787 153.297 18.688C153.228 18.592 153.132 18.5173 153.009 18.464C152.892 18.4053 152.737 18.376 152.545 18.376C152.3 18.376 152.084 18.3947 151.897 18.432C151.716 18.464 151.58 18.4987 151.489 18.536L151.401 17.92C151.497 17.8773 151.657 17.8373 151.881 17.8C152.105 17.7573 152.348 17.736 152.609 17.736ZM158.853 22H158.109V20.16H156.189V22H155.445V17.84H156.189V19.536H158.109V17.84H158.853V22ZM161.472 21.392H161.92C162.096 21.136 162.234 20.872 162.336 20.6C162.442 20.328 162.522 20.048 162.576 19.76C162.629 19.4667 162.664 19.1627 162.68 18.848C162.696 18.528 162.706 18.192 162.712 17.84H165.44V21.392H166V23.16H165.296V22H162.176V23.16H161.472V21.392ZM164.696 21.392V18.464H163.392C163.386 18.7147 163.373 18.968 163.352 19.224C163.33 19.4747 163.296 19.7253 163.248 19.976C163.2 20.2213 163.13 20.464 163.04 20.704C162.954 20.9387 162.845 21.168 162.712 21.392H164.696ZM168.424 18.464C168.424 18.64 168.419 18.8293 168.408 19.032C168.403 19.2293 168.389 19.4293 168.368 19.632C168.347 19.8293 168.317 20.0267 168.28 20.224C168.243 20.416 168.195 20.5973 168.136 20.768C168.077 20.9387 168.003 21.0987 167.912 21.248C167.827 21.3973 167.72 21.5307 167.592 21.648C167.464 21.76 167.315 21.856 167.144 21.936C166.973 22.0107 166.773 22.0587 166.544 22.08L166.44 21.456C166.701 21.4027 166.907 21.304 167.056 21.16C167.211 21.016 167.333 20.84 167.424 20.632C167.504 20.4507 167.563 20.2453 167.6 20.016C167.637 19.7867 167.664 19.5493 167.68 19.304C167.696 19.0533 167.704 18.8027 167.704 18.552C167.709 18.3013 167.712 18.064 167.712 17.84H170.48V22H169.736V18.464H168.424ZM173.477 20.384C173.397 20.384 173.32 20.384 173.245 20.384C173.171 20.3787 173.099 20.3733 173.029 20.368C172.859 20.624 172.693 20.8987 172.533 21.192C172.379 21.48 172.24 21.7493 172.117 22H171.365C171.429 21.8453 171.504 21.688 171.589 21.528C171.675 21.3627 171.76 21.2027 171.845 21.048C171.936 20.8933 172.027 20.7467 172.117 20.608C172.208 20.4693 172.293 20.344 172.373 20.232C172.224 20.1787 172.101 20.1147 172.005 20.04C171.909 19.96 171.832 19.872 171.773 19.776C171.715 19.68 171.672 19.5787 171.645 19.472C171.624 19.36 171.613 19.248 171.613 19.136C171.613 18.9013 171.656 18.696 171.741 18.52C171.832 18.344 171.955 18.2 172.109 18.088C172.264 17.9707 172.445 17.8827 172.653 17.824C172.867 17.7653 173.099 17.736 173.349 17.736C173.701 17.736 174 17.752 174.245 17.784C174.491 17.816 174.696 17.8533 174.861 17.896V22H174.125V20.384H173.477ZM174.125 18.392C174.067 18.3813 173.968 18.3707 173.829 18.36C173.696 18.3493 173.541 18.344 173.365 18.344C173.061 18.344 172.816 18.408 172.629 18.536C172.443 18.6587 172.349 18.856 172.349 19.128C172.349 19.3947 172.445 19.5787 172.637 19.68C172.829 19.7813 173.077 19.832 173.381 19.832H174.125V18.392ZM87.528 28.928C87.528 28.4427 87.408 28.0693 87.168 27.808C86.928 27.5467 86.608 27.416 86.208 27.416C85.984 27.416 85.808 27.424 85.68 27.44C85.5573 27.456 85.4587 27.4747 85.384 27.496V30.12C85.4747 30.1947 85.6053 30.2667 85.776 30.336C85.9467 30.4053 86.1333 30.44 86.336 30.44C86.5493 30.44 86.7307 30.4027 86.88 30.328C87.0347 30.248 87.16 30.1413 87.256 30.008C87.352 29.8693 87.4213 29.7093 87.464 29.528C87.5067 29.3413 87.528 29.1413 87.528 28.928ZM88.304 28.928C88.304 29.2427 88.2613 29.5333 88.176 29.8C88.096 30.0667 87.976 30.296 87.816 30.488C87.656 30.68 87.4587 30.8293 87.224 30.936C86.9947 31.0427 86.7307 31.096 86.432 31.096C86.192 31.096 85.9787 31.064 85.792 31C85.6107 30.936 85.4747 30.8747 85.384 30.816V32.48H84.64V26.968C84.816 26.9253 85.0347 26.88 85.296 26.832C85.5627 26.7787 85.8693 26.752 86.216 26.752C86.536 26.752 86.824 26.8027 87.08 26.904C87.336 27.0053 87.5547 27.1493 87.736 27.336C87.9173 27.5227 88.056 27.752 88.152 28.024C88.2533 28.2907 88.304 28.592 88.304 28.928ZM90.7589 30.464C90.9349 30.464 91.0896 30.4613 91.2229 30.456C91.3616 30.4453 91.4763 30.4293 91.5669 30.408V29.168C91.5136 29.1413 91.4256 29.12 91.3029 29.104C91.1856 29.0827 91.0416 29.072 90.8709 29.072C90.7589 29.072 90.6389 29.08 90.5109 29.096C90.3883 29.112 90.2736 29.1467 90.1669 29.2C90.0656 29.248 89.9803 29.3173 89.9109 29.408C89.8416 29.4933 89.8069 29.608 89.8069 29.752C89.8069 30.0187 89.8923 30.2053 90.0629 30.312C90.2336 30.4133 90.4656 30.464 90.7589 30.464ZM90.6949 26.736C90.9936 26.736 91.2443 26.776 91.4469 26.856C91.6549 26.9307 91.8203 27.04 91.9429 27.184C92.0709 27.3227 92.1616 27.4907 92.2149 27.688C92.2683 27.88 92.2949 28.0933 92.2949 28.328V30.928C92.2309 30.9387 92.1403 30.9547 92.0229 30.976C91.9109 30.992 91.7829 31.008 91.6389 31.024C91.4949 31.04 91.3376 31.0533 91.1669 31.064C91.0016 31.08 90.8363 31.088 90.6709 31.088C90.4363 31.088 90.2203 31.064 90.0229 31.016C89.8256 30.968 89.6549 30.8933 89.5109 30.792C89.3669 30.6853 89.2549 30.5467 89.1749 30.376C89.0949 30.2053 89.0549 30 89.0549 29.76C89.0549 29.5307 89.1003 29.3333 89.1909 29.168C89.2869 29.0027 89.4149 28.8693 89.5749 28.768C89.7349 28.6667 89.9216 28.592 90.1349 28.544C90.3483 28.496 90.5723 28.472 90.8069 28.472C90.8816 28.472 90.9589 28.4773 91.0389 28.488C91.1189 28.4933 91.1936 28.504 91.2629 28.52C91.3376 28.5307 91.4016 28.5413 91.4549 28.552C91.5083 28.5627 91.5456 28.5707 91.5669 28.576V28.368C91.5669 28.2453 91.5536 28.1253 91.5269 28.008C91.5003 27.8853 91.4523 27.7787 91.3829 27.688C91.3136 27.592 91.2176 27.5173 91.0949 27.464C90.9776 27.4053 90.8229 27.376 90.6309 27.376C90.3856 27.376 90.1696 27.3947 89.9829 27.432C89.8016 27.464 89.6656 27.4987 89.5749 27.536L89.4869 26.92C89.5829 26.8773 89.7429 26.8373 89.9669 26.8C90.1909 26.7573 90.4336 26.736 90.6949 26.736ZM95.0506 28.736C95.216 28.8533 95.3946 29.0027 95.5866 29.184C95.7786 29.36 95.9653 29.552 96.1466 29.76C96.3333 29.968 96.5066 30.1813 96.6666 30.4C96.8266 30.6133 96.9626 30.8133 97.0746 31H96.1946C96.0773 30.8187 95.9386 30.6347 95.7786 30.448C95.624 30.256 95.4613 30.072 95.2906 29.896C95.12 29.72 94.9466 29.5573 94.7706 29.408C94.5946 29.2587 94.4293 29.1333 94.2746 29.032V31H93.5306V26.84H94.2746V28.624C94.4026 28.5013 94.5493 28.36 94.7146 28.2C94.88 28.0347 95.0453 27.8693 95.2106 27.704C95.3813 27.5333 95.5386 27.3733 95.6826 27.224C95.8266 27.0693 95.944 26.9413 96.0346 26.84H96.8986C96.7813 26.968 96.6426 27.1147 96.4826 27.28C96.328 27.44 96.1653 27.6053 95.9946 27.776C95.8293 27.9467 95.664 28.1173 95.4986 28.288C95.3333 28.4533 95.184 28.6027 95.0506 28.736ZM101.265 28.92C101.265 29.2507 101.217 29.5493 101.121 29.816C101.025 30.0827 100.889 30.312 100.713 30.504C100.542 30.696 100.337 30.8453 100.097 30.952C99.8571 31.0533 99.5958 31.104 99.3131 31.104C99.0305 31.104 98.7691 31.0533 98.5291 30.952C98.2891 30.8453 98.0811 30.696 97.9051 30.504C97.7345 30.312 97.6011 30.0827 97.5051 29.816C97.4091 29.5493 97.3611 29.2507 97.3611 28.92C97.3611 28.5947 97.4091 28.2987 97.5051 28.032C97.6011 27.76 97.7345 27.528 97.9051 27.336C98.0811 27.144 98.2891 26.9973 98.5291 26.896C98.7691 26.7893 99.0305 26.736 99.3131 26.736C99.5958 26.736 99.8571 26.7893 100.097 26.896C100.337 26.9973 100.542 27.144 100.713 27.336C100.889 27.528 101.025 27.76 101.121 28.032C101.217 28.2987 101.265 28.5947 101.265 28.92ZM100.489 28.92C100.489 28.4507 100.382 28.08 100.169 27.808C99.9611 27.5307 99.6758 27.392 99.3131 27.392C98.9505 27.392 98.6625 27.5307 98.4491 27.808C98.2411 28.08 98.1371 28.4507 98.1371 28.92C98.1371 29.3893 98.2411 29.7627 98.4491 30.04C98.6625 30.312 98.9505 30.448 99.3131 30.448C99.6758 30.448 99.9611 30.312 100.169 30.04C100.382 29.7627 100.489 29.3893 100.489 28.92ZM103.04 30.44C103.072 30.4453 103.117 30.4507 103.176 30.456C103.235 30.4613 103.301 30.4667 103.376 30.472C103.451 30.472 103.528 30.4747 103.608 30.48C103.693 30.48 103.773 30.48 103.848 30.48C104.003 30.48 104.149 30.4693 104.288 30.448C104.432 30.4267 104.555 30.3893 104.656 30.336C104.763 30.2827 104.845 30.2133 104.904 30.128C104.968 30.0373 105 29.9227 105 29.784C105 29.6507 104.971 29.5413 104.912 29.456C104.859 29.3653 104.784 29.2933 104.688 29.24C104.592 29.1867 104.477 29.1493 104.344 29.128C104.216 29.1067 104.077 29.096 103.928 29.096H103.04V30.44ZM103.832 28.544C103.976 28.544 104.107 28.536 104.224 28.52C104.347 28.4987 104.451 28.464 104.536 28.416C104.627 28.368 104.696 28.304 104.744 28.224C104.797 28.144 104.824 28.0427 104.824 27.92C104.824 27.792 104.792 27.6907 104.728 27.616C104.664 27.5413 104.579 27.4853 104.472 27.448C104.371 27.4053 104.253 27.3787 104.12 27.368C103.992 27.352 103.861 27.344 103.728 27.344C103.605 27.344 103.48 27.3467 103.352 27.352C103.229 27.3573 103.125 27.3627 103.04 27.368V28.544H103.832ZM103.816 31.072C103.501 31.072 103.211 31.056 102.944 31.024C102.677 30.9973 102.467 30.9653 102.312 30.928V26.88C102.467 26.8427 102.677 26.8107 102.944 26.784C103.211 26.752 103.501 26.736 103.816 26.736C104.035 26.736 104.248 26.7547 104.456 26.792C104.664 26.8293 104.848 26.8933 105.008 26.984C105.168 27.0693 105.296 27.1893 105.392 27.344C105.493 27.4933 105.544 27.68 105.544 27.904C105.544 28.1067 105.493 28.28 105.392 28.424C105.291 28.568 105.155 28.68 104.984 28.76C105.213 28.84 105.395 28.96 105.528 29.12C105.667 29.2747 105.736 29.4933 105.736 29.776C105.736 30.0267 105.685 30.2347 105.584 30.4C105.488 30.5653 105.352 30.6987 105.176 30.8C105.005 30.9013 104.803 30.9707 104.568 31.008C104.333 31.0507 104.083 31.072 103.816 31.072ZM110.191 26.84V31H109.471V27.832C109.311 28.0347 109.135 28.272 108.943 28.544C108.751 28.816 108.559 29.0987 108.367 29.392C108.175 29.68 107.991 29.9653 107.815 30.248C107.639 30.5307 107.487 30.7813 107.359 31H106.695V26.84H107.415V29.832C107.553 29.6027 107.711 29.352 107.887 29.08C108.063 28.8027 108.244 28.5307 108.431 28.264C108.623 27.992 108.812 27.7333 108.999 27.488C109.191 27.2373 109.369 27.0213 109.535 26.84H110.191ZM114.876 31H114.132V29.16H112.212V31H111.468V26.84H112.212V28.536H114.132V26.84H114.876V31ZM117.684 28.944C117.54 28.944 117.398 28.9493 117.26 28.96C117.126 28.9653 117.006 28.9813 116.9 29.008V30.44C116.932 30.4453 116.977 30.4507 117.036 30.456C117.1 30.4613 117.166 30.4667 117.236 30.472C117.31 30.472 117.385 30.4747 117.46 30.48C117.534 30.48 117.601 30.48 117.66 30.48C117.985 30.48 118.236 30.4187 118.412 30.296C118.588 30.1733 118.676 29.976 118.676 29.704C118.676 29.5707 118.646 29.456 118.588 29.36C118.534 29.264 118.46 29.1867 118.364 29.128C118.273 29.064 118.169 29.0187 118.052 28.992C117.934 28.96 117.812 28.944 117.684 28.944ZM116.156 26.84H116.9V28.432C116.99 28.4107 117.121 28.3893 117.292 28.368C117.468 28.3467 117.636 28.336 117.796 28.336C118.014 28.336 118.222 28.3627 118.42 28.416C118.617 28.464 118.79 28.544 118.94 28.656C119.089 28.7627 119.206 28.904 119.292 29.08C119.382 29.2507 119.428 29.456 119.428 29.696C119.428 29.9467 119.385 30.16 119.3 30.336C119.214 30.512 119.094 30.656 118.94 30.768C118.785 30.88 118.598 30.96 118.38 31.008C118.161 31.0613 117.921 31.088 117.66 31.088C117.409 31.088 117.156 31.072 116.9 31.04C116.644 31.0133 116.396 30.9707 116.156 30.912V26.84ZM120.94 31H120.196V26.84H120.94V31ZM127.566 26.84V31H126.846V27.832C126.686 28.0347 126.51 28.272 126.318 28.544C126.126 28.816 125.934 29.0987 125.742 29.392C125.55 29.68 125.366 29.9653 125.19 30.248C125.014 30.5307 124.862 30.7813 124.734 31H124.07V26.84H124.79V29.832C124.928 29.6027 125.086 29.352 125.262 29.08C125.438 28.8027 125.619 28.5307 125.806 28.264C125.998 27.992 126.187 27.7333 126.374 27.488C126.566 27.2373 126.744 27.0213 126.91 26.84H127.566ZM130.207 31.776C130.265 31.8027 130.34 31.8267 130.431 31.848C130.527 31.8747 130.62 31.888 130.711 31.888C131.004 31.888 131.233 31.8213 131.399 31.688C131.564 31.56 131.713 31.3493 131.847 31.056C131.511 30.416 131.196 29.7387 130.903 29.024C130.615 28.304 130.375 27.576 130.183 26.84H130.983C131.041 27.08 131.111 27.3387 131.191 27.616C131.276 27.8933 131.369 28.1787 131.471 28.472C131.572 28.7653 131.681 29.0587 131.799 29.352C131.916 29.6453 132.039 29.928 132.167 30.2C132.369 29.64 132.545 29.0853 132.695 28.536C132.844 27.9867 132.985 27.4213 133.119 26.84H133.887C133.695 27.624 133.481 28.3787 133.247 29.104C133.012 29.824 132.759 30.4987 132.487 31.128C132.38 31.368 132.268 31.5733 132.151 31.744C132.039 31.92 131.913 32.064 131.775 32.176C131.636 32.288 131.479 32.3707 131.303 32.424C131.132 32.4773 130.937 32.504 130.719 32.504C130.66 32.504 130.599 32.4987 130.535 32.488C130.471 32.4827 130.407 32.472 130.343 32.456C130.284 32.4453 130.228 32.432 130.175 32.416C130.127 32.4 130.092 32.3867 130.071 32.376L130.207 31.776ZM135.463 27.936C135.41 28.464 135.37 28.992 135.343 29.52C135.317 30.0427 135.295 30.536 135.279 31H134.567C134.578 30.6747 134.594 30.336 134.615 29.984C134.637 29.6267 134.661 29.2693 134.687 28.912C134.714 28.5493 134.743 28.1947 134.775 27.848C134.807 27.496 134.842 27.16 134.879 26.84H135.559C135.73 27.1173 135.93 27.4987 136.159 27.984C136.389 28.464 136.653 29.0187 136.951 29.648C137.25 29.0187 137.514 28.464 137.743 27.984C137.973 27.4987 138.173 27.1173 138.343 26.84H139.031C139.069 27.16 139.103 27.496 139.135 27.848C139.167 28.1947 139.197 28.5493 139.223 28.912C139.25 29.2693 139.274 29.6267 139.295 29.984C139.317 30.336 139.333 30.6747 139.343 31H138.607C138.591 30.536 138.57 30.0427 138.543 29.52C138.517 28.992 138.477 28.464 138.423 27.936C138.338 28.1013 138.239 28.3013 138.127 28.536C138.015 28.7653 137.903 29 137.791 29.24C137.685 29.48 137.583 29.7093 137.487 29.928C137.391 30.1467 137.317 30.32 137.263 30.448H136.639C136.581 30.3147 136.501 30.1387 136.399 29.92C136.303 29.7013 136.199 29.472 136.087 29.232C135.981 28.9867 135.871 28.7493 135.759 28.52C135.647 28.2853 135.549 28.0907 135.463 27.936ZM142.051 28.944C141.907 28.944 141.765 28.9493 141.627 28.96C141.493 28.9653 141.373 28.9813 141.267 29.008V30.44C141.299 30.4453 141.344 30.4507 141.403 30.456C141.467 30.4613 141.533 30.4667 141.603 30.472C141.677 30.472 141.752 30.4747 141.827 30.48C141.901 30.48 141.968 30.48 142.027 30.48C142.352 30.48 142.603 30.4187 142.779 30.296C142.955 30.1733 143.043 29.976 143.043 29.704C143.043 29.5707 143.013 29.456 142.955 29.36C142.901 29.264 142.827 29.1867 142.731 29.128C142.64 29.064 142.536 29.0187 142.419 28.992C142.301 28.96 142.179 28.944 142.051 28.944ZM140.523 26.84H141.267V28.432C141.357 28.4107 141.488 28.3893 141.659 28.368C141.835 28.3467 142.003 28.336 142.163 28.336C142.381 28.336 142.589 28.3627 142.787 28.416C142.984 28.464 143.157 28.544 143.307 28.656C143.456 28.7627 143.573 28.904 143.659 29.08C143.749 29.2507 143.795 29.456 143.795 29.696C143.795 29.9467 143.752 30.16 143.667 30.336C143.581 30.512 143.461 30.656 143.307 30.768C143.152 30.88 142.965 30.96 142.747 31.008C142.528 31.0613 142.288 31.088 142.027 31.088C141.776 31.088 141.523 31.072 141.267 31.04C141.011 31.0133 140.763 30.9707 140.523 30.912V26.84ZM145.307 31H144.563V26.84H145.307V31ZM147.313 30.44C147.345 30.4453 147.391 30.4507 147.449 30.456C147.508 30.4613 147.575 30.4667 147.649 30.472C147.724 30.472 147.801 30.4747 147.881 30.48C147.967 30.48 148.047 30.48 148.121 30.48C148.276 30.48 148.423 30.4693 148.561 30.448C148.705 30.4267 148.828 30.3893 148.929 30.336C149.036 30.2827 149.119 30.2133 149.177 30.128C149.241 30.0373 149.273 29.9227 149.273 29.784C149.273 29.6507 149.244 29.5413 149.185 29.456C149.132 29.3653 149.057 29.2933 148.961 29.24C148.865 29.1867 148.751 29.1493 148.617 29.128C148.489 29.1067 148.351 29.096 148.201 29.096H147.313V30.44ZM148.105 28.544C148.249 28.544 148.38 28.536 148.497 28.52C148.62 28.4987 148.724 28.464 148.809 28.416C148.9 28.368 148.969 28.304 149.017 28.224C149.071 28.144 149.097 28.0427 149.097 27.92C149.097 27.792 149.065 27.6907 149.001 27.616C148.937 27.5413 148.852 27.4853 148.745 27.448C148.644 27.4053 148.527 27.3787 148.393 27.368C148.265 27.352 148.135 27.344 148.001 27.344C147.879 27.344 147.753 27.3467 147.625 27.352C147.503 27.3573 147.399 27.3627 147.313 27.368V28.544H148.105ZM148.089 31.072C147.775 31.072 147.484 31.056 147.217 31.024C146.951 30.9973 146.74 30.9653 146.585 30.928V26.88C146.74 26.8427 146.951 26.8107 147.217 26.784C147.484 26.752 147.775 26.736 148.089 26.736C148.308 26.736 148.521 26.7547 148.729 26.792C148.937 26.8293 149.121 26.8933 149.281 26.984C149.441 27.0693 149.569 27.1893 149.665 27.344C149.767 27.4933 149.817 27.68 149.817 27.904C149.817 28.1067 149.767 28.28 149.665 28.424C149.564 28.568 149.428 28.68 149.257 28.76C149.487 28.84 149.668 28.96 149.801 29.12C149.94 29.2747 150.009 29.4933 150.009 29.776C150.009 30.0267 149.959 30.2347 149.857 30.4C149.761 30.5653 149.625 30.6987 149.449 30.8C149.279 30.9013 149.076 30.9707 148.841 31.008C148.607 31.0507 148.356 31.072 148.089 31.072ZM152.376 30.464C152.552 30.464 152.707 30.4613 152.84 30.456C152.979 30.4453 153.093 30.4293 153.184 30.408V29.168C153.131 29.1413 153.043 29.12 152.92 29.104C152.803 29.0827 152.659 29.072 152.488 29.072C152.376 29.072 152.256 29.08 152.128 29.096C152.005 29.112 151.891 29.1467 151.784 29.2C151.683 29.248 151.597 29.3173 151.528 29.408C151.459 29.4933 151.424 29.608 151.424 29.752C151.424 30.0187 151.509 30.2053 151.68 30.312C151.851 30.4133 152.083 30.464 152.376 30.464ZM152.312 26.736C152.611 26.736 152.861 26.776 153.064 26.856C153.272 26.9307 153.437 27.04 153.56 27.184C153.688 27.3227 153.779 27.4907 153.832 27.688C153.885 27.88 153.912 28.0933 153.912 28.328V30.928C153.848 30.9387 153.757 30.9547 153.64 30.976C153.528 30.992 153.4 31.008 153.256 31.024C153.112 31.04 152.955 31.0533 152.784 31.064C152.619 31.08 152.453 31.088 152.288 31.088C152.053 31.088 151.837 31.064 151.64 31.016C151.443 30.968 151.272 30.8933 151.128 30.792C150.984 30.6853 150.872 30.5467 150.792 30.376C150.712 30.2053 150.672 30 150.672 29.76C150.672 29.5307 150.717 29.3333 150.808 29.168C150.904 29.0027 151.032 28.8693 151.192 28.768C151.352 28.6667 151.539 28.592 151.752 28.544C151.965 28.496 152.189 28.472 152.424 28.472C152.499 28.472 152.576 28.4773 152.656 28.488C152.736 28.4933 152.811 28.504 152.88 28.52C152.955 28.5307 153.019 28.5413 153.072 28.552C153.125 28.5627 153.163 28.5707 153.184 28.576V28.368C153.184 28.2453 153.171 28.1253 153.144 28.008C153.117 27.8853 153.069 27.7787 153 27.688C152.931 27.592 152.835 27.5173 152.712 27.464C152.595 27.4053 152.44 27.376 152.248 27.376C152.003 27.376 151.787 27.3947 151.6 27.432C151.419 27.464 151.283 27.4987 151.192 27.536L151.104 26.92C151.2 26.8773 151.36 26.8373 151.584 26.8C151.808 26.7573 152.051 26.736 152.312 26.736ZM156.596 27.464C156.596 27.64 156.59 27.8293 156.58 28.032C156.574 28.2293 156.561 28.4293 156.54 28.632C156.518 28.8293 156.489 29.0267 156.452 29.224C156.414 29.416 156.366 29.5973 156.308 29.768C156.249 29.9387 156.174 30.0987 156.084 30.248C155.998 30.3973 155.892 30.5307 155.764 30.648C155.636 30.76 155.486 30.856 155.316 30.936C155.145 31.0107 154.945 31.0587 154.716 31.08L154.612 30.456C154.873 30.4027 155.078 30.304 155.228 30.16C155.382 30.016 155.505 29.84 155.596 29.632C155.676 29.4507 155.734 29.2453 155.772 29.016C155.809 28.7867 155.836 28.5493 155.852 28.304C155.868 28.0533 155.876 27.8027 155.876 27.552C155.881 27.3013 155.884 27.064 155.884 26.84H158.652V31H157.908V27.464H156.596ZM161.505 30.48C161.82 30.48 162.068 30.4187 162.249 30.296C162.43 30.1733 162.521 29.976 162.521 29.704C162.521 29.5707 162.494 29.456 162.441 29.36C162.388 29.264 162.313 29.1867 162.217 29.128C162.126 29.064 162.02 29.0187 161.897 28.992C161.774 28.96 161.644 28.944 161.505 28.944C161.361 28.944 161.212 28.9493 161.057 28.96C160.908 28.9653 160.78 28.9813 160.673 29.008V30.44C160.705 30.4453 160.753 30.4507 160.817 30.456C160.881 30.4613 160.95 30.4667 161.025 30.472C161.105 30.472 161.185 30.4747 161.265 30.48C161.35 30.48 161.43 30.48 161.505 30.48ZM159.929 30.912V26.84H160.673V28.432C160.716 28.4213 160.772 28.4107 160.841 28.4C160.916 28.3893 160.993 28.3787 161.073 28.368C161.158 28.3573 161.246 28.3493 161.337 28.344C161.428 28.3387 161.513 28.336 161.593 28.336C161.822 28.336 162.038 28.3627 162.241 28.416C162.444 28.464 162.62 28.544 162.769 28.656C162.924 28.7627 163.046 28.904 163.137 29.08C163.228 29.2507 163.273 29.456 163.273 29.696C163.273 29.9467 163.23 30.16 163.145 30.336C163.06 30.512 162.937 30.656 162.777 30.768C162.617 30.88 162.425 30.96 162.201 31.008C161.982 31.0613 161.737 31.088 161.465 31.088C161.198 31.088 160.937 31.072 160.681 31.04C160.425 31.0133 160.174 30.9707 159.929 30.912ZM167.564 31H166.82V29.16H164.9V31H164.156V26.84H164.9V28.536H166.82V26.84H167.564V31ZM172.339 26.84V31H171.619V27.832C171.459 28.0347 171.283 28.272 171.091 28.544C170.899 28.816 170.707 29.0987 170.515 29.392C170.323 29.68 170.139 29.9653 169.963 30.248C169.787 30.5307 169.635 30.7813 169.507 31H168.843V26.84H169.563V29.832C169.702 29.6027 169.859 29.352 170.035 29.08C170.211 28.8027 170.392 28.5307 170.579 28.264C170.771 27.992 170.96 27.7333 171.147 27.488C171.339 27.2373 171.518 27.0213 171.683 26.84H172.339ZM175.137 28.736C175.302 28.8533 175.481 29.0027 175.673 29.184C175.865 29.36 176.051 29.552 176.233 29.76C176.419 29.968 176.593 30.1813 176.753 30.4C176.913 30.6133 177.049 30.8133 177.161 31H176.281C176.163 30.8187 176.025 30.6347 175.865 30.448C175.71 30.256 175.547 30.072 175.377 29.896C175.206 29.72 175.033 29.5573 174.857 29.408C174.681 29.2587 174.515 29.1333 174.361 29.032V31H173.617V26.84H174.361V28.624C174.489 28.5013 174.635 28.36 174.801 28.2C174.966 28.0347 175.131 27.8693 175.297 27.704C175.467 27.5333 175.625 27.3733 175.769 27.224C175.913 27.0693 176.03 26.9413 176.121 26.84H176.985C176.867 26.968 176.729 27.1147 176.569 27.28C176.414 27.44 176.251 27.6053 176.081 27.776C175.915 27.9467 175.75 28.1173 175.585 28.288C175.419 28.4533 175.27 28.6027 175.137 28.736ZM179.321 30.464C179.497 30.464 179.652 30.4613 179.785 30.456C179.924 30.4453 180.039 30.4293 180.129 30.408V29.168C180.076 29.1413 179.988 29.12 179.865 29.104C179.748 29.0827 179.604 29.072 179.433 29.072C179.321 29.072 179.201 29.08 179.073 29.096C178.951 29.112 178.836 29.1467 178.729 29.2C178.628 29.248 178.543 29.3173 178.473 29.408C178.404 29.4933 178.369 29.608 178.369 29.752C178.369 30.0187 178.455 30.2053 178.625 30.312C178.796 30.4133 179.028 30.464 179.321 30.464ZM179.257 26.736C179.556 26.736 179.807 26.776 180.009 26.856C180.217 26.9307 180.383 27.04 180.505 27.184C180.633 27.3227 180.724 27.4907 180.777 27.688C180.831 27.88 180.857 28.0933 180.857 28.328V30.928C180.793 30.9387 180.703 30.9547 180.585 30.976C180.473 30.992 180.345 31.008 180.201 31.024C180.057 31.04 179.9 31.0533 179.729 31.064C179.564 31.08 179.399 31.088 179.233 31.088C178.999 31.088 178.783 31.064 178.585 31.016C178.388 30.968 178.217 30.8933 178.073 30.792C177.929 30.6853 177.817 30.5467 177.737 30.376C177.657 30.2053 177.617 30 177.617 29.76C177.617 29.5307 177.663 29.3333 177.753 29.168C177.849 29.0027 177.977 28.8693 178.137 28.768C178.297 28.6667 178.484 28.592 178.697 28.544C178.911 28.496 179.135 28.472 179.369 28.472C179.444 28.472 179.521 28.4773 179.601 28.488C179.681 28.4933 179.756 28.504 179.825 28.52C179.9 28.5307 179.964 28.5413 180.017 28.552C180.071 28.5627 180.108 28.5707 180.129 28.576V28.368C180.129 28.2453 180.116 28.1253 180.089 28.008C180.063 27.8853 180.015 27.7787 179.945 27.688C179.876 27.592 179.78 27.5173 179.657 27.464C179.54 27.4053 179.385 27.376 179.193 27.376C178.948 27.376 178.732 27.3947 178.545 27.432C178.364 27.464 178.228 27.4987 178.137 27.536L178.049 26.92C178.145 26.8773 178.305 26.8373 178.529 26.8C178.753 26.7573 178.996 26.736 179.257 26.736ZM88.312 37.92C88.312 38.2507 88.264 38.5493 88.168 38.816C88.072 39.0827 87.936 39.312 87.76 39.504C87.5893 39.696 87.384 39.8453 87.144 39.952C86.904 40.0533 86.6427 40.104 86.36 40.104C86.0773 40.104 85.816 40.0533 85.576 39.952C85.336 39.8453 85.128 39.696 84.952 39.504C84.7813 39.312 84.648 39.0827 84.552 38.816C84.456 38.5493 84.408 38.2507 84.408 37.92C84.408 37.5947 84.456 37.2987 84.552 37.032C84.648 36.76 84.7813 36.528 84.952 36.336C85.128 36.144 85.336 35.9973 85.576 35.896C85.816 35.7893 86.0773 35.736 86.36 35.736C86.6427 35.736 86.904 35.7893 87.144 35.896C87.384 35.9973 87.5893 36.144 87.76 36.336C87.936 36.528 88.072 36.76 88.168 37.032C88.264 37.2987 88.312 37.5947 88.312 37.92ZM87.536 37.92C87.536 37.4507 87.4293 37.08 87.216 36.808C87.008 36.5307 86.7227 36.392 86.36 36.392C85.9973 36.392 85.7093 36.5307 85.496 36.808C85.288 37.08 85.184 37.4507 85.184 37.92C85.184 38.3893 85.288 38.7627 85.496 39.04C85.7093 39.312 85.9973 39.448 86.36 39.448C86.7227 39.448 87.008 39.312 87.216 39.04C87.4293 38.7627 87.536 38.3893 87.536 37.92ZM88.8468 39.392H89.2948C89.4708 39.136 89.6094 38.872 89.7108 38.6C89.8174 38.328 89.8974 38.048 89.9508 37.76C90.0041 37.4667 90.0388 37.1627 90.0548 36.848C90.0708 36.528 90.0814 36.192 90.0868 35.84H92.8148V39.392H93.3748V41.16H92.6708V40H89.5508V41.16H88.8468V39.392ZM92.0708 39.392V36.464H90.7668C90.7614 36.7147 90.7481 36.968 90.7268 37.224C90.7054 37.4747 90.6708 37.7253 90.6228 37.976C90.5748 38.2213 90.5054 38.464 90.4148 38.704C90.3294 38.9387 90.2201 39.168 90.0868 39.392H92.0708ZM97.5871 40H96.8431V38.16H94.9231V40H94.1791V35.84H94.9231V37.536H96.8431V35.84H97.5871V40ZM102.539 37.92C102.539 38.2507 102.491 38.5493 102.395 38.816C102.299 39.0827 102.163 39.312 101.987 39.504C101.816 39.696 101.611 39.8453 101.371 39.952C101.131 40.0533 100.869 40.104 100.587 40.104C100.304 40.104 100.043 40.0533 99.8026 39.952C99.5626 39.8453 99.3546 39.696 99.1786 39.504C99.0079 39.312 98.8746 39.0827 98.7786 38.816C98.6826 38.5493 98.6346 38.2507 98.6346 37.92C98.6346 37.5947 98.6826 37.2987 98.7786 37.032C98.8746 36.76 99.0079 36.528 99.1786 36.336C99.3546 36.144 99.5626 35.9973 99.8026 35.896C100.043 35.7893 100.304 35.736 100.587 35.736C100.869 35.736 101.131 35.7893 101.371 35.896C101.611 35.9973 101.816 36.144 101.987 36.336C102.163 36.528 102.299 36.76 102.395 37.032C102.491 37.2987 102.539 37.5947 102.539 37.92ZM101.763 37.92C101.763 37.4507 101.656 37.08 101.443 36.808C101.235 36.5307 100.949 36.392 100.587 36.392C100.224 36.392 99.9359 36.5307 99.7226 36.808C99.5146 37.08 99.4106 37.4507 99.4106 37.92C99.4106 38.3893 99.5146 38.7627 99.7226 39.04C99.9359 39.312 100.224 39.448 100.587 39.448C100.949 39.448 101.235 39.312 101.443 39.04C101.656 38.7627 101.763 38.3893 101.763 37.92ZM106.473 37.928C106.473 37.4427 106.353 37.0693 106.113 36.808C105.873 36.5467 105.553 36.416 105.153 36.416C104.929 36.416 104.753 36.424 104.625 36.44C104.503 36.456 104.404 36.4747 104.329 36.496V39.12C104.42 39.1947 104.551 39.2667 104.721 39.336C104.892 39.4053 105.079 39.44 105.281 39.44C105.495 39.44 105.676 39.4027 105.825 39.328C105.98 39.248 106.105 39.1413 106.201 39.008C106.297 38.8693 106.367 38.7093 106.409 38.528C106.452 38.3413 106.473 38.1413 106.473 37.928ZM107.249 37.928C107.249 38.2427 107.207 38.5333 107.121 38.8C107.041 39.0667 106.921 39.296 106.761 39.488C106.601 39.68 106.404 39.8293 106.169 39.936C105.94 40.0427 105.676 40.096 105.377 40.096C105.137 40.096 104.924 40.064 104.737 40C104.556 39.936 104.42 39.8747 104.329 39.816V41.48H103.585V35.968C103.761 35.9253 103.98 35.88 104.241 35.832C104.508 35.7787 104.815 35.752 105.161 35.752C105.481 35.752 105.769 35.8027 106.025 35.904C106.281 36.0053 106.5 36.1493 106.681 36.336C106.863 36.5227 107.001 36.752 107.097 37.024C107.199 37.2907 107.249 37.592 107.249 37.928ZM107.699 40.776C107.758 40.8027 107.832 40.8267 107.923 40.848C108.019 40.8747 108.112 40.888 108.203 40.888C108.496 40.888 108.726 40.8213 108.891 40.688C109.056 40.56 109.206 40.3493 109.339 40.056C109.003 39.416 108.688 38.7387 108.395 38.024C108.107 37.304 107.867 36.576 107.675 35.84H108.475C108.534 36.08 108.603 36.3387 108.683 36.616C108.768 36.8933 108.862 37.1787 108.963 37.472C109.064 37.7653 109.174 38.0587 109.291 38.352C109.408 38.6453 109.531 38.928 109.659 39.2C109.862 38.64 110.038 38.0853 110.187 37.536C110.336 36.9867 110.478 36.4213 110.611 35.84H111.379C111.187 36.624 110.974 37.3787 110.739 38.104C110.504 38.824 110.251 39.4987 109.979 40.128C109.872 40.368 109.76 40.5733 109.643 40.744C109.531 40.92 109.406 41.064 109.267 41.176C109.128 41.288 108.971 41.3707 108.795 41.424C108.624 41.4773 108.43 41.504 108.211 41.504C108.152 41.504 108.091 41.4987 108.027 41.488C107.963 41.4827 107.899 41.472 107.835 41.456C107.776 41.4453 107.72 41.432 107.667 41.416C107.619 41.4 107.584 41.3867 107.563 41.376L107.699 40.776ZM113.683 37.736C113.849 37.8533 114.027 38.0027 114.219 38.184C114.411 38.36 114.598 38.552 114.779 38.76C114.966 38.968 115.139 39.1813 115.299 39.4C115.459 39.6133 115.595 39.8133 115.707 40H114.827C114.71 39.8187 114.571 39.6347 114.411 39.448C114.257 39.256 114.094 39.072 113.923 38.896C113.753 38.72 113.579 38.5573 113.403 38.408C113.227 38.2587 113.062 38.1333 112.907 38.032V40H112.163V35.84H112.907V37.624C113.035 37.5013 113.182 37.36 113.347 37.2C113.513 37.0347 113.678 36.8693 113.843 36.704C114.014 36.5333 114.171 36.3733 114.315 36.224C114.459 36.0693 114.577 35.9413 114.667 35.84H115.531C115.414 35.968 115.275 36.1147 115.115 36.28C114.961 36.44 114.798 36.6053 114.627 36.776C114.462 36.9467 114.297 37.1173 114.131 37.288C113.966 37.4533 113.817 37.6027 113.683 37.736ZM119.898 37.92C119.898 38.2507 119.85 38.5493 119.754 38.816C119.658 39.0827 119.522 39.312 119.346 39.504C119.175 39.696 118.97 39.8453 118.73 39.952C118.49 40.0533 118.229 40.104 117.946 40.104C117.663 40.104 117.402 40.0533 117.162 39.952C116.922 39.8453 116.714 39.696 116.538 39.504C116.367 39.312 116.234 39.0827 116.138 38.816C116.042 38.5493 115.994 38.2507 115.994 37.92C115.994 37.5947 116.042 37.2987 116.138 37.032C116.234 36.76 116.367 36.528 116.538 36.336C116.714 36.144 116.922 35.9973 117.162 35.896C117.402 35.7893 117.663 35.736 117.946 35.736C118.229 35.736 118.49 35.7893 118.73 35.896C118.97 35.9973 119.175 36.144 119.346 36.336C119.522 36.528 119.658 36.76 119.754 37.032C119.85 37.2987 119.898 37.5947 119.898 37.92ZM119.122 37.92C119.122 37.4507 119.015 37.08 118.802 36.808C118.594 36.5307 118.309 36.392 117.946 36.392C117.583 36.392 117.295 36.5307 117.082 36.808C116.874 37.08 116.77 37.4507 116.77 37.92C116.77 38.3893 116.874 38.7627 117.082 39.04C117.295 39.312 117.583 39.448 117.946 39.448C118.309 39.448 118.594 39.312 118.802 39.04C119.015 38.7627 119.122 38.3893 119.122 37.92ZM122.665 38.384C122.585 38.384 122.507 38.384 122.433 38.384C122.358 38.3787 122.286 38.3733 122.217 38.368C122.046 38.624 121.881 38.8987 121.721 39.192C121.566 39.48 121.427 39.7493 121.305 40H120.553C120.617 39.8453 120.691 39.688 120.777 39.528C120.862 39.3627 120.947 39.2027 121.033 39.048C121.123 38.8933 121.214 38.7467 121.305 38.608C121.395 38.4693 121.481 38.344 121.561 38.232C121.411 38.1787 121.289 38.1147 121.193 38.04C121.097 37.96 121.019 37.872 120.961 37.776C120.902 37.68 120.859 37.5787 120.833 37.472C120.811 37.36 120.801 37.248 120.801 37.136C120.801 36.9013 120.843 36.696 120.929 36.52C121.019 36.344 121.142 36.2 121.297 36.088C121.451 35.9707 121.633 35.8827 121.841 35.824C122.054 35.7653 122.286 35.736 122.537 35.736C122.889 35.736 123.187 35.752 123.433 35.784C123.678 35.816 123.883 35.8533 124.049 35.896V40H123.313V38.384H122.665ZM123.313 36.392C123.254 36.3813 123.155 36.3707 123.017 36.36C122.883 36.3493 122.729 36.344 122.553 36.344C122.249 36.344 122.003 36.408 121.817 36.536C121.63 36.6587 121.537 36.856 121.537 37.128C121.537 37.3947 121.633 37.5787 121.825 37.68C122.017 37.7813 122.265 37.832 122.569 37.832H123.313V36.392ZM128.264 35.84V36.464H126.912V40H126.168V36.464H124.816V35.84H128.264ZM132.703 37.92C132.703 38.2507 132.655 38.5493 132.559 38.816C132.463 39.0827 132.327 39.312 132.151 39.504C131.98 39.696 131.775 39.8453 131.535 39.952C131.295 40.0533 131.033 40.104 130.751 40.104C130.468 40.104 130.207 40.0533 129.967 39.952C129.727 39.8453 129.519 39.696 129.343 39.504C129.172 39.312 129.039 39.0827 128.943 38.816C128.847 38.5493 128.799 38.2507 128.799 37.92C128.799 37.5947 128.847 37.2987 128.943 37.032C129.039 36.76 129.172 36.528 129.343 36.336C129.519 36.144 129.727 35.9973 129.967 35.896C130.207 35.7893 130.468 35.736 130.751 35.736C131.033 35.736 131.295 35.7893 131.535 35.896C131.775 35.9973 131.98 36.144 132.151 36.336C132.327 36.528 132.463 36.76 132.559 37.032C132.655 37.2987 132.703 37.5947 132.703 37.92ZM131.927 37.92C131.927 37.4507 131.82 37.08 131.607 36.808C131.399 36.5307 131.113 36.392 130.751 36.392C130.388 36.392 130.1 36.5307 129.887 36.808C129.679 37.08 129.575 37.4507 129.575 37.92C129.575 38.3893 129.679 38.7627 129.887 39.04C130.1 39.312 130.388 39.448 130.751 39.448C131.113 39.448 131.399 39.312 131.607 39.04C131.82 38.7627 131.927 38.3893 131.927 37.92ZM134.221 35.84V37.064C134.221 37.3787 134.301 37.6 134.461 37.728C134.621 37.8507 134.84 37.912 135.117 37.912C135.32 37.912 135.488 37.9013 135.621 37.88C135.76 37.8587 135.883 37.8347 135.989 37.808V35.84H136.733V40H135.989V38.384C135.947 38.3947 135.891 38.408 135.821 38.424C135.752 38.44 135.672 38.456 135.581 38.472C135.496 38.4827 135.405 38.4933 135.309 38.504C135.213 38.5147 135.12 38.52 135.029 38.52C134.8 38.52 134.589 38.496 134.397 38.448C134.211 38.4 134.048 38.32 133.909 38.208C133.776 38.096 133.669 37.9493 133.589 37.768C133.515 37.5813 133.477 37.3493 133.477 37.072V35.84H134.221ZM141.423 40H140.679V38.16H138.759V40H138.015V35.84H138.759V37.536H140.679V35.84H141.423V40ZM144.231 37.944C144.087 37.944 143.945 37.9493 143.807 37.96C143.673 37.9653 143.553 37.9813 143.447 38.008V39.44C143.479 39.4453 143.524 39.4507 143.583 39.456C143.647 39.4613 143.713 39.4667 143.783 39.472C143.857 39.472 143.932 39.4747 144.007 39.48C144.081 39.48 144.148 39.48 144.207 39.48C144.532 39.48 144.783 39.4187 144.959 39.296C145.135 39.1733 145.223 38.976 145.223 38.704C145.223 38.5707 145.193 38.456 145.135 38.36C145.081 38.264 145.007 38.1867 144.911 38.128C144.82 38.064 144.716 38.0187 144.599 37.992C144.481 37.96 144.359 37.944 144.231 37.944ZM142.703 35.84H143.447V37.432C143.537 37.4107 143.668 37.3893 143.839 37.368C144.015 37.3467 144.183 37.336 144.343 37.336C144.561 37.336 144.769 37.3627 144.967 37.416C145.164 37.464 145.337 37.544 145.487 37.656C145.636 37.7627 145.753 37.904 145.839 38.08C145.929 38.2507 145.975 38.456 145.975 38.696C145.975 38.9467 145.932 39.16 145.847 39.336C145.761 39.512 145.641 39.656 145.487 39.768C145.332 39.88 145.145 39.96 144.927 40.008C144.708 40.0613 144.468 40.088 144.207 40.088C143.956 40.088 143.703 40.072 143.447 40.04C143.191 40.0133 142.943 39.9707 142.703 39.912V35.84ZM147.487 40H146.743V35.84H147.487V40ZM152.261 35.84V40H151.541V36.832C151.381 37.0347 151.205 37.272 151.013 37.544C150.821 37.816 150.629 38.0987 150.437 38.392C150.245 38.68 150.061 38.9653 149.885 39.248C149.709 39.5307 149.557 39.7813 149.429 40H148.765V35.84H149.485V38.832C149.624 38.6027 149.781 38.352 149.957 38.08C150.133 37.8027 150.314 37.5307 150.501 37.264C150.693 36.992 150.882 36.7333 151.069 36.488C151.261 36.2373 151.44 36.0213 151.605 35.84H152.261ZM150.517 35.168C150.181 35.168 149.906 35.0827 149.693 34.912C149.485 34.7413 149.36 34.504 149.317 34.2L149.885 34.048C149.928 34.2187 150 34.3573 150.101 34.464C150.202 34.5707 150.341 34.624 150.517 34.624C150.693 34.624 150.832 34.5707 150.933 34.464C151.034 34.3573 151.106 34.2187 151.149 34.048L151.709 34.2C151.666 34.504 151.541 34.7413 151.333 34.912C151.125 35.0827 150.853 35.168 150.517 35.168Z" fill="white"/>
</g>
<path d="M17.5154 18.4604C17.4894 19.0522 17.4633 19.6442 17.4727 19.9774C17.4821 20.3107 17.5269 20.3854 17.6876 20.5051C17.8483 20.6247 18.125 20.7891 18.3942 20.9238C18.6632 21.0583 18.925 21.1629 19.2464 21.2826C19.5678 21.4022 19.949 21.5367 20.3826 21.6602C20.8162 21.7834 21.3021 21.8957 21.7358 21.9666C22.1692 22.0376 22.5507 22.0676 22.8758 22.0899C23.201 22.1123 23.4701 22.1273 23.8476 22.1348C24.2251 22.1423 24.7111 22.1423 25.3428 22.12C25.9745 22.0975 26.752 22.0526 27.4622 21.9367C28.1724 21.8209 28.8153 21.6339 29.2937 21.4508C29.7722 21.2676 30.0861 21.0882 30.2954 20.9723C30.5048 20.8565 30.6095 20.8041 30.6618 20.7779C30.7141 20.7519 30.7141 20.7519 30.7131 20.4624C30.7126 20.3348 30.7119 20.151 30.7112 19.9361" stroke="white" stroke-width="0.5"/>
<path d="M17.5068 20.2743C17.5287 26.272 17.5503 32.2699 17.5463 35.2689C17.5422 38.2676 17.5123 38.2676 17.5422 38.3799C17.5721 38.4919 17.6618 38.7162 17.931 38.948C18.2 39.1798 18.6486 39.4189 19.1496 39.6282C19.6504 39.8375 20.2035 40.0169 20.9362 40.1515C21.6687 40.2861 22.5809 40.3758 23.5751 40.4132C24.5693 40.4506 25.6458 40.4356 26.6029 40.3086C27.5596 40.1814 28.3969 39.9421 29.1071 39.6806C29.8174 39.4189 30.4005 39.1349 30.7144 38.978C31.0284 38.8208 31.0733 38.791 31.1406 38.3948C31.2078 37.9985 31.2975 37.2361 31.3871 36.6006C31.4769 35.9651 31.5667 35.4568 31.7386 34.8812C31.9105 34.3055 32.1647 33.6627 32.4338 33.1767C32.703 32.6907 32.987 32.3618 33.3907 32.0704C33.7944 31.7787 34.3176 31.5246 36.8146 30.7247C39.3114 29.9247 43.7819 28.5791 46.6153 27.8091C49.4485 27.0391 50.6447 26.8447 51.6091 26.6429C52.5735 26.441 53.3061 26.2317 54.0237 25.9327C54.7414 25.6336 55.4442 25.245 55.9675 24.8936C56.4908 24.5422 56.8346 24.2283 56.9917 23.9591C57.1486 23.69 57.1187 23.4657 56.9618 23.0396C56.8046 22.6134 56.5207 21.9856 56.1245 21.4323C55.7282 20.879 55.2199 20.4007 54.8609 20.1315C54.5021 19.8624 54.2929 19.8026 53.7621 19.8176C53.2313 19.8325 52.3791 19.9222 50.5625 20.169C48.7459 20.4157 45.9648 20.8193 43.924 21.1333C41.8832 21.4472 40.5823 21.6715 39.2294 21.8809C37.8761 22.0902 36.4707 22.2846 35.5213 22.3742C34.5719 22.464 34.0785 22.449 33.5926 22.3594C33.1066 22.2696 32.6282 22.1052 32.1495 21.8046C31.6709 21.5039 31.1921 21.0672 30.9527 20.8487C30.7132 20.6303 30.7132 20.6303 30.7132 20.6303" stroke="white" stroke-width="0.5"/>
<path d="M53.7617 19.8179C54.1281 19.9225 54.4942 20.0272 54.6824 20.1792C54.8706 20.3312 54.8805 20.5305 54.6388 20.7574C54.3971 20.9841 53.9038 21.2382 53.0814 21.455C52.259 21.6718 51.1077 21.8512 47.7287 22.4867C44.3496 23.1222 38.7429 24.2136 35.5958 24.7593C32.4484 25.305 31.7605 25.305 31.2298 25.3499C30.6991 25.3948 30.3253 25.4845 29.959 25.6714C29.5926 25.8583 29.2339 26.1423 28.875 26.4264" stroke="white" stroke-width="0.5"/>
<path d="M56.5261 24.4756C56.7883 25.1856 57.0506 25.8956 57.1818 26.3178C57.3129 26.7401 57.3129 26.8747 57.126 27.069C56.9391 27.2634 56.5654 27.5176 56.1392 27.7642C55.713 28.0109 55.2346 28.2502 54.7487 28.4521C54.2626 28.6539 53.7693 28.8184 53.3433 28.938C52.9171 29.0576 52.5583 29.1323 52.207 29.1772C51.8555 29.2221 51.5117 29.237 51.2874 29.1921C51.0631 29.1472 50.9585 29.0427 50.7956 28.6559C50.6328 28.2692 50.4115 27.6003 50.301 27.2659C50.1904 26.9315 50.1904 26.9315 50.1904 26.9315" stroke="white" stroke-width="0.5"/>
<path d="M52.985 28.9154C52.8727 28.6538 52.7607 28.3921 52.7046 28.2613C52.6484 28.1304 52.6484 28.1304 52.6484 28.1304" stroke="white" stroke-width="0.5"/>
<path d="M55.7488 27.9803C55.6271 27.6791 55.5055 27.3779 55.3838 27.0767" stroke="white" stroke-width="0.5"/>
<path d="M52.6484 28.1307C53.5605 27.7794 54.4726 27.428 55.3846 27.0767" stroke="white" stroke-width="0.5"/>
<path d="M24.502 40.1969C24.6367 39.2848 24.7712 38.3728 25.1151 37.4907C25.4591 36.6085 26.0122 35.7563 26.5729 35.061C27.1336 34.3658 27.7017 33.8276 28.4792 33.3342C29.2567 32.8407 30.2434 32.3923 31.7604 31.9354C33.2773 31.4785 35.3243 31.0131 37.3714 30.5479" stroke="white" stroke-width="0.5"/>
<path d="M24.5263 46.5898C27.9875 46.5898 30.7935 47.7573 30.7935 49.1975C30.7935 50.6375 27.9875 51.8051 24.5263 51.8051C21.0648 51.8051 18.2588 50.6375 18.2588 49.1975C18.2588 47.7573 21.0648 46.5898 24.5263 46.5898Z" stroke="white" stroke-width="0.5"/>
<path d="M24.5268 47.4312C26.8714 47.4312 28.7722 48.2222 28.7722 49.1978C28.7722 50.1732 26.8714 50.9641 24.5268 50.9641C22.1821 50.9641 20.2812 50.1732 20.2812 49.1978C20.2812 48.2222 22.1821 47.4312 24.5268 47.4312Z" stroke="white" stroke-width="0.5"/>
<path d="M20.8715 50.0971C20.5052 49.911 20.2949 49.6941 20.2949 49.4623C20.2949 48.7704 22.1688 48.2095 24.4807 48.2095C26.7113 48.2095 28.5342 48.7317 28.6597 49.3897" stroke="white" stroke-width="0.5"/>
<path d="M29.6696 50.6879C29.7675 50.8224 29.8195 50.9631 29.8195 51.1075C29.8195 52.0831 27.4556 52.8741 24.5398 52.8741C21.6237 52.8741 19.2598 52.0831 19.2598 51.1075C19.2598 50.9669 19.309 50.8299 19.4018 50.6988M20.5996 49.9318C20.6148 49.9259 20.6303 49.9202 20.6457 49.9146" stroke="white" stroke-width="0.5"/>
<path d="M19.0293 50.4512L19.3387 51.5862" stroke="white" stroke-width="0.5"/>
<path d="M29.9743 50.54L29.665 51.6752" stroke="white" stroke-width="0.5"/>
<path d="M22.3145 51.6382L22.4657 52.733" stroke="white" stroke-width="0.5"/>
<path d="M27.0243 51.6431L26.873 52.7377" stroke="white" stroke-width="0.5"/>
<path d="M19.3867 39.7002C19.3989 41.4424 19.4181 42.9662 19.4551 43.8867C19.4685 44.217 19.4841 44.4699 19.5046 44.6644M27.9274 45.4989C28.2366 45.2899 28.5067 45.0622 28.6867 44.8522C28.9177 44.5834 29.0015 44.3434 29.0436 44.2188" stroke="white" stroke-width="0.5"/>
<path d="M29.0435 44.2188C29.0686 44.2869 29.0817 44.3566 29.0817 44.4273C29.0817 45.3381 26.9266 46.0767 24.2684 46.0767C21.6101 46.0767 19.4551 45.3381 19.4551 44.4273C19.4551 44.3775 19.4617 44.3281 19.4743 44.2794" stroke="white" stroke-width="0.5"/>
<path d="M29.0417 39.9258C28.9031 40.7942 26.8042 41.4836 24.2357 41.4836C21.6672 41.4836 19.5684 40.7942 19.4297 39.9258" stroke="white" stroke-width="0.5"/>
<path d="M28.9801 39.6196C28.8416 40.4877 26.7426 41.1771 24.1742 41.1771C21.6057 41.1771 19.5069 40.4877 19.3682 39.6196" stroke="white" stroke-width="0.5"/>
<path d="M28.9801 40.3984C28.8416 41.2667 26.7426 41.9561 24.1742 41.9561C21.6057 41.9561 19.5069 41.2667 19.3682 40.3984" stroke="white" stroke-width="0.5"/>
<path d="M28.9801 41.1772C28.8416 42.0455 26.7426 42.735 24.1742 42.735C21.6057 42.735 19.5069 42.0455 19.3682 41.1772" stroke="white" stroke-width="0.5"/>
<path d="M28.9801 41.9561C28.8416 42.8243 26.7426 43.5138 24.1742 43.5138C21.6057 43.5138 19.5069 42.8243 19.3682 41.9561" stroke="white" stroke-width="0.5"/>
<path d="M28.9801 42.7349C28.8416 43.6031 26.7426 44.2924 24.1742 44.2924C21.6057 44.2924 19.5069 43.6031 19.3682 42.7349" stroke="white" stroke-width="0.5"/>
<path d="M28.9801 43.5137C28.8416 44.3819 26.7426 45.0713 24.1742 45.0713C21.6057 45.0713 19.5069 44.3819 19.3682 43.5137" stroke="white" stroke-width="0.5"/>
<path d="M29.042 39.9258L29.0721 44.3215" stroke="white" stroke-width="0.5"/>
<path d="M29.8881 20.2316C30.244 20.1273 30.4956 20.034 30.7579 19.9153C31.0202 19.7967 31.2933 19.653 31.5449 19.4913C31.7964 19.3295 32.0264 19.1498 32.2133 18.9414C32.4002 18.733 32.5439 18.4958 32.6303 18.3017C32.7165 18.1077 32.7452 17.9567 32.6913 16.8031C32.6374 15.6495 32.5008 13.4933 32.4325 12.3505C32.3643 11.2076 32.3643 11.0783 32.4469 10.8483C32.5296 10.6183 32.6948 10.2877 32.8459 10.0684C32.9967 9.84917 33.1334 9.74137 33.4567 9.62997C33.7802 9.51847 34.2905 9.40347 34.977 9.28497C35.6633 9.16637 36.5259 9.04407 37.3129 8.97237C38.0998 8.90037 38.8115 8.87877 39.5698 8.90037C40.3281 8.92197 41.133 8.98677 41.8481 9.04417C42.5633 9.10167 43.1887 9.15207 43.6631 9.18427C44.1375 9.21657 44.4608 9.23097 44.8597 9.19867C45.2587 9.16637 45.733 9.08717 46.193 8.94707C46.6531 8.80697 47.0986 8.60567 47.422 8.36497C47.7455 8.12417 47.9468 7.84377 48.0618 7.53477C48.1768 7.22577 48.2055 6.88797 48.1372 6.64707C48.069 6.40647 47.9037 6.26267 47.4437 6.16207C46.9836 6.06137 46.2289 6.00387 45.1939 6.00017C44.159 5.99667 42.8436 6.04697 41.0647 6.22667C39.2858 6.40627 37.0434 6.71537 35.1889 7.04607C33.3346 7.37657 31.8683 7.72887 30.4488 8.09547C29.0292 8.46197 27.6564 8.84297 26.4418 9.23827C25.2271 9.63357 24.1705 10.0433 23.2362 10.417C22.3017 10.7907 21.4895 11.1287 20.7923 11.4592C20.0952 11.7898 19.513 12.1133 19.089 12.4116C18.6649 12.7099 18.3989 12.983 18.1654 13.2956C17.9318 13.6083 17.7305 13.9605 17.576 14.3091C17.4214 14.6576 17.3136 15.0027 17.2238 15.3909C17.134 15.779 17.0621 16.2102 17.0261 16.6163C16.9902 17.0224 16.9902 17.4033 17.0334 17.7232C17.0765 18.043 17.1627 18.3017 17.3172 18.5712C17.4718 18.8407 17.6947 19.1211 17.921 19.3727C18.1474 19.6242 18.3773 19.8471 18.7224 20.0483C19.0673 20.2496 19.5272 20.4293 20.0268 20.591C20.5263 20.7527 21.0654 20.8964 21.6513 20.997C22.2371 21.0977 22.8695 21.1551 23.4265 21.1731C23.9836 21.1911 24.4652 21.1695 25.0115 21.13C25.5576 21.0906 26.1686 21.033 26.7795 20.9359C27.3904 20.8389 28.0015 20.7024 28.537 20.5766C29.0725 20.4509 29.5323 20.3358 29.8881 20.2316Z" stroke="white" stroke-width="0.5"/>
<path d="M29.7985 15.5703C29.9351 15.3905 30.1578 15.175 30.3879 15.0312C30.6179 14.8874 30.8551 14.8156 31.0922 14.8299C31.3295 14.8443 31.5668 14.945 31.7319 15.0959C31.8972 15.2469 31.9908 15.448 32.0555 15.6565C32.1201 15.8649 32.1559 16.0805 32.1453 16.3286C32.1345 16.5765 32.077 16.8569 31.9332 17.1479C31.7895 17.439 31.5595 17.7408 31.3259 17.9313C31.0922 18.1219 30.855 18.2008 30.6143 18.2081C30.3735 18.2152 30.1291 18.1506 29.9315 18.0176C29.7338 17.8846 29.5828 17.6835 29.5111 17.4499C29.4392 17.2162 29.4463 16.9502 29.468 16.7095C29.4894 16.4687 29.5254 16.2531 29.5685 16.0734C29.6116 15.8936 29.662 15.75 29.7985 15.5703Z" stroke="white" stroke-width="0.5"/>
<path d="M31.0921 14.8301C30.7616 15.0673 30.4309 15.3045 30.2262 15.5418C30.0212 15.7789 29.9421 16.0162 29.8919 16.282C29.8415 16.5479 29.8199 16.8427 29.8629 17.1537C29.9059 17.4646 30.0133 17.7919 30.0899 17.9633C30.1665 18.1348 30.2123 18.1503 30.2579 18.1659" stroke="white" stroke-width="0.5"/>
<path d="M18.9736 14.7869C19.5486 14.2047 20.1235 13.6225 21.137 12.9757C22.1505 12.3288 23.6022 11.6172 24.8528 11.0818C26.1035 10.5462 27.1529 10.1869 28.1125 9.89937C29.0719 9.61197 29.9416 9.39627 31.0019 9.15547C32.0619 8.91467 33.3126 8.64867 34.5201 8.42237C35.7275 8.19587 36.892 8.00897 38.1749 7.90127C39.458 7.79337 40.8594 7.76467 41.7939 7.76467C42.7282 7.76467 43.1954 7.79337 43.5153 7.80427C43.8351 7.81497 44.0076 7.80777 44.3671 7.73237C44.7264 7.65697 45.2726 7.51317 45.8621 7.36217C46.4514 7.21127 47.0838 7.05317 47.4702 6.93267C47.8565 6.81227 47.9967 6.72967 48.0667 6.68847C48.1368 6.64697 48.1368 6.64697 48.1368 6.64697" stroke="white" stroke-width="0.5"/>
<path d="M31.9114 10.0649C30.9053 10.4387 29.8989 10.8124 29.0149 11.2148C28.1308 11.6174 27.369 12.0487 26.8838 12.3937C26.3986 12.7387 26.1902 12.9974 25.9566 13.2813C25.7229 13.5651 25.4643 13.8744 25.3421 14.1259C25.2199 14.3773 25.2342 14.5715 25.2485 14.7655" stroke="white" stroke-width="0.5"/>
<path d="M27.9229 13.9463C27.9731 14.7585 28.0235 15.5707 28.0559 16.2751C28.0881 16.9794 28.1026 17.5759 28.1709 18.1186C28.2391 18.6612 28.3613 19.15 28.4835 19.6389" stroke="white" stroke-width="0.5"/>
<path d="M31.9111 10.0647C32.4261 9.91978 32.9413 9.77478 33.4564 9.62988" stroke="white" stroke-width="0.5"/>
<defs>
<linearGradient id="paint0_linear_973_2045" x1="102" y1="0.000488281" x2="102" y2="58.0003" gradientUnits="userSpaceOnUse">
<stop stop-color="#101F52"/>
<stop offset="0.9999" stop-color="#101F52" stop-opacity="0.8125"/>
<stop offset="1" stop-color="#101F52" stop-opacity="0"/>
</linearGradient>
</defs>
</svg>
