<svg width="230" height="58" viewBox="0 0 230 58" fill="none" xmlns="http://www.w3.org/2000/svg">
<rect y="0.000488281" width="230" height="57.9998" rx="5" fill="url(#paint0_linear_699_596)"/>
<path d="M108.203 48.6508C92.5833 49.9501 74.7645 53.3013 71.8242 53.8663C71.5402 53.9209 71.2814 54.0339 71.0451 54.2005C69.404 55.3577 70.2227 57.9397 72.2309 57.9397H224.923C227.684 57.9397 229.923 55.7012 229.923 52.9397V46.623C229.923 43.5411 227.162 41.1929 224.12 41.6879L216.713 42.8932L193.124 45.0043L169.773 47.0941C169.614 47.1083 169.48 47.115 169.32 47.1142C166.162 47.0969 128.856 46.9327 108.203 48.6508Z" fill="#0F2458" fill-opacity="0.5"/>
<path d="M136.198 49.99C124.291 51.091 110.724 53.9133 108.258 54.4386C107.997 54.4942 107.754 54.6089 107.544 54.7734C106.219 55.8121 106.953 57.94 108.637 57.94H224.923C227.684 57.94 229.923 55.7014 229.923 52.94V49.2081C229.923 46.0904 227.101 43.7331 224.033 44.2879L219.751 45.0623L201.588 46.8691L183.689 48.6496C183.512 48.6672 183.353 48.6754 183.176 48.6744C180.238 48.6574 151.938 48.5347 136.198 49.99Z" fill="#0D2862" fill-opacity="0.5"/>
<path d="M120.572 12.4689C135.612 10.7725 152.712 6.47027 156.315 5.53836C156.774 5.41944 157.183 5.18651 157.526 4.8584C159.364 3.10101 158.12 -1.80105e-05 155.577 -1.80105e-05L5.06866 -1.80105e-05C2.30723 -1.80105e-05 0.0686604 2.23856 0.0686604 4.99998L0.0686604 16.8596C0.0686604 20.0552 3.02533 22.4307 6.1459 21.7422L13.1465 20.1976L36.4998 17.3638L59.5309 14.569C59.7454 14.543 59.9365 14.5307 60.1526 14.5322C63.821 14.5583 100.3 14.7555 120.572 12.4689Z" fill="#0F2458" fill-opacity="0.7"/>
<path d="M105.965 9.37271C119.373 8.07915 134.643 4.76999 137.505 4.13444C137.821 4.06429 138.11 3.92139 138.361 3.71655C139.885 2.47011 139.003 7.23182e-05 137.035 7.23182e-05L5.06819 7.23182e-05C2.30676 7.23182e-05 0.0681898 2.23865 0.0681898 5.00007L0.0681898 11.3192C0.0681898 14.4523 2.91667 16.8135 5.99542 16.2325L11.5608 15.1822L32.0834 13.0521L52.3297 10.9506C52.5137 10.9315 52.6762 10.9225 52.8613 10.9236C56.0399 10.943 88.1352 11.0929 105.965 9.37271Z" fill="#0D2862" fill-opacity="0.7"/>
<path d="M15.792 22.6807C15.9898 23.0287 16.2881 23.4012 16.6829 23.7216C17.0776 24.0418 17.5688 24.3098 18.17 24.5195C18.7715 24.7289 19.4829 24.8798 20.2182 24.9271C20.9535 24.9743 21.7125 24.9182 22.3652 24.8094C23.0179 24.7007 23.5643 24.5394 24.0372 24.3476C24.5102 24.1559 24.9097 23.9337 25.2508 23.6468C25.3212 23.5876 25.3891 23.5256 25.4539 23.4619" stroke="white" stroke-width="0.2999"/>
<path d="M15.7919 22.6807C15.7849 23.2857 15.7778 23.8907 15.7733 26.6147C15.7688 29.3385 15.7667 34.1813 15.7638 36.6583C15.7609 39.1353 15.7571 39.2465 15.8521 39.4377C15.9469 39.629 16.1405 39.9005 16.4971 40.1497C16.8538 40.3991 17.3734 40.6266 17.9078 40.8129C18.4423 40.999 18.9918 41.144 19.5641 41.2134C20.1363 41.2826 20.7314 41.2761 21.3083 41.2134C21.885 41.1506 22.4434 41.0316 22.9637 40.8415C23.4838 40.6514 23.9659 40.3904 24.312 40.1524C24.6582 39.9142 24.8682 39.6993 25.0029 39.5163C25.1375 39.3332 25.1968 39.1821 25.221 39.0648C25.2453 38.9474 25.2346 38.8635 25.2293 38.8216C25.224 38.7796 25.224 38.7796 25.224 38.7796" stroke="white" stroke-width="0.2999"/>
<path d="M25.4544 23.4614C25.4054 26.9541 25.3566 30.4468 25.3076 33.9393" stroke="white" stroke-width="0.2999"/>
<path d="M15.7783 24.647C16.2227 24.9743 16.6672 25.3015 17.1503 25.5512C17.6332 25.8007 18.1547 25.9725 18.7584 26.1126C19.362 26.2526 20.0479 26.3607 20.6964 26.3771C21.3449 26.3934 21.9557 26.3179 22.5212 26.1921C23.0866 26.0664 23.6063 25.8902 24.0051 25.6958C24.4037 25.5013 24.6813 25.2887 24.8998 25.1156C25.1184 24.9423 25.2776 24.8088 25.437 24.6753" stroke="white" stroke-width="0.2999"/>
<path d="M15.7676 32.2588C15.9294 32.5019 16.0915 32.7449 16.3504 32.9981C16.6095 33.2513 16.9657 33.5145 17.3777 33.7242C17.7898 33.9339 18.2577 34.0899 18.7676 34.2057C19.2774 34.3213 19.8292 34.3968 20.3901 34.4031C20.951 34.4093 21.521 34.3464 22.0724 34.234C22.6237 34.1215 23.1565 33.9597 23.6027 33.7602C24.049 33.5605 24.4086 33.3229 24.682 33.0751C24.9554 32.8273 25.1427 32.5692 25.3298 32.3113" stroke="white" stroke-width="0.2999"/>
<path d="M25.9647 38.4717C25.9631 38.9169 25.9616 39.3623 25.9167 39.6876C25.8719 40.0131 25.7837 40.2187 25.5029 40.5286C25.2219 40.8386 24.7481 41.253 24.1895 41.5809C23.6307 41.9086 22.987 42.1499 22.3197 42.2929C21.6523 42.436 20.9612 42.4807 20.2593 42.4485C19.5573 42.4164 18.8444 42.3073 18.2943 42.183C17.7441 42.0588 17.3567 41.9196 16.9976 41.7468C16.6383 41.5738 16.3073 41.3671 16.0187 41.1062C15.7301 40.8453 15.4839 40.5304 15.312 40.2181C15.14 39.9056 15.0424 39.596 15.0114 39.3165C14.9802 39.0371 15.0158 38.7879 15.0848 38.547C15.1538 38.3058 15.2563 38.0729 15.375 37.8957C15.4937 37.7184 15.6283 37.5966 15.7631 37.4751" stroke="white" stroke-width="0.2999"/>
<path d="M20.9258 39.9401C21.1467 40.0036 21.3676 40.0672 21.7755 40.0036C22.1831 39.9401 22.7779 39.7492 23.242 39.5676C23.7063 39.386 24.04 39.2135 24.6841 38.9602C25.3282 38.7066 26.2825 38.3722 26.7598 38.205C27.2369 38.0376 27.2369 38.0376 27.2369 38.0376" stroke="white" stroke-width="0.2999"/>
<path d="M25.7185 38.5735C25.6788 38.7404 25.6389 38.9074 25.5054 39.152C25.3719 39.3967 25.1446 39.719 24.8817 39.9932C24.619 40.2674 24.3206 40.4932 23.9029 40.7008C23.4852 40.9083 22.948 41.0979 22.4147 41.2266C21.8812 41.3551 21.3517 41.4232 20.8439 41.4449C20.3361 41.4666 19.8501 41.4423 19.3122 41.3602C18.7741 41.2783 18.1839 41.1389 17.7108 40.9826C17.2379 40.8265 16.8821 40.6537 16.5665 40.4423C16.2509 40.231 15.9753 39.9809 15.7761 39.7285C15.5767 39.4761 15.4535 39.2212 15.3717 38.9938C15.2899 38.7664 15.2493 38.5667 15.2369 38.4226C15.2245 38.2785 15.2402 38.1901 15.2559 38.1016" stroke="white" stroke-width="0.2999"/>
<path d="M33.938 30.9307C31.0612 31.9335 28.1844 32.9366 26.5469 33.4761C24.9096 34.0156 24.5116 34.0918 24.1994 34.1779C23.8873 34.2642 23.6609 34.3604 23.3286 34.5885C22.9964 34.8167 22.5583 35.1767 22.1588 35.5936C21.7593 36.0107 21.3984 36.4848 21.121 36.8924C20.8435 37.2998 20.6494 37.6407 20.538 37.9359C20.4265 38.2311 20.3978 38.4806 20.4221 38.7598C20.4464 39.039 20.5238 39.3479 20.6168 39.5495C20.7095 39.7512 20.8179 39.8455 20.9261 39.9399" stroke="white" stroke-width="0.2999"/>
<path d="M27.2373 38.0373C33.1633 36.0307 39.0892 34.0241 42.3329 32.9161C45.5767 31.8081 46.1382 31.5986 46.7906 31.396C47.4431 31.1932 48.1867 30.9973 48.8673 30.8618C49.5479 30.7262 50.1657 30.651 50.7451 30.6091C51.3244 30.5673 51.8656 30.559 52.5199 30.6033C53.1742 30.6477 53.9414 30.745 54.5832 30.8619C55.2248 30.9788 55.7407 31.1158 56.0033 31.2469C56.2659 31.3781 56.2751 31.5037 56.2768 31.6533C56.2785 31.8031 56.2726 31.9767 56.3027 32.0858C56.3328 32.1946 56.3989 32.2388 56.511 32.3229C56.6231 32.4068 56.7811 32.5308 56.9333 32.6267C57.0855 32.7227 57.232 32.7907 57.6157 32.8392C57.9993 32.8878 58.6203 32.917 59.1922 32.8993C59.7641 32.8816 60.2868 32.8169 60.7529 32.7257C61.2191 32.6347 61.6287 32.5173 62.0876 32.3424C62.5464 32.1674 63.0546 31.9352 63.3824 31.7382C63.7102 31.5413 63.8576 31.3797 63.9322 31.2744C64.0067 31.1693 64.0084 31.1208 63.9919 30.6121C63.9753 30.1036 63.9405 29.1351 63.8811 28.5972C63.8216 28.0594 63.7374 27.9519 63.5657 27.831C63.394 27.71 63.1349 27.5754 62.5052 27.3057C61.8755 27.0362 60.8752 26.6314 59.9499 26.3095C59.0244 25.9874 58.174 25.7481 57.3988 25.5845C56.6235 25.421 55.9234 25.3333 55.1781 25.282C54.4328 25.2309 53.6424 25.2164 52.8842 25.2447C52.1262 25.2733 51.4003 25.3445 50.7477 25.4498C50.0952 25.5551 49.5158 25.6944 46.7265 26.6134C43.937 27.5325 38.9376 29.2315 36.4378 30.0811C33.938 30.9305 33.938 30.9305 33.938 30.9305" stroke="white" stroke-width="0.2999"/>
<path d="M63.49 31.6714C63.5526 32.1496 63.6152 32.6279 63.6348 32.9082C63.6546 33.1887 63.6316 33.2715 63.5156 33.4029C63.3995 33.5344 63.1906 33.7147 62.8803 33.895C62.57 34.0752 62.1582 34.2552 61.6565 34.3972C61.1548 34.5392 60.5631 34.6433 60.118 34.7106C59.673 34.7782 59.3744 34.8092 59.0031 34.7959C58.6317 34.7825 58.1874 34.7248 57.8625 34.6401C57.5375 34.5553 57.3316 34.4436 57.2306 34.3355C57.1294 34.2276 57.133 34.1232 57.101 33.8392C57.0689 33.555 57.0013 33.0911 56.9336 32.627" stroke="white" stroke-width="0.2999"/>
<path d="M59.3426 34.795C59.3042 34.5126 59.2657 34.2302 59.2572 34.0755C59.2485 33.9207 59.2697 33.8936 59.7017 33.8153C60.1335 33.7369 60.9763 33.6071 61.4039 33.5598C61.8313 33.5126 61.8436 33.5479 61.8626 33.687C61.8816 33.826 61.9071 34.069 61.9328 34.3119" stroke="white" stroke-width="0.2999"/>
<path d="M63.7489 28.0269C63.0567 28.2905 62.3643 28.5539 61.782 28.872C61.1997 29.1902 60.7273 29.5628 60.4192 29.9797C60.1109 30.3965 59.9668 30.8576 59.9247 31.3014C59.8826 31.7452 59.9426 32.1717 59.9678 32.4262C59.9932 32.6804 59.984 32.7624 59.9748 32.8446" stroke="white" stroke-width="0.2999"/>
<path d="M61.3015 28.9915C60.5499 29.027 59.7982 29.0628 58.8786 28.9705C57.9589 28.8784 56.8712 28.6583 55.8342 28.4401C54.7971 28.2219 53.8107 28.0055 53.025 27.852C52.2392 27.6987 51.654 27.6079 50.87 27.6041C50.0859 27.6004 49.1029 27.6833 47.9637 27.8859C46.8245 28.0884 45.529 28.4108 42.2942 29.5051C39.0595 30.5996 33.8853 32.4663 30.1883 33.8363C26.4911 35.2063 24.2712 36.0798 22.9702 36.6663C21.6692 37.2527 21.2872 37.5521 20.9053 37.8515" stroke="white" stroke-width="0.2999"/>
<path d="M20.6684 48.0962C23.1648 48.0962 25.1883 49.0071 25.1883 50.131C25.1883 51.2548 23.1648 52.1659 20.6684 52.1659C18.172 52.1659 16.1484 51.2548 16.1484 50.131C16.1484 49.0071 18.172 48.0962 20.6684 48.0962Z" stroke="white" stroke-width="0.2999"/>
<path d="M20.6683 48.7524C22.3592 48.7524 23.7301 49.3696 23.7301 50.1309C23.7301 50.8921 22.3592 51.5094 20.6683 51.5094C18.9773 51.5094 17.6064 50.8921 17.6064 50.1309C17.6064 49.3696 18.9773 48.7524 20.6683 48.7524Z" stroke="white" stroke-width="0.2999"/>
<path d="M18.033 50.833C17.7688 50.6878 17.6172 50.5185 17.6172 50.3376C17.6172 49.7976 18.9686 49.3599 20.6359 49.3599C22.2446 49.3599 23.5593 49.7675 23.6498 50.281" stroke="white" stroke-width="0.2999"/>
<path d="M24.3777 51.2944C24.4483 51.3993 24.4857 51.5091 24.4857 51.6218C24.4857 52.3832 22.7809 53.0003 20.6781 53.0003C18.575 53.0003 16.8701 52.3832 16.8701 51.6218C16.8701 51.512 16.9056 51.4052 16.9726 51.3029M17.8364 50.7042C17.8474 50.6998 17.8585 50.6953 17.8696 50.6909" stroke="white" stroke-width="0.2999"/>
<path d="M16.7041 51.1094L16.9272 51.995" stroke="white" stroke-width="0.2999"/>
<path d="M24.5982 51.1787L24.375 52.0645" stroke="white" stroke-width="0.2999"/>
<path d="M19.0742 52.0356L19.1833 52.8898" stroke="white" stroke-width="0.2999"/>
<path d="M22.4704 52.0391L22.3613 52.8933" stroke="white" stroke-width="0.2999"/>
<path d="M16.2658 41.1455C16.2597 43.0434 16.2597 44.8009 16.2931 45.7517C16.3023 46.0151 16.3143 46.2166 16.3306 46.3721M23.6341 47.1046C23.9039 46.9404 24.1398 46.7613 24.2974 46.5954C24.5044 46.3783 24.5774 46.1839 24.614 46.0869C24.6505 45.9897 24.6505 45.9897 24.6533 45.0151C24.6555 44.2412 24.6594 42.8527 24.6637 41.3377" stroke="white" stroke-width="0.2999"/>
<path d="M24.6122 46.093C24.6336 46.1477 24.6444 46.2033 24.6439 46.2597C24.6376 46.9856 22.7623 47.5568 20.4555 47.5354C18.1486 47.5139 16.2837 46.9082 16.2901 46.1823C16.2905 46.1425 16.2965 46.1032 16.3078 46.0645" stroke="white" stroke-width="0.2999"/>
<path d="M24.6401 42.672C24.5137 43.3628 22.6875 43.8955 20.4586 43.8747C18.2297 43.854 16.4131 43.2878 16.2988 42.5947" stroke="white" stroke-width="0.2999"/>
<path d="M24.5991 41.1856C24.4727 41.8765 22.6465 42.4091 20.4176 42.3885C18.1887 42.3678 16.3721 41.8016 16.2578 41.1084" stroke="white" stroke-width="0.2999"/>
<path d="M24.5942 41.8067C24.4678 42.4975 22.6417 43.0301 20.4127 43.0093C18.1838 42.9888 16.3672 42.4225 16.2529 41.7295" stroke="white" stroke-width="0.2999"/>
<path d="M24.5883 42.4274C24.462 43.118 22.6358 43.6506 20.4069 43.63C18.178 43.6093 16.3614 43.043 16.2471 42.3501" stroke="white" stroke-width="0.2999"/>
<path d="M24.5824 43.048C24.4561 43.7388 22.6299 44.2714 20.4009 44.2508C18.172 44.2301 16.3554 43.6639 16.2412 42.9707" stroke="white" stroke-width="0.2999"/>
<path d="M24.5776 43.6685C24.4512 44.3594 22.625 44.8921 20.3961 44.8713C18.1672 44.8506 16.3506 44.2845 16.2363 43.5913" stroke="white" stroke-width="0.2999"/>
<path d="M24.5727 44.2897C24.4463 44.9804 22.62 45.5129 20.3912 45.4923C18.1623 45.4717 16.3457 44.9054 16.2314 44.2124" stroke="white" stroke-width="0.2999"/>
<path d="M24.5668 44.9097C24.4404 45.6005 22.6142 46.1332 20.3853 46.1125C18.1564 46.0918 16.3399 45.5256 16.2256 44.8325" stroke="white" stroke-width="0.2999"/>
<path d="M24.561 45.5308C24.4345 46.2217 22.6084 46.7544 20.3795 46.7336C18.1505 46.713 16.334 46.1468 16.2197 45.4536" stroke="white" stroke-width="0.2999"/>
<path d="M27.3723 16.6817C26.7569 16.7017 25.837 16.7017 25.0403 16.6484C24.2434 16.595 23.5697 16.4883 22.9284 16.3883C22.2871 16.2884 21.6781 16.1949 21.1016 16.1883C20.5251 16.1816 19.9809 16.2617 19.3849 16.495C18.789 16.7285 18.1411 17.1151 17.6358 17.5018C17.1305 17.8885 16.7677 18.2753 16.4698 18.7488C16.1718 19.222 15.9386 19.7821 15.7831 20.3288C15.6277 20.8756 15.5499 21.409 15.5434 21.8091C15.5369 22.2091 15.6017 22.4758 15.7313 22.7024C15.8608 22.9291 16.0552 23.1157 16.3467 23.3624C16.6381 23.6092 17.0268 23.9159 17.5128 24.1693C17.9986 24.4227 18.5816 24.6227 19.1581 24.756C19.7348 24.8895 20.3047 24.9561 20.9267 24.9494C21.5485 24.9427 22.2223 24.8627 22.76 24.7493C23.2977 24.636 23.6993 24.4892 24.1462 24.2759C24.5932 24.0627 25.0856 23.7825 25.4225 23.5291C25.7592 23.2759 25.9407 23.0491 26.0443 22.8025C26.1479 22.5558 26.1739 22.2891 26.2128 21.9624C26.2516 21.6357 26.3033 21.249 26.3877 20.9023C26.4719 20.5555 26.5885 20.2489 26.7634 19.9754C26.9383 19.7021 27.1715 19.4622 27.5667 19.1953C27.9618 18.9286 28.519 18.6354 30.3912 17.9286C32.2632 17.2217 35.4504 16.1016 37.8538 15.1883C40.2572 14.2748 41.8767 13.568 43.2177 12.9812C44.5586 12.3945 45.621 11.9277 46.502 11.5011C47.383 11.0743 48.0827 10.6876 48.5297 10.2475C48.9766 9.80744 49.1711 9.31414 49.2228 8.80737C49.2746 8.30061 49.184 7.78064 48.9637 7.34721C48.7435 6.91378 48.3936 6.56716 48.0309 6.34036C47.6681 6.11374 47.2924 6.00695 46.9231 6.00035C46.5539 5.99356 46.1911 6.08707 45.8866 6.22696C45.5822 6.36695 45.336 6.55378 45.1352 6.7737C44.9344 6.99381 44.7789 7.24719 44.6558 7.58051C44.5327 7.91384 44.442 8.32728 44.3448 8.70067C44.2477 9.07396 44.1441 9.40737 43.9951 9.73419C43.8461 10.0608 43.6516 10.3809 43.4638 10.6475C43.2759 10.9142 43.0946 11.1276 42.0774 11.6743C41.0605 12.221 39.2078 13.1012 37.9122 13.6747C36.6165 14.2481 35.878 14.5147 35.1007 14.7882C34.3233 15.0615 33.5071 15.3415 32.6714 15.5948C31.8357 15.8482 30.9806 16.0748 30.3004 16.235C29.6202 16.3949 29.1149 16.4883 28.7068 16.5549C28.2986 16.6218 27.9877 16.6617 27.3723 16.6817Z" stroke="white" stroke-width="0.2999"/>
<path d="M44.3457 8.70079C44.5161 8.18462 44.6865 7.66836 44.9434 7.25609C45.2003 6.84391 45.5439 6.53555 45.881 6.42685C46.2179 6.31824 46.5483 6.4094 46.8689 6.5483C47.1896 6.68711 47.5005 6.87393 47.7661 7.07387C48.0317 7.274 48.252 7.48723 48.3815 7.76069C48.5111 8.03406 48.55 8.36738 48.55 8.72078C48.55 9.07409 48.5111 9.44747 48.3399 9.82221C48.1687 10.197 47.8652 10.5729 47.5746 10.8346C47.2838 11.0963 47.0058 11.2437 46.8668 11.3175C46.7278 11.3911 46.7278 11.3911 46.7278 11.3911" stroke="white" stroke-width="0.2999"/>
<path d="M43.18 10.9746C42.8258 11.2767 42.4715 11.579 41.4587 12.1419C40.446 12.7047 38.7746 13.5283 37.0709 14.2416C35.3672 14.955 33.631 15.5585 32.2998 16.0068C30.9686 16.4552 30.0422 16.7486 29.2811 17.0002C28.5199 17.252 27.9238 17.462 27.2486 17.5937C26.5733 17.7253 25.8185 17.7787 24.6411 17.8238C23.4638 17.8687 21.8636 17.9055 20.8839 17.9455C19.9041 17.9854 19.5446 18.0287 19.2271 18.1038C18.9097 18.1788 18.6343 18.2854 18.4012 18.4172C18.168 18.5488 17.9768 18.7055 17.8375 18.9005C17.6984 19.0956 17.6108 19.3289 17.5801 19.5239C17.5493 19.719 17.5753 19.8757 17.6497 20.0508C17.7242 20.2257 17.8473 20.419 18.0043 20.5891C18.1615 20.759 18.3526 20.9059 18.6036 21.0025C18.8547 21.0991 19.1655 21.1458 19.4879 21.1591C19.8102 21.1724 20.1438 21.1525 20.5325 21.0625C20.9212 20.9724 21.3648 20.8124 21.8636 20.5808C22.3625 20.349 22.9164 20.0456 23.4541 19.7824C23.9918 19.5189 24.5131 19.2955 25.0071 19.1205C25.501 18.9455 25.9676 18.8188 26.536 18.6704C27.1045 18.5221 27.7749 18.352 28.7693 18.0587C29.7636 17.7653 31.082 17.3485 32.431 16.8969C33.7801 16.4452 35.1599 15.9586 36.5672 15.4484C37.9746 14.9383 39.4095 14.4049 40.323 14.0666C41.2363 13.7281 41.6282 13.5849 41.8242 13.5131C42.0202 13.4414 42.0202 13.4414 42.0202 13.4414" stroke="white" stroke-width="0.2999"/>
<path d="M21.0791 24.683C21.1374 24.1564 21.1958 23.6296 21.3545 23.0663C21.5132 22.5028 21.7723 21.9028 22.1416 21.4261C22.5108 20.9493 22.9902 20.5959 23.6056 20.2525C24.2211 19.9092 24.9724 19.5758 25.643 19.3425C26.3134 19.1091 26.903 18.9757 27.1978 18.909C27.4924 18.8423 27.4924 18.8423 27.4924 18.8423" stroke="white" stroke-width="0.2999"/>
<path d="M25.9814 20.9103C25.8892 20.942 25.7531 21.052 25.6479 21.2137C25.5426 21.3754 25.4681 21.5887 25.4438 21.7688C25.4195 21.9487 25.4454 22.0954 25.4957 22.1771C25.5458 22.2589 25.6203 22.2756 25.7111 22.2271C25.8018 22.1789 25.9086 22.0654 25.988 21.912C26.0674 21.7588 26.1191 21.5653 26.1451 21.4021C26.171 21.2386 26.171 21.1053 26.1467 21.0153C26.1224 20.9253 26.0738 20.8786 25.9814 20.9103Z" stroke="white" stroke-width="0.2999"/>
<path d="M84.072 22.12C83.6827 22.12 83.328 22.056 83.008 21.928C82.688 21.8 82.4133 21.6133 82.184 21.368C81.9547 21.1227 81.776 20.8213 81.648 20.464C81.5253 20.1013 81.464 19.688 81.464 19.224C81.464 18.76 81.5333 18.3493 81.672 17.992C81.816 17.6293 82.008 17.3253 82.248 17.08C82.488 16.8347 82.768 16.648 83.088 16.52C83.408 16.392 83.7493 16.328 84.112 16.328C84.3413 16.328 84.5467 16.344 84.728 16.376C84.9147 16.408 85.0747 16.4453 85.208 16.488C85.3467 16.5307 85.4587 16.5733 85.544 16.616C85.6293 16.6587 85.688 16.6907 85.72 16.712L85.496 17.352C85.448 17.32 85.3787 17.2853 85.288 17.248C85.1973 17.2107 85.0933 17.1733 84.976 17.136C84.864 17.0987 84.7387 17.0693 84.6 17.048C84.4667 17.0213 84.3307 17.008 84.192 17.008C83.8987 17.008 83.6347 17.0587 83.4 17.16C83.1653 17.2613 82.9653 17.408 82.8 17.6C82.6347 17.792 82.5067 18.0267 82.416 18.304C82.3307 18.576 82.288 18.8827 82.288 19.224C82.288 19.5547 82.3253 19.856 82.4 20.128C82.48 20.4 82.5973 20.6347 82.752 20.832C82.9067 21.024 83.0987 21.1733 83.328 21.28C83.5627 21.3867 83.8347 21.44 84.144 21.44C84.5013 21.44 84.7973 21.4027 85.032 21.328C85.2667 21.2533 85.4427 21.1867 85.56 21.128L85.76 21.768C85.7227 21.7947 85.656 21.8293 85.56 21.872C85.464 21.9093 85.344 21.9467 85.2 21.984C85.056 22.0213 84.888 22.0533 84.696 22.08C84.504 22.1067 84.296 22.12 84.072 22.12ZM87.3929 18.936C87.3396 19.464 87.2996 19.992 87.2729 20.52C87.2463 21.0427 87.2249 21.536 87.2089 22H86.4969C86.5076 21.6747 86.5236 21.336 86.5449 20.984C86.5663 20.6267 86.5903 20.2693 86.6169 19.912C86.6436 19.5493 86.6729 19.1947 86.7049 18.848C86.7369 18.496 86.7716 18.16 86.8089 17.84H87.4889C87.6596 18.1173 87.8596 18.4987 88.0889 18.984C88.3183 19.464 88.5823 20.0187 88.8809 20.648C89.1796 20.0187 89.4436 19.464 89.6729 18.984C89.9023 18.4987 90.1023 18.1173 90.2729 17.84H90.9609C90.9983 18.16 91.0329 18.496 91.0649 18.848C91.0969 19.1947 91.1263 19.5493 91.1529 19.912C91.1796 20.2693 91.2036 20.6267 91.2249 20.984C91.2463 21.336 91.2623 21.6747 91.2729 22H90.5369C90.5209 21.536 90.4996 21.0427 90.4729 20.52C90.4463 19.992 90.4063 19.464 90.3529 18.936C90.2676 19.1013 90.1689 19.3013 90.0569 19.536C89.9449 19.7653 89.8329 20 89.7209 20.24C89.6143 20.48 89.5129 20.7093 89.4169 20.928C89.3209 21.1467 89.2463 21.32 89.1929 21.448H88.5689C88.5103 21.3147 88.4303 21.1387 88.3289 20.92C88.2329 20.7013 88.1289 20.472 88.0169 20.232C87.9103 19.9867 87.8009 19.7493 87.6889 19.52C87.5769 19.2853 87.4783 19.0907 87.3929 18.936ZM92.2205 19.928C92.2205 19.56 92.2738 19.24 92.3805 18.968C92.4872 18.6907 92.6285 18.4613 92.8045 18.28C92.9805 18.0987 93.1832 17.9627 93.4125 17.872C93.6418 17.7813 93.8765 17.736 94.1165 17.736C94.6765 17.736 95.1058 17.912 95.4045 18.264C95.7032 18.6107 95.8525 19.1413 95.8525 19.856C95.8525 19.888 95.8525 19.9307 95.8525 19.984C95.8525 20.032 95.8498 20.0773 95.8445 20.12H92.9965C93.0285 20.552 93.1538 20.88 93.3725 21.104C93.5912 21.328 93.9325 21.44 94.3965 21.44C94.6578 21.44 94.8765 21.4187 95.0525 21.376C95.2338 21.328 95.3698 21.2827 95.4605 21.24L95.5645 21.864C95.4738 21.912 95.3138 21.9627 95.0845 22.016C94.8605 22.0693 94.6045 22.096 94.3165 22.096C93.9538 22.096 93.6392 22.0427 93.3725 21.936C93.1112 21.824 92.8952 21.672 92.7245 21.48C92.5538 21.288 92.4258 21.0613 92.3405 20.8C92.2605 20.5333 92.2205 20.2427 92.2205 19.928ZM95.0765 19.52C95.0818 19.184 94.9965 18.9093 94.8205 18.696C94.6498 18.4773 94.4125 18.368 94.1085 18.368C93.9378 18.368 93.7858 18.4027 93.6525 18.472C93.5245 18.536 93.4152 18.6213 93.3245 18.728C93.2338 18.8347 93.1618 18.9573 93.1085 19.096C93.0605 19.2347 93.0285 19.376 93.0125 19.52H95.0765ZM98.7293 22.096C98.3933 22.096 98.0973 22.0427 97.8413 21.936C97.5906 21.8293 97.3773 21.68 97.2013 21.488C97.0306 21.296 96.9026 21.0693 96.8173 20.808C96.7319 20.5413 96.6893 20.248 96.6893 19.928C96.6893 19.608 96.7346 19.3147 96.8253 19.048C96.9213 18.7813 97.0546 18.552 97.2253 18.36C97.3959 18.1627 97.6039 18.0107 97.8493 17.904C98.0999 17.792 98.3773 17.736 98.6813 17.736C98.8679 17.736 99.0546 17.752 99.2413 17.784C99.4279 17.816 99.6066 17.8667 99.7773 17.936L99.6093 18.568C99.4973 18.5147 99.3666 18.472 99.2173 18.44C99.0733 18.408 98.9186 18.392 98.7533 18.392C98.3373 18.392 98.0173 18.5227 97.7933 18.784C97.5746 19.0453 97.4653 19.4267 97.4653 19.928C97.4653 20.152 97.4893 20.3573 97.5373 20.544C97.5906 20.7307 97.6706 20.8907 97.7773 21.024C97.8893 21.1573 98.0306 21.2613 98.2013 21.336C98.3719 21.4053 98.5799 21.44 98.8253 21.44C99.0226 21.44 99.2013 21.4213 99.3613 21.384C99.5213 21.3467 99.6466 21.3067 99.7373 21.264L99.8413 21.888C99.7986 21.9147 99.7373 21.9413 99.6573 21.968C99.5773 21.9893 99.4866 22.008 99.3853 22.024C99.2839 22.0453 99.1746 22.0613 99.0573 22.072C98.9453 22.088 98.8359 22.096 98.7293 22.096ZM104.136 17.84V22H103.416V18.832C103.256 19.0347 103.08 19.272 102.888 19.544C102.696 19.816 102.504 20.0987 102.312 20.392C102.12 20.68 101.936 20.9653 101.76 21.248C101.584 21.5307 101.432 21.7813 101.304 22H100.64V17.84H101.36V20.832C101.499 20.6027 101.656 20.352 101.832 20.08C102.008 19.8027 102.189 19.5307 102.376 19.264C102.568 18.992 102.757 18.7333 102.944 18.488C103.136 18.2373 103.315 18.0213 103.48 17.84H104.136ZM108.349 17.84V18.464H106.997V22H106.253V18.464H104.901V17.84H108.349ZM108.885 19.928C108.885 19.56 108.938 19.24 109.045 18.968C109.151 18.6907 109.293 18.4613 109.469 18.28C109.645 18.0987 109.847 17.9627 110.077 17.872C110.306 17.7813 110.541 17.736 110.781 17.736C111.341 17.736 111.77 17.912 112.069 18.264C112.367 18.6107 112.517 19.1413 112.517 19.856C112.517 19.888 112.517 19.9307 112.517 19.984C112.517 20.032 112.514 20.0773 112.509 20.12H109.661C109.693 20.552 109.818 20.88 110.037 21.104C110.255 21.328 110.597 21.44 111.061 21.44C111.322 21.44 111.541 21.4187 111.717 21.376C111.898 21.328 112.034 21.2827 112.125 21.24L112.229 21.864C112.138 21.912 111.978 21.9627 111.749 22.016C111.525 22.0693 111.269 22.096 110.981 22.096C110.618 22.096 110.303 22.0427 110.037 21.936C109.775 21.824 109.559 21.672 109.389 21.48C109.218 21.288 109.09 21.0613 109.005 20.8C108.925 20.5333 108.885 20.2427 108.885 19.928ZM111.741 19.52C111.746 19.184 111.661 18.9093 111.485 18.696C111.314 18.4773 111.077 18.368 110.773 18.368C110.602 18.368 110.45 18.4027 110.317 18.472C110.189 18.536 110.079 18.6213 109.989 18.728C109.898 18.8347 109.826 18.9573 109.773 19.096C109.725 19.2347 109.693 19.376 109.677 19.52H111.741ZM115.033 18.464C115.033 18.64 115.028 18.8293 115.017 19.032C115.012 19.2293 114.999 19.4293 114.977 19.632C114.956 19.8293 114.927 20.0267 114.889 20.224C114.852 20.416 114.804 20.5973 114.745 20.768C114.687 20.9387 114.612 21.0987 114.521 21.248C114.436 21.3973 114.329 21.5307 114.201 21.648C114.073 21.76 113.924 21.856 113.753 21.936C113.583 22.0107 113.383 22.0587 113.153 22.08L113.049 21.456C113.311 21.4027 113.516 21.304 113.665 21.16C113.82 21.016 113.943 20.84 114.033 20.632C114.113 20.4507 114.172 20.2453 114.209 20.016C114.247 19.7867 114.273 19.5493 114.289 19.304C114.305 19.0533 114.313 18.8027 114.313 18.552C114.319 18.3013 114.321 18.064 114.321 17.84H117.089V22H116.345V18.464H115.033ZM119.943 21.48C120.257 21.48 120.505 21.4187 120.687 21.296C120.868 21.1733 120.959 20.976 120.959 20.704C120.959 20.5707 120.932 20.456 120.879 20.36C120.825 20.264 120.751 20.1867 120.655 20.128C120.564 20.064 120.457 20.0187 120.335 19.992C120.212 19.96 120.081 19.944 119.943 19.944C119.799 19.944 119.649 19.9493 119.495 19.96C119.345 19.9653 119.217 19.9813 119.111 20.008V21.44C119.143 21.4453 119.191 21.4507 119.255 21.456C119.319 21.4613 119.388 21.4667 119.463 21.472C119.543 21.472 119.623 21.4747 119.703 21.48C119.788 21.48 119.868 21.48 119.943 21.48ZM118.367 21.912V17.84H119.111V19.432C119.153 19.4213 119.209 19.4107 119.279 19.4C119.353 19.3893 119.431 19.3787 119.511 19.368C119.596 19.3573 119.684 19.3493 119.775 19.344C119.865 19.3387 119.951 19.336 120.031 19.336C120.26 19.336 120.476 19.3627 120.679 19.416C120.881 19.464 121.057 19.544 121.207 19.656C121.361 19.7627 121.484 19.904 121.575 20.08C121.665 20.2507 121.711 20.456 121.711 20.696C121.711 20.9467 121.668 21.16 121.583 21.336C121.497 21.512 121.375 21.656 121.215 21.768C121.055 21.88 120.863 21.96 120.639 22.008C120.42 22.0613 120.175 22.088 119.903 22.088C119.636 22.088 119.375 22.072 119.119 22.04C118.863 22.0133 118.612 21.9707 118.367 21.912ZM123.933 21.392H124.381C124.557 21.136 124.695 20.872 124.797 20.6C124.903 20.328 124.983 20.048 125.037 19.76C125.09 19.4667 125.125 19.1627 125.141 18.848C125.157 18.528 125.167 18.192 125.173 17.84H127.901V21.392H128.461V23.16H127.757V22H124.637V23.16H123.933V21.392ZM127.157 21.392V18.464H125.853C125.847 18.7147 125.834 18.968 125.813 19.224C125.791 19.4747 125.757 19.7253 125.709 19.976C125.661 20.2213 125.591 20.464 125.501 20.704C125.415 20.9387 125.306 21.168 125.173 21.392H127.157ZM130.885 18.464C130.885 18.64 130.88 18.8293 130.869 19.032C130.864 19.2293 130.85 19.4293 130.829 19.632C130.808 19.8293 130.778 20.0267 130.741 20.224C130.704 20.416 130.656 20.5973 130.597 20.768C130.538 20.9387 130.464 21.0987 130.373 21.248C130.288 21.3973 130.181 21.5307 130.053 21.648C129.925 21.76 129.776 21.856 129.605 21.936C129.434 22.0107 129.234 22.0587 129.005 22.08L128.901 21.456C129.162 21.4027 129.368 21.304 129.517 21.16C129.672 21.016 129.794 20.84 129.885 20.632C129.965 20.4507 130.024 20.2453 130.061 20.016C130.098 19.7867 130.125 19.5493 130.141 19.304C130.157 19.0533 130.165 18.8027 130.165 18.552C130.17 18.3013 130.173 18.064 130.173 17.84H132.941V22H132.197V18.464H130.885ZM135.938 20.384C135.858 20.384 135.781 20.384 135.706 20.384C135.631 20.3787 135.559 20.3733 135.49 20.368C135.319 20.624 135.154 20.8987 134.994 21.192C134.839 21.48 134.701 21.7493 134.578 22H133.826C133.89 21.8453 133.965 21.688 134.05 21.528C134.135 21.3627 134.221 21.2027 134.306 21.048C134.397 20.8933 134.487 20.7467 134.578 20.608C134.669 20.4693 134.754 20.344 134.834 20.232C134.685 20.1787 134.562 20.1147 134.466 20.04C134.37 19.96 134.293 19.872 134.234 19.776C134.175 19.68 134.133 19.5787 134.106 19.472C134.085 19.36 134.074 19.248 134.074 19.136C134.074 18.9013 134.117 18.696 134.202 18.52C134.293 18.344 134.415 18.2 134.57 18.088C134.725 17.9707 134.906 17.8827 135.114 17.824C135.327 17.7653 135.559 17.736 135.81 17.736C136.162 17.736 136.461 17.752 136.706 17.784C136.951 17.816 137.157 17.8533 137.322 17.896V22H136.586V20.384H135.938ZM136.586 18.392C136.527 18.3813 136.429 18.3707 136.29 18.36C136.157 18.3493 136.002 18.344 135.826 18.344C135.522 18.344 135.277 18.408 135.09 18.536C134.903 18.6587 134.81 18.856 134.81 19.128C134.81 19.3947 134.906 19.5787 135.098 19.68C135.29 19.7813 135.538 19.832 135.842 19.832H136.586V18.392ZM141.973 19.736C142.138 19.8533 142.317 20.0027 142.509 20.184C142.701 20.36 142.887 20.552 143.069 20.76C143.255 20.968 143.429 21.1813 143.589 21.4C143.749 21.6133 143.885 21.8133 143.997 22H143.117C142.999 21.8187 142.861 21.6347 142.701 21.448C142.546 21.256 142.383 21.072 142.213 20.896C142.042 20.72 141.869 20.5573 141.693 20.408C141.517 20.2587 141.351 20.1333 141.197 20.032V22H140.453V17.84H141.197V19.624C141.325 19.5013 141.471 19.36 141.637 19.2C141.802 19.0347 141.967 18.8693 142.133 18.704C142.303 18.5333 142.461 18.3733 142.605 18.224C142.749 18.0693 142.866 17.9413 142.957 17.84H143.821C143.703 17.968 143.565 18.1147 143.405 18.28C143.25 18.44 143.087 18.6053 142.917 18.776C142.751 18.9467 142.586 19.1173 142.421 19.288C142.255 19.4533 142.106 19.6027 141.973 19.736ZM144.261 22.776C144.32 22.8027 144.395 22.8267 144.485 22.848C144.581 22.8747 144.675 22.888 144.765 22.888C145.059 22.888 145.288 22.8213 145.453 22.688C145.619 22.56 145.768 22.3493 145.901 22.056C145.565 21.416 145.251 20.7387 144.957 20.024C144.669 19.304 144.429 18.576 144.237 17.84H145.037C145.096 18.08 145.165 18.3387 145.245 18.616C145.331 18.8933 145.424 19.1787 145.525 19.472C145.627 19.7653 145.736 20.0587 145.853 20.352C145.971 20.6453 146.093 20.928 146.221 21.2C146.424 20.64 146.6 20.0853 146.749 19.536C146.899 18.9867 147.04 18.4213 147.173 17.84H147.941C147.749 18.624 147.536 19.3787 147.301 20.104C147.067 20.824 146.813 21.4987 146.541 22.128C146.435 22.368 146.323 22.5733 146.205 22.744C146.093 22.92 145.968 23.064 145.829 23.176C145.691 23.288 145.533 23.3707 145.357 23.424C145.187 23.4773 144.992 23.504 144.773 23.504C144.715 23.504 144.653 23.4987 144.589 23.488C144.525 23.4827 144.461 23.472 144.397 23.456C144.339 23.4453 144.283 23.432 144.229 23.416C144.181 23.4 144.147 23.3867 144.125 23.376L144.261 22.776ZM151.316 22C151.257 21.8827 151.185 21.752 151.1 21.608C151.014 21.464 150.921 21.3173 150.82 21.168C150.718 21.0133 150.614 20.8613 150.508 20.712C150.401 20.5627 150.297 20.4213 150.196 20.288C150.094 20.4213 149.99 20.5653 149.884 20.72C149.777 20.8693 149.673 21.0213 149.572 21.176C149.476 21.3253 149.385 21.472 149.3 21.616C149.214 21.76 149.142 21.888 149.084 22H148.316C148.502 21.6373 148.724 21.2693 148.98 20.896C149.241 20.5173 149.5 20.1573 149.756 19.816L148.38 17.84H149.22L150.212 19.296L151.212 17.84H152.004L150.66 19.768C150.916 20.1147 151.177 20.4827 151.444 20.872C151.716 21.256 151.945 21.632 152.132 22H151.316ZM156.414 19.92C156.414 20.2507 156.366 20.5493 156.27 20.816C156.174 21.0827 156.038 21.312 155.862 21.504C155.691 21.696 155.486 21.8453 155.246 21.952C155.006 22.0533 154.744 22.104 154.462 22.104C154.179 22.104 153.918 22.0533 153.678 21.952C153.438 21.8453 153.23 21.696 153.054 21.504C152.883 21.312 152.75 21.0827 152.654 20.816C152.558 20.5493 152.51 20.2507 152.51 19.92C152.51 19.5947 152.558 19.2987 152.654 19.032C152.75 18.76 152.883 18.528 153.054 18.336C153.23 18.144 153.438 17.9973 153.678 17.896C153.918 17.7893 154.179 17.736 154.462 17.736C154.744 17.736 155.006 17.7893 155.246 17.896C155.486 17.9973 155.691 18.144 155.862 18.336C156.038 18.528 156.174 18.76 156.27 19.032C156.366 19.2987 156.414 19.5947 156.414 19.92ZM155.638 19.92C155.638 19.4507 155.531 19.08 155.318 18.808C155.11 18.5307 154.824 18.392 154.462 18.392C154.099 18.392 153.811 18.5307 153.598 18.808C153.39 19.08 153.286 19.4507 153.286 19.92C153.286 20.3893 153.39 20.7627 153.598 21.04C153.811 21.312 154.099 21.448 154.462 21.448C154.824 21.448 155.11 21.312 155.318 21.04C155.531 20.7627 155.638 20.3893 155.638 19.92ZM160.868 22H160.124V20.16H158.204V22H157.46V17.84H158.204V19.536H160.124V17.84H160.868V22ZM165.556 22H164.812V20.16H162.892V22H162.148V17.84H162.892V19.536H164.812V17.84H165.556V22ZM170.507 19.92C170.507 20.2507 170.459 20.5493 170.363 20.816C170.267 21.0827 170.131 21.312 169.955 21.504C169.785 21.696 169.579 21.8453 169.339 21.952C169.099 22.0533 168.838 22.104 168.555 22.104C168.273 22.104 168.011 22.0533 167.771 21.952C167.531 21.8453 167.323 21.696 167.147 21.504C166.977 21.312 166.843 21.0827 166.747 20.816C166.651 20.5493 166.603 20.2507 166.603 19.92C166.603 19.5947 166.651 19.2987 166.747 19.032C166.843 18.76 166.977 18.528 167.147 18.336C167.323 18.144 167.531 17.9973 167.771 17.896C168.011 17.7893 168.273 17.736 168.555 17.736C168.838 17.736 169.099 17.7893 169.339 17.896C169.579 17.9973 169.785 18.144 169.955 18.336C170.131 18.528 170.267 18.76 170.363 19.032C170.459 19.2987 170.507 19.5947 170.507 19.92ZM169.731 19.92C169.731 19.4507 169.625 19.08 169.411 18.808C169.203 18.5307 168.918 18.392 168.555 18.392C168.193 18.392 167.905 18.5307 167.691 18.808C167.483 19.08 167.379 19.4507 167.379 19.92C167.379 20.3893 167.483 20.7627 167.691 21.04C167.905 21.312 168.193 21.448 168.555 21.448C168.918 21.448 169.203 21.312 169.411 21.04C169.625 20.7627 169.731 20.3893 169.731 19.92ZM175.05 17.84V22H174.33V18.832C174.17 19.0347 173.994 19.272 173.802 19.544C173.61 19.816 173.418 20.0987 173.226 20.392C173.034 20.68 172.85 20.9653 172.674 21.248C172.498 21.5307 172.346 21.7813 172.218 22H171.554V17.84H172.274V20.832C172.413 20.6027 172.57 20.352 172.746 20.08C172.922 19.8027 173.103 19.5307 173.29 19.264C173.482 18.992 173.671 18.7333 173.858 18.488C174.05 18.2373 174.229 18.0213 174.394 17.84H175.05ZM173.306 17.168C172.97 17.168 172.695 17.0827 172.482 16.912C172.274 16.7413 172.149 16.504 172.106 16.2L172.674 16.048C172.717 16.2187 172.789 16.3573 172.89 16.464C172.991 16.5707 173.13 16.624 173.306 16.624C173.482 16.624 173.621 16.5707 173.722 16.464C173.823 16.3573 173.895 16.2187 173.938 16.048L174.498 16.2C174.455 16.504 174.33 16.7413 174.122 16.912C173.914 17.0827 173.642 17.168 173.306 17.168ZM178.971 18.936C178.918 19.464 178.878 19.992 178.851 20.52C178.824 21.0427 178.803 21.536 178.787 22H178.075C178.086 21.6747 178.102 21.336 178.123 20.984C178.144 20.6267 178.168 20.2693 178.195 19.912C178.222 19.5493 178.251 19.1947 178.283 18.848C178.315 18.496 178.35 18.16 178.387 17.84H179.067C179.238 18.1173 179.438 18.4987 179.667 18.984C179.896 19.464 180.16 20.0187 180.459 20.648C180.758 20.0187 181.022 19.464 181.251 18.984C181.48 18.4987 181.68 18.1173 181.851 17.84H182.539C182.576 18.16 182.611 18.496 182.643 18.848C182.675 19.1947 182.704 19.5493 182.731 19.912C182.758 20.2693 182.782 20.6267 182.803 20.984C182.824 21.336 182.84 21.6747 182.851 22H182.115C182.099 21.536 182.078 21.0427 182.051 20.52C182.024 19.992 181.984 19.464 181.931 18.936C181.846 19.1013 181.747 19.3013 181.635 19.536C181.523 19.7653 181.411 20 181.299 20.24C181.192 20.48 181.091 20.7093 180.995 20.928C180.899 21.1467 180.824 21.32 180.771 21.448H180.147C180.088 21.3147 180.008 21.1387 179.907 20.92C179.811 20.7013 179.707 20.472 179.595 20.232C179.488 19.9867 179.379 19.7493 179.267 19.52C179.155 19.2853 179.056 19.0907 178.971 18.936ZM187.703 19.92C187.703 20.2507 187.655 20.5493 187.559 20.816C187.463 21.0827 187.327 21.312 187.151 21.504C186.98 21.696 186.775 21.8453 186.535 21.952C186.295 22.0533 186.033 22.104 185.751 22.104C185.468 22.104 185.207 22.0533 184.967 21.952C184.727 21.8453 184.519 21.696 184.343 21.504C184.172 21.312 184.039 21.0827 183.943 20.816C183.847 20.5493 183.799 20.2507 183.799 19.92C183.799 19.5947 183.847 19.2987 183.943 19.032C184.039 18.76 184.172 18.528 184.343 18.336C184.519 18.144 184.727 17.9973 184.967 17.896C185.207 17.7893 185.468 17.736 185.751 17.736C186.033 17.736 186.295 17.7893 186.535 17.896C186.775 17.9973 186.98 18.144 187.151 18.336C187.327 18.528 187.463 18.76 187.559 19.032C187.655 19.2987 187.703 19.5947 187.703 19.92ZM186.927 19.92C186.927 19.4507 186.82 19.08 186.607 18.808C186.399 18.5307 186.113 18.392 185.751 18.392C185.388 18.392 185.1 18.5307 184.887 18.808C184.679 19.08 184.575 19.4507 184.575 19.92C184.575 20.3893 184.679 20.7627 184.887 21.04C185.1 21.312 185.388 21.448 185.751 21.448C186.113 21.448 186.399 21.312 186.607 21.04C186.82 20.7627 186.927 20.3893 186.927 19.92ZM192.245 17.84V22H191.525V18.832C191.365 19.0347 191.189 19.272 190.997 19.544C190.805 19.816 190.613 20.0987 190.421 20.392C190.229 20.68 190.045 20.9653 189.869 21.248C189.693 21.5307 189.541 21.7813 189.413 22H188.749V17.84H189.469V20.832C189.608 20.6027 189.765 20.352 189.941 20.08C190.117 19.8027 190.299 19.5307 190.485 19.264C190.677 18.992 190.867 18.7333 191.053 18.488C191.245 18.2373 191.424 18.0213 191.589 17.84H192.245ZM190.501 17.168C190.165 17.168 189.891 17.0827 189.677 16.912C189.469 16.7413 189.344 16.504 189.301 16.2L189.869 16.048C189.912 16.2187 189.984 16.3573 190.085 16.464C190.187 16.5707 190.325 16.624 190.501 16.624C190.677 16.624 190.816 16.5707 190.917 16.464C191.019 16.3573 191.091 16.2187 191.133 16.048L191.693 16.2C191.651 16.504 191.525 16.7413 191.317 16.912C191.109 17.0827 190.837 17.168 190.501 17.168ZM195.043 19.736C195.208 19.8533 195.387 20.0027 195.579 20.184C195.771 20.36 195.957 20.552 196.139 20.76C196.325 20.968 196.499 21.1813 196.659 21.4C196.819 21.6133 196.955 21.8133 197.067 22H196.187C196.069 21.8187 195.931 21.6347 195.771 21.448C195.616 21.256 195.453 21.072 195.283 20.896C195.112 20.72 194.939 20.5573 194.763 20.408C194.587 20.2587 194.421 20.1333 194.267 20.032V22H193.523V17.84H194.267V19.624C194.395 19.5013 194.541 19.36 194.707 19.2C194.872 19.0347 195.037 18.8693 195.203 18.704C195.373 18.5333 195.531 18.3733 195.675 18.224C195.819 18.0693 195.936 17.9413 196.027 17.84H196.891C196.773 17.968 196.635 18.1147 196.475 18.28C196.32 18.44 196.157 18.6053 195.987 18.776C195.821 18.9467 195.656 19.1173 195.491 19.288C195.325 19.4533 195.176 19.6027 195.043 19.736ZM201.316 17.84V22H200.596V18.832C200.436 19.0347 200.26 19.272 200.068 19.544C199.876 19.816 199.684 20.0987 199.492 20.392C199.3 20.68 199.116 20.9653 198.94 21.248C198.764 21.5307 198.612 21.7813 198.484 22H197.82V17.84H198.54V20.832C198.678 20.6027 198.836 20.352 199.012 20.08C199.188 19.8027 199.369 19.5307 199.556 19.264C199.748 18.992 199.937 18.7333 200.124 18.488C200.316 18.2373 200.494 18.0213 200.66 17.84H201.316ZM85.312 28.92C85.312 29.2507 85.264 29.5493 85.168 29.816C85.072 30.0827 84.936 30.312 84.76 30.504C84.5893 30.696 84.384 30.8453 84.144 30.952C83.904 31.0533 83.6427 31.104 83.36 31.104C83.0773 31.104 82.816 31.0533 82.576 30.952C82.336 30.8453 82.128 30.696 81.952 30.504C81.7813 30.312 81.648 30.0827 81.552 29.816C81.456 29.5493 81.408 29.2507 81.408 28.92C81.408 28.5947 81.456 28.2987 81.552 28.032C81.648 27.76 81.7813 27.528 81.952 27.336C82.128 27.144 82.336 26.9973 82.576 26.896C82.816 26.7893 83.0773 26.736 83.36 26.736C83.6427 26.736 83.904 26.7893 84.144 26.896C84.384 26.9973 84.5893 27.144 84.76 27.336C84.936 27.528 85.072 27.76 85.168 28.032C85.264 28.2987 85.312 28.5947 85.312 28.92ZM84.536 28.92C84.536 28.4507 84.4293 28.08 84.216 27.808C84.008 27.5307 83.7227 27.392 83.36 27.392C82.9973 27.392 82.7093 27.5307 82.496 27.808C82.288 28.08 82.184 28.4507 82.184 28.92C82.184 29.3893 82.288 29.7627 82.496 30.04C82.7093 30.312 82.9973 30.448 83.36 30.448C83.7227 30.448 84.008 30.312 84.216 30.04C84.4293 29.7627 84.536 29.3893 84.536 28.92ZM85.8468 30.392H86.2948C86.4708 30.136 86.6094 29.872 86.7108 29.6C86.8174 29.328 86.8974 29.048 86.9508 28.76C87.0041 28.4667 87.0388 28.1627 87.0548 27.848C87.0708 27.528 87.0814 27.192 87.0868 26.84H89.8148V30.392H90.3748V32.16H89.6708V31H86.5508V32.16H85.8468V30.392ZM89.0708 30.392V27.464H87.7668C87.7614 27.7147 87.7481 27.968 87.7268 28.224C87.7054 28.4747 87.6708 28.7253 87.6228 28.976C87.5748 29.2213 87.5054 29.464 87.4148 29.704C87.3294 29.9387 87.2201 30.168 87.0868 30.392H89.0708ZM94.5871 31H93.8431V29.16H91.9231V31H91.1791V26.84H91.9231V28.536H93.8431V26.84H94.5871V31ZM99.5386 28.92C99.5386 29.2507 99.4906 29.5493 99.3946 29.816C99.2986 30.0827 99.1626 30.312 98.9866 30.504C98.8159 30.696 98.6106 30.8453 98.3706 30.952C98.1306 31.0533 97.8692 31.104 97.5866 31.104C97.3039 31.104 97.0426 31.0533 96.8026 30.952C96.5626 30.8453 96.3546 30.696 96.1786 30.504C96.0079 30.312 95.8746 30.0827 95.7786 29.816C95.6826 29.5493 95.6346 29.2507 95.6346 28.92C95.6346 28.5947 95.6826 28.2987 95.7786 28.032C95.8746 27.76 96.0079 27.528 96.1786 27.336C96.3546 27.144 96.5626 26.9973 96.8026 26.896C97.0426 26.7893 97.3039 26.736 97.5866 26.736C97.8692 26.736 98.1306 26.7893 98.3706 26.896C98.6106 26.9973 98.8159 27.144 98.9866 27.336C99.1626 27.528 99.2986 27.76 99.3946 28.032C99.4906 28.2987 99.5386 28.5947 99.5386 28.92ZM98.7626 28.92C98.7626 28.4507 98.6559 28.08 98.4426 27.808C98.2346 27.5307 97.9492 27.392 97.5866 27.392C97.2239 27.392 96.9359 27.5307 96.7226 27.808C96.5146 28.08 96.4106 28.4507 96.4106 28.92C96.4106 29.3893 96.5146 29.7627 96.7226 30.04C96.9359 30.312 97.2239 30.448 97.5866 30.448C97.9492 30.448 98.2346 30.312 98.4426 30.04C98.6559 29.7627 98.7626 29.3893 98.7626 28.92ZM103.473 28.928C103.473 28.4427 103.353 28.0693 103.113 27.808C102.873 27.5467 102.553 27.416 102.153 27.416C101.929 27.416 101.753 27.424 101.625 27.44C101.503 27.456 101.404 27.4747 101.329 27.496V30.12C101.42 30.1947 101.551 30.2667 101.721 30.336C101.892 30.4053 102.079 30.44 102.281 30.44C102.495 30.44 102.676 30.4027 102.825 30.328C102.98 30.248 103.105 30.1413 103.201 30.008C103.297 29.8693 103.367 29.7093 103.409 29.528C103.452 29.3413 103.473 29.1413 103.473 28.928ZM104.249 28.928C104.249 29.2427 104.207 29.5333 104.121 29.8C104.041 30.0667 103.921 30.296 103.761 30.488C103.601 30.68 103.404 30.8293 103.169 30.936C102.94 31.0427 102.676 31.096 102.377 31.096C102.137 31.096 101.924 31.064 101.737 31C101.556 30.936 101.42 30.8747 101.329 30.816V32.48H100.585V26.968C100.761 26.9253 100.98 26.88 101.241 26.832C101.508 26.7787 101.815 26.752 102.161 26.752C102.481 26.752 102.769 26.8027 103.025 26.904C103.281 27.0053 103.5 27.1493 103.681 27.336C103.863 27.5227 104.001 27.752 104.097 28.024C104.199 28.2907 104.249 28.592 104.249 28.928ZM104.699 31.776C104.758 31.8027 104.832 31.8267 104.923 31.848C105.019 31.8747 105.112 31.888 105.203 31.888C105.496 31.888 105.726 31.8213 105.891 31.688C106.056 31.56 106.206 31.3493 106.339 31.056C106.003 30.416 105.688 29.7387 105.395 29.024C105.107 28.304 104.867 27.576 104.675 26.84H105.475C105.534 27.08 105.603 27.3387 105.683 27.616C105.768 27.8933 105.862 28.1787 105.963 28.472C106.064 28.7653 106.174 29.0587 106.291 29.352C106.408 29.6453 106.531 29.928 106.659 30.2C106.862 29.64 107.038 29.0853 107.187 28.536C107.336 27.9867 107.478 27.4213 107.611 26.84H108.379C108.187 27.624 107.974 28.3787 107.739 29.104C107.504 29.824 107.251 30.4987 106.979 31.128C106.872 31.368 106.76 31.5733 106.643 31.744C106.531 31.92 106.406 32.064 106.267 32.176C106.128 32.288 105.971 32.3707 105.795 32.424C105.624 32.4773 105.43 32.504 105.211 32.504C105.152 32.504 105.091 32.4987 105.027 32.488C104.963 32.4827 104.899 32.472 104.835 32.456C104.776 32.4453 104.72 32.432 104.667 32.416C104.619 32.4 104.584 32.3867 104.563 32.376L104.699 31.776ZM110.683 28.736C110.849 28.8533 111.027 29.0027 111.219 29.184C111.411 29.36 111.598 29.552 111.779 29.76C111.966 29.968 112.139 30.1813 112.299 30.4C112.459 30.6133 112.595 30.8133 112.707 31H111.827C111.71 30.8187 111.571 30.6347 111.411 30.448C111.257 30.256 111.094 30.072 110.923 29.896C110.753 29.72 110.579 29.5573 110.403 29.408C110.227 29.2587 110.062 29.1333 109.907 29.032V31H109.163V26.84H109.907V28.624C110.035 28.5013 110.182 28.36 110.347 28.2C110.513 28.0347 110.678 27.8693 110.843 27.704C111.014 27.5333 111.171 27.3733 111.315 27.224C111.459 27.0693 111.577 26.9413 111.667 26.84H112.531C112.414 26.968 112.275 27.1147 112.115 27.28C111.961 27.44 111.798 27.6053 111.627 27.776C111.462 27.9467 111.297 28.1173 111.131 28.288C110.966 28.4533 110.817 28.6027 110.683 28.736ZM116.898 28.92C116.898 29.2507 116.85 29.5493 116.754 29.816C116.658 30.0827 116.522 30.312 116.346 30.504C116.175 30.696 115.97 30.8453 115.73 30.952C115.49 31.0533 115.229 31.104 114.946 31.104C114.663 31.104 114.402 31.0533 114.162 30.952C113.922 30.8453 113.714 30.696 113.538 30.504C113.367 30.312 113.234 30.0827 113.138 29.816C113.042 29.5493 112.994 29.2507 112.994 28.92C112.994 28.5947 113.042 28.2987 113.138 28.032C113.234 27.76 113.367 27.528 113.538 27.336C113.714 27.144 113.922 26.9973 114.162 26.896C114.402 26.7893 114.663 26.736 114.946 26.736C115.229 26.736 115.49 26.7893 115.73 26.896C115.97 26.9973 116.175 27.144 116.346 27.336C116.522 27.528 116.658 27.76 116.754 28.032C116.85 28.2987 116.898 28.5947 116.898 28.92ZM116.122 28.92C116.122 28.4507 116.015 28.08 115.802 27.808C115.594 27.5307 115.309 27.392 114.946 27.392C114.583 27.392 114.295 27.5307 114.082 27.808C113.874 28.08 113.77 28.4507 113.77 28.92C113.77 29.3893 113.874 29.7627 114.082 30.04C114.295 30.312 114.583 30.448 114.946 30.448C115.309 30.448 115.594 30.312 115.802 30.04C116.015 29.7627 116.122 29.3893 116.122 28.92ZM119.665 29.384C119.585 29.384 119.507 29.384 119.433 29.384C119.358 29.3787 119.286 29.3733 119.217 29.368C119.046 29.624 118.881 29.8987 118.721 30.192C118.566 30.48 118.427 30.7493 118.305 31H117.553C117.617 30.8453 117.691 30.688 117.777 30.528C117.862 30.3627 117.947 30.2027 118.033 30.048C118.123 29.8933 118.214 29.7467 118.305 29.608C118.395 29.4693 118.481 29.344 118.561 29.232C118.411 29.1787 118.289 29.1147 118.193 29.04C118.097 28.96 118.019 28.872 117.961 28.776C117.902 28.68 117.859 28.5787 117.833 28.472C117.811 28.36 117.801 28.248 117.801 28.136C117.801 27.9013 117.843 27.696 117.929 27.52C118.019 27.344 118.142 27.2 118.297 27.088C118.451 26.9707 118.633 26.8827 118.841 26.824C119.054 26.7653 119.286 26.736 119.537 26.736C119.889 26.736 120.187 26.752 120.433 26.784C120.678 26.816 120.883 26.8533 121.049 26.896V31H120.313V29.384H119.665ZM120.313 27.392C120.254 27.3813 120.155 27.3707 120.017 27.36C119.883 27.3493 119.729 27.344 119.553 27.344C119.249 27.344 119.003 27.408 118.817 27.536C118.63 27.6587 118.537 27.856 118.537 28.128C118.537 28.3947 118.633 28.5787 118.825 28.68C119.017 28.7813 119.265 28.832 119.569 28.832H120.313V27.392ZM125.264 26.84V27.464H123.912V31H123.168V27.464H121.816V26.84H125.264ZM129.703 28.92C129.703 29.2507 129.655 29.5493 129.559 29.816C129.463 30.0827 129.327 30.312 129.151 30.504C128.98 30.696 128.775 30.8453 128.535 30.952C128.295 31.0533 128.033 31.104 127.751 31.104C127.468 31.104 127.207 31.0533 126.967 30.952C126.727 30.8453 126.519 30.696 126.343 30.504C126.172 30.312 126.039 30.0827 125.943 29.816C125.847 29.5493 125.799 29.2507 125.799 28.92C125.799 28.5947 125.847 28.2987 125.943 28.032C126.039 27.76 126.172 27.528 126.343 27.336C126.519 27.144 126.727 26.9973 126.967 26.896C127.207 26.7893 127.468 26.736 127.751 26.736C128.033 26.736 128.295 26.7893 128.535 26.896C128.775 26.9973 128.98 27.144 129.151 27.336C129.327 27.528 129.463 27.76 129.559 28.032C129.655 28.2987 129.703 28.5947 129.703 28.92ZM128.927 28.92C128.927 28.4507 128.82 28.08 128.607 27.808C128.399 27.5307 128.113 27.392 127.751 27.392C127.388 27.392 127.1 27.5307 126.887 27.808C126.679 28.08 126.575 28.4507 126.575 28.92C126.575 29.3893 126.679 29.7627 126.887 30.04C127.1 30.312 127.388 30.448 127.751 30.448C128.113 30.448 128.399 30.312 128.607 30.04C128.82 29.7627 128.927 29.3893 128.927 28.92ZM131.221 26.84V28.064C131.221 28.3787 131.301 28.6 131.461 28.728C131.621 28.8507 131.84 28.912 132.117 28.912C132.32 28.912 132.488 28.9013 132.621 28.88C132.76 28.8587 132.883 28.8347 132.989 28.808V26.84H133.733V31H132.989V29.384C132.947 29.3947 132.891 29.408 132.821 29.424C132.752 29.44 132.672 29.456 132.581 29.472C132.496 29.4827 132.405 29.4933 132.309 29.504C132.213 29.5147 132.12 29.52 132.029 29.52C131.8 29.52 131.589 29.496 131.397 29.448C131.211 29.4 131.048 29.32 130.909 29.208C130.776 29.096 130.669 28.9493 130.589 28.768C130.515 28.5813 130.477 28.3493 130.477 28.072V26.84H131.221ZM138.423 31H137.679V29.16H135.759V31H135.015V26.84H135.759V28.536H137.679V26.84H138.423V31ZM141.231 28.944C141.087 28.944 140.945 28.9493 140.807 28.96C140.673 28.9653 140.553 28.9813 140.447 29.008V30.44C140.479 30.4453 140.524 30.4507 140.583 30.456C140.647 30.4613 140.713 30.4667 140.783 30.472C140.857 30.472 140.932 30.4747 141.007 30.48C141.081 30.48 141.148 30.48 141.207 30.48C141.532 30.48 141.783 30.4187 141.959 30.296C142.135 30.1733 142.223 29.976 142.223 29.704C142.223 29.5707 142.193 29.456 142.135 29.36C142.081 29.264 142.007 29.1867 141.911 29.128C141.82 29.064 141.716 29.0187 141.599 28.992C141.481 28.96 141.359 28.944 141.231 28.944ZM139.703 26.84H140.447V28.432C140.537 28.4107 140.668 28.3893 140.839 28.368C141.015 28.3467 141.183 28.336 141.343 28.336C141.561 28.336 141.769 28.3627 141.967 28.416C142.164 28.464 142.337 28.544 142.487 28.656C142.636 28.7627 142.753 28.904 142.839 29.08C142.929 29.2507 142.975 29.456 142.975 29.696C142.975 29.9467 142.932 30.16 142.847 30.336C142.761 30.512 142.641 30.656 142.487 30.768C142.332 30.88 142.145 30.96 141.927 31.008C141.708 31.0613 141.468 31.088 141.207 31.088C140.956 31.088 140.703 31.072 140.447 31.04C140.191 31.0133 139.943 30.9707 139.703 30.912V26.84ZM144.487 31H143.743V26.84H144.487V31ZM149.261 26.84V31H148.541V27.832C148.381 28.0347 148.205 28.272 148.013 28.544C147.821 28.816 147.629 29.0987 147.437 29.392C147.245 29.68 147.061 29.9653 146.885 30.248C146.709 30.5307 146.557 30.7813 146.429 31H145.765V26.84H146.485V29.832C146.624 29.6027 146.781 29.352 146.957 29.08C147.133 28.8027 147.314 28.5307 147.501 28.264C147.693 27.992 147.882 27.7333 148.069 27.488C148.261 27.2373 148.44 27.0213 148.605 26.84H149.261ZM147.517 26.168C147.181 26.168 146.906 26.0827 146.693 25.912C146.485 25.7413 146.36 25.504 146.317 25.2L146.885 25.048C146.928 25.2187 147 25.3573 147.101 25.464C147.202 25.5707 147.341 25.624 147.517 25.624C147.693 25.624 147.832 25.5707 147.933 25.464C148.034 25.3573 148.106 25.2187 148.149 25.048L148.709 25.2C148.666 25.504 148.541 25.7413 148.333 25.912C148.125 26.0827 147.853 26.168 147.517 26.168ZM154.198 31.096C153.862 31.096 153.566 31.0427 153.31 30.936C153.059 30.8293 152.846 30.68 152.67 30.488C152.499 30.296 152.371 30.0693 152.286 29.808C152.201 29.5413 152.158 29.248 152.158 28.928C152.158 28.608 152.203 28.3147 152.294 28.048C152.39 27.7813 152.523 27.552 152.694 27.36C152.865 27.1627 153.073 27.0107 153.318 26.904C153.569 26.792 153.846 26.736 154.15 26.736C154.337 26.736 154.523 26.752 154.71 26.784C154.897 26.816 155.075 26.8667 155.246 26.936L155.078 27.568C154.966 27.5147 154.835 27.472 154.686 27.44C154.542 27.408 154.387 27.392 154.222 27.392C153.806 27.392 153.486 27.5227 153.262 27.784C153.043 28.0453 152.934 28.4267 152.934 28.928C152.934 29.152 152.958 29.3573 153.006 29.544C153.059 29.7307 153.139 29.8907 153.246 30.024C153.358 30.1573 153.499 30.2613 153.67 30.336C153.841 30.4053 154.049 30.44 154.294 30.44C154.491 30.44 154.67 30.4213 154.83 30.384C154.99 30.3467 155.115 30.3067 155.206 30.264L155.31 30.888C155.267 30.9147 155.206 30.9413 155.126 30.968C155.046 30.9893 154.955 31.008 154.854 31.024C154.753 31.0453 154.643 31.0613 154.526 31.072C154.414 31.088 154.305 31.096 154.198 31.096ZM160.448 31C160.39 30.8827 160.318 30.752 160.232 30.608C160.147 30.464 160.054 30.3173 159.952 30.168C159.851 30.0133 159.747 29.8613 159.64 29.712C159.534 29.5627 159.43 29.4213 159.328 29.288C159.227 29.4213 159.123 29.5653 159.016 29.72C158.91 29.8693 158.806 30.0213 158.704 30.176C158.608 30.3253 158.518 30.472 158.432 30.616C158.347 30.76 158.275 30.888 158.216 31H157.448C157.635 30.6373 157.856 30.2693 158.112 29.896C158.374 29.5173 158.632 29.1573 158.888 28.816L157.512 26.84H158.352L159.344 28.296L160.344 26.84H161.136L159.792 28.768C160.048 29.1147 160.31 29.4827 160.576 29.872C160.848 30.256 161.078 30.632 161.264 31H160.448ZM165.542 26.84V31H164.822V27.832C164.662 28.0347 164.486 28.272 164.294 28.544C164.102 28.816 163.91 29.0987 163.718 29.392C163.526 29.68 163.342 29.9653 163.166 30.248C162.99 30.5307 162.838 30.7813 162.71 31H162.046V26.84H162.766V29.832C162.905 29.6027 163.062 29.352 163.238 29.08C163.414 28.8027 163.596 28.5307 163.782 28.264C163.974 27.992 164.164 27.7333 164.35 27.488C164.542 27.2373 164.721 27.0213 164.886 26.84H165.542ZM169.708 28.928C169.708 28.4427 169.588 28.0693 169.348 27.808C169.108 27.5467 168.788 27.416 168.388 27.416C168.164 27.416 167.988 27.424 167.86 27.44C167.737 27.456 167.638 27.4747 167.564 27.496V30.12C167.654 30.1947 167.785 30.2667 167.956 30.336C168.126 30.4053 168.313 30.44 168.516 30.44C168.729 30.44 168.91 30.4027 169.06 30.328C169.214 30.248 169.34 30.1413 169.436 30.008C169.532 29.8693 169.601 29.7093 169.644 29.528C169.686 29.3413 169.708 29.1413 169.708 28.928ZM170.484 28.928C170.484 29.2427 170.441 29.5333 170.356 29.8C170.276 30.0667 170.156 30.296 169.996 30.488C169.836 30.68 169.638 30.8293 169.404 30.936C169.174 31.0427 168.91 31.096 168.612 31.096C168.372 31.096 168.158 31.064 167.972 31C167.79 30.936 167.654 30.8747 167.564 30.816V32.48H166.82V26.968C166.996 26.9253 167.214 26.88 167.476 26.832C167.742 26.7787 168.049 26.752 168.396 26.752C168.716 26.752 169.004 26.8027 169.26 26.904C169.516 27.0053 169.734 27.1493 169.916 27.336C170.097 27.5227 170.236 27.752 170.332 28.024C170.433 28.2907 170.484 28.592 170.484 28.928ZM170.933 31.776C170.992 31.8027 171.067 31.8267 171.157 31.848C171.253 31.8747 171.347 31.888 171.437 31.888C171.731 31.888 171.96 31.8213 172.125 31.688C172.291 31.56 172.44 31.3493 172.573 31.056C172.237 30.416 171.923 29.7387 171.629 29.024C171.341 28.304 171.101 27.576 170.909 26.84H171.709C171.768 27.08 171.837 27.3387 171.917 27.616C172.003 27.8933 172.096 28.1787 172.197 28.472C172.299 28.7653 172.408 29.0587 172.525 29.352C172.643 29.6453 172.765 29.928 172.893 30.2C173.096 29.64 173.272 29.0853 173.421 28.536C173.571 27.9867 173.712 27.4213 173.845 26.84H174.613C174.421 27.624 174.208 28.3787 173.973 29.104C173.739 29.824 173.485 30.4987 173.213 31.128C173.107 31.368 172.995 31.5733 172.877 31.744C172.765 31.92 172.64 32.064 172.501 32.176C172.363 32.288 172.205 32.3707 172.029 32.424C171.859 32.4773 171.664 32.504 171.445 32.504C171.387 32.504 171.325 32.4987 171.261 32.488C171.197 32.4827 171.133 32.472 171.069 32.456C171.011 32.4453 170.955 32.432 170.901 32.416C170.853 32.4 170.819 32.3867 170.797 32.376L170.933 31.776ZM178.286 28.928C178.286 28.4427 178.166 28.0693 177.926 27.808C177.686 27.5467 177.366 27.416 176.966 27.416C176.742 27.416 176.566 27.424 176.438 27.44C176.315 27.456 176.216 27.4747 176.142 27.496V30.12C176.232 30.1947 176.363 30.2667 176.534 30.336C176.704 30.4053 176.891 30.44 177.094 30.44C177.307 30.44 177.488 30.4027 177.638 30.328C177.792 30.248 177.918 30.1413 178.014 30.008C178.11 29.8693 178.179 29.7093 178.222 29.528C178.264 29.3413 178.286 29.1413 178.286 28.928ZM179.062 28.928C179.062 29.2427 179.019 29.5333 178.934 29.8C178.854 30.0667 178.734 30.296 178.574 30.488C178.414 30.68 178.216 30.8293 177.982 30.936C177.752 31.0427 177.488 31.096 177.19 31.096C176.95 31.096 176.736 31.064 176.55 31C176.368 30.936 176.232 30.8747 176.142 30.816V32.48H175.398V26.968C175.574 26.9253 175.792 26.88 176.054 26.832C176.32 26.7787 176.627 26.752 176.974 26.752C177.294 26.752 177.582 26.8027 177.838 26.904C178.094 27.0053 178.312 27.1493 178.494 27.336C178.675 27.5227 178.814 27.752 178.91 28.024C179.011 28.2907 179.062 28.592 179.062 28.928ZM182.685 27.464H180.853V31H180.109V26.84H182.685V27.464ZM186.949 26.84V31H186.229V27.832C186.069 28.0347 185.893 28.272 185.701 28.544C185.509 28.816 185.317 29.0987 185.125 29.392C184.933 29.68 184.749 29.9653 184.573 30.248C184.397 30.5307 184.245 30.7813 184.117 31H183.453V26.84H184.173V29.832C184.311 29.6027 184.469 29.352 184.645 29.08C184.821 28.8027 185.002 28.5307 185.189 28.264C185.381 27.992 185.57 27.7333 185.757 27.488C185.949 27.2373 186.127 27.0213 186.293 26.84H186.949ZM188.698 26.84V28.064C188.698 28.3787 188.778 28.6 188.938 28.728C189.098 28.8507 189.317 28.912 189.594 28.912C189.797 28.912 189.965 28.9013 190.098 28.88C190.237 28.8587 190.359 28.8347 190.466 28.808V26.84H191.21V31H190.466V29.384C190.423 29.3947 190.367 29.408 190.298 29.424C190.229 29.44 190.149 29.456 190.058 29.472C189.973 29.4827 189.882 29.4933 189.786 29.504C189.69 29.5147 189.597 29.52 189.506 29.52C189.277 29.52 189.066 29.496 188.874 29.448C188.687 29.4 188.525 29.32 188.386 29.208C188.253 29.096 188.146 28.9493 188.066 28.768C187.991 28.5813 187.954 28.3493 187.954 28.072V26.84H188.698ZM192.26 28.928C192.26 28.56 192.313 28.24 192.42 27.968C192.526 27.6907 192.668 27.4613 192.844 27.28C193.02 27.0987 193.222 26.9627 193.452 26.872C193.681 26.7813 193.916 26.736 194.156 26.736C194.716 26.736 195.145 26.912 195.444 27.264C195.742 27.6107 195.892 28.1413 195.892 28.856C195.892 28.888 195.892 28.9307 195.892 28.984C195.892 29.032 195.889 29.0773 195.884 29.12H193.036C193.068 29.552 193.193 29.88 193.412 30.104C193.63 30.328 193.972 30.44 194.436 30.44C194.697 30.44 194.916 30.4187 195.092 30.376C195.273 30.328 195.409 30.2827 195.5 30.24L195.604 30.864C195.513 30.912 195.353 30.9627 195.124 31.016C194.9 31.0693 194.644 31.096 194.356 31.096C193.993 31.096 193.678 31.0427 193.412 30.936C193.15 30.824 192.934 30.672 192.764 30.48C192.593 30.288 192.465 30.0613 192.38 29.8C192.3 29.5333 192.26 29.2427 192.26 28.928ZM195.116 28.52C195.121 28.184 195.036 27.9093 194.86 27.696C194.689 27.4773 194.452 27.368 194.148 27.368C193.977 27.368 193.825 27.4027 193.692 27.472C193.564 27.536 193.454 27.6213 193.364 27.728C193.273 27.8347 193.201 27.9573 193.148 28.096C193.1 28.2347 193.068 28.376 193.052 28.52H195.116ZM198.768 31.096C198.432 31.096 198.136 31.0427 197.88 30.936C197.63 30.8293 197.416 30.68 197.24 30.488C197.07 30.296 196.942 30.0693 196.856 29.808C196.771 29.5413 196.728 29.248 196.728 28.928C196.728 28.608 196.774 28.3147 196.864 28.048C196.96 27.7813 197.094 27.552 197.264 27.36C197.435 27.1627 197.643 27.0107 197.888 26.904C198.139 26.792 198.416 26.736 198.72 26.736C198.907 26.736 199.094 26.752 199.28 26.784C199.467 26.816 199.646 26.8667 199.816 26.936L199.648 27.568C199.536 27.5147 199.406 27.472 199.256 27.44C199.112 27.408 198.958 27.392 198.792 27.392C198.376 27.392 198.056 27.5227 197.832 27.784C197.614 28.0453 197.504 28.4267 197.504 28.928C197.504 29.152 197.528 29.3573 197.576 29.544C197.63 29.7307 197.71 29.8907 197.816 30.024C197.928 30.1573 198.07 30.2613 198.24 30.336C198.411 30.4053 198.619 30.44 198.864 30.44C199.062 30.44 199.24 30.4213 199.4 30.384C199.56 30.3467 199.686 30.3067 199.776 30.264L199.88 30.888C199.838 30.9147 199.776 30.9413 199.696 30.968C199.616 30.9893 199.526 31.008 199.424 31.024C199.323 31.0453 199.214 31.0613 199.096 31.072C198.984 31.088 198.875 31.096 198.768 31.096ZM202.199 28.736C202.364 28.8533 202.543 29.0027 202.735 29.184C202.927 29.36 203.114 29.552 203.295 29.76C203.482 29.968 203.655 30.1813 203.815 30.4C203.975 30.6133 204.111 30.8133 204.223 31H203.343C203.226 30.8187 203.087 30.6347 202.927 30.448C202.772 30.256 202.61 30.072 202.439 29.896C202.268 29.72 202.095 29.5573 201.919 29.408C201.743 29.2587 201.578 29.1333 201.423 29.032V31H200.679V26.84H201.423V28.624C201.551 28.5013 201.698 28.36 201.863 28.2C202.028 28.0347 202.194 27.8693 202.359 27.704C202.53 27.5333 202.687 27.3733 202.831 27.224C202.975 27.0693 203.092 26.9413 203.183 26.84H204.047C203.93 26.968 203.791 27.1147 203.631 27.28C203.476 27.44 203.314 27.6053 203.143 27.776C202.978 27.9467 202.812 28.1173 202.647 28.288C202.482 28.4533 202.332 28.6027 202.199 28.736ZM208.414 28.92C208.414 29.2507 208.366 29.5493 208.27 29.816C208.174 30.0827 208.038 30.312 207.862 30.504C207.691 30.696 207.486 30.8453 207.246 30.952C207.006 31.0533 206.744 31.104 206.462 31.104C206.179 31.104 205.918 31.0533 205.678 30.952C205.438 30.8453 205.23 30.696 205.054 30.504C204.883 30.312 204.75 30.0827 204.654 29.816C204.558 29.5493 204.51 29.2507 204.51 28.92C204.51 28.5947 204.558 28.2987 204.654 28.032C204.75 27.76 204.883 27.528 205.054 27.336C205.23 27.144 205.438 26.9973 205.678 26.896C205.918 26.7893 206.179 26.736 206.462 26.736C206.744 26.736 207.006 26.7893 207.246 26.896C207.486 26.9973 207.691 27.144 207.862 27.336C208.038 27.528 208.174 27.76 208.27 28.032C208.366 28.2987 208.414 28.5947 208.414 28.92ZM207.638 28.92C207.638 28.4507 207.531 28.08 207.318 27.808C207.11 27.5307 206.824 27.392 206.462 27.392C206.099 27.392 205.811 27.5307 205.598 27.808C205.39 28.08 205.286 28.4507 205.286 28.92C205.286 29.3893 205.39 29.7627 205.598 30.04C205.811 30.312 206.099 30.448 206.462 30.448C206.824 30.448 207.11 30.312 207.318 30.04C207.531 29.7627 207.638 29.3893 207.638 28.92ZM212.956 26.84V31H212.236V27.832C212.076 28.0347 211.9 28.272 211.708 28.544C211.516 28.816 211.324 29.0987 211.132 29.392C210.94 29.68 210.756 29.9653 210.58 30.248C210.404 30.5307 210.252 30.7813 210.124 31H209.46V26.84H210.18V29.832C210.319 29.6027 210.476 29.352 210.652 29.08C210.828 28.8027 211.01 28.5307 211.196 28.264C211.388 27.992 211.578 27.7333 211.764 27.488C211.956 27.2373 212.135 27.0213 212.3 26.84H212.956ZM211.212 26.168C210.876 26.168 210.602 26.0827 210.388 25.912C210.18 25.7413 210.055 25.504 210.012 25.2L210.58 25.048C210.623 25.2187 210.695 25.3573 210.796 25.464C210.898 25.5707 211.036 25.624 211.212 25.624C211.388 25.624 211.527 25.5707 211.628 25.464C211.73 25.3573 211.802 25.2187 211.844 25.048L212.404 25.2C212.362 25.504 212.236 25.7413 212.028 25.912C211.82 26.0827 211.548 26.168 211.212 26.168ZM84.528 37.928C84.528 37.4427 84.408 37.0693 84.168 36.808C83.928 36.5467 83.608 36.416 83.208 36.416C82.984 36.416 82.808 36.424 82.68 36.44C82.5573 36.456 82.4587 36.4747 82.384 36.496V39.12C82.4747 39.1947 82.6053 39.2667 82.776 39.336C82.9467 39.4053 83.1333 39.44 83.336 39.44C83.5493 39.44 83.7307 39.4027 83.88 39.328C84.0347 39.248 84.16 39.1413 84.256 39.008C84.352 38.8693 84.4213 38.7093 84.464 38.528C84.5067 38.3413 84.528 38.1413 84.528 37.928ZM85.304 37.928C85.304 38.2427 85.2613 38.5333 85.176 38.8C85.096 39.0667 84.976 39.296 84.816 39.488C84.656 39.68 84.4587 39.8293 84.224 39.936C83.9947 40.0427 83.7307 40.096 83.432 40.096C83.192 40.096 82.9787 40.064 82.792 40C82.6107 39.936 82.4747 39.8747 82.384 39.816V41.48H81.64V35.968C81.816 35.9253 82.0347 35.88 82.296 35.832C82.5627 35.7787 82.8693 35.752 83.216 35.752C83.536 35.752 83.824 35.8027 84.08 35.904C84.336 36.0053 84.5547 36.1493 84.736 36.336C84.9173 36.5227 85.056 36.752 85.152 37.024C85.2533 37.2907 85.304 37.592 85.304 37.928ZM85.7536 40.776C85.8122 40.8027 85.8869 40.8267 85.9776 40.848C86.0736 40.8747 86.1669 40.888 86.2576 40.888C86.5509 40.888 86.7802 40.8213 86.9456 40.688C87.1109 40.56 87.2602 40.3493 87.3936 40.056C87.0576 39.416 86.7429 38.7387 86.4496 38.024C86.1616 37.304 85.9216 36.576 85.7296 35.84H86.5296C86.5882 36.08 86.6576 36.3387 86.7376 36.616C86.8229 36.8933 86.9162 37.1787 87.0176 37.472C87.1189 37.7653 87.2282 38.0587 87.3456 38.352C87.4629 38.6453 87.5856 38.928 87.7136 39.2C87.9162 38.64 88.0922 38.0853 88.2416 37.536C88.3909 36.9867 88.5322 36.4213 88.6656 35.84H89.4336C89.2416 36.624 89.0282 37.3787 88.7936 38.104C88.5589 38.824 88.3056 39.4987 88.0336 40.128C87.9269 40.368 87.8149 40.5733 87.6976 40.744C87.5856 40.92 87.4602 41.064 87.3216 41.176C87.1829 41.288 87.0256 41.3707 86.8496 41.424C86.6789 41.4773 86.4842 41.504 86.2656 41.504C86.2069 41.504 86.1456 41.4987 86.0816 41.488C86.0176 41.4827 85.9536 41.472 85.8896 41.456C85.8309 41.4453 85.7749 41.432 85.7216 41.416C85.6736 41.4 85.6389 41.3867 85.6176 41.376L85.7536 40.776ZM90.6901 35.84V37.064C90.6901 37.3787 90.7701 37.6 90.9301 37.728C91.0901 37.8507 91.3088 37.912 91.5861 37.912C91.7888 37.912 91.9568 37.9013 92.0901 37.88C92.2288 37.8587 92.3515 37.8347 92.4581 37.808V35.84H93.2021V40H92.4581V38.384C92.4155 38.3947 92.3595 38.408 92.2901 38.424C92.2208 38.44 92.1408 38.456 92.0501 38.472C91.9648 38.4827 91.8741 38.4933 91.7781 38.504C91.6821 38.5147 91.5888 38.52 91.4981 38.52C91.2688 38.52 91.0581 38.496 90.8661 38.448C90.6795 38.4 90.5168 38.32 90.3781 38.208C90.2448 38.096 90.1381 37.9493 90.0581 37.768C89.9835 37.5813 89.9461 37.3493 89.9461 37.072V35.84H90.6901ZM96.0038 37.736C96.1691 37.8533 96.3478 38.0027 96.5398 38.184C96.7318 38.36 96.9184 38.552 97.0998 38.76C97.2864 38.968 97.4598 39.1813 97.6198 39.4C97.7798 39.6133 97.9158 39.8133 98.0278 40H97.1478C97.0304 39.8187 96.8918 39.6347 96.7318 39.448C96.5771 39.256 96.4144 39.072 96.2438 38.896C96.0731 38.72 95.8998 38.5573 95.7238 38.408C95.5478 38.2587 95.3824 38.1333 95.2278 38.032V40H94.4838V35.84H95.2278V37.624C95.3558 37.5013 95.5024 37.36 95.6678 37.2C95.8331 37.0347 95.9984 36.8693 96.1638 36.704C96.3344 36.5333 96.4918 36.3733 96.6358 36.224C96.7798 36.0693 96.8971 35.9413 96.9878 35.84H97.8518C97.7344 35.968 97.5958 36.1147 97.4358 36.28C97.2811 36.44 97.1184 36.6053 96.9478 36.776C96.7824 36.9467 96.6171 37.1173 96.4518 37.288C96.2864 37.4533 96.1371 37.6027 96.0038 37.736ZM102.218 37.92C102.218 38.2507 102.17 38.5493 102.074 38.816C101.978 39.0827 101.842 39.312 101.666 39.504C101.496 39.696 101.29 39.8453 101.05 39.952C100.81 40.0533 100.549 40.104 100.266 40.104C99.9836 40.104 99.7223 40.0533 99.4823 39.952C99.2423 39.8453 99.0343 39.696 98.8583 39.504C98.6876 39.312 98.5543 39.0827 98.4583 38.816C98.3623 38.5493 98.3143 38.2507 98.3143 37.92C98.3143 37.5947 98.3623 37.2987 98.4583 37.032C98.5543 36.76 98.6876 36.528 98.8583 36.336C99.0343 36.144 99.2423 35.9973 99.4823 35.896C99.7223 35.7893 99.9836 35.736 100.266 35.736C100.549 35.736 100.81 35.7893 101.05 35.896C101.29 35.9973 101.496 36.144 101.666 36.336C101.842 36.528 101.978 36.76 102.074 37.032C102.17 37.2987 102.218 37.5947 102.218 37.92ZM101.442 37.92C101.442 37.4507 101.336 37.08 101.122 36.808C100.914 36.5307 100.629 36.392 100.266 36.392C99.9036 36.392 99.6156 36.5307 99.4023 36.808C99.1943 37.08 99.0903 37.4507 99.0903 37.92C99.0903 38.3893 99.1943 38.7627 99.4023 39.04C99.6156 39.312 99.9036 39.448 100.266 39.448C100.629 39.448 100.914 39.312 101.122 39.04C101.336 38.7627 101.442 38.3893 101.442 37.92ZM106.761 35.84V40H106.041V36.832C105.881 37.0347 105.705 37.272 105.513 37.544C105.321 37.816 105.129 38.0987 104.937 38.392C104.745 38.68 104.561 38.9653 104.385 39.248C104.209 39.5307 104.057 39.7813 103.929 40H103.265V35.84H103.985V38.832C104.124 38.6027 104.281 38.352 104.457 38.08C104.633 37.8027 104.814 37.5307 105.001 37.264C105.193 36.992 105.382 36.7333 105.569 36.488C105.761 36.2373 105.94 36.0213 106.105 35.84H106.761ZM105.017 35.168C104.681 35.168 104.406 35.0827 104.193 34.912C103.985 34.7413 103.86 34.504 103.817 34.2L104.385 34.048C104.428 34.2187 104.5 34.3573 104.601 34.464C104.702 34.5707 104.841 34.624 105.017 34.624C105.193 34.624 105.332 34.5707 105.433 34.464C105.534 34.3573 105.606 34.2187 105.649 34.048L106.209 34.2C106.166 34.504 106.041 34.7413 105.833 34.912C105.625 35.0827 105.353 35.168 105.017 35.168Z" fill="white"/>
<defs>
<linearGradient id="paint0_linear_699_596" x1="115" y1="0.000488281" x2="115" y2="58.0003" gradientUnits="userSpaceOnUse">
<stop stop-color="#101F52"/>
<stop offset="0.9999" stop-color="#101F52" stop-opacity="0.8125"/>
<stop offset="1" stop-color="#101F52" stop-opacity="0"/>
</linearGradient>
</defs>
</svg>
