<svg width="230" height="58" viewBox="0 0 230 58" fill="none" xmlns="http://www.w3.org/2000/svg">
<rect y="0.000488281" width="230" height="57.9998" rx="5" fill="url(#paint0_linear_699_597)"/>
<path d="M108.203 48.6508C92.5833 49.9501 74.7645 53.3013 71.8242 53.8663C71.5402 53.9209 71.2814 54.0339 71.0451 54.2005C69.404 55.3577 70.2227 57.9397 72.2309 57.9397H224.923C227.684 57.9397 229.923 55.7012 229.923 52.9397V46.623C229.923 43.5411 227.162 41.1929 224.12 41.6879L216.713 42.8932L193.124 45.0043L169.773 47.0941C169.614 47.1083 169.48 47.115 169.32 47.1142C166.162 47.0969 128.856 46.9327 108.203 48.6508Z" fill="#0F2458" fill-opacity="0.5"/>
<path d="M136.198 49.99C124.291 51.091 110.724 53.9133 108.258 54.4386C107.997 54.4942 107.754 54.6089 107.544 54.7734C106.219 55.8121 106.953 57.94 108.637 57.94H224.923C227.684 57.94 229.923 55.7014 229.923 52.94V49.2081C229.923 46.0904 227.101 43.7331 224.033 44.2879L219.751 45.0623L201.588 46.8691L183.689 48.6496C183.512 48.6672 183.353 48.6754 183.176 48.6744C180.238 48.6574 151.938 48.5347 136.198 49.99Z" fill="#0D2862" fill-opacity="0.5"/>
<path d="M120.572 12.4689C135.612 10.7725 152.712 6.47027 156.315 5.53836C156.774 5.41944 157.183 5.18651 157.526 4.8584C159.364 3.10101 158.12 -1.80105e-05 155.577 -1.80105e-05L5.06866 -1.80105e-05C2.30723 -1.80105e-05 0.0686604 2.23856 0.0686604 4.99998L0.0686604 16.8596C0.0686604 20.0552 3.02533 22.4307 6.1459 21.7422L13.1465 20.1976L36.4998 17.3638L59.5309 14.569C59.7454 14.543 59.9365 14.5307 60.1526 14.5322C63.821 14.5583 100.3 14.7555 120.572 12.4689Z" fill="#0F2458" fill-opacity="0.7"/>
<path d="M105.965 9.37271C119.373 8.07915 134.643 4.76999 137.505 4.13444C137.821 4.06429 138.11 3.92139 138.361 3.71655C139.885 2.47011 139.003 7.23182e-05 137.035 7.23182e-05L5.06819 7.23182e-05C2.30676 7.23182e-05 0.0681898 2.23865 0.0681898 5.00007L0.0681898 11.3192C0.0681898 14.4523 2.91667 16.8135 5.99542 16.2325L11.5608 15.1822L32.0834 13.0521L52.3297 10.9506C52.5137 10.9315 52.6762 10.9225 52.8613 10.9236C56.0399 10.943 88.1352 11.0929 105.965 9.37271Z" fill="#0D2862" fill-opacity="0.7"/>
<path d="M42.4243 12.8771C42.0737 12.4697 41.7232 12.0623 41.243 11.674C40.7628 11.2856 40.1529 10.9162 39.4287 10.5664C38.7043 10.2165 37.8655 9.88622 36.683 9.62233C35.5005 9.35843 33.9745 9.16079 32.6345 9.06495C31.2947 8.96875 30.1411 8.97425 29.0512 9.11628C27.9613 9.25812 26.9352 9.53648 26.0356 9.89061C25.1357 10.2445 24.3625 10.6744 23.6998 11.2027C23.0371 11.731 22.4848 12.358 22.0006 12.9955C21.5162 13.6328 21.1 14.2807 20.8528 14.8636C20.6055 15.4465 20.5274 15.9646 20.5429 16.4071C20.5583 16.8495 20.6675 17.2166 20.8895 17.6114C21.1114 18.0061 21.4463 18.4286 21.8894 18.7921C22.3325 19.1554 22.8838 19.4594 23.5588 19.6969C24.2337 19.9345 25.0324 20.1057 25.8576 20.1594C26.6829 20.2129 27.535 20.1491 28.2676 20.0258C29.0002 19.9024 29.6134 19.7196 30.1443 19.5021C30.6751 19.2847 31.1237 19.0327 31.5064 18.7072C31.8892 18.3817 32.2062 17.9829 32.3994 17.6506C32.5926 17.3182 32.6623 17.0523 32.7266 16.4943C32.7908 15.9365 32.8497 15.0862 32.9086 14.236" stroke="white" stroke-width="0.216"/>
<path d="M25.4512 16.6642C25.9692 16.1463 26.4875 15.6285 27.2982 15.2161C28.1087 14.8035 29.2117 14.4963 30.3322 14.3476C31.4528 14.1989 32.5906 14.2087 33.7326 14.3211C34.8747 14.4335 36.0208 14.6489 36.9103 14.8234C37.7999 14.9977 38.4328 15.1312 39.0154 15.1838C39.5979 15.2366 40.1299 15.2086 40.6423 15.093C41.1546 14.9775 41.647 14.7744 41.9583 14.5411C42.2697 14.3077 42.4 14.0441 42.4474 13.7618C42.4948 13.4794 42.4594 13.1782 42.4417 13.0275C42.424 12.877 42.424 12.877 42.2962 13.0696C42.1683 13.2622 41.9125 13.6476 41.5016 13.909C41.0906 14.1702 40.5245 14.3075 39.493 14.2937C38.4615 14.2799 36.9644 14.1151 35.7179 13.9513C34.4714 13.7877 33.4752 13.6252 32.5522 13.5444C31.6292 13.4634 30.7792 13.4641 29.8874 13.5818C28.9957 13.6992 28.0621 13.9337 27.3503 14.113C26.6386 14.2924 26.1488 14.4167 25.659 14.5409" stroke="white" stroke-width="0.216"/>
<path d="M31.5508 15.3392C31.7088 15.3765 31.8641 15.5004 31.9696 15.6384C32.0749 15.7764 32.1304 15.9283 32.1477 16.0948C32.1648 16.2612 32.1435 16.4419 32.0843 16.6252C32.025 16.8086 31.9277 16.9942 31.7997 17.191C31.6717 17.3876 31.513 17.5949 31.3448 17.7465C31.1765 17.8983 30.9987 17.9944 30.8431 18.0006C30.6872 18.0067 30.5534 17.9229 30.4436 17.8046C30.3338 17.6862 30.2478 17.5331 30.2244 17.3271C30.201 17.121 30.24 16.862 30.3324 16.5971C30.4248 16.3321 30.5705 16.0612 30.7024 15.8608C30.8343 15.6604 30.9524 15.5304 31.0921 15.4409C31.2318 15.3512 31.3927 15.3019 31.5508 15.3392Z" stroke="white" stroke-width="0.216"/>
<path d="M27.0769 16.3921C27.0568 16.9911 27.0367 17.5902 27.0247 18.1738C27.0127 18.7573 27.0088 19.3254 27.0049 19.8935" stroke="white" stroke-width="0.216"/>
<path d="M20.8892 17.6118C20.8813 18.2981 20.8734 18.9841 20.8683 22.0737C20.8633 25.1633 20.861 30.6559 20.8576 33.4652C20.8544 36.2746 20.8502 36.4007 20.9567 36.6176C21.0632 36.8345 21.2805 37.1423 21.6808 37.4252C22.081 37.708 22.6643 37.9661 23.2642 38.1773C23.8641 38.3884 24.481 38.553 25.1232 38.6316C25.7656 38.71 26.4337 38.7028 27.0811 38.6316C27.7284 38.5603 28.3551 38.4253 28.9391 38.2098C29.5231 37.9941 30.0641 37.6981 30.4526 37.4282C30.8411 37.1581 31.077 36.9143 31.2281 36.7067C31.3792 36.499 31.4457 36.3277 31.4729 36.1945C31.5001 36.0615 31.4881 35.9664 31.4822 35.9188C31.4762 35.8712 31.4762 35.8712 31.4762 35.8712" stroke="white" stroke-width="0.216"/>
<path d="M31.7342 18.4976C31.6792 22.4589 31.6242 26.4201 31.5693 30.3815" stroke="white" stroke-width="0.216"/>
<path d="M20.874 19.8423C21.3729 20.2135 21.8718 20.5846 22.4139 20.8677C22.9561 21.1508 23.5414 21.3457 24.219 21.5044C24.8966 21.6632 25.6664 21.7859 26.3943 21.8044C27.1222 21.823 27.8079 21.7374 28.4426 21.5947C29.0772 21.452 29.6605 21.2523 30.1081 21.0317C30.5556 20.8111 30.8672 20.57 31.1125 20.3736C31.3577 20.1772 31.5365 20.0257 31.7154 19.8743" stroke="white" stroke-width="0.216"/>
<path d="M20.8623 28.4751C21.044 28.7508 21.2259 29.0265 21.5166 29.3135C21.8073 29.6007 22.2072 29.8994 22.6696 30.137C23.1321 30.3749 23.6573 30.5518 24.2297 30.6832C24.8018 30.8143 25.4212 30.9 26.0508 30.9071C26.6804 30.9141 27.3202 30.8428 27.9392 30.7152C28.558 30.5877 29.1561 30.4042 29.6569 30.1777C30.1578 29.9514 30.5614 29.6818 30.8683 29.4009C31.1752 29.1197 31.3853 28.8272 31.5955 28.5345" stroke="white" stroke-width="0.216"/>
<path d="M32.3073 35.522C32.3055 36.027 32.3038 36.5322 32.2536 36.9011C32.2031 37.2703 32.1042 37.5035 31.789 37.8551C31.4735 38.2066 30.9418 38.6765 30.3147 39.0485C29.6875 39.4201 28.9651 39.6939 28.216 39.8561C27.4668 40.0183 26.6912 40.0691 25.9032 40.0325C25.1153 39.996 24.3151 39.8723 23.6976 39.7315C23.08 39.5906 22.6453 39.4328 22.2421 39.2366C21.839 39.0405 21.4674 38.806 21.1435 38.5101C20.8195 38.2142 20.5432 37.8571 20.3502 37.5028C20.1572 37.1485 20.0476 36.7972 20.0128 36.4803C19.9778 36.1634 20.0176 35.8806 20.0952 35.6074C20.1726 35.3338 20.2877 35.0697 20.421 34.8687C20.554 34.6677 20.7053 34.5296 20.8566 34.3916" stroke="white" stroke-width="0.216"/>
<path d="M26.6514 37.187C26.8994 37.2591 27.1474 37.3313 27.6051 37.259C28.0627 37.187 28.7303 36.9705 29.2512 36.7646C29.7723 36.5585 30.1469 36.363 30.8699 36.0755C31.5929 35.788 32.6641 35.4087 33.1997 35.219C33.7354 35.0293 33.7354 35.0293 33.7354 35.0293" stroke="white" stroke-width="0.216"/>
<path d="M32.0308 35.6379C31.9862 35.8271 31.9415 36.0165 31.7916 36.294C31.6418 36.5715 31.3866 36.937 31.0916 37.248C30.7967 37.5589 30.4617 37.815 29.9929 38.0506C29.524 38.286 28.9211 38.501 28.3224 38.647C27.7237 38.7929 27.1293 38.8699 26.5593 38.8946C25.9893 38.9192 25.444 38.8915 24.84 38.7985C24.2361 38.7055 23.5736 38.5475 23.0427 38.3703C22.5118 38.1931 22.1124 37.9971 21.7582 37.7574C21.4039 37.5177 21.0946 37.234 20.8709 36.9478C20.6472 36.6616 20.509 36.3723 20.4171 36.1145C20.3252 35.8566 20.2797 35.6301 20.2658 35.4667C20.2518 35.3033 20.2695 35.2029 20.2872 35.1025" stroke="white" stroke-width="0.216"/>
<path d="M41.2561 26.9692C38.0271 28.1067 34.7979 29.2444 32.96 29.8562C31.1221 30.4682 30.6754 30.5545 30.325 30.6523C29.9746 30.7501 29.7206 30.8593 29.3476 31.1179C28.9748 31.3767 28.4829 31.7852 28.0345 32.258C27.5861 32.7311 27.1811 33.2687 26.8696 33.7311C26.5582 34.1932 26.3403 34.5799 26.2153 34.9147C26.0902 35.2494 26.0579 35.5324 26.0852 35.849C26.1124 36.1658 26.1994 36.5161 26.3037 36.7448C26.4078 36.9735 26.5294 37.0805 26.6509 37.1875" stroke="white" stroke-width="0.216"/>
<path d="M33.7354 35.0294C40.3869 32.7535 47.0385 30.4777 50.6795 29.2209C54.3203 27.9643 54.9505 27.7266 55.6829 27.4967C56.4152 27.2668 57.2499 27.0446 58.0138 26.8909C58.7778 26.7371 59.4712 26.6518 60.1216 26.6043C60.7719 26.557 61.3793 26.5475 62.1137 26.5978C62.848 26.6481 63.7094 26.7584 64.4296 26.891C65.1498 27.0238 65.729 27.179 66.0237 27.3278C66.3184 27.4767 66.3288 27.619 66.3307 27.7887C66.3326 27.9584 66.3259 28.1554 66.3597 28.2792C66.3936 28.4026 66.4678 28.4527 66.5936 28.548C66.7194 28.6433 66.8967 28.7839 67.0676 28.8928C67.2384 29.0015 67.4029 29.0785 67.8336 29.1337C68.2641 29.1888 68.9611 29.2219 69.603 29.2019C70.2449 29.1817 70.8316 29.1084 71.355 29.0051C71.8782 28.9017 72.3379 28.7686 72.853 28.5701C73.368 28.3718 73.9384 28.1084 74.3064 27.885C74.6742 27.6616 74.8398 27.4782 74.9235 27.3591C75.0071 27.2397 75.009 27.1846 74.9904 26.6078C74.9719 26.031 74.9328 24.9326 74.8661 24.3225C74.7994 23.7124 74.7048 23.5906 74.5121 23.4535C74.3194 23.3161 74.0286 23.1635 73.3218 22.8578C72.615 22.5518 71.4922 22.0927 70.4535 21.7276C69.4148 21.3624 68.4602 21.091 67.59 20.9055C66.7198 20.72 65.9339 20.6204 65.0975 20.5624C64.2609 20.5043 63.3736 20.488 62.5227 20.5202C61.6717 20.5525 60.857 20.6334 60.1246 20.7526C59.3921 20.8721 58.7419 21.03 55.6109 22.0725C52.4799 23.1149 46.8682 25.0419 44.0625 26.0054C41.2565 26.9688 41.2565 26.9688 41.2565 26.9688" stroke="white" stroke-width="0.216"/>
<path d="M74.4266 27.8091C74.4968 28.3515 74.5671 28.8941 74.5892 29.212C74.6114 29.5301 74.5855 29.624 74.4553 29.7732C74.325 29.9223 74.0906 30.1268 73.7423 30.3311C73.394 30.5356 72.9317 30.7398 72.3686 30.9009C71.8055 31.062 71.1413 31.1799 70.6417 31.2563C70.1422 31.3329 69.807 31.3681 69.3903 31.353C68.9733 31.3379 68.4748 31.2724 68.1101 31.1763C67.7452 31.0801 67.5141 30.9534 67.4007 30.8308C67.2872 30.7084 67.2912 30.5901 67.2553 30.2679C67.2192 29.9457 67.1434 29.4195 67.0674 28.8932" stroke="white" stroke-width="0.216"/>
<path d="M69.7721 31.3522C69.7291 31.0318 69.6859 30.7116 69.6763 30.536C69.6666 30.3605 69.6903 30.3298 70.1752 30.241C70.6599 30.1521 71.6059 30.0048 72.0858 29.9512C72.5656 29.8976 72.5794 29.9375 72.6008 30.0954C72.622 30.253 72.6508 30.5287 72.6796 30.8041" stroke="white" stroke-width="0.216"/>
<path d="M74.719 23.6753C73.9419 23.9742 73.1649 24.273 72.5112 24.6338C71.8576 24.9947 71.3275 25.4173 70.9816 25.89C70.6355 26.3629 70.4738 26.8858 70.4265 27.3892C70.3793 27.8926 70.4465 28.3763 70.4749 28.6649C70.5033 28.9533 70.4931 29.0462 70.4827 29.1394" stroke="white" stroke-width="0.216"/>
<path d="M71.9717 24.7698C71.1281 24.8102 70.2843 24.8505 69.2521 24.746C68.2198 24.6416 66.9989 24.3919 65.8349 24.1445C64.6708 23.897 63.5637 23.6516 62.6817 23.4775C61.7997 23.3036 61.1429 23.2007 60.2628 23.1964C59.3828 23.192 58.2793 23.286 57.0007 23.5159C55.7219 23.7456 54.2678 24.1111 50.637 25.3524C47.0062 26.5937 41.1984 28.7108 37.0486 30.2648C32.8988 31.8188 30.4069 32.8095 28.9468 33.4745C27.4864 34.1396 27.0576 34.4792 26.6289 34.8189" stroke="white" stroke-width="0.216"/>
<path d="M26.3634 46.438C29.1654 46.438 31.4369 47.4712 31.4369 48.7459C31.4369 50.0205 29.1654 51.0539 26.3634 51.0539C23.5614 51.0539 21.29 50.0205 21.29 48.7459C21.29 47.4712 23.5614 46.438 26.3634 46.438Z" stroke="white" stroke-width="0.216"/>
<path d="M26.3625 47.1821C28.2605 47.1821 29.7993 47.8822 29.7993 48.7456C29.7993 49.6091 28.2605 50.3089 26.3625 50.3089C24.4645 50.3089 22.9258 49.6091 22.9258 48.7456C22.9258 47.8822 24.4645 47.1821 26.3625 47.1821Z" stroke="white" stroke-width="0.216"/>
<path d="M23.4043 49.5418C23.1078 49.3771 22.9375 49.1852 22.9375 48.9801C22.9375 48.3675 24.4545 47.8711 26.3259 47.8711C28.1317 47.8711 29.6074 48.3334 29.7088 48.9158" stroke="white" stroke-width="0.216"/>
<path d="M30.5263 50.0653C30.6056 50.1844 30.6477 50.3089 30.6477 50.4366C30.6477 51.3002 28.7341 52.0002 26.3737 52.0002C24.0132 52.0002 22.0996 51.3002 22.0996 50.4366C22.0996 50.3121 22.1394 50.191 22.2145 50.0749M23.1841 49.396C23.1964 49.3909 23.209 49.3858 23.2214 49.3809" stroke="white" stroke-width="0.216"/>
<path d="M21.9131 49.8555L22.1635 50.86" stroke="white" stroke-width="0.216"/>
<path d="M30.773 49.9346L30.5225 50.9391" stroke="white" stroke-width="0.216"/>
<path d="M24.5732 50.9062L24.6956 51.8751" stroke="white" stroke-width="0.216"/>
<path d="M28.3851 50.9102L28.2627 51.879" stroke="white" stroke-width="0.216"/>
<path d="M21.4204 38.5542C21.4137 40.7068 21.4137 42.7001 21.4512 43.7786C21.4616 44.0773 21.4749 44.3059 21.4933 44.4821M29.6909 45.3129C29.9939 45.1269 30.2586 44.9234 30.4356 44.7354C30.668 44.4891 30.7499 44.2686 30.791 44.1587C30.8319 44.0484 30.8319 44.0484 30.8351 42.9431C30.8375 42.0654 30.8418 40.4906 30.8467 38.7722" stroke="white" stroke-width="0.216"/>
<path d="M30.7884 44.1661C30.8125 44.2281 30.8246 44.2912 30.824 44.3551C30.817 45.1784 28.712 45.8263 26.1227 45.802C23.5335 45.7777 21.4401 45.0907 21.4473 44.2674C21.4476 44.2223 21.4545 44.1777 21.4671 44.1338" stroke="white" stroke-width="0.216"/>
<path d="M30.8206 40.2864C30.6788 41.0699 28.629 41.674 26.1271 41.6504C23.6253 41.627 21.5863 40.9849 21.458 40.1987" stroke="white" stroke-width="0.216"/>
<path d="M30.7747 38.6003C30.6328 39.3839 28.5831 39.9879 26.0812 39.9647C23.5793 39.9413 21.5403 39.299 21.4121 38.5127" stroke="white" stroke-width="0.216"/>
<path d="M30.7689 39.3043C30.6271 40.0879 28.5773 40.692 26.0754 40.6685C23.5735 40.6451 21.5346 40.0028 21.4062 39.2168" stroke="white" stroke-width="0.216"/>
<path d="M30.7631 40.0089C30.6212 40.7923 28.5714 41.3964 26.0696 41.373C23.5677 41.3497 21.5287 40.7073 21.4004 39.9214" stroke="white" stroke-width="0.216"/>
<path d="M30.7571 40.7121C30.6153 41.4957 28.5655 42.0998 26.0636 42.0765C23.5617 42.0531 21.5227 41.4108 21.3945 40.6245" stroke="white" stroke-width="0.216"/>
<path d="M30.7503 41.4162C30.6085 42.1999 28.5587 42.804 26.0568 42.7806C23.555 42.7571 21.516 42.1149 21.3877 41.3286" stroke="white" stroke-width="0.216"/>
<path d="M30.7445 42.1208C30.6027 42.9043 28.5528 43.5082 26.051 43.4848C23.5491 43.4616 21.5101 42.8191 21.3818 42.0332" stroke="white" stroke-width="0.216"/>
<path d="M30.7386 42.8244C30.5967 43.6078 28.547 44.2119 26.0452 44.1885C23.5433 44.1652 21.5043 43.5228 21.376 42.7368" stroke="white" stroke-width="0.216"/>
<path d="M30.7318 43.528C30.5899 44.3116 28.5402 44.9157 26.0383 44.8923C23.5364 44.8689 21.4974 44.2266 21.3691 43.4404" stroke="white" stroke-width="0.216"/>
<path d="M93.072 28.12C92.6827 28.12 92.328 28.056 92.008 27.928C91.688 27.8 91.4133 27.6133 91.184 27.368C90.9547 27.1227 90.776 26.8213 90.648 26.464C90.5253 26.1013 90.464 25.688 90.464 25.224C90.464 24.76 90.5333 24.3493 90.672 23.992C90.816 23.6293 91.008 23.3253 91.248 23.08C91.488 22.8347 91.768 22.648 92.088 22.52C92.408 22.392 92.7493 22.328 93.112 22.328C93.3413 22.328 93.5467 22.344 93.728 22.376C93.9147 22.408 94.0747 22.4453 94.208 22.488C94.3467 22.5307 94.4587 22.5733 94.544 22.616C94.6293 22.6587 94.688 22.6907 94.72 22.712L94.496 23.352C94.448 23.32 94.3787 23.2853 94.288 23.248C94.1973 23.2107 94.0933 23.1733 93.976 23.136C93.864 23.0987 93.7387 23.0693 93.6 23.048C93.4667 23.0213 93.3307 23.008 93.192 23.008C92.8987 23.008 92.6347 23.0587 92.4 23.16C92.1653 23.2613 91.9653 23.408 91.8 23.6C91.6347 23.792 91.5067 24.0267 91.416 24.304C91.3307 24.576 91.288 24.8827 91.288 25.224C91.288 25.5547 91.3253 25.856 91.4 26.128C91.48 26.4 91.5973 26.6347 91.752 26.832C91.9067 27.024 92.0987 27.1733 92.328 27.28C92.5627 27.3867 92.8347 27.44 93.144 27.44C93.5013 27.44 93.7973 27.4027 94.032 27.328C94.2667 27.2533 94.4427 27.1867 94.56 27.128L94.76 27.768C94.7227 27.7947 94.656 27.8293 94.56 27.872C94.464 27.9093 94.344 27.9467 94.2 27.984C94.056 28.0213 93.888 28.0533 93.696 28.08C93.504 28.1067 93.296 28.12 93.072 28.12ZM96.3929 24.936C96.3396 25.464 96.2996 25.992 96.2729 26.52C96.2463 27.0427 96.2249 27.536 96.2089 28H95.4969C95.5076 27.6747 95.5236 27.336 95.5449 26.984C95.5663 26.6267 95.5903 26.2693 95.6169 25.912C95.6436 25.5493 95.6729 25.1947 95.7049 24.848C95.7369 24.496 95.7716 24.16 95.8089 23.84H96.4889C96.6596 24.1173 96.8596 24.4987 97.0889 24.984C97.3183 25.464 97.5823 26.0187 97.8809 26.648C98.1796 26.0187 98.4436 25.464 98.6729 24.984C98.9023 24.4987 99.1023 24.1173 99.2729 23.84H99.9609C99.9983 24.16 100.033 24.496 100.065 24.848C100.097 25.1947 100.126 25.5493 100.153 25.912C100.18 26.2693 100.204 26.6267 100.225 26.984C100.246 27.336 100.262 27.6747 100.273 28H99.5369C99.5209 27.536 99.4996 27.0427 99.4729 26.52C99.4463 25.992 99.4063 25.464 99.3529 24.936C99.2676 25.1013 99.1689 25.3013 99.0569 25.536C98.9449 25.7653 98.8329 26 98.7209 26.24C98.6143 26.48 98.5129 26.7093 98.4169 26.928C98.3209 27.1467 98.2463 27.32 98.1929 27.448H97.5689C97.5103 27.3147 97.4303 27.1387 97.3289 26.92C97.2329 26.7013 97.1289 26.472 97.0169 26.232C96.9103 25.9867 96.8009 25.7493 96.6889 25.52C96.5769 25.2853 96.4783 25.0907 96.3929 24.936ZM101.221 25.928C101.221 25.56 101.274 25.24 101.381 24.968C101.487 24.6907 101.629 24.4613 101.805 24.28C101.981 24.0987 102.183 23.9627 102.413 23.872C102.642 23.7813 102.877 23.736 103.117 23.736C103.677 23.736 104.106 23.912 104.405 24.264C104.703 24.6107 104.852 25.1413 104.852 25.856C104.852 25.888 104.852 25.9307 104.852 25.984C104.852 26.032 104.85 26.0773 104.845 26.12H101.997C102.029 26.552 102.154 26.88 102.373 27.104C102.591 27.328 102.933 27.44 103.397 27.44C103.658 27.44 103.877 27.4187 104.053 27.376C104.234 27.328 104.37 27.2827 104.461 27.24L104.565 27.864C104.474 27.912 104.314 27.9627 104.085 28.016C103.861 28.0693 103.605 28.096 103.317 28.096C102.954 28.096 102.639 28.0427 102.373 27.936C102.111 27.824 101.895 27.672 101.725 27.48C101.554 27.288 101.426 27.0613 101.34 26.8C101.261 26.5333 101.221 26.2427 101.221 25.928ZM104.077 25.52C104.082 25.184 103.997 24.9093 103.821 24.696C103.65 24.4773 103.413 24.368 103.109 24.368C102.938 24.368 102.786 24.4027 102.653 24.472C102.525 24.536 102.415 24.6213 102.325 24.728C102.234 24.8347 102.162 24.9573 102.109 25.096C102.061 25.2347 102.029 25.376 102.013 25.52H104.077ZM107.729 28.096C107.393 28.096 107.097 28.0427 106.841 27.936C106.591 27.8293 106.377 27.68 106.201 27.488C106.031 27.296 105.903 27.0693 105.817 26.808C105.732 26.5413 105.689 26.248 105.689 25.928C105.689 25.608 105.735 25.3147 105.825 25.048C105.921 24.7813 106.055 24.552 106.225 24.36C106.396 24.1627 106.604 24.0107 106.849 23.904C107.1 23.792 107.377 23.736 107.681 23.736C107.868 23.736 108.055 23.752 108.241 23.784C108.428 23.816 108.607 23.8667 108.777 23.936L108.609 24.568C108.497 24.5147 108.367 24.472 108.217 24.44C108.073 24.408 107.919 24.392 107.753 24.392C107.337 24.392 107.017 24.5227 106.793 24.784C106.575 25.0453 106.465 25.4267 106.465 25.928C106.465 26.152 106.489 26.3573 106.537 26.544C106.591 26.7307 106.671 26.8907 106.777 27.024C106.889 27.1573 107.031 27.2613 107.201 27.336C107.372 27.4053 107.58 27.44 107.825 27.44C108.023 27.44 108.201 27.4213 108.361 27.384C108.521 27.3467 108.647 27.3067 108.737 27.264L108.841 27.888C108.799 27.9147 108.737 27.9413 108.657 27.968C108.577 27.9893 108.487 28.008 108.385 28.024C108.284 28.0453 108.175 28.0613 108.057 28.072C107.945 28.088 107.836 28.096 107.729 28.096ZM113.136 23.84V28H112.416V24.832C112.256 25.0347 112.08 25.272 111.888 25.544C111.696 25.816 111.504 26.0987 111.312 26.392C111.12 26.68 110.936 26.9653 110.76 27.248C110.584 27.5307 110.432 27.7813 110.304 28H109.64V23.84H110.36V26.832C110.499 26.6027 110.656 26.352 110.832 26.08C111.008 25.8027 111.189 25.5307 111.376 25.264C111.568 24.992 111.757 24.7333 111.944 24.488C112.136 24.2373 112.315 24.0213 112.48 23.84H113.136ZM117.349 23.84V24.464H115.997V28H115.253V24.464H113.901V23.84H117.349ZM117.885 25.928C117.885 25.56 117.938 25.24 118.045 24.968C118.151 24.6907 118.293 24.4613 118.469 24.28C118.645 24.0987 118.847 23.9627 119.077 23.872C119.306 23.7813 119.541 23.736 119.781 23.736C120.341 23.736 120.77 23.912 121.069 24.264C121.367 24.6107 121.517 25.1413 121.517 25.856C121.517 25.888 121.517 25.9307 121.517 25.984C121.517 26.032 121.514 26.0773 121.509 26.12H118.661C118.693 26.552 118.818 26.88 119.037 27.104C119.255 27.328 119.597 27.44 120.061 27.44C120.322 27.44 120.541 27.4187 120.717 27.376C120.898 27.328 121.034 27.2827 121.125 27.24L121.229 27.864C121.138 27.912 120.978 27.9627 120.749 28.016C120.525 28.0693 120.269 28.096 119.981 28.096C119.618 28.096 119.303 28.0427 119.037 27.936C118.775 27.824 118.559 27.672 118.389 27.48C118.218 27.288 118.09 27.0613 118.005 26.8C117.925 26.5333 117.885 26.2427 117.885 25.928ZM120.741 25.52C120.746 25.184 120.661 24.9093 120.485 24.696C120.314 24.4773 120.077 24.368 119.773 24.368C119.602 24.368 119.45 24.4027 119.317 24.472C119.189 24.536 119.079 24.6213 118.989 24.728C118.898 24.8347 118.826 24.9573 118.773 25.096C118.725 25.2347 118.693 25.376 118.677 25.52H120.741ZM124.033 24.464C124.033 24.64 124.028 24.8293 124.017 25.032C124.012 25.2293 123.999 25.4293 123.977 25.632C123.956 25.8293 123.927 26.0267 123.889 26.224C123.852 26.416 123.804 26.5973 123.745 26.768C123.687 26.9387 123.612 27.0987 123.521 27.248C123.436 27.3973 123.329 27.5307 123.201 27.648C123.073 27.76 122.924 27.856 122.753 27.936C122.583 28.0107 122.383 28.0587 122.153 28.08L122.049 27.456C122.311 27.4027 122.516 27.304 122.665 27.16C122.82 27.016 122.943 26.84 123.033 26.632C123.113 26.4507 123.172 26.2453 123.209 26.016C123.247 25.7867 123.273 25.5493 123.289 25.304C123.305 25.0533 123.313 24.8027 123.313 24.552C123.319 24.3013 123.321 24.064 123.321 23.84H126.089V28H125.345V24.464H124.033ZM128.943 27.48C129.257 27.48 129.505 27.4187 129.687 27.296C129.868 27.1733 129.959 26.976 129.959 26.704C129.959 26.5707 129.932 26.456 129.879 26.36C129.825 26.264 129.751 26.1867 129.655 26.128C129.564 26.064 129.457 26.0187 129.335 25.992C129.212 25.96 129.081 25.944 128.943 25.944C128.799 25.944 128.649 25.9493 128.495 25.96C128.345 25.9653 128.217 25.9813 128.111 26.008V27.44C128.143 27.4453 128.191 27.4507 128.255 27.456C128.319 27.4613 128.388 27.4667 128.463 27.472C128.543 27.472 128.623 27.4747 128.703 27.48C128.788 27.48 128.868 27.48 128.943 27.48ZM127.367 27.912V23.84H128.111V25.432C128.153 25.4213 128.209 25.4107 128.279 25.4C128.353 25.3893 128.431 25.3787 128.511 25.368C128.596 25.3573 128.684 25.3493 128.775 25.344C128.865 25.3387 128.951 25.336 129.031 25.336C129.26 25.336 129.476 25.3627 129.679 25.416C129.881 25.464 130.057 25.544 130.207 25.656C130.361 25.7627 130.484 25.904 130.575 26.08C130.665 26.2507 130.711 26.456 130.711 26.696C130.711 26.9467 130.668 27.16 130.583 27.336C130.497 27.512 130.375 27.656 130.215 27.768C130.055 27.88 129.863 27.96 129.639 28.008C129.42 28.0613 129.175 28.088 128.903 28.088C128.636 28.088 128.375 28.072 128.119 28.04C127.863 28.0133 127.612 27.9707 127.367 27.912ZM132.933 27.392H133.381C133.557 27.136 133.695 26.872 133.797 26.6C133.903 26.328 133.983 26.048 134.037 25.76C134.09 25.4667 134.125 25.1627 134.141 24.848C134.157 24.528 134.167 24.192 134.173 23.84H136.901V27.392H137.461V29.16H136.757V28H133.637V29.16H132.933V27.392ZM136.157 27.392V24.464H134.853C134.847 24.7147 134.834 24.968 134.813 25.224C134.791 25.4747 134.757 25.7253 134.709 25.976C134.661 26.2213 134.591 26.464 134.501 26.704C134.415 26.9387 134.306 27.168 134.173 27.392H136.157ZM139.885 24.464C139.885 24.64 139.88 24.8293 139.869 25.032C139.864 25.2293 139.85 25.4293 139.829 25.632C139.808 25.8293 139.778 26.0267 139.741 26.224C139.704 26.416 139.656 26.5973 139.597 26.768C139.538 26.9387 139.464 27.0987 139.373 27.248C139.288 27.3973 139.181 27.5307 139.053 27.648C138.925 27.76 138.776 27.856 138.605 27.936C138.434 28.0107 138.234 28.0587 138.005 28.08L137.901 27.456C138.162 27.4027 138.368 27.304 138.517 27.16C138.672 27.016 138.794 26.84 138.885 26.632C138.965 26.4507 139.024 26.2453 139.061 26.016C139.098 25.7867 139.125 25.5493 139.141 25.304C139.157 25.0533 139.165 24.8027 139.165 24.552C139.17 24.3013 139.173 24.064 139.173 23.84H141.941V28H141.197V24.464H139.885ZM144.938 26.384C144.858 26.384 144.781 26.384 144.706 26.384C144.631 26.3787 144.559 26.3733 144.49 26.368C144.319 26.624 144.154 26.8987 143.994 27.192C143.839 27.48 143.701 27.7493 143.578 28H142.826C142.89 27.8453 142.965 27.688 143.05 27.528C143.135 27.3627 143.221 27.2027 143.306 27.048C143.397 26.8933 143.487 26.7467 143.578 26.608C143.669 26.4693 143.754 26.344 143.834 26.232C143.685 26.1787 143.562 26.1147 143.466 26.04C143.37 25.96 143.293 25.872 143.234 25.776C143.175 25.68 143.133 25.5787 143.106 25.472C143.085 25.36 143.074 25.248 143.074 25.136C143.074 24.9013 143.117 24.696 143.202 24.52C143.293 24.344 143.415 24.2 143.57 24.088C143.725 23.9707 143.906 23.8827 144.114 23.824C144.327 23.7653 144.559 23.736 144.81 23.736C145.162 23.736 145.461 23.752 145.706 23.784C145.951 23.816 146.157 23.8533 146.322 23.896V28H145.586V26.384H144.938ZM145.586 24.392C145.527 24.3813 145.429 24.3707 145.29 24.36C145.157 24.3493 145.002 24.344 144.826 24.344C144.522 24.344 144.277 24.408 144.09 24.536C143.903 24.6587 143.81 24.856 143.81 25.128C143.81 25.3947 143.906 25.5787 144.098 25.68C144.29 25.7813 144.538 25.832 144.842 25.832H145.586V24.392ZM150.973 25.736C151.138 25.8533 151.317 26.0027 151.509 26.184C151.701 26.36 151.887 26.552 152.069 26.76C152.255 26.968 152.429 27.1813 152.589 27.4C152.749 27.6133 152.885 27.8133 152.997 28H152.117C151.999 27.8187 151.861 27.6347 151.701 27.448C151.546 27.256 151.383 27.072 151.213 26.896C151.042 26.72 150.869 26.5573 150.693 26.408C150.517 26.2587 150.351 26.1333 150.197 26.032V28H149.453V23.84H150.197V25.624C150.325 25.5013 150.471 25.36 150.637 25.2C150.802 25.0347 150.967 24.8693 151.133 24.704C151.303 24.5333 151.461 24.3733 151.605 24.224C151.749 24.0693 151.866 23.9413 151.957 23.84H152.821C152.703 23.968 152.565 24.1147 152.405 24.28C152.25 24.44 152.087 24.6053 151.917 24.776C151.751 24.9467 151.586 25.1173 151.421 25.288C151.255 25.4533 151.106 25.6027 150.973 25.736ZM153.261 28.776C153.32 28.8027 153.395 28.8267 153.485 28.848C153.581 28.8747 153.675 28.888 153.765 28.888C154.059 28.888 154.288 28.8213 154.453 28.688C154.619 28.56 154.768 28.3493 154.901 28.056C154.565 27.416 154.251 26.7387 153.957 26.024C153.669 25.304 153.429 24.576 153.237 23.84H154.037C154.096 24.08 154.165 24.3387 154.245 24.616C154.331 24.8933 154.424 25.1787 154.525 25.472C154.627 25.7653 154.736 26.0587 154.853 26.352C154.971 26.6453 155.093 26.928 155.221 27.2C155.424 26.64 155.6 26.0853 155.749 25.536C155.899 24.9867 156.04 24.4213 156.173 23.84H156.941C156.749 24.624 156.536 25.3787 156.301 26.104C156.067 26.824 155.813 27.4987 155.541 28.128C155.435 28.368 155.323 28.5733 155.205 28.744C155.093 28.92 154.968 29.064 154.829 29.176C154.691 29.288 154.533 29.3707 154.357 29.424C154.187 29.4773 153.992 29.504 153.773 29.504C153.715 29.504 153.653 29.4987 153.589 29.488C153.525 29.4827 153.461 29.472 153.397 29.456C153.339 29.4453 153.283 29.432 153.229 29.416C153.181 29.4 153.147 29.3867 153.125 29.376L153.261 28.776ZM160.316 28C160.257 27.8827 160.185 27.752 160.1 27.608C160.014 27.464 159.921 27.3173 159.82 27.168C159.718 27.0133 159.614 26.8613 159.508 26.712C159.401 26.5627 159.297 26.4213 159.196 26.288C159.094 26.4213 158.99 26.5653 158.884 26.72C158.777 26.8693 158.673 27.0213 158.572 27.176C158.476 27.3253 158.385 27.472 158.3 27.616C158.214 27.76 158.142 27.888 158.084 28H157.316C157.502 27.6373 157.724 27.2693 157.98 26.896C158.241 26.5173 158.5 26.1573 158.756 25.816L157.38 23.84H158.22L159.212 25.296L160.212 23.84H161.004L159.66 25.768C159.916 26.1147 160.177 26.4827 160.444 26.872C160.716 27.256 160.945 27.632 161.132 28H160.316ZM165.414 25.92C165.414 26.2507 165.366 26.5493 165.27 26.816C165.174 27.0827 165.038 27.312 164.862 27.504C164.691 27.696 164.486 27.8453 164.246 27.952C164.006 28.0533 163.744 28.104 163.462 28.104C163.179 28.104 162.918 28.0533 162.678 27.952C162.438 27.8453 162.23 27.696 162.054 27.504C161.883 27.312 161.75 27.0827 161.654 26.816C161.558 26.5493 161.51 26.2507 161.51 25.92C161.51 25.5947 161.558 25.2987 161.654 25.032C161.75 24.76 161.883 24.528 162.054 24.336C162.23 24.144 162.438 23.9973 162.678 23.896C162.918 23.7893 163.179 23.736 163.462 23.736C163.744 23.736 164.006 23.7893 164.246 23.896C164.486 23.9973 164.691 24.144 164.862 24.336C165.038 24.528 165.174 24.76 165.27 25.032C165.366 25.2987 165.414 25.5947 165.414 25.92ZM164.638 25.92C164.638 25.4507 164.531 25.08 164.318 24.808C164.11 24.5307 163.824 24.392 163.462 24.392C163.099 24.392 162.811 24.5307 162.598 24.808C162.39 25.08 162.286 25.4507 162.286 25.92C162.286 26.3893 162.39 26.7627 162.598 27.04C162.811 27.312 163.099 27.448 163.462 27.448C163.824 27.448 164.11 27.312 164.318 27.04C164.531 26.7627 164.638 26.3893 164.638 25.92ZM169.868 28H169.124V26.16H167.204V28H166.46V23.84H167.204V25.536H169.124V23.84H169.868V28ZM174.556 28H173.812V26.16H171.892V28H171.148V23.84H171.892V25.536H173.812V23.84H174.556V28ZM179.507 25.92C179.507 26.2507 179.459 26.5493 179.363 26.816C179.267 27.0827 179.131 27.312 178.955 27.504C178.785 27.696 178.579 27.8453 178.339 27.952C178.099 28.0533 177.838 28.104 177.555 28.104C177.273 28.104 177.011 28.0533 176.771 27.952C176.531 27.8453 176.323 27.696 176.147 27.504C175.977 27.312 175.843 27.0827 175.747 26.816C175.651 26.5493 175.603 26.2507 175.603 25.92C175.603 25.5947 175.651 25.2987 175.747 25.032C175.843 24.76 175.977 24.528 176.147 24.336C176.323 24.144 176.531 23.9973 176.771 23.896C177.011 23.7893 177.273 23.736 177.555 23.736C177.838 23.736 178.099 23.7893 178.339 23.896C178.579 23.9973 178.785 24.144 178.955 24.336C179.131 24.528 179.267 24.76 179.363 25.032C179.459 25.2987 179.507 25.5947 179.507 25.92ZM178.731 25.92C178.731 25.4507 178.625 25.08 178.411 24.808C178.203 24.5307 177.918 24.392 177.555 24.392C177.193 24.392 176.905 24.5307 176.691 24.808C176.483 25.08 176.379 25.4507 176.379 25.92C176.379 26.3893 176.483 26.7627 176.691 27.04C176.905 27.312 177.193 27.448 177.555 27.448C177.918 27.448 178.203 27.312 178.411 27.04C178.625 26.7627 178.731 26.3893 178.731 25.92ZM184.05 23.84V28H183.33V24.832C183.17 25.0347 182.994 25.272 182.802 25.544C182.61 25.816 182.418 26.0987 182.226 26.392C182.034 26.68 181.85 26.9653 181.674 27.248C181.498 27.5307 181.346 27.7813 181.218 28H180.554V23.84H181.274V26.832C181.413 26.6027 181.57 26.352 181.746 26.08C181.922 25.8027 182.103 25.5307 182.29 25.264C182.482 24.992 182.671 24.7333 182.858 24.488C183.05 24.2373 183.229 24.0213 183.394 23.84H184.05ZM182.306 23.168C181.97 23.168 181.695 23.0827 181.482 22.912C181.274 22.7413 181.149 22.504 181.106 22.2L181.674 22.048C181.717 22.2187 181.789 22.3573 181.89 22.464C181.991 22.5707 182.13 22.624 182.306 22.624C182.482 22.624 182.621 22.5707 182.722 22.464C182.823 22.3573 182.895 22.2187 182.938 22.048L183.498 22.2C183.455 22.504 183.33 22.7413 183.122 22.912C182.914 23.0827 182.642 23.168 182.306 23.168ZM187.971 24.936C187.918 25.464 187.878 25.992 187.851 26.52C187.824 27.0427 187.803 27.536 187.787 28H187.075C187.086 27.6747 187.102 27.336 187.123 26.984C187.144 26.6267 187.168 26.2693 187.195 25.912C187.222 25.5493 187.251 25.1947 187.283 24.848C187.315 24.496 187.35 24.16 187.387 23.84H188.067C188.238 24.1173 188.438 24.4987 188.667 24.984C188.896 25.464 189.16 26.0187 189.459 26.648C189.758 26.0187 190.022 25.464 190.251 24.984C190.48 24.4987 190.68 24.1173 190.851 23.84H191.539C191.576 24.16 191.611 24.496 191.643 24.848C191.675 25.1947 191.704 25.5493 191.731 25.912C191.758 26.2693 191.782 26.6267 191.803 26.984C191.824 27.336 191.84 27.6747 191.851 28H191.115C191.099 27.536 191.078 27.0427 191.051 26.52C191.024 25.992 190.984 25.464 190.931 24.936C190.846 25.1013 190.747 25.3013 190.635 25.536C190.523 25.7653 190.411 26 190.299 26.24C190.192 26.48 190.091 26.7093 189.995 26.928C189.899 27.1467 189.824 27.32 189.771 27.448H189.147C189.088 27.3147 189.008 27.1387 188.907 26.92C188.811 26.7013 188.707 26.472 188.595 26.232C188.488 25.9867 188.379 25.7493 188.267 25.52C188.155 25.2853 188.056 25.0907 187.971 24.936ZM196.703 25.92C196.703 26.2507 196.655 26.5493 196.559 26.816C196.463 27.0827 196.327 27.312 196.151 27.504C195.98 27.696 195.775 27.8453 195.535 27.952C195.295 28.0533 195.033 28.104 194.751 28.104C194.468 28.104 194.207 28.0533 193.967 27.952C193.727 27.8453 193.519 27.696 193.343 27.504C193.172 27.312 193.039 27.0827 192.943 26.816C192.847 26.5493 192.799 26.2507 192.799 25.92C192.799 25.5947 192.847 25.2987 192.943 25.032C193.039 24.76 193.172 24.528 193.343 24.336C193.519 24.144 193.727 23.9973 193.967 23.896C194.207 23.7893 194.468 23.736 194.751 23.736C195.033 23.736 195.295 23.7893 195.535 23.896C195.775 23.9973 195.98 24.144 196.151 24.336C196.327 24.528 196.463 24.76 196.559 25.032C196.655 25.2987 196.703 25.5947 196.703 25.92ZM195.927 25.92C195.927 25.4507 195.82 25.08 195.607 24.808C195.399 24.5307 195.113 24.392 194.751 24.392C194.388 24.392 194.1 24.5307 193.887 24.808C193.679 25.08 193.575 25.4507 193.575 25.92C193.575 26.3893 193.679 26.7627 193.887 27.04C194.1 27.312 194.388 27.448 194.751 27.448C195.113 27.448 195.399 27.312 195.607 27.04C195.82 26.7627 195.927 26.3893 195.927 25.92ZM201.245 23.84V28H200.525V24.832C200.365 25.0347 200.189 25.272 199.997 25.544C199.805 25.816 199.613 26.0987 199.421 26.392C199.229 26.68 199.045 26.9653 198.869 27.248C198.693 27.5307 198.541 27.7813 198.413 28H197.749V23.84H198.469V26.832C198.608 26.6027 198.765 26.352 198.941 26.08C199.117 25.8027 199.299 25.5307 199.485 25.264C199.677 24.992 199.867 24.7333 200.053 24.488C200.245 24.2373 200.424 24.0213 200.589 23.84H201.245ZM199.501 23.168C199.165 23.168 198.891 23.0827 198.677 22.912C198.469 22.7413 198.344 22.504 198.301 22.2L198.869 22.048C198.912 22.2187 198.984 22.3573 199.085 22.464C199.187 22.5707 199.325 22.624 199.501 22.624C199.677 22.624 199.816 22.5707 199.917 22.464C200.019 22.3573 200.091 22.2187 200.133 22.048L200.693 22.2C200.651 22.504 200.525 22.7413 200.317 22.912C200.109 23.0827 199.837 23.168 199.501 23.168ZM204.043 25.736C204.208 25.8533 204.387 26.0027 204.579 26.184C204.771 26.36 204.957 26.552 205.139 26.76C205.325 26.968 205.499 27.1813 205.659 27.4C205.819 27.6133 205.955 27.8133 206.067 28H205.187C205.069 27.8187 204.931 27.6347 204.771 27.448C204.616 27.256 204.453 27.072 204.283 26.896C204.112 26.72 203.939 26.5573 203.763 26.408C203.587 26.2587 203.421 26.1333 203.267 26.032V28H202.523V23.84H203.267V25.624C203.395 25.5013 203.541 25.36 203.707 25.2C203.872 25.0347 204.037 24.8693 204.203 24.704C204.373 24.5333 204.531 24.3733 204.675 24.224C204.819 24.0693 204.936 23.9413 205.027 23.84H205.891C205.773 23.968 205.635 24.1147 205.475 24.28C205.32 24.44 205.157 24.6053 204.987 24.776C204.821 24.9467 204.656 25.1173 204.491 25.288C204.325 25.4533 204.176 25.6027 204.043 25.736ZM210.316 23.84V28H209.596V24.832C209.436 25.0347 209.26 25.272 209.068 25.544C208.876 25.816 208.684 26.0987 208.492 26.392C208.3 26.68 208.116 26.9653 207.94 27.248C207.764 27.5307 207.612 27.7813 207.484 28H206.82V23.84H207.54V26.832C207.678 26.6027 207.836 26.352 208.012 26.08C208.188 25.8027 208.369 25.5307 208.556 25.264C208.748 24.992 208.937 24.7333 209.124 24.488C209.316 24.2373 209.494 24.0213 209.66 23.84H210.316ZM94.312 34.92C94.312 35.2507 94.264 35.5493 94.168 35.816C94.072 36.0827 93.936 36.312 93.76 36.504C93.5893 36.696 93.384 36.8453 93.144 36.952C92.904 37.0533 92.6427 37.104 92.36 37.104C92.0773 37.104 91.816 37.0533 91.576 36.952C91.336 36.8453 91.128 36.696 90.952 36.504C90.7813 36.312 90.648 36.0827 90.552 35.816C90.456 35.5493 90.408 35.2507 90.408 34.92C90.408 34.5947 90.456 34.2987 90.552 34.032C90.648 33.76 90.7813 33.528 90.952 33.336C91.128 33.144 91.336 32.9973 91.576 32.896C91.816 32.7893 92.0773 32.736 92.36 32.736C92.6427 32.736 92.904 32.7893 93.144 32.896C93.384 32.9973 93.5893 33.144 93.76 33.336C93.936 33.528 94.072 33.76 94.168 34.032C94.264 34.2987 94.312 34.5947 94.312 34.92ZM93.536 34.92C93.536 34.4507 93.4293 34.08 93.216 33.808C93.008 33.5307 92.7227 33.392 92.36 33.392C91.9973 33.392 91.7093 33.5307 91.496 33.808C91.288 34.08 91.184 34.4507 91.184 34.92C91.184 35.3893 91.288 35.7627 91.496 36.04C91.7093 36.312 91.9973 36.448 92.36 36.448C92.7227 36.448 93.008 36.312 93.216 36.04C93.4293 35.7627 93.536 35.3893 93.536 34.92ZM94.8468 36.392H95.2948C95.4708 36.136 95.6094 35.872 95.7108 35.6C95.8174 35.328 95.8974 35.048 95.9508 34.76C96.0041 34.4667 96.0388 34.1627 96.0548 33.848C96.0708 33.528 96.0814 33.192 96.0868 32.84H98.8148V36.392H99.3748V38.16H98.6708V37H95.5508V38.16H94.8468V36.392ZM98.0708 36.392V33.464H96.7668C96.7614 33.7147 96.7481 33.968 96.7268 34.224C96.7054 34.4747 96.6708 34.7253 96.6228 34.976C96.5748 35.2213 96.5054 35.464 96.4148 35.704C96.3294 35.9387 96.2201 36.168 96.0868 36.392H98.0708ZM103.587 37H102.843V35.16H100.923V37H100.179V32.84H100.923V34.536H102.843V32.84H103.587V37ZM108.539 34.92C108.539 35.2507 108.491 35.5493 108.395 35.816C108.299 36.0827 108.163 36.312 107.987 36.504C107.816 36.696 107.611 36.8453 107.371 36.952C107.131 37.0533 106.869 37.104 106.587 37.104C106.304 37.104 106.043 37.0533 105.803 36.952C105.563 36.8453 105.355 36.696 105.179 36.504C105.008 36.312 104.875 36.0827 104.779 35.816C104.683 35.5493 104.635 35.2507 104.635 34.92C104.635 34.5947 104.683 34.2987 104.779 34.032C104.875 33.76 105.008 33.528 105.179 33.336C105.355 33.144 105.563 32.9973 105.803 32.896C106.043 32.7893 106.304 32.736 106.587 32.736C106.869 32.736 107.131 32.7893 107.371 32.896C107.611 32.9973 107.816 33.144 107.987 33.336C108.163 33.528 108.299 33.76 108.395 34.032C108.491 34.2987 108.539 34.5947 108.539 34.92ZM107.763 34.92C107.763 34.4507 107.656 34.08 107.443 33.808C107.235 33.5307 106.949 33.392 106.587 33.392C106.224 33.392 105.936 33.5307 105.723 33.808C105.515 34.08 105.411 34.4507 105.411 34.92C105.411 35.3893 105.515 35.7627 105.723 36.04C105.936 36.312 106.224 36.448 106.587 36.448C106.949 36.448 107.235 36.312 107.443 36.04C107.656 35.7627 107.763 35.3893 107.763 34.92ZM112.473 34.928C112.473 34.4427 112.353 34.0693 112.113 33.808C111.873 33.5467 111.553 33.416 111.153 33.416C110.929 33.416 110.753 33.424 110.625 33.44C110.503 33.456 110.404 33.4747 110.329 33.496V36.12C110.42 36.1947 110.551 36.2667 110.721 36.336C110.892 36.4053 111.079 36.44 111.281 36.44C111.495 36.44 111.676 36.4027 111.825 36.328C111.98 36.248 112.105 36.1413 112.201 36.008C112.297 35.8693 112.367 35.7093 112.409 35.528C112.452 35.3413 112.473 35.1413 112.473 34.928ZM113.249 34.928C113.249 35.2427 113.207 35.5333 113.121 35.8C113.041 36.0667 112.921 36.296 112.761 36.488C112.601 36.68 112.404 36.8293 112.169 36.936C111.94 37.0427 111.676 37.096 111.377 37.096C111.137 37.096 110.924 37.064 110.737 37C110.556 36.936 110.42 36.8747 110.329 36.816V38.48H109.585V32.968C109.761 32.9253 109.98 32.88 110.241 32.832C110.508 32.7787 110.815 32.752 111.161 32.752C111.481 32.752 111.769 32.8027 112.025 32.904C112.281 33.0053 112.5 33.1493 112.681 33.336C112.863 33.5227 113.001 33.752 113.097 34.024C113.199 34.2907 113.249 34.592 113.249 34.928ZM113.699 37.776C113.758 37.8027 113.832 37.8267 113.923 37.848C114.019 37.8747 114.112 37.888 114.203 37.888C114.496 37.888 114.726 37.8213 114.891 37.688C115.056 37.56 115.206 37.3493 115.339 37.056C115.003 36.416 114.688 35.7387 114.395 35.024C114.107 34.304 113.867 33.576 113.675 32.84H114.475C114.534 33.08 114.603 33.3387 114.683 33.616C114.768 33.8933 114.862 34.1787 114.963 34.472C115.064 34.7653 115.174 35.0587 115.291 35.352C115.408 35.6453 115.531 35.928 115.659 36.2C115.862 35.64 116.038 35.0853 116.187 34.536C116.336 33.9867 116.478 33.4213 116.611 32.84H117.379C117.187 33.624 116.974 34.3787 116.739 35.104C116.504 35.824 116.251 36.4987 115.979 37.128C115.872 37.368 115.76 37.5733 115.643 37.744C115.531 37.92 115.406 38.064 115.267 38.176C115.128 38.288 114.971 38.3707 114.795 38.424C114.624 38.4773 114.43 38.504 114.211 38.504C114.152 38.504 114.091 38.4987 114.027 38.488C113.963 38.4827 113.899 38.472 113.835 38.456C113.776 38.4453 113.72 38.432 113.667 38.416C113.619 38.4 113.584 38.3867 113.563 38.376L113.699 37.776ZM119.683 34.736C119.849 34.8533 120.027 35.0027 120.219 35.184C120.411 35.36 120.598 35.552 120.779 35.76C120.966 35.968 121.139 36.1813 121.299 36.4C121.459 36.6133 121.595 36.8133 121.707 37H120.827C120.71 36.8187 120.571 36.6347 120.411 36.448C120.257 36.256 120.094 36.072 119.923 35.896C119.753 35.72 119.579 35.5573 119.403 35.408C119.227 35.2587 119.062 35.1333 118.907 35.032V37H118.163V32.84H118.907V34.624C119.035 34.5013 119.182 34.36 119.347 34.2C119.513 34.0347 119.678 33.8693 119.843 33.704C120.014 33.5333 120.171 33.3733 120.315 33.224C120.459 33.0693 120.577 32.9413 120.667 32.84H121.531C121.414 32.968 121.275 33.1147 121.115 33.28C120.961 33.44 120.798 33.6053 120.627 33.776C120.462 33.9467 120.297 34.1173 120.131 34.288C119.966 34.4533 119.817 34.6027 119.683 34.736ZM125.898 34.92C125.898 35.2507 125.85 35.5493 125.754 35.816C125.658 36.0827 125.522 36.312 125.346 36.504C125.175 36.696 124.97 36.8453 124.73 36.952C124.49 37.0533 124.229 37.104 123.946 37.104C123.663 37.104 123.402 37.0533 123.162 36.952C122.922 36.8453 122.714 36.696 122.538 36.504C122.367 36.312 122.234 36.0827 122.138 35.816C122.042 35.5493 121.994 35.2507 121.994 34.92C121.994 34.5947 122.042 34.2987 122.138 34.032C122.234 33.76 122.367 33.528 122.538 33.336C122.714 33.144 122.922 32.9973 123.162 32.896C123.402 32.7893 123.663 32.736 123.946 32.736C124.229 32.736 124.49 32.7893 124.73 32.896C124.97 32.9973 125.175 33.144 125.346 33.336C125.522 33.528 125.658 33.76 125.754 34.032C125.85 34.2987 125.898 34.5947 125.898 34.92ZM125.122 34.92C125.122 34.4507 125.015 34.08 124.802 33.808C124.594 33.5307 124.309 33.392 123.946 33.392C123.583 33.392 123.295 33.5307 123.082 33.808C122.874 34.08 122.77 34.4507 122.77 34.92C122.77 35.3893 122.874 35.7627 123.082 36.04C123.295 36.312 123.583 36.448 123.946 36.448C124.309 36.448 124.594 36.312 124.802 36.04C125.015 35.7627 125.122 35.3893 125.122 34.92ZM128.665 35.384C128.585 35.384 128.507 35.384 128.433 35.384C128.358 35.3787 128.286 35.3733 128.217 35.368C128.046 35.624 127.881 35.8987 127.721 36.192C127.566 36.48 127.427 36.7493 127.305 37H126.553C126.617 36.8453 126.691 36.688 126.777 36.528C126.862 36.3627 126.947 36.2027 127.033 36.048C127.123 35.8933 127.214 35.7467 127.305 35.608C127.395 35.4693 127.481 35.344 127.561 35.232C127.411 35.1787 127.289 35.1147 127.193 35.04C127.097 34.96 127.019 34.872 126.961 34.776C126.902 34.68 126.859 34.5787 126.833 34.472C126.811 34.36 126.801 34.248 126.801 34.136C126.801 33.9013 126.843 33.696 126.929 33.52C127.019 33.344 127.142 33.2 127.297 33.088C127.451 32.9707 127.633 32.8827 127.841 32.824C128.054 32.7653 128.286 32.736 128.537 32.736C128.889 32.736 129.187 32.752 129.433 32.784C129.678 32.816 129.883 32.8533 130.049 32.896V37H129.313V35.384H128.665ZM129.313 33.392C129.254 33.3813 129.155 33.3707 129.017 33.36C128.883 33.3493 128.729 33.344 128.553 33.344C128.249 33.344 128.003 33.408 127.817 33.536C127.63 33.6587 127.537 33.856 127.537 34.128C127.537 34.3947 127.633 34.5787 127.825 34.68C128.017 34.7813 128.265 34.832 128.569 34.832H129.313V33.392ZM134.264 32.84V33.464H132.912V37H132.168V33.464H130.816V32.84H134.264ZM138.703 34.92C138.703 35.2507 138.655 35.5493 138.559 35.816C138.463 36.0827 138.327 36.312 138.151 36.504C137.98 36.696 137.775 36.8453 137.535 36.952C137.295 37.0533 137.033 37.104 136.751 37.104C136.468 37.104 136.207 37.0533 135.967 36.952C135.727 36.8453 135.519 36.696 135.343 36.504C135.172 36.312 135.039 36.0827 134.943 35.816C134.847 35.5493 134.799 35.2507 134.799 34.92C134.799 34.5947 134.847 34.2987 134.943 34.032C135.039 33.76 135.172 33.528 135.343 33.336C135.519 33.144 135.727 32.9973 135.967 32.896C136.207 32.7893 136.468 32.736 136.751 32.736C137.033 32.736 137.295 32.7893 137.535 32.896C137.775 32.9973 137.98 33.144 138.151 33.336C138.327 33.528 138.463 33.76 138.559 34.032C138.655 34.2987 138.703 34.5947 138.703 34.92ZM137.927 34.92C137.927 34.4507 137.82 34.08 137.607 33.808C137.399 33.5307 137.113 33.392 136.751 33.392C136.388 33.392 136.1 33.5307 135.887 33.808C135.679 34.08 135.575 34.4507 135.575 34.92C135.575 35.3893 135.679 35.7627 135.887 36.04C136.1 36.312 136.388 36.448 136.751 36.448C137.113 36.448 137.399 36.312 137.607 36.04C137.82 35.7627 137.927 35.3893 137.927 34.92ZM140.221 32.84V34.064C140.221 34.3787 140.301 34.6 140.461 34.728C140.621 34.8507 140.84 34.912 141.117 34.912C141.32 34.912 141.488 34.9013 141.621 34.88C141.76 34.8587 141.883 34.8347 141.989 34.808V32.84H142.733V37H141.989V35.384C141.947 35.3947 141.891 35.408 141.821 35.424C141.752 35.44 141.672 35.456 141.581 35.472C141.496 35.4827 141.405 35.4933 141.309 35.504C141.213 35.5147 141.12 35.52 141.029 35.52C140.8 35.52 140.589 35.496 140.397 35.448C140.211 35.4 140.048 35.32 139.909 35.208C139.776 35.096 139.669 34.9493 139.589 34.768C139.515 34.5813 139.477 34.3493 139.477 34.072V32.84H140.221ZM147.423 37H146.679V35.16H144.759V37H144.015V32.84H144.759V34.536H146.679V32.84H147.423V37ZM150.231 34.944C150.087 34.944 149.945 34.9493 149.807 34.96C149.673 34.9653 149.553 34.9813 149.447 35.008V36.44C149.479 36.4453 149.524 36.4507 149.583 36.456C149.647 36.4613 149.713 36.4667 149.783 36.472C149.857 36.472 149.932 36.4747 150.007 36.48C150.081 36.48 150.148 36.48 150.207 36.48C150.532 36.48 150.783 36.4187 150.959 36.296C151.135 36.1733 151.223 35.976 151.223 35.704C151.223 35.5707 151.193 35.456 151.135 35.36C151.081 35.264 151.007 35.1867 150.911 35.128C150.82 35.064 150.716 35.0187 150.599 34.992C150.481 34.96 150.359 34.944 150.231 34.944ZM148.703 32.84H149.447V34.432C149.537 34.4107 149.668 34.3893 149.839 34.368C150.015 34.3467 150.183 34.336 150.343 34.336C150.561 34.336 150.769 34.3627 150.967 34.416C151.164 34.464 151.337 34.544 151.487 34.656C151.636 34.7627 151.753 34.904 151.839 35.08C151.929 35.2507 151.975 35.456 151.975 35.696C151.975 35.9467 151.932 36.16 151.847 36.336C151.761 36.512 151.641 36.656 151.487 36.768C151.332 36.88 151.145 36.96 150.927 37.008C150.708 37.0613 150.468 37.088 150.207 37.088C149.956 37.088 149.703 37.072 149.447 37.04C149.191 37.0133 148.943 36.9707 148.703 36.912V32.84ZM153.487 37H152.743V32.84H153.487V37ZM158.261 32.84V37H157.541V33.832C157.381 34.0347 157.205 34.272 157.013 34.544C156.821 34.816 156.629 35.0987 156.437 35.392C156.245 35.68 156.061 35.9653 155.885 36.248C155.709 36.5307 155.557 36.7813 155.429 37H154.765V32.84H155.485V35.832C155.624 35.6027 155.781 35.352 155.957 35.08C156.133 34.8027 156.314 34.5307 156.501 34.264C156.693 33.992 156.882 33.7333 157.069 33.488C157.261 33.2373 157.44 33.0213 157.605 32.84H158.261ZM156.517 32.168C156.181 32.168 155.906 32.0827 155.693 31.912C155.485 31.7413 155.36 31.504 155.317 31.2L155.885 31.048C155.928 31.2187 156 31.3573 156.101 31.464C156.202 31.5707 156.341 31.624 156.517 31.624C156.693 31.624 156.832 31.5707 156.933 31.464C157.034 31.3573 157.106 31.2187 157.149 31.048L157.709 31.2C157.666 31.504 157.541 31.7413 157.333 31.912C157.125 32.0827 156.853 32.168 156.517 32.168Z" fill="white"/>
<defs>
<linearGradient id="paint0_linear_699_597" x1="115" y1="0.000488281" x2="115" y2="58.0003" gradientUnits="userSpaceOnUse">
<stop stop-color="#101F52"/>
<stop offset="0.9999" stop-color="#101F52" stop-opacity="0.8125"/>
<stop offset="1" stop-color="#101F52" stop-opacity="0"/>
</linearGradient>
</defs>
</svg>
