<svg width="204" height="58" viewBox="0 0 204 58" fill="none" xmlns="http://www.w3.org/2000/svg">
<rect y="0.000488281" width="204" height="57.9998" rx="5" fill="url(#paint0_linear_973_2041)"/>
<path d="M95.9712 48.6508C82.2707 49.9357 66.6623 53.2274 63.7963 53.8466C63.4888 53.913 63.204 54.0495 62.9577 54.2453C61.4218 55.4663 62.2852 57.9397 64.2472 57.9397H198.932C201.693 57.9397 203.932 55.7012 203.932 52.9397V46.7444C203.932 43.6216 201.101 41.263 198.029 41.8265L192.215 42.8932L171.292 45.0043L150.639 47.0883C150.46 47.1064 150.303 47.1149 150.123 47.1138C146.964 47.095 114.174 46.9435 95.9712 48.6508Z" fill="#0F2458" fill-opacity="0.5"/>
<path d="M120.802 49.99C110.348 51.0799 98.4501 53.8565 96.0896 54.422C95.8089 54.4893 95.5573 54.6233 95.341 54.8144C94.1079 55.904 94.8786 57.94 96.5241 57.94H198.932C201.693 57.94 203.932 55.7014 203.932 52.94V49.3451C203.932 46.1822 201.032 43.814 197.933 44.4459L194.91 45.0623L178.8 46.8691L162.987 48.6425C162.789 48.6648 162.592 48.6752 162.392 48.6739C159.405 48.6553 134.635 48.5481 120.802 49.99Z" fill="#0D2862" fill-opacity="0.5"/>
<path d="M106.942 12.4689C120.109 10.7945 135.057 6.58121 138.514 5.57623C139.002 5.43455 139.436 5.16236 139.782 4.79025C141.474 2.96561 140.18 -1.80105e-05 137.691 -1.80105e-05L5.06077 -1.80105e-05C2.29935 -1.80105e-05 0.0607738 2.23856 0.0607738 4.99998L0.0607738 16.6869C0.0607738 19.9373 3.11343 22.3237 6.26774 21.539L11.6602 20.1976L32.3736 17.3638L52.7248 14.5795C52.9659 14.5465 53.2002 14.5311 53.4435 14.5329C57.1648 14.5615 89.1168 14.7357 106.942 12.4689Z" fill="#0F2458" fill-opacity="0.7"/>
<path d="M93.9862 9.37271C105.752 8.09295 119.134 4.84039 121.876 4.1557C122.215 4.07109 122.517 3.90408 122.773 3.66734C124.188 2.3628 123.265 7.23182e-05 121.341 7.23182e-05L5.06069 7.23182e-05C2.29926 7.23182e-05 0.060692 2.23865 0.060692 5.00007V11.1753C0.060692 14.3555 2.99062 16.7277 6.10125 16.0658L10.2542 15.1822L28.4568 13.0521L46.3486 10.9583C46.5556 10.9341 46.7541 10.9227 46.9626 10.9241C50.184 10.9454 78.3056 11.0784 93.9862 9.37271Z" fill="#0D2862" fill-opacity="0.7"/>
<g opacity="0.89">
<path d="M77.072 22.12C76.6827 22.12 76.328 22.056 76.008 21.928C75.688 21.8 75.4133 21.6133 75.184 21.368C74.9547 21.1227 74.776 20.8213 74.648 20.464C74.5253 20.1013 74.464 19.688 74.464 19.224C74.464 18.76 74.5333 18.3493 74.672 17.992C74.816 17.6293 75.008 17.3253 75.248 17.08C75.488 16.8347 75.768 16.648 76.088 16.52C76.408 16.392 76.7493 16.328 77.112 16.328C77.3413 16.328 77.5467 16.344 77.728 16.376C77.9147 16.408 78.0747 16.4453 78.208 16.488C78.3467 16.5307 78.4587 16.5733 78.544 16.616C78.6293 16.6587 78.688 16.6907 78.72 16.712L78.496 17.352C78.448 17.32 78.3787 17.2853 78.288 17.248C78.1973 17.2107 78.0933 17.1733 77.976 17.136C77.864 17.0987 77.7387 17.0693 77.6 17.048C77.4667 17.0213 77.3307 17.008 77.192 17.008C76.8987 17.008 76.6347 17.0587 76.4 17.16C76.1653 17.2613 75.9653 17.408 75.8 17.6C75.6347 17.792 75.5067 18.0267 75.416 18.304C75.3307 18.576 75.288 18.8827 75.288 19.224C75.288 19.5547 75.3253 19.856 75.4 20.128C75.48 20.4 75.5973 20.6347 75.752 20.832C75.9067 21.024 76.0987 21.1733 76.328 21.28C76.5627 21.3867 76.8347 21.44 77.144 21.44C77.5013 21.44 77.7973 21.4027 78.032 21.328C78.2667 21.2533 78.4427 21.1867 78.56 21.128L78.76 21.768C78.7227 21.7947 78.656 21.8293 78.56 21.872C78.464 21.9093 78.344 21.9467 78.2 21.984C78.056 22.0213 77.888 22.0533 77.696 22.08C77.504 22.1067 77.296 22.12 77.072 22.12ZM80.3929 18.936C80.3396 19.464 80.2996 19.992 80.2729 20.52C80.2463 21.0427 80.2249 21.536 80.2089 22H79.4969C79.5076 21.6747 79.5236 21.336 79.5449 20.984C79.5663 20.6267 79.5903 20.2693 79.6169 19.912C79.6436 19.5493 79.6729 19.1947 79.7049 18.848C79.7369 18.496 79.7716 18.16 79.8089 17.84H80.4889C80.6596 18.1173 80.8596 18.4987 81.0889 18.984C81.3183 19.464 81.5823 20.0187 81.8809 20.648C82.1796 20.0187 82.4436 19.464 82.6729 18.984C82.9023 18.4987 83.1023 18.1173 83.2729 17.84H83.9609C83.9983 18.16 84.0329 18.496 84.0649 18.848C84.0969 19.1947 84.1263 19.5493 84.1529 19.912C84.1796 20.2693 84.2036 20.6267 84.2249 20.984C84.2463 21.336 84.2623 21.6747 84.2729 22H83.5369C83.5209 21.536 83.4996 21.0427 83.4729 20.52C83.4463 19.992 83.4063 19.464 83.3529 18.936C83.2676 19.1013 83.1689 19.3013 83.0569 19.536C82.9449 19.7653 82.8329 20 82.7209 20.24C82.6143 20.48 82.5129 20.7093 82.4169 20.928C82.3209 21.1467 82.2463 21.32 82.1929 21.448H81.5689C81.5103 21.3147 81.4303 21.1387 81.3289 20.92C81.2329 20.7013 81.1289 20.472 81.0169 20.232C80.9103 19.9867 80.8009 19.7493 80.6889 19.52C80.5769 19.2853 80.4783 19.0907 80.3929 18.936ZM85.2205 19.928C85.2205 19.56 85.2738 19.24 85.3805 18.968C85.4872 18.6907 85.6285 18.4613 85.8045 18.28C85.9805 18.0987 86.1832 17.9627 86.4125 17.872C86.6418 17.7813 86.8765 17.736 87.1165 17.736C87.6765 17.736 88.1058 17.912 88.4045 18.264C88.7032 18.6107 88.8525 19.1413 88.8525 19.856C88.8525 19.888 88.8525 19.9307 88.8525 19.984C88.8525 20.032 88.8498 20.0773 88.8445 20.12H85.9965C86.0285 20.552 86.1538 20.88 86.3725 21.104C86.5912 21.328 86.9325 21.44 87.3965 21.44C87.6578 21.44 87.8765 21.4187 88.0525 21.376C88.2338 21.328 88.3698 21.2827 88.4605 21.24L88.5645 21.864C88.4738 21.912 88.3138 21.9627 88.0845 22.016C87.8605 22.0693 87.6045 22.096 87.3165 22.096C86.9538 22.096 86.6392 22.0427 86.3725 21.936C86.1112 21.824 85.8952 21.672 85.7245 21.48C85.5538 21.288 85.4258 21.0613 85.3405 20.8C85.2605 20.5333 85.2205 20.2427 85.2205 19.928ZM88.0765 19.52C88.0818 19.184 87.9965 18.9093 87.8205 18.696C87.6498 18.4773 87.4125 18.368 87.1085 18.368C86.9378 18.368 86.7858 18.4027 86.6525 18.472C86.5245 18.536 86.4152 18.6213 86.3245 18.728C86.2338 18.8347 86.1618 18.9573 86.1085 19.096C86.0605 19.2347 86.0285 19.376 86.0125 19.52H88.0765ZM91.7293 22.096C91.3933 22.096 91.0973 22.0427 90.8413 21.936C90.5906 21.8293 90.3773 21.68 90.2013 21.488C90.0306 21.296 89.9026 21.0693 89.8173 20.808C89.7319 20.5413 89.6893 20.248 89.6893 19.928C89.6893 19.608 89.7346 19.3147 89.8253 19.048C89.9213 18.7813 90.0546 18.552 90.2253 18.36C90.3959 18.1627 90.6039 18.0107 90.8493 17.904C91.0999 17.792 91.3773 17.736 91.6813 17.736C91.8679 17.736 92.0546 17.752 92.2413 17.784C92.4279 17.816 92.6066 17.8667 92.7773 17.936L92.6093 18.568C92.4973 18.5147 92.3666 18.472 92.2173 18.44C92.0733 18.408 91.9186 18.392 91.7533 18.392C91.3373 18.392 91.0173 18.5227 90.7933 18.784C90.5746 19.0453 90.4653 19.4267 90.4653 19.928C90.4653 20.152 90.4893 20.3573 90.5373 20.544C90.5906 20.7307 90.6706 20.8907 90.7773 21.024C90.8893 21.1573 91.0306 21.2613 91.2013 21.336C91.3719 21.4053 91.5799 21.44 91.8253 21.44C92.0226 21.44 92.2013 21.4213 92.3613 21.384C92.5213 21.3467 92.6466 21.3067 92.7373 21.264L92.8413 21.888C92.7986 21.9147 92.7373 21.9413 92.6573 21.968C92.5773 21.9893 92.4866 22.008 92.3853 22.024C92.2839 22.0453 92.1746 22.0613 92.0573 22.072C91.9453 22.088 91.8359 22.096 91.7293 22.096ZM97.136 17.84V22H96.416V18.832C96.256 19.0347 96.08 19.272 95.888 19.544C95.696 19.816 95.504 20.0987 95.312 20.392C95.12 20.68 94.936 20.9653 94.76 21.248C94.584 21.5307 94.432 21.7813 94.304 22H93.64V17.84H94.36V20.832C94.4987 20.6027 94.656 20.352 94.832 20.08C95.008 19.8027 95.1893 19.5307 95.376 19.264C95.568 18.992 95.7573 18.7333 95.944 18.488C96.136 18.2373 96.3147 18.0213 96.48 17.84H97.136ZM101.349 17.84V18.464H99.9974V22H99.2534V18.464H97.9014V17.84H101.349ZM101.885 19.928C101.885 19.56 101.938 19.24 102.045 18.968C102.151 18.6907 102.293 18.4613 102.469 18.28C102.645 18.0987 102.847 17.9627 103.077 17.872C103.306 17.7813 103.541 17.736 103.781 17.736C104.341 17.736 104.77 17.912 105.069 18.264C105.367 18.6107 105.517 19.1413 105.517 19.856C105.517 19.888 105.517 19.9307 105.517 19.984C105.517 20.032 105.514 20.0773 105.509 20.12H102.661C102.693 20.552 102.818 20.88 103.037 21.104C103.255 21.328 103.597 21.44 104.061 21.44C104.322 21.44 104.541 21.4187 104.717 21.376C104.898 21.328 105.034 21.2827 105.125 21.24L105.229 21.864C105.138 21.912 104.978 21.9627 104.749 22.016C104.525 22.0693 104.269 22.096 103.981 22.096C103.618 22.096 103.303 22.0427 103.037 21.936C102.775 21.824 102.559 21.672 102.389 21.48C102.218 21.288 102.09 21.0613 102.005 20.8C101.925 20.5333 101.885 20.2427 101.885 19.928ZM104.741 19.52C104.746 19.184 104.661 18.9093 104.485 18.696C104.314 18.4773 104.077 18.368 103.773 18.368C103.602 18.368 103.45 18.4027 103.317 18.472C103.189 18.536 103.079 18.6213 102.989 18.728C102.898 18.8347 102.826 18.9573 102.773 19.096C102.725 19.2347 102.693 19.376 102.677 19.52H104.741ZM108.033 18.464C108.033 18.64 108.028 18.8293 108.017 19.032C108.012 19.2293 107.999 19.4293 107.977 19.632C107.956 19.8293 107.927 20.0267 107.889 20.224C107.852 20.416 107.804 20.5973 107.745 20.768C107.687 20.9387 107.612 21.0987 107.521 21.248C107.436 21.3973 107.329 21.5307 107.201 21.648C107.073 21.76 106.924 21.856 106.753 21.936C106.583 22.0107 106.383 22.0587 106.153 22.08L106.049 21.456C106.311 21.4027 106.516 21.304 106.665 21.16C106.82 21.016 106.943 20.84 107.033 20.632C107.113 20.4507 107.172 20.2453 107.209 20.016C107.247 19.7867 107.273 19.5493 107.289 19.304C107.305 19.0533 107.313 18.8027 107.313 18.552C107.319 18.3013 107.321 18.064 107.321 17.84H110.089V22H109.345V18.464H108.033ZM112.943 21.48C113.257 21.48 113.505 21.4187 113.687 21.296C113.868 21.1733 113.959 20.976 113.959 20.704C113.959 20.5707 113.932 20.456 113.879 20.36C113.825 20.264 113.751 20.1867 113.655 20.128C113.564 20.064 113.457 20.0187 113.335 19.992C113.212 19.96 113.081 19.944 112.943 19.944C112.799 19.944 112.649 19.9493 112.495 19.96C112.345 19.9653 112.217 19.9813 112.111 20.008V21.44C112.143 21.4453 112.191 21.4507 112.255 21.456C112.319 21.4613 112.388 21.4667 112.463 21.472C112.543 21.472 112.623 21.4747 112.703 21.48C112.788 21.48 112.868 21.48 112.943 21.48ZM111.367 21.912V17.84H112.111V19.432C112.153 19.4213 112.209 19.4107 112.279 19.4C112.353 19.3893 112.431 19.3787 112.511 19.368C112.596 19.3573 112.684 19.3493 112.775 19.344C112.865 19.3387 112.951 19.336 113.031 19.336C113.26 19.336 113.476 19.3627 113.679 19.416C113.881 19.464 114.057 19.544 114.207 19.656C114.361 19.7627 114.484 19.904 114.575 20.08C114.665 20.2507 114.711 20.456 114.711 20.696C114.711 20.9467 114.668 21.16 114.583 21.336C114.497 21.512 114.375 21.656 114.215 21.768C114.055 21.88 113.863 21.96 113.639 22.008C113.42 22.0613 113.175 22.088 112.903 22.088C112.636 22.088 112.375 22.072 112.119 22.04C111.863 22.0133 111.612 21.9707 111.367 21.912ZM116.933 21.392H117.381C117.557 21.136 117.695 20.872 117.797 20.6C117.903 20.328 117.983 20.048 118.037 19.76C118.09 19.4667 118.125 19.1627 118.141 18.848C118.157 18.528 118.167 18.192 118.173 17.84H120.901V21.392H121.461V23.16H120.757V22H117.637V23.16H116.933V21.392ZM120.157 21.392V18.464H118.853C118.847 18.7147 118.834 18.968 118.813 19.224C118.791 19.4747 118.757 19.7253 118.709 19.976C118.661 20.2213 118.591 20.464 118.501 20.704C118.415 20.9387 118.306 21.168 118.173 21.392H120.157ZM123.885 18.464C123.885 18.64 123.88 18.8293 123.869 19.032C123.864 19.2293 123.85 19.4293 123.829 19.632C123.808 19.8293 123.778 20.0267 123.741 20.224C123.704 20.416 123.656 20.5973 123.597 20.768C123.538 20.9387 123.464 21.0987 123.373 21.248C123.288 21.3973 123.181 21.5307 123.053 21.648C122.925 21.76 122.776 21.856 122.605 21.936C122.434 22.0107 122.234 22.0587 122.005 22.08L121.901 21.456C122.162 21.4027 122.368 21.304 122.517 21.16C122.672 21.016 122.794 20.84 122.885 20.632C122.965 20.4507 123.024 20.2453 123.061 20.016C123.098 19.7867 123.125 19.5493 123.141 19.304C123.157 19.0533 123.165 18.8027 123.165 18.552C123.17 18.3013 123.173 18.064 123.173 17.84H125.941V22H125.197V18.464H123.885ZM128.938 20.384C128.858 20.384 128.781 20.384 128.706 20.384C128.631 20.3787 128.559 20.3733 128.49 20.368C128.319 20.624 128.154 20.8987 127.994 21.192C127.839 21.48 127.701 21.7493 127.578 22H126.826C126.89 21.8453 126.965 21.688 127.05 21.528C127.135 21.3627 127.221 21.2027 127.306 21.048C127.397 20.8933 127.487 20.7467 127.578 20.608C127.669 20.4693 127.754 20.344 127.834 20.232C127.685 20.1787 127.562 20.1147 127.466 20.04C127.37 19.96 127.293 19.872 127.234 19.776C127.175 19.68 127.133 19.5787 127.106 19.472C127.085 19.36 127.074 19.248 127.074 19.136C127.074 18.9013 127.117 18.696 127.202 18.52C127.293 18.344 127.415 18.2 127.57 18.088C127.725 17.9707 127.906 17.8827 128.114 17.824C128.327 17.7653 128.559 17.736 128.81 17.736C129.162 17.736 129.461 17.752 129.706 17.784C129.951 17.816 130.157 17.8533 130.322 17.896V22H129.586V20.384H128.938ZM129.586 18.392C129.527 18.3813 129.429 18.3707 129.29 18.36C129.157 18.3493 129.002 18.344 128.826 18.344C128.522 18.344 128.277 18.408 128.09 18.536C127.903 18.6587 127.81 18.856 127.81 19.128C127.81 19.3947 127.906 19.5787 128.098 19.68C128.29 19.7813 128.538 19.832 128.842 19.832H129.586V18.392ZM136.341 19.928C136.341 19.4427 136.221 19.0693 135.981 18.808C135.741 18.5467 135.421 18.416 135.021 18.416C134.797 18.416 134.621 18.424 134.493 18.44C134.37 18.456 134.271 18.4747 134.197 18.496V21.12C134.287 21.1947 134.418 21.2667 134.589 21.336C134.759 21.4053 134.946 21.44 135.149 21.44C135.362 21.44 135.543 21.4027 135.693 21.328C135.847 21.248 135.973 21.1413 136.069 21.008C136.165 20.8693 136.234 20.7093 136.277 20.528C136.319 20.3413 136.341 20.1413 136.341 19.928ZM137.117 19.928C137.117 20.2427 137.074 20.5333 136.989 20.8C136.909 21.0667 136.789 21.296 136.629 21.488C136.469 21.68 136.271 21.8293 136.037 21.936C135.807 22.0427 135.543 22.096 135.245 22.096C135.005 22.096 134.791 22.064 134.605 22C134.423 21.936 134.287 21.8747 134.197 21.816V23.48H133.453V17.968C133.629 17.9253 133.847 17.88 134.109 17.832C134.375 17.7787 134.682 17.752 135.029 17.752C135.349 17.752 135.637 17.8027 135.893 17.904C136.149 18.0053 136.367 18.1493 136.549 18.336C136.73 18.5227 136.869 18.752 136.965 19.024C137.066 19.2907 137.117 19.592 137.117 19.928ZM139.571 21.464C139.747 21.464 139.902 21.4613 140.035 21.456C140.174 21.4453 140.289 21.4293 140.379 21.408V20.168C140.326 20.1413 140.238 20.12 140.115 20.104C139.998 20.0827 139.854 20.072 139.683 20.072C139.571 20.072 139.451 20.08 139.323 20.096C139.201 20.112 139.086 20.1467 138.979 20.2C138.878 20.248 138.793 20.3173 138.723 20.408C138.654 20.4933 138.619 20.608 138.619 20.752C138.619 21.0187 138.705 21.2053 138.875 21.312C139.046 21.4133 139.278 21.464 139.571 21.464ZM139.507 17.736C139.806 17.736 140.057 17.776 140.259 17.856C140.467 17.9307 140.633 18.04 140.755 18.184C140.883 18.3227 140.974 18.4907 141.027 18.688C141.081 18.88 141.107 19.0933 141.107 19.328V21.928C141.043 21.9387 140.953 21.9547 140.835 21.976C140.723 21.992 140.595 22.008 140.451 22.024C140.307 22.04 140.15 22.0533 139.979 22.064C139.814 22.08 139.649 22.088 139.483 22.088C139.249 22.088 139.033 22.064 138.835 22.016C138.638 21.968 138.467 21.8933 138.323 21.792C138.179 21.6853 138.067 21.5467 137.987 21.376C137.907 21.2053 137.867 21 137.867 20.76C137.867 20.5307 137.913 20.3333 138.003 20.168C138.099 20.0027 138.227 19.8693 138.387 19.768C138.547 19.6667 138.734 19.592 138.947 19.544C139.161 19.496 139.385 19.472 139.619 19.472C139.694 19.472 139.771 19.4773 139.851 19.488C139.931 19.4933 140.006 19.504 140.075 19.52C140.15 19.5307 140.214 19.5413 140.267 19.552C140.321 19.5627 140.358 19.5707 140.379 19.576V19.368C140.379 19.2453 140.366 19.1253 140.339 19.008C140.313 18.8853 140.265 18.7787 140.195 18.688C140.126 18.592 140.03 18.5173 139.907 18.464C139.79 18.4053 139.635 18.376 139.443 18.376C139.198 18.376 138.982 18.3947 138.795 18.432C138.614 18.464 138.478 18.4987 138.387 18.536L138.299 17.92C138.395 17.8773 138.555 17.8373 138.779 17.8C139.003 17.7573 139.246 17.736 139.507 17.736ZM143.863 19.736C144.028 19.8533 144.207 20.0027 144.399 20.184C144.591 20.36 144.778 20.552 144.959 20.76C145.146 20.968 145.319 21.1813 145.479 21.4C145.639 21.6133 145.775 21.8133 145.887 22H145.007C144.89 21.8187 144.751 21.6347 144.591 21.448C144.436 21.256 144.274 21.072 144.103 20.896C143.932 20.72 143.759 20.5573 143.583 20.408C143.407 20.2587 143.242 20.1333 143.087 20.032V22H142.343V17.84H143.087V19.624C143.215 19.5013 143.362 19.36 143.527 19.2C143.692 19.0347 143.858 18.8693 144.023 18.704C144.194 18.5333 144.351 18.3733 144.495 18.224C144.639 18.0693 144.756 17.9413 144.847 17.84H145.711C145.594 17.968 145.455 18.1147 145.295 18.28C145.14 18.44 144.978 18.6053 144.807 18.776C144.642 18.9467 144.476 19.1173 144.311 19.288C144.146 19.4533 143.996 19.6027 143.863 19.736ZM150.078 19.92C150.078 20.2507 150.03 20.5493 149.934 20.816C149.838 21.0827 149.702 21.312 149.526 21.504C149.355 21.696 149.15 21.8453 148.91 21.952C148.67 22.0533 148.408 22.104 148.126 22.104C147.843 22.104 147.582 22.0533 147.342 21.952C147.102 21.8453 146.894 21.696 146.718 21.504C146.547 21.312 146.414 21.0827 146.318 20.816C146.222 20.5493 146.174 20.2507 146.174 19.92C146.174 19.5947 146.222 19.2987 146.318 19.032C146.414 18.76 146.547 18.528 146.718 18.336C146.894 18.144 147.102 17.9973 147.342 17.896C147.582 17.7893 147.843 17.736 148.126 17.736C148.408 17.736 148.67 17.7893 148.91 17.896C149.15 17.9973 149.355 18.144 149.526 18.336C149.702 18.528 149.838 18.76 149.934 19.032C150.03 19.2987 150.078 19.5947 150.078 19.92ZM149.302 19.92C149.302 19.4507 149.195 19.08 148.982 18.808C148.774 18.5307 148.488 18.392 148.126 18.392C147.763 18.392 147.475 18.5307 147.262 18.808C147.054 19.08 146.95 19.4507 146.95 19.92C146.95 20.3893 147.054 20.7627 147.262 21.04C147.475 21.312 147.763 21.448 148.126 21.448C148.488 21.448 148.774 21.312 148.982 21.04C149.195 20.7627 149.302 20.3893 149.302 19.92ZM151.852 21.44C151.884 21.4453 151.93 21.4507 151.988 21.456C152.047 21.4613 152.114 21.4667 152.188 21.472C152.263 21.472 152.34 21.4747 152.42 21.48C152.506 21.48 152.586 21.48 152.66 21.48C152.815 21.48 152.962 21.4693 153.1 21.448C153.244 21.4267 153.367 21.3893 153.468 21.336C153.575 21.2827 153.658 21.2133 153.716 21.128C153.78 21.0373 153.812 20.9227 153.812 20.784C153.812 20.6507 153.783 20.5413 153.724 20.456C153.671 20.3653 153.596 20.2933 153.5 20.24C153.404 20.1867 153.29 20.1493 153.156 20.128C153.028 20.1067 152.89 20.096 152.74 20.096H151.852V21.44ZM152.644 19.544C152.788 19.544 152.919 19.536 153.036 19.52C153.159 19.4987 153.263 19.464 153.348 19.416C153.439 19.368 153.508 19.304 153.556 19.224C153.61 19.144 153.636 19.0427 153.636 18.92C153.636 18.792 153.604 18.6907 153.54 18.616C153.476 18.5413 153.391 18.4853 153.284 18.448C153.183 18.4053 153.066 18.3787 152.932 18.368C152.804 18.352 152.674 18.344 152.54 18.344C152.418 18.344 152.292 18.3467 152.164 18.352C152.042 18.3573 151.938 18.3627 151.852 18.368V19.544H152.644ZM152.628 22.072C152.314 22.072 152.023 22.056 151.756 22.024C151.49 21.9973 151.279 21.9653 151.124 21.928V17.88C151.279 17.8427 151.49 17.8107 151.756 17.784C152.023 17.752 152.314 17.736 152.628 17.736C152.847 17.736 153.06 17.7547 153.268 17.792C153.476 17.8293 153.66 17.8933 153.82 17.984C153.98 18.0693 154.108 18.1893 154.204 18.344C154.306 18.4933 154.356 18.68 154.356 18.904C154.356 19.1067 154.306 19.28 154.204 19.424C154.103 19.568 153.967 19.68 153.796 19.76C154.026 19.84 154.207 19.96 154.34 20.12C154.479 20.2747 154.548 20.4933 154.548 20.776C154.548 21.0267 154.498 21.2347 154.396 21.4C154.3 21.5653 154.164 21.6987 153.988 21.8C153.818 21.9013 153.615 21.9707 153.38 22.008C153.146 22.0507 152.895 22.072 152.628 22.072ZM159.003 17.84V22H158.283V18.832C158.123 19.0347 157.947 19.272 157.755 19.544C157.563 19.816 157.371 20.0987 157.179 20.392C156.987 20.68 156.803 20.9653 156.627 21.248C156.451 21.5307 156.299 21.7813 156.171 22H155.507V17.84H156.227V20.832C156.366 20.6027 156.523 20.352 156.699 20.08C156.875 19.8027 157.057 19.5307 157.243 19.264C157.435 18.992 157.625 18.7333 157.811 18.488C158.003 18.2373 158.182 18.0213 158.347 17.84H159.003ZM163.689 22H162.945V20.16H161.025V22H160.281V17.84H161.025V19.536H162.945V17.84H163.689V22ZM166.496 19.944C166.352 19.944 166.211 19.9493 166.072 19.96C165.939 19.9653 165.819 19.9813 165.712 20.008V21.44C165.744 21.4453 165.789 21.4507 165.848 21.456C165.912 21.4613 165.979 21.4667 166.048 21.472C166.123 21.472 166.197 21.4747 166.272 21.48C166.347 21.48 166.413 21.48 166.472 21.48C166.797 21.48 167.048 21.4187 167.224 21.296C167.4 21.1733 167.488 20.976 167.488 20.704C167.488 20.5707 167.459 20.456 167.4 20.36C167.347 20.264 167.272 20.1867 167.176 20.128C167.085 20.064 166.981 20.0187 166.864 19.992C166.747 19.96 166.624 19.944 166.496 19.944ZM164.968 17.84H165.712V19.432C165.803 19.4107 165.933 19.3893 166.104 19.368C166.28 19.3467 166.448 19.336 166.608 19.336C166.827 19.336 167.035 19.3627 167.232 19.416C167.429 19.464 167.603 19.544 167.752 19.656C167.901 19.7627 168.019 19.904 168.104 20.08C168.195 20.2507 168.24 20.456 168.24 20.696C168.24 20.9467 168.197 21.16 168.112 21.336C168.027 21.512 167.907 21.656 167.752 21.768C167.597 21.88 167.411 21.96 167.192 22.008C166.973 22.0613 166.733 22.088 166.472 22.088C166.221 22.088 165.968 22.072 165.712 22.04C165.456 22.0133 165.208 21.9707 164.968 21.912V17.84ZM169.752 22H169.008V17.84H169.752V22ZM176.378 17.84V22H175.658V18.832C175.498 19.0347 175.322 19.272 175.13 19.544C174.938 19.816 174.746 20.0987 174.554 20.392C174.362 20.68 174.178 20.9653 174.002 21.248C173.826 21.5307 173.674 21.7813 173.546 22H172.882V17.84H173.602V20.832C173.741 20.6027 173.898 20.352 174.074 20.08C174.25 19.8027 174.432 19.5307 174.618 19.264C174.81 18.992 175 18.7333 175.186 18.488C175.378 18.2373 175.557 18.0213 175.722 17.84H176.378ZM74.152 31.776C74.2107 31.8027 74.2853 31.8267 74.376 31.848C74.472 31.8747 74.5653 31.888 74.656 31.888C74.9493 31.888 75.1787 31.8213 75.344 31.688C75.5093 31.56 75.6587 31.3493 75.792 31.056C75.456 30.416 75.1413 29.7387 74.848 29.024C74.56 28.304 74.32 27.576 74.128 26.84H74.928C74.9867 27.08 75.056 27.3387 75.136 27.616C75.2213 27.8933 75.3147 28.1787 75.416 28.472C75.5173 28.7653 75.6267 29.0587 75.744 29.352C75.8613 29.6453 75.984 29.928 76.112 30.2C76.3147 29.64 76.4907 29.0853 76.64 28.536C76.7893 27.9867 76.9307 27.4213 77.064 26.84H77.832C77.64 27.624 77.4267 28.3787 77.192 29.104C76.9573 29.824 76.704 30.4987 76.432 31.128C76.3253 31.368 76.2133 31.5733 76.096 31.744C75.984 31.92 75.8587 32.064 75.72 32.176C75.5813 32.288 75.424 32.3707 75.248 32.424C75.0773 32.4773 74.8827 32.504 74.664 32.504C74.6053 32.504 74.544 32.4987 74.48 32.488C74.416 32.4827 74.352 32.472 74.288 32.456C74.2293 32.4453 74.1733 32.432 74.12 32.416C74.072 32.4 74.0373 32.3867 74.016 32.376L74.152 31.776ZM79.4086 27.936C79.3552 28.464 79.3152 28.992 79.2886 29.52C79.2619 30.0427 79.2406 30.536 79.2246 31H78.5126C78.5232 30.6747 78.5392 30.336 78.5606 29.984C78.5819 29.6267 78.6059 29.2693 78.6326 28.912C78.6592 28.5493 78.6886 28.1947 78.7206 27.848C78.7526 27.496 78.7872 27.16 78.8246 26.84H79.5046C79.6752 27.1173 79.8752 27.4987 80.1046 27.984C80.3339 28.464 80.5979 29.0187 80.8966 29.648C81.1952 29.0187 81.4592 28.464 81.6886 27.984C81.9179 27.4987 82.1179 27.1173 82.2886 26.84H82.9766C83.0139 27.16 83.0486 27.496 83.0806 27.848C83.1126 28.1947 83.1419 28.5493 83.1686 28.912C83.1952 29.2693 83.2192 29.6267 83.2406 29.984C83.2619 30.336 83.2779 30.6747 83.2886 31H82.5526C82.5366 30.536 82.5152 30.0427 82.4886 29.52C82.4619 28.992 82.4219 28.464 82.3686 27.936C82.2832 28.1013 82.1846 28.3013 82.0726 28.536C81.9606 28.7653 81.8486 29 81.7366 29.24C81.6299 29.48 81.5286 29.7093 81.4326 29.928C81.3366 30.1467 81.2619 30.32 81.2086 30.448H80.5846C80.5259 30.3147 80.4459 30.1387 80.3446 29.92C80.2486 29.7013 80.1446 29.472 80.0326 29.232C79.9259 28.9867 79.8166 28.7493 79.7046 28.52C79.5926 28.2853 79.4939 28.0907 79.4086 27.936ZM85.9961 28.944C85.8521 28.944 85.7108 28.9493 85.5721 28.96C85.4388 28.9653 85.3188 28.9813 85.2121 29.008V30.44C85.2441 30.4453 85.2895 30.4507 85.3481 30.456C85.4121 30.4613 85.4788 30.4667 85.5481 30.472C85.6228 30.472 85.6975 30.4747 85.7721 30.48C85.8468 30.48 85.9135 30.48 85.9721 30.48C86.2975 30.48 86.5481 30.4187 86.7241 30.296C86.9001 30.1733 86.9881 29.976 86.9881 29.704C86.9881 29.5707 86.9588 29.456 86.9001 29.36C86.8468 29.264 86.7721 29.1867 86.6761 29.128C86.5855 29.064 86.4815 29.0187 86.3641 28.992C86.2468 28.96 86.1241 28.944 85.9961 28.944ZM84.4681 26.84H85.2121V28.432C85.3028 28.4107 85.4335 28.3893 85.6041 28.368C85.7801 28.3467 85.9481 28.336 86.1081 28.336C86.3268 28.336 86.5348 28.3627 86.7321 28.416C86.9295 28.464 87.1028 28.544 87.2521 28.656C87.4015 28.7627 87.5188 28.904 87.6041 29.08C87.6948 29.2507 87.7401 29.456 87.7401 29.696C87.7401 29.9467 87.6975 30.16 87.6121 30.336C87.5268 30.512 87.4068 30.656 87.2521 30.768C87.0975 30.88 86.9108 30.96 86.6921 31.008C86.4735 31.0613 86.2335 31.088 85.9721 31.088C85.7215 31.088 85.4681 31.072 85.2121 31.04C84.9561 31.0133 84.7081 30.9707 84.4681 30.912V26.84ZM89.2521 31H88.5081V26.84H89.2521V31ZM91.2586 30.44C91.2906 30.4453 91.336 30.4507 91.3946 30.456C91.4533 30.4613 91.52 30.4667 91.5946 30.472C91.6693 30.472 91.7466 30.4747 91.8266 30.48C91.912 30.48 91.992 30.48 92.0666 30.48C92.2213 30.48 92.368 30.4693 92.5066 30.448C92.6506 30.4267 92.7733 30.3893 92.8746 30.336C92.9813 30.2827 93.064 30.2133 93.1226 30.128C93.1866 30.0373 93.2186 29.9227 93.2186 29.784C93.2186 29.6507 93.1893 29.5413 93.1306 29.456C93.0773 29.3653 93.0026 29.2933 92.9066 29.24C92.8106 29.1867 92.696 29.1493 92.5626 29.128C92.4346 29.1067 92.296 29.096 92.1466 29.096H91.2586V30.44ZM92.0506 28.544C92.1946 28.544 92.3253 28.536 92.4426 28.52C92.5653 28.4987 92.6693 28.464 92.7546 28.416C92.8453 28.368 92.9146 28.304 92.9626 28.224C93.016 28.144 93.0426 28.0427 93.0426 27.92C93.0426 27.792 93.0106 27.6907 92.9466 27.616C92.8826 27.5413 92.7973 27.4853 92.6906 27.448C92.5893 27.4053 92.472 27.3787 92.3386 27.368C92.2106 27.352 92.08 27.344 91.9466 27.344C91.824 27.344 91.6986 27.3467 91.5706 27.352C91.448 27.3573 91.344 27.3627 91.2586 27.368V28.544H92.0506ZM92.0346 31.072C91.72 31.072 91.4293 31.056 91.1626 31.024C90.896 30.9973 90.6853 30.9653 90.5306 30.928V26.88C90.6853 26.8427 90.896 26.8107 91.1626 26.784C91.4293 26.752 91.72 26.736 92.0346 26.736C92.2533 26.736 92.4666 26.7547 92.6746 26.792C92.8826 26.8293 93.0666 26.8933 93.2266 26.984C93.3866 27.0693 93.5146 27.1893 93.6106 27.344C93.712 27.4933 93.7626 27.68 93.7626 27.904C93.7626 28.1067 93.712 28.28 93.6106 28.424C93.5093 28.568 93.3733 28.68 93.2026 28.76C93.432 28.84 93.6133 28.96 93.7466 29.12C93.8853 29.2747 93.9546 29.4933 93.9546 29.776C93.9546 30.0267 93.904 30.2347 93.8026 30.4C93.7066 30.5653 93.5706 30.6987 93.3946 30.8C93.224 30.9013 93.0213 30.9707 92.7866 31.008C92.552 31.0507 92.3013 31.072 92.0346 31.072ZM96.3214 30.464C96.4974 30.464 96.6521 30.4613 96.7854 30.456C96.9241 30.4453 97.0388 30.4293 97.1294 30.408V29.168C97.0761 29.1413 96.9881 29.12 96.8654 29.104C96.7481 29.0827 96.6041 29.072 96.4334 29.072C96.3214 29.072 96.2014 29.08 96.0734 29.096C95.9508 29.112 95.8361 29.1467 95.7294 29.2C95.6281 29.248 95.5428 29.3173 95.4734 29.408C95.4041 29.4933 95.3694 29.608 95.3694 29.752C95.3694 30.0187 95.4548 30.2053 95.6254 30.312C95.7961 30.4133 96.0281 30.464 96.3214 30.464ZM96.2574 26.736C96.5561 26.736 96.8068 26.776 97.0094 26.856C97.2174 26.9307 97.3828 27.04 97.5054 27.184C97.6334 27.3227 97.7241 27.4907 97.7774 27.688C97.8308 27.88 97.8574 28.0933 97.8574 28.328V30.928C97.7934 30.9387 97.7028 30.9547 97.5854 30.976C97.4734 30.992 97.3454 31.008 97.2014 31.024C97.0574 31.04 96.9001 31.0533 96.7294 31.064C96.5641 31.08 96.3988 31.088 96.2334 31.088C95.9988 31.088 95.7828 31.064 95.5854 31.016C95.3881 30.968 95.2174 30.8933 95.0734 30.792C94.9294 30.6853 94.8174 30.5467 94.7374 30.376C94.6574 30.2053 94.6174 30 94.6174 29.76C94.6174 29.5307 94.6628 29.3333 94.7534 29.168C94.8494 29.0027 94.9774 28.8693 95.1374 28.768C95.2974 28.6667 95.4841 28.592 95.6974 28.544C95.9108 28.496 96.1348 28.472 96.3694 28.472C96.4441 28.472 96.5214 28.4773 96.6014 28.488C96.6814 28.4933 96.7561 28.504 96.8254 28.52C96.9001 28.5307 96.9641 28.5413 97.0174 28.552C97.0708 28.5627 97.1081 28.5707 97.1294 28.576V28.368C97.1294 28.2453 97.1161 28.1253 97.0894 28.008C97.0628 27.8853 97.0148 27.7787 96.9454 27.688C96.8761 27.592 96.7801 27.5173 96.6574 27.464C96.5401 27.4053 96.3854 27.376 96.1934 27.376C95.9481 27.376 95.7321 27.3947 95.5454 27.432C95.3641 27.464 95.2281 27.4987 95.1374 27.536L95.0494 26.92C95.1454 26.8773 95.3054 26.8373 95.5294 26.8C95.7534 26.7573 95.9961 26.736 96.2574 26.736ZM100.541 27.464C100.541 27.64 100.536 27.8293 100.525 28.032C100.52 28.2293 100.506 28.4293 100.485 28.632C100.464 28.8293 100.434 29.0267 100.397 29.224C100.36 29.416 100.312 29.5973 100.253 29.768C100.194 29.9387 100.12 30.0987 100.029 30.248C99.9438 30.3973 99.8371 30.5307 99.7091 30.648C99.5811 30.76 99.4318 30.856 99.2611 30.936C99.0905 31.0107 98.8905 31.0587 98.6611 31.08L98.5571 30.456C98.8185 30.4027 99.0238 30.304 99.1731 30.16C99.3278 30.016 99.4505 29.84 99.5411 29.632C99.6211 29.4507 99.6798 29.2453 99.7171 29.016C99.7545 28.7867 99.7811 28.5493 99.7971 28.304C99.8131 28.0533 99.8211 27.8027 99.8211 27.552C99.8265 27.3013 99.8291 27.064 99.8291 26.84H102.597V31H101.853V27.464H100.541ZM105.45 30.48C105.765 30.48 106.013 30.4187 106.194 30.296C106.376 30.1733 106.466 29.976 106.466 29.704C106.466 29.5707 106.44 29.456 106.386 29.36C106.333 29.264 106.258 29.1867 106.162 29.128C106.072 29.064 105.965 29.0187 105.842 28.992C105.72 28.96 105.589 28.944 105.45 28.944C105.306 28.944 105.157 28.9493 105.002 28.96C104.853 28.9653 104.725 28.9813 104.618 29.008V30.44C104.65 30.4453 104.698 30.4507 104.762 30.456C104.826 30.4613 104.896 30.4667 104.97 30.472C105.05 30.472 105.13 30.4747 105.21 30.48C105.296 30.48 105.376 30.48 105.45 30.48ZM103.874 30.912V26.84H104.618V28.432C104.661 28.4213 104.717 28.4107 104.786 28.4C104.861 28.3893 104.938 28.3787 105.018 28.368C105.104 28.3573 105.192 28.3493 105.282 28.344C105.373 28.3387 105.458 28.336 105.538 28.336C105.768 28.336 105.984 28.3627 106.186 28.416C106.389 28.464 106.565 28.544 106.714 28.656C106.869 28.7627 106.992 28.904 107.082 29.08C107.173 29.2507 107.218 29.456 107.218 29.696C107.218 29.9467 107.176 30.16 107.09 30.336C107.005 30.512 106.882 30.656 106.722 30.768C106.562 30.88 106.37 30.96 106.146 31.008C105.928 31.0613 105.682 31.088 105.41 31.088C105.144 31.088 104.882 31.072 104.626 31.04C104.37 31.0133 104.12 30.9707 103.874 30.912ZM111.509 31H110.765V29.16H108.845V31H108.101V26.84H108.845V28.536H110.765V26.84H111.509V31ZM116.284 26.84V31H115.564V27.832C115.404 28.0347 115.228 28.272 115.036 28.544C114.844 28.816 114.652 29.0987 114.46 29.392C114.268 29.68 114.084 29.9653 113.908 30.248C113.732 30.5307 113.58 30.7813 113.452 31H112.788V26.84H113.508V29.832C113.647 29.6027 113.804 29.352 113.98 29.08C114.156 28.8027 114.338 28.5307 114.524 28.264C114.716 27.992 114.906 27.7333 115.092 27.488C115.284 27.2373 115.463 27.0213 115.628 26.84H116.284ZM119.082 28.736C119.247 28.8533 119.426 29.0027 119.618 29.184C119.81 29.36 119.997 29.552 120.178 29.76C120.365 29.968 120.538 30.1813 120.698 30.4C120.858 30.6133 120.994 30.8133 121.106 31H120.226C120.109 30.8187 119.97 30.6347 119.81 30.448C119.655 30.256 119.493 30.072 119.322 29.896C119.151 29.72 118.978 29.5573 118.802 29.408C118.626 29.2587 118.461 29.1333 118.306 29.032V31H117.562V26.84H118.306V28.624C118.434 28.5013 118.581 28.36 118.746 28.2C118.911 28.0347 119.077 27.8693 119.242 27.704C119.413 27.5333 119.57 27.3733 119.714 27.224C119.858 27.0693 119.975 26.9413 120.066 26.84H120.93C120.813 26.968 120.674 27.1147 120.514 27.28C120.359 27.44 120.197 27.6053 120.026 27.776C119.861 27.9467 119.695 28.1173 119.53 28.288C119.365 28.4533 119.215 28.6027 119.082 28.736ZM123.267 30.464C123.443 30.464 123.597 30.4613 123.731 30.456C123.869 30.4453 123.984 30.4293 124.075 30.408V29.168C124.021 29.1413 123.933 29.12 123.811 29.104C123.693 29.0827 123.549 29.072 123.379 29.072C123.267 29.072 123.147 29.08 123.019 29.096C122.896 29.112 122.781 29.1467 122.675 29.2C122.573 29.248 122.488 29.3173 122.419 29.408C122.349 29.4933 122.315 29.608 122.315 29.752C122.315 30.0187 122.4 30.2053 122.571 30.312C122.741 30.4133 122.973 30.464 123.267 30.464ZM123.203 26.736C123.501 26.736 123.752 26.776 123.955 26.856C124.163 26.9307 124.328 27.04 124.451 27.184C124.579 27.3227 124.669 27.4907 124.723 27.688C124.776 27.88 124.803 28.0933 124.803 28.328V30.928C124.739 30.9387 124.648 30.9547 124.531 30.976C124.419 30.992 124.291 31.008 124.147 31.024C124.003 31.04 123.845 31.0533 123.675 31.064C123.509 31.08 123.344 31.088 123.179 31.088C122.944 31.088 122.728 31.064 122.531 31.016C122.333 30.968 122.163 30.8933 122.019 30.792C121.875 30.6853 121.763 30.5467 121.683 30.376C121.603 30.2053 121.563 30 121.563 29.76C121.563 29.5307 121.608 29.3333 121.699 29.168C121.795 29.0027 121.923 28.8693 122.083 28.768C122.243 28.6667 122.429 28.592 122.643 28.544C122.856 28.496 123.08 28.472 123.315 28.472C123.389 28.472 123.467 28.4773 123.547 28.488C123.627 28.4933 123.701 28.504 123.771 28.52C123.845 28.5307 123.909 28.5413 123.963 28.552C124.016 28.5627 124.053 28.5707 124.075 28.576V28.368C124.075 28.2453 124.061 28.1253 124.035 28.008C124.008 27.8853 123.96 27.7787 123.891 27.688C123.821 27.592 123.725 27.5173 123.603 27.464C123.485 27.4053 123.331 27.376 123.139 27.376C122.893 27.376 122.677 27.3947 122.491 27.432C122.309 27.464 122.173 27.4987 122.083 27.536L121.995 26.92C122.091 26.8773 122.251 26.8373 122.475 26.8C122.699 26.7573 122.941 26.736 123.203 26.736ZM131.562 28.92C131.562 29.2507 131.514 29.5493 131.418 29.816C131.322 30.0827 131.186 30.312 131.01 30.504C130.839 30.696 130.634 30.8453 130.394 30.952C130.154 31.0533 129.893 31.104 129.61 31.104C129.327 31.104 129.066 31.0533 128.826 30.952C128.586 30.8453 128.378 30.696 128.202 30.504C128.031 30.312 127.898 30.0827 127.802 29.816C127.706 29.5493 127.658 29.2507 127.658 28.92C127.658 28.5947 127.706 28.2987 127.802 28.032C127.898 27.76 128.031 27.528 128.202 27.336C128.378 27.144 128.586 26.9973 128.826 26.896C129.066 26.7893 129.327 26.736 129.61 26.736C129.893 26.736 130.154 26.7893 130.394 26.896C130.634 26.9973 130.839 27.144 131.01 27.336C131.186 27.528 131.322 27.76 131.418 28.032C131.514 28.2987 131.562 28.5947 131.562 28.92ZM130.786 28.92C130.786 28.4507 130.679 28.08 130.466 27.808C130.258 27.5307 129.973 27.392 129.61 27.392C129.247 27.392 128.959 27.5307 128.746 27.808C128.538 28.08 128.434 28.4507 128.434 28.92C128.434 29.3893 128.538 29.7627 128.746 30.04C128.959 30.312 129.247 30.448 129.61 30.448C129.973 30.448 130.258 30.312 130.466 30.04C130.679 29.7627 130.786 29.3893 130.786 28.92ZM132.097 30.392H132.545C132.721 30.136 132.859 29.872 132.961 29.6C133.067 29.328 133.147 29.048 133.201 28.76C133.254 28.4667 133.289 28.1627 133.305 27.848C133.321 27.528 133.331 27.192 133.337 26.84H136.065V30.392H136.625V32.16H135.921V31H132.801V32.16H132.097V30.392ZM135.321 30.392V27.464H134.017C134.011 27.7147 133.998 27.968 133.977 28.224C133.955 28.4747 133.921 28.7253 133.873 28.976C133.825 29.2213 133.755 29.464 133.665 29.704C133.579 29.9387 133.47 30.168 133.337 30.392H135.321ZM140.837 31H140.093V29.16H138.173V31H137.429V26.84H138.173V28.536H140.093V26.84H140.837V31ZM145.789 28.92C145.789 29.2507 145.741 29.5493 145.645 29.816C145.549 30.0827 145.413 30.312 145.237 30.504C145.066 30.696 144.861 30.8453 144.621 30.952C144.381 31.0533 144.119 31.104 143.837 31.104C143.554 31.104 143.293 31.0533 143.053 30.952C142.813 30.8453 142.605 30.696 142.429 30.504C142.258 30.312 142.125 30.0827 142.029 29.816C141.933 29.5493 141.885 29.2507 141.885 28.92C141.885 28.5947 141.933 28.2987 142.029 28.032C142.125 27.76 142.258 27.528 142.429 27.336C142.605 27.144 142.813 26.9973 143.053 26.896C143.293 26.7893 143.554 26.736 143.837 26.736C144.119 26.736 144.381 26.7893 144.621 26.896C144.861 26.9973 145.066 27.144 145.237 27.336C145.413 27.528 145.549 27.76 145.645 28.032C145.741 28.2987 145.789 28.5947 145.789 28.92ZM145.013 28.92C145.013 28.4507 144.906 28.08 144.693 27.808C144.485 27.5307 144.199 27.392 143.837 27.392C143.474 27.392 143.186 27.5307 142.973 27.808C142.765 28.08 142.661 28.4507 142.661 28.92C142.661 29.3893 142.765 29.7627 142.973 30.04C143.186 30.312 143.474 30.448 143.837 30.448C144.199 30.448 144.485 30.312 144.693 30.04C144.906 29.7627 145.013 29.3893 145.013 28.92ZM149.723 28.928C149.723 28.4427 149.603 28.0693 149.363 27.808C149.123 27.5467 148.803 27.416 148.403 27.416C148.179 27.416 148.003 27.424 147.875 27.44C147.753 27.456 147.654 27.4747 147.579 27.496V30.12C147.67 30.1947 147.801 30.2667 147.971 30.336C148.142 30.4053 148.329 30.44 148.531 30.44C148.745 30.44 148.926 30.4027 149.075 30.328C149.23 30.248 149.355 30.1413 149.451 30.008C149.547 29.8693 149.617 29.7093 149.659 29.528C149.702 29.3413 149.723 29.1413 149.723 28.928ZM150.499 28.928C150.499 29.2427 150.457 29.5333 150.371 29.8C150.291 30.0667 150.171 30.296 150.011 30.488C149.851 30.68 149.654 30.8293 149.419 30.936C149.19 31.0427 148.926 31.096 148.627 31.096C148.387 31.096 148.174 31.064 147.987 31C147.806 30.936 147.67 30.8747 147.579 30.816V32.48H146.835V26.968C147.011 26.9253 147.23 26.88 147.491 26.832C147.758 26.7787 148.065 26.752 148.411 26.752C148.731 26.752 149.019 26.8027 149.275 26.904C149.531 27.0053 149.75 27.1493 149.931 27.336C150.113 27.5227 150.251 27.752 150.347 28.024C150.449 28.2907 150.499 28.592 150.499 28.928ZM150.949 31.776C151.008 31.8027 151.082 31.8267 151.173 31.848C151.269 31.8747 151.362 31.888 151.453 31.888C151.746 31.888 151.976 31.8213 152.141 31.688C152.306 31.56 152.456 31.3493 152.589 31.056C152.253 30.416 151.938 29.7387 151.645 29.024C151.357 28.304 151.117 27.576 150.925 26.84H151.725C151.784 27.08 151.853 27.3387 151.933 27.616C152.018 27.8933 152.112 28.1787 152.213 28.472C152.314 28.7653 152.424 29.0587 152.541 29.352C152.658 29.6453 152.781 29.928 152.909 30.2C153.112 29.64 153.288 29.0853 153.437 28.536C153.586 27.9867 153.728 27.4213 153.861 26.84H154.629C154.437 27.624 154.224 28.3787 153.989 29.104C153.754 29.824 153.501 30.4987 153.229 31.128C153.122 31.368 153.01 31.5733 152.893 31.744C152.781 31.92 152.656 32.064 152.517 32.176C152.378 32.288 152.221 32.3707 152.045 32.424C151.874 32.4773 151.68 32.504 151.461 32.504C151.402 32.504 151.341 32.4987 151.277 32.488C151.213 32.4827 151.149 32.472 151.085 32.456C151.026 32.4453 150.97 32.432 150.917 32.416C150.869 32.4 150.834 32.3867 150.813 32.376L150.949 31.776ZM156.933 28.736C157.099 28.8533 157.277 29.0027 157.469 29.184C157.661 29.36 157.848 29.552 158.029 29.76C158.216 29.968 158.389 30.1813 158.549 30.4C158.709 30.6133 158.845 30.8133 158.957 31H158.077C157.96 30.8187 157.821 30.6347 157.661 30.448C157.507 30.256 157.344 30.072 157.173 29.896C157.003 29.72 156.829 29.5573 156.653 29.408C156.477 29.2587 156.312 29.1333 156.157 29.032V31H155.413V26.84H156.157V28.624C156.285 28.5013 156.432 28.36 156.597 28.2C156.763 28.0347 156.928 27.8693 157.093 27.704C157.264 27.5333 157.421 27.3733 157.565 27.224C157.709 27.0693 157.827 26.9413 157.917 26.84H158.781C158.664 26.968 158.525 27.1147 158.365 27.28C158.211 27.44 158.048 27.6053 157.877 27.776C157.712 27.9467 157.547 28.1173 157.381 28.288C157.216 28.4533 157.067 28.6027 156.933 28.736ZM163.148 28.92C163.148 29.2507 163.1 29.5493 163.004 29.816C162.908 30.0827 162.772 30.312 162.596 30.504C162.425 30.696 162.22 30.8453 161.98 30.952C161.74 31.0533 161.479 31.104 161.196 31.104C160.913 31.104 160.652 31.0533 160.412 30.952C160.172 30.8453 159.964 30.696 159.788 30.504C159.617 30.312 159.484 30.0827 159.388 29.816C159.292 29.5493 159.244 29.2507 159.244 28.92C159.244 28.5947 159.292 28.2987 159.388 28.032C159.484 27.76 159.617 27.528 159.788 27.336C159.964 27.144 160.172 26.9973 160.412 26.896C160.652 26.7893 160.913 26.736 161.196 26.736C161.479 26.736 161.74 26.7893 161.98 26.896C162.22 26.9973 162.425 27.144 162.596 27.336C162.772 27.528 162.908 27.76 163.004 28.032C163.1 28.2987 163.148 28.5947 163.148 28.92ZM162.372 28.92C162.372 28.4507 162.265 28.08 162.052 27.808C161.844 27.5307 161.559 27.392 161.196 27.392C160.833 27.392 160.545 27.5307 160.332 27.808C160.124 28.08 160.02 28.4507 160.02 28.92C160.02 29.3893 160.124 29.7627 160.332 30.04C160.545 30.312 160.833 30.448 161.196 30.448C161.559 30.448 161.844 30.312 162.052 30.04C162.265 29.7627 162.372 29.3893 162.372 28.92ZM165.915 29.384C165.835 29.384 165.757 29.384 165.683 29.384C165.608 29.3787 165.536 29.3733 165.467 29.368C165.296 29.624 165.131 29.8987 164.971 30.192C164.816 30.48 164.677 30.7493 164.555 31H163.803C163.867 30.8453 163.941 30.688 164.027 30.528C164.112 30.3627 164.197 30.2027 164.283 30.048C164.373 29.8933 164.464 29.7467 164.555 29.608C164.645 29.4693 164.731 29.344 164.811 29.232C164.661 29.1787 164.539 29.1147 164.443 29.04C164.347 28.96 164.269 28.872 164.211 28.776C164.152 28.68 164.109 28.5787 164.083 28.472C164.061 28.36 164.051 28.248 164.051 28.136C164.051 27.9013 164.093 27.696 164.179 27.52C164.269 27.344 164.392 27.2 164.547 27.088C164.701 26.9707 164.883 26.8827 165.091 26.824C165.304 26.7653 165.536 26.736 165.787 26.736C166.139 26.736 166.437 26.752 166.683 26.784C166.928 26.816 167.133 26.8533 167.299 26.896V31H166.563V29.384H165.915ZM166.563 27.392C166.504 27.3813 166.405 27.3707 166.267 27.36C166.133 27.3493 165.979 27.344 165.803 27.344C165.499 27.344 165.253 27.408 165.067 27.536C164.88 27.6587 164.787 27.856 164.787 28.128C164.787 28.3947 164.883 28.5787 165.075 28.68C165.267 28.7813 165.515 28.832 165.819 28.832H166.563V27.392ZM171.514 26.84V27.464H170.162V31H169.418V27.464H168.066V26.84H171.514ZM175.953 28.92C175.953 29.2507 175.905 29.5493 175.809 29.816C175.713 30.0827 175.577 30.312 175.401 30.504C175.23 30.696 175.025 30.8453 174.785 30.952C174.545 31.0533 174.283 31.104 174.001 31.104C173.718 31.104 173.457 31.0533 173.217 30.952C172.977 30.8453 172.769 30.696 172.593 30.504C172.422 30.312 172.289 30.0827 172.193 29.816C172.097 29.5493 172.049 29.2507 172.049 28.92C172.049 28.5947 172.097 28.2987 172.193 28.032C172.289 27.76 172.422 27.528 172.593 27.336C172.769 27.144 172.977 26.9973 173.217 26.896C173.457 26.7893 173.718 26.736 174.001 26.736C174.283 26.736 174.545 26.7893 174.785 26.896C175.025 26.9973 175.23 27.144 175.401 27.336C175.577 27.528 175.713 27.76 175.809 28.032C175.905 28.2987 175.953 28.5947 175.953 28.92ZM175.177 28.92C175.177 28.4507 175.07 28.08 174.857 27.808C174.649 27.5307 174.363 27.392 174.001 27.392C173.638 27.392 173.35 27.5307 173.137 27.808C172.929 28.08 172.825 28.4507 172.825 28.92C172.825 29.3893 172.929 29.7627 173.137 30.04C173.35 30.312 173.638 30.448 174.001 30.448C174.363 30.448 174.649 30.312 174.857 30.04C175.07 29.7627 175.177 29.3893 175.177 28.92ZM177.471 26.84V28.064C177.471 28.3787 177.551 28.6 177.711 28.728C177.871 28.8507 178.09 28.912 178.367 28.912C178.57 28.912 178.738 28.9013 178.871 28.88C179.01 28.8587 179.133 28.8347 179.239 28.808V26.84H179.983V31H179.239V29.384C179.197 29.3947 179.141 29.408 179.071 29.424C179.002 29.44 178.922 29.456 178.831 29.472C178.746 29.4827 178.655 29.4933 178.559 29.504C178.463 29.5147 178.37 29.52 178.279 29.52C178.05 29.52 177.839 29.496 177.647 29.448C177.461 29.4 177.298 29.32 177.159 29.208C177.026 29.096 176.919 28.9493 176.839 28.768C176.765 28.5813 176.727 28.3493 176.727 28.072V26.84H177.471ZM184.673 31H183.929V29.16H182.009V31H181.265V26.84H182.009V28.536H183.929V26.84H184.673V31ZM187.481 28.944C187.337 28.944 187.195 28.9493 187.057 28.96C186.923 28.9653 186.803 28.9813 186.697 29.008V30.44C186.729 30.4453 186.774 30.4507 186.833 30.456C186.897 30.4613 186.963 30.4667 187.033 30.472C187.107 30.472 187.182 30.4747 187.257 30.48C187.331 30.48 187.398 30.48 187.457 30.48C187.782 30.48 188.033 30.4187 188.209 30.296C188.385 30.1733 188.473 29.976 188.473 29.704C188.473 29.5707 188.443 29.456 188.385 29.36C188.331 29.264 188.257 29.1867 188.161 29.128C188.07 29.064 187.966 29.0187 187.849 28.992C187.731 28.96 187.609 28.944 187.481 28.944ZM185.953 26.84H186.697V28.432C186.787 28.4107 186.918 28.3893 187.089 28.368C187.265 28.3467 187.433 28.336 187.593 28.336C187.811 28.336 188.019 28.3627 188.217 28.416C188.414 28.464 188.587 28.544 188.737 28.656C188.886 28.7627 189.003 28.904 189.089 29.08C189.179 29.2507 189.225 29.456 189.225 29.696C189.225 29.9467 189.182 30.16 189.097 30.336C189.011 30.512 188.891 30.656 188.737 30.768C188.582 30.88 188.395 30.96 188.177 31.008C187.958 31.0613 187.718 31.088 187.457 31.088C187.206 31.088 186.953 31.072 186.697 31.04C186.441 31.0133 186.193 30.9707 185.953 30.912V26.84ZM190.737 31H189.993V26.84H190.737V31ZM195.511 26.84V31H194.791V27.832C194.631 28.0347 194.455 28.272 194.263 28.544C194.071 28.816 193.879 29.0987 193.687 29.392C193.495 29.68 193.311 29.9653 193.135 30.248C192.959 30.5307 192.807 30.7813 192.679 31H192.015V26.84H192.735V29.832C192.874 29.6027 193.031 29.352 193.207 29.08C193.383 28.8027 193.564 28.5307 193.751 28.264C193.943 27.992 194.132 27.7333 194.319 27.488C194.511 27.2373 194.69 27.0213 194.855 26.84H195.511ZM193.767 26.168C193.431 26.168 193.156 26.0827 192.943 25.912C192.735 25.7413 192.61 25.504 192.567 25.2L193.135 25.048C193.178 25.2187 193.25 25.3573 193.351 25.464C193.452 25.5707 193.591 25.624 193.767 25.624C193.943 25.624 194.082 25.5707 194.183 25.464C194.284 25.3573 194.356 25.2187 194.399 25.048L194.959 25.2C194.916 25.504 194.791 25.7413 194.583 25.912C194.375 26.0827 194.103 26.168 193.767 26.168ZM76.448 40.096C76.112 40.096 75.816 40.0427 75.56 39.936C75.3093 39.8293 75.096 39.68 74.92 39.488C74.7493 39.296 74.6213 39.0693 74.536 38.808C74.4507 38.5413 74.408 38.248 74.408 37.928C74.408 37.608 74.4533 37.3147 74.544 37.048C74.64 36.7813 74.7733 36.552 74.944 36.36C75.1147 36.1627 75.3227 36.0107 75.568 35.904C75.8187 35.792 76.096 35.736 76.4 35.736C76.5867 35.736 76.7733 35.752 76.96 35.784C77.1467 35.816 77.3253 35.8667 77.496 35.936L77.328 36.568C77.216 36.5147 77.0853 36.472 76.936 36.44C76.792 36.408 76.6373 36.392 76.472 36.392C76.056 36.392 75.736 36.5227 75.512 36.784C75.2933 37.0453 75.184 37.4267 75.184 37.928C75.184 38.152 75.208 38.3573 75.256 38.544C75.3093 38.7307 75.3893 38.8907 75.496 39.024C75.608 39.1573 75.7493 39.2613 75.92 39.336C76.0907 39.4053 76.2987 39.44 76.544 39.44C76.7413 39.44 76.92 39.4213 77.08 39.384C77.24 39.3467 77.3653 39.3067 77.456 39.264L77.56 39.888C77.5173 39.9147 77.456 39.9413 77.376 39.968C77.296 39.9893 77.2053 40.008 77.104 40.024C77.0027 40.0453 76.8933 40.0613 76.776 40.072C76.664 40.088 76.5547 40.096 76.448 40.096ZM82.6983 40C82.6396 39.8827 82.5676 39.752 82.4823 39.608C82.397 39.464 82.3036 39.3173 82.2023 39.168C82.101 39.0133 81.997 38.8613 81.8903 38.712C81.7836 38.5627 81.6796 38.4213 81.5783 38.288C81.477 38.4213 81.373 38.5653 81.2663 38.72C81.1596 38.8693 81.0556 39.0213 80.9543 39.176C80.8583 39.3253 80.7676 39.472 80.6823 39.616C80.597 39.76 80.525 39.888 80.4663 40H79.6983C79.885 39.6373 80.1063 39.2693 80.3623 38.896C80.6236 38.5173 80.8823 38.1573 81.1383 37.816L79.7623 35.84H80.6023L81.5943 37.296L82.5943 35.84H83.3863L82.0423 37.768C82.2983 38.1147 82.5596 38.4827 82.8263 38.872C83.0983 39.256 83.3276 39.632 83.5143 40H82.6983ZM87.7923 35.84V40H87.0723V36.832C86.9123 37.0347 86.7363 37.272 86.5443 37.544C86.3523 37.816 86.1603 38.0987 85.9683 38.392C85.7763 38.68 85.5923 38.9653 85.4163 39.248C85.2403 39.5307 85.0883 39.7813 84.9603 40H84.2963V35.84H85.0163V38.832C85.1549 38.6027 85.3123 38.352 85.4883 38.08C85.6643 37.8027 85.8456 37.5307 86.0323 37.264C86.2243 36.992 86.4136 36.7333 86.6003 36.488C86.7923 36.2373 86.9709 36.0213 87.1363 35.84H87.7923ZM91.9577 37.928C91.9577 37.4427 91.8377 37.0693 91.5977 36.808C91.3577 36.5467 91.0377 36.416 90.6377 36.416C90.4137 36.416 90.2377 36.424 90.1097 36.44C89.987 36.456 89.8884 36.4747 89.8137 36.496V39.12C89.9044 39.1947 90.035 39.2667 90.2057 39.336C90.3764 39.4053 90.563 39.44 90.7657 39.44C90.979 39.44 91.1604 39.4027 91.3097 39.328C91.4644 39.248 91.5897 39.1413 91.6857 39.008C91.7817 38.8693 91.851 38.7093 91.8937 38.528C91.9364 38.3413 91.9577 38.1413 91.9577 37.928ZM92.7337 37.928C92.7337 38.2427 92.691 38.5333 92.6057 38.8C92.5257 39.0667 92.4057 39.296 92.2457 39.488C92.0857 39.68 91.8884 39.8293 91.6537 39.936C91.4244 40.0427 91.1604 40.096 90.8617 40.096C90.6217 40.096 90.4084 40.064 90.2217 40C90.0404 39.936 89.9044 39.8747 89.8137 39.816V41.48H89.0697V35.968C89.2457 35.9253 89.4644 35.88 89.7257 35.832C89.9924 35.7787 90.299 35.752 90.6457 35.752C90.9657 35.752 91.2537 35.8027 91.5097 35.904C91.7657 36.0053 91.9844 36.1493 92.1657 36.336C92.347 36.5227 92.4857 36.752 92.5817 37.024C92.683 37.2907 92.7337 37.592 92.7337 37.928ZM93.1833 40.776C93.2419 40.8027 93.3166 40.8267 93.4073 40.848C93.5033 40.8747 93.5966 40.888 93.6873 40.888C93.9806 40.888 94.2099 40.8213 94.3753 40.688C94.5406 40.56 94.6899 40.3493 94.8233 40.056C94.4873 39.416 94.1726 38.7387 93.8793 38.024C93.5913 37.304 93.3513 36.576 93.1593 35.84H93.9593C94.0179 36.08 94.0873 36.3387 94.1673 36.616C94.2526 36.8933 94.3459 37.1787 94.4473 37.472C94.5486 37.7653 94.6579 38.0587 94.7753 38.352C94.8926 38.6453 95.0153 38.928 95.1432 39.2C95.3459 38.64 95.5219 38.0853 95.6713 37.536C95.8206 36.9867 95.9619 36.4213 96.0953 35.84H96.8633C96.6713 36.624 96.4579 37.3787 96.2233 38.104C95.9886 38.824 95.7353 39.4987 95.4633 40.128C95.3566 40.368 95.2446 40.5733 95.1273 40.744C95.0153 40.92 94.8899 41.064 94.7513 41.176C94.6126 41.288 94.4553 41.3707 94.2793 41.424C94.1086 41.4773 93.9139 41.504 93.6953 41.504C93.6366 41.504 93.5753 41.4987 93.5113 41.488C93.4473 41.4827 93.3833 41.472 93.3193 41.456C93.2606 41.4453 93.2046 41.432 93.1513 41.416C93.1033 41.4 93.0686 41.3867 93.0473 41.376L93.1833 40.776ZM100.536 37.928C100.536 37.4427 100.416 37.0693 100.176 36.808C99.9358 36.5467 99.6158 36.416 99.2158 36.416C98.9918 36.416 98.8158 36.424 98.6878 36.44C98.5651 36.456 98.4665 36.4747 98.3918 36.496V39.12C98.4825 39.1947 98.6131 39.2667 98.7838 39.336C98.9545 39.4053 99.1411 39.44 99.3438 39.44C99.5571 39.44 99.7385 39.4027 99.8878 39.328C100.042 39.248 100.168 39.1413 100.264 39.008C100.36 38.8693 100.429 38.7093 100.472 38.528C100.514 38.3413 100.536 38.1413 100.536 37.928ZM101.312 37.928C101.312 38.2427 101.269 38.5333 101.184 38.8C101.104 39.0667 100.984 39.296 100.824 39.488C100.664 39.68 100.466 39.8293 100.232 39.936C100.002 40.0427 99.7385 40.096 99.4398 40.096C99.1998 40.096 98.9865 40.064 98.7998 40C98.6185 39.936 98.4825 39.8747 98.3918 39.816V41.48H97.6478V35.968C97.8238 35.9253 98.0425 35.88 98.3038 35.832C98.5705 35.7787 98.8771 35.752 99.2238 35.752C99.5438 35.752 99.8318 35.8027 100.088 35.904C100.344 36.0053 100.562 36.1493 100.744 36.336C100.925 36.5227 101.064 36.752 101.16 37.024C101.261 37.2907 101.312 37.592 101.312 37.928ZM104.935 36.464H103.103V40H102.359V35.84H104.935V36.464ZM109.199 35.84V40H108.479V36.832C108.319 37.0347 108.143 37.272 107.951 37.544C107.759 37.816 107.567 38.0987 107.375 38.392C107.183 38.68 106.999 38.9653 106.823 39.248C106.647 39.5307 106.495 39.7813 106.367 40H105.703V35.84H106.423V38.832C106.561 38.6027 106.719 38.352 106.895 38.08C107.071 37.8027 107.252 37.5307 107.439 37.264C107.631 36.992 107.82 36.7333 108.007 36.488C108.199 36.2373 108.377 36.0213 108.543 35.84H109.199ZM110.948 35.84V37.064C110.948 37.3787 111.028 37.6 111.188 37.728C111.348 37.8507 111.567 37.912 111.844 37.912C112.047 37.912 112.215 37.9013 112.348 37.88C112.487 37.8587 112.609 37.8347 112.716 37.808V35.84H113.46V40H112.716V38.384C112.673 38.3947 112.617 38.408 112.548 38.424C112.479 38.44 112.399 38.456 112.308 38.472C112.223 38.4827 112.132 38.4933 112.036 38.504C111.94 38.5147 111.847 38.52 111.756 38.52C111.527 38.52 111.316 38.496 111.124 38.448C110.937 38.4 110.775 38.32 110.636 38.208C110.503 38.096 110.396 37.9493 110.316 37.768C110.241 37.5813 110.204 37.3493 110.204 37.072V35.84H110.948ZM114.51 37.928C114.51 37.56 114.563 37.24 114.67 36.968C114.776 36.6907 114.918 36.4613 115.094 36.28C115.27 36.0987 115.472 35.9627 115.702 35.872C115.931 35.7813 116.166 35.736 116.406 35.736C116.966 35.736 117.395 35.912 117.694 36.264C117.992 36.6107 118.142 37.1413 118.142 37.856C118.142 37.888 118.142 37.9307 118.142 37.984C118.142 38.032 118.139 38.0773 118.134 38.12H115.286C115.318 38.552 115.443 38.88 115.662 39.104C115.88 39.328 116.222 39.44 116.686 39.44C116.947 39.44 117.166 39.4187 117.342 39.376C117.523 39.328 117.659 39.2827 117.75 39.24L117.854 39.864C117.763 39.912 117.603 39.9627 117.374 40.016C117.15 40.0693 116.894 40.096 116.606 40.096C116.243 40.096 115.928 40.0427 115.662 39.936C115.4 39.824 115.184 39.672 115.014 39.48C114.843 39.288 114.715 39.0613 114.63 38.8C114.55 38.5333 114.51 38.2427 114.51 37.928ZM117.366 37.52C117.371 37.184 117.286 36.9093 117.11 36.696C116.939 36.4773 116.702 36.368 116.398 36.368C116.227 36.368 116.075 36.4027 115.942 36.472C115.814 36.536 115.704 36.6213 115.614 36.728C115.523 36.8347 115.451 36.9573 115.398 37.096C115.35 37.2347 115.318 37.376 115.302 37.52H117.366ZM121.018 40.096C120.682 40.096 120.386 40.0427 120.13 39.936C119.88 39.8293 119.666 39.68 119.49 39.488C119.32 39.296 119.192 39.0693 119.106 38.808C119.021 38.5413 118.978 38.248 118.978 37.928C118.978 37.608 119.024 37.3147 119.114 37.048C119.21 36.7813 119.344 36.552 119.514 36.36C119.685 36.1627 119.893 36.0107 120.138 35.904C120.389 35.792 120.666 35.736 120.97 35.736C121.157 35.736 121.344 35.752 121.53 35.784C121.717 35.816 121.896 35.8667 122.066 35.936L121.898 36.568C121.786 36.5147 121.656 36.472 121.506 36.44C121.362 36.408 121.208 36.392 121.042 36.392C120.626 36.392 120.306 36.5227 120.082 36.784C119.864 37.0453 119.754 37.4267 119.754 37.928C119.754 38.152 119.778 38.3573 119.826 38.544C119.88 38.7307 119.96 38.8907 120.066 39.024C120.178 39.1573 120.32 39.2613 120.49 39.336C120.661 39.4053 120.869 39.44 121.114 39.44C121.312 39.44 121.49 39.4213 121.65 39.384C121.81 39.3467 121.936 39.3067 122.026 39.264L122.13 39.888C122.088 39.9147 122.026 39.9413 121.946 39.968C121.866 39.9893 121.776 40.008 121.674 40.024C121.573 40.0453 121.464 40.0613 121.346 40.072C121.234 40.088 121.125 40.096 121.018 40.096ZM124.449 37.736C124.614 37.8533 124.793 38.0027 124.985 38.184C125.177 38.36 125.364 38.552 125.545 38.76C125.732 38.968 125.905 39.1813 126.065 39.4C126.225 39.6133 126.361 39.8133 126.473 40H125.593C125.476 39.8187 125.337 39.6347 125.177 39.448C125.022 39.256 124.86 39.072 124.689 38.896C124.518 38.72 124.345 38.5573 124.169 38.408C123.993 38.2587 123.828 38.1333 123.673 38.032V40H122.929V35.84H123.673V37.624C123.801 37.5013 123.948 37.36 124.113 37.2C124.278 37.0347 124.444 36.8693 124.609 36.704C124.78 36.5333 124.937 36.3733 125.081 36.224C125.225 36.0693 125.342 35.9413 125.433 35.84H126.297C126.18 35.968 126.041 36.1147 125.881 36.28C125.726 36.44 125.564 36.6053 125.393 36.776C125.228 36.9467 125.062 37.1173 124.897 37.288C124.732 37.4533 124.582 37.6027 124.449 37.736ZM130.664 37.92C130.664 38.2507 130.616 38.5493 130.52 38.816C130.424 39.0827 130.288 39.312 130.112 39.504C129.941 39.696 129.736 39.8453 129.496 39.952C129.256 40.0533 128.994 40.104 128.712 40.104C128.429 40.104 128.168 40.0533 127.928 39.952C127.688 39.8453 127.48 39.696 127.304 39.504C127.133 39.312 127 39.0827 126.904 38.816C126.808 38.5493 126.76 38.2507 126.76 37.92C126.76 37.5947 126.808 37.2987 126.904 37.032C127 36.76 127.133 36.528 127.304 36.336C127.48 36.144 127.688 35.9973 127.928 35.896C128.168 35.7893 128.429 35.736 128.712 35.736C128.994 35.736 129.256 35.7893 129.496 35.896C129.736 35.9973 129.941 36.144 130.112 36.336C130.288 36.528 130.424 36.76 130.52 37.032C130.616 37.2987 130.664 37.5947 130.664 37.92ZM129.888 37.92C129.888 37.4507 129.781 37.08 129.568 36.808C129.36 36.5307 129.074 36.392 128.712 36.392C128.349 36.392 128.061 36.5307 127.848 36.808C127.64 37.08 127.536 37.4507 127.536 37.92C127.536 38.3893 127.64 38.7627 127.848 39.04C128.061 39.312 128.349 39.448 128.712 39.448C129.074 39.448 129.36 39.312 129.568 39.04C129.781 38.7627 129.888 38.3893 129.888 37.92ZM135.206 35.84V40H134.486V36.832C134.326 37.0347 134.15 37.272 133.958 37.544C133.766 37.816 133.574 38.0987 133.382 38.392C133.19 38.68 133.006 38.9653 132.83 39.248C132.654 39.5307 132.502 39.7813 132.374 40H131.71V35.84H132.43V38.832C132.569 38.6027 132.726 38.352 132.902 38.08C133.078 37.8027 133.26 37.5307 133.446 37.264C133.638 36.992 133.828 36.7333 134.014 36.488C134.206 36.2373 134.385 36.0213 134.55 35.84H135.206ZM133.462 35.168C133.126 35.168 132.852 35.0827 132.638 34.912C132.43 34.7413 132.305 34.504 132.262 34.2L132.83 34.048C132.873 34.2187 132.945 34.3573 133.046 34.464C133.148 34.5707 133.286 34.624 133.462 34.624C133.638 34.624 133.777 34.5707 133.878 34.464C133.98 34.3573 134.052 34.2187 134.094 34.048L134.654 34.2C134.612 34.504 134.486 34.7413 134.278 34.912C134.07 35.0827 133.798 35.168 133.462 35.168ZM141.223 37.928C141.223 37.4427 141.103 37.0693 140.863 36.808C140.623 36.5467 140.303 36.416 139.903 36.416C139.679 36.416 139.503 36.424 139.375 36.44C139.253 36.456 139.154 36.4747 139.079 36.496V39.12C139.17 39.1947 139.301 39.2667 139.471 39.336C139.642 39.4053 139.829 39.44 140.031 39.44C140.245 39.44 140.426 39.4027 140.575 39.328C140.73 39.248 140.855 39.1413 140.951 39.008C141.047 38.8693 141.117 38.7093 141.159 38.528C141.202 38.3413 141.223 38.1413 141.223 37.928ZM141.999 37.928C141.999 38.2427 141.957 38.5333 141.871 38.8C141.791 39.0667 141.671 39.296 141.511 39.488C141.351 39.68 141.154 39.8293 140.919 39.936C140.69 40.0427 140.426 40.096 140.127 40.096C139.887 40.096 139.674 40.064 139.487 40C139.306 39.936 139.17 39.8747 139.079 39.816V41.48H138.335V35.968C138.511 35.9253 138.73 35.88 138.991 35.832C139.258 35.7787 139.565 35.752 139.911 35.752C140.231 35.752 140.519 35.8027 140.775 35.904C141.031 36.0053 141.25 36.1493 141.431 36.336C141.613 36.5227 141.751 36.752 141.847 37.024C141.949 37.2907 141.999 37.592 141.999 37.928ZM142.449 40.776C142.508 40.8027 142.582 40.8267 142.673 40.848C142.769 40.8747 142.862 40.888 142.953 40.888C143.246 40.888 143.476 40.8213 143.641 40.688C143.806 40.56 143.956 40.3493 144.089 40.056C143.753 39.416 143.438 38.7387 143.145 38.024C142.857 37.304 142.617 36.576 142.425 35.84H143.225C143.284 36.08 143.353 36.3387 143.433 36.616C143.518 36.8933 143.612 37.1787 143.713 37.472C143.814 37.7653 143.924 38.0587 144.041 38.352C144.158 38.6453 144.281 38.928 144.409 39.2C144.612 38.64 144.788 38.0853 144.937 37.536C145.086 36.9867 145.228 36.4213 145.361 35.84H146.129C145.937 36.624 145.724 37.3787 145.489 38.104C145.254 38.824 145.001 39.4987 144.729 40.128C144.622 40.368 144.51 40.5733 144.393 40.744C144.281 40.92 144.156 41.064 144.017 41.176C143.878 41.288 143.721 41.3707 143.545 41.424C143.374 41.4773 143.18 41.504 142.961 41.504C142.902 41.504 142.841 41.4987 142.777 41.488C142.713 41.4827 142.649 41.472 142.585 41.456C142.526 41.4453 142.47 41.432 142.417 41.416C142.369 41.4 142.334 41.3867 142.313 41.376L142.449 40.776ZM147.385 35.84V37.064C147.385 37.3787 147.465 37.6 147.625 37.728C147.785 37.8507 148.004 37.912 148.281 37.912C148.484 37.912 148.652 37.9013 148.785 37.88C148.924 37.8587 149.047 37.8347 149.153 37.808V35.84H149.897V40H149.153V38.384C149.111 38.3947 149.055 38.408 148.985 38.424C148.916 38.44 148.836 38.456 148.745 38.472C148.66 38.4827 148.569 38.4933 148.473 38.504C148.377 38.5147 148.284 38.52 148.193 38.52C147.964 38.52 147.753 38.496 147.561 38.448C147.375 38.4 147.212 38.32 147.073 38.208C146.94 38.096 146.833 37.9493 146.753 37.768C146.679 37.5813 146.641 37.3493 146.641 37.072V35.84H147.385ZM152.699 37.736C152.864 37.8533 153.043 38.0027 153.235 38.184C153.427 38.36 153.614 38.552 153.795 38.76C153.982 38.968 154.155 39.1813 154.315 39.4C154.475 39.6133 154.611 39.8133 154.723 40H153.843C153.726 39.8187 153.587 39.6347 153.427 39.448C153.272 39.256 153.11 39.072 152.939 38.896C152.768 38.72 152.595 38.5573 152.419 38.408C152.243 38.2587 152.078 38.1333 151.923 38.032V40H151.179V35.84H151.923V37.624C152.051 37.5013 152.198 37.36 152.363 37.2C152.528 37.0347 152.694 36.8693 152.859 36.704C153.03 36.5333 153.187 36.3733 153.331 36.224C153.475 36.0693 153.592 35.9413 153.683 35.84H154.547C154.43 35.968 154.291 36.1147 154.131 36.28C153.976 36.44 153.814 36.6053 153.643 36.776C153.478 36.9467 153.312 37.1173 153.147 37.288C152.982 37.4533 152.832 37.6027 152.699 37.736ZM158.914 37.92C158.914 38.2507 158.866 38.5493 158.77 38.816C158.674 39.0827 158.538 39.312 158.362 39.504C158.191 39.696 157.986 39.8453 157.746 39.952C157.506 40.0533 157.244 40.104 156.962 40.104C156.679 40.104 156.418 40.0533 156.178 39.952C155.938 39.8453 155.73 39.696 155.554 39.504C155.383 39.312 155.25 39.0827 155.154 38.816C155.058 38.5493 155.01 38.2507 155.01 37.92C155.01 37.5947 155.058 37.2987 155.154 37.032C155.25 36.76 155.383 36.528 155.554 36.336C155.73 36.144 155.938 35.9973 156.178 35.896C156.418 35.7893 156.679 35.736 156.962 35.736C157.244 35.736 157.506 35.7893 157.746 35.896C157.986 35.9973 158.191 36.144 158.362 36.336C158.538 36.528 158.674 36.76 158.77 37.032C158.866 37.2987 158.914 37.5947 158.914 37.92ZM158.138 37.92C158.138 37.4507 158.031 37.08 157.818 36.808C157.61 36.5307 157.324 36.392 156.962 36.392C156.599 36.392 156.311 36.5307 156.098 36.808C155.89 37.08 155.786 37.4507 155.786 37.92C155.786 38.3893 155.89 38.7627 156.098 39.04C156.311 39.312 156.599 39.448 156.962 39.448C157.324 39.448 157.61 39.312 157.818 39.04C158.031 38.7627 158.138 38.3893 158.138 37.92ZM163.456 35.84V40H162.736V36.832C162.576 37.0347 162.4 37.272 162.208 37.544C162.016 37.816 161.824 38.0987 161.632 38.392C161.44 38.68 161.256 38.9653 161.08 39.248C160.904 39.5307 160.752 39.7813 160.624 40H159.96V35.84H160.68V38.832C160.819 38.6027 160.976 38.352 161.152 38.08C161.328 37.8027 161.51 37.5307 161.696 37.264C161.888 36.992 162.078 36.7333 162.264 36.488C162.456 36.2373 162.635 36.0213 162.8 35.84H163.456ZM161.712 35.168C161.376 35.168 161.102 35.0827 160.888 34.912C160.68 34.7413 160.555 34.504 160.512 34.2L161.08 34.048C161.123 34.2187 161.195 34.3573 161.296 34.464C161.398 34.5707 161.536 34.624 161.712 34.624C161.888 34.624 162.027 34.5707 162.128 34.464C162.23 34.3573 162.302 34.2187 162.344 34.048L162.904 34.2C162.862 34.504 162.736 34.7413 162.528 34.912C162.32 35.0827 162.048 35.168 161.712 35.168Z" fill="white"/>
</g>
<path d="M29.5557 15.1283C28.9269 15.1492 27.987 15.1492 27.173 15.0937C26.3589 15.0381 25.6705 14.927 25.0153 14.8229C24.3602 14.7185 23.738 14.6213 23.149 14.6144C22.5599 14.6074 22.0039 14.6908 21.395 14.9341C20.7862 15.1771 20.1242 15.5799 19.608 15.9828C19.0918 16.3857 18.7211 16.7886 18.4166 17.2819C18.1122 17.7751 17.874 18.3585 17.7151 18.9282C17.5563 19.4977 17.4769 20.0534 17.4702 20.4702C17.4635 20.8871 17.5298 21.1649 17.6622 21.4011C17.7945 21.6372 17.9931 21.8317 18.2909 22.0887C18.5887 22.3457 18.9858 22.6654 19.4823 22.9294C19.9786 23.1932 20.5743 23.4017 21.1633 23.5407C21.7525 23.6795 22.3348 23.749 22.9702 23.7421C23.6056 23.735 24.2939 23.6516 24.8433 23.5336C25.3927 23.4156 25.8029 23.2627 26.2596 23.0405C26.7163 22.8181 27.2194 22.5264 27.5635 22.2625C27.9076 21.9985 28.093 21.7623 28.1988 21.5052C28.3048 21.2481 28.3313 20.9705 28.3709 20.6301C28.4106 20.2896 28.4635 19.8867 28.5497 19.5255C28.6356 19.1642 28.7547 18.8448 28.9336 18.5601C29.1122 18.2751 29.3505 18.0252 29.7543 17.7473C30.158 17.4693 30.7272 17.1638 32.6399 16.4274C34.5527 15.6912 37.809 14.5242 40.2646 13.5725C42.72 12.6207 44.3746 11.8845 45.7447 11.2733C47.1147 10.6619 48.2001 10.1757 49.1002 9.73124C50.0003 9.28655 50.7152 8.88371 51.1719 8.42518C51.6285 7.96674 51.8271 7.45271 51.88 6.92475C51.933 6.39688 51.8404 5.855 51.6153 5.40344C51.3902 4.95187 51.0328 4.59079 50.6623 4.35466C50.2916 4.11835 49.9077 4.00733 49.5304 4.00037C49.1532 3.99323 48.7826 4.09059 48.4715 4.2365C48.1604 4.38241 47.9089 4.57678 47.7037 4.80614C47.4986 5.03522 47.3396 5.29929 47.214 5.64671C47.0882 5.99395 46.9955 6.42463 46.8963 6.81373C46.797 7.20265 46.6911 7.54998 46.5389 7.89026C46.3867 8.23063 46.188 8.56404 45.9961 8.84203C45.8042 9.11984 45.6189 9.34205 44.5797 9.91169C43.5407 10.4813 41.6477 11.3982 40.3241 11.9957C39.0003 12.593 38.2458 12.8709 37.4516 13.1556C36.6573 13.4405 35.8235 13.7322 34.9697 13.9962C34.1159 14.2601 33.2421 14.4963 32.5473 14.663C31.8523 14.8297 31.336 14.927 30.9191 14.9965C30.5021 15.066 30.1844 15.1076 29.5557 15.1283Z" stroke="white" stroke-width="0.3501"/>
<path d="M46.8975 6.81366C47.0714 6.27571 47.2456 5.73802 47.5081 5.3085C47.7705 4.87889 48.1216 4.55779 48.466 4.44455C48.8102 4.3313 49.1477 4.42625 49.4753 4.57109C49.8029 4.71575 50.1206 4.91021 50.392 5.11868C50.6633 5.32697 50.8883 5.54936 51.0208 5.83405C51.153 6.11882 51.1928 6.46615 51.1928 6.83436C51.1928 7.20258 51.153 7.5915 50.9782 7.98193C50.8034 8.37228 50.4933 8.76396 50.1963 9.0366C49.8992 9.30914 49.6152 9.46291 49.4732 9.53957C49.3312 9.6164 49.3312 9.6164 49.3312 9.6164" stroke="white" stroke-width="0.3501"/>
<path d="M45.7051 9.18213C45.3432 9.49706 44.9813 9.81191 43.9466 10.3982C42.9118 10.9846 41.2043 11.8425 39.4636 12.5859C37.7229 13.3291 35.9491 13.9578 34.589 14.4249C33.2289 14.8921 32.2825 15.1977 31.5049 15.46C30.7271 15.7222 30.1182 15.9409 29.4283 16.0781C28.7382 16.2154 27.9672 16.271 26.7643 16.3179C25.5614 16.3646 23.9266 16.4029 22.9255 16.4446C21.9245 16.4863 21.5571 16.5315 21.2328 16.6095C20.9084 16.6876 20.6272 16.7988 20.3889 16.936C20.1507 17.0733 19.9554 17.2364 19.8131 17.4395C19.6709 17.6428 19.5815 17.8858 19.5501 18.0891C19.5186 18.2924 19.5452 18.4556 19.6212 18.6379C19.6973 18.8202 19.823 19.0218 19.9835 19.1988C20.144 19.376 20.3393 19.5288 20.5958 19.6295C20.8522 19.7303 21.1699 19.7789 21.4992 19.7928C21.8285 19.8067 22.1693 19.7859 22.5665 19.692C22.9636 19.5982 23.4169 19.4316 23.9266 19.1902C24.4362 18.9488 25.0021 18.6327 25.5514 18.3583C26.1008 18.084 26.6335 17.8513 27.1381 17.6689C27.6428 17.4865 28.1194 17.3547 28.7002 17.2C29.281 17.0455 29.966 16.8684 30.9819 16.5626C31.9979 16.2569 33.3447 15.8229 34.7231 15.3522C36.1013 14.8817 37.511 14.3745 38.949 13.8432C40.3868 13.3118 41.8529 12.7559 42.7861 12.4034C43.7193 12.051 44.1197 11.9015 44.32 11.827C44.5201 11.7523 44.5201 11.7523 44.5201 11.7523" stroke="white" stroke-width="0.3501"/>
<path d="M23.126 23.4645C23.1856 22.9156 23.2452 22.367 23.4074 21.7799C23.5696 21.1929 23.8343 20.5678 24.2115 20.0711C24.5887 19.5744 25.0785 19.2062 25.7072 18.8485C26.3361 18.4907 27.1038 18.1435 27.7888 17.9005C28.4738 17.6572 29.0761 17.5183 29.3773 17.4489C29.6784 17.3794 29.6784 17.3794 29.6784 17.3794" stroke="white" stroke-width="0.3501"/>
<path d="M28.134 19.5342C28.0397 19.5672 27.9006 19.6818 27.7932 19.8502C27.6856 20.0187 27.6094 20.241 27.5847 20.4285C27.5598 20.6161 27.5863 20.7689 27.6376 20.8541C27.6888 20.9391 27.765 20.9566 27.8577 20.9062C27.9504 20.8557 28.0596 20.7376 28.1406 20.5779C28.2217 20.4181 28.2746 20.2168 28.3011 20.0465C28.3276 19.8763 28.3276 19.7374 28.3027 19.6436C28.278 19.5498 28.2283 19.5013 28.134 19.5342Z" stroke="white" stroke-width="0.3501"/>
<path d="M39.6573 33.8191C40.2288 33.6059 41.0003 33.4168 41.5802 33.2565C42.2618 33.0684 42.8841 32.9443 43.4705 32.856C44.0568 32.7679 44.607 32.7155 45.2767 32.7057C45.9464 32.6959 46.7356 32.7286 47.3988 32.7909C48.0616 32.8531 48.5983 32.9452 48.8767 33.0523C49.155 33.1594 49.175 33.2816 49.1892 33.4282C49.2036 33.5746 49.2121 33.7453 49.252 33.8496C49.2917 33.9539 49.3628 33.9916 49.4839 34.0649C49.605 34.1381 49.7764 34.2467 49.9394 34.3282C50.1023 34.4098 50.2571 34.4643 50.6518 34.4808C51.0464 34.4969 51.681 34.475 52.2617 34.4112C52.8423 34.3472 53.369 34.2411 53.8359 34.114C54.3028 33.9866 54.7098 33.8382 55.1622 33.6295C55.6147 33.4207 56.1124 33.1519 56.4295 32.9322C56.7468 32.7124 56.8832 32.5421 56.9502 32.4331C57.0173 32.3239 57.0149 32.2761 56.9553 31.7793C56.8958 31.2824 56.7791 30.3364 56.6732 29.8144C56.5676 29.2922 56.4728 29.194 56.2879 29.0894C56.103 28.985 55.8279 28.8742 55.1644 28.6614C54.5006 28.4485 53.4483 28.1335 52.4793 27.8935C51.5103 27.6536 50.6244 27.4883 49.8215 27.3913C49.0187 27.2943 48.2985 27.2653 47.5356 27.2761C46.7727 27.2866 45.9668 27.3368 45.1974 27.4265C44.4281 27.5162 43.6953 27.6452 43.0399 27.8015C42.4277 27.9473 41.5357 27.9894 39.2178 28.9292" stroke="white" stroke-width="0.3501"/>
<path d="M56.5347 32.813C56.6377 33.3041 56.7407 33.7951 56.7838 34.0845C56.8268 34.3738 56.8101 34.4617 56.7028 34.6086C56.5955 34.7554 56.3976 34.9612 56.0964 35.1758C55.7952 35.3904 55.3908 35.6138 54.8916 35.8057C54.3924 35.9976 53.7985 36.1581 53.3509 36.2676C52.9032 36.3772 52.6018 36.4359 52.2226 36.4548C51.8433 36.4739 51.3863 36.4534 51.0484 36.3942C50.7105 36.335 50.4919 36.2372 50.3801 36.134C50.2683 36.0309 50.2633 35.9223 50.2074 35.6302C50.1514 35.338 50.0445 34.8623 49.9375 34.3866" stroke="white" stroke-width="0.3501"/>
<path d="M52.5687 36.4242C52.5064 36.1345 52.4442 35.8446 52.4227 35.6847C52.4011 35.5249 52.4205 35.4948 52.8538 35.3751C53.2872 35.2556 54.1347 35.0461 54.5661 34.9592C54.9974 34.8722 55.0129 34.9076 55.0436 35.0504C55.0743 35.1931 55.1203 35.443 55.1664 35.6929" stroke="white" stroke-width="0.3501"/>
<path d="M56.307 29.1011C55.6893 29.4048 55.0804 29.7123 54.567 30.058C54.0003 30.44 53.5499 30.8688 53.2703 31.3289C52.9906 31.789 52.8819 32.2805 52.8753 32.745C52.8688 33.2096 52.9648 33.6471 53.0115 33.909C53.0582 34.1707 53.0556 34.2568 53.0529 34.3428" stroke="white" stroke-width="0.3501"/>
<path d="M54.0907 30.0934C53.3283 30.1971 52.5659 30.3007 51.622 30.2865C50.678 30.2723 49.5525 30.1403 48.4786 30.0056C47.4048 29.8712 46.3827 29.7339 45.5702 29.6442C44.7575 29.5544 44.1542 29.5122 43.3556 29.5778C42.557 29.6433 41.5629 29.8167 40.4196 30.1279C40.1763 30.1943 39.8022 30.2629 39.5283 30.3498" stroke="white" stroke-width="0.3501"/>
<path d="M17.8096 21.3276C18.0116 21.6902 18.3163 22.0783 18.7197 22.4121C19.1229 22.7459 19.6248 23.0252 20.2391 23.2435C20.8536 23.4617 21.5805 23.6188 22.3317 23.6682C23.0829 23.7174 23.8584 23.6588 24.5253 23.5456C25.1921 23.4322 25.7503 23.2641 26.2336 23.0644C26.7168 22.8647 27.125 22.6332 27.4734 22.3343C27.5453 22.2725 27.6146 22.2079 27.6809 22.1417" stroke="white" stroke-width="0.3501"/>
<path d="M17.8091 21.3276C17.8019 21.958 17.7948 22.5884 17.7901 25.4264C17.7855 28.2641 17.7834 33.3094 17.7804 35.8901C17.7774 38.4707 17.7736 38.5865 17.8705 38.7858C17.9675 38.985 18.1653 39.2677 18.5297 39.5275C18.8939 39.7874 19.4249 40.0243 19.9709 40.2184C20.517 40.4123 21.0784 40.5634 21.6631 40.6357C22.2478 40.7078 22.8558 40.701 23.4452 40.6357C24.0343 40.5703 24.6048 40.4462 25.1363 40.2483C25.6678 40.0501 26.1604 39.7783 26.514 39.5303C26.8676 39.2822 27.0823 39.0582 27.2199 38.8676C27.3574 38.6769 27.4179 38.5195 27.4428 38.3972C27.4674 38.2748 27.4566 38.1876 27.4512 38.1438C27.4457 38.1001 27.4457 38.1001 27.4457 38.1001" stroke="white" stroke-width="0.3501"/>
<path d="M27.6812 22.1416C27.6312 25.7804 27.5813 29.419 27.5312 33.0577" stroke="white" stroke-width="0.3501"/>
<path d="M17.7959 23.377C18.25 23.7181 18.704 24.0589 19.1975 24.3189C19.691 24.579 20.2238 24.758 20.8405 24.904C21.4574 25.0497 22.1581 25.1623 22.8206 25.1795C23.4831 25.1965 24.1073 25.1179 24.685 24.9868C25.2626 24.8557 25.7936 24.6721 26.201 24.4697C26.6083 24.2671 26.892 24.0456 27.1152 23.8651C27.3385 23.6848 27.5012 23.5457 27.664 23.4065" stroke="white" stroke-width="0.3501"/>
<path d="M17.7852 31.3071C17.9505 31.5603 18.1161 31.8136 18.3807 32.0774C18.6453 32.3411 19.0092 32.6154 19.4302 32.8339C19.8512 33.0524 20.3292 33.2149 20.8502 33.3355C21.371 33.4559 21.9348 33.5345 22.5079 33.5412C23.081 33.5476 23.6634 33.4821 24.2268 33.365C24.79 33.2478 25.3344 33.0793 25.7903 32.8712C26.2461 32.6633 26.6135 32.4156 26.8929 32.1576C27.1722 31.8994 27.3635 31.6306 27.5548 31.3619" stroke="white" stroke-width="0.3501"/>
<path d="M28.2026 37.7799C28.2009 38.2439 28.1993 38.7078 28.1535 39.0468C28.1076 39.3858 28.0176 39.6 27.7306 39.9229C27.4436 40.246 26.9595 40.6776 26.3888 41.0191C25.8179 41.3606 25.1603 41.6121 24.4784 41.7611C23.7966 41.9101 23.0905 41.9567 22.3733 41.9231C21.6561 41.8895 20.9277 41.7759 20.3657 41.6465C19.8036 41.5172 19.4079 41.3721 19.0408 41.1919C18.6739 41.0119 18.3357 40.7964 18.0409 40.5247C17.7459 40.2529 17.4944 39.9247 17.3187 39.5993C17.1431 39.2739 17.0433 38.9513 17.0116 38.6602C16.9798 38.3691 17.0161 38.1093 17.0866 37.8583C17.1572 37.6072 17.2619 37.3645 17.3832 37.1799C17.5044 36.9951 17.642 36.8684 17.7797 36.7417" stroke="white" stroke-width="0.3501"/>
<path d="M23.0537 39.3091C23.2795 39.3753 23.5051 39.4416 23.9219 39.3753C24.3384 39.3091 24.946 39.1102 25.4202 38.921C25.8946 38.7318 26.2354 38.5522 26.8935 38.2881C27.5515 38.0242 28.5267 37.6757 29.0142 37.5015C29.5018 37.3271 29.5018 37.3271 29.5018 37.3271" stroke="white" stroke-width="0.3501"/>
<path d="M27.9518 37.8862C27.9111 38.0601 27.8705 38.2341 27.734 38.489C27.5976 38.7439 27.3654 39.0797 27.0969 39.3653C26.8284 39.6508 26.5235 39.8861 26.0967 40.1025C25.67 40.3186 25.1211 40.5161 24.5762 40.6503C24.0313 40.7842 23.4902 40.8551 22.9714 40.8777C22.4526 40.9003 21.9561 40.875 21.4065 40.7895C20.8568 40.7041 20.2537 40.5589 19.7704 40.3961C19.2872 40.2333 18.9237 40.0533 18.6013 39.8332C18.2788 39.6129 17.9972 39.3524 17.7937 39.0895C17.59 38.8264 17.4642 38.5609 17.3806 38.3241C17.2969 38.0871 17.2555 37.879 17.2428 37.729C17.2302 37.5789 17.2462 37.4866 17.2623 37.3945" stroke="white" stroke-width="0.3501"/>
<path d="M36.3484 29.9238C33.4093 30.9685 30.4701 32.0136 28.7972 32.5756C27.1243 33.1376 26.7176 33.217 26.3987 33.3068C26.0797 33.3967 25.8485 33.4968 25.5091 33.7346C25.1696 33.9721 24.722 34.3473 24.3137 34.7818C23.9056 35.2163 23.537 35.7103 23.2535 36.1348C22.97 36.5593 22.7716 36.9145 22.6579 37.2221C22.544 37.5295 22.5147 37.7894 22.5394 38.0805C22.5642 38.3712 22.6434 38.6931 22.7383 38.9031C22.8331 39.1133 22.9438 39.2116 23.0543 39.3098" stroke="white" stroke-width="0.3501"/>
<path d="M29.502 37.3271C33.205 36.0484 36.9081 34.7699 39.9841 33.7055M41.5186 28.1318C40.5181 28.4779 39.6114 28.7921 38.9019 29.038C36.348 29.9231 36.348 29.9231 36.348 29.9231" stroke="white" stroke-width="0.3501"/>
<path d="M39.5288 30.3496C37.1221 31.2269 34.5922 32.1668 32.5175 32.9508C28.7403 34.3781 26.4721 35.2882 25.143 35.8991C23.8138 36.5102 23.4235 36.8221 23.0332 37.134" stroke="white" stroke-width="0.3501"/>
<path d="M18.3479 40.8394C18.3417 42.8166 18.3417 44.6477 18.3759 45.6383C18.3852 45.9126 18.3974 46.1227 18.4141 46.2846M25.8759 47.0478C26.1516 46.8768 26.3926 46.6899 26.5538 46.5173C26.7652 46.2911 26.8398 46.0886 26.8772 45.9875C26.9145 45.8863 26.9145 45.8863 26.9174 44.871C26.9195 44.0646 26.9235 42.6182 26.9279 41.0397" stroke="white" stroke-width="0.3501"/>
<path d="M26.8747 45.9947C26.8965 46.0516 26.9075 46.1094 26.907 46.1683C26.9005 46.9245 24.9846 47.5196 22.6277 47.4972C20.271 47.475 18.3655 46.8439 18.3721 46.0877C18.3723 46.0461 18.3785 46.0053 18.39 45.9648" stroke="white" stroke-width="0.3501"/>
<path d="M26.904 42.4301C26.7748 43.1498 24.9091 43.7048 22.6318 43.6832C20.3545 43.6617 18.4986 43.0718 18.3818 42.3496" stroke="white" stroke-width="0.3501"/>
<path d="M26.8638 40.8822C26.7347 41.6019 24.8689 42.1568 22.5917 42.1354C20.3144 42.1139 18.4585 41.5239 18.3418 40.8018" stroke="white" stroke-width="0.3501"/>
<path d="M26.857 41.5282C26.7279 42.248 24.8621 42.8028 22.5848 42.7813C20.3077 42.7597 18.4517 42.1698 18.335 41.4478" stroke="white" stroke-width="0.3501"/>
<path d="M26.8511 42.1752C26.7221 42.8949 24.8563 43.4496 22.5791 43.4281C20.3019 43.4067 18.4459 42.8166 18.3291 42.0947" stroke="white" stroke-width="0.3501"/>
<path d="M26.8463 42.8217C26.7172 43.5415 24.8515 44.0964 22.5742 44.0749C20.2969 44.0534 18.441 43.4634 18.3242 42.7412" stroke="white" stroke-width="0.3501"/>
<path d="M26.8405 43.4687C26.7113 44.1885 24.8456 44.7433 22.5683 44.7219C20.2911 44.7003 18.4351 44.1104 18.3184 43.3882" stroke="white" stroke-width="0.3501"/>
<path d="M26.8355 44.1151C26.7064 44.8348 24.8406 45.3895 22.5634 45.368C20.2862 45.3466 18.4302 44.7565 18.3135 44.0347" stroke="white" stroke-width="0.3501"/>
<path d="M26.8296 44.762C26.7006 45.4817 24.8348 46.0365 22.5575 46.0151C20.2803 45.9936 18.4244 45.4036 18.3076 44.6816" stroke="white" stroke-width="0.3501"/>
<path d="M26.8249 45.4086C26.6958 46.1284 24.83 46.6834 22.5528 46.6619C20.2755 46.6403 18.4196 46.0504 18.3027 45.3281" stroke="white" stroke-width="0.3501"/>
<path d="M22.988 47.8911C25.5386 47.8911 27.6061 48.8403 27.6061 50.0111C27.6061 51.1818 25.5386 52.1312 22.988 52.1312C20.4376 52.1312 18.3701 51.1818 18.3701 50.0111C18.3701 48.8403 20.4376 47.8911 22.988 47.8911Z" stroke="white" stroke-width="0.3501"/>
<path d="M22.9875 48.5752C24.7153 48.5752 26.1158 49.2183 26.1158 50.0114C26.1158 50.8045 24.7153 51.4475 22.9875 51.4475C21.2599 51.4475 19.8594 50.8045 19.8594 50.0114C19.8594 49.2183 21.2599 48.5752 22.9875 48.5752Z" stroke="white" stroke-width="0.3501"/>
<path d="M20.295 50.7426C20.0251 50.5914 19.8701 50.415 19.8701 50.2267C19.8701 49.664 21.2509 49.208 22.9543 49.208C24.5979 49.208 25.9411 49.6326 26.0336 50.1676" stroke="white" stroke-width="0.3501"/>
<path d="M26.7776 51.2229C26.8498 51.3323 26.8881 51.4465 26.8881 51.5641C26.8881 52.3572 25.1462 53.0001 22.9978 53.0001C20.8492 53.0001 19.1074 52.3572 19.1074 51.5641C19.1074 51.4496 19.1436 51.3383 19.2119 51.2318M20.0945 50.6081C20.1058 50.6035 20.1172 50.5987 20.1285 50.5942" stroke="white" stroke-width="0.3501"/>
<path d="M18.9385 51.0298L19.1664 51.9525" stroke="white" stroke-width="0.3501"/>
<path d="M27.0023 51.1025L26.7744 52.0253" stroke="white" stroke-width="0.3501"/>
<defs>
<linearGradient id="paint0_linear_973_2041" x1="102" y1="0.000488281" x2="102" y2="58.0003" gradientUnits="userSpaceOnUse">
<stop stop-color="#101F52"/>
<stop offset="0.9999" stop-color="#101F52" stop-opacity="0.8125"/>
<stop offset="1" stop-color="#101F52" stop-opacity="0"/>
</linearGradient>
</defs>
</svg>
