<svg width="204" height="58" viewBox="0 0 204 58" fill="none" xmlns="http://www.w3.org/2000/svg">
<rect y="0.000488281" width="204" height="57.9998" rx="5" fill="url(#paint0_linear_973_2044)"/>
<path d="M95.9712 48.6508C82.2707 49.9357 66.6623 53.2274 63.7963 53.8466C63.4888 53.913 63.204 54.0495 62.9577 54.2453C61.4218 55.4663 62.2852 57.9397 64.2472 57.9397H198.932C201.693 57.9397 203.932 55.7012 203.932 52.9397V46.7444C203.932 43.6216 201.101 41.263 198.029 41.8265L192.215 42.8932L171.292 45.0043L150.639 47.0883C150.46 47.1064 150.303 47.1149 150.123 47.1138C146.964 47.095 114.174 46.9435 95.9712 48.6508Z" fill="#0F2458" fill-opacity="0.5"/>
<path d="M120.802 49.99C110.348 51.0799 98.4501 53.8565 96.0896 54.422C95.8089 54.4893 95.5573 54.6233 95.341 54.8144C94.1079 55.904 94.8786 57.94 96.5241 57.94H198.932C201.693 57.94 203.932 55.7014 203.932 52.94V49.3451C203.932 46.1822 201.032 43.814 197.933 44.4459L194.91 45.0623L178.8 46.8691L162.987 48.6425C162.789 48.6648 162.592 48.6752 162.392 48.6739C159.405 48.6553 134.635 48.5481 120.802 49.99Z" fill="#0D2862" fill-opacity="0.5"/>
<path d="M106.942 12.4689C120.109 10.7945 135.057 6.58121 138.514 5.57623C139.002 5.43455 139.436 5.16236 139.782 4.79025C141.474 2.96561 140.18 -1.80105e-05 137.691 -1.80105e-05L5.06077 -1.80105e-05C2.29935 -1.80105e-05 0.0607738 2.23856 0.0607738 4.99998L0.0607738 16.6869C0.0607738 19.9373 3.11343 22.3237 6.26774 21.539L11.6602 20.1976L32.3736 17.3638L52.7248 14.5795C52.9659 14.5465 53.2002 14.5311 53.4435 14.5329C57.1648 14.5615 89.1168 14.7357 106.942 12.4689Z" fill="#0F2458" fill-opacity="0.7"/>
<path d="M93.9862 9.37271C105.752 8.09295 119.134 4.84039 121.876 4.1557C122.215 4.07109 122.517 3.90408 122.773 3.66734C124.188 2.3628 123.265 7.23182e-05 121.341 7.23182e-05L5.06069 7.23182e-05C2.29926 7.23182e-05 0.060692 2.23865 0.060692 5.00007V11.1753C0.060692 14.3555 2.99062 16.7277 6.10125 16.0658L10.2542 15.1822L28.4568 13.0521L46.3486 10.9583C46.5556 10.9341 46.7541 10.9227 46.9626 10.9241C50.184 10.9454 78.3056 11.0784 93.9862 9.37271Z" fill="#0D2862" fill-opacity="0.7"/>
<path d="M82.072 24.12C81.6827 24.12 81.328 24.056 81.008 23.928C80.688 23.8 80.4133 23.6133 80.184 23.368C79.9547 23.1227 79.776 22.8213 79.648 22.464C79.5253 22.1013 79.464 21.688 79.464 21.224C79.464 20.76 79.5333 20.3493 79.672 19.992C79.816 19.6293 80.008 19.3253 80.248 19.08C80.488 18.8347 80.768 18.648 81.088 18.52C81.408 18.392 81.7493 18.328 82.112 18.328C82.3413 18.328 82.5467 18.344 82.728 18.376C82.9147 18.408 83.0747 18.4453 83.208 18.488C83.3467 18.5307 83.4587 18.5733 83.544 18.616C83.6293 18.6587 83.688 18.6907 83.72 18.712L83.496 19.352C83.448 19.32 83.3787 19.2853 83.288 19.248C83.1973 19.2107 83.0933 19.1733 82.976 19.136C82.864 19.0987 82.7387 19.0693 82.6 19.048C82.4667 19.0213 82.3307 19.008 82.192 19.008C81.8987 19.008 81.6347 19.0587 81.4 19.16C81.1653 19.2613 80.9653 19.408 80.8 19.6C80.6347 19.792 80.5067 20.0267 80.416 20.304C80.3307 20.576 80.288 20.8827 80.288 21.224C80.288 21.5547 80.3253 21.856 80.4 22.128C80.48 22.4 80.5973 22.6347 80.752 22.832C80.9067 23.024 81.0987 23.1733 81.328 23.28C81.5627 23.3867 81.8347 23.44 82.144 23.44C82.5013 23.44 82.7973 23.4027 83.032 23.328C83.2667 23.2533 83.4427 23.1867 83.56 23.128L83.76 23.768C83.7227 23.7947 83.656 23.8293 83.56 23.872C83.464 23.9093 83.344 23.9467 83.2 23.984C83.056 24.0213 82.888 24.0533 82.696 24.08C82.504 24.1067 82.296 24.12 82.072 24.12ZM85.3929 20.936C85.3396 21.464 85.2996 21.992 85.2729 22.52C85.2463 23.0427 85.2249 23.536 85.2089 24H84.4969C84.5076 23.6747 84.5236 23.336 84.5449 22.984C84.5663 22.6267 84.5903 22.2693 84.6169 21.912C84.6436 21.5493 84.6729 21.1947 84.7049 20.848C84.7369 20.496 84.7716 20.16 84.8089 19.84H85.4889C85.6596 20.1173 85.8596 20.4987 86.0889 20.984C86.3183 21.464 86.5823 22.0187 86.8809 22.648C87.1796 22.0187 87.4436 21.464 87.6729 20.984C87.9023 20.4987 88.1023 20.1173 88.2729 19.84H88.9609C88.9983 20.16 89.0329 20.496 89.0649 20.848C89.0969 21.1947 89.1263 21.5493 89.1529 21.912C89.1796 22.2693 89.2036 22.6267 89.2249 22.984C89.2463 23.336 89.2623 23.6747 89.2729 24H88.5369C88.5209 23.536 88.4996 23.0427 88.4729 22.52C88.4463 21.992 88.4063 21.464 88.3529 20.936C88.2676 21.1013 88.1689 21.3013 88.0569 21.536C87.9449 21.7653 87.8329 22 87.7209 22.24C87.6143 22.48 87.5129 22.7093 87.4169 22.928C87.3209 23.1467 87.2463 23.32 87.1929 23.448H86.5689C86.5103 23.3147 86.4303 23.1387 86.3289 22.92C86.2329 22.7013 86.1289 22.472 86.0169 22.232C85.9103 21.9867 85.8009 21.7493 85.6889 21.52C85.5769 21.2853 85.4783 21.0907 85.3929 20.936ZM90.2205 21.928C90.2205 21.56 90.2738 21.24 90.3805 20.968C90.4872 20.6907 90.6285 20.4613 90.8045 20.28C90.9805 20.0987 91.1832 19.9627 91.4125 19.872C91.6418 19.7813 91.8765 19.736 92.1165 19.736C92.6765 19.736 93.1058 19.912 93.4045 20.264C93.7032 20.6107 93.8525 21.1413 93.8525 21.856C93.8525 21.888 93.8525 21.9307 93.8525 21.984C93.8525 22.032 93.8498 22.0773 93.8445 22.12H90.9965C91.0285 22.552 91.1538 22.88 91.3725 23.104C91.5912 23.328 91.9325 23.44 92.3965 23.44C92.6578 23.44 92.8765 23.4187 93.0525 23.376C93.2338 23.328 93.3698 23.2827 93.4605 23.24L93.5645 23.864C93.4738 23.912 93.3138 23.9627 93.0845 24.016C92.8605 24.0693 92.6045 24.096 92.3165 24.096C91.9538 24.096 91.6392 24.0427 91.3725 23.936C91.1112 23.824 90.8952 23.672 90.7245 23.48C90.5538 23.288 90.4258 23.0613 90.3405 22.8C90.2605 22.5333 90.2205 22.2427 90.2205 21.928ZM93.0765 21.52C93.0818 21.184 92.9965 20.9093 92.8205 20.696C92.6498 20.4773 92.4125 20.368 92.1085 20.368C91.9378 20.368 91.7858 20.4027 91.6525 20.472C91.5245 20.536 91.4152 20.6213 91.3245 20.728C91.2338 20.8347 91.1618 20.9573 91.1085 21.096C91.0605 21.2347 91.0285 21.376 91.0125 21.52H93.0765ZM96.7293 24.096C96.3933 24.096 96.0973 24.0427 95.8413 23.936C95.5906 23.8293 95.3773 23.68 95.2013 23.488C95.0306 23.296 94.9026 23.0693 94.8173 22.808C94.7319 22.5413 94.6893 22.248 94.6893 21.928C94.6893 21.608 94.7346 21.3147 94.8253 21.048C94.9213 20.7813 95.0546 20.552 95.2253 20.36C95.3959 20.1627 95.6039 20.0107 95.8493 19.904C96.0999 19.792 96.3773 19.736 96.6813 19.736C96.8679 19.736 97.0546 19.752 97.2413 19.784C97.4279 19.816 97.6066 19.8667 97.7773 19.936L97.6093 20.568C97.4973 20.5147 97.3666 20.472 97.2173 20.44C97.0733 20.408 96.9186 20.392 96.7533 20.392C96.3373 20.392 96.0173 20.5227 95.7933 20.784C95.5746 21.0453 95.4653 21.4267 95.4653 21.928C95.4653 22.152 95.4893 22.3573 95.5373 22.544C95.5906 22.7307 95.6706 22.8907 95.7773 23.024C95.8893 23.1573 96.0306 23.2613 96.2013 23.336C96.3719 23.4053 96.5799 23.44 96.8253 23.44C97.0226 23.44 97.2013 23.4213 97.3613 23.384C97.5213 23.3467 97.6466 23.3067 97.7373 23.264L97.8413 23.888C97.7986 23.9147 97.7373 23.9413 97.6573 23.968C97.5773 23.9893 97.4866 24.008 97.3853 24.024C97.2839 24.0453 97.1746 24.0613 97.0573 24.072C96.9453 24.088 96.8359 24.096 96.7293 24.096ZM102.136 19.84V24H101.416V20.832C101.256 21.0347 101.08 21.272 100.888 21.544C100.696 21.816 100.504 22.0987 100.312 22.392C100.12 22.68 99.936 22.9653 99.76 23.248C99.584 23.5307 99.432 23.7813 99.304 24H98.64V19.84H99.36V22.832C99.4987 22.6027 99.656 22.352 99.832 22.08C100.008 21.8027 100.189 21.5307 100.376 21.264C100.568 20.992 100.757 20.7333 100.944 20.488C101.136 20.2373 101.315 20.0213 101.48 19.84H102.136ZM106.349 19.84V20.464H104.997V24H104.253V20.464H102.901V19.84H106.349ZM106.885 21.928C106.885 21.56 106.938 21.24 107.045 20.968C107.151 20.6907 107.293 20.4613 107.469 20.28C107.645 20.0987 107.847 19.9627 108.077 19.872C108.306 19.7813 108.541 19.736 108.781 19.736C109.341 19.736 109.77 19.912 110.069 20.264C110.367 20.6107 110.517 21.1413 110.517 21.856C110.517 21.888 110.517 21.9307 110.517 21.984C110.517 22.032 110.514 22.0773 110.509 22.12H107.661C107.693 22.552 107.818 22.88 108.037 23.104C108.255 23.328 108.597 23.44 109.061 23.44C109.322 23.44 109.541 23.4187 109.717 23.376C109.898 23.328 110.034 23.2827 110.125 23.24L110.229 23.864C110.138 23.912 109.978 23.9627 109.749 24.016C109.525 24.0693 109.269 24.096 108.981 24.096C108.618 24.096 108.303 24.0427 108.037 23.936C107.775 23.824 107.559 23.672 107.389 23.48C107.218 23.288 107.09 23.0613 107.005 22.8C106.925 22.5333 106.885 22.2427 106.885 21.928ZM109.741 21.52C109.746 21.184 109.661 20.9093 109.485 20.696C109.314 20.4773 109.077 20.368 108.773 20.368C108.602 20.368 108.45 20.4027 108.317 20.472C108.189 20.536 108.079 20.6213 107.989 20.728C107.898 20.8347 107.826 20.9573 107.773 21.096C107.725 21.2347 107.693 21.376 107.677 21.52H109.741ZM113.033 20.464C113.033 20.64 113.028 20.8293 113.017 21.032C113.012 21.2293 112.999 21.4293 112.977 21.632C112.956 21.8293 112.927 22.0267 112.889 22.224C112.852 22.416 112.804 22.5973 112.745 22.768C112.687 22.9387 112.612 23.0987 112.521 23.248C112.436 23.3973 112.329 23.5307 112.201 23.648C112.073 23.76 111.924 23.856 111.753 23.936C111.583 24.0107 111.383 24.0587 111.153 24.08L111.049 23.456C111.311 23.4027 111.516 23.304 111.665 23.16C111.82 23.016 111.943 22.84 112.033 22.632C112.113 22.4507 112.172 22.2453 112.209 22.016C112.247 21.7867 112.273 21.5493 112.289 21.304C112.305 21.0533 112.313 20.8027 112.313 20.552C112.319 20.3013 112.321 20.064 112.321 19.84H115.089V24H114.345V20.464H113.033ZM117.943 23.48C118.257 23.48 118.505 23.4187 118.687 23.296C118.868 23.1733 118.959 22.976 118.959 22.704C118.959 22.5707 118.932 22.456 118.879 22.36C118.825 22.264 118.751 22.1867 118.655 22.128C118.564 22.064 118.457 22.0187 118.335 21.992C118.212 21.96 118.081 21.944 117.943 21.944C117.799 21.944 117.649 21.9493 117.495 21.96C117.345 21.9653 117.217 21.9813 117.111 22.008V23.44C117.143 23.4453 117.191 23.4507 117.255 23.456C117.319 23.4613 117.388 23.4667 117.463 23.472C117.543 23.472 117.623 23.4747 117.703 23.48C117.788 23.48 117.868 23.48 117.943 23.48ZM116.367 23.912V19.84H117.111V21.432C117.153 21.4213 117.209 21.4107 117.279 21.4C117.353 21.3893 117.431 21.3787 117.511 21.368C117.596 21.3573 117.684 21.3493 117.775 21.344C117.865 21.3387 117.951 21.336 118.031 21.336C118.26 21.336 118.476 21.3627 118.679 21.416C118.881 21.464 119.057 21.544 119.207 21.656C119.361 21.7627 119.484 21.904 119.575 22.08C119.665 22.2507 119.711 22.456 119.711 22.696C119.711 22.9467 119.668 23.16 119.583 23.336C119.497 23.512 119.375 23.656 119.215 23.768C119.055 23.88 118.863 23.96 118.639 24.008C118.42 24.0613 118.175 24.088 117.903 24.088C117.636 24.088 117.375 24.072 117.119 24.04C116.863 24.0133 116.612 23.9707 116.367 23.912ZM125.789 24H125.045V20.464H123.189V24H122.445V19.84H125.789V24ZM130.742 21.92C130.742 22.2507 130.694 22.5493 130.598 22.816C130.502 23.0827 130.366 23.312 130.19 23.504C130.019 23.696 129.814 23.8453 129.574 23.952C129.334 24.0533 129.072 24.104 128.79 24.104C128.507 24.104 128.246 24.0533 128.006 23.952C127.766 23.8453 127.558 23.696 127.382 23.504C127.211 23.312 127.078 23.0827 126.982 22.816C126.886 22.5493 126.838 22.2507 126.838 21.92C126.838 21.5947 126.886 21.2987 126.982 21.032C127.078 20.76 127.211 20.528 127.382 20.336C127.558 20.144 127.766 19.9973 128.006 19.896C128.246 19.7893 128.507 19.736 128.79 19.736C129.072 19.736 129.334 19.7893 129.574 19.896C129.814 19.9973 130.019 20.144 130.19 20.336C130.366 20.528 130.502 20.76 130.598 21.032C130.694 21.2987 130.742 21.5947 130.742 21.92ZM129.966 21.92C129.966 21.4507 129.859 21.08 129.646 20.808C129.438 20.5307 129.152 20.392 128.79 20.392C128.427 20.392 128.139 20.5307 127.926 20.808C127.718 21.08 127.614 21.4507 127.614 21.92C127.614 22.3893 127.718 22.7627 127.926 23.04C128.139 23.312 128.427 23.448 128.79 23.448C129.152 23.448 129.438 23.312 129.646 23.04C129.859 22.7627 129.966 22.3893 129.966 21.92ZM132.516 23.44C132.548 23.4453 132.594 23.4507 132.652 23.456C132.711 23.4613 132.778 23.4667 132.852 23.472C132.927 23.472 133.004 23.4747 133.084 23.48C133.17 23.48 133.25 23.48 133.324 23.48C133.479 23.48 133.626 23.4693 133.764 23.448C133.908 23.4267 134.031 23.3893 134.132 23.336C134.239 23.2827 134.322 23.2133 134.38 23.128C134.444 23.0373 134.476 22.9227 134.476 22.784C134.476 22.6507 134.447 22.5413 134.388 22.456C134.335 22.3653 134.26 22.2933 134.164 22.24C134.068 22.1867 133.954 22.1493 133.82 22.128C133.692 22.1067 133.554 22.096 133.404 22.096H132.516V23.44ZM133.308 21.544C133.452 21.544 133.583 21.536 133.7 21.52C133.823 21.4987 133.927 21.464 134.012 21.416C134.103 21.368 134.172 21.304 134.22 21.224C134.274 21.144 134.3 21.0427 134.3 20.92C134.3 20.792 134.268 20.6907 134.204 20.616C134.14 20.5413 134.055 20.4853 133.948 20.448C133.847 20.4053 133.73 20.3787 133.596 20.368C133.468 20.352 133.338 20.344 133.204 20.344C133.082 20.344 132.956 20.3467 132.828 20.352C132.706 20.3573 132.602 20.3627 132.516 20.368V21.544H133.308ZM133.292 24.072C132.978 24.072 132.687 24.056 132.42 24.024C132.154 23.9973 131.943 23.9653 131.788 23.928V19.88C131.943 19.8427 132.154 19.8107 132.42 19.784C132.687 19.752 132.978 19.736 133.292 19.736C133.511 19.736 133.724 19.7547 133.932 19.792C134.14 19.8293 134.324 19.8933 134.484 19.984C134.644 20.0693 134.772 20.1893 134.868 20.344C134.97 20.4933 135.02 20.68 135.02 20.904C135.02 21.1067 134.97 21.28 134.868 21.424C134.767 21.568 134.631 21.68 134.46 21.76C134.69 21.84 134.871 21.96 135.004 22.12C135.143 22.2747 135.212 22.4933 135.212 22.776C135.212 23.0267 135.162 23.2347 135.06 23.4C134.964 23.5653 134.828 23.6987 134.652 23.8C134.482 23.9013 134.279 23.9707 134.044 24.008C133.81 24.0507 133.559 24.072 133.292 24.072ZM139.843 21.92C139.843 22.2507 139.795 22.5493 139.699 22.816C139.603 23.0827 139.467 23.312 139.291 23.504C139.121 23.696 138.915 23.8453 138.675 23.952C138.435 24.0533 138.174 24.104 137.891 24.104C137.609 24.104 137.347 24.0533 137.107 23.952C136.867 23.8453 136.659 23.696 136.483 23.504C136.313 23.312 136.179 23.0827 136.083 22.816C135.987 22.5493 135.939 22.2507 135.939 21.92C135.939 21.5947 135.987 21.2987 136.083 21.032C136.179 20.76 136.313 20.528 136.483 20.336C136.659 20.144 136.867 19.9973 137.107 19.896C137.347 19.7893 137.609 19.736 137.891 19.736C138.174 19.736 138.435 19.7893 138.675 19.896C138.915 19.9973 139.121 20.144 139.291 20.336C139.467 20.528 139.603 20.76 139.699 21.032C139.795 21.2987 139.843 21.5947 139.843 21.92ZM139.067 21.92C139.067 21.4507 138.961 21.08 138.747 20.808C138.539 20.5307 138.254 20.392 137.891 20.392C137.529 20.392 137.241 20.5307 137.027 20.808C136.819 21.08 136.715 21.4507 136.715 21.92C136.715 22.3893 136.819 22.7627 137.027 23.04C137.241 23.312 137.529 23.448 137.891 23.448C138.254 23.448 138.539 23.312 138.747 23.04C138.961 22.7627 139.067 22.3893 139.067 21.92ZM143.778 21.928C143.778 21.4427 143.658 21.0693 143.418 20.808C143.178 20.5467 142.858 20.416 142.458 20.416C142.234 20.416 142.058 20.424 141.93 20.44C141.807 20.456 141.709 20.4747 141.634 20.496V23.12C141.725 23.1947 141.855 23.2667 142.026 23.336C142.197 23.4053 142.383 23.44 142.586 23.44C142.799 23.44 142.981 23.4027 143.13 23.328C143.285 23.248 143.41 23.1413 143.506 23.008C143.602 22.8693 143.671 22.7093 143.714 22.528C143.757 22.3413 143.778 22.1413 143.778 21.928ZM144.554 21.928C144.554 22.2427 144.511 22.5333 144.426 22.8C144.346 23.0667 144.226 23.296 144.066 23.488C143.906 23.68 143.709 23.8293 143.474 23.936C143.245 24.0427 142.981 24.096 142.682 24.096C142.442 24.096 142.229 24.064 142.042 24C141.861 23.936 141.725 23.8747 141.634 23.816V25.48H140.89V19.968C141.066 19.9253 141.285 19.88 141.546 19.832C141.813 19.7787 142.119 19.752 142.466 19.752C142.786 19.752 143.074 19.8027 143.33 19.904C143.586 20.0053 143.805 20.1493 143.986 20.336C144.167 20.5227 144.306 20.752 144.402 21.024C144.503 21.2907 144.554 21.592 144.554 21.928ZM149.273 21.92C149.273 22.2507 149.225 22.5493 149.129 22.816C149.033 23.0827 148.897 23.312 148.721 23.504C148.55 23.696 148.345 23.8453 148.105 23.952C147.865 24.0533 147.604 24.104 147.321 24.104C147.038 24.104 146.777 24.0533 146.537 23.952C146.297 23.8453 146.089 23.696 145.913 23.504C145.742 23.312 145.609 23.0827 145.513 22.816C145.417 22.5493 145.369 22.2507 145.369 21.92C145.369 21.5947 145.417 21.2987 145.513 21.032C145.609 20.76 145.742 20.528 145.913 20.336C146.089 20.144 146.297 19.9973 146.537 19.896C146.777 19.7893 147.038 19.736 147.321 19.736C147.604 19.736 147.865 19.7893 148.105 19.896C148.345 19.9973 148.55 20.144 148.721 20.336C148.897 20.528 149.033 20.76 149.129 21.032C149.225 21.2987 149.273 21.5947 149.273 21.92ZM148.497 21.92C148.497 21.4507 148.39 21.08 148.177 20.808C147.969 20.5307 147.684 20.392 147.321 20.392C146.958 20.392 146.67 20.5307 146.457 20.808C146.249 21.08 146.145 21.4507 146.145 21.92C146.145 22.3893 146.249 22.7627 146.457 23.04C146.67 23.312 146.958 23.448 147.321 23.448C147.684 23.448 147.969 23.312 148.177 23.04C148.39 22.7627 148.497 22.3893 148.497 21.92ZM153.256 19.84V20.464H151.904V24H151.16V20.464H149.808V19.84H153.256ZM157.431 24H156.687V22.16H154.767V24H154.023V19.84H154.767V21.536H156.687V19.84H157.431V24ZM160.238 21.944C160.094 21.944 159.953 21.9493 159.814 21.96C159.681 21.9653 159.561 21.9813 159.454 22.008V23.44C159.486 23.4453 159.532 23.4507 159.59 23.456C159.654 23.4613 159.721 23.4667 159.79 23.472C159.865 23.472 159.94 23.4747 160.014 23.48C160.089 23.48 160.156 23.48 160.214 23.48C160.54 23.48 160.79 23.4187 160.966 23.296C161.142 23.1733 161.23 22.976 161.23 22.704C161.23 22.5707 161.201 22.456 161.142 22.36C161.089 22.264 161.014 22.1867 160.918 22.128C160.828 22.064 160.724 22.0187 160.606 21.992C160.489 21.96 160.366 21.944 160.238 21.944ZM158.71 19.84H159.454V21.432C159.545 21.4107 159.676 21.3893 159.846 21.368C160.022 21.3467 160.19 21.336 160.35 21.336C160.569 21.336 160.777 21.3627 160.974 21.416C161.172 21.464 161.345 21.544 161.494 21.656C161.644 21.7627 161.761 21.904 161.846 22.08C161.937 22.2507 161.982 22.456 161.982 22.696C161.982 22.9467 161.94 23.16 161.854 23.336C161.769 23.512 161.649 23.656 161.494 23.768C161.34 23.88 161.153 23.96 160.934 24.008C160.716 24.0613 160.476 24.088 160.214 24.088C159.964 24.088 159.71 24.072 159.454 24.04C159.198 24.0133 158.95 23.9707 158.71 23.912V19.84ZM163.494 24H162.75V19.84H163.494V24ZM168.269 19.84V24H167.549V20.832C167.389 21.0347 167.213 21.272 167.021 21.544C166.829 21.816 166.637 22.0987 166.445 22.392C166.253 22.68 166.069 22.9653 165.893 23.248C165.717 23.5307 165.565 23.7813 165.437 24H164.773V19.84H165.493V22.832C165.631 22.6027 165.789 22.352 165.965 22.08C166.141 21.8027 166.322 21.5307 166.509 21.264C166.701 20.992 166.89 20.7333 167.077 20.488C167.269 20.2373 167.447 20.0213 167.613 19.84H168.269ZM166.525 19.168C166.189 19.168 165.914 19.0827 165.701 18.912C165.493 18.7413 165.367 18.504 165.325 18.2L165.893 18.048C165.935 18.2187 166.007 18.3573 166.109 18.464C166.21 18.5707 166.349 18.624 166.525 18.624C166.701 18.624 166.839 18.5707 166.941 18.464C167.042 18.3573 167.114 18.2187 167.157 18.048L167.717 18.2C167.674 18.504 167.549 18.7413 167.341 18.912C167.133 19.0827 166.861 19.168 166.525 19.168ZM170.886 23.392H171.334C171.51 23.136 171.648 22.872 171.75 22.6C171.856 22.328 171.936 22.048 171.99 21.76C172.043 21.4667 172.078 21.1627 172.094 20.848C172.11 20.528 172.12 20.192 172.126 19.84H174.854V23.392H175.414V25.16H174.71V24H171.59V25.16H170.886V23.392ZM174.11 23.392V20.464H172.806C172.8 20.7147 172.787 20.968 172.766 21.224C172.744 21.4747 172.71 21.7253 172.662 21.976C172.614 22.2213 172.544 22.464 172.454 22.704C172.368 22.9387 172.259 23.168 172.126 23.392H174.11ZM177.838 20.464C177.838 20.64 177.833 20.8293 177.822 21.032C177.817 21.2293 177.803 21.4293 177.782 21.632C177.761 21.8293 177.731 22.0267 177.694 22.224C177.657 22.416 177.609 22.5973 177.55 22.768C177.491 22.9387 177.417 23.0987 177.326 23.248C177.241 23.3973 177.134 23.5307 177.006 23.648C176.878 23.76 176.729 23.856 176.558 23.936C176.387 24.0107 176.187 24.0587 175.958 24.08L175.854 23.456C176.115 23.4027 176.321 23.304 176.47 23.16C176.625 23.016 176.747 22.84 176.838 22.632C176.918 22.4507 176.977 22.2453 177.014 22.016C177.051 21.7867 177.078 21.5493 177.094 21.304C177.11 21.0533 177.118 20.8027 177.118 20.552C177.123 20.3013 177.126 20.064 177.126 19.84H179.894V24H179.15V20.464H177.838ZM182.891 22.384C182.811 22.384 182.734 22.384 182.659 22.384C182.585 22.3787 182.513 22.3733 182.443 22.368C182.273 22.624 182.107 22.8987 181.947 23.192C181.793 23.48 181.654 23.7493 181.531 24H180.779C180.843 23.8453 180.918 23.688 181.003 23.528C181.089 23.3627 181.174 23.2027 181.259 23.048C181.35 22.8933 181.441 22.7467 181.531 22.608C181.622 22.4693 181.707 22.344 181.787 22.232C181.638 22.1787 181.515 22.1147 181.419 22.04C181.323 21.96 181.246 21.872 181.187 21.776C181.129 21.68 181.086 21.5787 181.059 21.472C181.038 21.36 181.027 21.248 181.027 21.136C181.027 20.9013 181.07 20.696 181.155 20.52C181.246 20.344 181.369 20.2 181.523 20.088C181.678 19.9707 181.859 19.8827 182.067 19.824C182.281 19.7653 182.513 19.736 182.763 19.736C183.115 19.736 183.414 19.752 183.659 19.784C183.905 19.816 184.11 19.8533 184.275 19.896V24H183.539V22.384H182.891ZM183.539 20.392C183.481 20.3813 183.382 20.3707 183.243 20.36C183.11 20.3493 182.955 20.344 182.779 20.344C182.475 20.344 182.23 20.408 182.043 20.536C181.857 20.6587 181.763 20.856 181.763 21.128C181.763 21.3947 181.859 21.5787 182.051 21.68C182.243 21.7813 182.491 21.832 182.795 21.832H183.539V20.392ZM82.528 30.928C82.528 30.4427 82.408 30.0693 82.168 29.808C81.928 29.5467 81.608 29.416 81.208 29.416C80.984 29.416 80.808 29.424 80.68 29.44C80.5573 29.456 80.4587 29.4747 80.384 29.496V32.12C80.4747 32.1947 80.6053 32.2667 80.776 32.336C80.9467 32.4053 81.1333 32.44 81.336 32.44C81.5493 32.44 81.7307 32.4027 81.88 32.328C82.0347 32.248 82.16 32.1413 82.256 32.008C82.352 31.8693 82.4213 31.7093 82.464 31.528C82.5067 31.3413 82.528 31.1413 82.528 30.928ZM83.304 30.928C83.304 31.2427 83.2613 31.5333 83.176 31.8C83.096 32.0667 82.976 32.296 82.816 32.488C82.656 32.68 82.4587 32.8293 82.224 32.936C81.9947 33.0427 81.7307 33.096 81.432 33.096C81.192 33.096 80.9787 33.064 80.792 33C80.6107 32.936 80.4747 32.8747 80.384 32.816V34.48H79.64V28.968C79.816 28.9253 80.0347 28.88 80.296 28.832C80.5627 28.7787 80.8693 28.752 81.216 28.752C81.536 28.752 81.824 28.8027 82.08 28.904C82.336 29.0053 82.5547 29.1493 82.736 29.336C82.9173 29.5227 83.056 29.752 83.152 30.024C83.2533 30.2907 83.304 30.592 83.304 30.928ZM85.7589 32.464C85.9349 32.464 86.0896 32.4613 86.2229 32.456C86.3616 32.4453 86.4763 32.4293 86.5669 32.408V31.168C86.5136 31.1413 86.4256 31.12 86.3029 31.104C86.1856 31.0827 86.0416 31.072 85.8709 31.072C85.7589 31.072 85.6389 31.08 85.5109 31.096C85.3883 31.112 85.2736 31.1467 85.1669 31.2C85.0656 31.248 84.9803 31.3173 84.9109 31.408C84.8416 31.4933 84.8069 31.608 84.8069 31.752C84.8069 32.0187 84.8923 32.2053 85.0629 32.312C85.2336 32.4133 85.4656 32.464 85.7589 32.464ZM85.6949 28.736C85.9936 28.736 86.2443 28.776 86.4469 28.856C86.6549 28.9307 86.8203 29.04 86.9429 29.184C87.0709 29.3227 87.1616 29.4907 87.2149 29.688C87.2683 29.88 87.2949 30.0933 87.2949 30.328V32.928C87.2309 32.9387 87.1403 32.9547 87.0229 32.976C86.9109 32.992 86.7829 33.008 86.6389 33.024C86.4949 33.04 86.3376 33.0533 86.1669 33.064C86.0016 33.08 85.8363 33.088 85.6709 33.088C85.4363 33.088 85.2203 33.064 85.0229 33.016C84.8256 32.968 84.6549 32.8933 84.5109 32.792C84.3669 32.6853 84.2549 32.5467 84.1749 32.376C84.0949 32.2053 84.0549 32 84.0549 31.76C84.0549 31.5307 84.1003 31.3333 84.1909 31.168C84.2869 31.0027 84.4149 30.8693 84.5749 30.768C84.7349 30.6667 84.9216 30.592 85.1349 30.544C85.3483 30.496 85.5723 30.472 85.8069 30.472C85.8816 30.472 85.9589 30.4773 86.0389 30.488C86.1189 30.4933 86.1936 30.504 86.2629 30.52C86.3376 30.5307 86.4016 30.5413 86.4549 30.552C86.5083 30.5627 86.5456 30.5707 86.5669 30.576V30.368C86.5669 30.2453 86.5536 30.1253 86.5269 30.008C86.5003 29.8853 86.4523 29.7787 86.3829 29.688C86.3136 29.592 86.2176 29.5173 86.0949 29.464C85.9776 29.4053 85.8229 29.376 85.6309 29.376C85.3856 29.376 85.1696 29.3947 84.9829 29.432C84.8016 29.464 84.6656 29.4987 84.5749 29.536L84.4869 28.92C84.5829 28.8773 84.7429 28.8373 84.9669 28.8C85.1909 28.7573 85.4336 28.736 85.6949 28.736ZM90.0506 30.736C90.216 30.8533 90.3946 31.0027 90.5866 31.184C90.7786 31.36 90.9653 31.552 91.1466 31.76C91.3333 31.968 91.5066 32.1813 91.6666 32.4C91.8266 32.6133 91.9626 32.8133 92.0746 33H91.1946C91.0773 32.8187 90.9386 32.6347 90.7786 32.448C90.624 32.256 90.4613 32.072 90.2906 31.896C90.12 31.72 89.9466 31.5573 89.7706 31.408C89.5946 31.2587 89.4293 31.1333 89.2746 31.032V33H88.5306V28.84H89.2746V30.624C89.4026 30.5013 89.5493 30.36 89.7146 30.2C89.88 30.0347 90.0453 29.8693 90.2106 29.704C90.3813 29.5333 90.5386 29.3733 90.6826 29.224C90.8266 29.0693 90.944 28.9413 91.0346 28.84H91.8986C91.7813 28.968 91.6426 29.1147 91.4826 29.28C91.328 29.44 91.1653 29.6053 90.9946 29.776C90.8293 29.9467 90.664 30.1173 90.4986 30.288C90.3333 30.4533 90.184 30.6027 90.0506 30.736ZM96.2651 30.92C96.2651 31.2507 96.2171 31.5493 96.1211 31.816C96.0251 32.0827 95.8891 32.312 95.7131 32.504C95.5425 32.696 95.3371 32.8453 95.0971 32.952C94.8571 33.0533 94.5958 33.104 94.3131 33.104C94.0305 33.104 93.7691 33.0533 93.5291 32.952C93.2891 32.8453 93.0811 32.696 92.9051 32.504C92.7345 32.312 92.6011 32.0827 92.5051 31.816C92.4091 31.5493 92.3611 31.2507 92.3611 30.92C92.3611 30.5947 92.4091 30.2987 92.5051 30.032C92.6011 29.76 92.7345 29.528 92.9051 29.336C93.0811 29.144 93.2891 28.9973 93.5291 28.896C93.7691 28.7893 94.0305 28.736 94.3131 28.736C94.5958 28.736 94.8571 28.7893 95.0971 28.896C95.3371 28.9973 95.5425 29.144 95.7131 29.336C95.8891 29.528 96.0251 29.76 96.1211 30.032C96.2171 30.2987 96.2651 30.5947 96.2651 30.92ZM95.4891 30.92C95.4891 30.4507 95.3825 30.08 95.1691 29.808C94.9611 29.5307 94.6758 29.392 94.3131 29.392C93.9505 29.392 93.6625 29.5307 93.4491 29.808C93.2411 30.08 93.1371 30.4507 93.1371 30.92C93.1371 31.3893 93.2411 31.7627 93.4491 32.04C93.6625 32.312 93.9505 32.448 94.3131 32.448C94.6758 32.448 94.9611 32.312 95.1691 32.04C95.3825 31.7627 95.4891 31.3893 95.4891 30.92ZM98.0399 32.44C98.0719 32.4453 98.1172 32.4507 98.1759 32.456C98.2345 32.4613 98.3012 32.4667 98.3759 32.472C98.4505 32.472 98.5279 32.4747 98.6079 32.48C98.6932 32.48 98.7732 32.48 98.8479 32.48C99.0025 32.48 99.1492 32.4693 99.2879 32.448C99.4319 32.4267 99.5545 32.3893 99.6559 32.336C99.7625 32.2827 99.8452 32.2133 99.9039 32.128C99.9679 32.0373 99.9999 31.9227 99.9999 31.784C99.9999 31.6507 99.9705 31.5413 99.9119 31.456C99.8585 31.3653 99.7839 31.2933 99.6879 31.24C99.5919 31.1867 99.4772 31.1493 99.3439 31.128C99.2159 31.1067 99.0772 31.096 98.9279 31.096H98.0399V32.44ZM98.8319 30.544C98.9759 30.544 99.1065 30.536 99.2239 30.52C99.3465 30.4987 99.4505 30.464 99.5359 30.416C99.6265 30.368 99.6959 30.304 99.7439 30.224C99.7972 30.144 99.8239 30.0427 99.8239 29.92C99.8239 29.792 99.7919 29.6907 99.7279 29.616C99.6639 29.5413 99.5785 29.4853 99.4719 29.448C99.3705 29.4053 99.2532 29.3787 99.1199 29.368C98.9919 29.352 98.8612 29.344 98.7279 29.344C98.6052 29.344 98.4799 29.3467 98.3519 29.352C98.2292 29.3573 98.1252 29.3627 98.0399 29.368V30.544H98.8319ZM98.8159 33.072C98.5012 33.072 98.2105 33.056 97.9439 33.024C97.6772 32.9973 97.4665 32.9653 97.3119 32.928V28.88C97.4665 28.8427 97.6772 28.8107 97.9439 28.784C98.2105 28.752 98.5012 28.736 98.8159 28.736C99.0345 28.736 99.2479 28.7547 99.4559 28.792C99.6639 28.8293 99.8479 28.8933 100.008 28.984C100.168 29.0693 100.296 29.1893 100.392 29.344C100.493 29.4933 100.544 29.68 100.544 29.904C100.544 30.1067 100.493 30.28 100.392 30.424C100.291 30.568 100.155 30.68 99.9839 30.76C100.213 30.84 100.395 30.96 100.528 31.12C100.667 31.2747 100.736 31.4933 100.736 31.776C100.736 32.0267 100.685 32.2347 100.584 32.4C100.488 32.5653 100.352 32.6987 100.176 32.8C100.005 32.9013 99.8025 32.9707 99.5679 33.008C99.3332 33.0507 99.0825 33.072 98.8159 33.072ZM105.191 28.84V33H104.471V29.832C104.311 30.0347 104.135 30.272 103.943 30.544C103.751 30.816 103.559 31.0987 103.367 31.392C103.175 31.68 102.991 31.9653 102.815 32.248C102.639 32.5307 102.487 32.7813 102.359 33H101.695V28.84H102.415V31.832C102.553 31.6027 102.711 31.352 102.887 31.08C103.063 30.8027 103.244 30.5307 103.431 30.264C103.623 29.992 103.812 29.7333 103.999 29.488C104.191 29.2373 104.369 29.0213 104.535 28.84H105.191ZM109.876 33H109.132V31.16H107.212V33H106.468V28.84H107.212V30.536H109.132V28.84H109.876V33ZM112.684 30.944C112.54 30.944 112.398 30.9493 112.26 30.96C112.126 30.9653 112.006 30.9813 111.9 31.008V32.44C111.932 32.4453 111.977 32.4507 112.036 32.456C112.1 32.4613 112.166 32.4667 112.236 32.472C112.31 32.472 112.385 32.4747 112.46 32.48C112.534 32.48 112.601 32.48 112.66 32.48C112.985 32.48 113.236 32.4187 113.412 32.296C113.588 32.1733 113.676 31.976 113.676 31.704C113.676 31.5707 113.646 31.456 113.588 31.36C113.534 31.264 113.46 31.1867 113.364 31.128C113.273 31.064 113.169 31.0187 113.052 30.992C112.934 30.96 112.812 30.944 112.684 30.944ZM111.156 28.84H111.9V30.432C111.99 30.4107 112.121 30.3893 112.292 30.368C112.468 30.3467 112.636 30.336 112.796 30.336C113.014 30.336 113.222 30.3627 113.42 30.416C113.617 30.464 113.79 30.544 113.94 30.656C114.089 30.7627 114.206 30.904 114.292 31.08C114.382 31.2507 114.428 31.456 114.428 31.696C114.428 31.9467 114.385 32.16 114.3 32.336C114.214 32.512 114.094 32.656 113.94 32.768C113.785 32.88 113.598 32.96 113.38 33.008C113.161 33.0613 112.921 33.088 112.66 33.088C112.409 33.088 112.156 33.072 111.9 33.04C111.644 33.0133 111.396 32.9707 111.156 32.912V28.84ZM115.94 33H115.196V28.84H115.94V33ZM122.566 28.84V33H121.846V29.832C121.686 30.0347 121.51 30.272 121.318 30.544C121.126 30.816 120.934 31.0987 120.742 31.392C120.55 31.68 120.366 31.9653 120.19 32.248C120.014 32.5307 119.862 32.7813 119.734 33H119.07V28.84H119.79V31.832C119.928 31.6027 120.086 31.352 120.262 31.08C120.438 30.8027 120.619 30.5307 120.806 30.264C120.998 29.992 121.187 29.7333 121.374 29.488C121.566 29.2373 121.744 29.0213 121.91 28.84H122.566ZM125.207 33.776C125.265 33.8027 125.34 33.8267 125.431 33.848C125.527 33.8747 125.62 33.888 125.711 33.888C126.004 33.888 126.233 33.8213 126.399 33.688C126.564 33.56 126.713 33.3493 126.847 33.056C126.511 32.416 126.196 31.7387 125.903 31.024C125.615 30.304 125.375 29.576 125.183 28.84H125.983C126.041 29.08 126.111 29.3387 126.191 29.616C126.276 29.8933 126.369 30.1787 126.471 30.472C126.572 30.7653 126.681 31.0587 126.799 31.352C126.916 31.6453 127.039 31.928 127.167 32.2C127.369 31.64 127.545 31.0853 127.695 30.536C127.844 29.9867 127.985 29.4213 128.119 28.84H128.887C128.695 29.624 128.481 30.3787 128.247 31.104C128.012 31.824 127.759 32.4987 127.487 33.128C127.38 33.368 127.268 33.5733 127.151 33.744C127.039 33.92 126.913 34.064 126.775 34.176C126.636 34.288 126.479 34.3707 126.303 34.424C126.132 34.4773 125.937 34.504 125.719 34.504C125.66 34.504 125.599 34.4987 125.535 34.488C125.471 34.4827 125.407 34.472 125.343 34.456C125.284 34.4453 125.228 34.432 125.175 34.416C125.127 34.4 125.092 34.3867 125.071 34.376L125.207 33.776ZM130.463 29.936C130.41 30.464 130.37 30.992 130.343 31.52C130.317 32.0427 130.295 32.536 130.279 33H129.567C129.578 32.6747 129.594 32.336 129.615 31.984C129.637 31.6267 129.661 31.2693 129.687 30.912C129.714 30.5493 129.743 30.1947 129.775 29.848C129.807 29.496 129.842 29.16 129.879 28.84H130.559C130.73 29.1173 130.93 29.4987 131.159 29.984C131.389 30.464 131.653 31.0187 131.951 31.648C132.25 31.0187 132.514 30.464 132.743 29.984C132.973 29.4987 133.173 29.1173 133.343 28.84H134.031C134.069 29.16 134.103 29.496 134.135 29.848C134.167 30.1947 134.197 30.5493 134.223 30.912C134.25 31.2693 134.274 31.6267 134.295 31.984C134.317 32.336 134.333 32.6747 134.343 33H133.607C133.591 32.536 133.57 32.0427 133.543 31.52C133.517 30.992 133.477 30.464 133.423 29.936C133.338 30.1013 133.239 30.3013 133.127 30.536C133.015 30.7653 132.903 31 132.791 31.24C132.685 31.48 132.583 31.7093 132.487 31.928C132.391 32.1467 132.317 32.32 132.263 32.448H131.639C131.581 32.3147 131.501 32.1387 131.399 31.92C131.303 31.7013 131.199 31.472 131.087 31.232C130.981 30.9867 130.871 30.7493 130.759 30.52C130.647 30.2853 130.549 30.0907 130.463 29.936ZM137.051 30.944C136.907 30.944 136.765 30.9493 136.627 30.96C136.493 30.9653 136.373 30.9813 136.267 31.008V32.44C136.299 32.4453 136.344 32.4507 136.403 32.456C136.467 32.4613 136.533 32.4667 136.603 32.472C136.677 32.472 136.752 32.4747 136.827 32.48C136.901 32.48 136.968 32.48 137.027 32.48C137.352 32.48 137.603 32.4187 137.779 32.296C137.955 32.1733 138.043 31.976 138.043 31.704C138.043 31.5707 138.013 31.456 137.955 31.36C137.901 31.264 137.827 31.1867 137.731 31.128C137.64 31.064 137.536 31.0187 137.419 30.992C137.301 30.96 137.179 30.944 137.051 30.944ZM135.523 28.84H136.267V30.432C136.357 30.4107 136.488 30.3893 136.659 30.368C136.835 30.3467 137.003 30.336 137.163 30.336C137.381 30.336 137.589 30.3627 137.787 30.416C137.984 30.464 138.157 30.544 138.307 30.656C138.456 30.7627 138.573 30.904 138.659 31.08C138.749 31.2507 138.795 31.456 138.795 31.696C138.795 31.9467 138.752 32.16 138.667 32.336C138.581 32.512 138.461 32.656 138.307 32.768C138.152 32.88 137.965 32.96 137.747 33.008C137.528 33.0613 137.288 33.088 137.027 33.088C136.776 33.088 136.523 33.072 136.267 33.04C136.011 33.0133 135.763 32.9707 135.523 32.912V28.84ZM140.307 33H139.563V28.84H140.307V33ZM142.313 32.44C142.345 32.4453 142.391 32.4507 142.449 32.456C142.508 32.4613 142.575 32.4667 142.649 32.472C142.724 32.472 142.801 32.4747 142.881 32.48C142.967 32.48 143.047 32.48 143.121 32.48C143.276 32.48 143.423 32.4693 143.561 32.448C143.705 32.4267 143.828 32.3893 143.929 32.336C144.036 32.2827 144.119 32.2133 144.177 32.128C144.241 32.0373 144.273 31.9227 144.273 31.784C144.273 31.6507 144.244 31.5413 144.185 31.456C144.132 31.3653 144.057 31.2933 143.961 31.24C143.865 31.1867 143.751 31.1493 143.617 31.128C143.489 31.1067 143.351 31.096 143.201 31.096H142.313V32.44ZM143.105 30.544C143.249 30.544 143.38 30.536 143.497 30.52C143.62 30.4987 143.724 30.464 143.809 30.416C143.9 30.368 143.969 30.304 144.017 30.224C144.071 30.144 144.097 30.0427 144.097 29.92C144.097 29.792 144.065 29.6907 144.001 29.616C143.937 29.5413 143.852 29.4853 143.745 29.448C143.644 29.4053 143.527 29.3787 143.393 29.368C143.265 29.352 143.135 29.344 143.001 29.344C142.879 29.344 142.753 29.3467 142.625 29.352C142.503 29.3573 142.399 29.3627 142.313 29.368V30.544H143.105ZM143.089 33.072C142.775 33.072 142.484 33.056 142.217 33.024C141.951 32.9973 141.74 32.9653 141.585 32.928V28.88C141.74 28.8427 141.951 28.8107 142.217 28.784C142.484 28.752 142.775 28.736 143.089 28.736C143.308 28.736 143.521 28.7547 143.729 28.792C143.937 28.8293 144.121 28.8933 144.281 28.984C144.441 29.0693 144.569 29.1893 144.665 29.344C144.767 29.4933 144.817 29.68 144.817 29.904C144.817 30.1067 144.767 30.28 144.665 30.424C144.564 30.568 144.428 30.68 144.257 30.76C144.487 30.84 144.668 30.96 144.801 31.12C144.94 31.2747 145.009 31.4933 145.009 31.776C145.009 32.0267 144.959 32.2347 144.857 32.4C144.761 32.5653 144.625 32.6987 144.449 32.8C144.279 32.9013 144.076 32.9707 143.841 33.008C143.607 33.0507 143.356 33.072 143.089 33.072ZM147.376 32.464C147.552 32.464 147.707 32.4613 147.84 32.456C147.979 32.4453 148.093 32.4293 148.184 32.408V31.168C148.131 31.1413 148.043 31.12 147.92 31.104C147.803 31.0827 147.659 31.072 147.488 31.072C147.376 31.072 147.256 31.08 147.128 31.096C147.005 31.112 146.891 31.1467 146.784 31.2C146.683 31.248 146.597 31.3173 146.528 31.408C146.459 31.4933 146.424 31.608 146.424 31.752C146.424 32.0187 146.509 32.2053 146.68 32.312C146.851 32.4133 147.083 32.464 147.376 32.464ZM147.312 28.736C147.611 28.736 147.861 28.776 148.064 28.856C148.272 28.9307 148.437 29.04 148.56 29.184C148.688 29.3227 148.779 29.4907 148.832 29.688C148.885 29.88 148.912 30.0933 148.912 30.328V32.928C148.848 32.9387 148.757 32.9547 148.64 32.976C148.528 32.992 148.4 33.008 148.256 33.024C148.112 33.04 147.955 33.0533 147.784 33.064C147.619 33.08 147.453 33.088 147.288 33.088C147.053 33.088 146.837 33.064 146.64 33.016C146.443 32.968 146.272 32.8933 146.128 32.792C145.984 32.6853 145.872 32.5467 145.792 32.376C145.712 32.2053 145.672 32 145.672 31.76C145.672 31.5307 145.717 31.3333 145.808 31.168C145.904 31.0027 146.032 30.8693 146.192 30.768C146.352 30.6667 146.539 30.592 146.752 30.544C146.965 30.496 147.189 30.472 147.424 30.472C147.499 30.472 147.576 30.4773 147.656 30.488C147.736 30.4933 147.811 30.504 147.88 30.52C147.955 30.5307 148.019 30.5413 148.072 30.552C148.125 30.5627 148.163 30.5707 148.184 30.576V30.368C148.184 30.2453 148.171 30.1253 148.144 30.008C148.117 29.8853 148.069 29.7787 148 29.688C147.931 29.592 147.835 29.5173 147.712 29.464C147.595 29.4053 147.44 29.376 147.248 29.376C147.003 29.376 146.787 29.3947 146.6 29.432C146.419 29.464 146.283 29.4987 146.192 29.536L146.104 28.92C146.2 28.8773 146.36 28.8373 146.584 28.8C146.808 28.7573 147.051 28.736 147.312 28.736ZM151.596 29.464C151.596 29.64 151.59 29.8293 151.58 30.032C151.574 30.2293 151.561 30.4293 151.54 30.632C151.518 30.8293 151.489 31.0267 151.452 31.224C151.414 31.416 151.366 31.5973 151.308 31.768C151.249 31.9387 151.174 32.0987 151.084 32.248C150.998 32.3973 150.892 32.5307 150.764 32.648C150.636 32.76 150.486 32.856 150.316 32.936C150.145 33.0107 149.945 33.0587 149.716 33.08L149.612 32.456C149.873 32.4027 150.078 32.304 150.228 32.16C150.382 32.016 150.505 31.84 150.596 31.632C150.676 31.4507 150.734 31.2453 150.772 31.016C150.809 30.7867 150.836 30.5493 150.852 30.304C150.868 30.0533 150.876 29.8027 150.876 29.552C150.881 29.3013 150.884 29.064 150.884 28.84H153.652V33H152.908V29.464H151.596ZM156.505 32.48C156.82 32.48 157.068 32.4187 157.249 32.296C157.43 32.1733 157.521 31.976 157.521 31.704C157.521 31.5707 157.494 31.456 157.441 31.36C157.388 31.264 157.313 31.1867 157.217 31.128C157.126 31.064 157.02 31.0187 156.897 30.992C156.774 30.96 156.644 30.944 156.505 30.944C156.361 30.944 156.212 30.9493 156.057 30.96C155.908 30.9653 155.78 30.9813 155.673 31.008V32.44C155.705 32.4453 155.753 32.4507 155.817 32.456C155.881 32.4613 155.95 32.4667 156.025 32.472C156.105 32.472 156.185 32.4747 156.265 32.48C156.35 32.48 156.43 32.48 156.505 32.48ZM154.929 32.912V28.84H155.673V30.432C155.716 30.4213 155.772 30.4107 155.841 30.4C155.916 30.3893 155.993 30.3787 156.073 30.368C156.158 30.3573 156.246 30.3493 156.337 30.344C156.428 30.3387 156.513 30.336 156.593 30.336C156.822 30.336 157.038 30.3627 157.241 30.416C157.444 30.464 157.62 30.544 157.769 30.656C157.924 30.7627 158.046 30.904 158.137 31.08C158.228 31.2507 158.273 31.456 158.273 31.696C158.273 31.9467 158.23 32.16 158.145 32.336C158.06 32.512 157.937 32.656 157.777 32.768C157.617 32.88 157.425 32.96 157.201 33.008C156.982 33.0613 156.737 33.088 156.465 33.088C156.198 33.088 155.937 33.072 155.681 33.04C155.425 33.0133 155.174 32.9707 154.929 32.912ZM162.564 33H161.82V31.16H159.9V33H159.156V28.84H159.9V30.536H161.82V28.84H162.564V33ZM167.339 28.84V33H166.619V29.832C166.459 30.0347 166.283 30.272 166.091 30.544C165.899 30.816 165.707 31.0987 165.515 31.392C165.323 31.68 165.139 31.9653 164.963 32.248C164.787 32.5307 164.635 32.7813 164.507 33H163.843V28.84H164.563V31.832C164.702 31.6027 164.859 31.352 165.035 31.08C165.211 30.8027 165.392 30.5307 165.579 30.264C165.771 29.992 165.96 29.7333 166.147 29.488C166.339 29.2373 166.518 29.0213 166.683 28.84H167.339ZM170.137 30.736C170.302 30.8533 170.481 31.0027 170.673 31.184C170.865 31.36 171.051 31.552 171.233 31.76C171.419 31.968 171.593 32.1813 171.753 32.4C171.913 32.6133 172.049 32.8133 172.161 33H171.281C171.163 32.8187 171.025 32.6347 170.865 32.448C170.71 32.256 170.547 32.072 170.377 31.896C170.206 31.72 170.033 31.5573 169.857 31.408C169.681 31.2587 169.515 31.1333 169.361 31.032V33H168.617V28.84H169.361V30.624C169.489 30.5013 169.635 30.36 169.801 30.2C169.966 30.0347 170.131 29.8693 170.297 29.704C170.467 29.5333 170.625 29.3733 170.769 29.224C170.913 29.0693 171.03 28.9413 171.121 28.84H171.985C171.867 28.968 171.729 29.1147 171.569 29.28C171.414 29.44 171.251 29.6053 171.081 29.776C170.915 29.9467 170.75 30.1173 170.585 30.288C170.419 30.4533 170.27 30.6027 170.137 30.736ZM174.321 32.464C174.497 32.464 174.652 32.4613 174.785 32.456C174.924 32.4453 175.039 32.4293 175.129 32.408V31.168C175.076 31.1413 174.988 31.12 174.865 31.104C174.748 31.0827 174.604 31.072 174.433 31.072C174.321 31.072 174.201 31.08 174.073 31.096C173.951 31.112 173.836 31.1467 173.729 31.2C173.628 31.248 173.543 31.3173 173.473 31.408C173.404 31.4933 173.369 31.608 173.369 31.752C173.369 32.0187 173.455 32.2053 173.625 32.312C173.796 32.4133 174.028 32.464 174.321 32.464ZM174.257 28.736C174.556 28.736 174.807 28.776 175.009 28.856C175.217 28.9307 175.383 29.04 175.505 29.184C175.633 29.3227 175.724 29.4907 175.777 29.688C175.831 29.88 175.857 30.0933 175.857 30.328V32.928C175.793 32.9387 175.703 32.9547 175.585 32.976C175.473 32.992 175.345 33.008 175.201 33.024C175.057 33.04 174.9 33.0533 174.729 33.064C174.564 33.08 174.399 33.088 174.233 33.088C173.999 33.088 173.783 33.064 173.585 33.016C173.388 32.968 173.217 32.8933 173.073 32.792C172.929 32.6853 172.817 32.5467 172.737 32.376C172.657 32.2053 172.617 32 172.617 31.76C172.617 31.5307 172.663 31.3333 172.753 31.168C172.849 31.0027 172.977 30.8693 173.137 30.768C173.297 30.6667 173.484 30.592 173.697 30.544C173.911 30.496 174.135 30.472 174.369 30.472C174.444 30.472 174.521 30.4773 174.601 30.488C174.681 30.4933 174.756 30.504 174.825 30.52C174.9 30.5307 174.964 30.5413 175.017 30.552C175.071 30.5627 175.108 30.5707 175.129 30.576V30.368C175.129 30.2453 175.116 30.1253 175.089 30.008C175.063 29.8853 175.015 29.7787 174.945 29.688C174.876 29.592 174.78 29.5173 174.657 29.464C174.54 29.4053 174.385 29.376 174.193 29.376C173.948 29.376 173.732 29.3947 173.545 29.432C173.364 29.464 173.228 29.4987 173.137 29.536L173.049 28.92C173.145 28.8773 173.305 28.8373 173.529 28.8C173.753 28.7573 173.996 28.736 174.257 28.736ZM83.312 39.92C83.312 40.2507 83.264 40.5493 83.168 40.816C83.072 41.0827 82.936 41.312 82.76 41.504C82.5893 41.696 82.384 41.8453 82.144 41.952C81.904 42.0533 81.6427 42.104 81.36 42.104C81.0773 42.104 80.816 42.0533 80.576 41.952C80.336 41.8453 80.128 41.696 79.952 41.504C79.7813 41.312 79.648 41.0827 79.552 40.816C79.456 40.5493 79.408 40.2507 79.408 39.92C79.408 39.5947 79.456 39.2987 79.552 39.032C79.648 38.76 79.7813 38.528 79.952 38.336C80.128 38.144 80.336 37.9973 80.576 37.896C80.816 37.7893 81.0773 37.736 81.36 37.736C81.6427 37.736 81.904 37.7893 82.144 37.896C82.384 37.9973 82.5893 38.144 82.76 38.336C82.936 38.528 83.072 38.76 83.168 39.032C83.264 39.2987 83.312 39.5947 83.312 39.92ZM82.536 39.92C82.536 39.4507 82.4293 39.08 82.216 38.808C82.008 38.5307 81.7227 38.392 81.36 38.392C80.9973 38.392 80.7093 38.5307 80.496 38.808C80.288 39.08 80.184 39.4507 80.184 39.92C80.184 40.3893 80.288 40.7627 80.496 41.04C80.7093 41.312 80.9973 41.448 81.36 41.448C81.7227 41.448 82.008 41.312 82.216 41.04C82.4293 40.7627 82.536 40.3893 82.536 39.92ZM83.8468 41.392H84.2948C84.4708 41.136 84.6094 40.872 84.7108 40.6C84.8174 40.328 84.8974 40.048 84.9508 39.76C85.0041 39.4667 85.0388 39.1627 85.0548 38.848C85.0708 38.528 85.0814 38.192 85.0868 37.84H87.8148V41.392H88.3748V43.16H87.6708V42H84.5508V43.16H83.8468V41.392ZM87.0708 41.392V38.464H85.7668C85.7614 38.7147 85.7481 38.968 85.7268 39.224C85.7054 39.4747 85.6708 39.7253 85.6228 39.976C85.5748 40.2213 85.5054 40.464 85.4148 40.704C85.3294 40.9387 85.2201 41.168 85.0868 41.392H87.0708ZM92.5871 42H91.8431V40.16H89.9231V42H89.1791V37.84H89.9231V39.536H91.8431V37.84H92.5871V42ZM97.5386 39.92C97.5386 40.2507 97.4906 40.5493 97.3946 40.816C97.2986 41.0827 97.1626 41.312 96.9866 41.504C96.8159 41.696 96.6106 41.8453 96.3706 41.952C96.1306 42.0533 95.8692 42.104 95.5866 42.104C95.3039 42.104 95.0426 42.0533 94.8026 41.952C94.5626 41.8453 94.3546 41.696 94.1786 41.504C94.0079 41.312 93.8746 41.0827 93.7786 40.816C93.6826 40.5493 93.6346 40.2507 93.6346 39.92C93.6346 39.5947 93.6826 39.2987 93.7786 39.032C93.8746 38.76 94.0079 38.528 94.1786 38.336C94.3546 38.144 94.5626 37.9973 94.8026 37.896C95.0426 37.7893 95.3039 37.736 95.5866 37.736C95.8692 37.736 96.1306 37.7893 96.3706 37.896C96.6106 37.9973 96.8159 38.144 96.9866 38.336C97.1626 38.528 97.2986 38.76 97.3946 39.032C97.4906 39.2987 97.5386 39.5947 97.5386 39.92ZM96.7626 39.92C96.7626 39.4507 96.6559 39.08 96.4426 38.808C96.2346 38.5307 95.9492 38.392 95.5866 38.392C95.2239 38.392 94.9359 38.5307 94.7226 38.808C94.5146 39.08 94.4106 39.4507 94.4106 39.92C94.4106 40.3893 94.5146 40.7627 94.7226 41.04C94.9359 41.312 95.2239 41.448 95.5866 41.448C95.9492 41.448 96.2346 41.312 96.4426 41.04C96.6559 40.7627 96.7626 40.3893 96.7626 39.92ZM101.473 39.928C101.473 39.4427 101.353 39.0693 101.113 38.808C100.873 38.5467 100.553 38.416 100.153 38.416C99.9293 38.416 99.7533 38.424 99.6253 38.44C99.5026 38.456 99.404 38.4747 99.3293 38.496V41.12C99.42 41.1947 99.5506 41.2667 99.7213 41.336C99.892 41.4053 100.079 41.44 100.281 41.44C100.495 41.44 100.676 41.4027 100.825 41.328C100.98 41.248 101.105 41.1413 101.201 41.008C101.297 40.8693 101.367 40.7093 101.409 40.528C101.452 40.3413 101.473 40.1413 101.473 39.928ZM102.249 39.928C102.249 40.2427 102.207 40.5333 102.121 40.8C102.041 41.0667 101.921 41.296 101.761 41.488C101.601 41.68 101.404 41.8293 101.169 41.936C100.94 42.0427 100.676 42.096 100.377 42.096C100.137 42.096 99.924 42.064 99.7373 42C99.556 41.936 99.42 41.8747 99.3293 41.816V43.48H98.5853V37.968C98.7613 37.9253 98.98 37.88 99.2413 37.832C99.508 37.7787 99.8146 37.752 100.161 37.752C100.481 37.752 100.769 37.8027 101.025 37.904C101.281 38.0053 101.5 38.1493 101.681 38.336C101.863 38.5227 102.001 38.752 102.097 39.024C102.199 39.2907 102.249 39.592 102.249 39.928ZM102.699 42.776C102.758 42.8027 102.832 42.8267 102.923 42.848C103.019 42.8747 103.112 42.888 103.203 42.888C103.496 42.888 103.726 42.8213 103.891 42.688C104.056 42.56 104.206 42.3493 104.339 42.056C104.003 41.416 103.688 40.7387 103.395 40.024C103.107 39.304 102.867 38.576 102.675 37.84H103.475C103.534 38.08 103.603 38.3387 103.683 38.616C103.768 38.8933 103.862 39.1787 103.963 39.472C104.064 39.7653 104.174 40.0587 104.291 40.352C104.408 40.6453 104.531 40.928 104.659 41.2C104.862 40.64 105.038 40.0853 105.187 39.536C105.336 38.9867 105.478 38.4213 105.611 37.84H106.379C106.187 38.624 105.974 39.3787 105.739 40.104C105.504 40.824 105.251 41.4987 104.979 42.128C104.872 42.368 104.76 42.5733 104.643 42.744C104.531 42.92 104.406 43.064 104.267 43.176C104.128 43.288 103.971 43.3707 103.795 43.424C103.624 43.4773 103.43 43.504 103.211 43.504C103.152 43.504 103.091 43.4987 103.027 43.488C102.963 43.4827 102.899 43.472 102.835 43.456C102.776 43.4453 102.72 43.432 102.667 43.416C102.619 43.4 102.584 43.3867 102.563 43.376L102.699 42.776ZM108.683 39.736C108.849 39.8533 109.027 40.0027 109.219 40.184C109.411 40.36 109.598 40.552 109.779 40.76C109.966 40.968 110.139 41.1813 110.299 41.4C110.459 41.6133 110.595 41.8133 110.707 42H109.827C109.71 41.8187 109.571 41.6347 109.411 41.448C109.257 41.256 109.094 41.072 108.923 40.896C108.753 40.72 108.579 40.5573 108.403 40.408C108.227 40.2587 108.062 40.1333 107.907 40.032V42H107.163V37.84H107.907V39.624C108.035 39.5013 108.182 39.36 108.347 39.2C108.513 39.0347 108.678 38.8693 108.843 38.704C109.014 38.5333 109.171 38.3733 109.315 38.224C109.459 38.0693 109.577 37.9413 109.667 37.84H110.531C110.414 37.968 110.275 38.1147 110.115 38.28C109.961 38.44 109.798 38.6053 109.627 38.776C109.462 38.9467 109.297 39.1173 109.131 39.288C108.966 39.4533 108.817 39.6027 108.683 39.736ZM114.898 39.92C114.898 40.2507 114.85 40.5493 114.754 40.816C114.658 41.0827 114.522 41.312 114.346 41.504C114.175 41.696 113.97 41.8453 113.73 41.952C113.49 42.0533 113.229 42.104 112.946 42.104C112.663 42.104 112.402 42.0533 112.162 41.952C111.922 41.8453 111.714 41.696 111.538 41.504C111.367 41.312 111.234 41.0827 111.138 40.816C111.042 40.5493 110.994 40.2507 110.994 39.92C110.994 39.5947 111.042 39.2987 111.138 39.032C111.234 38.76 111.367 38.528 111.538 38.336C111.714 38.144 111.922 37.9973 112.162 37.896C112.402 37.7893 112.663 37.736 112.946 37.736C113.229 37.736 113.49 37.7893 113.73 37.896C113.97 37.9973 114.175 38.144 114.346 38.336C114.522 38.528 114.658 38.76 114.754 39.032C114.85 39.2987 114.898 39.5947 114.898 39.92ZM114.122 39.92C114.122 39.4507 114.015 39.08 113.802 38.808C113.594 38.5307 113.309 38.392 112.946 38.392C112.583 38.392 112.295 38.5307 112.082 38.808C111.874 39.08 111.77 39.4507 111.77 39.92C111.77 40.3893 111.874 40.7627 112.082 41.04C112.295 41.312 112.583 41.448 112.946 41.448C113.309 41.448 113.594 41.312 113.802 41.04C114.015 40.7627 114.122 40.3893 114.122 39.92ZM117.665 40.384C117.585 40.384 117.507 40.384 117.433 40.384C117.358 40.3787 117.286 40.3733 117.217 40.368C117.046 40.624 116.881 40.8987 116.721 41.192C116.566 41.48 116.427 41.7493 116.305 42H115.553C115.617 41.8453 115.691 41.688 115.777 41.528C115.862 41.3627 115.947 41.2027 116.033 41.048C116.123 40.8933 116.214 40.7467 116.305 40.608C116.395 40.4693 116.481 40.344 116.561 40.232C116.411 40.1787 116.289 40.1147 116.193 40.04C116.097 39.96 116.019 39.872 115.961 39.776C115.902 39.68 115.859 39.5787 115.833 39.472C115.811 39.36 115.801 39.248 115.801 39.136C115.801 38.9013 115.843 38.696 115.929 38.52C116.019 38.344 116.142 38.2 116.297 38.088C116.451 37.9707 116.633 37.8827 116.841 37.824C117.054 37.7653 117.286 37.736 117.537 37.736C117.889 37.736 118.187 37.752 118.433 37.784C118.678 37.816 118.883 37.8533 119.049 37.896V42H118.313V40.384H117.665ZM118.313 38.392C118.254 38.3813 118.155 38.3707 118.017 38.36C117.883 38.3493 117.729 38.344 117.553 38.344C117.249 38.344 117.003 38.408 116.817 38.536C116.63 38.6587 116.537 38.856 116.537 39.128C116.537 39.3947 116.633 39.5787 116.825 39.68C117.017 39.7813 117.265 39.832 117.569 39.832H118.313V38.392ZM123.264 37.84V38.464H121.912V42H121.168V38.464H119.816V37.84H123.264ZM127.703 39.92C127.703 40.2507 127.655 40.5493 127.559 40.816C127.463 41.0827 127.327 41.312 127.151 41.504C126.98 41.696 126.775 41.8453 126.535 41.952C126.295 42.0533 126.033 42.104 125.751 42.104C125.468 42.104 125.207 42.0533 124.967 41.952C124.727 41.8453 124.519 41.696 124.343 41.504C124.172 41.312 124.039 41.0827 123.943 40.816C123.847 40.5493 123.799 40.2507 123.799 39.92C123.799 39.5947 123.847 39.2987 123.943 39.032C124.039 38.76 124.172 38.528 124.343 38.336C124.519 38.144 124.727 37.9973 124.967 37.896C125.207 37.7893 125.468 37.736 125.751 37.736C126.033 37.736 126.295 37.7893 126.535 37.896C126.775 37.9973 126.98 38.144 127.151 38.336C127.327 38.528 127.463 38.76 127.559 39.032C127.655 39.2987 127.703 39.5947 127.703 39.92ZM126.927 39.92C126.927 39.4507 126.82 39.08 126.607 38.808C126.399 38.5307 126.113 38.392 125.751 38.392C125.388 38.392 125.1 38.5307 124.887 38.808C124.679 39.08 124.575 39.4507 124.575 39.92C124.575 40.3893 124.679 40.7627 124.887 41.04C125.1 41.312 125.388 41.448 125.751 41.448C126.113 41.448 126.399 41.312 126.607 41.04C126.82 40.7627 126.927 40.3893 126.927 39.92ZM129.221 37.84V39.064C129.221 39.3787 129.301 39.6 129.461 39.728C129.621 39.8507 129.84 39.912 130.117 39.912C130.32 39.912 130.488 39.9013 130.621 39.88C130.76 39.8587 130.883 39.8347 130.989 39.808V37.84H131.733V42H130.989V40.384C130.947 40.3947 130.891 40.408 130.821 40.424C130.752 40.44 130.672 40.456 130.581 40.472C130.496 40.4827 130.405 40.4933 130.309 40.504C130.213 40.5147 130.12 40.52 130.029 40.52C129.8 40.52 129.589 40.496 129.397 40.448C129.211 40.4 129.048 40.32 128.909 40.208C128.776 40.096 128.669 39.9493 128.589 39.768C128.515 39.5813 128.477 39.3493 128.477 39.072V37.84H129.221ZM136.423 42H135.679V40.16H133.759V42H133.015V37.84H133.759V39.536H135.679V37.84H136.423V42ZM139.231 39.944C139.087 39.944 138.945 39.9493 138.807 39.96C138.673 39.9653 138.553 39.9813 138.447 40.008V41.44C138.479 41.4453 138.524 41.4507 138.583 41.456C138.647 41.4613 138.713 41.4667 138.783 41.472C138.857 41.472 138.932 41.4747 139.007 41.48C139.081 41.48 139.148 41.48 139.207 41.48C139.532 41.48 139.783 41.4187 139.959 41.296C140.135 41.1733 140.223 40.976 140.223 40.704C140.223 40.5707 140.193 40.456 140.135 40.36C140.081 40.264 140.007 40.1867 139.911 40.128C139.82 40.064 139.716 40.0187 139.599 39.992C139.481 39.96 139.359 39.944 139.231 39.944ZM137.703 37.84H138.447V39.432C138.537 39.4107 138.668 39.3893 138.839 39.368C139.015 39.3467 139.183 39.336 139.343 39.336C139.561 39.336 139.769 39.3627 139.967 39.416C140.164 39.464 140.337 39.544 140.487 39.656C140.636 39.7627 140.753 39.904 140.839 40.08C140.929 40.2507 140.975 40.456 140.975 40.696C140.975 40.9467 140.932 41.16 140.847 41.336C140.761 41.512 140.641 41.656 140.487 41.768C140.332 41.88 140.145 41.96 139.927 42.008C139.708 42.0613 139.468 42.088 139.207 42.088C138.956 42.088 138.703 42.072 138.447 42.04C138.191 42.0133 137.943 41.9707 137.703 41.912V37.84ZM142.487 42H141.743V37.84H142.487V42ZM147.261 37.84V42H146.541V38.832C146.381 39.0347 146.205 39.272 146.013 39.544C145.821 39.816 145.629 40.0987 145.437 40.392C145.245 40.68 145.061 40.9653 144.885 41.248C144.709 41.5307 144.557 41.7813 144.429 42H143.765V37.84H144.485V40.832C144.624 40.6027 144.781 40.352 144.957 40.08C145.133 39.8027 145.314 39.5307 145.501 39.264C145.693 38.992 145.882 38.7333 146.069 38.488C146.261 38.2373 146.44 38.0213 146.605 37.84H147.261ZM145.517 37.168C145.181 37.168 144.906 37.0827 144.693 36.912C144.485 36.7413 144.36 36.504 144.317 36.2L144.885 36.048C144.928 36.2187 145 36.3573 145.101 36.464C145.202 36.5707 145.341 36.624 145.517 36.624C145.693 36.624 145.832 36.5707 145.933 36.464C146.034 36.3573 146.106 36.2187 146.149 36.048L146.709 36.2C146.666 36.504 146.541 36.7413 146.333 36.912C146.125 37.0827 145.853 37.168 145.517 37.168Z" fill="white"/>
<path d="M43.424 30.8123C44.0653 30.5844 44.9311 30.3821 45.5817 30.2108C46.3465 30.0096 47.0449 29.8769 47.703 29.7825C48.3608 29.6884 48.9781 29.6323 49.7297 29.6219C50.4812 29.6113 51.3668 29.6463 52.1109 29.7129C52.8548 29.7794 53.457 29.8779 53.7694 29.9923C54.0816 30.1069 54.1041 30.2376 54.1201 30.3943C54.1361 30.5508 54.1457 30.7333 54.1904 30.8448C54.235 30.9563 54.3148 30.9967 54.4506 31.0751C54.5866 31.1533 54.7789 31.2694 54.9618 31.3566C55.1446 31.4438 55.3184 31.5022 55.7613 31.5196C56.2041 31.5369 56.9162 31.5135 57.5678 31.4452C58.2193 31.3768 58.8102 31.2634 59.3341 31.1275C59.8581 30.9914 60.3149 30.8327 60.8225 30.6095C61.3302 30.3863 61.8888 30.0989 62.2446 29.864C62.6006 29.629 62.7537 29.4468 62.8289 29.3304C62.9042 29.2136 62.9015 29.1626 62.8346 28.6314C62.7679 28.1001 62.6368 27.0887 62.5181 26.5306C62.3995 25.9724 62.2932 25.8672 62.0856 25.7554C61.8782 25.6437 61.5696 25.5253 60.8249 25.2979C60.0801 25.0702 58.8993 24.7334 57.8119 24.4769C56.7246 24.2202 55.7305 24.0435 54.8295 23.9399C53.9286 23.8362 53.1205 23.8052 52.2645 23.8167C51.4083 23.8279 50.504 23.8817 49.6407 23.9776C48.7774 24.0734 47.9551 24.2114 47.2197 24.3785C46.5328 24.5344 45.5318 24.5793 42.9307 25.5842" stroke="white" stroke-width="0.5"/>
<path d="M62.363 29.7363C62.4784 30.2614 62.594 30.7864 62.6424 31.0959C62.6907 31.4052 62.672 31.4992 62.5516 31.6562C62.4312 31.8132 62.209 32.0332 61.871 32.2626C61.5331 32.4921 61.0793 32.7309 60.5191 32.9361C59.959 33.1413 59.2926 33.3129 58.7902 33.4299C58.2879 33.5471 57.9497 33.6098 57.5242 33.6301C57.0986 33.6505 56.5857 33.6285 56.2066 33.5653C55.8275 33.502 55.5821 33.3975 55.4567 33.2871C55.3312 33.1768 55.3256 33.0607 55.2628 32.7484C55.2 32.436 55.0801 31.9274 54.96 31.4188" stroke="white" stroke-width="0.5"/>
<path d="M57.9125 33.5972C57.8426 33.2874 57.7727 32.9775 57.7485 32.8066C57.7245 32.6356 57.7462 32.6035 58.2325 32.4756C58.7188 32.3477 59.6697 32.1237 60.1537 32.0308C60.6378 31.9378 60.6551 31.9756 60.6897 32.1284C60.7241 32.2809 60.7757 32.5481 60.8274 32.8153" stroke="white" stroke-width="0.5"/>
<path d="M62.108 25.7676C61.4148 26.0923 60.7315 26.421 60.1555 26.7906C59.5195 27.199 59.0142 27.6574 58.7004 28.1494C58.3866 28.6413 58.2645 29.1669 58.2572 29.6635C58.2499 30.1602 58.3577 30.6279 58.41 30.9079C58.4624 31.1878 58.4595 31.2798 58.4565 31.3717" stroke="white" stroke-width="0.5"/>
<path d="M59.6211 26.829C58.7657 26.9399 57.9102 27.0506 56.851 27.0355C55.7917 27.0202 54.5287 26.8791 53.3237 26.7352C52.1187 26.5914 50.9718 26.4446 50.06 26.3487C49.148 26.2527 48.4711 26.2076 47.575 26.2777C46.6788 26.3477 45.5633 26.5332 44.2803 26.8659C44.0074 26.9368 43.5876 27.0102 43.2803 27.1031" stroke="white" stroke-width="0.5"/>
<path d="M40.9042 12.8075C40.5462 12.4074 40.1881 12.0075 39.6977 11.626C39.2072 11.2447 38.5843 10.8819 37.8446 10.5383C37.1047 10.1947 36.248 9.87022 35.0402 9.61112C33.8324 9.35192 32.2736 9.15792 30.9051 9.06372C29.5365 8.96932 28.3583 8.97472 27.2451 9.11422C26.1318 9.25342 25.0838 9.52692 24.1648 9.87452C23.2458 10.2222 22.456 10.6443 21.7791 11.1631C21.1022 11.682 20.5381 12.2979 20.0435 12.9239C19.5489 13.5499 19.1237 14.1862 18.8712 14.7586C18.6186 15.3311 18.5389 15.8398 18.5547 16.2744C18.5705 16.709 18.6819 17.0693 18.9087 17.4571C19.1354 17.8448 19.4774 18.2596 19.93 18.6166C20.3825 18.9734 20.9457 19.272 21.6351 19.5055C22.3244 19.7387 23.1402 19.9067 23.9831 19.9595C24.8261 20.0121 25.6963 19.9495 26.4446 19.8285C27.1929 19.7073 27.8193 19.5275 28.3615 19.3139C28.9037 19.1004 29.3619 18.8529 29.7528 18.5334C30.1438 18.2137 30.4674 17.822 30.6649 17.4956C30.8623 17.1692 30.9333 16.9082 30.999 16.3601C31.0646 15.8122 31.1248 14.9771 31.185 14.1423" stroke="white" stroke-width="0.5"/>
<path d="M23.5674 16.5268C24.0967 16.0183 24.626 15.5097 25.4539 15.1046C26.2819 14.6995 27.4085 14.3979 28.553 14.2519C29.6973 14.1057 30.8596 14.1154 32.0261 14.2258C33.1926 14.3363 34.3633 14.5477 35.2719 14.7189C36.1804 14.8902 36.8269 15.0212 37.4219 15.073C38.0169 15.1248 38.5603 15.0974 39.0836 14.9838C39.6069 14.8702 40.1098 14.671 40.4279 14.4417C40.7459 14.2126 40.8789 13.9536 40.9273 13.6763C40.9758 13.399 40.9396 13.1032 40.9215 12.9554C40.9034 12.8074 40.9034 12.8074 40.7728 12.9967C40.6422 13.1858 40.3811 13.5643 39.9612 13.821C39.5415 14.0775 38.9633 14.2123 37.9097 14.1988C36.8561 14.1852 35.3271 14.0233 34.0539 13.8626C32.7807 13.7018 31.7632 13.5423 30.8205 13.4628C29.8777 13.3835 29.0095 13.3841 28.0986 13.4996C27.1878 13.615 26.2343 13.8452 25.5072 14.0214C24.7803 14.1976 24.2801 14.3196 23.7797 14.4416" stroke="white" stroke-width="0.5"/>
<path d="M29.798 15.2252C29.9595 15.2619 30.1181 15.3837 30.2258 15.5191C30.3334 15.6546 30.3902 15.8038 30.4077 15.9674C30.4253 16.1306 30.4035 16.3082 30.3431 16.4883C30.2825 16.6683 30.1831 16.8507 30.0524 17.0438C29.9216 17.2369 29.7595 17.4404 29.5877 17.5895C29.4158 17.7386 29.2343 17.8329 29.0752 17.839C28.9161 17.845 28.7794 17.7627 28.6673 17.6464C28.555 17.5301 28.4673 17.3798 28.4433 17.1775C28.4194 16.9751 28.4593 16.7207 28.5536 16.4605C28.6479 16.2004 28.7968 15.9343 28.9315 15.7374C29.0663 15.5407 29.1869 15.413 29.3296 15.3251C29.4721 15.2371 29.6366 15.1886 29.798 15.2252Z" stroke="white" stroke-width="0.5"/>
<path d="M25.2279 16.2593C25.2074 16.8477 25.1868 17.436 25.1746 18.0092C25.1623 18.5822 25.1584 19.1401 25.1543 19.698" stroke="white" stroke-width="0.5"/>
<path d="M18.9085 17.457C18.9004 18.131 18.8923 18.8049 18.8872 21.8392C18.882 24.8732 18.8796 30.2675 18.8763 33.0266C18.8729 35.7858 18.8686 35.9095 18.9774 36.1226C19.0862 36.3357 19.3082 36.6379 19.717 36.9157C20.1259 37.1935 20.7216 37.4468 21.3343 37.6544C21.9471 37.8617 22.5771 38.0232 23.2331 38.1005C23.8892 38.1776 24.5715 38.1703 25.2329 38.1005C25.894 38.0305 26.5342 37.8978 27.1306 37.6863C27.727 37.4744 28.2797 37.1838 28.6765 36.9187C29.0733 36.6533 29.3142 36.4138 29.4686 36.2101C29.6229 36.0061 29.6908 35.838 29.7187 35.7072C29.7464 35.5764 29.7342 35.483 29.7282 35.4362C29.7219 35.3895 29.7219 35.3895 29.7219 35.3895" stroke="white" stroke-width="0.5"/>
<path d="M29.9847 18.3276C29.9286 22.218 29.8725 26.1082 29.8164 29.9987" stroke="white" stroke-width="0.5"/>
<path d="M18.8926 19.6479C19.4021 20.0126 19.9116 20.377 20.4654 20.655C21.0191 20.9332 21.617 21.1244 22.309 21.2806C23.0012 21.4364 23.7875 21.5568 24.5309 21.5751C25.2744 21.5933 25.9748 21.5093 26.6231 21.3692C27.2712 21.2291 27.867 21.0327 28.3242 20.8163C28.7813 20.5996 29.0996 20.3627 29.3501 20.1699C29.6005 19.9771 29.7832 19.8284 29.9659 19.6796" stroke="white" stroke-width="0.5"/>
<path d="M18.8799 28.1265C19.0654 28.3972 19.2512 28.668 19.5481 28.95C19.8451 29.232 20.2535 29.5252 20.7258 29.7588C21.1982 29.9924 21.7347 30.1661 22.3192 30.2951C22.9037 30.4239 23.5363 30.5079 24.1794 30.515C24.8225 30.5219 25.476 30.4518 26.1081 30.3266C26.7402 30.2013 27.3511 30.0212 27.8626 29.7987C28.3742 29.5764 28.7864 29.3116 29.0999 29.0358C29.4134 28.7597 29.628 28.4724 29.8427 28.185" stroke="white" stroke-width="0.5"/>
<path d="M30.5707 35.0471C30.5689 35.5431 30.5671 36.0391 30.5157 36.4015C30.4642 36.7639 30.3632 36.9931 30.0412 37.3383C29.7191 37.6836 29.1759 38.1452 28.5354 38.5102C27.8948 38.8754 27.1569 39.1443 26.3918 39.3036C25.6266 39.4628 24.8344 39.5127 24.0296 39.4768C23.2248 39.4409 22.4075 39.3195 21.7768 39.1811C21.146 39.0428 20.702 38.8877 20.2901 38.695C19.8783 38.5025 19.4988 38.2722 19.168 37.9816C18.8371 37.6911 18.5548 37.3401 18.3577 36.9923C18.1605 36.6443 18.0486 36.2995 18.0131 35.9882C17.9773 35.677 18.0181 35.3993 18.0972 35.1309C18.1763 34.8622 18.2939 34.6029 18.43 34.4054C18.5659 34.208 18.7204 34.0725 18.8749 33.937" stroke="white" stroke-width="0.5"/>
<path d="M24.7939 36.6825C25.0472 36.7533 25.3005 36.8241 25.7681 36.7533C26.2355 36.6825 26.9173 36.4698 27.4494 36.2676C27.9816 36.0653 28.3642 35.8732 29.1026 35.5908C29.841 35.3086 30.9352 34.9361 31.4824 34.7498C32.0295 34.5635 32.0295 34.5635 32.0295 34.5635" stroke="white" stroke-width="0.5"/>
<path d="M30.2886 35.161C30.243 35.3469 30.1973 35.5329 30.0443 35.8054C29.8912 36.0779 29.6306 36.437 29.3293 36.7424C29.028 37.0476 28.6859 37.2992 28.207 37.5305C27.7281 37.7617 27.1123 37.9728 26.5008 38.1162C25.8893 38.2594 25.2821 38.3352 24.6999 38.3593C24.1178 38.3836 23.5608 38.3564 22.944 38.2651C22.3271 38.1737 21.6504 38.0185 21.1081 37.8445C20.5659 37.6704 20.1579 37.478 19.7961 37.2426C19.4342 37.0071 19.1183 36.7286 18.8899 36.4475C18.6614 36.1662 18.5201 35.8824 18.4263 35.6291C18.3325 35.3758 18.286 35.1533 18.2718 34.9929C18.2575 34.8324 18.2756 34.7338 18.2936 34.6353" stroke="white" stroke-width="0.5"/>
<path d="M39.7117 26.6475C36.4136 27.7645 33.1154 28.8818 31.2382 29.4827C29.361 30.0836 28.9046 30.1686 28.5467 30.2646C28.1888 30.3606 27.9294 30.4678 27.5485 30.7219C27.1676 30.9759 26.6652 31.377 26.2072 31.8416C25.7492 32.3061 25.3355 32.8342 25.0174 33.2882C24.6993 33.7419 24.4768 34.1217 24.3491 34.4505C24.2213 34.7793 24.1883 35.0571 24.2162 35.3683C24.244 35.6792 24.3328 36.0233 24.4394 36.2479C24.5457 36.4726 24.6699 36.5777 24.794 36.6827" stroke="white" stroke-width="0.5"/>
<path d="M32.0293 34.5632C36.1846 33.196 40.3399 31.8291 43.7916 30.6911M45.5136 24.7319C44.3908 25.1019 43.3734 25.4378 42.5773 25.7007C39.7115 26.647 39.7114 26.647 39.7114 26.647" stroke="white" stroke-width="0.5"/>
<path d="M43.2808 27.103C40.58 28.0409 37.7411 29.0458 35.4131 29.884C31.1746 31.41 28.6294 32.3831 27.138 33.0363C25.6464 33.6896 25.2084 34.023 24.7705 34.3565" stroke="white" stroke-width="0.5"/>
<path d="M19.5133 38.3184C19.5063 40.4325 19.5063 42.3902 19.5446 43.4493C19.5552 43.7426 19.5688 43.9672 19.5876 44.1403M27.9606 44.9563C28.2701 44.7734 28.5405 44.5737 28.7213 44.3891C28.9586 44.1472 29.0423 43.9308 29.0843 43.8227C29.1261 43.7144 29.1261 43.7144 29.1293 42.6289C29.1317 41.7668 29.1362 40.2203 29.1412 38.5327" stroke="white" stroke-width="0.5"/>
<path d="M29.0812 43.8299C29.1056 43.8907 29.118 43.9526 29.1175 44.0155C29.1102 44.8239 26.9603 45.4602 24.3156 45.4363C21.6709 45.4125 19.5328 44.7378 19.5401 43.9293C19.5405 43.8849 19.5474 43.8411 19.5603 43.7979" stroke="white" stroke-width="0.5"/>
<path d="M29.1138 40.0192C28.9689 40.7887 26.8753 41.382 24.3199 41.3589C21.7645 41.336 19.6819 40.7052 19.5508 39.9331" stroke="white" stroke-width="0.5"/>
<path d="M29.0677 38.3638C28.9228 39.1333 26.8292 39.7266 24.2738 39.7036C21.7184 39.6807 19.6358 39.0499 19.5049 38.2778" stroke="white" stroke-width="0.5"/>
<path d="M29.0609 39.0552C28.9161 39.8248 26.8224 40.4179 24.267 40.395C21.7117 40.3719 19.6291 39.7412 19.498 38.9692" stroke="white" stroke-width="0.5"/>
<path d="M29.055 39.7466C28.9102 40.516 26.8165 41.1091 24.2612 41.0862C21.7058 41.0633 19.6232 40.4324 19.4922 39.6606" stroke="white" stroke-width="0.5"/>
<path d="M29.0484 40.4381C28.9035 41.2077 26.8099 41.8009 24.2545 41.7779C21.6991 41.755 19.6165 41.1242 19.4854 40.3521" stroke="white" stroke-width="0.5"/>
<path d="M29.0425 41.1294C28.8976 41.8991 26.804 42.4923 24.2486 42.4694C21.6932 42.4463 19.6105 41.8156 19.4795 41.0435" stroke="white" stroke-width="0.5"/>
<path d="M29.0364 41.8209C28.8915 42.5903 26.7979 43.1836 24.2425 43.1605C21.6871 43.1376 19.6045 42.5067 19.4736 41.7349" stroke="white" stroke-width="0.5"/>
<path d="M29.0297 42.5122C28.8849 43.2816 26.7912 43.8749 24.2358 43.8519C21.6805 43.8289 19.5979 43.1982 19.4668 42.4263" stroke="white" stroke-width="0.5"/>
<path d="M29.0238 43.2032C28.8789 43.9728 26.7852 44.566 24.2299 44.5431C21.6745 44.52 19.5919 43.8893 19.4609 43.1172" stroke="white" stroke-width="0.5"/>
<path d="M24.7201 45.8574C27.5821 45.8574 29.9021 46.8723 29.9021 48.1242C29.9021 49.3758 27.5821 50.3908 24.7201 50.3908C21.8582 50.3908 19.5381 49.3758 19.5381 48.1242C19.5381 46.8723 21.8582 45.8574 24.7201 45.8574Z" stroke="white" stroke-width="0.5"/>
<path d="M24.7193 46.5884C26.6579 46.5884 28.2295 47.276 28.2295 48.1241C28.2295 48.9719 26.6579 49.6593 24.7193 49.6593C22.7806 49.6593 21.209 48.9719 21.209 48.1241C21.209 47.276 22.7806 46.5884 24.7193 46.5884Z" stroke="white" stroke-width="0.5"/>
<path d="M21.6985 48.906C21.3956 48.7442 21.2217 48.5556 21.2217 48.3543C21.2217 47.7526 22.7711 47.2651 24.6825 47.2651C26.5269 47.2651 28.0341 47.7191 28.1379 48.2911" stroke="white" stroke-width="0.5"/>
<path d="M28.9722 49.4198C29.0532 49.5368 29.0961 49.6589 29.0961 49.7846C29.0961 50.6326 27.1416 51.32 24.7307 51.32C22.3196 51.32 20.3652 50.6326 20.3652 49.7846C20.3652 49.6623 20.4058 49.5433 20.4825 49.4294M21.4729 48.7625C21.4855 48.7576 21.4983 48.7525 21.511 48.7476" stroke="white" stroke-width="0.5"/>
<path d="M20.1748 49.2139L20.4305 50.2005" stroke="white" stroke-width="0.5"/>
<path d="M29.2235 49.291L28.9678 50.2775" stroke="white" stroke-width="0.5"/>
<path d="M22.8916 50.2456L23.0167 51.197" stroke="white" stroke-width="0.5"/>
<path d="M26.7852 50.25L26.6602 51.2014" stroke="white" stroke-width="0.5"/>
<defs>
<linearGradient id="paint0_linear_973_2044" x1="102" y1="0.000488281" x2="102" y2="58.0003" gradientUnits="userSpaceOnUse">
<stop stop-color="#101F52"/>
<stop offset="0.9999" stop-color="#101F52" stop-opacity="0.8125"/>
<stop offset="1" stop-color="#101F52" stop-opacity="0"/>
</linearGradient>
</defs>
</svg>
