<svg width="839" height="65" viewBox="0 0 839 65" fill="none" xmlns="http://www.w3.org/2000/svg">
<rect width="838" height="64.9999" rx="5" fill="url(#paint0_linear_334_71)" fill-opacity="0.8"/>
<path d="M126.505 3.50115C128.466 1.93944 129.442 1.06621 129.902 0.582396C130.311 0.152682 129.763 0.0259649 129.17 0.0259649H5.06676C2.30534 0.0259649 0.0667569 2.26454 0.0667569 5.02597L0.0667569 45.592C0.0667569 46.0939 -0.0647128 46.7871 0.43515 46.8322C1.295 46.9098 3.758 46.4126 10.5265 43.7326C22.5537 38.9705 20.9512 39.3861 28.1147 36.7108C35.8569 33.8193 39.7352 32.9168 47.7037 30.5323C65.398 25.2374 79.361 32.222 96.4461 27.0081C109.973 22.8801 121.444 7.53202 126.505 3.50115Z" fill="#0D2862" fill-opacity="0.3"/>
<path d="M711.769 61.3384C709.808 62.9002 708.832 63.7734 708.372 64.2572C707.964 64.6869 708.511 64.8136 709.104 64.8136H833.208C835.969 64.8136 838.208 62.5751 838.208 59.8136V19.2476C838.208 18.7457 838.339 18.0525 837.839 18.0074C836.979 17.9298 834.516 18.427 827.748 21.107C815.721 25.8691 817.323 25.4535 810.16 28.1288C802.417 31.0203 798.539 31.9228 790.571 34.3073C772.876 39.6022 758.913 32.6176 741.828 37.8315C728.301 41.9595 716.831 57.3076 711.769 61.3384Z" fill="#0D2862" fill-opacity="0.3"/>
<path d="M139.842 4.48485C142.054 2.44333 143.133 1.32027 143.628 0.70852C144.055 0.181336 143.429 0.0332494 142.751 0.0332494H5.08285C2.32142 0.0332494 0.0828533 2.27183 0.0828533 5.03325L0.0828533 58.4019C0.0828533 59.0483 -0.0887318 59.955 0.556379 59.996C1.56439 60.0601 4.32995 59.3765 11.6446 56.0201C24.939 49.9199 23.1676 50.4523 31.0858 47.0253C39.6438 43.3214 43.9307 42.1653 52.7387 39.1108C72.2972 32.3283 87.7313 41.2753 106.616 34.5965C121.569 29.3086 134.248 9.64827 139.842 4.48485Z" fill="#0D2862" fill-opacity="0.3"/>
<path d="M698.166 60.5151C695.954 62.5567 694.876 63.6797 694.381 64.2915C693.954 64.8187 694.579 64.9668 695.258 64.9668H832.926C835.687 64.9668 837.926 62.7282 837.926 59.9667V6.59807C837.926 5.95166 838.098 5.04497 837.452 5.00397C836.444 4.93991 833.679 5.62353 826.364 8.97991C813.07 15.0801 814.841 14.5477 806.923 17.9747C798.365 21.6786 794.078 22.8347 785.27 25.8892C765.712 32.6717 750.278 23.7247 731.392 30.4034C716.44 35.6914 703.761 55.3517 698.166 60.5151Z" fill="#0D2862" fill-opacity="0.3"/>
<defs>
<linearGradient id="paint0_linear_334_71" x1="419" y1="0" x2="419" y2="64.9999" gradientUnits="userSpaceOnUse">
<stop stop-color="#101F52"/>
<stop offset="0.9999" stop-color="#101F52" stop-opacity="0.8125"/>
<stop offset="1" stop-color="#101F52" stop-opacity="0"/>
</linearGradient>
</defs>
</svg>
