<svg width="55" height="50" viewBox="0 0 55 50" fill="none" xmlns="http://www.w3.org/2000/svg">
<path d="M19.064 16.2644C19.2152 16.2766 19.511 16.3563 19.8299 16.4206C20.1486 16.4849 20.4905 16.5339 20.8193 16.5615C21.1479 16.589 21.4634 16.5951 21.7658 16.589C22.0681 16.5829 22.3575 16.5645 22.6435 16.5308C22.9293 16.4971 23.2119 16.4481 23.4124 16.4053C23.613 16.3624 23.7313 16.3257 23.7871 16.3686C23.843 16.4114 23.8365 16.5339 23.8234 16.6594C23.8102 16.7849 23.7905 16.9135 23.7511 17.0849C23.7115 17.2564 23.6524 17.4707 23.6097 17.6238C23.5669 17.7768 23.5408 17.8686 23.3764 17.9789C23.2119 18.0891 22.9097 18.2177 22.558 18.2912C22.2062 18.3647 21.8052 18.383 21.3681 18.3524C20.9309 18.3218 20.4576 18.2422 20.1026 18.1595C19.7476 18.0769 19.511 17.9911 19.3665 17.9085C19.2218 17.8258 19.1692 17.7462 19.1167 17.6177C19.064 17.4891 19.0115 17.3115 18.9785 17.1216C18.9458 16.9318 18.9326 16.7298 18.9227 16.6012C18.9129 16.4726 18.9062 16.4175 18.9062 16.3625C18.9062 16.3073 18.9129 16.2522 19.064 16.2644Z" stroke="white" stroke-width="0.3501"/>
<path d="M19.8291 16.4209C19.9397 16.6525 20.0503 16.8842 20.1025 17.1072C20.1545 17.3301 20.1478 17.5444 20.1063 17.7105C20.0647 17.8765 19.9881 17.9945 19.95 18.0534C19.9116 18.1123 19.9116 18.1123 19.9116 18.1123" stroke="white" stroke-width="0.3501"/>
<path d="M20.8185 16.562C20.7112 16.7222 20.6037 16.8824 20.5434 17.0453C20.4832 17.208 20.47 17.3733 20.4832 17.5478C20.4963 17.7223 20.5359 17.906 20.5815 18.0296C20.627 18.1532 20.6787 18.2167 20.7305 18.2802" stroke="white" stroke-width="0.3501"/>
<path d="M22.2046 16.5708C22.2925 16.7463 22.3803 16.9219 22.421 17.1137C22.4618 17.3056 22.4551 17.5138 22.4223 17.6883C22.3895 17.8629 22.3303 18.0036 22.2852 18.1079C22.2403 18.2122 22.2095 18.28 22.1787 18.3478" stroke="white" stroke-width="0.3501"/>
<path d="M22.7429 16.5186C22.7238 16.6747 22.7044 16.831 22.6949 16.9948C22.6853 17.1586 22.6853 17.33 22.7214 17.4862C22.7576 17.6424 22.8299 17.7831 22.8794 17.8945C22.9288 18.0059 22.9553 18.0879 22.9818 18.1698" stroke="white" stroke-width="0.3501"/>
<path d="M19.7246 18.0576C19.7255 18.2336 19.7263 18.4095 19.727 18.4975C19.7274 18.5855 19.7274 18.5855 19.7274 18.5855" stroke="white" stroke-width="0.3501"/>
<path d="M19.7255 18.3218C19.6669 18.3455 19.6081 18.3691 19.5806 18.4009C19.5528 18.4326 19.5561 18.4724 19.5857 18.5045C19.6153 18.5367 19.6712 18.5612 19.7746 18.6026C19.8782 18.6439 20.0295 18.7021 20.2432 18.7433C20.4567 18.7847 20.7328 18.8092 20.9679 18.8214C21.2029 18.8337 21.3967 18.8337 21.6022 18.8245C21.8076 18.8153 22.0244 18.7969 22.2037 18.7771C22.3828 18.7572 22.5241 18.7358 22.6507 18.6975C22.7772 18.6592 22.889 18.6041 22.9579 18.5597C23.0269 18.5153 23.0534 18.4817 23.0652 18.4127C23.0771 18.3437 23.0745 18.2394 23.0719 18.1353" stroke="white" stroke-width="0.3501"/>
<path d="M22.3211 22.6264C22.2717 22.5712 22.2225 22.5161 22.1304 22.4059C22.0383 22.2958 21.9035 22.1304 21.7951 21.9421C21.6866 21.7539 21.6045 21.5425 21.5767 21.3543C21.5486 21.166 21.5749 21.0006 21.6358 20.8569C21.6965 20.7129 21.7918 20.5905 21.9381 20.4374C22.0844 20.2843 22.2816 20.1006 22.4706 19.946C22.6595 19.7914 22.8404 19.6659 23.0161 19.5541C23.1919 19.4424 23.363 19.3444 23.4484 19.2954C23.5339 19.2464 23.5339 19.2464 23.5339 19.1684C23.5339 19.0904 23.5339 18.9342 23.5175 18.8409C23.501 18.7474 23.4682 18.7168 23.3901 18.6558C23.3122 18.5949 23.189 18.5035 23.0659 18.4121" stroke="white" stroke-width="0.3501"/>
<path d="M27.2295 19.7473C27.3036 19.8529 27.3758 19.8713 27.4529 19.9157C27.5303 19.96 27.6125 20.0305 27.6816 20.1254C27.7504 20.2202 27.8063 20.3396 27.8425 20.4882C27.8788 20.6367 27.8951 20.8143 27.9034 20.9887C27.9115 21.1632 27.9115 21.3347 27.8886 21.5199C27.8655 21.7052 27.8195 21.9041 27.7555 22.1123C27.6913 22.3205 27.6092 22.5379 27.5138 22.7262C27.4186 22.9144 27.3101 23.0736 27.2115 23.1716C27.1128 23.2696 27.0241 23.3063 26.4341 23.2374C25.8442 23.1686 24.753 22.994 24.1597 22.8746C23.5664 22.7553 23.4711 22.6908 23.402 22.6098C23.3331 22.5287 23.2904 22.4307 23.2475 22.2807C23.2049 22.1307 23.162 21.9286 23.1489 21.7052C23.1358 21.4816 23.1522 21.2367 23.1983 20.9734C23.2443 20.7101 23.3199 20.4285 23.3889 20.2524C23.4579 20.0764 23.5203 20.006 23.5926 19.9187C23.6649 19.8315 23.7472 19.7274 23.8097 19.6294C23.872 19.5314 23.9148 19.4396 23.9839 19.3018C24.0528 19.1641 24.1482 18.9804 24.2155 18.8748C24.283 18.7691 24.3223 18.7416 24.3617 18.7233C24.4013 18.7048 24.4407 18.6957 24.8449 18.74C25.2492 18.7844 26.0184 18.8824 26.416 18.939C26.8138 18.9957 26.8401 19.011 26.8761 19.0569C26.9124 19.1029 26.9584 19.1794 27.0192 19.3141C27.08 19.4487 27.1555 19.6417 27.2295 19.7473Z" stroke="white" stroke-width="0.3501"/>
<path d="M24.2783 18.7891C25.0592 18.9017 25.8398 19.0145 26.2401 19.074C26.6403 19.1333 26.6601 19.1395 26.6896 19.1854C26.7192 19.2313 26.7586 19.3171 26.8063 19.4441C26.854 19.5712 26.9098 19.7396 26.9361 19.8406C26.9624 19.9416 26.9592 19.9753 26.9394 20.0227C26.9197 20.0702 26.8835 20.1314 26.8245 20.2325C26.7653 20.3334 26.6831 20.4742 26.6058 20.635C26.5286 20.7957 26.4563 20.9764 26.4054 21.18C26.3544 21.3836 26.3248 21.6101 26.3117 21.8291C26.2985 22.0479 26.3018 22.2592 26.3265 22.4398C26.3512 22.6204 26.3971 22.7705 26.4529 22.8929C26.5088 23.0154 26.5746 23.1103 26.6204 23.1677C26.666 23.2251 26.6917 23.2452 26.7172 23.2652" stroke="white" stroke-width="0.3501"/>
<path d="M27.3638 20.8678C27.3194 20.8388 27.2801 20.8326 27.229 20.8433C27.1782 20.854 27.1156 20.8816 27.0615 20.9428C27.0072 21.004 26.9612 21.099 26.9169 21.2474C26.8725 21.3959 26.8297 21.5979 26.8232 21.7632C26.8166 21.9286 26.8461 22.0571 26.8874 22.1583C26.9283 22.2593 26.9809 22.3328 27.045 22.371C27.1091 22.4092 27.1847 22.4124 27.2488 22.3832C27.3129 22.3542 27.3655 22.2929 27.4182 22.1811C27.4706 22.0694 27.5233 21.9072 27.5513 21.7464C27.5791 21.5857 27.5825 21.4265 27.5709 21.3025C27.5593 21.1786 27.5331 21.0897 27.4953 21.0193C27.4576 20.9489 27.4082 20.8969 27.3638 20.8678Z" stroke="white" stroke-width="0.3501"/>
<path d="M26.9394 20.0228C25.9125 19.8648 24.8854 19.7068 23.8584 19.5488" stroke="white" stroke-width="0.3501"/>
<path d="M26.7101 20.4316C25.7335 20.2938 24.7569 20.1559 23.7803 20.0181" stroke="white" stroke-width="0.3501"/>
<path d="M23.8888 19.3662C23.8165 19.3601 23.7443 19.354 23.6828 19.3343C23.6212 19.3146 23.5704 19.2814 23.5195 19.248" stroke="white" stroke-width="0.3501"/>
<path d="M23.9002 19.4672C23.7778 19.5375 23.6552 19.6078 23.5496 19.7117C23.444 19.8157 23.3552 19.9535 23.2699 20.1204C23.1843 20.2872 23.1021 20.4831 23.0446 20.7143C22.9871 20.9454 22.9542 21.2118 22.9427 21.4522C22.9313 21.6925 22.941 21.9067 22.9888 22.0935C23.0365 22.2802 23.1219 22.4395 23.2008 22.5374C23.2796 22.6354 23.3519 22.6721 23.3865 22.6905C23.421 22.7088 23.4177 22.7088 23.3832 22.7364C23.3487 22.764 23.283 22.819 23.1976 22.8772C23.1121 22.9354 23.0068 22.9966 22.8622 23.0487C22.7176 23.1007 22.5336 23.1436 22.3446 23.1712C22.1556 23.1987 21.9616 23.211 21.7119 23.208C21.4621 23.2048 21.1564 23.1865 20.859 23.1666C20.5615 23.1467 20.2723 23.1252 20.0472 23.0916C19.8219 23.0578 19.6609 23.012 19.5228 22.9339C19.3848 22.8558 19.2697 22.7457 19.1958 22.6675C19.1218 22.5894 19.089 22.5436 19.0743 21.945C19.0595 21.3465 19.0627 20.1953 19.0677 19.6136C19.0726 19.0319 19.0791 19.0197 19.1252 18.9555C19.1711 18.8911 19.2566 18.7749 19.3359 18.6824C19.415 18.59 19.4882 18.5213 19.5248 18.4871C19.5613 18.4528 19.5613 18.4528 19.5653 18.4612C19.5692 18.4698 19.5773 18.4868 19.5853 18.5038" stroke="white" stroke-width="0.3501"/>
<path d="M19.2646 19.1182C19.3796 19.1794 19.4946 19.2406 19.6525 19.2881C19.8103 19.3356 20.0107 19.3693 20.2441 19.3921C20.4775 19.4151 20.7438 19.4274 20.9573 19.429C21.171 19.4304 21.332 19.4212 21.5522 19.386C21.7725 19.3508 22.0519 19.2896 22.2425 19.2498C22.4332 19.21 22.535 19.1916 22.6369 19.1733" stroke="white" stroke-width="0.3501"/>
<path d="M20.7725 23.0675C20.7725 22.1337 20.7725 21.1999 20.7725 20.2661" stroke="white" stroke-width="0.3501"/>
<path d="M19.0612 18.9859C19.0831 18.9758 19.105 18.9657 19.0337 18.9983C18.9625 19.0311 18.7981 19.1065 18.6239 19.3065C18.4497 19.5065 18.2657 19.8311 18.1688 20.024C18.0717 20.2169 18.0618 20.2781 18.057 20.3485C18.0521 20.4189 18.0521 20.4985 18.0882 20.6072C18.1244 20.7158 18.1967 20.8536 18.2952 21.0281C18.3939 21.2026 18.5187 21.4138 18.6108 21.5241C18.7029 21.6343 18.762 21.6434 18.8331 21.648C18.9042 21.6526 18.9874 21.6525 19.0705 21.6525" stroke="white" stroke-width="0.3501"/>
<path d="M19.0731 19.2808C18.9724 19.3827 18.8717 19.4845 18.7885 19.609C18.7054 19.7335 18.6396 19.8804 18.5986 20.0366C18.5575 20.1927 18.541 20.358 18.5444 20.5188C18.5476 20.6794 18.5706 20.8356 18.6232 20.9795C18.6758 21.1233 18.7579 21.255 18.8371 21.3468C18.9163 21.4386 18.9924 21.4905 19.0685 21.5424" stroke="white" stroke-width="0.3501"/>
<path d="M19.0677 18.9824C18.7879 18.9479 18.5082 18.9135 18.3633 18.8992C18.2186 18.8851 18.2087 18.8912 18.051 19.0306C17.8933 19.1698 17.5875 19.4423 17.415 19.6444C17.2424 19.8464 17.2028 19.9781 17.18 20.1006C17.1569 20.223 17.1504 20.3363 17.1471 20.451C17.1437 20.5658 17.1437 20.6822 17.1685 20.7939C17.1931 20.9057 17.2424 21.0129 17.3804 21.1567C17.5185 21.3007 17.7452 21.4813 17.8768 21.5747C18.0083 21.668 18.0443 21.6741 18.2074 21.6725C18.3706 21.6708 18.6606 21.6614 18.9507 21.652" stroke="white" stroke-width="0.3501"/>
<path d="M17.1572 20.2754C17.4596 20.2791 17.7619 20.2828 18.0642 20.2864" stroke="white" stroke-width="0.3501"/>
<path d="M18.0508 19.0308C18.3035 19.0642 18.5562 19.0975 18.8089 19.1309" stroke="white" stroke-width="0.3501"/>
<path d="M17.8239 19.1548C17.5117 19.1548 17.1994 19.1548 17.0384 19.164C16.8774 19.1731 16.8676 19.1915 16.828 19.2665C16.7886 19.3415 16.7196 19.4732 16.6555 19.6124C16.5914 19.7518 16.5323 19.8987 16.4978 20.0227C16.4632 20.1467 16.4534 20.2477 16.4665 20.3686C16.4797 20.4896 16.5159 20.6304 16.5603 20.785C16.6047 20.9396 16.6572 21.108 16.713 21.206C16.7689 21.304 16.828 21.3315 16.9169 21.3575C17.0055 21.3835 17.1238 21.408 17.2459 21.4107C17.3679 21.4135 17.4935 21.3944 17.6193 21.3753" stroke="white" stroke-width="0.3501"/>
<path d="M16.2394 19.1978C16.2097 19.2376 16.1145 19.3112 16.0289 19.4259C15.9435 19.5407 15.8679 19.6969 15.8154 19.8652C15.7627 20.0336 15.7333 20.2143 15.725 20.3827C15.7167 20.551 15.73 20.7072 15.7627 20.8358C15.7956 20.9643 15.8482 21.0654 15.8811 21.1174C15.914 21.1694 15.9271 21.1726 15.8976 21.1741C15.8679 21.1755 15.7956 21.1755 15.7183 21.1726C15.6412 21.1694 15.5589 21.1633 15.5146 21.1619C15.4702 21.1602 15.4638 21.1633 15.4407 21.1312C15.4176 21.0991 15.3783 21.0318 15.3471 20.8955C15.3158 20.7592 15.2927 20.554 15.2911 20.378C15.2895 20.202 15.3092 20.0551 15.3438 19.9173C15.3783 19.7795 15.4275 19.651 15.4981 19.5439C15.5689 19.4366 15.6609 19.3509 15.7348 19.2882C15.8087 19.2253 15.8647 19.1856 15.9025 19.1642C15.9402 19.1428 15.9599 19.1396 16.006 19.1396C16.052 19.1396 16.1244 19.1428 16.1785 19.1473C16.2328 19.1519 16.2689 19.1581 16.2394 19.1978Z" stroke="white" stroke-width="0.3501"/>
<path d="M16.7921 19.2164C16.7625 19.2561 16.6672 19.3297 16.5818 19.4445C16.4963 19.5592 16.4207 19.7154 16.3682 19.8838C16.3155 20.0522 16.2859 20.2328 16.2778 20.4012C16.2694 20.5695 16.2826 20.7257 16.3155 20.8543C16.3484 20.9828 16.401 21.0839 16.4338 21.1359C16.4667 21.1879 16.4798 21.191 16.4503 21.1926C16.4207 21.1941 16.3484 21.1941 16.2712 21.191C16.1939 21.1879 16.1117 21.1818 16.0674 21.1803C16.023 21.1788 16.0163 21.1818 15.9934 21.1498C15.9705 21.1176 15.9309 21.0502 15.8997 20.914C15.8685 20.7777 15.8455 20.5726 15.8438 20.3965C15.8422 20.2205 15.862 20.0736 15.8965 19.9358C15.9309 19.7981 15.9803 19.6694 16.0509 19.5623C16.1216 19.4551 16.2136 19.3695 16.2876 19.3066C16.3615 19.2439 16.4174 19.2041 16.4552 19.1827C16.493 19.1613 16.5128 19.1582 16.5588 19.1582C16.6048 19.1582 16.6771 19.1613 16.7313 19.1658C16.7855 19.1704 16.8217 19.1765 16.7921 19.2164Z" stroke="white" stroke-width="0.3501"/>
<path d="M15.6876 19.1885C15.658 19.2283 15.5626 19.3017 15.4773 19.4166C15.3918 19.5314 15.3162 19.6875 15.2635 19.8559C15.211 20.0243 15.1814 20.205 15.1732 20.3733C15.1649 20.5417 15.178 20.6978 15.211 20.8265C15.2439 20.955 15.2964 21.0561 15.3293 21.1081C15.3622 21.1601 15.3753 21.1632 15.3457 21.1647C15.3162 21.1662 15.2439 21.1662 15.1667 21.1632C15.0893 21.1601 15.0072 21.1539 14.9628 21.1525C14.9184 21.151 14.9118 21.1539 14.8889 21.1218C14.8658 21.0897 14.8264 21.0223 14.7952 20.8861C14.764 20.7499 14.7409 20.5447 14.7394 20.3687C14.7376 20.1926 14.7574 20.0457 14.7919 19.908C14.8264 19.7702 14.8758 19.6416 14.9464 19.5345C15.0171 19.4273 15.1091 19.3416 15.1831 19.2788C15.257 19.2161 15.3128 19.1762 15.3507 19.1548C15.3885 19.1334 15.4082 19.1304 15.4541 19.1304C15.5002 19.1304 15.5726 19.1334 15.6268 19.1379C15.681 19.1426 15.7172 19.1487 15.6876 19.1885Z" stroke="white" stroke-width="0.3501"/>
<path d="M15.1211 19.1613C15.0916 19.201 14.9963 19.2745 14.9109 19.3893C14.8254 19.504 14.7498 19.6603 14.6972 19.8287C14.6445 19.997 14.615 20.1777 14.6067 20.346C14.5986 20.5144 14.6117 20.6706 14.6445 20.7991C14.6774 20.9277 14.73 21.0288 14.7629 21.0808C14.7957 21.1328 14.8089 21.1359 14.7793 21.1375C14.7498 21.1389 14.6774 21.1389 14.6002 21.1359C14.523 21.1328 14.4407 21.1267 14.3964 21.1252C14.352 21.1237 14.3455 21.1267 14.3225 21.0946C14.2995 21.0625 14.26 20.9951 14.2288 20.8588C14.1976 20.7226 14.1745 20.5175 14.1729 20.3414C14.1713 20.1654 14.1909 20.0185 14.2255 19.8807C14.26 19.7429 14.3093 19.6143 14.3799 19.5072C14.4507 19.4 14.5426 19.3143 14.6167 19.2516C14.6905 19.1888 14.7465 19.149 14.7842 19.1276C14.822 19.1061 14.8418 19.103 14.8877 19.103C14.9338 19.103 15.0061 19.1061 15.0604 19.1107C15.1146 19.1153 15.1507 19.1215 15.1211 19.1613Z" stroke="white" stroke-width="0.3501"/>
<path d="M14.5519 19.1335C14.5223 19.1733 14.4269 19.2467 14.3415 19.3615C14.256 19.4763 14.1804 19.6325 14.1279 19.8009C14.0752 19.9692 14.0457 20.1499 14.0375 20.3182C14.0292 20.4866 14.0424 20.6428 14.0752 20.7714C14.1081 20.9 14.1607 21.001 14.1936 21.0531C14.2265 21.105 14.2395 21.1082 14.21 21.1096C14.1804 21.1112 14.1081 21.1112 14.0308 21.1082C13.9536 21.105 13.8716 21.0989 13.8272 21.0974C13.7828 21.0959 13.7761 21.0989 13.7531 21.0668C13.7301 21.0346 13.6907 20.9673 13.6594 20.8311C13.6282 20.6949 13.6053 20.4897 13.6036 20.3137C13.602 20.1375 13.6217 19.9907 13.6562 19.853C13.6907 19.7151 13.7401 19.5866 13.8107 19.4794C13.8813 19.3722 13.9733 19.2866 14.0473 19.2238C14.1213 19.161 14.1772 19.1212 14.2151 19.0997C14.2527 19.0783 14.2725 19.0752 14.3186 19.0752C14.3646 19.0752 14.4369 19.0783 14.4911 19.0829C14.5453 19.0875 14.5815 19.0936 14.5519 19.1335Z" stroke="white" stroke-width="0.3501"/>
<path d="M13.8851 19.1273C13.8578 19.1685 13.7667 19.2466 13.6878 19.3654C13.6091 19.4842 13.5422 19.6438 13.4992 19.8145C13.4562 19.9852 13.4368 20.1671 13.438 20.3356C13.4393 20.5042 13.4612 20.6595 13.5011 20.7863C13.5412 20.913 13.5995 21.0114 13.6351 21.0618C13.6709 21.1122 13.6841 21.1145 13.6548 21.1175C13.6252 21.1205 13.5531 21.124 13.4758 21.1248C13.3984 21.1254 13.316 21.1233 13.2717 21.124C13.2272 21.1246 13.2209 21.128 13.1962 21.097C13.1713 21.0661 13.1282 21.0007 13.0893 20.8662C13.0505 20.7316 13.0159 20.5279 13.0045 20.3522C12.9929 20.1765 13.0044 20.0288 13.0311 19.8895C13.0577 19.7502 13.0998 19.6195 13.1643 19.509C13.2289 19.3985 13.316 19.3084 13.3864 19.2421C13.4567 19.1759 13.5103 19.1335 13.5467 19.1102C13.5833 19.0869 13.6028 19.0828 13.6488 19.0806C13.6947 19.0783 13.7672 19.0779 13.8216 19.0799C13.8758 19.0818 13.9124 19.0861 13.8851 19.1273Z" stroke="white" stroke-width="0.3501"/>
<path d="M13.2162 19.1255C13.1912 19.1679 13.1045 19.2503 13.0324 19.3728C12.9604 19.4953 12.9027 19.658 12.8693 19.8305C12.8359 20.0032 12.8268 20.1856 12.8374 20.3539C12.8482 20.5221 12.8788 20.6762 12.9259 20.8009C12.973 20.9255 13.0366 21.0209 13.0751 21.0695C13.1137 21.118 13.1271 21.1198 13.0978 21.1242C13.0686 21.1286 12.9967 21.1356 12.9195 21.14C12.8424 21.1445 12.76 21.1465 12.7156 21.1493C12.6713 21.1521 12.6652 21.1558 12.6387 21.126C12.6122 21.0963 12.5654 21.0331 12.5191 20.9007C12.4727 20.7682 12.4268 20.5664 12.4055 20.3915C12.384 20.2166 12.3872 20.0686 12.406 19.9282C12.4249 19.7878 12.4596 19.6552 12.5177 19.5417C12.576 19.4283 12.6579 19.3341 12.7245 19.2644C12.7909 19.1948 12.8421 19.1499 12.8772 19.1249C12.9124 19.0999 12.9317 19.0948 12.9774 19.0903C13.0233 19.0859 13.0955 19.0819 13.1498 19.0811C13.2043 19.0805 13.2411 19.083 13.2162 19.1255Z" stroke="white" stroke-width="0.3501"/>
<path d="M12.5455 19.1219C12.5228 19.1654 12.4411 19.252 12.3759 19.3778C12.3109 19.5036 12.2624 19.6689 12.2387 19.8428C12.215 20.0167 12.2162 20.1995 12.2363 20.367C12.2564 20.5345 12.2958 20.6868 12.3498 20.8091C12.4038 20.9312 12.4728 21.0234 12.5139 21.07C12.5552 21.1166 12.5687 21.1177 12.5397 21.1236C12.5108 21.1294 12.4394 21.1399 12.3626 21.1482C12.2857 21.1564 12.2035 21.1623 12.1594 21.1672C12.1153 21.1722 12.1094 21.1762 12.0812 21.1478C12.0532 21.1194 12.0029 21.0586 11.9492 20.9286C11.8954 20.7985 11.8382 20.5993 11.8071 20.4257C11.7759 20.2521 11.7706 20.104 11.7816 19.963C11.7925 19.8218 11.8196 19.6877 11.8715 19.5715C11.9233 19.4554 11.9998 19.3574 12.0622 19.2845C12.1247 19.2117 12.1732 19.1644 12.207 19.1377C12.2408 19.111 12.2597 19.1051 12.3051 19.0984C12.3506 19.0917 12.4225 19.0842 12.477 19.0808C12.5312 19.0774 12.5679 19.0782 12.5455 19.1219Z" stroke="white" stroke-width="0.3501"/>
<path d="M11.875 19.2027C11.855 19.2474 11.7781 19.3377 11.7202 19.4666C11.6622 19.5954 11.6232 19.7628 11.6092 19.9377C11.5954 20.1126 11.6068 20.295 11.6363 20.4613C11.6658 20.6275 11.7135 20.7777 11.7744 20.8972C11.8353 21.0165 11.9092 21.1052 11.9531 21.1498C11.9968 21.1943 12.0104 21.1948 11.9818 21.202C11.9532 21.2092 11.8824 21.2232 11.8062 21.2352C11.73 21.2471 11.6481 21.2571 11.6045 21.2641C11.5607 21.2712 11.555 21.2755 11.5254 21.2485C11.4956 21.2216 11.442 21.1633 11.381 21.0361C11.3202 20.9088 11.2517 20.7127 11.211 20.5408C11.1701 20.3689 11.1566 20.2214 11.1596 20.08C11.1625 19.9384 11.182 19.8031 11.2272 19.6847C11.2724 19.5662 11.3434 19.4645 11.4017 19.3888C11.46 19.313 11.5057 19.2633 11.538 19.235C11.5702 19.2068 11.5888 19.2 11.6338 19.191C11.6788 19.1821 11.7502 19.1711 11.8044 19.1651C11.8583 19.1591 11.8951 19.1581 11.875 19.2027Z" stroke="white" stroke-width="0.3501"/>
<path d="M11.2015 19.2848C11.184 19.3305 11.1122 19.4244 11.0616 19.5559C11.0111 19.6874 10.9814 19.8564 10.9773 20.0318C10.9733 20.2071 10.9951 20.3888 11.0338 20.5533C11.0726 20.7179 11.1287 20.8657 11.1963 20.9819C11.2637 21.0982 11.3425 21.1831 11.3887 21.2255C11.4351 21.2677 11.4486 21.2676 11.4204 21.2762C11.3923 21.2848 11.3223 21.3022 11.2469 21.3179C11.1715 21.3335 11.0903 21.3474 11.0471 21.3567C11.0038 21.3659 10.9984 21.3704 10.9672 21.3449C10.936 21.3194 10.8793 21.2639 10.8112 21.1399C10.7432 21.0157 10.6639 20.8231 10.6135 20.6535C10.5629 20.4838 10.5412 20.3372 10.5362 20.1957C10.5312 20.0544 10.5431 19.9183 10.5817 19.7977C10.6202 19.6772 10.6853 19.5722 10.7393 19.4937C10.7932 19.4153 10.8362 19.3634 10.8667 19.3336C10.8972 19.3038 10.9154 19.2961 10.9599 19.2849C11.0043 19.2739 11.0751 19.2594 11.1287 19.2507C11.1824 19.2421 11.219 19.2393 11.2015 19.2848Z" stroke="white" stroke-width="0.3501"/>
<path d="M10.5291 19.411C10.5142 19.4574 10.4479 19.5548 10.4047 19.6885C10.3615 19.8223 10.3415 19.9926 10.3473 20.1679C10.353 20.3432 10.385 20.5235 10.433 20.686C10.481 20.8484 10.5453 20.9932 10.6192 21.1061C10.6931 21.2188 10.7767 21.2999 10.8252 21.3398C10.8737 21.3799 10.8872 21.379 10.8596 21.389C10.832 21.3989 10.7633 21.4197 10.6888 21.4391C10.6142 21.4584 10.5341 21.4762 10.4914 21.4875C10.4487 21.4988 10.4434 21.5037 10.4109 21.4797C10.3783 21.4558 10.3186 21.4031 10.2436 21.2825C10.1686 21.1619 10.0787 20.9734 10.0188 20.8064C9.95879 20.6395 9.92892 20.4941 9.91596 20.3532C9.90315 20.2121 9.90726 20.0757 9.93893 19.9535C9.97053 19.8312 10.0297 19.7231 10.0792 19.6422C10.1287 19.5613 10.1686 19.5073 10.1975 19.476C10.2263 19.4448 10.244 19.4362 10.2879 19.4229C10.3317 19.4097 10.4015 19.3918 10.4545 19.3805C10.5076 19.3693 10.544 19.3647 10.5291 19.411Z" stroke="white" stroke-width="0.3501"/>
<path d="M9.85649 19.5389C9.8441 19.5859 9.78345 19.6863 9.74775 19.822C9.71222 19.9577 9.70163 20.1288 9.71747 20.3034C9.73306 20.4782 9.775 20.6567 9.83211 20.8167C9.88923 20.9766 9.96145 21.1181 10.0417 21.2271C10.1219 21.3361 10.2099 21.413 10.2605 21.4506C10.3113 21.4882 10.3247 21.4867 10.2977 21.498C10.2707 21.5092 10.2031 21.5334 10.1298 21.5563C10.0566 21.5792 9.97745 21.6009 9.93543 21.6143C9.89342 21.6278 9.88841 21.6327 9.8546 21.6104C9.82071 21.5881 9.75801 21.5383 9.67652 21.4217C9.59495 21.3048 9.4945 21.121 9.42524 20.9572C9.35597 20.7934 9.31782 20.6496 9.29714 20.5095C9.27629 20.3694 9.27293 20.2328 9.29755 20.1092C9.32233 19.9856 9.37534 19.8749 9.42023 19.7916C9.46504 19.7083 9.50197 19.6526 9.52897 19.6199C9.55605 19.5872 9.5732 19.5778 9.6162 19.5624C9.6592 19.5471 9.72781 19.5258 9.78017 19.512C9.83261 19.4982 9.8688 19.4918 9.85649 19.5389Z" stroke="white" stroke-width="0.3501"/>
<path d="M9.18311 19.7537C9.17335 19.8012 9.11837 19.9045 9.09055 20.0417C9.06248 20.179 9.06158 20.3503 9.0871 20.5239C9.11262 20.6978 9.16449 20.874 9.23047 21.031C9.29645 21.1879 9.3767 21.3255 9.46287 21.4306C9.54904 21.5355 9.6412 21.6079 9.69397 21.643C9.74665 21.6781 9.76003 21.6759 9.73368 21.6885C9.70726 21.7011 9.64128 21.7285 9.56939 21.755C9.4975 21.7814 9.41971 21.807 9.37843 21.8224C9.33731 21.8378 9.33264 21.8431 9.29759 21.8225C9.26255 21.8019 9.19715 21.7552 9.10909 21.6426C9.02104 21.53 8.9105 21.3512 8.83204 21.191C8.75375 21.0309 8.70755 20.8892 8.67899 20.7502C8.65027 20.6113 8.63927 20.4752 8.657 20.3505C8.67472 20.2258 8.72134 20.1127 8.76155 20.0273C8.8016 19.9419 8.83541 19.8845 8.86044 19.8505C8.88571 19.8166 8.90229 19.8063 8.94439 19.7889C8.98641 19.7715 9.05386 19.7469 9.1054 19.7305C9.15694 19.7141 9.19263 19.7061 9.18311 19.7537Z" stroke="white" stroke-width="0.3501"/>
<path d="M19.6433 23.1301C19.6483 23.0367 19.6581 23.0474 19.8027 23.1064C19.9473 23.1654 20.2268 23.2726 20.4831 23.3353C20.7395 23.3981 20.9728 23.4164 21.1963 23.4257C21.4198 23.4348 21.6335 23.4348 21.811 23.4149C21.9884 23.395 22.1298 23.3551 22.2464 23.3231C22.3631 23.2909 22.4551 23.2664 22.5538 23.2219C22.6525 23.1776 22.7575 23.1133 22.8102 23.0812C22.8627 23.049 22.8627 23.049 22.871 23.1378C22.8792 23.2266 22.8956 23.4042 22.894 23.5052C22.8924 23.6062 22.8727 23.6307 22.8152 23.6767C22.7576 23.7226 22.6622 23.7899 22.5143 23.8588C22.3664 23.9277 22.166 23.9981 21.9261 24.0334C21.686 24.0685 21.4068 24.0685 21.1585 24.0502C20.9104 24.0317 20.6935 23.995 20.5109 23.9583C20.3287 23.9216 20.1807 23.8848 20.046 23.8358C19.9111 23.7868 19.7895 23.7256 19.7239 23.6873C19.6581 23.6491 19.6483 23.6338 19.6433 23.5273C19.6384 23.421 19.6384 23.2236 19.6433 23.1301Z" stroke="white" stroke-width="0.3501"/>
<path d="M19.5654 23.4302C19.5325 23.5067 19.4996 23.5833 19.4766 23.643C19.4535 23.7027 19.4403 23.7456 19.4454 23.7746C19.4503 23.8037 19.4733 23.8189 19.7116 23.9062C19.95 23.9935 20.4035 24.1527 20.6368 24.2354C20.8702 24.318 20.8833 24.3241 21.2038 24.2935C21.5242 24.2629 22.1521 24.1956 22.466 24.1619C22.7798 24.1281 22.7798 24.1281 22.8422 24.0455C22.9047 23.9629 23.0296 23.7976 23.0938 23.7118C23.1579 23.6261 23.1611 23.62 23.1178 23.5988C23.0746 23.5776 22.9847 23.5414 22.9398 23.5233C22.8948 23.5052 22.8948 23.5052 22.8948 23.5052" stroke="white" stroke-width="0.3501"/>
<path d="M19.3287 23.9033C19.3254 24.3993 19.322 24.8952 19.3237 25.1639C19.3254 25.4326 19.3319 25.4738 19.3558 25.5039C19.3797 25.5338 19.4209 25.5524 19.6682 25.6413C19.9157 25.7302 20.3692 25.8894 20.6026 25.9721C20.836 26.0548 20.8491 26.0609 21.1695 26.0302C21.4899 25.9996 22.1178 25.9323 22.4318 25.8986C22.7456 25.8649 22.7456 25.8649 22.8142 25.7733C22.8827 25.6818 23.0199 25.4987 23.157 25.3155" stroke="white" stroke-width="0.3501"/>
<path d="M23.1348 23.6538C23.1354 24.2165 23.1361 24.7791 23.1368 25.3417" stroke="white" stroke-width="0.3501"/>
<path d="M20.8525 24.3325C20.8541 24.8897 20.8557 25.4469 20.8565 25.7255C20.8572 26.0041 20.8572 26.0041 20.8572 26.0041" stroke="white" stroke-width="0.3501"/>
<path d="M19.3271 23.9287C19.347 23.8736 19.3669 23.8184 19.3916 23.7709C19.4163 23.7233 19.4458 23.6831 19.4754 23.6431" stroke="white" stroke-width="0.3501"/>
<path d="M19.5371 23.4614C19.5638 23.42 19.5905 23.3787 19.6172 23.3374" stroke="white" stroke-width="0.3501"/>
<path d="M23.1728 25.4461C23.1728 25.4461 23.1728 25.4461 23.1728 25.4643C23.1729 25.4826 23.1732 25.519 23.187 25.5502C23.2008 25.5814 23.2281 25.6073 23.232 25.7244C23.2358 25.8415 23.2161 26.0496 23.2358 26.1721C23.2556 26.2946 23.3147 26.3313 27.9327 29.353C32.5507 32.3747 41.7275 38.3814 46.8023 41.6818C51.8772 44.982 52.8501 45.576 53.3629 45.9066C53.8756 46.2372 53.9282 46.3046 53.9626 46.3781C53.9973 46.4516 54.0137 46.5311 53.9874 46.8572C53.9611 47.1833 53.892 47.7558 53.7851 48.114C53.6783 48.4721 53.5337 48.6161 53.381 48.7278C53.2281 48.8396 53.0671 48.9191 52.809 48.9757C52.551 49.0325 52.1961 49.0661 51.8575 49.0677C51.5188 49.0691 51.1968 49.0386 50.8912 48.9819C50.5854 48.9253 50.2962 48.8426 50.0152 48.7355C49.7342 48.6283 49.4613 48.4966 49.2643 48.3665C49.0669 48.2364 48.9453 48.1078 48.8746 48.019C48.8041 47.9303 48.7843 47.8813 48.7843 47.7833C48.7843 47.6854 48.8041 47.5384 48.8238 47.4251C48.8435 47.3119 48.8632 47.2323 48.8632 47.1757C48.8632 47.1189 48.8435 47.0853 48.4047 46.8052C47.9659 46.525 47.1081 45.9984 45.7078 45.1168C44.3077 44.235 42.3651 42.9982 40.0299 41.4444C37.6946 39.8907 34.9665 38.0201 31.6271 35.7102C28.2878 33.4003 24.337 30.651 22.263 29.206C20.189 27.761 19.9917 27.6202 19.839 27.513C19.6861 27.4059 19.5775 27.3324 19.4954 27.2391C19.4133 27.1457 19.3573 27.0323 19.3278 26.8394C19.2982 26.6466 19.2949 26.3741 19.3049 26.1552C19.3147 25.9363 19.3377 25.771 19.3493 25.6883C19.3606 25.6057 19.3606 25.6057 19.3606 25.6057C19.3606 25.6057 19.3606 25.6057 19.4133 25.6669C19.4659 25.7281 19.5711 25.8506 19.7486 25.9456C19.9261 26.0405 20.1758 26.1078 20.4059 26.1567C20.6361 26.2058 20.8464 26.2363 21.1274 26.2395C21.4084 26.2425 21.7601 26.218 22.0246 26.1889C22.2892 26.1598 22.4667 26.1261 22.6212 26.0711C22.7756 26.016 22.9071 25.9394 23.0025 25.846C23.0978 25.7526 23.1569 25.6424 23.1734 25.5555C23.1898 25.4686 23.1636 25.405 23.1373 25.3413" stroke="white" stroke-width="0.3501"/>
<path d="M23.2362 26.1724C23.131 26.2928 23.0258 26.4132 22.7793 26.5085C22.5327 26.6039 22.145 26.6744 21.7982 26.7126C21.4515 26.7509 21.1457 26.757 20.9419 26.7509C20.7382 26.7448 20.6363 26.7265 21.2016 27.1612C21.7669 27.5959 22.9995 28.4837 27.8969 31.8208C32.7943 35.1578 41.3564 40.9441 45.7164 43.8756C50.0764 46.807 50.2341 46.8834 50.4527 46.9463C50.6713 47.009 50.9507 47.058 51.2662 47.0718C51.5817 47.0855 51.9333 47.0641 52.2704 47.0166C52.6073 46.9692 52.9293 46.8957 53.161 46.8023C53.3928 46.7089 53.5341 46.5957 53.6016 46.5008C53.6689 46.4059 53.6623 46.3293 53.6103 46.2334C53.5582 46.1375 53.4607 46.0222 53.3633 45.9069" stroke="white" stroke-width="0.3501"/>
<path d="M49.054 48.207C49.0263 48.3118 48.9986 48.4165 49.0143 48.5315C49.0299 48.6466 49.0892 48.7721 49.2322 48.9023C49.3751 49.0323 49.602 49.1671 49.8747 49.2819C50.1476 49.3967 50.4664 49.4916 50.8082 49.5575C51.15 49.6233 51.5148 49.66 51.8041 49.6647C52.0933 49.6692 52.307 49.6416 52.4812 49.585C52.6553 49.5284 52.7901 49.4427 52.9036 49.3523C53.017 49.262 53.109 49.1671 53.1648 49.1013C53.2207 49.0355 53.2405 48.9987 53.2463 48.9569C53.2522 48.915 53.2443 48.8679 53.2362 48.821" stroke="white" stroke-width="0.3501"/>
<path d="M50.1582 49.3887C50.1799 49.2863 50.2015 49.184 50.2124 49.1328C50.2232 49.0816 50.2232 49.0816 50.3843 49.1122C50.5453 49.1429 50.8673 49.2041 51.0745 49.2408C51.2815 49.2775 51.3736 49.2898 51.4804 49.299C51.5872 49.3081 51.7088 49.3142 51.7943 49.3173C51.8798 49.3204 51.9292 49.3204 51.9571 49.3311C51.985 49.3418 51.9914 49.3633 51.9948 49.3923C51.9981 49.4214 51.9981 49.4582 52.0018 49.5043C52.0054 49.5505 52.0126 49.6061 52.0159 49.6339C52.0193 49.6617 52.0179 49.6618 52.0179 49.6618" stroke="white" stroke-width="0.3501"/>
<path d="M9.17578 19.778C9.28608 19.7323 9.39604 19.6891 9.50576 19.6506M9.85544 19.5424C9.98042 19.508 10.1045 19.478 10.2265 19.4499M10.5307 19.3828C10.6511 19.3575 10.7716 19.3337 10.8944 19.3114M11.2058 19.2582C11.3461 19.2356 11.487 19.2143 11.6251 19.1942C11.8577 19.1603 12.0819 19.1295 12.3346 19.1112C12.5875 19.0929 12.8689 19.0871 13.2046 19.0833C13.5401 19.0794 13.9299 19.0773 14.4806 19.0941C15.0315 19.111 15.7437 19.1467 16.0996 19.1646C16.4556 19.1824 16.4556 19.1824 16.4556 19.1824" stroke="white" stroke-width="0.3501"/>
<path d="M9.74512 21.6772C9.823 21.6523 9.90523 21.6261 9.99369 21.5983C10.1166 21.5595 10.2516 21.5174 10.4038 21.4748M10.8523 21.3616C10.887 21.3538 10.9228 21.346 10.959 21.3384M11.4203 21.253C11.4511 21.248 11.482 21.2431 11.513 21.2383M11.9772 21.1745C12.0163 21.1698 12.0556 21.1652 12.0948 21.1609M12.5541 21.1189C13.0257 21.086 13.4268 21.0916 13.8449 21.0883C14.271 21.0851 14.7151 21.0725 15.0761 21.0811C15.437 21.0898 15.7148 21.1196 15.9661 21.1277C16.2172 21.1359 16.4417 21.1221 16.6663 21.1085" stroke="white" stroke-width="0.3501"/>
<path d="M17.8334 7.41455C17.8324 7.42479 17.8313 7.43511 17.8301 7.4452" stroke="white" stroke-width="0.3501"/>
<path d="M17.8301 7.44531C18.0441 7.54033 18.2579 7.63542 18.5531 7.73441C18.8481 7.83347 19.2242 7.93651 19.6335 8.01211C20.0429 8.08771 20.4855 8.13571 20.9575 8.17355C21.4295 8.21131 21.931 8.23875 22.381 8.23195C22.8309 8.22507 23.2291 8.18387 23.6275 8.12883C23.6713 8.12287 23.7151 8.11653 23.7587 8.11026" stroke="white" stroke-width="0.3501"/>
<path d="M33.2375 3.58162C32.977 3.31042 32.7162 3.03921 32.3593 2.78054C32.0022 2.52195 31.5488 2.27604 31.0103 2.04313C30.4717 1.81007 29.848 1.59015 28.9688 1.41434C28.0896 1.23861 26.9548 1.10706 25.9587 1.04315C24.9625 0.979248 24.1048 0.982841 23.2943 1.0774C22.4839 1.17188 21.721 1.35724 21.0521 1.59298C20.3831 1.82872 19.8081 2.11491 19.3153 2.46668C18.8226 2.81853 18.4121 3.2362 18.052 3.66059C17.6919 4.08513 17.3824 4.51648 17.1986 4.90464C17.0147 5.2928 16.9566 5.63777 16.9682 5.93236C16.9796 6.22704 17.0608 6.47141 17.2259 6.73436C17.3834 6.98531 17.6176 7.25308 17.9252 7.48752M23.758 8.11004C23.8796 8.07328 23.9958 8.03422 24.107 7.9934C24.5017 7.84862 24.8352 7.68084 25.1198 7.46413C25.4044 7.24735 25.6401 6.9818 25.7837 6.76051C25.9274 6.53921 25.9791 6.36211 26.0271 5.99061C26.0748 5.61904 26.1186 5.05285 26.1624 4.48667" stroke="white" stroke-width="0.3501"/>
<path d="M20.6182 6.10357C21.0035 5.75875 21.3888 5.41386 21.9915 5.13921C22.5942 4.86449 23.4144 4.66001 24.2475 4.56095C25.0806 4.46196 25.9266 4.46846 26.7756 4.54329C27.6249 4.6182 28.477 4.7616 29.1384 4.87771C29.8 4.99382 30.2705 5.08265 30.7036 5.11781C31.1367 5.15289 31.5323 5.13424 31.9132 5.05735C32.2941 4.98037 32.6602 4.84507 32.8917 4.68983C33.1233 4.53435 33.2201 4.35884 33.2554 4.1708C33.2907 3.98276 33.2644 3.78219 33.2512 3.6819C33.238 3.58161 33.238 3.58161 33.1429 3.70995C33.0478 3.83821 32.8577 4.09474 32.5521 4.2688C32.2466 4.44277 31.8256 4.5342 31.0587 4.52502C30.2917 4.51585 29.1787 4.40601 28.2518 4.29708C27.3251 4.18808 26.5843 4.07984 25.898 4.02603C25.2117 3.97214 24.5798 3.97267 23.9167 4.05095C23.2537 4.12922 22.5595 4.28531 22.0304 4.40471C21.5012 4.52418 21.1371 4.60696 20.7728 4.68967" stroke="white" stroke-width="0.3501"/>
<path d="M25.1533 5.22125C25.2708 5.24617 25.3862 5.32865 25.4646 5.42068C25.5429 5.51248 25.5843 5.61369 25.597 5.72445C25.6097 5.83529 25.594 5.9556 25.5499 6.0776C25.5058 6.19975 25.4335 6.3235 25.3384 6.45444C25.2431 6.58531 25.1251 6.72336 25 6.82441C24.8748 6.92546 24.7427 6.98944 24.6269 6.99357C24.5111 6.9977 24.4117 6.94182 24.33 6.86301C24.2483 6.78413 24.1844 6.68231 24.167 6.5451C24.1496 6.40782 24.1787 6.23537 24.2473 6.05895C24.3159 5.88253 24.4244 5.70205 24.5224 5.56867C24.6204 5.4352 24.7083 5.34867 24.8122 5.28897C24.9159 5.22928 25.0357 5.19641 25.1533 5.22125Z" stroke="white" stroke-width="0.3501"/>
<path d="M21.8261 5.92236C21.8112 6.3213 21.7962 6.72016 21.7872 7.10885C21.7783 7.4974 21.7754 7.87577 21.7725 8.25399" stroke="white" stroke-width="0.3501"/>
<path d="M25.917 6.50489C25.946 6.4549 25.9693 6.40475 25.9879 6.354C26.0598 6.15915 26.0649 5.95376 26.0771 5.70151C26.081 5.61926 26.0859 5.53205 26.0921 5.44238" stroke="white" stroke-width="0.3501"/>
<path d="M17.5879 7.16406C17.6523 7.21574 17.7237 7.26489 17.8065 7.31174" stroke="white" stroke-width="0.3501"/>
<path d="M17.5871 7.16406C17.5855 7.17606 17.5837 7.18807 17.582 7.19999" stroke="white" stroke-width="0.3501"/>
<path d="M23.8541 16.3609C23.8061 16.3754 23.7504 16.4074 23.69 16.4347C23.5538 16.4966 23.3931 16.5356 23.1626 16.5746C22.9322 16.6137 22.6319 16.6527 22.328 16.6722C22.0242 16.6917 21.7169 16.6917 21.4061 16.6754C21.0953 16.6592 20.781 16.6267 20.4107 16.5714C20.0405 16.5161 19.6146 16.438 19.3141 16.3698C19.0139 16.3014 18.8393 16.2428 18.7521 16.2136C18.6891 16.1924 18.6715 16.1866 18.668 16.2615" stroke="white" stroke-width="0.3501"/>
<path d="M17.8064 7.31152C17.7919 7.42098 17.7775 7.54803 17.7641 7.70404C17.7258 8.15618 17.6978 8.85239 17.6525 9.26875C17.6069 9.68512 17.5442 9.82171 17.4603 9.96809C17.3765 10.1145 17.2718 10.2706 17.0901 10.3811C16.9085 10.4918 16.6502 10.5568 15.4699 10.7358C14.2894 10.9146 12.1872 11.2074 11.0031 11.3896C9.81934 11.5717 9.55395 11.6433 9.26409 11.6954C8.97424 11.7474 8.65985 11.7799 8.37361 11.8286C8.08721 11.8775 7.82879 11.9425 7.60532 12.0433C7.38178 12.1442 7.1932 12.2808 7.00806 12.5053C6.823 12.7297 6.64148 13.042 6.52618 13.3641C6.41087 13.686 6.36205 14.0178 6.3586 14.2943C6.35507 14.5708 6.39692 14.792 6.56803 15.0165C6.73921 15.2409 7.03957 15.4686 7.39581 15.6833C7.75197 15.898 8.16402 16.0997 8.55859 16.22C8.95323 16.3404 9.33048 16.3794 10.4968 16.3339C11.6632 16.2883 13.6189 16.1582 14.8272 16.0802C16.0355 16.0021 16.4964 15.9761 16.8597 15.9599C17.2229 15.9435 17.4882 15.937 17.7117 15.95C17.9353 15.9631 18.1169 15.9956 18.2694 16.0508C18.4218 16.1059 18.545 16.1838 18.6684 16.2616" stroke="white" stroke-width="0.3501"/>
<path d="M23.8545 16.3609C24.0001 16.2629 24.1455 16.165 24.2743 16.0542C24.4028 15.9434 24.5145 15.8198 24.6229 15.6377C24.7311 15.4555 24.8358 15.2149 24.9546 15.0424C25.0733 14.8701 25.2059 14.7659 25.4818 14.6488C25.7577 14.5317 26.1768 14.4016 26.9765 14.1771C27.7764 13.9527 28.9566 13.634 29.7739 13.3997C30.5909 13.1655 31.045 13.0159 31.3733 12.8793C31.7015 12.7427 31.9041 12.6191 32.0996 12.4368C32.2952 12.2547 32.4838 12.014 32.6095 11.7343C32.7353 11.4545 32.7981 11.1357 32.7877 10.8495C32.7772 10.5632 32.6933 10.3095 32.5223 10.0851C32.351 9.86061 32.0927 9.66546 31.8587 9.48009C31.6247 9.29457 31.4153 9.11899 31.2336 8.97261C31.052 8.82615 30.8983 8.70913 30.7133 8.62137C30.5281 8.53347 30.3116 8.47492 30.0951 8.46184C29.8786 8.44885 29.662 8.48141 29.4735 8.53347C29.285 8.58552 29.1243 8.65707 28.9672 8.72541C28.81 8.79367 28.6563 8.85872 28.5794 8.89128C28.5027 8.92377 28.5027 8.92377 28.5027 8.92377" stroke="white" stroke-width="0.3501"/>
<path d="M31.4068 9.11347C31.4166 8.84861 31.4264 8.58359 31.3615 8.2267C31.2965 7.86972 31.1568 7.42095 30.9787 7.07284C30.8005 6.72474 30.584 6.47761 30.3536 6.2564C30.123 6.03518 29.8787 5.84003 29.6411 5.67737C29.4037 5.51471 29.1732 5.38468 28.8379 5.27728C28.5027 5.16996 28.0626 5.08542 27.724 5.06264C27.3851 5.03986 27.1477 5.07892 26.8962 5.15039C26.6448 5.22202 26.3794 5.32605 26.1455 5.42038C26.1249 5.42863 26.1047 5.43689 26.0849 5.44492M25.2188 7.38548C25.2294 7.50511 25.2393 7.62665 25.2479 7.74299C25.2687 8.02597 25.2828 8.27959 25.2898 8.52037C25.2968 8.76108 25.2968 8.98872 25.2968 9.12868C25.2968 9.26856 25.2968 9.32054 25.3107 9.47671C25.3246 9.6328 25.3527 9.89307 25.3735 10.1012C25.3946 10.3094 25.4086 10.4655 25.4155 10.5436C25.4225 10.6217 25.4225 10.6217 25.4225 10.6217" stroke="white" stroke-width="0.3501"/>
<path d="M26.0674 5.88924C26.2491 5.80463 26.4518 5.7291 26.6622 5.66749C27.0289 5.56017 27.4201 5.49505 27.7902 5.49184C28.1604 5.48847 28.5095 5.5471 28.81 5.62194C29.1103 5.69669 29.3617 5.78781 29.6201 5.95376C29.8785 6.11956 30.1439 6.36026 30.3604 6.62054C30.5771 6.88074 30.7446 7.16051 30.9033 7.43141C31.0619 7.70231 31.2116 7.96442 31.2919 8.13251C31.3723 8.30075 31.3831 8.37482 31.394 8.44904" stroke="white" stroke-width="0.3501"/>
<path d="M30.4123 8.51305C30.006 8.33785 29.5997 8.16258 29.3373 8.08476C29.0749 8.00687 28.9561 8.02644 28.7502 8.09799C28.5441 8.16953 28.2508 8.29306 28.0133 8.40703C27.7759 8.52085 27.5942 8.62488 27.4825 8.71279C27.3707 8.80054 27.3288 8.87209 27.2938 8.93072C27.2589 8.98919 27.231 9.03475 27.2031 9.08031" stroke="white" stroke-width="0.3501"/>
<path d="M25.2969 9.12866C26.2678 9.05383 27.2385 8.97899 27.7729 8.94483C28.3072 8.91066 28.4049 8.91715 28.5028 8.92365" stroke="white" stroke-width="0.3501"/>
<path d="M25.7568 10.31C26.2737 10.2514 26.7907 10.1929 27.524 10.1148C28.2573 10.0367 29.2072 9.93918 29.9231 9.86106C30.6389 9.78301 31.121 9.72446 31.4177 9.70489C31.7146 9.6854 31.8264 9.70489 31.9795 9.77491C32.1324 9.84485 32.327 9.96517 32.5214 10.0856" stroke="white" stroke-width="0.3501"/>
<path d="M17.4394 11.4219C15.8608 11.6627 14.2823 11.9034 12.9064 12.131C11.5304 12.3587 10.3571 12.5734 9.66215 12.7817C8.96715 12.9898 8.75066 13.1914 8.60754 13.5167C8.46426 13.842 8.39442 14.2909 8.46081 14.691C8.52712 15.0911 8.72965 15.4424 8.93227 15.7937" stroke="white" stroke-width="0.3501"/>
<path d="M18.7803 11.2271C19.1435 11.728 19.5067 12.2289 19.7267 12.6909C19.9467 13.1527 20.0235 13.5756 20.0304 13.9725C20.0375 14.3693 19.9746 14.7401 19.8663 15.046C19.7581 15.3517 19.6044 15.5924 19.4508 15.8331" stroke="white" stroke-width="0.3501"/>
<path d="M24.9611 10.583C24.8843 11.6825 24.8074 12.782 24.7271 13.5757C24.6468 14.3694 24.563 14.8573 24.5191 15.187C24.4751 15.5167 24.4709 15.6883 24.4668 15.8598" stroke="white" stroke-width="0.3501"/>
<path d="M8.85397 16.2929C8.63551 16.4713 8.41698 16.6496 8.09134 16.8136C7.76555 16.9777 7.33249 17.1273 6.89255 17.2249C6.45243 17.3225 6.00543 17.368 5.5201 17.3388C5.0346 17.3095 4.51078 17.2053 4.03588 17.033C3.56089 16.8605 3.13489 16.6199 2.77865 16.3596C2.42241 16.0994 2.136 15.8196 1.88111 15.4553C1.6263 15.091 1.40275 14.6421 1.24896 14.216C1.09542 13.7899 1.01155 13.3865 1.00113 12.9701C0.990707 12.5538 1.05341 12.1244 1.14778 11.6951C1.24207 11.2656 1.36771 10.8363 1.52142 10.4817C1.67504 10.1272 1.85665 9.84741 2.06625 9.58071C2.27576 9.31394 2.51325 9.06031 2.74369 8.84559C2.97429 8.6308 3.19767 8.45514 3.45264 8.30234C3.70754 8.14938 3.99386 8.01936 4.30127 7.88598C4.60852 7.75259 4.93678 7.61592 5.24764 7.52816C5.5585 7.44026 5.8518 7.40127 6.20099 7.37857C6.55025 7.35571 6.95524 7.34922 7.343 7.38178C7.73067 7.41427 8.10078 7.48582 8.46753 7.61591C8.83411 7.74601 9.19733 7.93474 9.54651 8.20801C9.89586 8.48121 10.231 8.83902 10.472 9.14157C10.7129 9.44411 10.8597 9.69124 10.9715 9.92874C11.0831 10.1662 11.1599 10.3939 11.2228 10.589C11.2857 10.7842 11.3345 10.9468 11.3598 11.0651C11.3851 11.1833 11.3865 11.2571 11.388 11.3309" stroke="white" stroke-width="0.3501"/>
<path d="M5.24437 17.0823C4.69265 16.8546 4.14093 16.6269 3.67291 16.3667C3.20506 16.1065 2.82084 15.8137 2.51014 15.4397C2.19928 15.0655 1.96179 14.6101 1.79413 14.1092C1.62663 13.6083 1.52873 13.0617 1.56369 12.4568C1.59865 11.8517 1.76614 11.1882 1.94078 10.697C2.11549 10.2058 2.29702 9.88699 2.63923 9.53246C2.98144 9.17793 3.48441 8.78756 4.02226 8.4883C4.55995 8.18904 5.13284 7.98089 5.68103 7.87357C6.22931 7.76618 6.75313 7.75968 7.22114 7.80845C7.68907 7.85729 8.10112 7.96133 8.46081 8.13049C8.8205 8.29965 9.12791 8.53386 9.41768 8.80384C9.70753 9.07382 9.97999 9.37958 10.1895 9.67234C10.3991 9.96511 10.5457 10.2448 10.6469 10.466C10.7483 10.6873 10.8041 10.8499 10.8368 10.9971C10.8696 11.1443 10.8792 11.2759 10.8889 11.4076" stroke="white" stroke-width="0.3501"/>
<path d="M9.66554 11.5389C9.45594 11.3892 9.24651 11.2397 9.0439 11.129C8.84136 11.0185 8.6458 10.9469 8.4678 10.9014C8.28956 10.8559 8.12896 10.8363 7.96491 10.8298C7.8007 10.8233 7.63312 10.8298 7.42 10.8737C7.20696 10.9176 6.94862 10.9989 6.71638 11.0835C6.48414 11.1681 6.27799 11.2559 6.09819 11.3681C5.91839 11.4804 5.76468 11.617 5.61114 11.8415C5.45743 12.0659 5.3038 12.3781 5.20081 12.6319C5.09774 12.8856 5.0453 13.0808 5.00862 13.2369C4.97193 13.393 4.95109 13.5101 4.95446 13.6142C4.95798 13.7183 4.98605 13.8094 5.02265 13.9281C5.05933 14.0468 5.10463 14.1933 5.2288 14.3819C5.35263 14.5706 5.55525 14.8015 5.75434 14.9967C5.95334 15.1919 6.14882 15.3513 6.31648 15.483C6.48414 15.6148 6.62381 15.7188 6.8037 15.8018C6.98358 15.8848 7.20352 15.9466 7.3555 15.9808C7.50732 16.0149 7.59119 16.0214 7.68056 16.0176C7.76976 16.0137 7.86446 15.9995 7.95917 15.9852" stroke="white" stroke-width="0.3501"/>
<path d="M7.35574 15.981C6.98382 15.6616 6.61182 15.3423 6.36481 15.0867C6.11771 14.8311 5.99552 14.6391 5.9169 14.483C5.83836 14.3269 5.8034 14.2065 5.93257 13.782C6.06182 13.3575 6.35521 12.6288 6.53854 12.2434C6.72187 11.858 6.79515 11.8156 7.16362 11.7213C7.53209 11.627 8.19558 11.4806 8.557 11.4057C8.91849 11.331 8.97782 11.3277 9.03896 11.3375C9.10002 11.3472 9.16296 11.37 9.26768 11.4057C9.37247 11.4416 9.51912 11.4904 9.66577 11.5391" stroke="white" stroke-width="0.3501"/>
<path d="M5.98828 11.4424C6.2394 11.5592 6.49076 11.6761 6.74188 11.7929" stroke="white" stroke-width="0.3501"/>
<path d="M5.85287 14.3045C5.57607 14.179 5.29918 14.0537 5.02246 13.9282" stroke="white" stroke-width="0.3501"/>
</svg>
