<svg width="54" height="51" viewBox="0 0 54 51" fill="none" xmlns="http://www.w3.org/2000/svg">
<path d="M27.3616 26.04C27.3092 26.0604 27.2496 26.1019 27.1843 26.1385C27.0372 26.2209 26.8613 26.2778 26.6078 26.3395C26.3542 26.4012 26.0227 26.4675 25.6861 26.5109C25.3495 26.5544 25.0077 26.575 24.6607 26.5766C24.3135 26.5781 23.9617 26.5607 23.5457 26.52C23.1297 26.4794 22.6503 26.4154 22.3109 26.3547C21.9718 26.2938 21.7734 26.2362 21.6742 26.2074C21.6027 26.1866 21.5827 26.1808 21.584 26.2699" stroke="white" stroke-width="0.3501"/>
<path d="M27.324 26.1341C27.1769 26.2165 27.0009 26.2733 26.7473 26.3351C26.4937 26.3968 26.1624 26.4631 25.8258 26.5065C25.4891 26.55 25.1472 26.5706 24.8003 26.5722C24.4532 26.5737 24.1011 26.5563 23.6852 26.5156C23.2694 26.475 22.7897 26.411 22.4505 26.3503C22.1114 26.2894 21.9129 26.2317 21.8138 26.203C21.7145 26.1741 21.7145 26.1741 21.7333 26.4166C21.7519 26.6591 21.7893 27.144 21.8659 27.503C21.9426 27.8618 22.0583 28.0946 22.2719 28.2712C22.4856 28.4478 22.797 28.5682 23.1413 28.648C23.4854 28.7278 23.8622 28.767 24.2336 28.7834C24.6052 28.7997 24.9713 28.7931 25.3278 28.7561C25.6843 28.7192 26.0312 28.652 26.3566 28.5511C26.6818 28.4502 26.9855 28.316 27.1886 28.1916C27.3916 28.0673 27.4937 27.9529 27.577 27.7816C27.66 27.6103 27.724 27.3822 27.7426 27.0485C27.761 26.7148 27.7341 26.2757 27.6616 26.1099C27.5891 25.9441 27.471 26.0518 27.324 26.1341Z" stroke="white" stroke-width="0.3501"/>
<path d="M22.4512 26.3506C22.6619 26.6046 22.8723 26.8588 22.997 27.1084C23.1214 27.358 23.1599 27.6032 23.1264 27.8474C23.0929 28.0917 22.9877 28.3348 22.8825 28.5779" stroke="white" stroke-width="0.3501"/>
<path d="M23.9187 26.5366C23.7568 26.8531 23.5951 27.1695 23.5273 27.4159C23.4594 27.6622 23.4858 27.8384 23.5626 28.0079C23.6393 28.1773 23.7662 28.3397 23.8864 28.4679C24.0069 28.5959 24.1205 28.6896 24.234 28.7834" stroke="white" stroke-width="0.3501"/>
<path d="M25.5935 26.5327C25.6941 26.7545 25.7949 26.9764 25.8363 27.1961C25.8778 27.4159 25.8599 27.6334 25.8215 27.833C25.7829 28.0325 25.7238 28.2139 25.6674 28.3613C25.6111 28.5086 25.5575 28.622 25.5039 28.7351" stroke="white" stroke-width="0.3501"/>
<path d="M26.2897 26.4331C26.2578 26.6513 26.2255 26.8695 26.2434 27.0849C26.2612 27.3003 26.3288 27.5127 26.4017 27.6823C26.4744 27.852 26.5524 27.9787 26.6405 28.0799C26.7287 28.1811 26.8272 28.2567 26.9255 28.3322" stroke="white" stroke-width="0.3501"/>
<path d="M27.3242 26.1343C27.4574 26.2197 27.5907 26.3051 27.6615 26.4139C27.7321 26.5227 27.7402 26.6548 27.7481 26.7868" stroke="white" stroke-width="0.3501"/>
<path d="M22.4775 28.5064C22.4898 28.5792 22.502 28.6519 22.5444 28.7054C22.5866 28.759 22.6589 28.7933 22.7982 28.8371C22.9373 28.8809 23.1432 28.9341 23.3682 28.9787C23.5933 29.0232 23.8374 29.0587 24.0456 29.0828C24.2537 29.1072 24.426 29.12 24.6524 29.1218C24.8787 29.1236 25.1588 29.1145 25.4071 29.0937C25.6555 29.073 25.8719 29.0406 26.0778 28.9953C26.2837 28.9501 26.479 28.8919 26.639 28.8282C26.7987 28.7644 26.9233 28.695 26.9963 28.6461C27.0694 28.5972 27.091 28.5689 27.0979 28.5062C27.1046 28.4435 27.0968 28.3465 27.0886 28.2495" stroke="white" stroke-width="0.3501"/>
<path d="M22.5439 28.7057C22.5496 29.098 22.5554 29.49 22.5783 29.8202C22.6012 30.1504 22.641 30.4188 22.7196 30.6189C22.7982 30.8192 22.9155 30.9513 23.4808 31.333C24.0462 31.7145 25.0599 32.3457 27.1661 33.7172C29.2721 35.0888 32.4707 37.2008 34.9791 38.8692C37.4875 40.5376 39.3057 41.7621 41.1905 42.9885C43.0751 44.2149 45.0261 45.443 46.0443 46.0836C47.0623 46.724 47.1474 46.777 47.1763 46.8333C47.205 46.8895 47.1775 46.9491 47.1546 47.0511C47.1314 47.153 47.1129 47.2973 47.1127 47.421C47.1127 47.5447 47.1306 47.648 47.168 47.7483C47.2053 47.8485 47.262 47.9456 47.3849 48.0755C47.508 48.2054 47.6973 48.368 48.0276 48.5414C48.3581 48.7149 48.8297 48.8991 49.1915 49.0146C49.5535 49.13 49.8059 49.1767 50.0573 49.2061C50.3088 49.2354 50.5591 49.2474 50.8193 49.2299C51.0795 49.2122 51.3497 49.1651 51.5702 49.1053C51.7907 49.0457 51.9619 48.9735 52.1184 48.8848C52.2747 48.7961 52.4164 48.6908 52.5272 48.5895C52.638 48.4881 52.7177 48.3904 52.8005 48.02C52.883 47.6496 52.9684 47.0065 53.0133 46.6248C53.0581 46.2432 53.0624 46.123 53.0269 46.0189C52.9913 45.9146 52.9155 45.8264 52.6846 45.6509C52.4535 45.4753 52.0668 45.2125 50.7789 44.4006C49.4908 43.5888 47.3018 42.2279 45.3066 40.9792C43.3114 39.7305 41.5101 38.5939 39.1564 37.0942C36.8026 35.5944 33.8961 33.7316 31.7908 32.3715C29.6854 31.0114 28.381 30.1542 27.7187 29.7205C27.0566 29.2867 27.0364 29.2763 27.0183 29.2349C27.0001 29.1934 26.984 29.1209 26.9805 29.0177C26.9771 28.9144 26.9865 28.7804 26.9959 28.6465" stroke="white" stroke-width="0.3501"/>
<path d="M53.0278 46.0189C53.0278 46.0189 53.0278 46.0189 52.9283 46.0999C52.829 46.1809 52.6303 46.343 52.3323 46.4901C52.034 46.6372 51.6367 46.7693 51.2435 46.8472C50.8505 46.925 50.462 46.9485 50.062 46.9106C49.6619 46.8728 49.2502 46.774 48.8731 46.6033C48.496 46.4327 48.1536 46.1904 45.2989 44.2818C42.4446 42.3734 37.0777 38.7988 33.035 36.115C28.9921 33.4313 26.2732 31.6385 24.976 30.7692C23.6786 29.9 23.803 29.9544 23.9769 29.9942C24.151 30.0339 24.3749 30.0592 24.6116 30.0721C24.8483 30.0848 25.0979 30.0852 25.3973 30.0402C25.6967 29.995 26.0462 29.9044 26.2991 29.8002C26.5521 29.696 26.7088 29.5784 26.8125 29.4819C26.9166 29.3854 26.9678 29.3101 27.0192 29.2349" stroke="white" stroke-width="0.3501"/>
<path d="M47.5278 48.2104C47.5013 48.3925 47.4747 48.5745 47.4672 48.6707C47.4591 48.7668 47.4701 48.7769 47.5304 48.8269C47.5909 48.877 47.7008 48.9669 47.8919 49.0835C48.0828 49.2 48.3549 49.3432 48.6413 49.4717C48.9277 49.6001 49.2279 49.7139 49.5227 49.7932C49.8171 49.8726 50.1057 49.9176 50.4332 49.9187C50.7606 49.9198 51.1267 49.877 51.4016 49.8188C51.6766 49.7606 51.8601 49.6871 51.984 49.6207C52.1078 49.5543 52.1718 49.4949 52.2292 49.4464C52.2862 49.3978 52.3367 49.3601 52.3616 49.2388C52.3867 49.1173 52.3861 48.9124 52.3858 48.7074" stroke="white" stroke-width="0.3501"/>
<path fill-rule="evenodd" clip-rule="evenodd" d="M19.9661 30.8196L18.9502 30.7158L19.4056 31.6224L19.9661 30.8196Z" stroke="white" stroke-width="0.3501"/>
<path d="M36.3524 5.37287C36.4931 5.14056 36.4649 4.85247 36.3899 4.62489C36.3151 4.39722 36.1933 4.23006 35.9636 4.03488C35.7341 3.83978 35.3966 3.61675 34.8674 3.38453C34.3378 3.15222 33.6164 2.91063 32.8386 2.74802C32.0607 2.5855 31.227 2.50188 30.5569 2.43682C29.8868 2.37176 29.381 2.32535 28.8188 2.20923C28.2563 2.09304 27.638 1.90722 26.9305 1.70285C26.2231 1.49838 25.4267 1.27544 24.6817 1.14077C23.9368 1.00592 23.2433 0.959595 22.5265 1.03858C21.8097 1.11748 21.0695 1.32185 20.4087 1.57745C19.7481 1.83297 19.1674 2.13945 18.8487 2.34855C18.5301 2.55757 18.4739 2.66904 18.4409 3.30091C18.4082 3.93269 18.3988 5.08478 18.4505 5.7677C18.5019 6.45062 18.6145 6.66427 18.811 6.89194C19.0078 7.11961 19.2891 7.36112 19.7717 7.56549C20.2542 7.76996 20.9382 7.93721 21.6644 8.04868C22.3907 8.16015 23.159 8.21592 23.8899 8.22521C24.6207 8.23449 25.3143 8.19736 25.9749 8.09509C26.6355 7.9929 27.2632 7.82573 27.7036 7.6492C28.1439 7.47267 28.3969 7.28677 28.575 7.00806C28.753 6.72942 28.8562 6.35771 28.9217 6.0465C28.9873 5.73512 29.0155 5.48434 29.039 5.36358C29.0624 5.24275 29.0812 5.25203 29.2404 5.31709C29.3996 5.38206 29.6996 5.5029 30.1822 5.64686C30.6648 5.7909 31.3299 5.95815 32.0704 6.05106C32.8105 6.14396 33.6257 6.16253 34.2253 6.13468C34.8252 6.10684 35.2093 6.03249 35.5561 5.9071C35.9027 5.78162 36.2118 5.60518 36.3524 5.37287Z" stroke="white" stroke-width="0.3501"/>
<path d="M26.3609 6.72908C26.4896 6.71043 26.635 6.66866 26.7757 6.57343C26.9161 6.47821 27.052 6.32952 27.1363 6.16459C27.2207 5.99967 27.2533 5.81858 27.2487 5.65821C27.2441 5.49792 27.2019 5.3586 27.1059 5.24249C27.0099 5.12638 26.8599 5.03339 26.7077 5.0009C26.5554 4.96833 26.4007 4.99626 26.2624 5.06364C26.1243 5.13093 26.0025 5.23785 25.9016 5.39117C25.8009 5.54441 25.7213 5.74424 25.7003 5.92077C25.6791 6.0973 25.7165 6.25054 25.7775 6.38298C25.8385 6.51542 25.9229 6.62689 26.0211 6.6849C26.1195 6.743 26.2319 6.74764 26.3609 6.72908Z" stroke="white" stroke-width="0.3501"/>
<path d="M18.5381 2.6665C18.7277 2.8347 18.9172 3.00289 19.3119 3.12416C19.7064 3.24534 20.3062 3.31968 20.8896 3.34753C21.4728 3.37538 22.0397 3.35681 22.6019 3.35449C23.1644 3.35217 23.7217 3.3661 24.3026 3.41491C24.8837 3.46364 25.488 3.54735 26.0995 3.67515C26.711 3.80287 27.3294 3.97467 28.0041 4.16977C28.6787 4.36495 29.4097 4.58333 30.0912 4.78066C30.773 4.97808 31.4054 5.15461 32.0918 5.28009C32.7782 5.40557 33.5187 5.47991 34.0855 5.48919C34.6525 5.49839 35.0459 5.4427 35.3411 5.37067C35.6361 5.29865 35.833 5.21047 35.9986 5.11086C36.1642 5.01117 36.2987 4.9003 36.366 4.84478C36.433 4.78934 36.433 4.78934 36.433 4.78934" stroke="white" stroke-width="0.3501"/>
<path d="M29.1125 5.27125C28.6915 5.09146 28.2703 4.91157 27.7599 4.7194C27.2494 4.52731 26.6498 4.32285 26.0077 4.15792C25.366 3.993 24.6821 3.8676 24.0962 3.81423C23.5107 3.76077 23.0234 3.77934 22.5501 3.83976C22.0771 3.90017 21.6178 4.00236 21.2781 4.10455C20.9385 4.20674 20.7182 4.30893 20.5659 4.39496C20.4137 4.48082 20.3293 4.55052 20.2451 4.62022" stroke="white" stroke-width="0.3501"/>
<path d="M20.709 4.70428C21.1445 4.66242 21.5802 4.62065 22.0442 4.49982C22.5079 4.37906 23 4.17933 23.3708 4.05436C23.7417 3.9294 23.9914 3.87921 24.2411 3.8291" stroke="white" stroke-width="0.3501"/>
<path d="M20.5822 5.08008C20.5118 5.60967 20.4415 6.13926 20.4268 6.59383C20.4123 7.04839 20.4531 7.42783 20.4938 7.80728" stroke="white" stroke-width="0.3501"/>
<path d="M19.0252 7.10845C19.0102 7.3289 18.9952 7.54935 18.9855 7.66194C18.9755 7.77453 18.9709 7.77908 19.0317 7.83718C19.0926 7.89519 19.2193 8.00675 19.4253 8.12527C19.6314 8.2437 19.9172 8.36909 20.3318 8.48056C20.7465 8.59212 21.2901 8.68967 21.7913 8.74545C22.2926 8.80114 22.7519 8.81506 23.286 8.81738C23.82 8.8197 24.4291 8.81051 24.9704 8.77329C25.5112 8.73608 25.9845 8.6711 26.4273 8.58507C26.8701 8.49913 27.2823 8.39238 27.6197 8.25994C27.957 8.12759 28.2193 7.96954 28.3553 7.84878C28.4911 7.72794 28.5006 7.64441 28.5046 7.52701C28.5085 7.40969 28.507 7.25851 28.5056 7.10742" stroke="white" stroke-width="0.3501"/>
<path d="M19.032 7.8374C18.9634 8.99955 18.8946 10.1617 18.8508 11.1238C18.8072 12.0858 18.7883 12.8476 18.7719 13.4794C18.7555 14.1112 18.7414 14.613 18.7157 15.0056C18.6898 15.3981 18.6525 15.6814 18.587 15.9462C18.5213 16.211 18.4276 16.4572 18.3151 16.6361C18.2029 16.815 18.0715 16.9264 17.8935 17.0728C17.7155 17.2191 17.4906 17.4003 17.0995 17.593C16.7081 17.7859 16.1505 17.9902 15.5766 18.1669C15.0028 18.3434 14.4124 18.492 13.9416 18.6058C13.4707 18.7197 13.1192 18.7986 12.6483 18.931C12.1776 19.0634 11.5872 19.2493 11.0695 19.4049C10.5517 19.5605 10.1068 19.6859 9.75524 19.8021C9.40402 19.9182 9.14615 20.0251 8.9214 20.1551C8.69647 20.2852 8.50439 20.4386 8.34282 20.5825C8.18099 20.7266 8.04994 20.8612 7.91645 21.0332C7.7828 21.205 7.64688 21.4141 7.5368 21.6115C7.42672 21.809 7.3423 21.9948 7.27209 22.1899C7.20179 22.385 7.1458 22.5894 7.12448 22.8054C7.10359 23.0215 7.11754 23.2491 7.14103 23.4256C7.16426 23.6021 7.19729 23.7276 7.27443 23.9133C7.35175 24.0992 7.4737 24.3454 7.69837 24.6056C7.92339 24.8658 8.25129 25.1398 8.61447 25.379C8.97765 25.6183 9.37585 25.8228 9.87009 25.9668C10.3643 26.1108 10.9546 26.1944 12.1705 26.1618C13.3864 26.1293 15.2276 25.9807 17.5914 25.7623C19.9549 25.544 22.8409 25.2559 24.3168 25.0933C25.7927 24.9308 25.8583 24.8937 25.9896 24.9494C26.1207 25.0052 26.3175 25.1538 26.643 25.3837C26.9689 25.6137 27.4233 25.9249 27.7817 26.1038C28.1401 26.2826 28.4025 26.3291 28.7022 26.3151C29.002 26.3012 29.3395 26.2269 29.6228 26.1247C29.9065 26.0225 30.1359 25.8925 30.4007 25.6741C30.6655 25.4558 30.9653 25.1491 31.1879 24.8355C31.4104 24.522 31.5555 24.2015 31.6516 23.8391C31.7475 23.4767 31.7945 23.0725 31.7945 22.759C31.7945 22.4454 31.7475 22.2224 31.6539 22.0156C31.5603 21.809 31.4197 21.6185 31.2393 21.4443C31.0588 21.2701 30.8387 21.1121 30.6373 20.9541C30.4357 20.7963 30.2531 20.6383 30.0962 20.3712C29.9391 20.104 29.8079 19.7277 29.726 19.5117C29.644 19.2957 29.6111 19.24 29.3089 19.0216C29.0068 18.8033 28.4351 18.4224 28.1377 18.2388C27.8403 18.0553 27.8167 18.0693 27.7395 18.0809C27.6621 18.0925 27.5309 18.1018 27.4279 18.1505C27.3249 18.1994 27.2498 18.2876 27.0954 18.4966C26.9407 18.7057 26.7064 19.0356 26.4838 19.2841C26.2612 19.5327 26.0504 19.6999 25.8278 19.8834C25.6054 20.0668 25.3712 20.2667 25.1509 20.5431C24.9307 20.8195 24.7246 21.1725 24.5932 21.4745C24.4622 21.7765 24.406 22.0273 24.3848 22.241C24.3639 22.4547 24.3779 22.6312 24.4084 22.8193C24.4387 23.0075 24.4857 23.2073 24.5371 23.3699C24.5886 23.5325 24.6448 23.6579 24.7223 23.781C24.7994 23.9041 24.8978 24.025 25.0173 24.148C25.137 24.2711 25.2775 24.3965 25.4343 24.5243C25.5914 24.6521 25.7645 24.7821 25.9381 24.9122" stroke="white" stroke-width="0.3501"/>
<path d="M27.2737 18.1348C27.8977 18.5433 28.5217 18.952 28.8338 19.1562C29.1458 19.3605 29.1458 19.3605 29.1458 19.4604C29.1458 19.5603 29.1458 19.7602 29.078 20.0318C29.0099 20.3037 28.8741 20.6474 28.6398 20.9679C28.4055 21.2885 28.0728 21.5858 27.8152 21.8483C27.5575 22.1108 27.3748 22.3383 27.2225 22.5915C27.0702 22.8447 26.9484 23.1235 26.8805 23.4835C26.8125 23.8436 26.7985 24.2849 26.8125 24.5752C26.8266 24.8656 26.8688 25.0049 26.9428 25.1793C27.0168 25.3536 27.1227 25.563 27.2286 25.7723" stroke="white" stroke-width="0.3501"/>
<path d="M28.8212 22.952C28.8986 22.8799 29.0156 22.7871 29.161 22.7289C29.306 22.6709 29.4796 22.6477 29.6225 22.6941C29.7653 22.7406 29.8778 22.8567 29.941 23.0217C30.0043 23.1866 30.0184 23.4003 29.9481 23.6001C29.8778 23.7998 29.7231 23.9857 29.5475 24.1041C29.3718 24.2226 29.1751 24.2737 29.0156 24.2365C28.8564 24.1994 28.7347 24.074 28.6619 23.9368C28.5892 23.7998 28.5659 23.6512 28.5752 23.5141C28.5847 23.377 28.6269 23.2516 28.6668 23.1634C28.7065 23.0751 28.7439 23.0241 28.8212 22.952Z" stroke="white" stroke-width="0.3501"/>
<path d="M31.8548 22.5148C32.6655 22.1524 33.4759 21.7901 34.2467 21.4207C35.0173 21.0514 35.7483 20.6751 36.2823 20.3407C36.8165 20.0062 37.1538 19.7135 37.4138 19.3953C37.6737 19.0771 37.8565 18.7333 37.9807 18.4127C38.1048 18.0922 38.1704 17.7949 38.1776 17.5602C38.1844 17.3257 38.133 17.1538 37.9996 16.9493C37.8658 16.745 37.6503 16.508 37.3389 16.2387C37.0272 15.9691 36.6197 15.6672 36.3176 15.4604C36.0153 15.2537 35.8185 15.1423 35.5513 15.0749C35.2845 15.0075 34.947 14.9843 33.8155 15.054C32.684 15.1237 30.7586 15.2862 28.833 15.4488" stroke="white" stroke-width="0.3501"/>
<path d="M28.6934 15.2822C28.8244 15.8397 28.9556 16.3971 29.0727 16.7456C29.1899 17.094 29.2928 17.2333 29.5272 17.3053C29.7613 17.3774 30.127 17.382 30.7921 17.2868C31.4574 17.1915 32.4226 16.9965 33.4041 16.8129C34.3859 16.6294 35.3836 16.4575 36.077 16.4413C36.7705 16.425 37.1596 16.5644 37.4218 16.7014C37.6842 16.8384 37.8201 16.9732 37.925 17.116C38.0301 17.2589 38.1043 17.4099 38.1785 17.5608" stroke="white" stroke-width="0.3501"/>
<path d="M28.4707 7.70654C28.5167 8.02961 28.5625 8.35268 28.5996 9.61521C28.6365 10.8778 28.6646 13.0798 28.6928 15.2818" stroke="white" stroke-width="0.3501"/>
<path d="M28.6377 11.3789C28.8997 11.1932 29.1617 11.0076 29.5314 10.8288C29.9014 10.6501 30.3792 10.4782 30.7987 10.3713C31.2181 10.2644 31.5786 10.2227 31.8927 10.2227C32.2066 10.2227 32.4737 10.2644 32.7079 10.3202C32.9422 10.376 33.1436 10.4456 33.4224 10.5688C33.7011 10.6918 34.0572 10.8684 34.3523 11.0659C34.6475 11.2633 34.8818 11.4816 35.0808 11.6976C35.28 11.9137 35.444 12.1274 35.5939 12.3898C35.7438 12.6523 35.8797 12.9635 35.9828 13.2818C36.0858 13.6 36.1561 13.9252 36.2123 14.2388C36.2686 14.5523 36.3107 14.8543 36.326 15.056C36.3412 15.2577 36.3296 15.3592 36.3237 15.4098C36.3179 15.4605 36.3179 15.4605 36.3179 15.4605" stroke="white" stroke-width="0.3501"/>
<path d="M28.6592 12.7739C28.8672 12.5415 29.075 12.309 29.3475 12.0556C29.6201 11.8025 29.9575 11.5284 30.3698 11.3146C30.7821 11.101 31.2695 10.9476 31.6982 10.871C32.1268 10.7943 32.4969 10.7943 32.8718 10.8385C33.2464 10.8826 33.626 10.9708 33.9118 11.0685C34.1977 11.166 34.3898 11.2729 34.5689 11.3793C34.7481 11.4857 34.9144 11.5918 35.0272 11.6789C35.1398 11.7659 35.199 11.8339 35.2582 11.9019" stroke="white" stroke-width="0.3501"/>
<path d="M30.7471 15.2885C30.91 15.0587 31.073 14.829 31.2859 14.5886C31.4984 14.3482 31.7608 14.0973 32.0022 13.9162C32.2433 13.735 32.4636 13.6235 32.6978 13.5608C32.9321 13.4981 33.1803 13.4841 33.4499 13.5144C33.7192 13.5445 34.0096 13.6188 34.2439 13.7234C34.4781 13.828 34.6562 13.9627 34.8016 14.0811C34.9467 14.1995 35.0592 14.3017 35.1669 14.4155C35.2747 14.5294 35.3778 14.6548 35.5078 14.7929C35.6378 14.9309 35.7949 15.0815 35.8992 15.1717C36.0032 15.262 36.0545 15.2919 36.1059 15.3217" stroke="white" stroke-width="0.3501"/>
<path d="M35.168 14.4152C34.9634 14.351 34.7589 14.2868 34.4927 14.1873C34.2262 14.0878 33.8983 13.9531 33.7251 13.8881C33.5516 13.823 33.533 13.8276 33.1746 14.0135C32.8161 14.1993 32.1179 14.5663 31.769 14.7498C31.4199 14.9332 31.4199 14.9332 31.4039 14.9846C31.3879 15.0359 31.3559 15.1383 31.3403 15.1896C31.3242 15.2409 31.3242 15.2409 31.3242 15.2409" stroke="white" stroke-width="0.3501"/>
<path d="M33.5859 15.0687C33.8196 14.926 34.0533 14.7832 34.2605 14.6561C34.4675 14.529 34.648 14.4176 34.8286 14.3062" stroke="white" stroke-width="0.3501"/>
<path d="M33.9883 14.8225C34.2233 14.7713 34.4588 14.7199 34.6513 14.7035C34.8439 14.6872 34.9937 14.7057 35.1292 14.7265C35.265 14.7471 35.3866 14.7699 35.4789 14.8136C35.5715 14.8573 35.6354 14.9219 35.6991 14.9864" stroke="white" stroke-width="0.3501"/>
<path d="M13.1712 18.7922C13.0601 18.3654 12.9491 17.9386 12.7904 17.5626C12.6317 17.1867 12.4257 16.8614 12.2336 16.599C12.0413 16.3365 11.8633 16.1368 11.6104 15.8975C11.3573 15.6583 11.0294 15.3795 10.7156 15.1588C10.4015 14.9382 10.1016 14.7756 9.74086 14.6292C9.3801 14.483 8.95842 14.3528 8.54141 14.2762C8.12457 14.1995 7.71216 14.1763 7.28128 14.2018C6.85015 14.2275 6.40046 14.3017 6.00677 14.4062C5.61334 14.5108 5.2759 14.6456 4.94323 14.8081C4.61056 14.9707 4.28265 15.1612 3.98284 15.3679C3.6831 15.5746 3.41111 15.7977 3.16069 16.0415C2.90994 16.2854 2.68032 16.5502 2.46242 16.8313C2.24459 17.1124 2.03847 17.4096 1.86737 17.6953C1.69653 17.9811 1.56062 18.2552 1.4365 18.5362C1.31211 18.8173 1.19986 19.1053 1.12003 19.4793C1.04046 19.8532 0.993744 20.3132 1.00068 20.7475C1.00779 21.1819 1.06855 21.5907 1.17178 21.9948C1.27467 22.399 1.42011 22.7986 1.57691 23.1283C1.73389 23.4582 1.90265 23.7183 2.12281 23.9901C2.34306 24.2619 2.61471 24.5452 2.89355 24.7915C3.1724 25.0377 3.458 25.2468 3.73927 25.4186C4.02019 25.5905 4.2967 25.7253 4.64341 25.8506C4.99021 25.9761 5.40722 26.0922 5.76563 26.1666C6.12404 26.2409 6.42378 26.2734 6.70037 26.2734C6.97678 26.2734 7.22962 26.2409 7.4991 26.1828C7.76841 26.1247 8.05436 26.0412 8.28623 25.9691C8.51809 25.8971 8.69613 25.8367 8.82268 25.7876C8.94932 25.7385 9.02455 25.7007 9.06217 25.6818C9.0997 25.6629 9.0997 25.6629 9.09615 25.6609C9.09233 25.659 9.08497 25.6552 9.07734 25.6513" stroke="white" stroke-width="0.3501"/>
<path d="M3.93961 25.5354C3.66363 25.286 3.38747 25.0365 3.12995 24.7816C2.87226 24.5268 2.63337 24.2667 2.42249 23.9507C2.21151 23.6349 2.02906 23.2633 1.90251 22.8382C1.77596 22.4131 1.70557 21.9345 1.68919 21.4143C1.67281 20.894 1.71043 20.3318 1.82744 19.7906C1.94472 19.2495 2.1413 18.7291 2.3521 18.2901C2.56308 17.8511 2.78792 17.4933 3.11834 17.1148C3.44858 16.7362 3.88423 16.3367 4.29655 16.0277C4.70879 15.7188 5.09772 15.5004 5.47953 15.3216C5.86144 15.1428 6.23615 15.0034 6.73281 14.9128C7.22948 14.8223 7.84801 14.7804 8.33748 14.7874C8.82713 14.7943 9.18788 14.8501 9.57204 14.9825C9.95637 15.1149 10.3638 15.3239 10.6966 15.5121C11.0293 15.7002 11.2868 15.8674 11.5142 16.0695C11.7412 16.2716 11.9382 16.5085 12.1114 16.7595C12.285 17.0103 12.4348 17.2751 12.5793 17.5126C12.7238 17.7502 12.8631 17.9605 12.9547 18.1462C13.0464 18.3318 13.0906 18.4928 13.1351 18.6537" stroke="white" stroke-width="0.3501"/>
<path d="M11.0685 19.405C10.8991 19.1596 10.7295 18.9141 10.4645 18.7078C10.1994 18.5014 9.83853 18.3342 9.49658 18.2344C9.15473 18.1345 8.83124 18.1019 8.51496 18.1275C8.19875 18.1531 7.88957 18.2366 7.56869 18.3667C7.24764 18.4968 6.91497 18.6733 6.64574 18.8614C6.37618 19.0496 6.16997 19.2494 6.01317 19.4468C5.85619 19.6443 5.74845 19.8393 5.63352 20.0925C5.51876 20.3457 5.39697 20.6571 5.32217 20.952C5.24702 21.247 5.21894 21.5257 5.24468 21.8741C5.27042 22.2226 5.35034 22.6406 5.49067 22.9844C5.63126 23.3282 5.83288 23.5976 6.0273 23.8044C6.22154 24.0112 6.40903 24.1551 6.59183 24.2527C6.77446 24.3502 6.95258 24.4014 7.13071 24.4525" stroke="white" stroke-width="0.3501"/>
<path d="M8.13096 25.0218C7.96176 24.9991 7.79274 24.9765 7.43415 24.7027C7.07565 24.429 6.52724 23.9039 6.197 23.5834C5.86667 23.2629 5.75425 23.1467 5.69817 23.0887C5.642 23.0306 5.642 23.0306 5.57508 22.8264C5.50843 22.6224 5.37494 22.2143 5.30837 22.0101C5.24146 21.8061 5.24146 21.8061 5.49109 21.3388C5.74046 20.8716 6.23947 19.9372 6.73813 19.0029" stroke="white" stroke-width="0.3501"/>
<path d="M10.9211 19.4492C10.5387 19.1797 10.1564 18.9102 9.9206 18.7568C9.68492 18.6034 9.59608 18.5663 9.55153 18.5477C9.50689 18.5292 9.50689 18.5292 9.04559 18.6082C8.58402 18.6871 7.6609 18.845 7.1996 18.924C6.73796 19.0031 6.73796 19.0031 6.89961 19.1633C7.06135 19.3236 7.38457 19.6441 7.54614 19.8043C7.70788 19.9646 7.70788 19.9646 8.18817 19.8787C8.66828 19.7927 9.62876 19.6209 10.5893 19.449" stroke="white" stroke-width="0.3501"/>
<path d="M7.71718 19.9282C7.2876 20.8648 6.85829 21.8012 6.42871 22.7378" stroke="white" stroke-width="0.3501"/>
<path d="M7.42611 24.4384C7.42152 24.4337 7.41684 24.4292 7.2505 24.1457C7.08408 23.8623 6.75626 23.3002 6.39499 22.8752C6.0338 22.45 5.63942 22.162 5.24512 21.874" stroke="white" stroke-width="0.3501"/>
<path d="M22.5643 10.7383C22.4145 13.4142 22.2645 16.09 21.9366 17.623C21.6087 19.1561 21.1025 19.5463 19.4346 19.9829C17.7666 20.4195 14.9368 20.9027 13.0533 21.3116C11.1701 21.7203 10.2329 22.0548 9.62401 22.5008C9.01484 22.9468 8.73366 23.5043 8.62002 24.0024C8.50656 24.5007 8.5603 24.9397 8.66457 25.2046C8.7685 25.4696 8.92313 25.5603 9.07742 25.651" stroke="white" stroke-width="0.3501"/>
<path d="M20.7183 22.2523C21.5064 22.3278 22.1199 22.6497 22.0887 22.9716C22.0572 23.2933 21.3929 23.4929 20.6048 23.4175C19.8168 23.342 19.2033 23.02 19.2345 22.6983C19.266 22.3764 19.9302 22.1768 20.7183 22.2523Z" stroke="white" stroke-width="0.3501" stroke-dasharray="0.35 0.35 0.35 0.35"/>
<path d="M20.6618 22.5506C21.4498 22.6262 22.0633 22.9481 22.0321 23.2699C22.0006 23.5917 21.3364 23.7913 20.5484 23.7159C19.76 23.6404 19.1465 23.3184 19.1779 22.9966C19.2095 22.6748 19.8738 22.4752 20.6618 22.5506Z" stroke="white" stroke-width="0.3501" stroke-dasharray="0.35 0.35 0.35 0.35"/>
<path d="M20.5619 24.1494C21.3106 24.2212 21.8936 24.527 21.8637 24.8327C21.834 25.1384 21.203 25.328 20.4542 25.2564C19.7055 25.1847 19.1228 24.8788 19.1525 24.5731C19.1822 24.2674 19.8134 24.0778 20.5619 24.1494Z" stroke="white" stroke-width="0.3501" stroke-dasharray="0.35 0.35 0.35 0.35"/>
<path d="M19.2343 22.6987L19.1775 22.9968L19.1514 24.5918" stroke="white" stroke-width="0.3501" stroke-dasharray="0.35 0.35 0.35 0.35"/>
<path d="M22.0885 22.9722L21.9551 23.4327L21.8637 24.833L21.6924 25.846" stroke="white" stroke-width="0.3501" stroke-dasharray="0.35 0.35 0.35 0.35"/>
<path d="M19.1523 24.5732L19.1625 25.9016" stroke="white" stroke-width="0.3501" stroke-dasharray="0.35 0.35 0.35 0.35"/>
<path d="M20.869 25.4482C21.3603 25.568 21.6981 25.7964 21.676 26.0245C21.6479 26.3141 21.0499 26.4938 20.3406 26.4259C19.6314 26.358 19.0791 26.068 19.1075 25.7785C19.1134 25.7172 19.1448 25.661 19.1974 25.6109" stroke="white" stroke-width="0.3501"/>
<path d="M19.1434 26.7561C19.1281 26.8235 19.1211 26.9791 19.1222 27.0708C19.1235 27.1626 19.1328 27.1905 19.1866 27.2381C19.2405 27.2857 19.3389 27.3531 19.4443 27.4087C19.5499 27.4645 19.6624 27.5087 19.7968 27.5353C19.9316 27.5621 20.0886 27.5714 20.2303 27.5679C20.372 27.5644 20.4985 27.5482 20.6238 27.5203C20.7492 27.4925 20.8734 27.4529 20.9941 27.3995C21.1146 27.346 21.2318 27.2787 21.322 27.1997C21.4122 27.1207 21.4753 27.0302 21.5107 26.9779C21.5456 26.9257 21.5528 26.9117 21.5587 26.8467C21.5645 26.7816 21.569 26.6655 21.5714 26.6074C21.5738 26.5494 21.5738 26.5494 21.5587 26.5667C21.5433 26.5842 21.5129 26.619 21.465 26.6678C21.4169 26.7165 21.3512 26.7793 21.2352 26.8455C21.1192 26.9117 20.953 26.9813 20.8299 27.0255C20.7071 27.0696 20.6275 27.0883 20.5266 27.0999C20.4258 27.1115 20.304 27.1161 20.1857 27.1103C20.0674 27.1046 19.9526 27.0883 19.8322 27.0569C19.7113 27.0255 19.5849 26.9791 19.497 26.9361C19.4092 26.8931 19.36 26.8536 19.318 26.8199C19.2758 26.7863 19.2405 26.7584 19.2113 26.734C19.1822 26.7096 19.1586 26.6888 19.1434 26.7561Z" stroke="white" stroke-width="0.3501"/>
<path d="M19.1092 27.3935C19.0956 27.4611 19.0926 27.617 19.096 27.7088C19.0994 27.8004 19.1093 27.828 19.1644 27.8743C19.2193 27.9206 19.3195 27.9856 19.4263 28.0388C19.5329 28.092 19.6465 28.1334 19.7818 28.1569C19.9171 28.1803 20.0742 28.1858 20.2159 28.1789C20.3574 28.1721 20.4835 28.1527 20.6082 28.1218C20.7327 28.091 20.8557 28.0485 20.9751 27.9922C21.0944 27.9359 21.2098 27.8658 21.298 27.7846C21.3863 27.7035 21.4473 27.6114 21.4813 27.5583C21.5151 27.5052 21.5217 27.4911 21.5259 27.4259C21.5303 27.3608 21.5322 27.2446 21.5331 27.1865C21.534 27.1284 21.534 27.1284 21.5191 27.1462C21.5044 27.1639 21.4749 27.1994 21.4279 27.2494C21.3813 27.2993 21.317 27.3636 21.2028 27.4325C21.0884 27.5015 20.9239 27.5752 20.8022 27.6223C20.6801 27.6694 20.6009 27.6898 20.5006 27.7039C20.4002 27.718 20.2785 27.7255 20.1601 27.7226C20.0417 27.7196 19.9264 27.7061 19.805 27.6776C19.6838 27.6493 19.5563 27.6058 19.4672 27.565C19.3783 27.5241 19.3283 27.4858 19.2852 27.4532C19.2424 27.4206 19.2065 27.3935 19.1765 27.3698C19.1469 27.3462 19.1228 27.3259 19.1092 27.3935Z" stroke="white" stroke-width="0.3501"/>
<path d="M19.0768 28.0314C19.0651 28.0993 19.0656 28.2551 19.0713 28.3467C19.0768 28.4383 19.0875 28.4656 19.1437 28.5106C19.1999 28.5556 19.3014 28.6182 19.4094 28.6687C19.5176 28.7194 19.632 28.758 19.7679 28.7782C19.9037 28.7984 20.0608 28.8001 20.2025 28.7898C20.3437 28.7796 20.4692 28.7573 20.593 28.7234C20.717 28.6895 20.8389 28.6441 20.9567 28.5848C21.0746 28.5257 21.1884 28.4528 21.2748 28.3696C21.3608 28.2864 21.4195 28.1929 21.4522 28.1389C21.4848 28.0851 21.4911 28.0707 21.4936 28.0056C21.4964 27.9403 21.4954 27.8241 21.4949 27.766C21.4944 27.7079 21.4944 27.7079 21.4799 27.726C21.4655 27.7441 21.4368 27.7804 21.3913 27.8314C21.3458 27.8824 21.2834 27.9483 21.1707 28.0199C21.0581 28.0917 20.8955 28.1692 20.7747 28.2192C20.654 28.2693 20.5754 28.2917 20.4755 28.308C20.3752 28.3245 20.2539 28.3351 20.1356 28.3349C20.0171 28.3348 19.9014 28.3241 19.7796 28.2986C19.6574 28.2731 19.5288 28.2328 19.439 28.1941C19.3491 28.1554 19.298 28.1183 19.2543 28.0866C19.2106 28.0551 19.1741 28.029 19.1437 28.0059C19.1131 27.9831 19.0889 27.9633 19.0768 28.0314Z" stroke="white" stroke-width="0.3501"/>
<path d="M19.0753 28.6684C19.0651 28.7367 19.0695 28.8924 19.0775 28.9838C19.0854 29.0753 19.0966 29.1024 19.1539 29.146C19.2111 29.1896 19.3143 29.2497 19.4235 29.2976C19.5327 29.3457 19.648 29.3816 19.7843 29.3985C19.9207 29.4154 20.0779 29.4134 20.219 29.3996C20.3601 29.386 20.4851 29.3606 20.6079 29.3237C20.731 29.2869 20.8519 29.2386 20.9683 29.1766C21.0847 29.1146 21.1966 29.039 21.2809 28.9538C21.365 28.8684 21.4213 28.7734 21.4527 28.7189C21.4837 28.6642 21.4897 28.6499 21.4909 28.5845C21.492 28.5191 21.4881 28.4031 21.4862 28.3449C21.4842 28.2869 21.4842 28.2869 21.4702 28.3053C21.4565 28.3238 21.4285 28.3607 21.3843 28.4128C21.3401 28.465 21.2791 28.5323 21.1685 28.6067C21.0574 28.681 20.8968 28.7625 20.7773 28.8155C20.6579 28.8683 20.5798 28.8926 20.4803 28.9115C20.3807 28.9304 20.2596 28.9437 20.1412 28.9465C20.0226 28.9493 19.907 28.9413 19.7842 28.9188C19.6617 28.8962 19.5321 28.859 19.4414 28.8224C19.3508 28.7859 19.2987 28.7501 19.2542 28.7196C19.2096 28.689 19.1726 28.6637 19.1417 28.6415C19.1106 28.6193 19.0856 28.6002 19.0753 28.6684Z" stroke="white" stroke-width="0.3501"/>
<path d="M19.0759 29.3062C19.0673 29.3747 19.0754 29.5304 19.0856 29.6216C19.0958 29.7128 19.1079 29.7397 19.1662 29.7818C19.2244 29.8241 19.329 29.8816 19.4393 29.9269C19.5497 29.9723 19.6659 30.0054 19.8025 30.0191C19.9392 30.0327 20.0964 30.0269 20.2371 30.0098C20.3777 29.9927 20.5022 29.9643 20.6241 29.9245C20.7463 29.8847 20.866 29.8335 20.9807 29.7687C21.0955 29.7039 21.2055 29.6257 21.2875 29.5384C21.3696 29.4511 21.4238 29.3549 21.4535 29.2995C21.4834 29.2441 21.4892 29.2295 21.4887 29.1643C21.4881 29.0989 21.4814 28.9828 21.478 28.9249C21.4747 28.8669 21.4747 28.8669 21.4611 28.8856C21.4477 28.9045 21.4209 28.9421 21.3777 28.9952C21.3348 29.0484 21.2756 29.1171 21.1668 29.1942C21.0576 29.2712 20.899 29.3565 20.7811 29.4123C20.6628 29.468 20.5853 29.4942 20.4863 29.5154C20.3872 29.5368 20.2663 29.553 20.1481 29.5586C20.0299 29.5643 19.914 29.5591 19.7908 29.5394C19.6676 29.5199 19.5371 29.4858 19.4454 29.4515C19.3539 29.4171 19.301 29.3826 19.2558 29.353C19.2106 29.3236 19.1729 29.2993 19.1414 29.2778C19.1098 29.2563 19.0844 29.2378 19.0759 29.3062Z" stroke="white" stroke-width="0.3501"/>
<path d="M19.0772 29.9444C19.0703 30.0131 19.0824 30.1685 19.0947 30.2593C19.1072 30.3503 19.1198 30.3769 19.179 30.4176C19.2383 30.4584 19.3443 30.5134 19.4556 30.5561C19.5671 30.5988 19.6843 30.6292 19.8211 30.6395C19.9581 30.6498 20.1151 30.6402 20.2553 30.6198C20.3956 30.5993 20.5191 30.5679 20.6403 30.5251C20.7611 30.4826 20.8796 30.4284 20.9929 30.3609C21.1061 30.2933 21.2141 30.2125 21.2941 30.1232C21.3738 30.034 21.4256 29.9364 21.4542 29.8804C21.4825 29.8243 21.4878 29.8096 21.4857 29.7443C21.4836 29.679 21.474 29.5632 21.4692 29.5052C21.4644 29.4474 21.4644 29.4474 21.4516 29.4665C21.4386 29.4856 21.4126 29.5239 21.3709 29.578C21.3292 29.6322 21.2718 29.7024 21.1647 29.782C21.0576 29.8616 20.901 29.9508 20.7843 30.0094C20.6676 30.0679 20.5908 30.0959 20.4925 30.1196C20.3939 30.1432 20.2733 30.1624 20.1554 30.1709C20.0371 30.1794 19.9211 30.177 19.7976 30.1604C19.6741 30.1436 19.5427 30.1127 19.4502 30.0806C19.3579 30.0486 19.3042 30.0152 19.2582 29.9869C19.2124 29.9585 19.1741 29.935 19.1421 29.9143C19.1099 29.8936 19.084 29.8757 19.0772 29.9444Z" stroke="white" stroke-width="0.3501"/>
<path d="M19.0792 30.5822C19.0739 30.651 19.0898 30.806 19.1045 30.8966C19.1189 30.9873 19.1322 31.0135 19.1927 31.0528C19.2529 31.0921 19.3601 31.1447 19.4727 31.1846C19.5851 31.2246 19.7025 31.2521 19.8398 31.2591C19.977 31.2662 20.1337 31.2527 20.2733 31.229C20.413 31.2051 20.5358 31.1708 20.6557 31.1252C20.7758 31.0796 20.8928 31.0227 21.0044 30.9525C21.1158 30.8822 21.222 30.7987 21.2996 30.7076C21.3773 30.6164 21.4267 30.5177 21.4538 30.4609C21.4809 30.4041 21.4859 30.3893 21.482 30.3241C21.4782 30.2591 21.4659 30.1434 21.4597 30.0856C21.4535 30.0279 21.4535 30.0279 21.4411 30.0473C21.4287 30.0666 21.4033 30.1056 21.3631 30.1607C21.3229 30.2159 21.2671 30.2874 21.1619 30.3696C21.057 30.4517 20.9024 30.5447 20.7875 30.6059C20.672 30.6674 20.5959 30.6973 20.4981 30.7232C20.4 30.7492 20.2803 30.7714 20.1624 30.7825C20.0444 30.794 19.9285 30.7943 19.8045 30.7807C19.6807 30.7671 19.5488 30.7392 19.4555 30.7094C19.3623 30.6795 19.3076 30.6475 19.2612 30.6203C19.2146 30.593 19.1757 30.5705 19.1432 30.5505C19.1105 30.5306 19.0843 30.5133 19.0792 30.5822Z" stroke="white" stroke-width="0.3501"/>
<path d="M19.1449 31.2201C19.1415 31.2891 19.1611 31.4437 19.1779 31.5339C19.1947 31.6242 19.2086 31.6501 19.27 31.6879C19.3311 31.7258 19.4396 31.7757 19.553 31.8129C19.6664 31.8502 19.7846 31.8749 19.9219 31.8786C20.0595 31.8823 20.2158 31.8651 20.3549 31.838C20.4937 31.8107 20.6158 31.7735 20.7345 31.7251C20.8532 31.6767 20.9689 31.6169 21.0786 31.5439C21.1885 31.4711 21.2925 31.3851 21.3678 31.2921C21.4433 31.1992 21.4903 31.0992 21.516 31.0418C21.5417 30.9844 21.5461 30.9694 21.5408 30.9044C21.5354 30.8393 21.5204 30.7241 21.5126 30.6664C21.505 30.6089 21.505 30.6089 21.4932 30.6285C21.4812 30.6482 21.4569 30.6877 21.4181 30.7438C21.3789 30.8 21.325 30.8727 21.2221 30.9575C21.1189 31.0421 20.967 31.1387 20.8532 31.2029C20.7396 31.267 20.6644 31.2987 20.567 31.327C20.4697 31.3553 20.3505 31.3803 20.2328 31.3944C20.1153 31.4086 19.9994 31.4119 19.8749 31.4011C19.7507 31.3905 19.6182 31.3659 19.5242 31.3383C19.4305 31.3107 19.3752 31.28 19.3278 31.2538C19.2807 31.2278 19.2411 31.2061 19.2081 31.187C19.1751 31.1679 19.1484 31.1513 19.1449 31.2201Z" stroke="white" stroke-width="0.3501"/>
<path d="M19.2443 31.8583C19.2423 31.9272 19.2658 32.0813 19.2849 32.1712C19.3039 32.261 19.3184 32.2865 19.3805 32.3229C19.4427 32.3594 19.5522 32.4066 19.6667 32.4411C19.7808 32.4756 19.8999 32.4974 20.0372 32.4978C20.1745 32.4983 20.3303 32.4774 20.4688 32.4468C20.6071 32.4163 20.728 32.3761 20.8456 32.3247C20.9631 32.2734 21.0774 32.2109 21.1852 32.1354C21.2933 32.0599 21.3952 31.9714 21.4682 31.8767C21.5413 31.7819 21.5858 31.6809 21.6101 31.6228C21.6343 31.5649 21.6387 31.5499 21.6316 31.485C21.6247 31.42 21.6067 31.3052 21.5978 31.2478C21.5887 31.1903 21.5887 31.1903 21.5771 31.2103C21.5656 31.2303 21.5426 31.2704 21.5048 31.3273C21.4673 31.3844 21.4151 31.4586 21.3142 31.5457C21.2134 31.6329 21.0636 31.7331 20.9516 31.7999C20.8394 31.8667 20.765 31.9002 20.6684 31.9309C20.5718 31.9615 20.4532 31.9894 20.336 32.0064C20.2188 32.0233 20.103 32.0293 19.9785 32.0216C19.854 32.014 19.721 31.9926 19.6264 31.9672C19.5318 31.9419 19.4758 31.9125 19.4279 31.8875C19.38 31.8626 19.34 31.842 19.3067 31.8236C19.273 31.8053 19.2462 31.7893 19.2443 31.8583Z" stroke="white" stroke-width="0.3501"/>
<path d="M19.3428 32.4966C19.3428 32.5656 19.37 32.719 19.3912 32.8084C19.4122 32.8977 19.4276 32.9229 19.4906 32.9577C19.5534 32.9926 19.6643 33.0372 19.7794 33.069C19.8946 33.1008 20.014 33.1197 20.1512 33.1168C20.2885 33.1139 20.4438 33.0892 20.5815 33.0554C20.7192 33.0215 20.839 32.9785 20.9553 32.9243C21.0714 32.8702 21.184 32.8049 21.2901 32.7268C21.3963 32.6488 21.4958 32.5578 21.5666 32.4613C21.6374 32.3649 21.6794 32.2628 21.7023 32.2043C21.7251 32.1457 21.7289 32.1306 21.7206 32.0658C21.7119 32.0011 21.6911 31.8867 21.6807 31.8295C21.6703 31.7723 21.6703 31.7723 21.6592 31.7926C21.6483 31.8129 21.6261 31.8534 21.5898 31.9114C21.5538 31.9693 21.5034 32.0447 21.4046 32.1341C21.3059 32.2237 21.1587 32.3275 21.0484 32.397C20.9379 32.4666 20.8641 32.5018 20.7684 32.5348C20.6727 32.5678 20.5548 32.5985 20.4379 32.6182C20.3212 32.638 20.2056 32.6468 20.0809 32.6422C19.9563 32.6374 19.8228 32.6193 19.7275 32.5962C19.6324 32.5732 19.5757 32.5452 19.5271 32.5213C19.4786 32.4976 19.4383 32.4778 19.4043 32.4604C19.3704 32.4429 19.3429 32.4276 19.3428 32.4966Z" stroke="white" stroke-width="0.3501"/>
<path d="M19.4434 33.1344C19.4449 33.2033 19.4759 33.356 19.4991 33.4449C19.5225 33.5336 19.5385 33.5585 19.6025 33.5919C19.6662 33.6252 19.7781 33.6672 19.894 33.6961C20.0098 33.7251 20.1296 33.7412 20.2669 33.735C20.4041 33.7288 20.5586 33.7003 20.6953 33.6632C20.8321 33.6261 20.9508 33.5802 21.0658 33.5232C21.1807 33.4663 21.2917 33.3983 21.3958 33.3177C21.4999 33.2371 21.5973 33.1438 21.6657 33.0457C21.7341 32.9475 21.7735 32.8444 21.7949 32.7854C21.8166 32.7262 21.8199 32.7111 21.8097 32.6465C21.7996 32.582 21.7762 32.4681 21.7642 32.4112C21.7524 32.3543 21.7524 32.3543 21.7419 32.3749C21.7313 32.3954 21.7103 32.4365 21.6754 32.4953C21.6406 32.5541 21.5922 32.6306 21.4956 32.7225C21.3991 32.8144 21.2545 32.9217 21.1459 32.9938C21.0372 33.066 20.9643 33.103 20.8694 33.1383C20.7745 33.1736 20.6573 33.2071 20.5411 33.2297C20.425 33.2523 20.3097 33.2638 20.1849 33.2622C20.0602 33.2605 19.926 33.2455 19.8304 33.2248C19.7349 33.204 19.6773 33.1774 19.6283 33.1548C19.5792 33.1322 19.5385 33.1134 19.5041 33.0967C19.4696 33.0801 19.442 33.0654 19.4434 33.1344Z" stroke="white" stroke-width="0.3501"/>
<path d="M21.8574 25.3501C21.8726 25.85 21.888 26.3498 21.9191 26.6321C21.9502 26.9146 21.997 26.9797 22.1281 27.0609C22.2593 27.1423 22.4749 27.2398 22.7465 27.3095C23.0182 27.3792 23.3464 27.421 23.6953 27.4372C24.0444 27.4535 24.4144 27.4442 24.7962 27.4047C25.1782 27.3653 25.5717 27.2955 25.8811 27.2258C26.1901 27.1562 26.415 27.0865 26.5673 27.0052C26.7196 26.9239 26.7992 26.831 26.8462 26.7752C26.8929 26.7195 26.9069 26.701 26.9117 26.5059C26.9162 26.3109 26.9113 25.9395 26.9065 25.5681" stroke="white" stroke-width="0.3501"/>
<path d="M24.0886 25.8287C24.0871 25.683 24.0857 25.5372 24.0849 25.4528C24.0843 25.3683 24.0843 25.3451 24.0258 25.3358C23.9671 25.3264 23.85 25.3311 23.6135 25.3287C23.3769 25.3264 23.0208 25.3171 22.8169 25.3032C22.6131 25.2893 22.5616 25.2707 22.5362 25.3464C22.5107 25.422 22.5115 25.5917 22.5118 25.6766C22.5122 25.7616 22.5122 25.7616 22.5122 25.7616" stroke="white" stroke-width="0.3501"/>
<path d="M26.022 25.6489C25.6658 25.7466 25.3096 25.8441 24.9841 25.9324C24.6584 26.0206 24.3634 26.0996 24.0776 26.1832C23.7916 26.2668 23.5152 26.355 23.2997 26.4411C23.0843 26.527 22.9296 26.6106 22.8008 26.6988C22.672 26.7871 22.5689 26.8801 22.4658 26.9729" stroke="white" stroke-width="0.3501"/>
<path d="M19.2009 26.173C19.1857 26.2403 19.1787 26.3961 19.1798 26.4878C19.1809 26.5796 19.1905 26.6074 19.2443 26.655C19.2981 26.7026 19.3966 26.77 19.5019 26.8257C19.6075 26.8815 19.7197 26.9257 19.8544 26.9523C19.9893 26.979 20.1461 26.9883 20.288 26.9848C20.4297 26.9814 20.5561 26.9651 20.6813 26.9373C20.8066 26.9093 20.9309 26.8699 21.0515 26.8164C21.1723 26.7631 21.2893 26.6957 21.3794 26.6168C21.4696 26.5377 21.533 26.4471 21.5681 26.3949C21.6034 26.3426 21.6102 26.3286 21.6161 26.2636C21.6219 26.1986 21.6266 26.0825 21.629 26.0244C21.6314 25.9664 21.6314 25.9664 21.6161 25.9838C21.601 26.0012 21.5704 26.0361 21.5224 26.0848C21.4743 26.1336 21.4089 26.1963 21.2929 26.2625C21.177 26.3287 21.0106 26.3984 20.8875 26.4424C20.7646 26.4867 20.6849 26.5051 20.5843 26.5168C20.4835 26.5285 20.3617 26.5331 20.2434 26.5273C20.1251 26.5215 20.0102 26.5051 19.8896 26.4739C19.7691 26.4425 19.6425 26.3961 19.5548 26.353C19.467 26.3101 19.4175 26.2706 19.3754 26.2369C19.3332 26.2032 19.2981 26.1755 19.269 26.151C19.2395 26.1266 19.2161 26.1057 19.2009 26.173Z" stroke="white" stroke-width="0.3501"/>
</svg>
