<svg width="50" height="43" viewBox="0 0 50 43" fill="none" xmlns="http://www.w3.org/2000/svg">
<path d="M24.9551 11.0166C24.9552 11.0919 24.9596 11.1725 24.9699 11.2616C24.999 11.5133 25.0768 11.8321 25.2811 12.1097C25.4854 12.3874 25.8161 12.6239 26.4093 12.8861C27.0026 13.1483 27.8586 13.4362 28.7727 13.6007C29.687 13.7653 30.6596 13.8064 31.4815 13.7909C32.3034 13.7755 32.9744 13.7035 33.626 13.5441C34.2776 13.3848 34.9099 13.138 35.3963 12.8604C35.8824 12.5828 36.2229 12.2742 36.4126 12.0583C36.6022 11.8424 36.641 11.7191 36.6557 11.5957C36.6702 11.4722 36.6605 11.3489 36.6507 11.2255" stroke="white" stroke-width="0.3501"/>
<path d="M24.9712 11.2614C24.887 12.0924 24.8026 12.9235 24.7266 13.7453C24.6502 14.5671 24.5822 15.3794 24.4266 15.9706C24.2709 16.5618 24.0279 16.9319 23.4055 17.3176C22.7829 17.7032 21.7811 18.1041 20.4195 18.5154C19.0578 18.9268 17.3363 19.3484 16.2373 19.6054C15.1382 19.8625 14.6617 19.955 14.3359 20.0064C14.01 20.0578 13.8351 20.0681 13.4557 20.1606C13.0763 20.2532 12.4928 20.4279 12.0503 20.6336C11.6077 20.8393 11.3063 21.0758 11.0097 21.3483C10.713 21.6208 10.4212 21.9293 10.2364 22.2736C10.0516 22.6182 9.97387 22.9985 9.93496 23.4253C9.89597 23.852 9.89597 24.325 10.0029 24.6796C10.1099 25.0345 10.3239 25.2709 10.6886 25.5692C11.0534 25.8674 11.5688 26.2272 12.0551 26.5048C12.5414 26.7825 12.9984 26.9779 13.4023 27.1218C13.8059 27.2658 14.156 27.3584 14.866 27.3121C15.576 27.2658 16.6458 27.0807 18.1923 26.7773C19.7387 26.474 21.7617 26.0524 23.172 25.7954C24.5822 25.5383 25.3797 25.4457 26.114 25.4097C26.8484 25.3738 27.5194 25.3943 28.0641 25.4355C28.6088 25.4766 29.027 25.5383 29.4647 25.6617C29.9024 25.7851 30.3595 25.9702 31.9448 26.7671C32.2065 26.8986 32.499 27.0468 32.8132 27.2068M41.6324 31.4964C41.7453 31.5426 41.855 31.5872 41.9626 31.6305C42.867 31.9955 43.6258 32.2836 44.1995 32.4378C44.7734 32.592 45.1624 32.6125 45.6243 32.5817C46.0864 32.5509 46.6213 32.4686 47.1174 32.3194C47.6134 32.1704 48.0705 31.9545 48.3867 31.7437C48.7027 31.5329 48.8777 31.3273 48.9555 30.9828C49.0333 30.6384 49.0139 30.1551 48.868 29.6101C48.7221 29.0651 48.4499 28.4585 47.7544 27.6873C47.0591 26.9161 45.9405 25.9805 44.8608 25.1065C44.3765 24.7144 43.9002 24.3347 43.4578 23.9888M43.3924 17.7763C43.8916 17.474 44.3729 17.1225 44.7345 16.7572C45.1722 16.3151 45.4348 15.8523 45.5903 15.3587C45.746 14.8652 45.7946 14.3409 45.7315 13.9347C45.6681 13.5285 45.4931 13.2407 44.9387 12.8294C44.3844 12.418 43.4506 11.8833 42.8622 11.575C42.2738 11.2664 42.0307 11.1842 41.7486 11.1533C41.4665 11.1225 41.1455 11.1431 40.8636 11.2047C40.5815 11.2664 40.3383 11.3692 40.1048 11.5029C39.8715 11.6366 39.6478 11.8011 39.4679 11.9707C39.288 12.1404 39.1518 12.3152 39.0205 12.4592C38.8892 12.6031 38.7627 12.7163 38.5051 12.8602C38.2472 13.0042 37.8583 13.1789 37.5324 13.2972C37.2066 13.4154 36.9439 13.4771 36.6813 13.5388" stroke="white" stroke-width="0.3501"/>
<path d="M26.4389 18.6289C26.0206 18.958 25.6024 19.2869 24.7952 19.6107C23.9878 19.9347 22.7917 20.2535 21.362 20.6133C19.9321 20.9732 18.2692 21.3741 17.0533 21.693C15.8376 22.0117 15.0691 22.2483 14.5294 22.4848C13.9896 22.7213 13.6784 22.9577 13.4499 23.2457C13.2212 23.5336 13.0754 23.8729 12.9829 24.315C12.8905 24.7571 12.8517 25.3021 12.9051 25.7134C12.9586 26.1247 13.1046 26.4023 13.2855 26.639C13.4666 26.8757 13.6826 27.0714 13.9518 27.1768C14.2209 27.2822 14.543 27.2973 14.865 27.3124" stroke="white" stroke-width="0.3501"/>
<path d="M45.3477 32.5935C45.4545 31.5168 45.5612 30.44 45.3861 29.6549C45.2108 28.8697 44.7537 28.3762 43.3727 27.4302C43.1583 27.2835 42.9218 27.1256 42.6685 26.9599M34.5118 21.5522C34.3613 21.4368 34.219 21.3261 34.0844 21.2196C33.1993 20.5206 32.6353 20.0064 32.2266 19.5591C31.8181 19.1118 31.5652 18.7314 31.3951 18.0013C31.2249 17.2714 31.1373 16.1916 31.0984 15.4924C31.0596 14.7933 31.0693 14.4746 31.079 14.1558" stroke="white" stroke-width="0.3501"/>
<path d="M44.9378 12.8291C44.2569 12.973 43.5762 13.1169 42.8613 13.3535C42.1464 13.59 41.3975 13.9189 40.7605 14.2018C40.1234 14.4845 39.5983 14.7209 38.9709 14.9009C38.3435 15.0809 37.6141 15.2043 37.2105 15.158C36.8069 15.1117 36.729 14.8958 36.6755 14.5205C36.622 14.1452 36.5928 13.6106 36.5938 13.0964C36.5945 12.5823 36.6252 12.0888 36.6561 11.5952" stroke="white" stroke-width="0.3501"/>
<path d="M42.124 31.6953C42.1286 32.2546 42.1332 32.8138 42.1696 33.1242C42.2059 33.4348 42.2739 33.4964 42.4589 33.594C42.6436 33.6918 42.945 33.8255 43.2125 33.918C43.4801 34.0105 43.7134 34.062 43.9808 34.0979C44.2483 34.134 44.5499 34.1545 44.8952 34.1545C45.2404 34.1545 45.6294 34.134 46.0281 34.067C46.4269 34.0003 46.8353 33.8871 47.1758 33.7227C47.5162 33.5581 47.7886 33.3422 47.9539 33.188C48.1192 33.0338 48.1776 32.9412 48.1916 32.7352C48.2054 32.5292 48.1748 32.2099 48.1444 31.8905" stroke="white" stroke-width="0.3501"/>
<path d="M44.1534 34.1189C44.1478 33.9577 44.1421 33.7967 44.1515 33.7213C44.1608 33.6459 44.1852 33.6561 44.4332 33.6536C44.6811 33.6511 45.1529 33.6356 45.5248 33.6176C45.8969 33.5996 46.1692 33.5791 46.3053 33.5791C46.4415 33.5791 46.4415 33.5996 46.4415 33.6433C46.4415 33.687 46.4415 33.7538 46.4406 33.8143C46.4397 33.8747 46.4381 33.9287 46.4363 33.9827" stroke="white" stroke-width="0.3501"/>
<path d="M35.8824 29.4448C35.8608 29.6263 35.8416 29.803 35.8272 29.9709C35.7962 30.3299 35.7863 30.6486 35.8253 30.9313C35.8642 31.2141 35.9517 31.4609 36.0563 31.6537C36.1608 31.8465 36.2824 31.9853 36.4525 32.1138C36.6227 32.2424 36.8416 32.3606 37.2136 32.466C37.5856 32.5715 38.1108 32.6639 38.5729 32.6896C39.0349 32.7154 39.4335 32.6743 39.7983 32.5971C40.163 32.52 40.4937 32.4069 40.7295 32.2784C40.9653 32.1498 41.1065 32.0059 41.1842 31.8722C41.262 31.7385 41.2766 31.6151 41.2913 31.4917" stroke="white" stroke-width="0.3501"/>
<path d="M38.2212 30.6919C38.2255 30.8756 38.2277 31.051 38.2259 31.2092C38.2224 31.5225 38.2027 31.7693 38.1712 31.9646C38.1395 32.16 38.0957 32.3039 38.0466 32.4032C37.9972 32.5027 37.9424 32.5575 37.8877 32.6122" stroke="white" stroke-width="0.3501"/>
<path d="M38.3528 30.7231C38.3353 30.8369 38.3178 30.9511 38.3006 31.0662C38.2566 31.3615 38.2135 31.6631 38.2816 31.8944C38.3497 32.1259 38.5289 32.2869 38.6982 32.4069C38.8678 32.5269 39.0276 32.6057 39.2206 32.6279C39.4135 32.6504 39.6396 32.6163 39.8965 32.5486C40.1532 32.4809 40.441 32.3796 40.6605 32.2613C40.8801 32.1429 41.0317 32.0076 41.0936 31.8635C41.1556 31.7197 41.128 31.5671 41.1005 31.4147" stroke="white" stroke-width="0.3501"/>
<path d="M36.841 32.4786C36.8313 33.399 36.8216 34.3191 36.8265 34.8024C36.8313 35.2856 36.8509 35.332 36.9554 35.4065C37.0599 35.481 37.2496 35.5839 37.4781 35.6559C37.7067 35.7278 37.9742 35.7689 38.2976 35.7766C38.621 35.7844 39.0003 35.7586 39.2653 35.6995C39.5303 35.6404 39.6812 35.5479 39.8367 35.445C39.9923 35.3423 40.1528 35.2291 40.25 35.1315C40.3474 35.0337 40.3813 34.9515 40.4039 34.4999C40.4265 34.0485 40.4376 33.2275 40.4486 32.4067" stroke="white" stroke-width="0.3501"/>
<path d="M37.0083 35.5782C36.9792 35.5961 36.896 35.7185 36.8571 35.9107C36.8178 36.1031 36.8226 36.3653 36.8471 36.5144C36.8713 36.6635 36.9151 36.6995 37.0075 36.7534C37.0998 36.8074 37.241 36.8794 37.3917 36.9308C37.5423 36.9822 37.703 37.0131 37.8708 37.0336C38.0385 37.0542 38.2136 37.0645 38.4153 37.0542C38.6171 37.0438 38.8457 37.0131 39.0183 36.977C39.1909 36.9411 39.3077 36.9 39.4439 36.846C39.58 36.792 39.7357 36.7252 39.8475 36.6532C39.9593 36.5813 40.0274 36.5041 40.0956 36.4192C40.1636 36.3345 40.2316 36.2419 40.2657 36.0876C40.2997 35.9334 40.2997 35.7175 40.2949 35.6172C40.29 35.5169 40.2803 35.5325 40.222 35.6019C40.1636 35.6712 40.0567 35.7946 39.9253 35.9102C39.7941 36.0259 39.6384 36.134 39.4633 36.2136C39.2882 36.2934 39.0938 36.3447 38.8531 36.3704C38.6124 36.3961 38.3254 36.3961 38.0872 36.3781C37.8488 36.3601 37.6591 36.3242 37.5035 36.2804C37.348 36.2367 37.2263 36.1853 37.1413 36.139C37.0561 36.0928 37.0075 36.0517 36.9881 35.9848C36.9686 35.918 36.9784 35.8254 36.9955 35.736C37.0128 35.6465 37.0375 35.5602 37.0083 35.5782Z" stroke="white" stroke-width="0.3501"/>
<path d="M36.935 36.8135C36.9059 36.8315 36.8227 36.9539 36.7838 37.1461C36.7445 37.3384 36.7494 37.6006 36.7738 37.7497C36.798 37.8988 36.8418 37.9348 36.9342 37.9888C37.0266 38.0428 37.1676 38.1147 37.3184 38.1662C37.4691 38.2175 37.6297 38.2484 37.7975 38.2689C37.9652 38.2895 38.1403 38.2998 38.3421 38.2895C38.5439 38.2792 38.7724 38.2484 38.9451 38.2123C39.1177 38.1764 39.2345 38.1353 39.3706 38.0814C39.5067 38.0273 39.6624 37.9605 39.7742 37.8885C39.886 37.8166 39.9542 37.7395 40.0223 37.6546C40.0904 37.5698 40.1584 37.4772 40.1925 37.323C40.2264 37.1688 40.2264 36.9529 40.2216 36.8526C40.2167 36.7523 40.207 36.7678 40.1487 36.8372C40.0904 36.9065 39.9834 37.0299 39.8521 37.1456C39.7208 37.2613 39.5651 37.3693 39.3901 37.449C39.2149 37.5287 39.0205 37.5801 38.7798 37.6058C38.5391 37.6314 38.252 37.6314 38.0139 37.6134C37.7755 37.5955 37.5859 37.5596 37.4302 37.5157C37.2747 37.4721 37.153 37.4206 37.068 37.3743C36.9829 37.3282 36.9342 37.2871 36.9148 37.2201C36.8953 37.1534 36.9051 37.0608 36.9222 36.9713C36.9395 36.8819 36.9642 36.7955 36.935 36.8135Z" stroke="white" stroke-width="0.3501"/>
<path d="M36.8637 38.0494C36.8345 38.0673 36.7514 38.1897 36.7124 38.382C36.6733 38.5742 36.6781 38.8365 36.7025 38.9855C36.7267 39.1347 36.7706 39.1706 36.863 39.2247C36.9554 39.2786 37.0963 39.3505 37.2471 39.402C37.3978 39.4533 37.5584 39.4842 37.7262 39.5049C37.8939 39.5254 38.069 39.5357 38.2708 39.5254C38.4726 39.5151 38.7012 39.4842 38.8738 39.4482C39.0464 39.4122 39.1632 39.3712 39.2994 39.3172C39.4355 39.2632 39.5911 39.1964 39.703 39.1244C39.8147 39.0524 39.883 38.9753 39.951 38.8904C40.0191 38.8056 40.0871 38.713 40.1212 38.5589C40.1552 38.4046 40.1552 38.1887 40.1503 38.0885C40.1455 37.9881 40.1357 38.0036 40.0773 38.073C40.0191 38.1424 39.9121 38.2658 39.7808 38.3815C39.6494 38.4972 39.4938 38.6052 39.3188 38.6848C39.1437 38.7645 38.9492 38.8159 38.7085 38.8416C38.4677 38.8673 38.1808 38.8673 37.9426 38.8493C37.7042 38.8314 37.5146 38.7954 37.3589 38.7516C37.2034 38.7079 37.0817 38.6565 36.9967 38.6103C36.9116 38.5641 36.863 38.5229 36.8436 38.456C36.8241 38.3892 36.8338 38.2967 36.851 38.2073C36.8682 38.1177 36.893 38.0314 36.8637 38.0494Z" stroke="white" stroke-width="0.3501"/>
<path d="M36.7914 39.2847C36.7622 39.3027 36.6791 39.425 36.6401 39.6173C36.6011 39.8096 36.6058 40.0718 36.6301 40.2209C36.6545 40.3701 36.6983 40.406 36.7907 40.46C36.8831 40.514 37.0241 40.5858 37.1749 40.6373C37.3256 40.6887 37.4861 40.7195 37.6539 40.7402C37.8216 40.7607 37.9966 40.771 38.1985 40.7607C38.4003 40.7505 38.6289 40.7196 38.8015 40.6836C38.9742 40.6476 39.0909 40.6065 39.2271 40.5525C39.3632 40.4985 39.5188 40.4317 39.6307 40.3598C39.7424 40.2878 39.8106 40.2106 39.8787 40.1258C39.9468 40.0409 40.0149 39.9484 40.0489 39.7942C40.0829 39.6399 40.0829 39.4241 40.0781 39.3238C40.0732 39.2235 40.0635 39.2389 40.0051 39.3084C39.9468 39.3778 39.8398 39.5012 39.7084 39.6168C39.5772 39.7325 39.4215 39.8405 39.2465 39.9201C39.0714 39.9998 38.8769 40.0512 38.6362 40.0769C38.3954 40.1027 38.1085 40.1027 37.8703 40.0847C37.6319 40.0667 37.4424 40.0307 37.2867 39.987C37.1311 39.9432 37.0094 39.8919 36.9244 39.8456C36.8393 39.7994 36.7907 39.7582 36.7713 39.6914C36.7517 39.6245 36.7616 39.532 36.7787 39.4426C36.7959 39.3531 36.8207 39.2667 36.7914 39.2847Z" stroke="white" stroke-width="0.3501"/>
<path d="M36.7191 40.5201C36.69 40.538 36.6069 40.6604 36.5679 40.8526C36.5288 41.0449 36.5336 41.3072 36.5579 41.4562C36.5822 41.6054 36.626 41.6414 36.7184 41.6953C36.8108 41.7494 36.9519 41.8213 37.1026 41.8727C37.2533 41.9241 37.4138 41.955 37.5816 41.9755C37.7494 41.996 37.9244 42.0064 38.1262 41.996C38.328 41.9858 38.5566 41.955 38.7293 41.9189C38.902 41.8829 39.0186 41.8419 39.1548 41.7879C39.2909 41.7339 39.4466 41.667 39.5584 41.5952C39.6702 41.5231 39.7383 41.4459 39.8065 41.3611C39.8745 41.2763 39.9426 41.1838 39.9766 41.0295C40.0107 40.8753 40.0107 40.6594 40.0058 40.5591C40.0009 40.4589 39.9913 40.4743 39.9328 40.5437C39.8745 40.6132 39.7675 40.7366 39.6362 40.8522C39.5049 40.9679 39.3493 41.0758 39.1743 41.1555C38.9991 41.2352 38.8047 41.2866 38.564 41.3122C38.3233 41.3381 38.0362 41.3381 37.798 41.32C37.5597 41.302 37.3699 41.266 37.2145 41.2224C37.0588 41.1786 36.9372 41.1273 36.8521 41.081C36.7671 41.0347 36.7184 40.9936 36.699 40.9268C36.6795 40.8599 36.6893 40.7673 36.7064 40.6779C36.7237 40.5884 36.7485 40.5022 36.7191 40.5201Z" stroke="white" stroke-width="0.3501"/>
<path d="M14.6775 19.9465C14.654 19.8106 14.6307 19.6744 14.3079 19.4213C13.9849 19.1682 13.3625 18.7981 12.7984 18.5719C12.2343 18.3456 11.7285 18.2634 11.3151 18.2223C10.9019 18.1811 10.5809 18.1811 10.3474 18.2223C10.1139 18.2634 9.96814 18.3456 9.66663 18.6181C9.36505 18.8907 8.90801 19.3533 8.58214 19.7853C8.25636 20.2171 8.06174 20.618 7.92082 21.0036C7.77965 21.3893 7.69218 21.7594 7.65327 22.1449C7.61436 22.5306 7.62411 22.9316 7.66789 23.3121C7.71167 23.6925 7.78957 24.0523 7.86738 24.3197C7.94511 24.5871 8.02283 24.7619 8.29526 24.9829C8.5676 25.204 9.03439 25.4712 9.36513 25.6512C9.69579 25.8312 9.89032 25.9237 10.1188 26.0111C10.3474 26.0985 10.61 26.1808 10.8974 26.238C11.1846 26.2953 11.4967 26.3275 11.8086 26.3598" stroke="white" stroke-width="0.3501"/>
<path d="M14.5462 19.6447C13.7788 19.4343 13.0114 19.2241 12.5547 19.1395C12.098 19.0549 11.9521 19.096 11.7964 19.204C11.641 19.312 11.4756 19.4867 11.0768 19.9443C10.6781 20.4018 10.0458 21.1423 9.71517 21.5843C9.38443 22.0265 9.35527 22.1705 9.34073 22.2424C9.3262 22.3145 9.3262 22.3145 9.3946 22.9028C9.46292 23.491 9.59948 24.6678 9.66789 25.2561C9.73629 25.8445 9.73629 25.8445 9.9298 25.91C10.1233 25.9756 10.5104 26.1067 10.7038 26.1723C10.8974 26.2378 10.8974 26.2378 10.9223 26.2423C10.9473 26.247 10.9973 26.2561 11.0472 26.2653" stroke="white" stroke-width="0.3501"/>
<path d="M10.3477 18.2222C10.9022 18.5175 11.4565 18.8127 12.011 19.1079" stroke="white" stroke-width="0.3501"/>
<path d="M7.80859 21.3486C8.31959 21.6466 8.83067 21.9447 9.34158 22.2427" stroke="white" stroke-width="0.3501"/>
<path d="M8.02441 24.6929C8.59543 25.0768 9.16628 25.4607 9.73722 25.8446" stroke="white" stroke-width="0.3501"/>
<path d="M15.146 19.8516C15.1417 19.0787 15.1374 18.306 15.0818 17.6471C15.0263 16.9883 14.9193 16.4433 14.7541 15.9188C14.5886 15.3944 14.3649 14.8906 14.0295 14.4279C13.6939 13.9652 13.2464 13.5437 12.8525 13.2095C12.4586 12.8754 12.1182 12.6285 11.6466 12.4229C11.1748 12.2172 10.5718 12.0528 10.0466 11.9705C9.52128 11.8882 9.07399 11.8882 8.63628 11.9294C8.19865 11.9705 7.77068 12.0528 7.40599 12.1504C7.04113 12.2481 6.73971 12.3612 6.37502 12.5822C6.01025 12.8033 5.58237 13.1324 5.12037 13.5179C4.65837 13.9036 4.16243 14.3456 3.7248 14.8392C3.287 15.3328 2.90769 15.8777 2.55753 16.4793C2.20738 17.0808 1.88647 17.7388 1.64337 18.4175C1.40019 19.0961 1.23482 19.7953 1.12785 20.5151C1.02088 21.2349 0.972221 21.9752 1.01609 22.659C1.05978 23.3427 1.19591 23.9699 1.52657 24.6434C1.85723 25.3169 2.38259 26.0367 2.97575 26.5971C3.569 27.1575 4.23041 27.5585 4.77996 27.8052C5.32944 28.052 5.76706 28.1447 6.17562 28.2012C6.58418 28.2577 6.9634 28.2783 7.37675 28.2423C7.79026 28.2063 8.23755 28.1137 8.69955 27.9698C9.16163 27.8258 9.63808 27.6305 10.0515 27.43C10.4648 27.2295 10.8148 27.0238 11.0541 26.84C11.2933 26.6562 11.4215 26.4942 11.5499 26.3322" stroke="white" stroke-width="0.3501"/>
<path d="M3.83206 27.278C3.44839 26.6621 3.06488 26.0462 2.76621 25.2806C2.46736 24.5151 2.25333 23.5999 2.21443 22.5664C2.17552 21.5332 2.31173 20.3815 2.67164 19.2351C3.03145 18.0885 3.61504 16.9473 4.1451 16.1555C4.67525 15.3637 5.15179 14.9217 5.70613 14.464C6.26048 14.0065 6.89272 13.5336 7.4811 13.2148C8.06948 12.8959 8.61425 12.7315 9.17834 12.6543C9.74235 12.5772 10.326 12.5875 10.8457 12.6209C11.3656 12.6545 11.8216 12.711 12.2828 12.9439C12.7438 13.177 13.2098 13.5863 13.6758 13.9955" stroke="white" stroke-width="0.3501"/>
<path d="M36.6631 11.41C37.2016 10.7672 37.7401 10.1243 38.1504 9.74632C38.5607 9.36836 38.8427 9.25518 39.3387 9.30662C39.8348 9.35806 40.5448 9.57393 41.0312 9.74361C41.5174 9.91329 41.7799 10.0366 42.0425 10.2012C42.3051 10.3657 42.5677 10.5713 42.7282 10.741C42.8887 10.9107 42.9471 11.0444 42.9949 11.2001C43.0429 11.3559 43.0804 11.5336 43.1178 11.7114" stroke="white" stroke-width="0.3501"/>
<path d="M36.6807 13.5389C37.1964 13.3602 37.712 13.1817 38.1254 13.0234C38.5388 12.8652 38.85 12.7274 39.081 12.5839C39.3121 12.4405 39.4628 12.2914 39.5648 12.1461C39.6668 12.0009 39.72 11.8594 39.8195 11.7431C39.9188 11.6269 40.0645 11.536 40.2461 11.4505C40.4278 11.3649 40.6454 11.2848 40.8277 11.2348C41.0098 11.1847 41.1568 11.1646 41.3042 11.1561C41.4517 11.1474 41.5999 11.1505 41.748 11.1534" stroke="white" stroke-width="0.3501"/>
<path d="M36.6367 11.9099C37.1231 12.188 37.6095 12.4658 37.8527 12.6048C38.0958 12.7439 38.0958 12.7439 38.1056 12.7053C38.1152 12.6666 38.1347 12.5896 38.468 12.24C38.8009 11.8903 39.4477 11.2683 39.8805 10.8698C40.3135 10.4714 40.5323 10.2967 40.6806 10.2041C40.8288 10.1115 40.9066 10.1013 41.0186 10.1038C41.1304 10.1064 41.2764 10.1218 41.5245 10.1917C41.7727 10.2615 42.1233 10.3857 42.4739 10.5101" stroke="white" stroke-width="0.3501"/>
<path d="M39.0322 9.29834C39.6356 9.57369 40.2388 9.84896 40.8423 10.1243" stroke="white" stroke-width="0.3501"/>
<path d="M38.085 12.7515C38.0871 12.8564 38.0892 12.9615 38.0913 13.0666" stroke="white" stroke-width="0.3501"/>
<path d="M42.4 10.4508C42.4037 9.87063 42.4075 9.29036 42.3777 8.80229C42.3481 8.31414 42.2849 7.91801 42.2217 7.52197" stroke="white" stroke-width="0.3501"/>
<path d="M41.8265 16.9644C41.705 17.0416 41.5834 17.1187 41.3888 17.1958C41.1943 17.2729 40.9267 17.3501 40.6083 17.3989C40.2899 17.4477 39.9203 17.4682 39.5336 17.453C39.147 17.4375 38.7433 17.386 38.3957 17.3192C38.048 17.2524 37.7562 17.1701 37.5349 17.0725C37.3137 16.9746 37.1629 16.8616 37.0632 16.7459C36.9635 16.6303 36.9149 16.512 36.8978 16.4092C36.8809 16.3064 36.8955 16.219 36.9611 16.1187C37.0267 16.0184 37.1435 15.9054 37.2893 15.8128C37.4352 15.7203 37.6103 15.6482 37.8169 15.5815C38.0237 15.5146 38.262 15.453 38.4758 15.4092C38.6899 15.3655 38.8795 15.3399 39.1106 15.3322C39.3415 15.3244 39.6139 15.3346 39.8692 15.3552C40.1245 15.3759 40.3627 15.4067 40.5913 15.4581C40.8198 15.5095 41.0388 15.5815 41.2332 15.6715C41.4277 15.7614 41.5979 15.8694 41.7268 15.9824C41.8556 16.0955 41.9432 16.2139 42.0186 16.309C42.0941 16.404 42.1572 16.476 42.3274 16.566C42.4976 16.6559 42.7749 16.7639 42.9693 16.8488C43.1639 16.9336 43.2756 16.9953 43.3802 17.0828C43.4849 17.1701 43.582 17.2832 43.6721 17.4477C43.7621 17.6122 43.8447 17.8281 43.8861 18.0775C43.9273 18.3267 43.9273 18.6097 43.7718 19.0466C43.616 19.4836 43.3048 20.0749 43.0106 20.5864C42.7165 21.098 42.4394 21.5298 42.1961 21.8716C41.9529 22.2135 41.7439 22.4656 41.615 22.6198C41.486 22.774 41.4375 22.8305 41.4181 22.9026C41.3986 22.9745 41.4084 23.0619 41.4229 23.1211C41.4375 23.1802 41.457 23.211 41.4495 23.2676C41.4424 23.3241 41.4084 23.4064 41.3792 23.4861C41.35 23.5657 41.3256 23.6429 41.294 23.7174C41.2624 23.7919 41.2235 23.8639 41.1699 23.9282C41.1165 23.9925 41.0484 24.049 40.8636 24.1081C40.6789 24.1672 40.3774 24.229 40.1147 24.2753C39.8521 24.3215 39.6285 24.3524 39.3973 24.3678C39.1664 24.3832 38.9283 24.3832 38.7141 24.3524C38.5002 24.3215 38.3106 24.2598 38.1209 24.1725C37.9312 24.085 37.7415 23.9719 37.5689 23.8357C37.3962 23.6994 37.2408 23.54 37.1458 23.3806C37.051 23.2213 37.017 23.0618 36.9951 22.9256C36.9732 22.7894 36.9635 22.6763 36.9198 22.5632C36.876 22.4501 36.7982 22.337 36.7471 22.2418C36.6961 22.1467 36.6717 22.0696 36.6936 21.0774C36.7155 20.0851 36.7835 18.1778 36.8175 17.2241C36.8517 16.2704 36.8517 16.2704 36.8517 16.2704" stroke="white" stroke-width="0.3501"/>
<path d="M36.7471 22.2417C36.9132 22.4363 37.0794 22.6307 37.3569 22.7897C37.6346 22.9486 38.0236 23.072 38.4442 23.1466C38.8648 23.2212 39.3173 23.2468 39.7111 23.2391C40.105 23.2315 40.4406 23.1903 40.7152 23.1286C40.99 23.0669 41.204 22.9846 41.418 22.9024" stroke="white" stroke-width="0.3501"/>
<path d="M37.5664 23.6574C37.8193 23.7447 38.0721 23.8322 38.3954 23.8734C38.719 23.9145 39.1128 23.9093 39.4921 23.8707C39.8714 23.8322 40.2361 23.7602 40.5481 23.6904C40.8602 23.6205 41.1196 23.5529 41.2493 23.5191C41.379 23.4852 41.379 23.4852 41.3857 23.4673C41.3924 23.4493 41.4055 23.4133 41.4189 23.3774" stroke="white" stroke-width="0.3501"/>
<path d="M41.8262 16.9644C42.0547 17.0363 42.2832 17.1083 42.5119 17.2085C42.7404 17.3088 42.9689 17.4374 43.1489 17.6225C43.3288 17.8075 43.4602 18.0491 43.5331 18.2856C43.606 18.5221 43.6206 18.7535 43.5922 19.0104C43.5636 19.2674 43.492 19.5499 43.3879 19.8169C43.2837 20.0837 43.1471 20.3351 42.942 20.6232C42.7371 20.9112 42.4641 21.2359 42.2765 21.4317C42.0889 21.6274 41.9867 21.6943 41.8845 21.7611" stroke="white" stroke-width="0.3501"/>
<path d="M42.1046 17.3804C42.0462 18.5886 41.9879 19.7967 41.9563 20.4678C41.9246 21.1386 41.9199 21.2723 41.9125 21.3983C41.9052 21.5243 41.8954 21.6426 41.8857 21.7607" stroke="white" stroke-width="0.3501"/>
<path d="M38.4955 16.3881C38.4615 16.311 38.4372 16.2134 38.4688 16.1285C38.5004 16.0437 38.588 15.9717 38.7143 15.9126C38.8408 15.8535 39.0062 15.8072 39.1788 15.7893C39.3515 15.7712 39.5314 15.7814 39.7065 15.8098C39.8815 15.838 40.0518 15.8843 40.1806 15.9434C40.3095 16.0026 40.397 16.0745 40.4408 16.1542C40.4845 16.2339 40.4845 16.3213 40.4554 16.401C40.4262 16.4807 40.3679 16.5527 40.2512 16.6144C40.1344 16.6761 39.9594 16.7275 39.7428 16.7506C39.5265 16.7737 39.2688 16.7686 39.0742 16.7352C38.8797 16.7017 38.7484 16.64 38.6609 16.5809C38.5734 16.5218 38.5296 16.4652 38.4955 16.3881Z" stroke="white" stroke-width="0.3501"/>
<path d="M38.457 16.2607C38.5912 16.4005 38.7254 16.5403 38.9272 16.5933C39.1287 16.6463 39.3979 16.6123 39.6103 16.5826C39.8227 16.5528 39.9784 16.5271 40.1096 16.4975C40.2409 16.4679 40.348 16.4346 40.4549 16.4011" stroke="white" stroke-width="0.3501"/>
<path d="M47.8925 5.26342C47.5132 4.81558 47.134 4.36765 46.6145 3.94061C46.0951 3.51347 45.4354 3.10731 44.6518 2.72258C43.8682 2.33784 42.9608 1.97452 41.6816 1.68434C40.4023 1.39407 38.7513 1.17684 37.3018 1.07126C35.8523 0.965673 34.6044 0.971729 33.4252 1.12785C32.2463 1.28388 31.1362 1.58997 30.1628 1.97932C29.1895 2.36857 28.353 2.84118 27.636 3.42226C26.919 4.00317 26.3217 4.69282 25.7979 5.39386C25.2739 6.09472 24.8235 6.80716 24.556 7.44818C24.2886 8.08919 24.2041 8.65889 24.2208 9.1455C24.2376 9.63203 24.3556 10.0357 24.5957 10.4698C24.8359 10.9039 25.1982 11.3685 25.6775 11.7682C26.1569 12.1677 26.7532 12.5021 27.4835 12.7634C28.2135 13.0246 29.0775 13.2127 29.9705 13.2719C30.8632 13.3307 31.7849 13.2606 32.5775 13.125C33.37 12.9894 34.0334 12.7882 34.6077 12.5491C35.182 12.3099 35.6673 12.0328 36.0814 11.6749C36.4955 11.317 36.8383 10.8785 37.0474 10.513C37.2565 10.1475 37.3318 9.85514 37.4013 9.24151C37.4709 8.62797 37.5346 7.69298 37.5982 6.75807" stroke="white" stroke-width="0.3501"/>
<path d="M29.5322 9.42874C30.0929 8.85922 30.6534 8.2898 31.5304 7.83627C32.4073 7.38256 33.6005 7.04483 34.8127 6.88121C36.0248 6.71767 37.2558 6.72843 38.4912 6.8521C39.7267 6.97585 40.9667 7.21261 41.929 7.40434C42.8913 7.59608 43.5761 7.7428 44.2063 7.80083C44.8364 7.85878 45.4121 7.82804 45.9662 7.70094C46.5204 7.57384 47.0533 7.35047 47.3901 7.09391C47.727 6.83727 47.8678 6.54745 47.919 6.23702C47.9703 5.92641 47.9322 5.5951 47.9129 5.42958C47.8938 5.26388 47.8938 5.26388 47.7554 5.47577C47.617 5.68767 47.3404 6.11137 46.8959 6.39884C46.4513 6.68612 45.8387 6.837 44.7229 6.8219C43.607 6.80672 41.9876 6.62538 40.6391 6.44548C39.2904 6.2655 38.2127 6.08687 37.2142 5.99792C36.2157 5.90897 35.2963 5.90969 34.3316 6.03896C33.3667 6.16832 32.3568 6.42605 31.5868 6.6233C30.8169 6.82046 30.2869 6.95714 29.757 7.09382" stroke="white" stroke-width="0.3501"/>
<path d="M36.1305 7.97035C36.3016 8.01139 36.4695 8.14771 36.5837 8.29949C36.6976 8.45127 36.7577 8.61833 36.7762 8.80139C36.7948 8.98426 36.7718 9.18296 36.7078 9.38455C36.6437 9.58614 36.5383 9.79044 36.3999 10.0068C36.2614 10.2229 36.0897 10.4509 35.9077 10.6178C35.7258 10.7846 35.5334 10.8903 35.3649 10.8971C35.1965 10.9039 35.0516 10.8118 34.9328 10.6816C34.814 10.5512 34.721 10.383 34.6957 10.1565C34.6702 9.92983 34.7126 9.64499 34.8125 9.35363C34.9124 9.06228 35.0701 8.76432 35.2128 8.54393C35.3554 8.32363 35.4833 8.18071 35.6344 8.08217C35.7854 7.98364 35.9595 7.92931 36.1305 7.97035Z" stroke="white" stroke-width="0.3501"/>
<path d="M31.2888 9.12842C31.267 9.78724 31.2454 10.446 31.2324 11.0877C31.2193 11.7295 31.2152 12.3541 31.2109 12.9789" stroke="white" stroke-width="0.3501"/>
<path d="M34.5117 21.5522C34.835 21.9369 35.1585 22.3216 35.4272 22.7042C35.6958 23.0868 35.9097 23.4673 36.2356 23.8477C36.5614 24.2281 36.9991 24.6085 37.5826 24.9582C38.1661 25.3078 38.8956 25.6264 39.4938 25.8579C40.092 26.0893 40.5588 26.2332 41.0661 26.4022C41.5733 26.5714 42.1209 26.7656 42.3947 26.8628C42.6685 26.9599 42.6685 26.9599 42.6685 26.9599" stroke="white" stroke-width="0.3501"/>
<path d="M32.8125 27.207C33.8379 27.9352 34.8631 28.6634 35.5706 29.2038C36.278 29.7442 36.6675 30.0966 37.1104 30.324C37.553 30.5513 38.0492 30.6535 38.8117 30.828C39.5742 31.0026 40.6029 31.2497 41.6317 31.4966" stroke="white" stroke-width="0.3501"/>
<path d="M43.4568 23.9886C43.2615 23.6279 43.0661 23.2671 42.7898 22.9258C42.5278 22.6025 42.1932 22.2965 42.0068 22.1284" stroke="white" stroke-width="0.3501"/>
<path d="M40.1838 35.2979C40.1769 35.4692 40.1701 35.6406 40.1631 35.8119M40.1344 36.5275C40.1278 36.6929 40.1212 36.8584 40.1145 37.0238M40.0858 37.7381C40.0792 37.9037 40.0726 38.0694 40.0659 38.235M40.0373 38.947C40.0307 39.1132 40.0239 39.2795 40.0173 39.4458M39.9888 40.1546C39.9821 40.3218 39.9753 40.4888 39.9688 40.656" stroke="white" stroke-width="0.3501"/>
</svg>
