<svg width="236" height="66" viewBox="0 0 236 66" fill="none" xmlns="http://www.w3.org/2000/svg">
<g clip-path="url(#clip0_514_772)">
<path d="M18.3359 8.06868L22.7399 0L42.1574 35.9011L43.0582 37.7143L43.5586 39.0742L44.2593 41.7033L44.5595 43.6978L44.6596 44.967V46.2363L44.5595 47.8681L44.2593 49.4093L43.8589 51.0412L43.3585 52.5824L42.6578 54.033L41.9572 55.3022L41.0564 56.6621L39.9554 58.022L39.3549 58.7473L38.0537 60.0165L36.8526 61.0137L35.1511 62.283L33.5496 63.2802L31.1475 64.3681L28.8454 65.0934L26.5433 65.5467L24.3413 65.8187L21.4387 65.9093L22.84 65.3654L24.2413 64.8214L25.5424 64.0962L26.6434 63.3709L27.8445 62.5549L29.0456 61.5577L30.1466 60.4698L31.1475 59.2912L32.1484 58.022L33.0492 56.6621L34.0501 54.6676L34.7507 53.0357L35.2512 51.2225L35.5514 50.1346L35.8517 48.5028L35.9518 47.0522V45.8736V44.8764L35.8517 43.5165L35.6515 42.0659L35.2512 40.3434L34.4504 38.9835L33.95 37.7143L33.1493 35.9918L31.9482 33.7253C27.8445 25.9286 23.6407 18.0412 19.537 10.2445L18.3359 8.06868Z" fill="white"/>
<path d="M7.326 26.654L12.4306 17.1348L14.8328 21.6677L24.3413 39.437L24.9418 40.6155L25.4423 42.1567L25.8427 43.6073L26.0428 44.9672L26.1429 46.4177V47.5963L26.0428 48.8655L25.6425 50.6787L25.142 51.948L24.4414 53.3985L23.7408 54.6677L22.6398 56.2089L21.3386 57.5688L19.9373 58.7474L18.1357 59.8353L16.1339 60.7419L14.8328 61.1045L13.6317 61.3765L12.4306 61.5578L11.2295 61.6485H9.92834L8.52708 61.4672L7.52618 61.1045L5.02393 58.8381L6.3251 58.7474L8.02663 58.4754L9.72816 57.9315L11.0293 57.2062L12.3305 56.2996L13.5316 55.2117L14.4324 54.0331L15.0329 53.1265L15.4333 52.3106L15.8337 51.404L16.234 50.3161L16.5343 48.9562L16.6344 47.687V46.5991L16.5343 45.4205L16.234 44.1512L15.9337 43.154L15.5334 42.1567C14.1321 39.5276 12.7309 36.8985 11.4297 34.36L9.42789 30.5523L7.326 26.654Z" fill="white"/>
<path d="M2.62188 35.2666L7.32611 44.6045L7.52629 45.3298V46.1457L7.4262 47.0523L7.22602 48.0496L6.52539 49.3188L5.82476 50.1347L5.02404 50.7693L4.12323 51.3133L3.22242 51.5853L2.22152 51.7666H1.52089H1.22062L0.620079 49.4095L0.319809 47.8682L0.119629 45.8737V44.4232L0.219719 43.5166L0.519989 41.5221L1.02044 39.165L1.32071 38.2584L1.82116 36.8985C1.82116 36.8078 2.62188 35.2666 2.62188 35.2666Z" fill="white"/>
<path d="M75.4874 35.7199H79.2908L79.7912 29.1924H77.9896V18.0413H73.4856V29.1924H67.8805V18.0413H63.3765V32.8188H75.4874V35.7199ZM81.8931 32.8188H95.105V29.3738H86.2971V27.0166H94.2042V23.7529H86.3972V21.4864H95.0049V18.0413H81.8931V32.8188ZM97.9075 32.8188H102.412V27.1979H108.217V32.8188H112.721V18.0413H108.217V23.5716H102.412V18.0413H97.9075V32.8188ZM120.027 32.8188H124.531V21.5771H129.436V17.9507H115.223V21.5771H120.128C120.027 21.5771 120.027 32.8188 120.027 32.8188ZM131.938 32.8188H136.442V28.5578H138.644C142.748 28.5578 145.65 26.7446 145.65 23.2089C145.65 19.8545 142.948 17.9507 138.844 17.9507H131.838L131.938 32.8188ZM136.442 25.3847V21.4864H138.544C140.146 21.4864 141.146 22.121 141.146 23.3902C141.146 24.5688 140.146 25.3847 138.544 25.3847H136.442Z" fill="white"/>
<path d="M70.3827 52.9453C73.9859 52.9453 76.0878 51.4947 77.5891 49.5909L74.1861 47.4151C73.1852 48.503 72.1843 49.2283 70.4828 49.2283C68.1807 49.2283 66.5792 47.5057 66.5792 45.2392C66.5792 43.0634 68.1807 41.2502 70.4828 41.2502C72.0842 41.2502 73.1852 41.8849 74.086 42.9728L77.389 40.6156C75.9877 38.8024 73.8858 37.5332 70.5828 37.5332C65.6784 37.5332 61.9751 40.8876 61.9751 45.2392C61.9751 49.6816 65.6784 52.9453 70.3827 52.9453ZM78.6901 52.6733H83.4945L84.6955 50.0442H91.0012L92.2023 52.6733H97.0066L90.1004 37.8052H85.6964L78.6901 52.6733ZM85.9967 46.7805L87.7983 42.6101L89.6 46.7805H85.9967ZM99.0084 52.6733H103.512V47.0524H109.318V52.6733H113.822V37.8052H109.318V43.3354H103.512V37.8052H99.0084V52.6733ZM121.228 52.6733H125.732V41.4316H130.637V37.8052H116.324V41.4316H121.228V52.6733ZM133.039 52.6733H146.251V49.2283H137.443V46.8711H145.25V43.6074H137.443V41.3409H146.051V37.8958H132.939L133.039 52.6733ZM147.952 52.6733H153.057L156.16 48.231L159.263 52.6733H164.467L158.862 45.1486L164.267 37.8958H159.163L156.26 42.0662L153.357 37.8958H148.153L153.558 45.1486L147.952 52.6733ZM166.669 52.6733H171.173V47.0524H176.979V52.6733H181.483V37.8052H176.979V43.3354H171.173V37.8052H166.669V52.6733ZM184.886 52.6733H189.089L195.395 44.3327V52.6733H199.899V37.8052H195.695L189.39 46.1458V37.8052H184.886V52.6733ZM203.202 52.6733H207.706V48.8656L209.408 47.2337L213.511 52.764H218.916L212.511 44.3327L218.716 37.9865H213.311L207.706 43.97V37.9865H203.202V52.6733ZM220.718 52.6733H224.922L231.227 44.3327V52.6733H235.731V37.8052H231.528L225.222 46.1458V37.8052H220.718V52.6733Z" fill="white"/>
<path d="M159.863 23.3899V18.6756H157.261V23.3899H156.26V18.041H160.864V23.3899H159.863ZM162.966 19.9449C163.166 19.7635 163.367 19.6729 163.567 19.6729C163.767 19.5822 163.967 19.5822 164.267 19.5822C164.568 19.5822 164.868 19.6729 165.068 19.7635C165.268 19.8542 165.469 20.0355 165.569 20.2168C165.669 20.3982 165.769 20.5795 165.869 20.8515C165.969 21.1234 165.969 21.3048 165.969 21.5767C165.969 21.8487 165.969 22.1207 165.869 22.3927C165.769 22.6646 165.669 22.846 165.569 23.0273C165.469 23.2086 165.268 23.3899 165.068 23.4806C164.868 23.5712 164.568 23.6619 164.267 23.6619C164.167 23.6619 164.067 23.6619 163.967 23.6619C163.867 23.6619 163.767 23.6619 163.667 23.6619C163.567 23.6619 163.467 23.6619 163.367 23.5712C163.267 23.5712 163.166 23.4806 163.066 23.4806V25.2938H162.166V19.7635H163.066L162.966 19.9449ZM163.867 22.846C163.967 22.846 164.167 22.846 164.267 22.7553C164.368 22.7553 164.468 22.6646 164.568 22.4833C164.668 22.302 164.768 22.2113 164.768 22.03C164.868 21.8487 164.868 21.5767 164.868 21.3048C164.868 21.0328 164.868 20.8515 164.768 20.6701C164.768 20.4888 164.668 20.3982 164.568 20.3075C164.468 20.2168 164.368 20.1262 164.267 20.1262C164.167 20.1262 164.067 20.0355 163.867 20.0355C163.767 20.0355 163.667 20.0355 163.567 20.0355C163.467 20.0355 163.367 20.1262 163.267 20.1262C163.166 20.1262 163.066 20.2168 162.966 20.2168C162.866 20.2168 162.866 20.3075 162.766 20.3075V22.3927C162.766 22.3927 162.866 22.4833 162.966 22.4833C163.066 22.4833 163.166 22.574 163.166 22.574C163.267 22.574 163.367 22.574 163.467 22.6646C163.767 22.846 163.867 22.846 163.867 22.846ZM170.673 21.4861C170.673 21.758 170.673 22.03 170.573 22.2113C170.473 22.4833 170.373 22.6646 170.273 22.846C170.073 23.0273 169.872 23.2086 169.672 23.2993C169.372 23.3899 169.072 23.4806 168.671 23.4806C168.271 23.4806 167.971 23.3899 167.771 23.2993C167.57 23.2086 167.27 23.0273 167.17 22.846C166.97 22.6646 166.87 22.4833 166.87 22.2113C166.77 21.9394 166.77 21.758 166.77 21.4861C166.77 21.2141 166.77 20.9421 166.87 20.7608C166.97 20.4888 167.07 20.3075 167.27 20.1262C167.47 19.9449 167.67 19.7635 167.871 19.6729C168.171 19.5822 168.471 19.4916 168.771 19.4916C169.172 19.4916 169.472 19.5822 169.672 19.6729C169.973 19.7635 170.173 19.9449 170.273 20.1262C170.473 20.3075 170.573 20.4888 170.573 20.7608C170.573 20.9421 170.673 21.2141 170.673 21.4861ZM169.672 21.4861C169.672 21.3048 169.672 21.1234 169.672 21.0328C169.672 20.8515 169.572 20.7608 169.572 20.5795C169.472 20.4888 169.372 20.3075 169.272 20.2168C169.172 20.1262 168.972 20.1262 168.771 20.1262C168.571 20.1262 168.371 20.1262 168.271 20.2168C168.171 20.3075 168.071 20.3982 167.971 20.5795C167.871 20.6701 167.871 20.8515 167.771 21.0328C167.771 21.2141 167.771 21.3954 167.771 21.4861C167.771 21.6674 167.771 21.8487 167.771 22.03C167.771 22.2113 167.871 22.302 167.971 22.4833C168.071 22.574 168.171 22.6646 168.271 22.7553C168.371 22.846 168.571 22.846 168.771 22.846C168.972 22.846 169.172 22.846 169.272 22.7553C169.372 22.6646 169.472 22.574 169.572 22.4833C169.672 22.3927 169.672 22.2113 169.672 22.03C169.672 21.8487 169.672 21.6674 169.672 21.4861ZM174.377 23.3899V20.6701L173.876 21.4861C173.776 21.5767 173.676 21.758 173.576 21.9394C173.476 22.1207 173.276 22.302 173.175 22.4833C173.075 22.6646 172.875 22.846 172.775 23.0273C172.675 23.2086 172.575 23.2993 172.475 23.3899H171.574V19.5822H172.475V22.302C172.575 22.2113 172.575 22.1207 172.675 22.03C172.775 21.9394 172.775 21.8487 172.875 21.758C172.975 21.5767 173.175 21.3954 173.276 21.2141C173.376 21.0328 173.576 20.8515 173.676 20.6701C173.776 20.4888 173.976 20.3075 174.076 20.1262C174.176 19.9449 174.276 19.8542 174.377 19.6729H175.277V23.4806H174.377V23.3899ZM178.68 21.3048C178.881 21.3954 179.081 21.4861 179.281 21.6674C179.381 21.8487 179.481 22.03 179.481 22.2113C179.481 22.3927 179.481 22.574 179.381 22.7553C179.281 22.9366 179.181 23.0273 178.981 23.1179C178.78 23.2086 178.58 23.2993 178.38 23.3899C178.18 23.4806 177.88 23.4806 177.579 23.4806C177.279 23.4806 176.979 23.4806 176.679 23.3899C176.378 23.2993 176.178 23.2993 175.978 23.2086L176.178 22.6646C176.378 22.7553 176.578 22.7553 176.779 22.846C176.979 22.846 177.179 22.9366 177.379 22.9366C177.78 22.9366 177.98 22.846 178.18 22.7553C178.38 22.6646 178.48 22.4833 178.48 22.2113C178.48 22.1207 178.48 22.03 178.38 21.9394C178.28 21.8487 178.28 21.8487 178.18 21.758C178.08 21.758 177.98 21.6674 177.88 21.6674C177.78 21.6674 177.679 21.6674 177.579 21.6674H176.979V21.1234H177.479C177.579 21.1234 177.679 21.1234 177.78 21.1234C177.88 21.1234 177.98 21.1234 178.08 21.0328C178.18 21.0328 178.18 20.9421 178.28 20.8515C178.38 20.7608 178.38 20.6701 178.38 20.5795C178.38 20.3982 178.28 20.3075 178.18 20.2168C178.08 20.1262 177.88 20.0355 177.579 20.0355C177.379 20.0355 177.279 20.0355 177.079 20.0355C176.879 20.0355 176.679 20.1262 176.278 20.2168L176.078 19.6729C176.278 19.5822 176.579 19.4916 176.879 19.4916C177.179 19.4009 177.479 19.4009 177.679 19.4009C178.18 19.4009 178.58 19.4916 178.881 19.6729C179.181 19.8542 179.281 20.1262 179.281 20.3982C179.281 20.5795 179.181 20.7608 179.081 20.9421C178.981 21.1234 178.881 21.2141 178.68 21.3048ZM182.484 19.5822C182.984 19.5822 183.285 19.6729 183.485 19.8542C183.685 20.0355 183.885 20.3075 183.885 20.5795C183.885 20.7608 183.885 20.8515 183.785 21.0328C183.685 21.2141 183.585 21.3048 183.385 21.3954C183.485 21.4861 183.585 21.4861 183.685 21.5767C183.785 21.6674 183.885 21.758 183.885 21.8487C183.985 21.9394 183.985 22.03 183.985 22.1207C183.985 22.2113 183.985 22.302 183.985 22.3927C183.985 22.574 183.985 22.7553 183.885 22.846C183.785 22.9366 183.685 23.1179 183.585 23.2086C183.485 23.2993 183.285 23.3899 183.184 23.3899C182.984 23.4806 182.884 23.4806 182.684 23.4806H180.282V19.6729H182.484V19.5822ZM181.283 21.6674V22.846H182.384C182.684 22.846 182.884 22.7553 182.984 22.6646C183.084 22.574 183.184 22.3927 183.184 22.2113C183.184 22.03 183.084 21.9394 182.984 21.8487C182.884 21.758 182.684 21.6674 182.384 21.6674H181.283ZM181.283 20.1262V21.1234H182.284C182.484 21.1234 182.684 21.0328 182.784 20.9421C182.884 20.8515 182.984 20.7608 182.984 20.5795C182.984 20.3982 182.884 20.3075 182.784 20.2168C182.684 20.1262 182.484 20.0355 182.184 20.0355H181.283V20.1262ZM188.789 21.4861C188.789 21.758 188.789 22.03 188.689 22.2113C188.589 22.4833 188.489 22.6646 188.389 22.846C188.189 23.0273 187.989 23.2086 187.789 23.2993C187.488 23.3899 187.188 23.4806 186.788 23.4806C186.387 23.4806 186.087 23.3899 185.887 23.2993C185.687 23.2086 185.386 23.0273 185.286 22.846C185.086 22.6646 184.986 22.4833 184.986 22.2113C184.886 21.9394 184.886 21.758 184.886 21.4861C184.886 21.2141 184.886 20.9421 184.986 20.7608C185.086 20.4888 185.186 20.3075 185.386 20.1262C185.587 19.9449 185.787 19.7635 185.987 19.6729C186.287 19.5822 186.588 19.4916 186.888 19.4916C187.288 19.4916 187.588 19.5822 187.789 19.6729C188.089 19.7635 188.289 19.9449 188.389 20.1262C188.589 20.3075 188.689 20.4888 188.689 20.7608C188.789 20.9421 188.789 21.2141 188.789 21.4861ZM187.789 21.4861C187.789 21.3048 187.789 21.1234 187.789 21.0328C187.789 20.8515 187.688 20.7608 187.688 20.5795C187.588 20.4888 187.488 20.3075 187.388 20.2168C187.288 20.1262 187.088 20.1262 186.888 20.1262C186.688 20.1262 186.487 20.1262 186.387 20.2168C186.287 20.3075 186.187 20.3982 186.087 20.5795C185.987 20.6701 185.987 20.8515 185.887 21.0328C185.887 21.2141 185.887 21.3954 185.887 21.4861C185.887 21.6674 185.887 21.8487 185.887 22.03C185.887 22.2113 185.987 22.302 186.087 22.4833C186.187 22.574 186.287 22.6646 186.387 22.7553C186.487 22.846 186.688 22.846 186.888 22.846C187.088 22.846 187.288 22.846 187.388 22.7553C187.488 22.6646 187.588 22.574 187.688 22.4833C187.789 22.3927 187.789 22.2113 187.789 22.03C187.789 21.8487 187.789 21.6674 187.789 21.4861ZM193.394 22.846H193.794V24.4778H193.093V23.3899H189.89V24.4778H189.19V22.7553H189.59C189.69 22.6646 189.89 22.4833 189.89 22.3927C189.991 22.2113 190.091 22.03 190.091 21.8487C190.091 21.6674 190.191 21.3954 190.191 21.1234C190.191 20.8515 190.291 20.5795 190.291 20.2168L190.391 19.4916H193.394C193.394 19.5822 193.394 22.846 193.394 22.846ZM191.192 20.1262V20.4888C191.192 20.7608 191.192 21.0328 191.092 21.3048C191.092 21.5767 190.991 21.758 190.991 21.9394C190.991 22.1207 190.891 22.302 190.791 22.3927C190.691 22.4833 190.691 22.6646 190.591 22.7553H192.393V20.1262H191.192ZM195.395 21.4861C195.395 21.6674 195.395 21.8487 195.496 22.03C195.496 22.2113 195.596 22.302 195.696 22.4833C195.796 22.574 195.896 22.6646 195.996 22.7553C196.096 22.846 196.296 22.846 196.496 22.846C196.697 22.846 196.897 22.846 197.097 22.7553C197.297 22.7553 197.497 22.6646 197.697 22.574L197.898 23.1179C197.698 23.2086 197.497 23.2993 197.197 23.3899C196.897 23.4806 196.697 23.4806 196.396 23.4806C195.996 23.4806 195.696 23.3899 195.496 23.2993C195.195 23.2086 194.995 23.0273 194.895 22.846C194.795 22.6646 194.595 22.4833 194.595 22.2113C194.495 21.9394 194.495 21.758 194.495 21.4861C194.495 21.3048 194.495 21.0328 194.595 20.7608C194.695 20.4888 194.795 20.3075 194.895 20.1262C194.995 19.9449 195.295 19.7635 195.496 19.5822C195.796 19.4916 196.096 19.4009 196.496 19.4009C196.697 19.4009 196.897 19.4009 197.097 19.4009C197.297 19.4009 197.497 19.4916 197.798 19.5822L197.597 20.2168C197.397 20.1262 197.197 20.1262 197.097 20.1262C196.897 20.1262 196.797 20.1262 196.697 20.1262C196.296 20.1262 195.996 20.2168 195.796 20.4888C195.496 20.7608 195.395 21.0328 195.395 21.4861ZM199.699 20.2168H198.298V19.5822H202.202V20.2168H200.7V23.4806H199.799L199.699 20.2168ZM204.904 19.5822C205.404 19.5822 205.705 19.6729 205.905 19.8542C206.105 20.0355 206.305 20.3075 206.305 20.5795C206.305 20.7608 206.305 20.8515 206.205 21.0328C206.105 21.2141 206.005 21.3048 205.805 21.3954C205.905 21.4861 206.005 21.4861 206.105 21.5767C206.205 21.6674 206.305 21.758 206.305 21.8487C206.405 21.9394 206.405 22.03 206.405 22.1207C206.405 22.2113 206.405 22.302 206.405 22.3927C206.405 22.574 206.405 22.7553 206.305 22.846C206.205 22.9366 206.105 23.1179 206.005 23.2086C205.905 23.2993 205.705 23.3899 205.605 23.3899C205.404 23.4806 205.304 23.4806 205.104 23.4806H202.802V19.6729H204.904V19.5822ZM203.603 21.6674V22.846H204.704C205.004 22.846 205.204 22.7553 205.304 22.6646C205.404 22.574 205.505 22.3927 205.505 22.2113C205.505 22.03 205.404 21.9394 205.304 21.8487C205.204 21.758 205.004 21.6674 204.704 21.6674H203.603ZM203.603 20.1262V21.1234H204.604C204.804 21.1234 205.004 21.0328 205.104 20.9421C205.204 20.8515 205.304 20.7608 205.304 20.5795C205.304 20.3982 205.204 20.3075 205.104 20.2168C205.004 20.1262 204.804 20.0355 204.504 20.0355H203.603V20.1262ZM209.108 19.4916C209.408 19.4916 209.608 19.4916 209.808 19.5822C210.009 19.6729 210.209 19.7635 210.309 19.8542C210.409 19.9449 210.509 20.0355 210.609 20.2168C210.709 20.3075 210.709 20.4888 210.809 20.6701C210.809 20.8515 210.909 20.9421 210.909 21.0328C210.909 21.1234 210.909 21.3048 210.909 21.3954V21.6674H208.107C208.107 21.8487 208.107 22.03 208.207 22.1207C208.207 22.302 208.307 22.3927 208.407 22.4833C208.507 22.574 208.607 22.6646 208.807 22.7553C208.908 22.846 209.108 22.846 209.308 22.846C209.508 22.846 209.808 22.846 210.009 22.7553C210.209 22.7553 210.409 22.6646 210.709 22.574L210.909 23.1179C210.609 23.2086 210.409 23.2993 210.109 23.3899C209.808 23.4806 209.508 23.4806 209.208 23.4806C208.807 23.4806 208.507 23.3899 208.207 23.2993C207.907 23.2086 207.707 23.0273 207.606 22.846C207.406 22.6646 207.306 22.4833 207.306 22.2113C207.206 21.9394 207.206 21.758 207.206 21.4861C207.206 21.3048 207.206 21.1234 207.306 20.8515C207.406 20.5795 207.406 20.3982 207.606 20.2168C207.707 20.0355 207.907 19.8542 208.207 19.6729C208.407 19.4916 208.707 19.4916 209.108 19.4916ZM209.108 20.0355C208.908 20.0355 208.807 20.0355 208.607 20.1262C208.507 20.2168 208.407 20.3075 208.307 20.3982C208.207 20.4888 208.207 20.5795 208.107 20.7608C208.107 20.8515 208.007 21.0328 208.007 21.2141H209.908C209.908 21.0328 209.908 20.9421 209.908 20.7608C209.908 20.6701 209.808 20.4888 209.808 20.3982C209.708 20.3075 209.608 20.2168 209.508 20.1262C209.508 20.0355 209.308 20.0355 209.108 20.0355ZM214.613 23.3899V21.6674H212.811V23.3899H211.91V19.5822H212.911V21.0328H214.713V19.5822H215.614V23.3899H214.613ZM219.217 23.3899V21.6674H217.415V23.3899H216.514V19.5822H217.515V21.0328H219.317V19.5822H220.218V23.3899H219.217ZM225.022 21.4861C225.022 21.758 225.022 22.03 224.922 22.2113C224.822 22.4833 224.722 22.6646 224.622 22.846C224.422 23.0273 224.221 23.2086 224.021 23.2993C223.721 23.3899 223.421 23.4806 223.02 23.4806C222.62 23.4806 222.32 23.3899 222.119 23.2993C221.919 23.2086 221.719 23.0273 221.519 22.846C221.319 22.6646 221.219 22.4833 221.219 22.2113C221.119 21.9394 221.119 21.758 221.119 21.4861C221.119 21.2141 221.119 20.9421 221.219 20.7608C221.319 20.4888 221.419 20.3075 221.619 20.1262C221.819 19.9449 222.019 19.7635 222.22 19.6729C222.52 19.5822 222.82 19.4916 223.12 19.4916C223.521 19.4916 223.821 19.5822 224.021 19.6729C224.321 19.7635 224.522 19.9449 224.622 20.1262C224.822 20.3075 224.922 20.4888 224.922 20.7608C225.022 20.9421 225.022 21.2141 225.022 21.4861ZM224.121 21.4861C224.121 21.3048 224.121 21.1234 224.121 21.0328C224.121 20.8515 224.021 20.7608 224.021 20.5795C223.921 20.4888 223.821 20.3075 223.721 20.2168C223.621 20.1262 223.421 20.1262 223.22 20.1262C223.02 20.1262 222.82 20.1262 222.72 20.2168C222.62 20.3075 222.52 20.3982 222.42 20.5795C222.32 20.6701 222.32 20.8515 222.22 21.0328C222.22 21.2141 222.22 21.3954 222.22 21.4861C222.22 21.6674 222.22 21.8487 222.22 22.03C222.22 22.2113 222.32 22.302 222.42 22.4833C222.52 22.574 222.62 22.6646 222.72 22.7553C222.82 22.846 223.02 22.846 223.22 22.846C223.421 22.846 223.621 22.846 223.721 22.7553C223.821 22.6646 223.921 22.574 224.021 22.4833C224.121 22.3927 224.121 22.2113 224.121 22.03C224.021 21.8487 224.121 21.6674 224.121 21.4861ZM225.923 21.0328H228.225V21.6674H225.923V21.0328ZM157.161 28.0135H155.66V27.3789H159.563V28.0135H158.062V31.2773H157.161V28.0135ZM163.967 29.2828C163.967 29.5548 163.967 29.8267 163.867 30.008C163.767 30.28 163.667 30.4613 163.567 30.6427C163.367 30.824 163.166 31.0053 162.966 31.096C162.666 31.1866 162.366 31.2773 161.965 31.2773C161.565 31.2773 161.265 31.1866 161.065 31.096C160.864 31.0053 160.564 30.824 160.464 30.6427C160.264 30.4613 160.164 30.28 160.164 30.008C160.064 29.7361 160.064 29.5548 160.064 29.2828C160.064 29.0108 160.064 28.7388 160.164 28.5575C160.264 28.2855 160.364 28.1042 160.564 27.9229C160.764 27.7416 160.964 27.5602 161.165 27.4696C161.465 27.3789 161.765 27.2883 162.065 27.2883C162.466 27.2883 162.766 27.3789 162.966 27.4696C163.267 27.5602 163.467 27.7416 163.567 27.9229C163.767 28.1042 163.867 28.2855 163.867 28.5575C163.867 28.8295 163.967 29.1015 163.967 29.2828ZM162.966 29.3734C162.966 29.1921 162.966 29.0108 162.966 28.9201C162.966 28.7388 162.866 28.6482 162.866 28.4668C162.766 28.3762 162.666 28.1949 162.566 28.1042C162.466 28.0135 162.266 28.0135 162.065 28.0135C161.865 28.0135 161.665 28.0135 161.565 28.1042C161.465 28.1949 161.365 28.2855 161.265 28.4668C161.165 28.5575 161.165 28.7388 161.065 28.9201C161.065 29.1015 161.065 29.2828 161.065 29.4641C161.065 29.6454 161.065 29.8267 161.065 30.008C161.065 30.1894 161.165 30.28 161.265 30.4613C161.365 30.552 161.465 30.6427 161.565 30.7333C161.665 30.824 161.865 30.824 162.065 30.824C162.266 30.824 162.466 30.824 162.566 30.7333C162.666 30.6427 162.766 30.552 162.866 30.4613C162.966 30.3707 162.966 30.1894 162.966 30.008C162.966 29.6454 162.966 29.4641 162.966 29.3734ZM165.769 27.7416C165.969 27.5602 166.169 27.4696 166.369 27.4696C166.569 27.3789 166.77 27.3789 167.07 27.3789C167.37 27.3789 167.67 27.4696 167.871 27.5602C168.071 27.6509 168.271 27.8322 168.371 28.0135C168.471 28.1949 168.571 28.3762 168.671 28.6482C168.771 28.9201 168.771 29.1015 168.771 29.3734C168.771 29.6454 168.771 29.9174 168.671 30.1894C168.571 30.4613 168.471 30.6427 168.371 30.824C168.271 31.0053 168.071 31.1866 167.871 31.2773C167.67 31.3679 167.37 31.4586 167.07 31.4586C166.97 31.4586 166.87 31.4586 166.77 31.4586C166.67 31.4586 166.569 31.4586 166.469 31.4586C166.369 31.4586 166.269 31.4586 166.169 31.3679C166.069 31.3679 165.969 31.2773 165.869 31.2773V33.0905H164.968V27.6509H165.869L165.769 27.7416ZM166.67 30.7333C166.77 30.7333 166.97 30.7333 167.07 30.6427C167.17 30.552 167.27 30.552 167.37 30.3707C167.47 30.28 167.57 30.0987 167.57 29.9174C167.67 29.7361 167.67 29.4641 167.67 29.1921C167.67 28.9201 167.67 28.7388 167.57 28.5575C167.57 28.3762 167.47 28.2855 167.37 28.1949C167.27 28.1042 167.17 28.0135 167.07 28.0135C166.97 28.0135 166.87 27.9229 166.67 27.9229C166.569 27.9229 166.469 27.9229 166.369 27.9229C166.269 27.9229 166.169 28.0135 166.069 28.0135C165.969 28.0135 165.869 28.1042 165.769 28.1042C165.669 28.1042 165.669 28.1949 165.569 28.1949V30.28C165.569 30.28 165.669 30.3707 165.769 30.3707C165.869 30.3707 165.969 30.4613 165.969 30.4613C166.069 30.4613 166.169 30.4613 166.269 30.552C166.569 30.6427 166.67 30.7333 166.67 30.7333ZM169.472 31.2773V27.4696H172.675V28.1042H170.473V31.3679C170.473 31.2773 169.472 31.2773 169.472 31.2773ZM177.079 29.2828C177.079 29.5548 177.079 29.8267 176.979 30.008C176.879 30.28 176.779 30.4613 176.679 30.6427C176.478 30.824 176.278 31.0053 176.078 31.096C175.778 31.1866 175.478 31.2773 175.077 31.2773C174.677 31.2773 174.377 31.1866 174.176 31.096C173.976 31.0053 173.776 30.824 173.576 30.6427C173.376 30.4613 173.276 30.28 173.276 30.008C173.175 29.7361 173.175 29.5548 173.175 29.2828C173.175 29.0108 173.175 28.7388 173.276 28.5575C173.376 28.2855 173.476 28.1042 173.676 27.9229C173.876 27.7416 174.076 27.5602 174.276 27.4696C174.577 27.3789 174.877 27.2883 175.177 27.2883C175.578 27.2883 175.878 27.3789 176.078 27.4696C176.378 27.5602 176.578 27.7416 176.679 27.9229C176.879 28.1042 176.979 28.2855 176.979 28.5575C176.979 28.8295 177.079 29.1015 177.079 29.2828ZM176.078 29.3734C176.078 29.1921 176.078 29.0108 176.078 28.9201C176.078 28.7388 175.978 28.6482 175.978 28.4668C175.878 28.3762 175.778 28.1949 175.678 28.1042C175.578 28.0135 175.377 28.0135 175.177 28.0135C174.977 28.0135 174.777 28.0135 174.677 28.1042C174.577 28.1949 174.477 28.2855 174.377 28.4668C174.276 28.5575 174.276 28.7388 174.176 28.9201C174.176 29.1015 174.176 29.2828 174.176 29.4641C174.176 29.6454 174.176 29.8267 174.176 30.008C174.176 30.1894 174.276 30.28 174.377 30.4613C174.477 30.552 174.577 30.6427 174.677 30.7333C174.777 30.824 174.977 30.824 175.177 30.824C175.377 30.824 175.578 30.824 175.678 30.7333C175.778 30.6427 175.878 30.552 175.978 30.4613C176.078 30.3707 176.078 30.1894 176.078 30.008C176.078 29.6454 176.078 29.4641 176.078 29.3734ZM180.082 27.3789C180.582 27.3789 180.882 27.4696 181.083 27.6509C181.283 27.8322 181.483 28.1042 181.483 28.3762C181.483 28.4668 181.483 28.6482 181.383 28.8295C181.283 29.0108 181.183 29.1015 180.982 29.1921C181.083 29.2828 181.183 29.2828 181.283 29.3734C181.383 29.4641 181.483 29.5548 181.483 29.6454C181.583 29.7361 181.583 29.8267 181.583 29.9174C181.583 30.008 181.583 30.0987 181.583 30.1894C181.583 30.3707 181.583 30.552 181.483 30.6427C181.383 30.7333 181.283 30.9146 181.183 31.0053C181.083 31.096 180.882 31.1866 180.782 31.1866C180.582 31.2773 180.482 31.2773 180.282 31.2773H177.98V27.4696L180.082 27.3789ZM178.881 29.4641V30.6427H179.982C180.282 30.6427 180.482 30.552 180.582 30.4613C180.682 30.3707 180.782 30.1894 180.782 30.008C180.782 29.8267 180.682 29.7361 180.582 29.6454C180.482 29.5548 180.282 29.4641 179.982 29.4641H178.881ZM178.881 28.0135V29.0108H179.881C180.082 29.0108 180.282 28.9201 180.382 28.8295C180.482 28.7388 180.582 28.6482 180.582 28.4668C180.582 28.2855 180.482 28.1949 180.382 28.1042C180.282 28.0135 180.082 27.9229 179.781 27.9229H178.881V28.0135ZM185.887 30.6427H186.487L186.588 31.096C186.487 31.1866 186.287 31.1866 186.187 31.1866C185.987 31.1866 185.887 31.1866 185.687 31.1866C185.487 31.1866 185.386 31.1866 185.286 31.096C185.186 31.0053 185.086 30.9146 185.086 30.7333C184.886 30.824 184.786 30.9146 184.586 31.0053C184.486 31.096 184.285 31.096 184.185 31.1866C184.085 31.1866 183.985 31.2773 183.885 31.2773C183.785 31.2773 183.685 31.2773 183.685 31.2773C183.385 31.2773 183.184 31.2773 183.084 31.1866C182.884 31.096 182.784 31.0053 182.684 30.9146C182.584 30.824 182.484 30.6427 182.484 30.552C182.484 30.4613 182.384 30.28 182.384 30.1894C182.384 30.008 182.384 29.8267 182.484 29.7361C182.584 29.5548 182.684 29.4641 182.884 29.3734C183.084 29.2828 183.184 29.1921 183.385 29.1921C183.585 29.1015 183.785 29.1015 184.085 29.1015L185.086 29.0108V28.8295C185.086 28.5575 184.986 28.3762 184.886 28.1949C184.786 28.1042 184.586 28.0135 184.185 28.0135C183.985 28.0135 183.785 28.0135 183.485 28.1042C183.285 28.1042 182.984 28.1949 182.784 28.2855C182.784 28.1949 182.684 28.1042 182.684 28.0135C182.684 27.9229 182.584 27.8322 182.584 27.7416C182.784 27.6509 183.084 27.5602 183.385 27.4696C183.685 27.3789 183.985 27.3789 184.285 27.3789C184.486 27.3789 184.786 27.3789 184.886 27.4696C185.086 27.5602 185.286 27.5602 185.386 27.6509C185.487 27.7416 185.587 27.9229 185.687 28.0135C185.787 28.1949 185.787 28.3762 185.787 28.6482L185.887 30.6427ZM183.985 29.5548C183.685 29.5548 183.585 29.6454 183.385 29.7361C183.285 29.8267 183.184 30.008 183.184 30.1894C183.184 30.3707 183.285 30.552 183.385 30.6427C183.485 30.7333 183.685 30.824 183.885 30.824C184.085 30.824 184.185 30.824 184.386 30.7333C184.586 30.6427 184.786 30.552 184.886 30.3707V29.5548C184.986 29.4641 183.985 29.5548 183.985 29.5548ZM187.989 29.4641C187.688 29.3734 187.588 29.2828 187.488 29.1015C187.388 28.9201 187.288 28.7388 187.288 28.5575C187.288 28.3762 187.288 28.2855 187.388 28.1042C187.488 27.9229 187.588 27.8322 187.688 27.7416C187.789 27.6509 187.989 27.5602 188.189 27.4696C188.389 27.3789 188.589 27.3789 188.89 27.3789H190.891V31.1866H189.991V29.6454H189.29C189.09 29.6454 188.89 29.6454 188.789 29.7361C188.689 29.8267 188.589 29.9174 188.489 30.1894L188.089 31.1866H187.088L187.488 30.0987C187.488 30.008 187.588 29.8267 187.688 29.7361C187.688 29.6454 187.789 29.5548 187.989 29.4641ZM188.289 28.5575C188.289 28.6482 188.289 28.8295 188.389 28.8295C188.389 28.9201 188.489 29.0108 188.589 29.0108C188.689 29.0108 188.789 29.1015 188.89 29.1015C188.99 29.1015 189.09 29.1015 189.19 29.1015H190.091V27.9229H189.19C188.99 27.9229 188.789 27.9229 188.589 28.0135C188.289 28.1949 188.289 28.2855 188.289 28.5575ZM194.294 31.2773V27.4696H197.497V28.1042H195.295V31.3679C195.195 31.2773 194.294 31.2773 194.294 31.2773ZM198.899 27.7416C199.099 27.5602 199.299 27.4696 199.499 27.4696C199.699 27.3789 199.899 27.3789 200.2 27.3789C200.5 27.3789 200.8 27.4696 201 27.5602C201.201 27.6509 201.401 27.8322 201.501 28.0135C201.601 28.1949 201.701 28.3762 201.801 28.6482C201.901 28.9201 201.901 29.1015 201.901 29.3734C201.901 29.6454 201.901 29.9174 201.801 30.1894C201.701 30.4613 201.601 30.6427 201.501 30.824C201.401 31.0053 201.201 31.1866 201 31.2773C200.8 31.3679 200.5 31.4586 200.2 31.4586C200.1 31.4586 200 31.4586 199.899 31.4586C199.799 31.4586 199.699 31.4586 199.599 31.4586C199.499 31.4586 199.399 31.4586 199.299 31.3679C199.199 31.3679 199.099 31.2773 198.999 31.2773V33.0905H198.098V27.6509H198.999L198.899 27.7416ZM199.899 30.7333C200 30.7333 200.2 30.7333 200.3 30.6427C200.4 30.552 200.5 30.552 200.6 30.3707C200.7 30.28 200.8 30.0987 200.8 29.9174C200.9 29.7361 200.9 29.4641 200.9 29.1921C200.9 28.9201 200.9 28.7388 200.8 28.5575C200.8 28.3762 200.7 28.2855 200.6 28.1949C200.5 28.1042 200.4 28.0135 200.3 28.0135C200.2 28.0135 200.1 27.9229 199.899 27.9229C199.799 27.9229 199.699 27.9229 199.599 27.9229C199.499 27.9229 199.399 28.0135 199.299 28.0135C199.199 28.0135 199.099 28.1042 198.999 28.1042C198.899 28.1042 198.899 28.1949 198.798 28.1949V30.28C198.798 30.28 198.899 30.3707 198.999 30.3707C199.099 30.3707 199.199 30.4613 199.199 30.4613C199.299 30.4613 199.399 30.4613 199.499 30.552C199.699 30.6427 199.799 30.7333 199.899 30.7333ZM204.504 30.008C204.604 29.5548 204.804 29.1921 204.904 28.7388C205.104 28.2855 205.204 27.8322 205.304 27.4696H206.305L204.604 32.0026C204.504 32.3652 204.303 32.6372 204.103 32.7278C203.903 32.9091 203.603 32.9998 203.303 32.9998C203.202 32.9998 203.202 32.9998 203.102 32.9998C203.002 32.9998 203.002 32.9998 202.902 32.9998C202.802 32.9998 202.702 32.9998 202.602 32.9998C202.502 32.9998 202.402 32.9998 202.202 32.9091L202.302 32.3652C202.502 32.3652 202.602 32.3652 202.702 32.4558C202.802 32.4558 202.902 32.4558 203.002 32.4558C203.202 32.4558 203.303 32.4559 203.403 32.3652C203.503 32.2745 203.603 32.1839 203.703 32.0026L203.903 31.4586H203.503C203.303 30.824 203.102 30.1894 202.802 29.5548C202.602 28.9201 202.402 28.2855 202.101 27.6509H203.002C203.102 27.8322 203.102 28.0135 203.202 28.2855C203.303 28.4668 203.303 28.7388 203.403 28.9201C203.503 29.1015 203.503 29.3734 203.603 29.5548C203.703 29.7361 203.703 30.008 203.803 30.1894C203.803 30.3707 203.903 30.4613 203.903 30.6427C203.903 30.7333 204.003 30.824 204.003 30.9146H204.103L204.504 30.008ZM209.708 31.2773V28.0135H207.907V31.2773H207.006V27.4696H210.709V28.3762C210.709 28.7388 210.709 29.0108 210.709 29.3734C210.709 29.7361 210.709 30.0987 210.709 30.3707V31.2773H209.708ZM214.312 31.2773V28.0135H212.511V31.2773H211.61V27.4696H215.313V28.3762C215.313 28.7388 215.313 29.0108 215.313 29.3734C215.313 29.7361 215.313 30.0987 215.313 30.3707V31.2773H214.312Z" fill="white"/>
<path d="M219.717 30.6426H220.318L220.418 31.0959C220.318 31.1866 220.117 31.1866 220.017 31.1866C219.817 31.1866 219.717 31.1866 219.517 31.1866C219.317 31.1866 219.217 31.1866 219.116 31.0959C219.016 31.0053 218.916 30.9146 218.916 30.7333C218.716 30.824 218.616 30.9146 218.416 31.0053C218.316 31.0959 218.116 31.0959 218.015 31.1866C217.915 31.1866 217.815 31.2773 217.715 31.2773C217.615 31.2773 217.515 31.2773 217.515 31.2773C217.215 31.2773 217.015 31.2773 216.915 31.1866C216.714 31.0959 216.614 31.0053 216.514 30.9146C216.414 30.824 216.314 30.6426 216.314 30.552C216.314 30.4613 216.214 30.28 216.214 30.1893C216.214 30.008 216.214 29.8267 216.314 29.736C216.414 29.5547 216.514 29.4641 216.714 29.3734C216.914 29.2828 217.015 29.1921 217.215 29.1921C217.415 29.1014 217.615 29.1014 217.915 29.1014L218.916 29.0108V28.8295C218.916 28.5575 218.816 28.3762 218.716 28.1948C218.616 28.1042 218.416 28.0135 218.015 28.0135C217.815 28.0135 217.615 28.0135 217.315 28.1042C217.115 28.1042 216.814 28.1948 216.614 28.2855C216.614 28.1948 216.514 28.1042 216.514 28.0135C216.514 27.9229 216.414 27.8322 216.414 27.7415C216.614 27.6509 216.914 27.5602 217.215 27.4696C217.515 27.3789 217.815 27.3789 218.116 27.3789C218.316 27.3789 218.616 27.3789 218.716 27.4696C218.916 27.5602 219.116 27.5602 219.217 27.6509C219.317 27.7415 219.417 27.9229 219.517 28.0135C219.617 28.1948 219.617 28.3762 219.617 28.6481L219.717 30.6426ZM217.815 29.5547C217.515 29.5547 217.415 29.6454 217.215 29.736C217.115 29.8267 217.015 30.008 217.015 30.1893C217.015 30.3707 217.115 30.552 217.215 30.6426C217.315 30.7333 217.515 30.824 217.715 30.824C217.915 30.824 218.015 30.824 218.216 30.7333C218.416 30.6426 218.616 30.552 218.716 30.3707V29.5547C218.816 29.4641 217.815 29.5547 217.815 29.5547Z" fill="white"/>
</g>
<defs>
<clipPath id="clip0_514_772">
<rect width="235.612" height="66" fill="white" transform="translate(0.119629)"/>
</clipPath>
</defs>
</svg>
